G04*
G04 #@! TF.GenerationSoftware,Altium Limited,Altium Designer,25.5.2 (35)*
G04*
G04 Layer_Color=8388736*
%FSLAX25Y25*%
%MOIN*%
G70*
G04*
G04 #@! TF.SameCoordinates,5858FFA7-226C-4CE8-8668-B70CF27CC624*
G04*
G04*
G04 #@! TF.FilePolarity,Negative*
G04*
G01*
G75*
%ADD16R,0.01181X0.04724*%
%ADD17R,0.04724X0.01181*%
%ADD23R,0.08268X0.22047*%
G04:AMPARAMS|DCode=28|XSize=53.36mil|YSize=22.14mil|CornerRadius=11.07mil|HoleSize=0mil|Usage=FLASHONLY|Rotation=0.000|XOffset=0mil|YOffset=0mil|HoleType=Round|Shape=RoundedRectangle|*
%AMROUNDEDRECTD28*
21,1,0.05336,0.00000,0,0,0.0*
21,1,0.03121,0.02214,0,0,0.0*
1,1,0.02214,0.01561,0.00000*
1,1,0.02214,-0.01561,0.00000*
1,1,0.02214,-0.01561,0.00000*
1,1,0.02214,0.01561,0.00000*
%
%ADD28ROUNDEDRECTD28*%
G04:AMPARAMS|DCode=29|XSize=53.36mil|YSize=22.14mil|CornerRadius=11.07mil|HoleSize=0mil|Usage=FLASHONLY|Rotation=90.000|XOffset=0mil|YOffset=0mil|HoleType=Round|Shape=RoundedRectangle|*
%AMROUNDEDRECTD29*
21,1,0.05336,0.00000,0,0,90.0*
21,1,0.03121,0.02214,0,0,90.0*
1,1,0.02214,0.00000,0.01561*
1,1,0.02214,0.00000,-0.01561*
1,1,0.02214,0.00000,-0.01561*
1,1,0.02214,0.00000,0.01561*
%
%ADD29ROUNDEDRECTD29*%
%ADD34R,0.04355X0.03773*%
%ADD35R,0.11024X0.20866*%
%ADD37R,0.09843X0.03937*%
%ADD38R,0.05336X0.02214*%
%ADD39R,0.02214X0.05336*%
%ADD40R,0.09265X0.09461*%
G04:AMPARAMS|DCode=41|XSize=39.5mil|YSize=47.37mil|CornerRadius=7.94mil|HoleSize=0mil|Usage=FLASHONLY|Rotation=180.000|XOffset=0mil|YOffset=0mil|HoleType=Round|Shape=RoundedRectangle|*
%AMROUNDEDRECTD41*
21,1,0.03950,0.03150,0,0,180.0*
21,1,0.02362,0.04737,0,0,180.0*
1,1,0.01587,-0.01181,0.01575*
1,1,0.01587,0.01181,0.01575*
1,1,0.01587,0.01181,-0.01575*
1,1,0.01587,-0.01181,-0.01575*
%
%ADD41ROUNDEDRECTD41*%
%ADD42R,0.03084X0.05446*%
G04:AMPARAMS|DCode=43|XSize=39.5mil|YSize=47.37mil|CornerRadius=7.94mil|HoleSize=0mil|Usage=FLASHONLY|Rotation=270.000|XOffset=0mil|YOffset=0mil|HoleType=Round|Shape=RoundedRectangle|*
%AMROUNDEDRECTD43*
21,1,0.03950,0.03150,0,0,270.0*
21,1,0.02362,0.04737,0,0,270.0*
1,1,0.01587,-0.01575,-0.01181*
1,1,0.01587,-0.01575,0.01181*
1,1,0.01587,0.01575,0.01181*
1,1,0.01587,0.01575,-0.01181*
%
%ADD43ROUNDEDRECTD43*%
G04:AMPARAMS|DCode=44|XSize=33.59mil|YSize=72.96mil|CornerRadius=5.92mil|HoleSize=0mil|Usage=FLASHONLY|Rotation=180.000|XOffset=0mil|YOffset=0mil|HoleType=Round|Shape=RoundedRectangle|*
%AMROUNDEDRECTD44*
21,1,0.03359,0.06112,0,0,180.0*
21,1,0.02175,0.07296,0,0,180.0*
1,1,0.01184,-0.01088,0.03056*
1,1,0.01184,0.01088,0.03056*
1,1,0.01184,0.01088,-0.03056*
1,1,0.01184,-0.01088,-0.03056*
%
%ADD44ROUNDEDRECTD44*%
%ADD45O,0.07099X0.02572*%
%ADD46R,0.03950X0.04343*%
G04:AMPARAMS|DCode=47|XSize=47.37mil|YSize=171.39mil|CornerRadius=5.97mil|HoleSize=0mil|Usage=FLASHONLY|Rotation=90.000|XOffset=0mil|YOffset=0mil|HoleType=Round|Shape=RoundedRectangle|*
%AMROUNDEDRECTD47*
21,1,0.04737,0.15945,0,0,90.0*
21,1,0.03543,0.17139,0,0,90.0*
1,1,0.01194,0.07972,0.01772*
1,1,0.01194,0.07972,-0.01772*
1,1,0.01194,-0.07972,-0.01772*
1,1,0.01194,-0.07972,0.01772*
%
%ADD47ROUNDEDRECTD47*%
G04:AMPARAMS|DCode=48|XSize=259.97mil|YSize=330.84mil|CornerRadius=6.52mil|HoleSize=0mil|Usage=FLASHONLY|Rotation=90.000|XOffset=0mil|YOffset=0mil|HoleType=Round|Shape=RoundedRectangle|*
%AMROUNDEDRECTD48*
21,1,0.25997,0.31780,0,0,90.0*
21,1,0.24693,0.33084,0,0,90.0*
1,1,0.01304,0.15890,0.12347*
1,1,0.01304,0.15890,-0.12347*
1,1,0.01304,-0.15890,-0.12347*
1,1,0.01304,-0.15890,0.12347*
%
%ADD48ROUNDEDRECTD48*%
%ADD49R,0.06312X0.09068*%
%ADD50R,0.05800X0.05800*%
%ADD51C,0.06706*%
%ADD52R,0.06706X0.06706*%
%ADD53C,0.04724*%
%ADD54C,0.07284*%
%ADD55C,0.04921*%
%ADD56R,0.05118X0.05118*%
%ADD57R,0.10800X0.16800*%
%ADD58C,0.08871*%
%ADD59R,0.05118X0.05118*%
G04:AMPARAMS|DCode=60|XSize=73mil|YSize=108mil|CornerRadius=0mil|HoleSize=0mil|Usage=FLASHONLY|Rotation=120.000|XOffset=0mil|YOffset=0mil|HoleType=Round|Shape=Round|*
%AMOVALD60*
21,1,0.03500,0.07300,0.00000,0.00000,210.0*
1,1,0.07300,0.01516,0.00875*
1,1,0.07300,-0.01516,-0.00875*
%
%ADD60OVALD60*%

%ADD61O,0.10800X0.07300*%
G04:AMPARAMS|DCode=62|XSize=73mil|YSize=108mil|CornerRadius=0mil|HoleSize=0mil|Usage=FLASHONLY|Rotation=150.000|XOffset=0mil|YOffset=0mil|HoleType=Round|Shape=Round|*
%AMOVALD62*
21,1,0.03500,0.07300,0.00000,0.00000,240.0*
1,1,0.07300,0.00875,0.01516*
1,1,0.07300,-0.00875,-0.01516*
%
%ADD62OVALD62*%

G04:AMPARAMS|DCode=63|XSize=73mil|YSize=108mil|CornerRadius=0mil|HoleSize=0mil|Usage=FLASHONLY|Rotation=60.000|XOffset=0mil|YOffset=0mil|HoleType=Round|Shape=Round|*
%AMOVALD63*
21,1,0.03500,0.07300,0.00000,0.00000,150.0*
1,1,0.07300,0.01516,-0.00875*
1,1,0.07300,-0.01516,0.00875*
%
%ADD63OVALD63*%

G04:AMPARAMS|DCode=64|XSize=73mil|YSize=108mil|CornerRadius=0mil|HoleSize=0mil|Usage=FLASHONLY|Rotation=30.000|XOffset=0mil|YOffset=0mil|HoleType=Round|Shape=Round|*
%AMOVALD64*
21,1,0.03500,0.07300,0.00000,0.00000,120.0*
1,1,0.07300,0.00875,-0.01516*
1,1,0.07300,-0.00875,0.01516*
%
%ADD64OVALD64*%

%ADD65O,0.07300X0.10800*%
%ADD66R,0.04921X0.04921*%
%ADD67C,0.05118*%
%ADD68R,0.04724X0.04724*%
%ADD69C,0.06800*%
G04:AMPARAMS|DCode=70|XSize=73mil|YSize=108mil|CornerRadius=0mil|HoleSize=0mil|Usage=FLASHONLY|Rotation=240.000|XOffset=0mil|YOffset=0mil|HoleType=Round|Shape=Rectangle|*
%AMROTATEDRECTD70*
4,1,4,-0.02852,0.05861,0.06502,0.00461,0.02852,-0.05861,-0.06502,-0.00461,-0.02852,0.05861,0.0*
%
%ADD70ROTATEDRECTD70*%

%ADD71C,0.07493*%
%ADD72R,0.07284X0.07284*%
%ADD73C,0.06902*%
%ADD74R,0.07300X0.10800*%
G04:AMPARAMS|DCode=75|XSize=73mil|YSize=108mil|CornerRadius=0mil|HoleSize=0mil|Usage=FLASHONLY|Rotation=120.000|XOffset=0mil|YOffset=0mil|HoleType=Round|Shape=Rectangle|*
%AMROTATEDRECTD75*
4,1,4,0.06502,-0.00461,-0.02852,-0.05861,-0.06502,0.00461,0.02852,0.05861,0.06502,-0.00461,0.0*
%
%ADD75ROTATEDRECTD75*%

G04:AMPARAMS|DCode=76|XSize=73mil|YSize=108mil|CornerRadius=0mil|HoleSize=0mil|Usage=FLASHONLY|Rotation=150.000|XOffset=0mil|YOffset=0mil|HoleType=Round|Shape=Rectangle|*
%AMROTATEDRECTD76*
4,1,4,0.05861,0.02852,0.00461,-0.06502,-0.05861,-0.02852,-0.00461,0.06502,0.05861,0.02852,0.0*
%
%ADD76ROTATEDRECTD76*%

%ADD77R,0.10800X0.07300*%
G04:AMPARAMS|DCode=78|XSize=73mil|YSize=108mil|CornerRadius=0mil|HoleSize=0mil|Usage=FLASHONLY|Rotation=30.000|XOffset=0mil|YOffset=0mil|HoleType=Round|Shape=Rectangle|*
%AMROTATEDRECTD78*
4,1,4,-0.00461,-0.06502,-0.05861,0.02852,0.00461,0.06502,0.05861,-0.02852,-0.00461,-0.06502,0.0*
%
%ADD78ROTATEDRECTD78*%

%ADD79R,0.06902X0.06902*%
%ADD80R,0.16800X0.10800*%
D16*
X318110Y107283D02*
D03*
X274803Y168307D02*
D03*
Y107283D02*
D03*
X320079Y168307D02*
D03*
X282677Y107283D02*
D03*
X280709D02*
D03*
X284646D02*
D03*
X278740D02*
D03*
X272835D02*
D03*
X286614D02*
D03*
X288583D02*
D03*
X290551D02*
D03*
X292520D02*
D03*
X294488D02*
D03*
X296457D02*
D03*
X298425D02*
D03*
X300394D02*
D03*
X304331D02*
D03*
X306299D02*
D03*
X308268D02*
D03*
X310236D02*
D03*
X314173D02*
D03*
X316142D02*
D03*
X318110Y168307D02*
D03*
X316142D02*
D03*
X310236D02*
D03*
X308268D02*
D03*
X306299D02*
D03*
X304331D02*
D03*
X302362D02*
D03*
X300394D02*
D03*
X298425D02*
D03*
X296457D02*
D03*
X294488D02*
D03*
X292520D02*
D03*
X290551D02*
D03*
X288583D02*
D03*
X286614D02*
D03*
X284646D02*
D03*
X282677D02*
D03*
X280709D02*
D03*
X278740D02*
D03*
X276772Y107283D02*
D03*
X320079D02*
D03*
X272835Y168307D02*
D03*
D17*
X326969Y159449D02*
D03*
X265945Y143701D02*
D03*
Y124016D02*
D03*
X326969Y155512D02*
D03*
X265945D02*
D03*
Y153543D02*
D03*
Y149606D02*
D03*
Y147638D02*
D03*
Y145669D02*
D03*
Y139764D02*
D03*
Y137795D02*
D03*
Y135827D02*
D03*
Y133858D02*
D03*
Y131890D02*
D03*
Y129921D02*
D03*
Y127953D02*
D03*
Y118110D02*
D03*
Y116142D02*
D03*
Y114173D02*
D03*
X326969Y118110D02*
D03*
Y125984D02*
D03*
Y127953D02*
D03*
Y129921D02*
D03*
Y131890D02*
D03*
Y133858D02*
D03*
Y135827D02*
D03*
Y137795D02*
D03*
Y139764D02*
D03*
Y141732D02*
D03*
Y143701D02*
D03*
Y145669D02*
D03*
Y147638D02*
D03*
Y149606D02*
D03*
Y151575D02*
D03*
Y153543D02*
D03*
Y157480D02*
D03*
X265945Y120079D02*
D03*
Y122047D02*
D03*
Y125984D02*
D03*
Y141732D02*
D03*
Y151575D02*
D03*
X326969Y161417D02*
D03*
D23*
X223917Y159646D02*
D03*
Y122244D02*
D03*
D28*
X289467Y215049D02*
D03*
X296754Y218789D02*
D03*
D29*
X276181Y215748D02*
D03*
X272441Y223035D02*
D03*
D34*
X74512Y239862D02*
D03*
X69189D02*
D03*
D35*
X164272Y158268D02*
D03*
X124508D02*
D03*
D37*
X71358Y284154D02*
D03*
Y264469D02*
D03*
X93012Y274311D02*
D03*
D38*
X289467Y222529D02*
D03*
D39*
X268701Y215748D02*
D03*
D40*
X185039Y346358D02*
D03*
Y328445D02*
D03*
D41*
X377362Y361713D02*
D03*
X354035Y363091D02*
D03*
X382579Y322638D02*
D03*
X354035Y322539D02*
D03*
X371850Y280807D02*
D03*
X243504Y311614D02*
D03*
X372244Y177559D02*
D03*
X376575Y109941D02*
D03*
X345768Y186220D02*
D03*
X346949Y174508D02*
D03*
X364469Y74803D02*
D03*
X373524Y34547D02*
D03*
X349606D02*
D03*
X342618Y74803D02*
D03*
X274705Y205118D02*
D03*
X249803Y120965D02*
D03*
X250000Y111024D02*
D03*
X95768Y299803D02*
D03*
X94488Y249705D02*
D03*
X23917Y320768D02*
D03*
X82677Y117815D02*
D03*
X21654Y216142D02*
D03*
X47638Y74803D02*
D03*
X49508Y33957D02*
D03*
X21654Y115748D02*
D03*
X18996Y74803D02*
D03*
X25984Y33957D02*
D03*
X341043Y174508D02*
D03*
X255906Y111024D02*
D03*
X255709Y120965D02*
D03*
X92224Y34252D02*
D03*
X320965Y76167D02*
D03*
X92028Y75000D02*
D03*
X335827Y322539D02*
D03*
Y363091D02*
D03*
X62205Y74803D02*
D03*
X296457Y75977D02*
D03*
X296161Y34350D02*
D03*
X311024Y363091D02*
D03*
Y322539D02*
D03*
X62205Y33957D02*
D03*
X321161Y34252D02*
D03*
X89862Y299803D02*
D03*
X18012Y320768D02*
D03*
X302362Y75977D02*
D03*
X288976Y235335D02*
D03*
X276083Y235236D02*
D03*
X237598Y311614D02*
D03*
X294882Y235335D02*
D03*
X377756Y280807D02*
D03*
X378150Y177559D02*
D03*
X302067Y34350D02*
D03*
X343701Y34547D02*
D03*
X348524Y74803D02*
D03*
X86319Y34252D02*
D03*
X68110Y74803D02*
D03*
Y33957D02*
D03*
X24902Y74803D02*
D03*
X370669Y109941D02*
D03*
X268799Y205118D02*
D03*
X341732Y363091D02*
D03*
X359941D02*
D03*
X316929D02*
D03*
X383268Y361713D02*
D03*
X341732Y322539D02*
D03*
X316929D02*
D03*
X339862Y186220D02*
D03*
X315059Y76167D02*
D03*
X88583Y249705D02*
D03*
X270177Y235236D02*
D03*
X377756Y227657D02*
D03*
X371850D02*
D03*
X43602Y33957D02*
D03*
X41732Y74803D02*
D03*
X20079Y33957D02*
D03*
X15748Y166043D02*
D03*
X21654D02*
D03*
X15748Y267323D02*
D03*
X21654D02*
D03*
X376083Y128937D02*
D03*
X370177D02*
D03*
X367618Y34547D02*
D03*
X358563Y74803D02*
D03*
X376673Y322638D02*
D03*
X15748Y115748D02*
D03*
X86122Y75000D02*
D03*
X359941Y322539D02*
D03*
X88583Y117815D02*
D03*
X15748Y216142D02*
D03*
X327067Y34252D02*
D03*
D42*
X363307Y353287D02*
D03*
X363563Y44252D02*
D03*
X39941Y45138D02*
D03*
X363307Y332343D02*
D03*
X363563Y65197D02*
D03*
X39941Y66083D02*
D03*
X353307Y353287D02*
D03*
X49941Y45138D02*
D03*
X368563Y44252D02*
D03*
Y65197D02*
D03*
X358307Y332343D02*
D03*
X44941Y45138D02*
D03*
Y66083D02*
D03*
X373563Y65197D02*
D03*
X353307Y332343D02*
D03*
X49941Y66083D02*
D03*
X373563Y44252D02*
D03*
X358307Y353287D02*
D03*
X358563Y44252D02*
D03*
X353563D02*
D03*
X348563D02*
D03*
X343563D02*
D03*
Y65197D02*
D03*
X348563D02*
D03*
X353563D02*
D03*
X358563D02*
D03*
X378307Y353287D02*
D03*
X383307Y332343D02*
D03*
X373307D02*
D03*
X368307Y353287D02*
D03*
X29941Y66083D02*
D03*
X19941D02*
D03*
X34941Y45138D02*
D03*
X24941D02*
D03*
Y66083D02*
D03*
X373307Y353287D02*
D03*
X383307D02*
D03*
X378307Y332343D02*
D03*
X34941Y66083D02*
D03*
X19941Y45138D02*
D03*
X29941D02*
D03*
X368307Y332343D02*
D03*
D43*
X320472Y374409D02*
D03*
X214764D02*
D03*
X203150Y340453D02*
D03*
X345866Y155709D02*
D03*
X325492Y89370D02*
D03*
X316339Y89469D02*
D03*
X272933Y184646D02*
D03*
X256004Y157579D02*
D03*
X206988Y161811D02*
D03*
X276772Y91142D02*
D03*
X281496Y21260D02*
D03*
X207480Y119783D02*
D03*
X112205Y374409D02*
D03*
X142913Y94587D02*
D03*
X176575Y21260D02*
D03*
X127756Y94291D02*
D03*
X109547D02*
D03*
X71358Y21260D02*
D03*
X283169Y183661D02*
D03*
X296654Y183465D02*
D03*
X272933Y178740D02*
D03*
X325492Y95276D02*
D03*
X276772Y97047D02*
D03*
X203150Y346358D02*
D03*
X256004Y151673D02*
D03*
X160335Y94685D02*
D03*
X127756Y88386D02*
D03*
X109547D02*
D03*
X296654Y189370D02*
D03*
X207480Y113878D02*
D03*
X259547Y199606D02*
D03*
X345866Y161614D02*
D03*
X316339Y95374D02*
D03*
X206988Y167717D02*
D03*
X283169Y189567D02*
D03*
X160335Y88780D02*
D03*
X142913Y88681D02*
D03*
X214764Y380315D02*
D03*
X320472D02*
D03*
X71358Y15354D02*
D03*
X128150Y21260D02*
D03*
Y15354D02*
D03*
X176575D02*
D03*
X281496D02*
D03*
X32677Y21063D02*
D03*
Y15157D02*
D03*
X227854Y21260D02*
D03*
Y15354D02*
D03*
X259547Y205512D02*
D03*
X264075Y380315D02*
D03*
Y374409D02*
D03*
X357677Y380315D02*
D03*
Y374409D02*
D03*
X32776Y381594D02*
D03*
Y375689D02*
D03*
X356693Y15157D02*
D03*
Y21063D02*
D03*
X164862Y374409D02*
D03*
X112205Y380315D02*
D03*
X164862D02*
D03*
D44*
X325886Y331398D02*
D03*
X311220Y65354D02*
D03*
X77165Y66043D02*
D03*
X325886Y353642D02*
D03*
X311220Y43110D02*
D03*
X77165Y43799D02*
D03*
X92165D02*
D03*
X87165D02*
D03*
X326220Y65354D02*
D03*
X321220D02*
D03*
X92165Y66043D02*
D03*
X87165D02*
D03*
X340886Y331398D02*
D03*
X335886D02*
D03*
Y353642D02*
D03*
X340886D02*
D03*
X67165Y66043D02*
D03*
X62165D02*
D03*
X301220Y65354D02*
D03*
X296220D02*
D03*
X301220Y43110D02*
D03*
X296220D02*
D03*
X310886Y353642D02*
D03*
X315886D02*
D03*
Y331398D02*
D03*
X310886D02*
D03*
X67165Y43799D02*
D03*
X62165D02*
D03*
X326220Y43110D02*
D03*
X321220D02*
D03*
X72165Y43799D02*
D03*
X330886Y353642D02*
D03*
X320886D02*
D03*
X330886Y331398D02*
D03*
X320886D02*
D03*
X306220Y43110D02*
D03*
X316220D02*
D03*
X306220Y65354D02*
D03*
X316220D02*
D03*
X82165Y66043D02*
D03*
X72165D02*
D03*
X82165Y43799D02*
D03*
D45*
X291437Y333957D02*
D03*
X262303Y341634D02*
D03*
Y344193D02*
D03*
X246752Y333957D02*
D03*
X262303Y326280D02*
D03*
Y328839D02*
D03*
X217618Y341634D02*
D03*
Y344193D02*
D03*
Y328839D02*
D03*
Y326280D02*
D03*
X291437Y339075D02*
D03*
X246752D02*
D03*
X217618Y321161D02*
D03*
Y323720D02*
D03*
Y331398D02*
D03*
Y333957D02*
D03*
Y336516D02*
D03*
Y339075D02*
D03*
Y346752D02*
D03*
Y349311D02*
D03*
X246752Y321161D02*
D03*
Y323720D02*
D03*
Y349311D02*
D03*
Y344193D02*
D03*
Y328839D02*
D03*
Y326280D02*
D03*
Y341634D02*
D03*
Y331398D02*
D03*
Y346752D02*
D03*
Y336516D02*
D03*
X291437Y341634D02*
D03*
Y344193D02*
D03*
Y336516D02*
D03*
Y346752D02*
D03*
X262303Y349311D02*
D03*
Y346752D02*
D03*
Y339075D02*
D03*
Y336516D02*
D03*
Y333957D02*
D03*
Y331398D02*
D03*
Y323720D02*
D03*
Y321161D02*
D03*
X291437Y349311D02*
D03*
Y326280D02*
D03*
Y328839D02*
D03*
Y331398D02*
D03*
D46*
X122343Y249016D02*
D03*
X158661Y187500D02*
D03*
X163583D02*
D03*
X127264Y249016D02*
D03*
D47*
X120669Y216339D02*
D03*
Y202953D02*
D03*
Y209646D02*
D03*
Y223032D02*
D03*
Y229724D02*
D03*
D48*
X161811Y216339D02*
D03*
D49*
X142520Y77067D02*
D03*
Y41240D02*
D03*
X243898Y77264D02*
D03*
Y41437D02*
D03*
X109449Y76673D02*
D03*
Y40846D02*
D03*
X127165Y76673D02*
D03*
Y40846D02*
D03*
X160236Y77067D02*
D03*
Y41240D02*
D03*
X226181Y77264D02*
D03*
Y41437D02*
D03*
D50*
X111559Y117815D02*
D03*
X320598Y186220D02*
D03*
X77987Y299902D02*
D03*
X68987D02*
D03*
X329598Y186220D02*
D03*
X68987Y249803D02*
D03*
X77987D02*
D03*
X102559Y117815D02*
D03*
D51*
X259291Y51516D02*
D03*
X269291D02*
D03*
X259291Y61516D02*
D03*
X269291Y41516D02*
D03*
Y61516D02*
D03*
X259291Y41516D02*
D03*
X269291Y71516D02*
D03*
X238780Y238110D02*
D03*
Y228110D02*
D03*
Y218110D02*
D03*
X215256Y227854D02*
D03*
Y217854D02*
D03*
Y207854D02*
D03*
D52*
X259291Y71516D02*
D03*
X238780Y208110D02*
D03*
X215256Y237854D02*
D03*
D53*
X285236Y265945D02*
D03*
X253445D02*
D03*
X220177D02*
D03*
X285236Y289567D02*
D03*
X253445D02*
D03*
X220177D02*
D03*
Y258071D02*
D03*
Y281693D02*
D03*
Y273819D02*
D03*
X285236D02*
D03*
X253445Y281693D02*
D03*
Y273819D02*
D03*
X285236Y281693D02*
D03*
Y258071D02*
D03*
X253445D02*
D03*
D54*
X314764Y210630D02*
D03*
Y220630D02*
D03*
D55*
X203602Y77598D02*
D03*
X193602Y67598D02*
D03*
D56*
X124606Y266634D02*
D03*
D57*
X66831Y330512D02*
D03*
X91831D02*
D03*
D58*
X96654Y180433D02*
D03*
X160728Y302343D02*
D03*
Y249232D02*
D03*
X96654Y233543D02*
D03*
D59*
X82382Y153248D02*
D03*
D60*
X375413Y305707D02*
D03*
X18209Y87795D02*
D03*
D61*
X377953Y201850D02*
D03*
X15748Y191850D02*
D03*
D62*
X297244Y380413D02*
D03*
X96752Y13484D02*
D03*
D63*
X380295Y96357D02*
D03*
X13189Y297146D02*
D03*
D64*
X305511Y18484D02*
D03*
X87698Y375413D02*
D03*
D65*
X191850Y377953D02*
D03*
X201850Y15748D02*
D03*
D66*
X183602Y77598D02*
D03*
D67*
X102067Y153248D02*
D03*
X124606Y286319D02*
D03*
D68*
X220177Y297441D02*
D03*
X285236D02*
D03*
X253445D02*
D03*
D69*
X150295Y337598D02*
D03*
X48158Y158967D02*
D03*
X335335Y295177D02*
D03*
D70*
X18189Y305806D02*
D03*
X375295Y87697D02*
D03*
D71*
X374713Y381784D02*
D03*
X381980Y18890D02*
D03*
X377052Y250302D02*
D03*
X379542Y153058D02*
D03*
X240734Y379852D02*
D03*
X143392Y377136D02*
D03*
X11720Y374909D02*
D03*
X250295Y16732D02*
D03*
X153051Y14173D02*
D03*
X16550Y143202D02*
D03*
X18799Y11811D02*
D03*
X13765Y240643D02*
D03*
X374909Y11819D02*
D03*
X376954Y143399D02*
D03*
X379641Y240643D02*
D03*
X143392Y16761D02*
D03*
X240636Y14144D02*
D03*
X11728Y18882D02*
D03*
X381784Y374713D02*
D03*
X250394Y377264D02*
D03*
X153051Y379724D02*
D03*
X18791Y381980D02*
D03*
X16353Y250302D02*
D03*
X13962Y152861D02*
D03*
D72*
X314764Y230630D02*
D03*
D73*
X348189Y229094D02*
D03*
Y219094D02*
D03*
D74*
X201850Y377953D02*
D03*
X191850Y15748D02*
D03*
D75*
X380413Y297047D02*
D03*
X13209Y96456D02*
D03*
D76*
X305904Y375413D02*
D03*
X88092Y18484D02*
D03*
D77*
X377953Y191850D02*
D03*
X15748Y201850D02*
D03*
D78*
X296850Y13484D02*
D03*
X96358Y380413D02*
D03*
D79*
X348189Y209094D02*
D03*
D80*
X81831Y350512D02*
D03*
M02*
