G04*
G04 #@! TF.GenerationSoftware,Altium Limited,Altium Designer,25.5.2 (35)*
G04*
G04 Layer_Physical_Order=2*
G04 Layer_Color=16711680*
%FSLAX25Y25*%
%MOIN*%
G70*
G04*
G04 #@! TF.SameCoordinates,5858FFA7-226C-4CE8-8668-B70CF27CC624*
G04*
G04*
G04 #@! TF.FilePolarity,Positive*
G04*
G01*
G75*
%ADD10C,0.00984*%
%ADD11C,0.02362*%
%ADD53C,0.04724*%
%ADD54C,0.07284*%
%ADD55C,0.04921*%
%ADD56R,0.05118X0.05118*%
%ADD59R,0.05118X0.05118*%
%ADD66R,0.04921X0.04921*%
%ADD67C,0.05118*%
%ADD68R,0.04724X0.04724*%
%ADD72R,0.07284X0.07284*%
%ADD81C,0.05906*%
%ADD82C,0.01181*%
%ADD83C,0.02756*%
%ADD85C,0.03937*%
%ADD89C,0.05906*%
%ADD90R,0.05906X0.05906*%
%ADD91R,0.10000X0.16000*%
%ADD92C,0.08071*%
G04:AMPARAMS|DCode=93|XSize=65mil|YSize=100mil|CornerRadius=0mil|HoleSize=0mil|Usage=FLASHONLY|Rotation=120.000|XOffset=0mil|YOffset=0mil|HoleType=Round|Shape=Round|*
%AMOVALD93*
21,1,0.03500,0.06500,0.00000,0.00000,210.0*
1,1,0.06500,0.01516,0.00875*
1,1,0.06500,-0.01516,-0.00875*
%
%ADD93OVALD93*%

%ADD94O,0.10000X0.06500*%
G04:AMPARAMS|DCode=95|XSize=65mil|YSize=100mil|CornerRadius=0mil|HoleSize=0mil|Usage=FLASHONLY|Rotation=150.000|XOffset=0mil|YOffset=0mil|HoleType=Round|Shape=Round|*
%AMOVALD95*
21,1,0.03500,0.06500,0.00000,0.00000,240.0*
1,1,0.06500,0.00875,0.01516*
1,1,0.06500,-0.00875,-0.01516*
%
%ADD95OVALD95*%

G04:AMPARAMS|DCode=96|XSize=65mil|YSize=100mil|CornerRadius=0mil|HoleSize=0mil|Usage=FLASHONLY|Rotation=60.000|XOffset=0mil|YOffset=0mil|HoleType=Round|Shape=Round|*
%AMOVALD96*
21,1,0.03500,0.06500,0.00000,0.00000,150.0*
1,1,0.06500,0.01516,-0.00875*
1,1,0.06500,-0.01516,0.00875*
%
%ADD96OVALD96*%

G04:AMPARAMS|DCode=97|XSize=65mil|YSize=100mil|CornerRadius=0mil|HoleSize=0mil|Usage=FLASHONLY|Rotation=30.000|XOffset=0mil|YOffset=0mil|HoleType=Round|Shape=Round|*
%AMOVALD97*
21,1,0.03500,0.06500,0.00000,0.00000,120.0*
1,1,0.06500,0.00875,-0.01516*
1,1,0.06500,-0.00875,0.01516*
%
%ADD97OVALD97*%

%ADD98O,0.06500X0.10000*%
%ADD99C,0.06000*%
G04:AMPARAMS|DCode=100|XSize=65mil|YSize=100mil|CornerRadius=0mil|HoleSize=0mil|Usage=FLASHONLY|Rotation=240.000|XOffset=0mil|YOffset=0mil|HoleType=Round|Shape=Rectangle|*
%AMROTATEDRECTD100*
4,1,4,-0.02705,0.05315,0.05955,0.00315,0.02705,-0.05315,-0.05955,-0.00315,-0.02705,0.05315,0.0*
%
%ADD100ROTATEDRECTD100*%

%ADD101C,0.06693*%
%ADD102C,0.06102*%
%ADD103R,0.06500X0.10000*%
G04:AMPARAMS|DCode=104|XSize=65mil|YSize=100mil|CornerRadius=0mil|HoleSize=0mil|Usage=FLASHONLY|Rotation=120.000|XOffset=0mil|YOffset=0mil|HoleType=Round|Shape=Rectangle|*
%AMROTATEDRECTD104*
4,1,4,0.05955,-0.00315,-0.02705,-0.05315,-0.05955,0.00315,0.02705,0.05315,0.05955,-0.00315,0.0*
%
%ADD104ROTATEDRECTD104*%

G04:AMPARAMS|DCode=105|XSize=65mil|YSize=100mil|CornerRadius=0mil|HoleSize=0mil|Usage=FLASHONLY|Rotation=150.000|XOffset=0mil|YOffset=0mil|HoleType=Round|Shape=Rectangle|*
%AMROTATEDRECTD105*
4,1,4,0.05315,0.02705,0.00315,-0.05955,-0.05315,-0.02705,-0.00315,0.05955,0.05315,0.02705,0.0*
%
%ADD105ROTATEDRECTD105*%

%ADD106R,0.10000X0.06500*%
G04:AMPARAMS|DCode=107|XSize=65mil|YSize=100mil|CornerRadius=0mil|HoleSize=0mil|Usage=FLASHONLY|Rotation=30.000|XOffset=0mil|YOffset=0mil|HoleType=Round|Shape=Rectangle|*
%AMROTATEDRECTD107*
4,1,4,-0.00315,-0.05955,-0.05315,0.02705,0.00315,0.05955,0.05315,-0.02705,-0.00315,-0.05955,0.0*
%
%ADD107ROTATEDRECTD107*%

%ADD108R,0.06102X0.06102*%
%ADD109R,0.16000X0.10000*%
%ADD110C,0.03150*%
%ADD111C,0.02362*%
%ADD112C,0.02756*%
%ADD113C,0.03937*%
G36*
X389181Y393456D02*
X390342Y392974D01*
X391387Y392276D01*
X392276Y391387D01*
X392974Y390342D01*
X393456Y389181D01*
X393701Y387948D01*
Y387880D01*
X392717Y387546D01*
X392530Y387790D01*
X389070Y391249D01*
X388289Y391849D01*
X387379Y392225D01*
X386403Y392354D01*
X381511D01*
X380534Y392225D01*
X379624Y391849D01*
X378843Y391249D01*
X373271Y385677D01*
X373117Y385636D01*
X372174Y385091D01*
X371405Y384322D01*
X370861Y383379D01*
X370579Y382328D01*
Y381239D01*
X370861Y380188D01*
X371405Y379245D01*
X372174Y378476D01*
X373117Y377931D01*
X374168Y377650D01*
X375257D01*
X376308Y377931D01*
X377251Y378476D01*
X378021Y379245D01*
X378565Y380188D01*
X378606Y380342D01*
X383073Y384809D01*
X384840D01*
X386090Y383560D01*
Y377490D01*
X385105Y377226D01*
X385091Y377251D01*
X384322Y378021D01*
X383379Y378565D01*
X382328Y378847D01*
X381239D01*
X380188Y378565D01*
X379245Y378021D01*
X378476Y377251D01*
X377931Y376308D01*
X377650Y375257D01*
Y374168D01*
X377931Y373117D01*
X378476Y372174D01*
X379245Y371405D01*
X380188Y370861D01*
X381239Y370579D01*
X382328D01*
X383379Y370861D01*
X384322Y371405D01*
X385091Y372174D01*
X385105Y372199D01*
X386090Y371935D01*
Y300692D01*
X385139Y300437D01*
X383407Y303437D01*
X373383Y297650D01*
X377420Y290657D01*
X385350Y295235D01*
X385388Y295235D01*
X386332Y294666D01*
X386329Y294234D01*
X386102Y265650D01*
X385465Y265013D01*
X374536Y254083D01*
X373936Y253302D01*
X373745Y252841D01*
X373745Y252840D01*
X373200Y251898D01*
X372919Y250846D01*
Y249758D01*
X373200Y248706D01*
X373745Y247764D01*
X374514Y246994D01*
X375457Y246450D01*
X376508Y246168D01*
X377597D01*
X378648Y246450D01*
X379591Y246994D01*
X380360Y247764D01*
X380905Y248706D01*
X381186Y249758D01*
Y250064D01*
X390800Y259678D01*
X392530Y261407D01*
X392717Y261651D01*
X393092Y261627D01*
X393701Y261317D01*
Y6216D01*
Y5604D01*
X393462Y4403D01*
X392993Y3272D01*
X392313Y2253D01*
X391447Y1388D01*
X390429Y707D01*
X389298Y239D01*
X388097Y-0D01*
X6108D01*
X4799Y260D01*
X3566Y771D01*
X2456Y1512D01*
X1512Y2456D01*
X771Y3566D01*
X260Y4799D01*
X-0Y6108D01*
Y6775D01*
X0Y384796D01*
Y385673D01*
X342Y387394D01*
X1013Y389014D01*
X1988Y390473D01*
X3228Y391713D01*
X4687Y392687D01*
X6307Y393359D01*
X8027Y393701D01*
X8905D01*
X387320Y393701D01*
X387948D01*
X389181Y393456D01*
D02*
G37*
%LPC*%
G36*
X287987Y392464D02*
X202006D01*
X201161Y392296D01*
X200445Y391817D01*
X192339Y383711D01*
X191850Y383775D01*
X191011Y383664D01*
X183006Y391670D01*
X182290Y392148D01*
X181445Y392316D01*
X98223D01*
X98203Y392312D01*
X98183Y392316D01*
X89964Y392168D01*
X89562Y392081D01*
X89159Y392001D01*
X89142Y391990D01*
X89123Y391985D01*
X88785Y391751D01*
X88443Y391522D01*
X86137Y389216D01*
X85658Y388500D01*
X85490Y387655D01*
Y380747D01*
X84787Y380456D01*
X83943Y379808D01*
X83296Y378965D01*
X82889Y377983D01*
X82751Y376929D01*
X82889Y375875D01*
X83296Y374893D01*
X85046Y371862D01*
X85694Y371018D01*
X86537Y370371D01*
X87519Y369964D01*
X88264Y369866D01*
X88635Y369083D01*
X88653Y368863D01*
X84876Y365086D01*
X59448D01*
X59018Y365517D01*
X58222Y365846D01*
X57360D01*
X56564Y365517D01*
X55955Y364908D01*
X55626Y364112D01*
Y363250D01*
X55798Y362834D01*
X55274Y361850D01*
X49949D01*
X49092Y362205D01*
X48152D01*
X47651Y361997D01*
X33758D01*
X32901Y362352D01*
X31961D01*
X31093Y361993D01*
X30428Y361328D01*
X30069Y360460D01*
Y359520D01*
X30428Y358652D01*
X31093Y357988D01*
X31961Y357628D01*
X32901D01*
X33758Y357983D01*
X47141D01*
X47284Y357840D01*
X48152Y357480D01*
X49092D01*
X49949Y357836D01*
X148968D01*
X149826Y357480D01*
X150765D01*
X151634Y357840D01*
X152298Y358505D01*
X152658Y359373D01*
Y360313D01*
X152298Y361181D01*
X151634Y361845D01*
X150765Y362205D01*
X149826D01*
X148968Y361850D01*
X86969D01*
X86720Y362253D01*
X86598Y362834D01*
X97352Y373588D01*
X97656Y374044D01*
X97754Y374537D01*
X102748Y377420D01*
X97276Y386899D01*
X97838Y387894D01*
X98242Y387901D01*
X180530D01*
X187889Y380542D01*
X187778Y379703D01*
Y376203D01*
X187917Y375149D01*
X188168Y374543D01*
Y347833D01*
X188336Y346988D01*
X188757Y346358D01*
X188336Y345728D01*
X188168Y344883D01*
Y312971D01*
X188336Y312126D01*
X188814Y311410D01*
X212218Y288006D01*
X212935Y287527D01*
X213779Y287359D01*
X217931D01*
X218243Y287047D01*
X218962Y286632D01*
X219763Y286417D01*
X220592D01*
X221393Y286632D01*
X222111Y287047D01*
X222424Y287359D01*
X235717D01*
X236562Y287527D01*
X237278Y288006D01*
X241817Y292545D01*
X242296Y293261D01*
X242464Y294106D01*
Y295529D01*
X245118D01*
X245963Y295696D01*
X246679Y296175D01*
X248644Y298140D01*
X249712Y297816D01*
X249742Y297669D01*
X238735Y286662D01*
X238293Y286086D01*
X238015Y285416D01*
X237920Y284696D01*
Y268900D01*
X238015Y268181D01*
X238293Y267510D01*
X238735Y266934D01*
X239310Y266493D01*
X239981Y266215D01*
X240700Y266120D01*
X241419Y266215D01*
X242090Y266493D01*
X242666Y266934D01*
X243107Y267510D01*
X243385Y268181D01*
X243480Y268900D01*
Y283545D01*
X249311Y289376D01*
X249878Y289247D01*
X250334Y289007D01*
X250510Y288351D01*
X250924Y287633D01*
X251511Y287047D01*
X252229Y286632D01*
X253030Y286417D01*
X253859D01*
X254661Y286632D01*
X255379Y287047D01*
X255965Y287633D01*
X256380Y288351D01*
X256594Y289152D01*
Y289524D01*
X258367Y291296D01*
X279637D01*
X280171Y290762D01*
X280888Y290283D01*
X281524Y290157D01*
X282087Y289594D01*
Y289152D01*
X282301Y288351D01*
X282716Y287633D01*
X283302Y287047D01*
X284020Y286632D01*
X284822Y286417D01*
X285651D01*
X286452Y286632D01*
X287170Y287047D01*
X287756Y287633D01*
X288171Y288351D01*
X288386Y289152D01*
Y289982D01*
X288171Y290783D01*
X287756Y291501D01*
X287170Y292087D01*
X286452Y292502D01*
X285651Y292717D01*
X285314D01*
X284744Y293424D01*
X285117Y294291D01*
X288386D01*
Y296692D01*
X289370Y297218D01*
X289540Y297104D01*
Y256288D01*
X288078Y254826D01*
X287773Y254370D01*
X287666Y253833D01*
Y230113D01*
X286682Y229705D01*
X275965Y240422D01*
Y241031D01*
X275636Y241827D01*
X275027Y242436D01*
X274231Y242765D01*
X273369D01*
X272573Y242436D01*
X271964Y241827D01*
X271635Y241031D01*
Y240169D01*
X271964Y239373D01*
X272573Y238764D01*
X273369Y238435D01*
X273978D01*
X285209Y227204D01*
Y212845D01*
X284908Y212611D01*
X284225Y212319D01*
X283631Y212565D01*
X283021D01*
X266483Y229104D01*
X266027Y229408D01*
X265490Y229515D01*
X242275D01*
X242265Y229554D01*
X241773Y230407D01*
X241076Y231103D01*
X240223Y231595D01*
X239272Y231850D01*
X238287D01*
X237336Y231595D01*
X236483Y231103D01*
X235787Y230407D01*
X235294Y229554D01*
X235039Y228603D01*
Y227618D01*
X235294Y226667D01*
X235787Y225814D01*
X236483Y225117D01*
X237336Y224625D01*
X238287Y224370D01*
X239272D01*
X240223Y224625D01*
X241076Y225117D01*
X241773Y225814D01*
X242265Y226667D01*
X242275Y226705D01*
X264908D01*
X281035Y210578D01*
Y209969D01*
X281364Y209173D01*
X281973Y208564D01*
X282769Y208235D01*
X283631D01*
X284225Y208481D01*
X284908Y208189D01*
X285209Y207955D01*
Y204227D01*
X284289Y203543D01*
X283428D01*
X282632Y203214D01*
X282023Y202605D01*
X281693Y201809D01*
Y200947D01*
X282023Y200151D01*
X282453Y199721D01*
Y185091D01*
X281544Y184715D01*
X280250Y186009D01*
Y188309D01*
X280379Y188439D01*
X280709Y189235D01*
Y190096D01*
X280379Y190892D01*
X279770Y191501D01*
X278974Y191831D01*
X278113D01*
X277317Y191501D01*
X276708Y190892D01*
X276378Y190096D01*
Y189235D01*
X276708Y188439D01*
X277317Y187830D01*
X277440Y187779D01*
Y185427D01*
X277547Y184889D01*
X277851Y184434D01*
X281256Y181029D01*
Y180807D01*
X280825Y180376D01*
X280496Y179580D01*
Y178719D01*
X280797Y177990D01*
X280825Y177923D01*
X280070Y177370D01*
X276313Y181127D01*
Y185940D01*
X276206Y186478D01*
X275901Y186934D01*
X274929Y187906D01*
Y190689D01*
X274822Y191227D01*
X274517Y191683D01*
X274141Y192059D01*
Y193178D01*
X274517Y193554D01*
X274822Y194009D01*
X274929Y194547D01*
Y199080D01*
X275913Y199487D01*
X276751Y198649D01*
Y198040D01*
X277081Y197244D01*
X277690Y196635D01*
X278486Y196305D01*
X279347D01*
X280143Y196635D01*
X280752Y197244D01*
X281082Y198040D01*
Y198901D01*
X280752Y199697D01*
X280143Y200307D01*
X279347Y200636D01*
X278738D01*
X262303Y217071D01*
Y217754D01*
X261974Y218549D01*
X261364Y219159D01*
X260568Y219488D01*
X259707D01*
X258911Y219159D01*
X258302Y218549D01*
X257972Y217754D01*
Y216892D01*
X257312Y216131D01*
X256582Y216067D01*
X256541Y216107D01*
X255746Y216437D01*
X254884D01*
X254088Y216107D01*
X253479Y215498D01*
X253150Y214702D01*
Y213841D01*
X253479Y213045D01*
X254088Y212436D01*
X254884Y212106D01*
X255746D01*
X256541Y212436D01*
X256972Y212867D01*
X258473D01*
X272119Y199221D01*
Y195129D01*
X271743Y194753D01*
X271438Y194297D01*
X271331Y193760D01*
Y191477D01*
X271438Y190939D01*
X271743Y190483D01*
X272119Y190107D01*
Y187324D01*
X272226Y186787D01*
X272530Y186331D01*
X273503Y185358D01*
Y180545D01*
X273610Y180008D01*
X273914Y179552D01*
X275775Y177691D01*
X275457Y176617D01*
X275291Y176582D01*
X275162Y176625D01*
X258905Y192882D01*
Y198200D01*
X258798Y198738D01*
X258493Y199194D01*
X244193Y213493D01*
X243738Y213798D01*
X243200Y213905D01*
X234500D01*
X233962Y213798D01*
X233507Y213493D01*
X232007Y211994D01*
X231702Y211538D01*
X231595Y211000D01*
Y204800D01*
X231702Y204262D01*
X232007Y203806D01*
X238235Y197578D01*
Y196969D01*
X238564Y196173D01*
X239173Y195564D01*
X239969Y195235D01*
X240831D01*
X241627Y195564D01*
X242236Y196173D01*
X242565Y196969D01*
Y197265D01*
X243550Y197672D01*
X276620Y164602D01*
X276480Y163349D01*
X275756Y162625D01*
X270480D01*
X230468Y202637D01*
Y204047D01*
X230361Y204585D01*
X230057Y205040D01*
X218721Y216376D01*
X218741Y216411D01*
X218996Y217362D01*
Y218347D01*
X218741Y219298D01*
X218249Y220151D01*
X217552Y220847D01*
X216700Y221340D01*
X215748Y221595D01*
X214764D01*
X213812Y221340D01*
X212960Y220847D01*
X212263Y220151D01*
X211771Y219298D01*
X211516Y218347D01*
Y217362D01*
X211771Y216411D01*
X212263Y215558D01*
X212960Y214861D01*
X213812Y214369D01*
X214764Y214114D01*
X215748D01*
X216700Y214369D01*
X216734Y214389D01*
X227659Y203465D01*
Y202055D01*
X227765Y201518D01*
X228070Y201062D01*
X267565Y161566D01*
X267189Y160657D01*
X264440D01*
X218721Y206376D01*
X218741Y206411D01*
X218996Y207362D01*
Y208347D01*
X218741Y209298D01*
X218249Y210151D01*
X217552Y210847D01*
X216700Y211340D01*
X215748Y211595D01*
X214764D01*
X213812Y211340D01*
X212960Y210847D01*
X212263Y210151D01*
X211771Y209298D01*
X211516Y208347D01*
Y207362D01*
X211771Y206411D01*
X211958Y206086D01*
X211171Y205482D01*
X205461Y211191D01*
Y213686D01*
X205892Y214117D01*
X206221Y214913D01*
Y215774D01*
X205892Y216570D01*
X205283Y217179D01*
X204487Y217509D01*
X203625D01*
X202829Y217179D01*
X202220Y216570D01*
X201891Y215774D01*
Y214913D01*
X202220Y214117D01*
X202651Y213686D01*
Y210609D01*
X202758Y210072D01*
X203063Y209616D01*
X257969Y154709D01*
X258177Y154570D01*
X258380Y154424D01*
X258404Y154418D01*
X258425Y154405D01*
X258670Y154356D01*
X258914Y154298D01*
X277648Y153647D01*
X278137Y153157D01*
X278933Y152827D01*
X279795D01*
X280591Y153157D01*
X281200Y153766D01*
X281529Y154562D01*
Y155423D01*
X281200Y156219D01*
X280591Y156828D01*
X279795Y157158D01*
X278933D01*
X278137Y156828D01*
X277763Y156454D01*
X266022Y156863D01*
X266039Y157847D01*
X277154D01*
X277691Y157954D01*
X278147Y158258D01*
X279212Y159324D01*
X280492D01*
X280737Y159079D01*
X281397Y158316D01*
X282580Y156573D01*
X282514Y156413D01*
Y155551D01*
X282843Y154755D01*
X283453Y154146D01*
X284248Y153817D01*
X285110D01*
X285590Y153009D01*
X285719Y152506D01*
X285389Y151710D01*
Y150849D01*
X285719Y150053D01*
X286328Y149444D01*
X287124Y149114D01*
X287985D01*
X288781Y149444D01*
X289390Y150053D01*
X289720Y150849D01*
Y151710D01*
X289390Y152506D01*
X288925Y152971D01*
X288867Y155787D01*
X289773Y156173D01*
X293110Y152836D01*
Y152227D01*
X293440Y151431D01*
X294049Y150822D01*
X294845Y150492D01*
X295706D01*
X296651Y149818D01*
Y147997D01*
X296121Y147699D01*
X295667Y147534D01*
X294964Y147826D01*
X294103D01*
X293307Y147496D01*
X292698Y146887D01*
X292368Y146091D01*
Y145693D01*
X287907Y141232D01*
X287087D01*
X286291Y140902D01*
X285682Y140293D01*
X285352Y139497D01*
Y138636D01*
X285682Y137840D01*
X286291Y137231D01*
X286525Y137134D01*
X286775Y135992D01*
X281443Y130660D01*
X280459Y131068D01*
Y131518D01*
X280129Y132313D01*
X279520Y132922D01*
X278724Y133252D01*
X277863D01*
X277067Y132922D01*
X276652Y132507D01*
X273725D01*
X273088Y133492D01*
X273164Y133661D01*
X273960Y133991D01*
X274569Y134600D01*
X274899Y135396D01*
Y136258D01*
X274569Y137053D01*
X273960Y137662D01*
X273164Y137992D01*
X272303D01*
X271507Y137662D01*
X270898Y137053D01*
X270568Y136258D01*
Y135648D01*
X262557Y127638D01*
X261723Y128195D01*
X261811Y128408D01*
Y129269D01*
X261481Y130065D01*
X260872Y130674D01*
X260210Y131344D01*
X260408Y131851D01*
X260531Y132148D01*
Y133009D01*
X260202Y133805D01*
X259593Y134414D01*
X259528Y134441D01*
X259297Y135602D01*
X263237Y139542D01*
X278937D01*
X279436Y139641D01*
X279859Y139924D01*
X282258Y142323D01*
X283010D01*
X283805Y142652D01*
X284414Y143262D01*
X284744Y144058D01*
Y144919D01*
X284414Y145715D01*
X283805Y146324D01*
X283010Y146653D01*
X282148D01*
X281352Y146324D01*
X280743Y145715D01*
X280413Y144919D01*
Y144168D01*
X278397Y142151D01*
X262697D01*
X262198Y142052D01*
X261774Y141769D01*
X232530Y112525D01*
X203628D01*
X203220Y113509D01*
X207860Y118149D01*
X208339Y118866D01*
X208507Y119711D01*
Y125976D01*
X208339Y126820D01*
X207860Y127537D01*
X200264Y135133D01*
Y249932D01*
X200585Y250253D01*
X216548D01*
X230252Y236549D01*
X230968Y236070D01*
X231813Y235902D01*
X235736D01*
X235787Y235814D01*
X236483Y235117D01*
X237336Y234625D01*
X238287Y234370D01*
X239272D01*
X240223Y234625D01*
X241076Y235117D01*
X241773Y235814D01*
X242265Y236667D01*
X242520Y237618D01*
Y238603D01*
X242265Y239554D01*
X241773Y240407D01*
X241076Y241103D01*
X240223Y241596D01*
X239272Y241850D01*
X238287D01*
X237336Y241596D01*
X236483Y241103D01*
X235787Y240407D01*
X235736Y240318D01*
X232727D01*
X219024Y254022D01*
X218836Y254147D01*
X218828Y254153D01*
X219125Y254810D01*
Y254810D01*
X219125Y254810D01*
X220063Y254921D01*
X220592D01*
X221393Y255136D01*
X222111Y255551D01*
X222697Y256137D01*
X223112Y256855D01*
X223327Y257656D01*
Y258485D01*
X223112Y259286D01*
X222697Y260005D01*
X222111Y260591D01*
X221393Y261006D01*
X220592Y261220D01*
X219763D01*
X218962Y261006D01*
X218243Y260591D01*
X217657Y260005D01*
X217242Y259286D01*
X217028Y258485D01*
Y257656D01*
X217242Y256855D01*
X217657Y256137D01*
X217796Y255997D01*
X218215Y255187D01*
X218215Y255187D01*
X217981Y254565D01*
X217938Y254574D01*
X217462Y254668D01*
X201254D01*
X200877Y255578D01*
X215725Y270426D01*
X218189D01*
X218727Y270533D01*
X219169Y270828D01*
X219763Y270669D01*
X220592D01*
X221393Y270884D01*
X222111Y271299D01*
X222697Y271885D01*
X223112Y272603D01*
X223327Y273404D01*
Y274233D01*
X223112Y275034D01*
X222697Y275753D01*
X222111Y276339D01*
X221393Y276754D01*
X220592Y276968D01*
X219763D01*
X218962Y276754D01*
X218243Y276339D01*
X217657Y275753D01*
X217242Y275034D01*
X217028Y274233D01*
Y273404D01*
X216898Y273236D01*
X215143D01*
X215088Y273225D01*
X214603Y274132D01*
X219173Y278701D01*
X219763Y278543D01*
X220592D01*
X221393Y278758D01*
X222111Y279173D01*
X222697Y279759D01*
X223112Y280477D01*
X223327Y281278D01*
Y282108D01*
X223112Y282909D01*
X222697Y283627D01*
X222111Y284213D01*
X221393Y284628D01*
X220592Y284843D01*
X219763D01*
X218962Y284628D01*
X218243Y284213D01*
X217657Y283627D01*
X217242Y282909D01*
X217028Y282108D01*
Y281278D01*
X217186Y280688D01*
X193693Y257195D01*
X192783Y257572D01*
Y284015D01*
X192615Y284860D01*
X192137Y285577D01*
X190522Y287191D01*
X189806Y287670D01*
X188961Y287838D01*
X133177D01*
X132332Y287670D01*
X131615Y287191D01*
X86948Y242523D01*
X86868Y242470D01*
X86667Y242387D01*
X86513Y242233D01*
X86333Y242112D01*
X86212Y241932D01*
X86058Y241778D01*
X85975Y241577D01*
X85854Y241396D01*
X85812Y241183D01*
X85728Y240982D01*
Y240764D01*
X85686Y240551D01*
X85728Y240338D01*
Y240121D01*
X85812Y239920D01*
X85854Y239706D01*
X85975Y239526D01*
X86058Y239325D01*
X86212Y239171D01*
X86333Y238990D01*
X86513Y238869D01*
X86667Y238716D01*
X86868Y238632D01*
X87049Y238511D01*
X87262Y238469D01*
X87463Y238386D01*
X87680D01*
X87894Y238343D01*
X88098D01*
X88311Y238386D01*
X88324D01*
X88337Y238391D01*
X88943Y238511D01*
X89659Y238990D01*
X134091Y283422D01*
X188047D01*
X188368Y283101D01*
Y121815D01*
X188536Y120970D01*
X189014Y120254D01*
X195759Y113509D01*
X195351Y112525D01*
X179681D01*
X175241Y116966D01*
X174817Y117249D01*
X174318Y117348D01*
X122722D01*
X122191Y117879D01*
X121395Y118209D01*
X120534D01*
X119738Y117879D01*
X119129Y117270D01*
X118799Y116474D01*
Y115613D01*
X118579Y115283D01*
X65528D01*
X64990Y115176D01*
X64534Y114871D01*
X60220Y110557D01*
X59843Y110609D01*
X59243Y110912D01*
X59276Y112581D01*
X59741Y113045D01*
X60070Y113841D01*
Y114702D01*
X59741Y115498D01*
X59131Y116107D01*
X58336Y116437D01*
X57474D01*
X56678Y116107D01*
X56069Y115498D01*
X55739Y114702D01*
Y113841D01*
X56069Y113045D01*
X56467Y112647D01*
X56044Y91518D01*
X55208Y90683D01*
X54142Y91008D01*
X53940Y91496D01*
X53275Y92160D01*
X52407Y92520D01*
X51467D01*
X50954Y92307D01*
X49970Y92817D01*
Y94493D01*
X50698Y95157D01*
X50939Y94916D01*
X51735Y94587D01*
X52596D01*
X53392Y94916D01*
X54001Y95525D01*
X54331Y96321D01*
Y97183D01*
X54001Y97979D01*
X53392Y98588D01*
X52596Y98917D01*
X51735D01*
X50939Y98588D01*
X50446Y98095D01*
X50135D01*
X49597Y97988D01*
X49142Y97684D01*
X47572Y96114D01*
X47267Y95658D01*
X47160Y95120D01*
Y85460D01*
X46263Y84563D01*
X45654D01*
X44858Y84234D01*
X44249Y83625D01*
X44038Y83113D01*
X43225Y82825D01*
X42935Y82824D01*
X36403Y89356D01*
X36263Y89450D01*
X36113Y89819D01*
X36031Y90692D01*
X36033Y90697D01*
X36339Y91155D01*
X36507Y92000D01*
Y123086D01*
X70269Y156847D01*
X90030D01*
X95191Y151687D01*
X95907Y151208D01*
X96752Y151040D01*
X99542Y151040D01*
X100012Y150570D01*
X100775Y150130D01*
X101626Y149901D01*
X102508D01*
X103359Y150130D01*
X104122Y150570D01*
X104745Y151193D01*
X105185Y151956D01*
X105413Y152807D01*
Y153689D01*
X105185Y154540D01*
X104745Y155303D01*
X104122Y155926D01*
X103359Y156366D01*
X102508Y156595D01*
X101626D01*
X100775Y156366D01*
X100012Y155926D01*
X99542Y155456D01*
X97666Y155456D01*
X92506Y160616D01*
X74661Y178461D01*
X73945Y178940D01*
X73100Y179108D01*
X24914D01*
X19707Y184315D01*
Y188457D01*
X20378Y188971D01*
X21025Y189814D01*
X21431Y190796D01*
X21570Y191850D01*
X21431Y192904D01*
X21025Y193886D01*
X20378Y194730D01*
X19534Y195377D01*
X18552Y195784D01*
X17498Y195923D01*
X13998D01*
X12944Y195784D01*
X11962Y195377D01*
X11118Y194730D01*
X10718Y194704D01*
X8507Y196915D01*
Y293925D01*
X9320Y294737D01*
X9637Y294494D01*
X12668Y292744D01*
X13651Y292337D01*
X14705Y292198D01*
X15758Y292337D01*
X16741Y292744D01*
X17584Y293391D01*
X18231Y294234D01*
X18638Y295217D01*
X18736Y295962D01*
X19519Y296332D01*
X19740Y296350D01*
X33612Y282478D01*
Y281918D01*
X33942Y281122D01*
X34551Y280513D01*
X35347Y280183D01*
X36208D01*
X37004Y280513D01*
X37613Y281122D01*
X37943Y281918D01*
Y282779D01*
X37613Y283575D01*
X37004Y284184D01*
X36208Y284514D01*
X35550D01*
X21529Y298535D01*
X21182Y299416D01*
X25220Y306409D01*
X15196Y312196D01*
X11158Y305203D01*
X17954Y301280D01*
Y300107D01*
X16970Y299621D01*
X16741Y299797D01*
X13710Y301547D01*
X12727Y301954D01*
X11673Y302093D01*
X10620Y301954D01*
X9637Y301547D01*
X8794Y300900D01*
X8147Y300057D01*
X7788Y299191D01*
X7761Y299185D01*
X7045Y298707D01*
X4739Y296400D01*
X4260Y295684D01*
X4092Y294839D01*
Y196000D01*
X4260Y195155D01*
X4739Y194439D01*
X8888Y190289D01*
X9604Y189811D01*
X10449Y189643D01*
X10603D01*
X11118Y188971D01*
X11962Y188324D01*
X12944Y187917D01*
X13998Y187778D01*
X15292D01*
Y183400D01*
X15460Y182555D01*
X15939Y181839D01*
X22439Y175339D01*
X23155Y174860D01*
X24000Y174692D01*
X72185D01*
X84705Y162172D01*
X84329Y161263D01*
X69355D01*
X68510Y161095D01*
X67794Y160616D01*
X32739Y125561D01*
X32260Y124845D01*
X32092Y124000D01*
Y92914D01*
X29180Y90003D01*
X23542D01*
X23251Y90706D01*
X22604Y91550D01*
X21760Y92197D01*
X20778Y92604D01*
X19724Y92742D01*
X18670Y92604D01*
X17688Y92197D01*
X14657Y90447D01*
X14089Y90011D01*
X13201Y90354D01*
X13105Y90441D01*
Y91734D01*
X20239Y95853D01*
X16202Y102846D01*
X6178Y97058D01*
X10215Y90065D01*
X10215D01*
X10295Y90019D01*
Y72000D01*
X10402Y71462D01*
X10707Y71007D01*
X31707Y50007D01*
X32162Y49702D01*
X32700Y49595D01*
X45280D01*
X45879Y48996D01*
X46675Y48666D01*
X47536D01*
X47644Y48711D01*
X48703Y48727D01*
X49312Y48118D01*
X49957Y47851D01*
X50212Y47262D01*
X50303Y46804D01*
X49575Y46077D01*
X49140Y45426D01*
X48987Y44657D01*
Y16993D01*
X48391Y16397D01*
X48032Y15529D01*
Y14589D01*
X48391Y13721D01*
X49056Y13056D01*
X49924Y12697D01*
X50864D01*
X51721Y13052D01*
X58600D01*
X59368Y13205D01*
X60020Y13640D01*
X68944Y22564D01*
X69224Y22984D01*
X69603Y23362D01*
X69962Y24230D01*
Y25170D01*
X69603Y26038D01*
X68938Y26703D01*
X68070Y27062D01*
X67130D01*
X66262Y26703D01*
X65597Y26038D01*
X65238Y25170D01*
Y24535D01*
X57769Y17066D01*
X53001D01*
Y43826D01*
X55116Y45940D01*
X55409Y45937D01*
X56216Y45649D01*
X56429Y45134D01*
X57039Y44525D01*
X57347Y44398D01*
X57766Y43340D01*
X57759Y43242D01*
X57580Y42975D01*
X57578D01*
X56783Y42645D01*
X56173Y42036D01*
X55844Y41240D01*
Y40379D01*
X56173Y39583D01*
X56783Y38974D01*
X57381Y38726D01*
X57788Y37999D01*
X57899Y37660D01*
X57842Y37547D01*
X57218Y37288D01*
X56609Y36679D01*
X56280Y35884D01*
Y35022D01*
X56609Y34226D01*
X57218Y33617D01*
X58014Y33288D01*
X58876D01*
X59672Y33617D01*
X60281Y34226D01*
X60610Y35022D01*
Y35631D01*
X68751Y43772D01*
X74161D01*
X74538Y42863D01*
X72344Y40669D01*
X71735D01*
X70939Y40339D01*
X70330Y39730D01*
X70000Y38934D01*
Y38073D01*
X70330Y37277D01*
X70939Y36668D01*
X71735Y36338D01*
X72596D01*
X73392Y36668D01*
X74001Y37277D01*
X74331Y38073D01*
Y38682D01*
X77441Y41792D01*
X78409Y41773D01*
X78741Y40819D01*
X75703Y37782D01*
X75582Y37601D01*
X75428Y37447D01*
X75345Y37246D01*
X75224Y37065D01*
X75182Y36852D01*
X75098Y36651D01*
Y36434D01*
X75056Y36220D01*
X75098Y36007D01*
Y35790D01*
X75182Y35589D01*
X75224Y35376D01*
X75345Y35195D01*
X75428Y34994D01*
X75582Y34840D01*
X75576Y34170D01*
X75454Y33699D01*
X75447Y33689D01*
X74964Y33207D01*
X74635Y32411D01*
Y31550D01*
X74828Y31083D01*
X63650Y7237D01*
X63543Y7130D01*
X51204D01*
X50750Y8069D01*
X51080Y8864D01*
Y9726D01*
X50750Y10522D01*
X50141Y11131D01*
X49345Y11461D01*
X48736D01*
X47456Y12741D01*
X47000Y13046D01*
X46462Y13153D01*
X46233D01*
X44905Y14481D01*
Y28000D01*
X44798Y28538D01*
X44493Y28993D01*
X37194Y36294D01*
X36772Y36575D01*
X36734Y36606D01*
X36240Y37614D01*
X36242Y37672D01*
X36365Y37969D01*
Y38831D01*
X36036Y39627D01*
X35427Y40236D01*
X34631Y40565D01*
X33769D01*
X32973Y40236D01*
X32543Y39805D01*
X23700D01*
X23162Y39698D01*
X22706Y39393D01*
X16307Y32994D01*
X16002Y32538D01*
X15895Y32000D01*
Y27800D01*
X16002Y27262D01*
X16307Y26807D01*
X40350Y2763D01*
X40806Y2459D01*
X41343Y2352D01*
X74708D01*
X75246Y2459D01*
X75701Y2763D01*
X77175Y4236D01*
X77479Y4692D01*
X77586Y5230D01*
Y12785D01*
X78570Y13084D01*
X78754Y12809D01*
X83281Y8281D01*
X83998Y7803D01*
X84842Y7635D01*
X92526D01*
X93370Y7803D01*
X94087Y8281D01*
X94128Y8323D01*
X94823Y8035D01*
X95877Y7896D01*
X96931Y8035D01*
X97852Y8416D01*
X99247Y7022D01*
X99963Y6543D01*
X100808Y6375D01*
X198949D01*
X199794Y6543D01*
X200510Y7022D01*
X202695Y9207D01*
X203174Y9923D01*
X203229Y10199D01*
X203887Y10471D01*
X204730Y11118D01*
X205377Y11962D01*
X205784Y12944D01*
X205923Y13998D01*
Y17498D01*
X205784Y18552D01*
X205630Y18923D01*
X206743Y20036D01*
X246492D01*
X246861Y19052D01*
X246443Y18328D01*
X246161Y17276D01*
Y16188D01*
X246443Y15137D01*
X246987Y14194D01*
X247757Y13424D01*
X248700Y12880D01*
X249751Y12598D01*
X250839D01*
X251891Y12880D01*
X252833Y13424D01*
X253603Y14194D01*
X254147Y15137D01*
X254429Y16188D01*
Y17276D01*
X254147Y18328D01*
X254013Y18560D01*
X254582Y19544D01*
X259333D01*
X276305Y2573D01*
X277021Y2094D01*
X277866Y1926D01*
X298721D01*
X299565Y2094D01*
X300282Y2573D01*
X307072Y9363D01*
X307550Y10079D01*
X307718Y10924D01*
Y13151D01*
X308422Y13442D01*
X309265Y14089D01*
X309912Y14932D01*
X310106Y15401D01*
X340180D01*
X341025Y15570D01*
X341741Y16048D01*
X344386Y18692D01*
X354700D01*
X355545Y18860D01*
X356261Y19339D01*
X371483Y34561D01*
X385223Y48300D01*
X385701Y49016D01*
X385869Y49861D01*
Y51870D01*
Y92192D01*
X385701Y93037D01*
X385372Y93530D01*
X385744Y94428D01*
X385883Y95482D01*
X385744Y96536D01*
X385337Y97518D01*
X384690Y98362D01*
X383847Y99009D01*
X380816Y100759D01*
X379834Y101166D01*
X378780Y101304D01*
X377726Y101166D01*
X376744Y100759D01*
X375900Y100112D01*
X375253Y99268D01*
X374846Y98286D01*
X374707Y97232D01*
X374846Y96178D01*
X375253Y95196D01*
X375900Y94353D01*
X376744Y93705D01*
X379775Y91956D01*
X380757Y91549D01*
X381247Y91484D01*
X381454Y91278D01*
Y89788D01*
X380601Y89295D01*
X372302Y94087D01*
X370417Y90822D01*
X369466Y91076D01*
Y302415D01*
X370099Y302682D01*
X370450Y302693D01*
X371018Y301953D01*
X371862Y301306D01*
X372844Y300899D01*
X373898Y300760D01*
X374952Y300899D01*
X375934Y301306D01*
X378965Y303056D01*
X379808Y303703D01*
X380456Y304546D01*
X380862Y305528D01*
X381001Y306582D01*
X380862Y307636D01*
X380456Y308618D01*
X379808Y309462D01*
X378965Y310109D01*
X377983Y310516D01*
X376929Y310655D01*
X376233Y311265D01*
Y323000D01*
X376065Y323845D01*
X375586Y324561D01*
X366884Y333263D01*
X366727Y336151D01*
X366958Y336381D01*
X367681Y336739D01*
X368221Y336516D01*
X369082D01*
X369878Y336845D01*
X370358Y337326D01*
X375016D01*
X375447Y336895D01*
X376242Y336565D01*
X377104D01*
X377900Y336895D01*
X378509Y337504D01*
X378838Y338300D01*
Y339161D01*
X378509Y339957D01*
X377900Y340566D01*
X377104Y340896D01*
X376242D01*
X375447Y340566D01*
X375016Y340135D01*
X370260D01*
X369878Y340517D01*
X369082Y340846D01*
X368221D01*
X367425Y340517D01*
X366467Y340951D01*
X366307Y343891D01*
X366215Y344251D01*
X366143Y344616D01*
X366109Y344666D01*
X366094Y344725D01*
X365871Y345023D01*
X365664Y345332D01*
X364598Y346398D01*
X360771Y350226D01*
X360054Y350704D01*
X359209Y350872D01*
X355948D01*
X355103Y350704D01*
X354387Y350226D01*
X350625Y346464D01*
X333343Y363746D01*
X332627Y364225D01*
X331782Y364393D01*
X328276D01*
X327431Y364225D01*
X327417Y364216D01*
X326433Y364742D01*
Y383255D01*
X326265Y384100D01*
X325786Y384816D01*
X324790Y385813D01*
X324073Y386292D01*
X323228Y386460D01*
X301969D01*
X301124Y386292D01*
X300407Y385813D01*
X300233Y385638D01*
X300155Y385623D01*
X300000Y385520D01*
X299173Y385862D01*
X298119Y386001D01*
X297065Y385862D01*
X296083Y385456D01*
X295985Y385380D01*
X289548Y391817D01*
X288832Y392296D01*
X287987Y392464D01*
D02*
G37*
G36*
X19336Y386114D02*
X18247D01*
X17196Y385833D01*
X16253Y385288D01*
X15484Y384519D01*
X14939Y383576D01*
X14658Y382525D01*
Y381436D01*
X14939Y380385D01*
X15484Y379442D01*
X16253Y378673D01*
X17196Y378128D01*
X18247Y377847D01*
X19336D01*
X20387Y378128D01*
X21330Y378673D01*
X22099Y379442D01*
X22644Y380385D01*
X22925Y381436D01*
Y382525D01*
X22644Y383576D01*
X22099Y384519D01*
X21330Y385288D01*
X20387Y385833D01*
X19336Y386114D01*
D02*
G37*
G36*
X153595Y383858D02*
X152507D01*
X151456Y383576D01*
X150513Y383032D01*
X149743Y382263D01*
X149199Y381320D01*
X148917Y380269D01*
Y379180D01*
X149199Y378129D01*
X149743Y377186D01*
X150513Y376416D01*
X151456Y375872D01*
X152507Y375590D01*
X153595D01*
X154647Y375872D01*
X155589Y376416D01*
X156359Y377186D01*
X156903Y378129D01*
X157185Y379180D01*
Y380269D01*
X156903Y381320D01*
X156359Y382263D01*
X155589Y383032D01*
X154647Y383576D01*
X153595Y383858D01*
D02*
G37*
G36*
X143936Y381270D02*
X142848D01*
X141796Y380988D01*
X140854Y380444D01*
X140084Y379674D01*
X139540Y378732D01*
X139258Y377680D01*
Y376592D01*
X139540Y375541D01*
X140084Y374598D01*
X140854Y373828D01*
X141796Y373284D01*
X142848Y373002D01*
X143936D01*
X144988Y373284D01*
X145930Y373828D01*
X146700Y374598D01*
X147244Y375541D01*
X147526Y376592D01*
Y377680D01*
X147244Y378732D01*
X146700Y379674D01*
X145930Y380444D01*
X144988Y380988D01*
X143936Y381270D01*
D02*
G37*
G36*
X12265Y379043D02*
X11176D01*
X10125Y378762D01*
X9182Y378217D01*
X8412Y377448D01*
X7868Y376505D01*
X7587Y375454D01*
Y374365D01*
X7868Y373314D01*
X8412Y372371D01*
X9182Y371602D01*
X10125Y371057D01*
X11176Y370776D01*
X12265D01*
X13316Y371057D01*
X14259Y371602D01*
X15028Y372371D01*
X15573Y373314D01*
X15854Y374365D01*
Y375454D01*
X15573Y376505D01*
X15028Y377448D01*
X14259Y378217D01*
X13316Y378762D01*
X12265Y379043D01*
D02*
G37*
G36*
X349731Y370965D02*
X348869D01*
X348073Y370636D01*
X347464Y370027D01*
X347135Y369231D01*
Y368369D01*
X347464Y367573D01*
X347895Y367143D01*
Y364657D01*
X347464Y364227D01*
X347135Y363431D01*
Y362569D01*
X347464Y361773D01*
X348073Y361164D01*
X348869Y360835D01*
X349731D01*
X350527Y361164D01*
X351136Y361773D01*
X351465Y362569D01*
Y363431D01*
X351136Y364227D01*
X350705Y364657D01*
Y367143D01*
X351136Y367573D01*
X351465Y368369D01*
Y369231D01*
X351136Y370027D01*
X350527Y370636D01*
X349731Y370965D01*
D02*
G37*
G36*
X90618Y356299D02*
X73043D01*
Y344724D01*
X90618D01*
Y356299D01*
D02*
G37*
G36*
X150993Y344685D02*
X149597D01*
X148228Y344413D01*
X146939Y343879D01*
X145778Y343103D01*
X144791Y342116D01*
X144015Y340955D01*
X143481Y339666D01*
X143209Y338296D01*
Y336900D01*
X143481Y335531D01*
X144015Y334242D01*
X144791Y333081D01*
X145778Y332094D01*
X146939Y331318D01*
X148228Y330784D01*
X149597Y330512D01*
X150993D01*
X152362Y330784D01*
X153652Y331318D01*
X154813Y332094D01*
X155800Y333081D01*
X156575Y334242D01*
X157110Y335531D01*
X157382Y336900D01*
Y338296D01*
X157110Y339666D01*
X156575Y340955D01*
X155800Y342116D01*
X154813Y343103D01*
X153652Y343879D01*
X152362Y344413D01*
X150993Y344685D01*
D02*
G37*
G36*
X97618Y339299D02*
X86043D01*
Y321724D01*
X97618D01*
Y339299D01*
D02*
G37*
G36*
X161363Y307165D02*
X160093D01*
X158867Y306837D01*
X157767Y306202D01*
X156869Y305304D01*
X156234Y304204D01*
X155906Y302977D01*
Y301708D01*
X156234Y300481D01*
X156869Y299381D01*
X157767Y298483D01*
X158867Y297848D01*
X160093Y297520D01*
X161363D01*
X162590Y297848D01*
X163690Y298483D01*
X164588Y299381D01*
X165223Y300481D01*
X165551Y301708D01*
Y302977D01*
X165223Y304204D01*
X164588Y305304D01*
X163690Y306202D01*
X162590Y306837D01*
X161363Y307165D01*
D02*
G37*
G36*
X125047Y289666D02*
X124166D01*
X123315Y289437D01*
X122552Y288997D01*
X121929Y288374D01*
X121488Y287611D01*
X121260Y286760D01*
Y285878D01*
X121488Y285027D01*
X121929Y284264D01*
X122552Y283641D01*
X123315Y283201D01*
X124166Y282973D01*
X125047D01*
X125898Y283201D01*
X126661Y283641D01*
X127284Y284264D01*
X127725Y285027D01*
X127953Y285878D01*
Y286760D01*
X127725Y287611D01*
X127284Y288374D01*
X126661Y288997D01*
X125898Y289437D01*
X125047Y289666D01*
D02*
G37*
G36*
X285651Y284843D02*
X284822D01*
X284020Y284628D01*
X283302Y284213D01*
X282716Y283627D01*
X282301Y282909D01*
X282087Y282108D01*
Y281278D01*
X282301Y280477D01*
X282716Y279759D01*
X283302Y279173D01*
X284020Y278758D01*
X284822Y278543D01*
X285651D01*
X286452Y278758D01*
X287170Y279173D01*
X287756Y279759D01*
X288171Y280477D01*
X288386Y281278D01*
Y282108D01*
X288171Y282909D01*
X287756Y283627D01*
X287170Y284213D01*
X286452Y284628D01*
X285651Y284843D01*
D02*
G37*
G36*
X253859D02*
X253030D01*
X252229Y284628D01*
X251511Y284213D01*
X250924Y283627D01*
X250510Y282909D01*
X250295Y282108D01*
Y281278D01*
X250510Y280477D01*
X250924Y279759D01*
X251511Y279173D01*
X252229Y278758D01*
X253030Y278543D01*
X253859D01*
X254306Y278663D01*
X255398Y277464D01*
X254774Y276688D01*
X254661Y276754D01*
X253859Y276968D01*
X253030D01*
X252229Y276754D01*
X251511Y276339D01*
X250924Y275753D01*
X250510Y275034D01*
X250295Y274233D01*
Y273404D01*
X250510Y272603D01*
X250924Y271885D01*
X251511Y271299D01*
X252229Y270884D01*
X253030Y270669D01*
X253859D01*
X254449Y270827D01*
X263135Y262142D01*
Y261533D01*
X263464Y260737D01*
X264073Y260128D01*
X264869Y259798D01*
X265731D01*
X266527Y260128D01*
X267136Y260737D01*
X267465Y261533D01*
Y262394D01*
X267179Y263087D01*
X267136Y263190D01*
X267879Y263772D01*
X267882Y263769D01*
X278547Y252068D01*
X278574Y252048D01*
X278592Y252021D01*
X281345Y249268D01*
X281404Y249229D01*
X281448Y249175D01*
X282111Y248631D01*
X282324Y248117D01*
X282933Y247508D01*
X283729Y247179D01*
X284590D01*
X285386Y247508D01*
X285995Y248117D01*
X286325Y248913D01*
Y249775D01*
X285995Y250571D01*
X285386Y251180D01*
X284590Y251509D01*
X283729D01*
X283268Y251319D01*
X280602Y253985D01*
X256397Y280540D01*
X256594Y281278D01*
Y282108D01*
X256380Y282909D01*
X255965Y283627D01*
X255379Y284213D01*
X254661Y284628D01*
X253859Y284843D01*
D02*
G37*
G36*
X285651Y276968D02*
X284822D01*
X284020Y276754D01*
X283302Y276339D01*
X282716Y275753D01*
X282301Y275034D01*
X282087Y274233D01*
Y273404D01*
X282301Y272603D01*
X282716Y271885D01*
X283302Y271299D01*
X284020Y270884D01*
X284822Y270669D01*
X285651D01*
X286452Y270884D01*
X287170Y271299D01*
X287756Y271885D01*
X288171Y272603D01*
X288386Y273404D01*
Y274233D01*
X288171Y275034D01*
X287756Y275753D01*
X287170Y276339D01*
X286452Y276754D01*
X285651Y276968D01*
D02*
G37*
G36*
X269193Y285896D02*
X268363D01*
X267562Y285681D01*
X266844Y285266D01*
X266258Y284680D01*
X265843Y283962D01*
X265628Y283161D01*
Y282331D01*
X265843Y281530D01*
X266258Y280812D01*
X266837Y280233D01*
X271191Y270172D01*
X271356Y269591D01*
X271467Y269335D01*
X271562Y269073D01*
X271610Y269003D01*
X271644Y268925D01*
X271817Y268706D01*
X271977Y268478D01*
X282184Y257292D01*
X282301Y256855D01*
X282716Y256137D01*
X283302Y255551D01*
X284020Y255136D01*
X284822Y254921D01*
X285651D01*
X286452Y255136D01*
X287170Y255551D01*
X287756Y256137D01*
X288171Y256855D01*
X288386Y257656D01*
Y258485D01*
X288171Y259286D01*
X287756Y260005D01*
X287170Y260591D01*
X286452Y261006D01*
X286279Y261052D01*
X276524Y271742D01*
X276488Y271870D01*
X276415Y272037D01*
X276365Y272213D01*
X271927Y282467D01*
Y283161D01*
X271713Y283962D01*
X271298Y284680D01*
X270712Y285266D01*
X269994Y285681D01*
X269193Y285896D01*
D02*
G37*
G36*
X253859Y261220D02*
X253030D01*
X252229Y261006D01*
X251511Y260591D01*
X250924Y260005D01*
X250510Y259286D01*
X250295Y258485D01*
Y257656D01*
X250510Y256855D01*
X250924Y256137D01*
X251511Y255551D01*
X252229Y255136D01*
X253030Y254921D01*
X253859D01*
X254661Y255136D01*
X255379Y255551D01*
X255965Y256137D01*
X256380Y256855D01*
X256594Y257656D01*
Y258485D01*
X256380Y259286D01*
X255965Y260005D01*
X255379Y260591D01*
X254661Y261006D01*
X253859Y261220D01*
D02*
G37*
G36*
X16897Y254436D02*
X15809D01*
X14758Y254154D01*
X13815Y253610D01*
X13045Y252840D01*
X12501Y251898D01*
X12219Y250846D01*
Y249758D01*
X12501Y248706D01*
X13045Y247764D01*
X13815Y246994D01*
X14758Y246450D01*
X15809Y246168D01*
X16897D01*
X17949Y246450D01*
X18891Y246994D01*
X19661Y247764D01*
X20205Y248706D01*
X20487Y249758D01*
Y250846D01*
X20205Y251898D01*
X19661Y252840D01*
X18891Y253610D01*
X17949Y254154D01*
X16897Y254436D01*
D02*
G37*
G36*
X161363Y254055D02*
X160093D01*
X158867Y253726D01*
X157767Y253091D01*
X156869Y252193D01*
X156234Y251094D01*
X155906Y249867D01*
Y248597D01*
X156234Y247371D01*
X156869Y246271D01*
X157767Y245373D01*
X158867Y244738D01*
X160093Y244409D01*
X161363D01*
X162590Y244738D01*
X163690Y245373D01*
X164588Y246271D01*
X165223Y247371D01*
X165551Y248597D01*
Y249867D01*
X165223Y251094D01*
X164588Y252193D01*
X163690Y253091D01*
X162590Y253726D01*
X161363Y254055D01*
D02*
G37*
G36*
X380185Y244777D02*
X379096D01*
X378045Y244495D01*
X377102Y243951D01*
X376333Y243181D01*
X375788Y242238D01*
X375507Y241187D01*
Y240099D01*
X375788Y239047D01*
X376333Y238105D01*
X377102Y237335D01*
X378045Y236791D01*
X379096Y236509D01*
X380185D01*
X381236Y236791D01*
X382179Y237335D01*
X382948Y238105D01*
X383493Y239047D01*
X383774Y240099D01*
Y241187D01*
X383493Y242238D01*
X382948Y243181D01*
X382179Y243951D01*
X381236Y244495D01*
X380185Y244777D01*
D02*
G37*
G36*
X14309D02*
X13221D01*
X12169Y244495D01*
X11227Y243951D01*
X10457Y243181D01*
X9913Y242238D01*
X9631Y241187D01*
Y240099D01*
X9913Y239047D01*
X10457Y238105D01*
X11227Y237335D01*
X12169Y236791D01*
X13221Y236509D01*
X14309D01*
X15361Y236791D01*
X16303Y237335D01*
X17073Y238105D01*
X17617Y239047D01*
X17899Y240099D01*
Y241187D01*
X17617Y242238D01*
X17073Y243181D01*
X16303Y243951D01*
X15361Y244495D01*
X14309Y244777D01*
D02*
G37*
G36*
X218996Y241595D02*
X211516D01*
Y234114D01*
X218996D01*
Y241595D01*
D02*
G37*
G36*
X97289Y238366D02*
X96019D01*
X94792Y238038D01*
X93692Y237403D01*
X92794Y236505D01*
X92159Y235405D01*
X91831Y234178D01*
Y232909D01*
X92159Y231682D01*
X92794Y230582D01*
X93692Y229684D01*
X94792Y229049D01*
X96019Y228721D01*
X97289D01*
X98515Y229049D01*
X99615Y229684D01*
X100513Y230582D01*
X101148Y231682D01*
X101476Y232909D01*
Y234178D01*
X101148Y235405D01*
X100513Y236505D01*
X99615Y237403D01*
X98515Y238038D01*
X97289Y238366D01*
D02*
G37*
G36*
X379703Y205923D02*
X376203D01*
X375149Y205784D01*
X374167Y205377D01*
X373323Y204730D01*
X372676Y203887D01*
X372269Y202904D01*
X372131Y201850D01*
X372269Y200796D01*
X372676Y199814D01*
X373323Y198971D01*
X374167Y198324D01*
X375149Y197917D01*
X376203Y197778D01*
X379703D01*
X380757Y197917D01*
X381739Y198324D01*
X382582Y198971D01*
X383229Y199814D01*
X383636Y200796D01*
X383775Y201850D01*
X383636Y202904D01*
X383229Y203887D01*
X382582Y204730D01*
X381739Y205377D01*
X380757Y205784D01*
X379703Y205923D01*
D02*
G37*
G36*
X383740Y195888D02*
X372165D01*
Y187813D01*
X383740D01*
Y195888D01*
D02*
G37*
G36*
X21535Y205888D02*
X9961D01*
Y197813D01*
X21535D01*
Y200446D01*
X24418D01*
X36988Y187875D01*
Y187266D01*
X37318Y186470D01*
X37927Y185861D01*
X38723Y185531D01*
X39584D01*
X40380Y185861D01*
X40989Y186470D01*
X41319Y187266D01*
Y188128D01*
X40989Y188923D01*
X40380Y189532D01*
X39584Y189862D01*
X38975D01*
X25993Y202844D01*
X25538Y203148D01*
X25000Y203255D01*
X21535D01*
Y205888D01*
D02*
G37*
G36*
X48856Y166053D02*
X47460D01*
X46091Y165781D01*
X44802Y165247D01*
X43641Y164471D01*
X42654Y163484D01*
X41878Y162324D01*
X41344Y161034D01*
X41072Y159665D01*
Y158269D01*
X41344Y156900D01*
X41878Y155610D01*
X42654Y154449D01*
X43641Y153462D01*
X44802Y152687D01*
X46091Y152153D01*
X47460Y151880D01*
X48856D01*
X50226Y152153D01*
X51515Y152687D01*
X52676Y153462D01*
X53663Y154449D01*
X54439Y155610D01*
X54973Y156900D01*
X55245Y158269D01*
Y159665D01*
X54973Y161034D01*
X54439Y162324D01*
X53663Y163484D01*
X52676Y164471D01*
X51515Y165247D01*
X50226Y165781D01*
X48856Y166053D01*
D02*
G37*
G36*
X380086Y157192D02*
X378998D01*
X377947Y156910D01*
X377004Y156366D01*
X376234Y155596D01*
X375690Y154654D01*
X375408Y153602D01*
Y152514D01*
X375690Y151462D01*
X376234Y150520D01*
X377004Y149750D01*
X377947Y149206D01*
X378998Y148924D01*
X380086D01*
X381138Y149206D01*
X382080Y149750D01*
X382850Y150520D01*
X383394Y151462D01*
X383676Y152514D01*
Y153602D01*
X383394Y154654D01*
X382850Y155596D01*
X382081Y156366D01*
X381138Y156910D01*
X380086Y157192D01*
D02*
G37*
G36*
X14506Y156995D02*
X13418D01*
X12366Y156713D01*
X11424Y156169D01*
X10654Y155399D01*
X10110Y154457D01*
X9828Y153405D01*
Y152317D01*
X10110Y151266D01*
X10654Y150323D01*
X11424Y149553D01*
X12366Y149009D01*
X13418Y148727D01*
X14506D01*
X15557Y149009D01*
X16500Y149553D01*
X17270Y150323D01*
X17814Y151266D01*
X18096Y152317D01*
Y153405D01*
X17814Y154457D01*
X17270Y155400D01*
X16500Y156169D01*
X15557Y156713D01*
X14506Y156995D01*
D02*
G37*
G36*
X377498Y147533D02*
X376410D01*
X375358Y147251D01*
X374416Y146707D01*
X373646Y145937D01*
X373102Y144994D01*
X372820Y143943D01*
Y142855D01*
X373102Y141803D01*
X373646Y140861D01*
X374416Y140091D01*
X375358Y139547D01*
X376410Y139265D01*
X377498D01*
X378550Y139547D01*
X379492Y140091D01*
X380262Y140860D01*
X380806Y141803D01*
X381088Y142855D01*
Y143943D01*
X380806Y144994D01*
X380262Y145937D01*
X379492Y146707D01*
X378550Y147251D01*
X377498Y147533D01*
D02*
G37*
G36*
X17094Y147336D02*
X16006D01*
X14954Y147054D01*
X14012Y146510D01*
X13242Y145740D01*
X12698Y144797D01*
X12416Y143746D01*
Y142658D01*
X12698Y141606D01*
X13242Y140664D01*
X14012Y139894D01*
X14954Y139350D01*
X16006Y139068D01*
X17094D01*
X18146Y139350D01*
X19088Y139894D01*
X19858Y140664D01*
X20402Y141606D01*
X20684Y142658D01*
Y143746D01*
X20402Y144797D01*
X19858Y145740D01*
X19088Y146510D01*
X18146Y147054D01*
X17094Y147336D01*
D02*
G37*
G36*
X382525Y23024D02*
X381436D01*
X380385Y22742D01*
X379442Y22198D01*
X378673Y21428D01*
X378128Y20485D01*
X377847Y19434D01*
Y18346D01*
X378128Y17294D01*
X378673Y16352D01*
X379442Y15582D01*
X380385Y15038D01*
X381436Y14756D01*
X382525D01*
X383576Y15038D01*
X384519Y15582D01*
X385288Y16352D01*
X385833Y17294D01*
X386114Y18346D01*
Y19434D01*
X385833Y20485D01*
X385288Y21428D01*
X384519Y22198D01*
X383576Y22742D01*
X382525Y23024D01*
D02*
G37*
G36*
X12272Y23016D02*
X11184D01*
X10133Y22734D01*
X9190Y22190D01*
X8420Y21420D01*
X7876Y20478D01*
X7594Y19426D01*
Y18338D01*
X7876Y17286D01*
X8420Y16344D01*
X9190Y15574D01*
X10133Y15030D01*
X11184Y14748D01*
X12272D01*
X13324Y15030D01*
X14266Y15574D01*
X15036Y16344D01*
X15580Y17286D01*
X15862Y18338D01*
Y19426D01*
X15580Y20478D01*
X15036Y21420D01*
X14266Y22190D01*
X13324Y22734D01*
X12272Y23016D01*
D02*
G37*
G36*
X241180Y18278D02*
X240092D01*
X239040Y17996D01*
X238098Y17452D01*
X237328Y16682D01*
X236784Y15740D01*
X236502Y14688D01*
Y13600D01*
X236784Y12548D01*
X237328Y11606D01*
X238098Y10836D01*
X239040Y10292D01*
X240092Y10010D01*
X241180D01*
X242232Y10292D01*
X243174Y10836D01*
X243944Y11606D01*
X244488Y12548D01*
X244770Y13600D01*
Y14688D01*
X244488Y15740D01*
X243944Y16682D01*
X243174Y17452D01*
X242232Y17996D01*
X241180Y18278D01*
D02*
G37*
G36*
X375454Y15953D02*
X374365D01*
X373314Y15671D01*
X372371Y15127D01*
X371602Y14357D01*
X371057Y13414D01*
X370776Y12363D01*
Y11275D01*
X371057Y10223D01*
X371602Y9281D01*
X372371Y8511D01*
X373314Y7967D01*
X374365Y7685D01*
X375454D01*
X376505Y7967D01*
X377448Y8511D01*
X378217Y9281D01*
X378762Y10223D01*
X379043Y11275D01*
Y12363D01*
X378762Y13414D01*
X378217Y14357D01*
X377448Y15127D01*
X376505Y15671D01*
X375454Y15953D01*
D02*
G37*
G36*
X19343Y15945D02*
X18255D01*
X17204Y15663D01*
X16261Y15119D01*
X15491Y14349D01*
X14947Y13407D01*
X14665Y12355D01*
Y11267D01*
X14947Y10215D01*
X15491Y9273D01*
X16261Y8503D01*
X17204Y7959D01*
X18255Y7677D01*
X19343D01*
X20395Y7959D01*
X21337Y8503D01*
X22107Y9273D01*
X22651Y10215D01*
X22933Y11267D01*
Y12355D01*
X22651Y13407D01*
X22107Y14349D01*
X21337Y15119D01*
X20395Y15663D01*
X19343Y15945D01*
D02*
G37*
%LPD*%
G36*
X250889Y347217D02*
X251022Y347013D01*
X250697Y345929D01*
X250539Y345863D01*
X249929Y345254D01*
X249600Y344458D01*
Y343597D01*
X249919Y342826D01*
X249929Y342797D01*
X248852Y342485D01*
X248612Y342726D01*
X248156Y343030D01*
X247618Y343137D01*
X243201D01*
X242869Y343470D01*
X242073Y343799D01*
X241211D01*
X240415Y343470D01*
X239806Y342860D01*
X239477Y342064D01*
Y341203D01*
X239806Y340407D01*
X240415Y339798D01*
X241211Y339468D01*
X242073D01*
X242869Y339798D01*
X243398Y340327D01*
X247036D01*
X285864Y301500D01*
X285487Y300591D01*
X282087D01*
Y296377D01*
X281177Y296000D01*
X276258Y300920D01*
X276384Y301402D01*
X276699Y301870D01*
X277233D01*
X277934Y302058D01*
X278562Y302421D01*
X278819Y302677D01*
X278836Y302690D01*
X278848Y302707D01*
X279075Y302934D01*
X279236Y303212D01*
X279277Y303266D01*
X279303Y303329D01*
X279438Y303562D01*
X279508Y303823D01*
X279555Y303936D01*
X279571Y304058D01*
X279626Y304263D01*
Y304475D01*
X279650Y304656D01*
X279626Y304836D01*
Y304989D01*
X279587Y305136D01*
X279555Y305375D01*
X279463Y305598D01*
X279438Y305690D01*
X279391Y305772D01*
X279277Y306046D01*
X279097Y306281D01*
X279075Y306318D01*
X279045Y306349D01*
X278836Y306621D01*
X278563Y306830D01*
X278562Y306831D01*
X278561Y306832D01*
X278260Y307063D01*
X278074Y307140D01*
X274784Y310430D01*
X274208Y310872D01*
X273538Y311150D01*
X272818Y311244D01*
X248031D01*
X247851Y311221D01*
X247669D01*
X247493Y311173D01*
X247312Y311150D01*
X247144Y311080D01*
X246968Y311033D01*
X246810Y310942D01*
X246642Y310872D01*
X246497Y310761D01*
X246339Y310670D01*
X246211Y310541D01*
X246066Y310430D01*
X245955Y310286D01*
X245826Y310157D01*
X245735Y309999D01*
X245624Y309854D01*
X245554Y309686D01*
X245463Y309528D01*
X245429Y309399D01*
X240889Y304859D01*
X240656Y304872D01*
X240281Y304974D01*
X239905Y305221D01*
Y319482D01*
X240961Y320539D01*
X241082Y320720D01*
X241236Y320873D01*
X241319Y321074D01*
X241440Y321255D01*
X241482Y321468D01*
X241565Y321669D01*
Y321887D01*
X241608Y322100D01*
X241565Y322313D01*
Y322531D01*
X241482Y322732D01*
X241440Y322945D01*
X241319Y323126D01*
X241236Y323327D01*
X241082Y323480D01*
X240961Y323661D01*
X240780Y323782D01*
X240627Y323936D01*
X240426Y324019D01*
X240245Y324140D01*
X240032Y324182D01*
X239831Y324265D01*
X239613D01*
X239400Y324308D01*
X239187Y324265D01*
X238969D01*
X238768Y324182D01*
X238555Y324140D01*
X238374Y324019D01*
X238173Y323936D01*
X238020Y323782D01*
X237839Y323661D01*
X236136Y321958D01*
X235657Y321242D01*
X235489Y320397D01*
Y301428D01*
X234505Y301021D01*
X233390Y302136D01*
Y324047D01*
X233295Y324767D01*
X233017Y325437D01*
X232576Y326013D01*
X223816Y334773D01*
X223240Y335214D01*
X222677Y335448D01*
X222494Y335846D01*
X222351Y336514D01*
X233332Y347495D01*
X250640D01*
X250889Y347217D01*
D02*
G37*
G36*
X310279Y349689D02*
X309989Y348587D01*
X309659Y348450D01*
X309050Y347841D01*
X308720Y347045D01*
Y346436D01*
X306749Y344464D01*
X306445Y344009D01*
X306338Y343471D01*
Y342105D01*
X305353Y341764D01*
X304986Y342131D01*
X304190Y342461D01*
X303328D01*
X302533Y342131D01*
X301923Y341522D01*
X301594Y340726D01*
Y340390D01*
X301074Y339985D01*
X300103Y340422D01*
Y342536D01*
X300534Y342966D01*
X300863Y343762D01*
Y344624D01*
X300534Y345420D01*
X300242Y345711D01*
X300465Y346652D01*
X300513Y346757D01*
X300572Y346856D01*
X300578Y346898D01*
X300596Y346937D01*
X300687Y347321D01*
X300691Y347415D01*
X300709Y347507D01*
X300696Y347570D01*
X300699Y347635D01*
X300666Y347722D01*
X300648Y347814D01*
X300409Y348390D01*
Y348854D01*
X300587Y349283D01*
X300906Y349602D01*
X300924Y349629D01*
X300949Y349649D01*
X301011Y349758D01*
X301080Y349863D01*
X301087Y349894D01*
X301102Y349922D01*
X301117Y350047D01*
X301141Y350170D01*
X301135Y350201D01*
X301139Y350233D01*
X301123Y350431D01*
X301791Y351154D01*
X308813D01*
X310279Y349689D01*
D02*
G37*
G36*
X293335Y381786D02*
X292842Y380934D01*
X292436Y379952D01*
X292297Y378898D01*
X292436Y377844D01*
X292842Y376862D01*
X293490Y376018D01*
X294333Y375371D01*
X295315Y374964D01*
X296369Y374826D01*
X297423Y374964D01*
X298405Y375371D01*
X299249Y376018D01*
X299896Y376862D01*
X301646Y379893D01*
X302052Y380875D01*
X302140Y381543D01*
X302145Y381543D01*
X302861Y382022D01*
X302883Y382044D01*
X304086D01*
X304579Y381192D01*
X299514Y372420D01*
X306507Y368383D01*
X306507Y368383D01*
X306955Y368442D01*
X329402Y345994D01*
Y341232D01*
X328971Y340801D01*
X327837Y340634D01*
X325105Y343366D01*
Y344543D01*
X325536Y344973D01*
X325865Y345769D01*
Y346631D01*
X325536Y347427D01*
X324927Y348036D01*
X324131Y348365D01*
X323269D01*
X322473Y348036D01*
X321864Y347427D01*
X321535Y346631D01*
Y345769D01*
X321864Y344973D01*
X322295Y344543D01*
Y342908D01*
X322207Y342844D01*
X321269Y342672D01*
X310389Y353553D01*
X309933Y353857D01*
X309395Y353964D01*
X252362D01*
X251824Y353857D01*
X251368Y353553D01*
X250500Y352684D01*
X243850D01*
X243685Y352800D01*
X243536Y352961D01*
X243338Y353334D01*
X243246Y353669D01*
X243265Y353738D01*
X243335Y353907D01*
X243358Y354087D01*
X243406Y354263D01*
Y354445D01*
X243429Y354626D01*
Y376701D01*
X244042Y377314D01*
X244586Y378256D01*
X244868Y379308D01*
Y380396D01*
X244586Y381448D01*
X244042Y382390D01*
X243273Y383160D01*
X242330Y383704D01*
X241279Y383986D01*
X240190D01*
X239139Y383704D01*
X238196Y383160D01*
X237426Y382390D01*
X236882Y381448D01*
X236601Y380396D01*
Y379308D01*
X236882Y378256D01*
X237426Y377314D01*
X237870Y376870D01*
Y354626D01*
X237894Y354445D01*
Y354263D01*
X237941Y354087D01*
X237965Y353907D01*
X238034Y353738D01*
X238053Y353669D01*
X237961Y353334D01*
X237764Y352961D01*
X237614Y352800D01*
X237449Y352684D01*
X227356D01*
X205888Y374152D01*
Y383740D01*
X199899D01*
X199522Y384649D01*
X202921Y388048D01*
X287073D01*
X293335Y381786D01*
D02*
G37*
G36*
X322017Y361608D02*
X322185Y360763D01*
X322664Y360047D01*
X323759Y358952D01*
X323830Y358845D01*
X323913Y358645D01*
X324067Y358491D01*
X324188Y358310D01*
X324368Y358189D01*
X324522Y358035D01*
X324723Y357952D01*
X324904Y357832D01*
X325117Y357789D01*
X325318Y357706D01*
X325535D01*
X325749Y357663D01*
X325962D01*
X326175Y357706D01*
X326180D01*
X326184Y357708D01*
X326807Y357832D01*
X326920Y357907D01*
X327295Y357798D01*
X327982Y357433D01*
X328234Y356825D01*
X328843Y356216D01*
X329639Y355886D01*
X330248D01*
X337005Y349129D01*
X337461Y348824D01*
X337999Y348717D01*
X338530D01*
X345335Y341912D01*
Y333886D01*
X345442Y333348D01*
X345747Y332892D01*
X345906Y332733D01*
Y328724D01*
X345475Y328294D01*
X345146Y327498D01*
Y326636D01*
X345475Y325840D01*
X346084Y325231D01*
X346880Y324902D01*
X347664D01*
X347840Y324696D01*
X348167Y324013D01*
X347383Y323228D01*
X346774D01*
X345978Y322899D01*
X345369Y322290D01*
X345039Y321494D01*
Y320632D01*
X345257Y320106D01*
X344901Y319342D01*
X344692Y319122D01*
X336296D01*
X332087Y323331D01*
Y323940D01*
X331757Y324736D01*
X331148Y325345D01*
X330352Y325675D01*
X329490D01*
X328695Y325345D01*
X328086Y324736D01*
X327756Y323940D01*
Y323079D01*
X328086Y322283D01*
X328695Y321674D01*
X329490Y321344D01*
X330100D01*
X334721Y316723D01*
X335177Y316419D01*
X335714Y316312D01*
X357299D01*
X357730Y315881D01*
X357897Y314746D01*
X351625Y308474D01*
X351320Y308018D01*
X351213Y307481D01*
Y232790D01*
X350229Y232349D01*
X349671Y232671D01*
X348694Y232933D01*
X347684D01*
X346707Y232671D01*
X345832Y232166D01*
X345117Y231451D01*
X344990Y231230D01*
X344316Y230557D01*
X343992Y230514D01*
X343082Y230137D01*
X343082Y230137D01*
X342301Y229538D01*
X337165Y224402D01*
X317088D01*
X316473Y224757D01*
X315347Y225059D01*
X314181D01*
X313054Y224757D01*
X312133Y224226D01*
X311766Y224328D01*
X311149Y224671D01*
Y226201D01*
X319193D01*
Y235059D01*
X311851D01*
X311158Y235758D01*
X311243Y244449D01*
X325108Y258314D01*
X325412Y258770D01*
X325519Y259307D01*
Y323886D01*
X340535Y338902D01*
X340624Y338814D01*
X341420Y338484D01*
X342281D01*
X343077Y338814D01*
X343686Y339423D01*
X344016Y340219D01*
Y341080D01*
X343686Y341876D01*
X343077Y342485D01*
X342281Y342815D01*
X341420D01*
X340624Y342485D01*
X340168Y342029D01*
X339758Y341948D01*
X339302Y341643D01*
X334314Y336655D01*
X334007Y336658D01*
X333157Y336891D01*
X333004Y337121D01*
X332312Y337812D01*
X332294Y337999D01*
X332643Y338348D01*
X332972Y339144D01*
Y340005D01*
X332643Y340801D01*
X332212Y341232D01*
Y346576D01*
X332105Y347114D01*
X331801Y347570D01*
X308147Y371223D01*
X312295Y378407D01*
X307641Y381094D01*
X307896Y382044D01*
X322017D01*
Y361608D01*
D02*
G37*
G36*
X354405Y343175D02*
X354724Y342927D01*
Y342187D01*
X355054Y341391D01*
X355485Y340961D01*
Y331330D01*
X350365Y326211D01*
X349682Y326538D01*
X349476Y326714D01*
Y327498D01*
X349147Y328294D01*
X348716Y328724D01*
Y332410D01*
X348846Y332613D01*
X349053Y332809D01*
X349656Y333107D01*
X349873D01*
X350087Y333064D01*
X350300Y333107D01*
X350517D01*
X350718Y333190D01*
X350932Y333232D01*
X351112Y333353D01*
X351313Y333436D01*
X351467Y333590D01*
X351648Y333711D01*
X351768Y333892D01*
X351922Y334045D01*
X352006Y334246D01*
X352126Y334427D01*
X352169Y334640D01*
X352252Y334841D01*
Y335059D01*
X352294Y335272D01*
Y336975D01*
X352665Y337530D01*
X352833Y338375D01*
Y342427D01*
X353815Y343409D01*
X354405Y343175D01*
D02*
G37*
G36*
X361944Y342808D02*
X362521Y332180D01*
X362613Y331820D01*
X362685Y331455D01*
X362719Y331405D01*
X362734Y331346D01*
X362957Y331048D01*
X363164Y330739D01*
X365570Y328333D01*
X364908Y327623D01*
X364112Y327953D01*
X363250D01*
X362455Y327623D01*
X361845Y327014D01*
X361516Y326218D01*
Y325357D01*
X361845Y324561D01*
X362276Y324130D01*
Y321567D01*
X361367Y321191D01*
X358885Y323672D01*
Y324519D01*
X359110Y324855D01*
X359217Y325393D01*
Y325734D01*
X359340Y325785D01*
X359949Y326394D01*
X360278Y327190D01*
Y328051D01*
X359949Y328847D01*
X359340Y329456D01*
X358970Y329609D01*
X358495Y329974D01*
X358295Y330748D01*
Y340961D01*
X358726Y341391D01*
X359055Y342187D01*
Y343049D01*
X358726Y343845D01*
X358116Y344454D01*
X357320Y344783D01*
X356581D01*
X356333Y345102D01*
X356099Y345693D01*
X356862Y346457D01*
X358295D01*
X361944Y342808D01*
D02*
G37*
G36*
X300339Y350170D02*
X299906Y349737D01*
X299606Y349014D01*
Y348231D01*
X299906Y347507D01*
X299815Y347123D01*
X299129Y346358D01*
X298267D01*
X297471Y346029D01*
X296862Y345420D01*
X296533Y344624D01*
Y343762D01*
X296862Y342966D01*
X297293Y342536D01*
Y319488D01*
X293012D01*
Y350000D01*
X294166Y351154D01*
X300261D01*
X300339Y350170D01*
D02*
G37*
G36*
X355931Y326690D02*
X356281Y325747D01*
X356182Y325599D01*
X356076Y325061D01*
Y323090D01*
X356182Y322553D01*
X356487Y322097D01*
X357897Y320687D01*
X357730Y319552D01*
X357299Y319122D01*
X349717D01*
X349508Y319342D01*
X349152Y320106D01*
X349370Y320632D01*
Y321241D01*
X355022Y326894D01*
X355931Y326690D01*
D02*
G37*
G36*
X371817Y322085D02*
Y308325D01*
X371018Y307712D01*
X370450Y306972D01*
X370099Y306983D01*
X369466Y307249D01*
Y315731D01*
X369829Y315881D01*
X370438Y316490D01*
X370768Y317286D01*
Y318147D01*
X370438Y318943D01*
X369829Y319552D01*
X369033Y319882D01*
X368172D01*
X367376Y319552D01*
X366767Y318943D01*
X366437Y318147D01*
Y317286D01*
X366656Y316757D01*
Y88737D01*
X365672Y88541D01*
X365472Y89023D01*
X365041Y89454D01*
Y106229D01*
X364934Y106767D01*
X364630Y107223D01*
X354062Y117790D01*
Y141535D01*
X354072D01*
X354868Y141865D01*
X355477Y142474D01*
X355807Y143270D01*
Y144132D01*
X355477Y144927D01*
X354868Y145536D01*
X354072Y145866D01*
X353211D01*
X352415Y145536D01*
X351806Y144927D01*
X351476Y144132D01*
Y143502D01*
X351307Y143291D01*
X350322Y143638D01*
Y152036D01*
X352765Y154479D01*
X353069Y154934D01*
X353176Y155472D01*
Y198284D01*
X353607Y198714D01*
X353937Y199510D01*
Y200372D01*
X353607Y201167D01*
X354042Y202125D01*
X355580Y203664D01*
X355885Y204120D01*
X355992Y204657D01*
Y212986D01*
X356976Y213452D01*
X357048Y213392D01*
Y140714D01*
X356890Y140332D01*
Y139392D01*
X357048Y139010D01*
Y125934D01*
X356693Y125076D01*
Y124136D01*
X357053Y123268D01*
X357717Y122604D01*
X358585Y122244D01*
X359525D01*
X360393Y122604D01*
X361058Y123268D01*
X361417Y124136D01*
Y125076D01*
X361062Y125934D01*
Y138332D01*
X361255Y138524D01*
X361614Y139392D01*
Y140332D01*
X361255Y141200D01*
X361062Y141393D01*
Y213529D01*
X361255Y213721D01*
X361614Y214589D01*
Y215529D01*
X361255Y216397D01*
X360590Y217062D01*
X359722Y217421D01*
X358782D01*
X357914Y217062D01*
X357249Y216397D01*
X356976Y215737D01*
X355992Y215932D01*
Y218580D01*
X364675Y227263D01*
X364979Y227719D01*
X365086Y228256D01*
Y324130D01*
X365517Y324561D01*
X365846Y325357D01*
Y326218D01*
X365517Y327014D01*
X366227Y327676D01*
X371817Y322085D01*
D02*
G37*
G36*
X292091Y350566D02*
X292243Y350170D01*
X292209Y350000D01*
Y319488D01*
X292270Y319181D01*
X292444Y318920D01*
X292705Y318746D01*
X293012Y318685D01*
X297293D01*
Y306768D01*
X296309Y306360D01*
X296207Y306462D01*
X295411Y306791D01*
X294550D01*
X293754Y306462D01*
X293145Y305853D01*
X292815Y305057D01*
Y304195D01*
X293028Y303680D01*
X292194Y303123D01*
X253471Y341845D01*
Y342671D01*
X253601Y342801D01*
X253930Y343597D01*
Y344458D01*
X253601Y345254D01*
X253083Y345772D01*
X253064Y346111D01*
X253071Y346163D01*
X253245Y346823D01*
X253827Y347064D01*
X254436Y347673D01*
X254765Y348469D01*
Y349331D01*
X254436Y350127D01*
X254392Y350170D01*
X254800Y351154D01*
X291685D01*
X292091Y350566D01*
D02*
G37*
G36*
X274312Y296621D02*
X273935Y295712D01*
X257452D01*
X256594Y296545D01*
Y300351D01*
X270582D01*
X274312Y296621D01*
D02*
G37*
G36*
X197813Y381655D02*
Y372165D01*
X203901D01*
X225780Y350286D01*
X226236Y349981D01*
X226774Y349875D01*
X230452D01*
X230828Y348965D01*
X213967Y332104D01*
X213663Y331648D01*
X213556Y331111D01*
Y328338D01*
X204350Y319132D01*
X203584D01*
X203153Y319563D01*
X202358Y319892D01*
X201496D01*
X200700Y319563D01*
X200091Y318953D01*
X199761Y318158D01*
Y317296D01*
X200091Y316500D01*
X200700Y315891D01*
X201496Y315562D01*
X202358D01*
X203153Y315891D01*
X203584Y316322D01*
X204932D01*
X205469Y316429D01*
X205925Y316733D01*
X215954Y326763D01*
X216259Y327218D01*
X216366Y327756D01*
Y330529D01*
X218144Y332307D01*
X218812Y332164D01*
X219210Y331981D01*
X219443Y331417D01*
X219885Y330842D01*
X227831Y322896D01*
Y300984D01*
X227925Y300265D01*
X228203Y299594D01*
X228645Y299019D01*
X233566Y294097D01*
X234142Y293656D01*
X234812Y293378D01*
X234832Y293375D01*
X235166Y292460D01*
X234608Y291775D01*
X222424D01*
X222111Y292087D01*
X221393Y292502D01*
X220592Y292717D01*
X219763D01*
X218962Y292502D01*
X218243Y292087D01*
X217931Y291775D01*
X214694D01*
X192583Y313885D01*
Y343969D01*
X193412Y344797D01*
X193532Y344978D01*
X193686Y345132D01*
X193769Y345333D01*
X193890Y345513D01*
X193932Y345727D01*
X194016Y345928D01*
Y346145D01*
X194058Y346358D01*
X194016Y346571D01*
Y346789D01*
X193932Y346990D01*
X193890Y347203D01*
X193769Y347384D01*
X193686Y347585D01*
X193532Y347739D01*
X193412Y347919D01*
X192583Y348747D01*
Y372227D01*
X192904Y372269D01*
X193886Y372676D01*
X194730Y373323D01*
X195377Y374167D01*
X195784Y375149D01*
X195923Y376203D01*
Y379703D01*
X195784Y380757D01*
X195739Y380866D01*
X196904Y382031D01*
X197813Y381655D01*
D02*
G37*
G36*
X318871Y341097D02*
Y338567D01*
X318440Y338136D01*
X318110Y337340D01*
Y336479D01*
X318440Y335683D01*
X319049Y335074D01*
X319845Y334744D01*
X320706D01*
X321502Y335074D01*
X322111Y335683D01*
X322441Y336479D01*
Y337340D01*
X322111Y338136D01*
X321680Y338567D01*
Y341555D01*
X321769Y341620D01*
X322707Y341791D01*
X328672Y335825D01*
X329054Y335571D01*
X329142Y335454D01*
X329348Y334473D01*
X320463Y325588D01*
X320159Y325132D01*
X320052Y324595D01*
Y315929D01*
X319523Y315400D01*
X319193Y314604D01*
Y313742D01*
X319523Y312947D01*
X320132Y312337D01*
X320928Y312008D01*
X321789D01*
X322709Y311324D01*
Y259889D01*
X310090Y247270D01*
X309180Y247647D01*
Y250322D01*
X309199Y250330D01*
X309808Y250939D01*
X310138Y251735D01*
Y252596D01*
X309808Y253392D01*
X309199Y254001D01*
X308403Y254331D01*
X307542D01*
X306746Y254001D01*
X306137Y253392D01*
X305807Y252596D01*
Y251735D01*
X306137Y250939D01*
X306371Y250705D01*
Y246924D01*
X305386Y246516D01*
X304424Y247479D01*
Y268151D01*
X305521Y269249D01*
X305826Y269705D01*
X305932Y270242D01*
Y306645D01*
X305826Y307183D01*
X305521Y307638D01*
X304850Y308310D01*
Y335924D01*
X305077Y336151D01*
X305415Y336218D01*
X305871Y336523D01*
X308736Y339388D01*
X309041Y339844D01*
X309148Y340382D01*
Y342889D01*
X310707Y344449D01*
X311316D01*
X312112Y344778D01*
X312721Y345388D01*
X312858Y345718D01*
X313961Y346007D01*
X318871Y341097D01*
D02*
G37*
G36*
X362276Y313866D02*
Y228838D01*
X354932Y221495D01*
X354023Y221871D01*
Y306899D01*
X361367Y314242D01*
X362276Y313866D01*
D02*
G37*
G36*
X344169Y219681D02*
X344350Y219525D01*
Y218589D01*
X344612Y217613D01*
X345117Y216738D01*
X345832Y216023D01*
X346707Y215517D01*
X347684Y215256D01*
X348694D01*
X349671Y215517D01*
X350229Y215840D01*
X351213Y215399D01*
Y212933D01*
X344350D01*
Y205256D01*
X345329D01*
X345706Y204346D01*
X319970Y178610D01*
X315737D01*
X315199Y178503D01*
X314744Y178199D01*
X313511Y176967D01*
X312861Y177123D01*
X312527Y177347D01*
Y197487D01*
X312420Y198025D01*
X312420Y198025D01*
X312466Y198995D01*
X312680Y199309D01*
X313080Y199709D01*
X313409Y200504D01*
Y201366D01*
X313080Y202162D01*
X312471Y202771D01*
X312319Y202834D01*
X312133Y203827D01*
X312133Y204675D01*
Y207566D01*
X312076Y207854D01*
X312027Y208104D01*
X312026Y208104D01*
X312026Y208104D01*
X311866Y208344D01*
X311722Y208560D01*
X311149Y209133D01*
Y216589D01*
X311766Y216931D01*
X312133Y217034D01*
X313054Y216503D01*
X314181Y216201D01*
X315347D01*
X316473Y216503D01*
X317088Y216858D01*
X338728D01*
X339704Y216986D01*
X340264Y217218D01*
X340614Y217363D01*
X340614Y217363D01*
X341395Y217962D01*
X343441Y220008D01*
X344169Y219681D01*
D02*
G37*
G36*
X349936Y198714D02*
X350367Y198284D01*
Y194972D01*
X349382Y194417D01*
X349145Y194516D01*
X348425Y194610D01*
X347706Y194516D01*
X347035Y194238D01*
X346460Y193796D01*
X339176Y186513D01*
X338735Y185937D01*
X338457Y185267D01*
X338362Y184547D01*
Y181299D01*
X338457Y180580D01*
X338735Y179909D01*
X339176Y179334D01*
X339752Y178892D01*
X340422Y178614D01*
X341142Y178519D01*
X341861Y178614D01*
X342532Y178892D01*
X343107Y179334D01*
X343549Y179909D01*
X343827Y180580D01*
X343921Y181299D01*
Y183396D01*
X349457Y188932D01*
X350367Y188555D01*
Y156054D01*
X347924Y153611D01*
X347619Y153155D01*
X347512Y152618D01*
Y150487D01*
X346592Y149803D01*
X345731D01*
X345566Y149856D01*
X344737Y150457D01*
X344709Y150598D01*
X344426Y151021D01*
X342312Y153136D01*
X342323Y153162D01*
Y154023D01*
X341993Y154819D01*
X341384Y155428D01*
X340588Y155758D01*
X339727D01*
X338931Y155428D01*
X338322Y154819D01*
X337992Y154023D01*
Y153162D01*
X338322Y152366D01*
X338931Y151757D01*
X339727Y151427D01*
X340330D01*
X341503Y150254D01*
X341528Y150207D01*
X341482Y149949D01*
X340687Y149213D01*
X339825D01*
X339029Y148883D01*
X338420Y148274D01*
X338091Y147478D01*
Y146616D01*
X338420Y145821D01*
X339029Y145212D01*
X339542Y144999D01*
Y136763D01*
X338628Y136284D01*
X337832Y136614D01*
X337544D01*
X336740Y137418D01*
Y181351D01*
X336955Y181567D01*
X337285Y182363D01*
Y183224D01*
X336955Y184020D01*
X336346Y184629D01*
X335938Y184799D01*
X335650Y185802D01*
X335661Y185898D01*
X339638Y189718D01*
X339646Y189730D01*
X339658Y189738D01*
X348801Y198881D01*
X349936Y198714D01*
D02*
G37*
G36*
X307239Y199447D02*
X307298Y199285D01*
X307331Y199115D01*
X307389Y199029D01*
X307424Y198931D01*
X307540Y198803D01*
X307636Y198659D01*
X309109Y197186D01*
X309565Y196881D01*
X309717Y196851D01*
Y184036D01*
X308808Y183660D01*
X306228Y186240D01*
Y199560D01*
X307212Y199632D01*
X307239Y199447D01*
D02*
G37*
G36*
X333082Y182055D02*
X333284Y181567D01*
X333893Y180958D01*
X333930Y180943D01*
Y175867D01*
X332945Y175460D01*
X332723Y175682D01*
X331927Y176012D01*
X331065D01*
X330269Y175682D01*
X329660Y175073D01*
X329331Y174277D01*
Y173416D01*
X329660Y172620D01*
X330091Y172189D01*
Y140088D01*
X329759Y139756D01*
X329429Y138960D01*
Y138099D01*
X329759Y137303D01*
X330368Y136694D01*
X331164Y136364D01*
X332025D01*
X332821Y136694D01*
X332951Y136823D01*
X333156Y136826D01*
X334000Y136481D01*
X334037Y136299D01*
X334341Y135843D01*
X335256Y134928D01*
X335236Y134880D01*
Y134018D01*
X335566Y133222D01*
X336175Y132613D01*
X336971Y132283D01*
X337832D01*
X338628Y132613D01*
X339542Y132135D01*
Y127115D01*
X333534Y121108D01*
X322756D01*
X322257Y121008D01*
X321833Y120726D01*
X314247Y113139D01*
X313413Y113697D01*
X313476Y113849D01*
Y114711D01*
X313368Y114972D01*
X313521Y115125D01*
X313804Y115548D01*
X313841Y115736D01*
X315894Y117789D01*
X316645D01*
X317441Y118119D01*
X318050Y118728D01*
X318380Y119524D01*
Y120385D01*
X318050Y121181D01*
X317441Y121790D01*
X317340Y121832D01*
X317109Y122994D01*
X318031Y123916D01*
X318578Y123689D01*
X319440D01*
X320235Y124019D01*
X320845Y124628D01*
X321174Y125424D01*
Y126286D01*
X320845Y127081D01*
X320279Y127647D01*
X320233Y127710D01*
X320066Y128826D01*
X322182Y130942D01*
X322465Y131365D01*
X322564Y131864D01*
Y143223D01*
X323095Y143754D01*
X323425Y144550D01*
Y145411D01*
X323095Y146207D01*
X322486Y146816D01*
X321691Y147146D01*
X320829D01*
X320795Y147132D01*
X320745Y147153D01*
X320210Y147954D01*
X320241Y147986D01*
X320571Y148782D01*
Y149643D01*
X320241Y150439D01*
X319632Y151048D01*
X318836Y151378D01*
X317975D01*
X317179Y151048D01*
X316726Y150596D01*
X315986Y150762D01*
X315742Y150898D01*
Y171000D01*
X316663Y171684D01*
X317524D01*
X318320Y172013D01*
X318751Y172444D01*
X321093D01*
X321349Y172495D01*
X321605Y172541D01*
X321617Y172548D01*
X321631Y172551D01*
X321847Y172696D01*
X322067Y172836D01*
X331974Y182355D01*
X332232Y182357D01*
X333082Y182055D01*
D02*
G37*
G36*
X256095Y197618D02*
Y192300D01*
X256095Y192300D01*
X256202Y191762D01*
X256506Y191306D01*
X273426Y174388D01*
X273425Y174387D01*
Y173526D01*
X273755Y172730D01*
X272986Y172210D01*
X241735Y203461D01*
X242111Y204370D01*
X242520D01*
Y209801D01*
X243504Y210209D01*
X256095Y197618D01*
D02*
G37*
G36*
X213812Y204369D02*
X214764Y204114D01*
X215748D01*
X216700Y204369D01*
X216734Y204389D01*
X262865Y158258D01*
X263321Y157954D01*
X263396Y157939D01*
X263282Y156958D01*
X259565Y157087D01*
X212883Y203769D01*
X213488Y204557D01*
X213812Y204369D01*
D02*
G37*
G36*
X312598Y169352D02*
X312932Y169128D01*
Y158165D01*
X312012Y157480D01*
X311151D01*
X310355Y157151D01*
X309746Y156542D01*
X309574Y156128D01*
X308590Y156324D01*
Y166150D01*
X311948Y169508D01*
X312598Y169352D01*
D02*
G37*
G36*
X333930Y170691D02*
Y141784D01*
X332945Y141258D01*
X332901Y141288D01*
Y171187D01*
X332945Y171217D01*
X333930Y170691D01*
D02*
G37*
G36*
X307930Y139846D02*
X308105Y139423D01*
X308714Y138814D01*
X309510Y138484D01*
X309641D01*
X310049Y137500D01*
X303642Y131093D01*
X303241Y131152D01*
X302581Y131423D01*
X302328Y132034D01*
X301897Y132464D01*
Y135205D01*
X306826Y140134D01*
X306958Y140146D01*
X307930Y139846D01*
D02*
G37*
G36*
X299087Y134586D02*
Y132464D01*
X298656Y132034D01*
X298327Y131238D01*
Y130376D01*
X298545Y129850D01*
X298188Y129086D01*
X297979Y128866D01*
X294052D01*
X293514Y128759D01*
X293058Y128454D01*
X292013Y127408D01*
X291708Y126952D01*
X291601Y126415D01*
Y124422D01*
X291006Y124024D01*
X290145D01*
X289349Y123694D01*
X288740Y123085D01*
X288567Y122669D01*
X287583Y122865D01*
Y124474D01*
X298103Y134994D01*
X299087Y134586D01*
D02*
G37*
G36*
X200591Y124686D02*
Y124077D01*
X200920Y123281D01*
X201529Y122672D01*
X202325Y122343D01*
X203187D01*
X204092Y121652D01*
Y120625D01*
X202453Y118987D01*
X201325Y119138D01*
X200716Y119747D01*
X199920Y120077D01*
X199626D01*
X194736Y124967D01*
Y129255D01*
X195646Y129631D01*
X200591Y124686D01*
D02*
G37*
G36*
X272423Y123552D02*
X273235Y123091D01*
Y122502D01*
X273565Y121706D01*
X274174Y121097D01*
X274970Y120768D01*
X275831D01*
X276727Y120073D01*
Y120067D01*
X277057Y119271D01*
X277666Y118662D01*
X278462Y118332D01*
X279323D01*
X280119Y118662D01*
X281025Y118176D01*
X281155Y118046D01*
X281951Y117717D01*
X282813D01*
X283609Y118046D01*
X283702Y118140D01*
X284041Y118073D01*
X284650Y117464D01*
X284855Y117379D01*
X285092Y116225D01*
X271749Y102881D01*
X247434D01*
X247057Y103791D01*
X264731Y121464D01*
X265715Y121057D01*
Y120685D01*
X266045Y119889D01*
X266654Y119280D01*
X267450Y118950D01*
X268311D01*
X269107Y119280D01*
X269716Y119889D01*
X270046Y120685D01*
Y121294D01*
X272326Y123574D01*
X272423Y123552D01*
D02*
G37*
G36*
X260112Y126584D02*
X260592Y125672D01*
X241808Y106888D01*
X241063Y106967D01*
X240697Y107903D01*
X259394Y126600D01*
X260112Y126584D01*
D02*
G37*
G36*
X348750Y107137D02*
X348373Y106228D01*
X345693D01*
X345263Y106658D01*
X344467Y106988D01*
X343605D01*
X342809Y106658D01*
X342200Y106049D01*
X341871Y105254D01*
Y104392D01*
X342123Y103783D01*
X341847Y103122D01*
X341606Y102798D01*
X331131D01*
X328136Y105793D01*
X327955Y105914D01*
X327801Y106068D01*
X327601Y106151D01*
X327420Y106272D01*
X327206Y106314D01*
X327059Y106376D01*
X326990Y106416D01*
X326566Y106917D01*
X326453Y107180D01*
X326417Y107399D01*
X326476Y107542D01*
Y108403D01*
X326147Y109199D01*
X325753Y109593D01*
X326980Y110819D01*
X345068D01*
X348750Y107137D01*
D02*
G37*
G36*
X140453Y108943D02*
Y108082D01*
X140782Y107286D01*
X141392Y106677D01*
X142188Y106347D01*
X143049D01*
X143845Y106677D01*
X144275Y107107D01*
X173055D01*
X174403Y105759D01*
X174026Y104850D01*
X99795D01*
X99010Y105635D01*
Y106244D01*
X98680Y107040D01*
X98071Y107649D01*
X97275Y107978D01*
X96414D01*
X95618Y107649D01*
X95009Y107040D01*
X94679Y106244D01*
Y105383D01*
X93931Y104821D01*
X93648Y104788D01*
X92852Y105118D01*
X91991D01*
X91195Y104788D01*
X90586Y104179D01*
X90256Y103384D01*
Y102522D01*
X90435Y102090D01*
X89960Y101166D01*
X89219Y101048D01*
X88423Y101378D01*
X87561D01*
X86766Y101048D01*
X86641Y100924D01*
X85657Y101332D01*
Y104339D01*
X91181Y109863D01*
X139769D01*
X140453Y108943D01*
D02*
G37*
G36*
X322146Y107542D02*
X322475Y106746D01*
X323084Y106137D01*
X323880Y105807D01*
X324027Y105644D01*
X324493Y104864D01*
X324410Y104663D01*
Y104446D01*
X324367Y104232D01*
X324410Y104019D01*
Y103802D01*
X324493Y103601D01*
X324535Y103387D01*
X324656Y103207D01*
X324739Y103006D01*
X324893Y102852D01*
X325014Y102671D01*
X328655Y99029D01*
X329372Y98551D01*
X330217Y98383D01*
X343355D01*
X343590Y98079D01*
X343879Y97399D01*
X343607Y96741D01*
X336665Y89798D01*
X335755Y90175D01*
Y93796D01*
X335648Y94333D01*
X335344Y94789D01*
X334258Y95875D01*
X333802Y96180D01*
X333264Y96287D01*
X311174D01*
X310965Y96508D01*
X310609Y97271D01*
X310827Y97798D01*
Y98659D01*
X310497Y99455D01*
X310202Y99750D01*
X311532Y101081D01*
X311923Y101027D01*
X312596Y100753D01*
X312846Y100150D01*
X313455Y99541D01*
X314251Y99211D01*
X315112D01*
X315908Y99541D01*
X316517Y100150D01*
X316847Y100945D01*
Y101807D01*
X316719Y102115D01*
X316799Y102515D01*
Y103493D01*
X321161Y107856D01*
X322146Y107542D01*
D02*
G37*
G36*
X291507Y115202D02*
X291882Y114184D01*
X276840Y99142D01*
X276302Y99210D01*
X275947Y100247D01*
X290941Y115240D01*
X290960Y115246D01*
X291507Y115202D01*
D02*
G37*
G36*
X260050Y94413D02*
X259987Y94318D01*
X139381D01*
X138855Y95303D01*
X138918Y95397D01*
X259524D01*
X260050Y94413D01*
D02*
G37*
G36*
X64833Y109895D02*
X65443Y109286D01*
X66238Y108957D01*
X66848D01*
X70761Y105044D01*
Y92525D01*
X69776Y92329D01*
X69736Y92427D01*
X69127Y93036D01*
X68331Y93365D01*
X67469D01*
X66673Y93036D01*
X66064Y92427D01*
X65735Y91631D01*
Y90769D01*
X66064Y89973D01*
X66495Y89543D01*
Y82667D01*
X66064Y82237D01*
X65735Y81441D01*
Y81344D01*
X64750Y80936D01*
X61966Y83721D01*
X61986Y83769D01*
Y84631D01*
X61657Y85427D01*
X61048Y86036D01*
X60641Y86204D01*
X60319Y87275D01*
X62115Y89071D01*
X62420Y89527D01*
X62527Y90064D01*
Y108890D01*
X63699Y110062D01*
X64833Y109895D01*
D02*
G37*
G36*
X351253Y123254D02*
Y117208D01*
X351360Y116671D01*
X351664Y116215D01*
X362231Y105648D01*
Y90054D01*
X361936Y89804D01*
X360952Y90259D01*
Y98327D01*
X360845Y98864D01*
X360541Y99320D01*
X346643Y113218D01*
X346187Y113522D01*
X345650Y113629D01*
X342197D01*
X341821Y114539D01*
X349911Y122629D01*
X350215Y123084D01*
X350268Y123351D01*
X351253Y123254D01*
D02*
G37*
G36*
X332945Y93214D02*
Y91617D01*
X332025Y90933D01*
X331164D01*
X330368Y90603D01*
X329759Y89994D01*
X329429Y89198D01*
Y88336D01*
X329759Y87541D01*
X330190Y87110D01*
Y86112D01*
X315345Y71267D01*
X315041Y70811D01*
X314934Y70274D01*
Y61264D01*
X314503Y60833D01*
X313368Y60666D01*
X311230Y62804D01*
X310774Y63109D01*
X310236Y63216D01*
X307106D01*
X306569Y63109D01*
X306113Y62805D01*
X298610Y55301D01*
X298213Y55356D01*
X297625Y55647D01*
Y85996D01*
X298212Y86583D01*
X298395D01*
X299191Y86912D01*
X299800Y87521D01*
X300130Y88317D01*
Y88674D01*
X300220Y88781D01*
X301078Y89265D01*
X301538Y89075D01*
X302399D01*
X303195Y89404D01*
X303804Y90014D01*
X304134Y90810D01*
Y91419D01*
X306192Y93477D01*
X332682D01*
X332945Y93214D01*
D02*
G37*
G36*
X309203Y113710D02*
X309475Y113053D01*
X310084Y112444D01*
X310880Y112115D01*
X311741D01*
X311894Y112178D01*
X312451Y111343D01*
X288156Y87048D01*
X287921Y87003D01*
X287029Y87061D01*
X286901Y87126D01*
X286561Y87466D01*
X285765Y87795D01*
X284904D01*
X284662Y87982D01*
X284586Y89274D01*
X305531Y110219D01*
X306290D01*
X307085Y110548D01*
X307695Y111157D01*
X308024Y111953D01*
Y112815D01*
X308567Y113618D01*
X309155Y113761D01*
X309203Y113710D01*
D02*
G37*
G36*
X135840Y97119D02*
X89880Y51158D01*
X88745Y51325D01*
X88136Y51934D01*
X87340Y52264D01*
X86705D01*
X85657Y53312D01*
Y97094D01*
X86641Y97501D01*
X86766Y97377D01*
X87561Y97047D01*
X88423D01*
X89219Y97377D01*
X89828Y97986D01*
X89876Y98103D01*
X117918D01*
X118602Y97183D01*
Y96321D01*
X118932Y95525D01*
X119463Y94994D01*
Y94044D01*
X110358Y84939D01*
X109880Y85138D01*
X109018D01*
X108222Y84808D01*
X107613Y84199D01*
X107283Y83403D01*
Y82542D01*
X107613Y81746D01*
X108222Y81137D01*
X109018Y80807D01*
X109880D01*
X110675Y81137D01*
X111284Y81746D01*
X111589Y82480D01*
X121690Y92581D01*
X121973Y93005D01*
X122072Y93504D01*
Y94994D01*
X122603Y95525D01*
X122933Y96321D01*
Y97183D01*
X123617Y98103D01*
X135433D01*
X135840Y97119D01*
D02*
G37*
G36*
X358142Y97745D02*
Y87833D01*
X358249Y87295D01*
X358554Y86839D01*
X362824Y82569D01*
X363279Y82265D01*
X363408Y82240D01*
X363469Y82090D01*
X364078Y81481D01*
X364874Y81152D01*
X365736D01*
X365813Y81101D01*
X366044Y79940D01*
X350384Y64281D01*
X348978Y62874D01*
X348369D01*
X347573Y62544D01*
X347476Y62448D01*
X346258Y62609D01*
X346148Y62775D01*
X343546Y65376D01*
Y82125D01*
X343580Y82147D01*
X344531Y82427D01*
X344935Y82023D01*
X345731Y81693D01*
X345960D01*
X347095Y80558D01*
Y72257D01*
X346664Y71827D01*
X346335Y71031D01*
Y70169D01*
X346664Y69373D01*
X347273Y68764D01*
X348069Y68435D01*
X348931D01*
X349727Y68764D01*
X350336Y69373D01*
X350665Y70169D01*
Y71031D01*
X350336Y71827D01*
X349905Y72257D01*
Y81140D01*
X349798Y81678D01*
X349493Y82134D01*
X348289Y83337D01*
X348327Y83428D01*
Y84289D01*
X347997Y85085D01*
X347388Y85694D01*
X347113Y85808D01*
X346847Y86933D01*
X352115Y92201D01*
X353024Y91825D01*
Y88543D01*
X352277Y87795D01*
X351668D01*
X350872Y87466D01*
X350263Y86857D01*
X349933Y86061D01*
Y85199D01*
X350263Y84403D01*
X350872Y83794D01*
X351668Y83464D01*
X352529D01*
X353325Y83794D01*
X353934Y84403D01*
X354264Y85199D01*
Y85808D01*
X355423Y86967D01*
X355727Y87423D01*
X355834Y87961D01*
Y98767D01*
X356743Y99144D01*
X358142Y97745D01*
D02*
G37*
G36*
X44092Y75423D02*
Y63528D01*
X43742Y63004D01*
X43574Y62159D01*
Y61000D01*
X43616Y60787D01*
Y60569D01*
X43699Y60368D01*
X43742Y60155D01*
X43863Y59974D01*
X43946Y59773D01*
X44099Y59620D01*
X44220Y59439D01*
X44401Y59318D01*
X44555Y59164D01*
X44756Y59081D01*
X44936Y58960D01*
X45150Y58918D01*
X45351Y58835D01*
X45568D01*
X45781Y58792D01*
X45995Y58835D01*
X46212D01*
X46413Y58918D01*
X46626Y58960D01*
X46807Y59081D01*
X47008Y59164D01*
X47841Y59175D01*
X48595Y58565D01*
Y53624D01*
X47611Y52966D01*
X47536Y52997D01*
X46675D01*
X45879Y52667D01*
X45617Y52405D01*
X33282D01*
X13105Y72582D01*
Y83400D01*
X13201Y83486D01*
X14089Y83829D01*
X14657Y83394D01*
X15639Y82987D01*
X16693Y82848D01*
X17747Y82987D01*
X18729Y83394D01*
X21760Y85144D01*
X22339Y85588D01*
X33927D01*
X44092Y75423D01*
D02*
G37*
G36*
X88833Y111489D02*
X83259Y105915D01*
X82954Y105459D01*
X82847Y104921D01*
Y52730D01*
X82954Y52193D01*
X83259Y51737D01*
X84744Y50251D01*
Y49668D01*
X84758Y49633D01*
X84101Y48649D01*
X64567D01*
X64029Y48542D01*
X63574Y48237D01*
X62223Y46887D01*
X61155Y47211D01*
X61146Y47255D01*
X62115Y48224D01*
X62420Y48680D01*
X62527Y49218D01*
Y77794D01*
X63511Y78202D01*
X67907Y73807D01*
X68362Y73502D01*
X68900Y73395D01*
X77600D01*
X78030Y72964D01*
X78826Y72635D01*
X79688D01*
X80483Y72964D01*
X81093Y73573D01*
X81422Y74369D01*
Y75231D01*
X81093Y76027D01*
X80483Y76636D01*
X79688Y76965D01*
X78826D01*
X78030Y76636D01*
X77600Y76205D01*
X74884D01*
X74242Y77189D01*
X74331Y77404D01*
Y78265D01*
X74001Y79061D01*
X73570Y79492D01*
Y105626D01*
X73463Y106163D01*
X73159Y106619D01*
X68835Y110944D01*
Y111553D01*
X69519Y112473D01*
X88425D01*
X88833Y111489D01*
D02*
G37*
G36*
X294815Y86120D02*
Y52033D01*
X294385Y51602D01*
X294055Y50806D01*
Y49945D01*
X294385Y49149D01*
X294994Y48540D01*
X295711Y48243D01*
X295898Y47852D01*
X296086Y47226D01*
X287008Y38149D01*
X272606D01*
X272198Y39133D01*
X272284Y39219D01*
X272777Y40072D01*
X273032Y41023D01*
Y42008D01*
X272777Y42959D01*
X272284Y43812D01*
X271588Y44509D01*
X270735Y45001D01*
X269784Y45256D01*
X268799D01*
X267848Y45001D01*
X267723Y44929D01*
X266364Y46288D01*
Y47852D01*
X267348Y48319D01*
X267848Y48030D01*
X268799Y47776D01*
X269784D01*
X270735Y48030D01*
X271588Y48523D01*
X272284Y49219D01*
X272777Y50072D01*
X273032Y51023D01*
Y52008D01*
X272777Y52959D01*
X272757Y52994D01*
X290137Y70374D01*
X290613Y70177D01*
X291474D01*
X292270Y70507D01*
X292879Y71116D01*
X293209Y71912D01*
Y72773D01*
X292879Y73569D01*
X292270Y74178D01*
X291474Y74508D01*
X290613D01*
X289817Y74178D01*
X289208Y73569D01*
X289101Y73313D01*
X270770Y54981D01*
X270735Y55001D01*
X269784Y55256D01*
X268799D01*
X267848Y55001D01*
X267348Y54712D01*
X266364Y55180D01*
Y57852D01*
X267348Y58319D01*
X267848Y58030D01*
X268799Y57776D01*
X269784D01*
X270735Y58030D01*
X271588Y58523D01*
X272284Y59219D01*
X272777Y60072D01*
X273032Y61023D01*
Y62008D01*
X272893Y62524D01*
X273502Y63367D01*
X273631Y63440D01*
X274520D01*
X275019Y63539D01*
X275443Y63822D01*
X291402Y79781D01*
X291684Y80204D01*
X291784Y80703D01*
Y84480D01*
X293831Y86528D01*
X294815Y86120D01*
D02*
G37*
G36*
X270965Y79831D02*
Y79294D01*
X271294Y78498D01*
X271903Y77889D01*
X272699Y77559D01*
X273561D01*
X274405Y77650D01*
X274735Y76854D01*
X275344Y76245D01*
X276140Y75915D01*
X277001D01*
X277797Y76245D01*
X278147Y76595D01*
X280735D01*
X281111Y75686D01*
X273246Y67820D01*
X268306D01*
X267807Y67721D01*
X267384Y67438D01*
X267348Y67403D01*
X266364Y67810D01*
Y76622D01*
X270039Y80298D01*
X270965Y79831D01*
D02*
G37*
G36*
X276522Y93257D02*
X262195Y78930D01*
X261891Y78474D01*
X261784Y77937D01*
Y75995D01*
X261045Y75256D01*
X255551D01*
Y67776D01*
X262314D01*
X262722Y66791D01*
X260860Y64929D01*
X260735Y65001D01*
X259784Y65256D01*
X258799D01*
X257848Y65001D01*
X256995Y64509D01*
X256298Y63812D01*
X255806Y62959D01*
X255551Y62008D01*
Y61023D01*
X255806Y60072D01*
X256298Y59219D01*
X256995Y58523D01*
X257848Y58030D01*
X258799Y57776D01*
X259784D01*
X260735Y58030D01*
X261588Y58523D01*
X262284Y59219D01*
X262777Y60072D01*
X263754Y59918D01*
Y53113D01*
X262777Y52960D01*
X262284Y53812D01*
X261588Y54509D01*
X260735Y55001D01*
X259784Y55256D01*
X258799D01*
X257848Y55001D01*
X256995Y54509D01*
X256298Y53812D01*
X255806Y52959D01*
X255796Y52921D01*
X237917D01*
X237487Y53351D01*
X236691Y53681D01*
X235829D01*
X235033Y53351D01*
X234424Y52742D01*
X234095Y51947D01*
Y51085D01*
X234424Y50289D01*
X235033Y49680D01*
X235829Y49351D01*
X236691D01*
X237487Y49680D01*
X237917Y50111D01*
X255796D01*
X255806Y50072D01*
X256298Y49219D01*
X256995Y48523D01*
X257848Y48030D01*
X258799Y47776D01*
X259784D01*
X260735Y48030D01*
X261588Y48523D01*
X262284Y49219D01*
X262777Y50072D01*
X263754Y49918D01*
Y45748D01*
X263854Y45249D01*
X264137Y44826D01*
X265878Y43084D01*
X265806Y42959D01*
X265551Y42008D01*
Y41023D01*
X265806Y40072D01*
X266299Y39219D01*
X266385Y39133D01*
X265977Y38149D01*
X262606D01*
X262198Y39133D01*
X262284Y39219D01*
X262777Y40072D01*
X263032Y41023D01*
Y42008D01*
X262777Y42959D01*
X262284Y43812D01*
X261588Y44509D01*
X260735Y45001D01*
X259784Y45256D01*
X258799D01*
X257848Y45001D01*
X256995Y44509D01*
X256298Y43812D01*
X256247Y43724D01*
X199101D01*
X185810Y57015D01*
Y74350D01*
X186850D01*
Y77724D01*
X189718Y80592D01*
X257985D01*
X258830Y80760D01*
X259546Y81239D01*
X269561Y91254D01*
X269682Y91435D01*
X269836Y91588D01*
X269919Y91789D01*
X270040Y91970D01*
X270082Y92183D01*
X270165Y92384D01*
Y92602D01*
X270208Y92815D01*
X270165Y93028D01*
Y93246D01*
X270484Y93852D01*
X270686Y94055D01*
X270866Y94166D01*
X276145D01*
X276522Y93257D01*
D02*
G37*
G36*
X49930Y82864D02*
Y80066D01*
X50083Y79298D01*
X50518Y78647D01*
X52530Y76635D01*
Y62094D01*
X52309Y61969D01*
X51546Y61792D01*
X51099Y62239D01*
X50303Y62569D01*
X49456D01*
X49439Y62571D01*
X48507Y63248D01*
Y76337D01*
X48339Y77182D01*
X47861Y77898D01*
X46511Y79248D01*
X46512Y79539D01*
X46800Y80351D01*
X47311Y80562D01*
X47921Y81171D01*
X48250Y81967D01*
Y82576D01*
X48946Y83272D01*
X49930Y82864D01*
D02*
G37*
G36*
X59717Y77787D02*
Y54940D01*
X58733Y54380D01*
X58501Y54518D01*
Y77425D01*
X59486Y77945D01*
X59717Y77787D01*
D02*
G37*
G36*
X378289Y81307D02*
X380503Y85142D01*
X381454Y84887D01*
Y53808D01*
X375896D01*
X375595Y54348D01*
X375436Y54792D01*
X375728Y55498D01*
Y56360D01*
X375399Y57156D01*
X374968Y57586D01*
Y61575D01*
X374861Y62112D01*
X374556Y62568D01*
X367717Y69408D01*
Y70017D01*
X367387Y70813D01*
X366778Y71422D01*
X365982Y71752D01*
X365121D01*
X364325Y71422D01*
X363716Y70813D01*
X363386Y70017D01*
Y69156D01*
X363716Y68360D01*
X364325Y67751D01*
X365121Y67421D01*
X365730D01*
X372158Y60993D01*
Y57586D01*
X371727Y57156D01*
X371398Y56360D01*
Y55498D01*
X371690Y54792D01*
X371531Y54348D01*
X371230Y53808D01*
X363563D01*
X363350Y53765D01*
X363132D01*
X362931Y53682D01*
X362718Y53640D01*
X362537Y53519D01*
X362336Y53436D01*
X362183Y53282D01*
X362002Y53161D01*
X361881Y52980D01*
X361727Y52827D01*
X361644Y52626D01*
X361523Y52445D01*
X361481Y52232D01*
X361398Y52031D01*
Y51813D01*
X361355Y51600D01*
X361398Y51387D01*
Y51169D01*
X361481Y50968D01*
X361523Y50755D01*
X361644Y50574D01*
X361727Y50373D01*
X361881Y50220D01*
X362002Y50039D01*
X362183Y49918D01*
X362336Y49764D01*
X362537Y49681D01*
X362718Y49560D01*
X362931Y49518D01*
X363132Y49435D01*
X363350D01*
X363563Y49392D01*
X378784D01*
X379161Y48483D01*
X369008Y38330D01*
X354234D01*
X353543Y39235D01*
Y40096D01*
X353214Y40892D01*
X352783Y41323D01*
Y50880D01*
X352873Y50987D01*
X353767Y51457D01*
X354195Y51279D01*
X355057D01*
X355853Y51609D01*
X356462Y52218D01*
X356791Y53014D01*
Y53876D01*
X356462Y54672D01*
X355853Y55281D01*
X355057Y55610D01*
X354195D01*
X353767Y55433D01*
X352873Y55903D01*
X352783Y56010D01*
Y62705D01*
X369055Y78977D01*
X369359Y79433D01*
X369466Y79970D01*
Y85416D01*
X370318Y85908D01*
X378289Y81307D01*
D02*
G37*
G36*
X306652Y57978D02*
X306714Y57828D01*
X307144Y57398D01*
Y52592D01*
X306314Y51870D01*
X305452D01*
X304656Y51540D01*
X304224Y51108D01*
X303695Y51003D01*
X303239Y50698D01*
X301897Y49356D01*
X300913Y49764D01*
Y53631D01*
X305491Y58209D01*
X306652Y57978D01*
D02*
G37*
G36*
X332551Y83214D02*
Y75022D01*
X332077Y74548D01*
X331773Y74092D01*
X331666Y73554D01*
Y51618D01*
X331235Y51187D01*
X330906Y50391D01*
Y49530D01*
X331235Y48734D01*
X331844Y48125D01*
X332640Y47795D01*
X333502D01*
X333524Y47805D01*
X334508Y47147D01*
Y45417D01*
X318604Y29513D01*
X318169Y28861D01*
X318016Y28093D01*
Y27262D01*
X317781Y27027D01*
X317421Y26159D01*
Y25219D01*
X317781Y24351D01*
X318445Y23686D01*
X319314Y23327D01*
X320253D01*
X321122Y23686D01*
X321786Y24351D01*
X322146Y25219D01*
Y26159D01*
X322030Y26438D01*
Y27262D01*
X333599Y38831D01*
X334508Y38454D01*
Y25312D01*
X334661Y24544D01*
X335096Y23893D01*
X337083Y21905D01*
Y21699D01*
X337443Y20831D01*
X337472Y20801D01*
X337065Y19817D01*
X309443D01*
X308162Y22036D01*
X307718Y22614D01*
Y28996D01*
X312782Y34059D01*
X312902Y34240D01*
X313056Y34394D01*
X313139Y34595D01*
X313260Y34776D01*
X313302Y34989D01*
X313386Y35190D01*
Y35407D01*
X313428Y35620D01*
X313386Y35834D01*
Y36051D01*
X313302Y36252D01*
X313260Y36465D01*
X313139Y36646D01*
X313056Y36847D01*
X312902Y37001D01*
X312782Y37181D01*
X312601Y37302D01*
X312447Y37456D01*
X312246Y37539D01*
X312065Y37660D01*
X311852Y37703D01*
X311651Y37786D01*
X311434D01*
X311220Y37828D01*
X311007Y37786D01*
X310790D01*
X310589Y37703D01*
X310375Y37660D01*
X310195Y37539D01*
X309994Y37456D01*
X309840Y37302D01*
X309659Y37181D01*
X303949Y31472D01*
X303471Y30755D01*
X303303Y29911D01*
Y23818D01*
X302600Y23526D01*
X301756Y22879D01*
X301109Y22036D01*
X300702Y21054D01*
X300563Y20000D01*
X300702Y18946D01*
X301109Y17964D01*
X302859Y14932D01*
X303303Y14354D01*
Y12352D01*
X302319Y12088D01*
X298255Y19126D01*
Y28227D01*
X309543Y39514D01*
X309847Y39970D01*
X309954Y40507D01*
Y48112D01*
X310044Y48563D01*
Y50846D01*
X309954Y51297D01*
Y57398D01*
X310385Y57828D01*
X310518Y58150D01*
X311624Y58436D01*
X314934Y55127D01*
Y51421D01*
X314503Y50990D01*
X314173Y50195D01*
Y49333D01*
X314503Y48537D01*
X315112Y47928D01*
X315908Y47598D01*
X316769D01*
X317565Y47928D01*
X318174Y48537D01*
X318504Y49333D01*
Y50195D01*
X318174Y50990D01*
X317744Y51421D01*
Y55709D01*
X317637Y56246D01*
X317381Y56629D01*
X317345Y56762D01*
X317565Y57771D01*
X318174Y58380D01*
X318504Y59175D01*
Y60037D01*
X318174Y60833D01*
X317744Y61264D01*
Y69692D01*
X331642Y83590D01*
X332551Y83214D01*
D02*
G37*
G36*
X264210Y93540D02*
X264534Y92471D01*
X257070Y85008D01*
X188804D01*
X187959Y84840D01*
X187243Y84361D01*
X183728Y80846D01*
X180354D01*
Y79806D01*
X134547D01*
X133702Y79638D01*
X132986Y79159D01*
X108484Y54657D01*
X108111Y54503D01*
X107446Y53838D01*
X107087Y52970D01*
Y52030D01*
X107241Y51657D01*
Y42029D01*
X106920Y41708D01*
X105051D01*
X104393Y42692D01*
X104429Y42778D01*
Y43639D01*
X104100Y44435D01*
X103490Y45044D01*
X102694Y45374D01*
X101833D01*
X101037Y45044D01*
X100607Y44614D01*
X91882D01*
X91506Y45523D01*
X137491Y91509D01*
X261501D01*
X262039Y91615D01*
X262495Y91920D01*
X264130Y93555D01*
X264210Y93540D01*
D02*
G37*
G36*
X180354Y74350D02*
X181395D01*
Y56100D01*
X181563Y55255D01*
X182041Y54539D01*
X196625Y39955D01*
X197342Y39476D01*
X198187Y39308D01*
X255392D01*
X255508Y39133D01*
X254982Y38149D01*
X110892D01*
X110515Y39058D01*
X111010Y39553D01*
X111488Y40270D01*
X111657Y41114D01*
Y51586D01*
X135462Y75391D01*
X180354D01*
Y74350D01*
D02*
G37*
G36*
X90347Y36383D02*
X84675Y30711D01*
X83841Y31268D01*
X83965Y31569D01*
Y32431D01*
X83636Y33227D01*
X83027Y33836D01*
X82231Y34165D01*
X81369D01*
X80573Y33836D01*
X79995Y33258D01*
X79876Y33224D01*
X78919Y33191D01*
X78592Y33601D01*
X78776Y34627D01*
X78825Y34659D01*
X81458Y37292D01*
X89971D01*
X90347Y36383D01*
D02*
G37*
G36*
X100700D02*
X88975Y24657D01*
X87489Y25515D01*
X83473Y18560D01*
X82523Y18814D01*
Y22314D01*
X97501Y37292D01*
X100324D01*
X100700Y36383D01*
D02*
G37*
G36*
X339777Y62900D02*
X342379Y60299D01*
Y40313D01*
X342547Y39469D01*
X343025Y38752D01*
X347217Y34561D01*
X347933Y34082D01*
X348778Y33914D01*
X363306D01*
X363683Y33005D01*
X353785Y23108D01*
X343471D01*
X342626Y22940D01*
X341503Y23373D01*
X341448Y23507D01*
X340784Y24171D01*
X340290Y24376D01*
X338523Y26143D01*
Y44586D01*
Y63007D01*
X339507Y63305D01*
X339777Y62900D01*
D02*
G37*
G36*
X206720Y34355D02*
X193901Y21535D01*
X187813D01*
Y10790D01*
X156906D01*
X156604Y11257D01*
X156440Y11775D01*
X156903Y12578D01*
X157185Y13629D01*
Y14717D01*
X156903Y15769D01*
X156359Y16711D01*
X155589Y17481D01*
X154647Y18025D01*
X153595Y18307D01*
X152507D01*
X151456Y18025D01*
X150513Y17481D01*
X149743Y16711D01*
X149199Y15769D01*
X148917Y14717D01*
Y13629D01*
X149199Y12578D01*
X149663Y11775D01*
X149498Y11257D01*
X149196Y10790D01*
X101722D01*
X100566Y11946D01*
X101154Y12964D01*
X101560Y13946D01*
X101699Y15000D01*
X101560Y16054D01*
X101154Y17036D01*
X100506Y17879D01*
X99663Y18526D01*
X98681Y18933D01*
X97627Y19072D01*
X96573Y18933D01*
X95591Y18526D01*
X94748Y17879D01*
X94100Y17036D01*
X92350Y14005D01*
X91944Y13023D01*
X91847Y12286D01*
X91611Y12050D01*
X90023D01*
X89531Y12903D01*
X94482Y21477D01*
X92194Y22798D01*
X92066Y23774D01*
X103630Y35339D01*
X206313D01*
X206720Y34355D01*
D02*
G37*
G36*
X27851Y36011D02*
X27735Y35731D01*
Y34869D01*
X28064Y34073D01*
X28673Y33464D01*
X29469Y33135D01*
X30331D01*
X31127Y33464D01*
X31557Y33895D01*
X35618D01*
X42095Y27418D01*
Y13899D01*
X42202Y13361D01*
X42507Y12905D01*
X44658Y10754D01*
X45113Y10450D01*
X45651Y10343D01*
X45880D01*
X46749Y9474D01*
Y8864D01*
X47079Y8069D01*
X46625Y7130D01*
X44657D01*
X22244Y29543D01*
Y30152D01*
X21914Y30948D01*
X21305Y31557D01*
X20509Y31887D01*
X20158Y32871D01*
X24282Y36995D01*
X27247D01*
X27851Y36011D01*
D02*
G37*
G36*
X304656Y47869D02*
X305452Y47539D01*
X306314D01*
X307144Y46818D01*
Y41089D01*
X295857Y29802D01*
X295552Y29346D01*
X295445Y28809D01*
Y19356D01*
X290460Y16477D01*
X295744Y7326D01*
X295176Y6342D01*
X278781D01*
X261809Y23313D01*
X261093Y23792D01*
X260248Y23960D01*
X253908D01*
X253423Y24284D01*
X252578Y24452D01*
X205829D01*
X204984Y24284D01*
X204268Y23805D01*
X202012Y21549D01*
X201850Y21570D01*
X200796Y21431D01*
X199814Y21025D01*
X198971Y20378D01*
X198324Y19534D01*
X197917Y18552D01*
X197778Y17498D01*
Y13998D01*
X197917Y12944D01*
X198324Y11962D01*
X198707Y11463D01*
X198034Y10790D01*
X195888D01*
Y19548D01*
X208936Y32597D01*
X288529D01*
X289067Y32704D01*
X289523Y33008D01*
X304520Y48006D01*
X304656Y47869D01*
D02*
G37*
G36*
X74776Y22089D02*
Y5812D01*
X74126Y5162D01*
X66826D01*
X66632Y5335D01*
X66242Y6146D01*
X73815Y22303D01*
X74776Y22089D01*
D02*
G37*
%LPC*%
G36*
X250938Y381398D02*
X249850D01*
X248798Y381116D01*
X247856Y380572D01*
X247086Y379802D01*
X246542Y378859D01*
X246260Y377808D01*
Y376720D01*
X246542Y375668D01*
X247086Y374726D01*
X247855Y373956D01*
X248798Y373412D01*
X249850Y373130D01*
X250938D01*
X251989Y373412D01*
X252932Y373956D01*
X253702Y374726D01*
X254246Y375668D01*
X254528Y376720D01*
Y377808D01*
X254246Y378859D01*
X253702Y379802D01*
X252932Y380572D01*
X251989Y381116D01*
X250938Y381398D01*
D02*
G37*
G36*
X336033Y302264D02*
X334637D01*
X333268Y301991D01*
X331978Y301457D01*
X330817Y300682D01*
X329830Y299695D01*
X329055Y298534D01*
X328520Y297244D01*
X328248Y295875D01*
Y294479D01*
X328520Y293110D01*
X329055Y291820D01*
X329830Y290660D01*
X330817Y289673D01*
X331978Y288897D01*
X333268Y288363D01*
X334637Y288091D01*
X336033D01*
X337402Y288363D01*
X338691Y288897D01*
X339852Y289673D01*
X340839Y290660D01*
X341615Y291820D01*
X342149Y293110D01*
X342421Y294479D01*
Y295875D01*
X342149Y297244D01*
X341615Y298534D01*
X340839Y299695D01*
X339852Y300682D01*
X338691Y301457D01*
X337402Y301991D01*
X336033Y302264D01*
D02*
G37*
G36*
X272055Y340804D02*
X266634D01*
X265914Y340709D01*
X265244Y340431D01*
X264668Y339989D01*
X264227Y339414D01*
X263949Y338743D01*
X263854Y338024D01*
X263949Y337304D01*
X264227Y336634D01*
X264668Y336058D01*
X265244Y335616D01*
X265914Y335339D01*
X266634Y335244D01*
X270903D01*
X282456Y323691D01*
Y317942D01*
X282551Y317222D01*
X282829Y316552D01*
X283271Y315976D01*
X283406Y315841D01*
X283982Y315399D01*
X284652Y315122D01*
X285371Y315027D01*
X286091Y315122D01*
X286761Y315399D01*
X287337Y315841D01*
X287779Y316417D01*
X288056Y317087D01*
X288151Y317807D01*
X288056Y318526D01*
X288016Y318624D01*
Y324842D01*
X287921Y325562D01*
X287644Y326232D01*
X287202Y326808D01*
X274020Y339989D01*
X273445Y340431D01*
X272774Y340709D01*
X272055Y340804D01*
D02*
G37*
G36*
X223327Y300591D02*
X217028D01*
Y294291D01*
X223327D01*
Y300591D01*
D02*
G37*
G36*
X194030Y70846D02*
X193175D01*
X192349Y70625D01*
X191608Y70197D01*
X191003Y69593D01*
X190576Y68852D01*
X190354Y68026D01*
Y67171D01*
X190576Y66345D01*
X191003Y65604D01*
X191608Y64999D01*
X192349Y64572D01*
X193175Y64350D01*
X194030D01*
X194856Y64572D01*
X195597Y64999D01*
X196202Y65604D01*
X196542Y66193D01*
X246598D01*
X247136Y66300D01*
X247187Y66335D01*
X247931D01*
X248727Y66664D01*
X249336Y67273D01*
X249665Y68069D01*
Y68931D01*
X249336Y69727D01*
X248727Y70336D01*
X247931Y70665D01*
X247069D01*
X246273Y70336D01*
X245664Y69727D01*
X245365Y69003D01*
X196542D01*
X196202Y69593D01*
X195597Y70197D01*
X194856Y70625D01*
X194030Y70846D01*
D02*
G37*
G36*
X143936Y20895D02*
X142848D01*
X141796Y20614D01*
X140854Y20069D01*
X140084Y19300D01*
X139540Y18357D01*
X139258Y17306D01*
Y16217D01*
X139540Y15166D01*
X140084Y14223D01*
X140854Y13453D01*
X141796Y12909D01*
X142848Y12628D01*
X143936D01*
X144988Y12909D01*
X145930Y13453D01*
X146700Y14223D01*
X147244Y15166D01*
X147526Y16217D01*
Y17306D01*
X147244Y18357D01*
X146700Y19300D01*
X145930Y20069D01*
X144988Y20614D01*
X143936Y20895D01*
D02*
G37*
%LPD*%
G36*
X267214Y264502D02*
X267218Y264497D01*
X266527Y263799D01*
X266453Y263830D01*
X265731Y264129D01*
X265122D01*
X256436Y272814D01*
X256594Y273404D01*
Y274233D01*
X257397Y275043D01*
X257585Y275065D01*
X267214Y264502D01*
D02*
G37*
D10*
X253150Y104626D02*
Y104724D01*
X256477Y108052D01*
X270079D01*
Y118496D01*
X311680Y144330D02*
Y155217D01*
X311581Y155315D02*
X311680Y155217D01*
X288707Y85755D02*
X322756Y119803D01*
X334075D01*
X297387Y91929D02*
X297749D01*
X290479Y80703D02*
Y85021D01*
X297387Y91929D01*
X288707Y81437D02*
Y85755D01*
X297749Y91929D02*
X323851Y118032D01*
X336240D01*
X312598Y116339D02*
X316215Y119955D01*
X311311Y114280D02*
Y114759D01*
X312598Y116047D02*
Y116339D01*
X311311Y114759D02*
X312598Y116047D01*
X316504Y127109D02*
X321260Y131864D01*
X316504Y127021D02*
Y127109D01*
X321260Y131864D02*
Y144980D01*
X306764Y117280D02*
X316504Y127021D01*
X304114Y117280D02*
X306764D01*
X301233Y114399D02*
X304114Y117280D01*
X265059Y77162D02*
X301233Y113336D01*
Y114399D01*
X262697Y140847D02*
X278937D01*
X179141Y111221D02*
X233071D01*
X262697Y140847D01*
X120768Y93504D02*
Y96752D01*
X110138Y82874D02*
X120768Y93504D01*
X273327Y143701D02*
X273524Y143504D01*
X260433Y143701D02*
X273327D01*
X251028Y153106D02*
Y154399D01*
Y153106D02*
X260236Y143898D01*
X260433Y143701D01*
X250689Y154738D02*
X251028Y154399D01*
X272441Y120858D02*
Y120866D01*
X270079Y118496D02*
X272441Y120858D01*
X270079Y105616D02*
Y108052D01*
X174318Y116043D02*
X179141Y111221D01*
X120965Y116043D02*
X174318D01*
X278937Y140847D02*
X282579Y144488D01*
X340158Y153445D02*
X343504Y150099D01*
X340158Y153445D02*
Y153593D01*
X272520Y64744D02*
X274520D01*
X269291Y61516D02*
X272520Y64744D01*
X274520D02*
X290479Y80703D01*
X343504Y125295D02*
Y150099D01*
X336240Y118032D02*
X343504Y125295D01*
X309378Y142028D02*
X311680Y144330D01*
X309602Y140989D02*
Y141804D01*
Y140989D02*
X309941Y140650D01*
X309378Y142028D02*
X309602Y141804D01*
X268306Y66516D02*
X273786D01*
X288707Y81437D01*
X340595Y145836D02*
Y146708D01*
X340846Y126575D02*
Y145585D01*
X334075Y119803D02*
X340846Y126575D01*
X340595Y145836D02*
X340846Y145585D01*
X340256Y147047D02*
X340595Y146708D01*
X265059Y45748D02*
Y63269D01*
X268306Y66516D01*
X265059Y45748D02*
X269291Y41516D01*
X265059Y67283D02*
Y77162D01*
X259291Y61516D02*
X265059Y67283D01*
D11*
X336515Y25312D02*
X339445Y22382D01*
X336515Y25312D02*
Y44586D01*
X339445Y22169D02*
Y22382D01*
X359055Y124606D02*
Y214862D01*
X48622Y359843D02*
X150295D01*
X48409D02*
X48622D01*
X319783Y25902D02*
X320023Y26142D01*
Y28093D01*
X319783Y25689D02*
Y25902D01*
X320023Y28093D02*
X336515Y44586D01*
Y86172D01*
X336910Y87205D02*
X345965Y96260D01*
X336910Y86566D02*
Y87205D01*
X336515Y86172D02*
X336910Y86566D01*
X51937Y80066D02*
Y90158D01*
X32431Y359990D02*
X48261D01*
X48409Y359843D01*
X51937Y80066D02*
X54537Y77466D01*
X240692Y379810D02*
X240734Y379852D01*
X50394Y15059D02*
Y15166D01*
X50994Y15766D01*
X58600Y15059D02*
X67525Y23983D01*
Y24625D01*
X50994Y44657D02*
X54537Y48201D01*
Y77466D01*
X50394Y15059D02*
X58600D01*
X67525Y24625D02*
X67600Y24700D01*
X50994Y15766D02*
Y44657D01*
D53*
X285236Y265945D02*
D03*
X253445D02*
D03*
X220177D02*
D03*
X285236Y289567D02*
D03*
X253445D02*
D03*
X220177D02*
D03*
Y258071D02*
D03*
Y281693D02*
D03*
Y273819D02*
D03*
X285236D02*
D03*
X253445Y281693D02*
D03*
Y273819D02*
D03*
X285236Y281693D02*
D03*
Y258071D02*
D03*
X253445D02*
D03*
X268778Y282746D02*
D03*
D54*
X314764Y210630D02*
D03*
Y220630D02*
D03*
D55*
X203602Y77598D02*
D03*
X193602Y67598D02*
D03*
D56*
X124606Y266634D02*
D03*
D59*
X82382Y153248D02*
D03*
D66*
X183602Y77598D02*
D03*
D67*
X102067Y153248D02*
D03*
X124606Y286319D02*
D03*
D68*
X220177Y297441D02*
D03*
X285236D02*
D03*
X253445D02*
D03*
D72*
X314764Y230630D02*
D03*
D81*
X389862Y264082D02*
G03*
X389862Y264075I5905J-47D01*
G01*
X390109Y295183D02*
G03*
X390109Y295176I5905J-54D01*
G01*
X388133Y262345D02*
X389862Y264075D01*
X389862Y298162D02*
X390109Y297735D01*
X374713Y381784D02*
X381511Y388582D01*
X377203Y251416D02*
X388133Y262345D01*
X381511Y388582D02*
X386403D01*
X389862Y385122D01*
X390109Y295183D02*
X390109Y297735D01*
X389862Y264082D02*
X390109Y295176D01*
X389862Y298162D02*
Y385122D01*
X377203Y250453D02*
Y251416D01*
X377052Y250302D02*
X377203Y250453D01*
X314764Y220630D02*
X338728D01*
X344968Y226870D01*
X345965D01*
X348189Y229094D01*
D82*
X292072Y217664D02*
G03*
X291730Y218478I-1181J-17D01*
G01*
X346161Y83479D02*
X348500Y81140D01*
X346161Y83479D02*
Y83858D01*
X348500Y70600D02*
Y81140D01*
X354429Y87961D02*
Y100480D01*
X345650Y112224D02*
X359547Y98327D01*
X350087Y104823D02*
X354429Y100480D01*
X352098Y85630D02*
X354429Y87961D01*
X359547Y87833D02*
Y98327D01*
Y87833D02*
X363817Y83563D01*
X344036Y104823D02*
X350087D01*
X326398Y112224D02*
X345650D01*
X333956Y87231D02*
X334350Y87626D01*
Y93796D01*
X340519Y60271D02*
X340748Y60041D01*
Y36552D02*
Y60041D01*
X348300Y42743D02*
Y53200D01*
X348799Y60709D02*
X351378Y63287D01*
X348300Y42743D02*
X351378Y39665D01*
Y63287D01*
X76181Y25932D02*
X81800Y32000D01*
X76181Y5230D02*
Y25932D01*
X41343Y3757D02*
X74708D01*
X76181Y5230D01*
X64125Y5725D02*
X64817Y6417D01*
X76800Y31980D01*
X63636Y5725D02*
X64125Y5725D01*
X44075Y5725D02*
X63636D01*
X88092Y21787D02*
X103049Y36744D01*
X287590D01*
X299508Y48662D01*
X35728Y282348D02*
X35778D01*
X19359Y298718D02*
X35728Y282348D01*
X45651Y11748D02*
X46462D01*
X48915Y9295D01*
X11700Y72000D02*
Y96456D01*
X282661Y179149D02*
Y181611D01*
X278845Y185427D02*
X282661Y181611D01*
X275492Y188140D02*
X276876Y186756D01*
Y182671D02*
Y186756D01*
Y182671D02*
X279294Y180253D01*
X274908Y180545D02*
X286276Y169177D01*
X273524Y187324D02*
X274908Y185940D01*
Y180545D02*
Y185940D01*
X278845Y185427D02*
Y189364D01*
X283858Y183693D02*
Y201378D01*
Y183693D02*
X285138Y182413D01*
Y180570D02*
Y182413D01*
X275492Y188140D02*
Y192618D01*
X77500Y79300D02*
Y107000D01*
X273524Y194547D02*
Y199803D01*
Y187324D02*
Y190689D01*
X272736Y193760D02*
X273524Y194547D01*
X272736Y191477D02*
Y193760D01*
Y191477D02*
X273524Y190689D01*
X243824Y217397D02*
X270079Y191142D01*
X260101Y217286D02*
X278916Y198471D01*
X259055Y214272D02*
X273524Y199803D01*
X255315Y214272D02*
X259055D01*
X285138Y173842D02*
Y177729D01*
X285417Y178008D01*
Y180291D01*
X285138Y180570D02*
X285417Y180291D01*
X275590Y173956D02*
Y174209D01*
X257500Y192300D02*
X275590Y174209D01*
X239131Y204078D02*
X278525Y164684D01*
X275717Y174083D02*
X282700Y167100D01*
X269926Y163976D02*
X275197D01*
X277154Y159252D02*
X278630Y160728D01*
X285312Y159506D02*
X285630Y159189D01*
X258963Y155703D02*
X279364Y154993D01*
X281074Y160728D02*
X281766Y160037D01*
X278525Y164684D02*
X283050D01*
X278630Y160728D02*
X281074D01*
X269898Y161221D02*
X276338D01*
X277833Y162715D02*
X282104D01*
X231032Y202871D02*
Y216240D01*
X286276Y169177D02*
X287784D01*
X231032Y202871D02*
X269926Y163976D01*
X281766Y160037D02*
X282513Y159173D01*
X283050Y164684D02*
X284548Y163380D01*
X276338Y161221D02*
X277833Y162715D01*
X285630Y158929D02*
Y159189D01*
X263858Y159252D02*
X277154D01*
X282104Y162715D02*
X285312Y159506D01*
X288130Y183370D02*
X288724Y182776D01*
X286417Y185083D02*
X288130Y183370D01*
X285138Y173842D02*
X287622Y171358D01*
X291732D02*
X293862Y173488D01*
X287622Y171358D02*
X291732D01*
X291496Y188976D02*
X291929Y188543D01*
X291496Y188976D02*
Y189597D01*
X286417Y185083D02*
Y200040D01*
X291929Y177067D02*
Y188543D01*
X289071Y187504D02*
Y253833D01*
X288724Y182776D02*
X288822Y179629D01*
X288976Y174114D02*
X291929Y177067D01*
X289071Y187504D02*
X289173Y187402D01*
X287435Y157124D02*
X287555Y151279D01*
X285630Y158929D02*
X287435Y157124D01*
X262723Y220866D02*
X272989Y210600D01*
X241726Y220866D02*
X262723D01*
X253445Y281693D02*
X279586Y253015D01*
X247618Y341732D02*
X290945Y298406D01*
X289071Y253833D02*
X290945Y255706D01*
X286614Y200236D02*
Y227786D01*
X272989Y210600D02*
X274705D01*
X278543Y189665D02*
X278845Y189364D01*
X239493Y217397D02*
X243824D01*
X238780Y218110D02*
X239493Y217397D01*
X234500Y212500D02*
X243200D01*
X257500Y192300D02*
Y198200D01*
X243200Y212500D02*
X257500Y198200D01*
X321260Y230512D02*
Y246260D01*
X229063Y202055D02*
X269898Y161221D01*
X215256Y207854D02*
X263858Y159252D01*
X238780Y208110D02*
X239131Y207759D01*
Y204078D02*
Y207759D01*
X233000Y204800D02*
Y211000D01*
Y204800D02*
X240400Y197400D01*
X229063Y202055D02*
Y204047D01*
X321260Y214764D02*
X329134D01*
X231032Y216240D02*
X236910D01*
X215256Y217854D02*
X229063Y204047D01*
X233000Y211000D02*
X234500Y212500D01*
X333264Y94882D02*
X334350Y93796D01*
X363636Y87797D02*
Y106229D01*
X352658Y117208D02*
X363636Y106229D01*
X363817Y83563D02*
X365354D01*
X324311Y107972D02*
Y110138D01*
X84252Y52730D02*
X86884Y50098D01*
X86910D01*
X84252Y52730D02*
Y104921D01*
X84216Y43130D02*
X89761D01*
X84137Y43209D02*
X84216Y43130D01*
X76871Y43209D02*
X84137D01*
X85670Y47244D02*
X85847Y47067D01*
X58445Y35453D02*
X68169Y45177D01*
X85031Y45098D02*
X89094D01*
X68169Y45177D02*
X84952D01*
X85031Y45098D01*
X89761Y43130D02*
X89839Y43209D01*
X64567Y47244D02*
X85670D01*
X58071Y40748D02*
X64567Y47244D01*
X72165Y38504D02*
X76871Y43209D01*
X85847Y47067D02*
X88130D01*
X89839Y43209D02*
X102884D01*
X89094Y45098D02*
X136909Y92913D01*
X261501D01*
X89744Y48681D02*
Y49036D01*
X137510Y96802D02*
X261453D01*
X89744Y49036D02*
X137510Y96802D01*
X88130Y47067D02*
X89744Y48681D01*
X198500Y317256D02*
Y368500D01*
X226772Y231230D02*
X235775Y231230D01*
X219754Y231230D02*
X226772D01*
X225154Y216240D02*
X231032D01*
X288633Y117778D02*
Y119490D01*
X98397Y101476D02*
X272331D01*
X288633Y117778D01*
X214961Y331111D02*
X232750Y348900D01*
X214961Y327756D02*
Y331111D01*
X232750Y348900D02*
X252600D01*
X201927Y317727D02*
X204932D01*
X214961Y327756D01*
X203642Y334055D02*
X209842Y327854D01*
X203937Y321949D02*
X209842Y327854D01*
X88287Y99508D02*
X273221D01*
X307185Y166732D02*
X311122Y170669D01*
X307185Y142480D02*
Y166732D01*
X311122Y170669D02*
Y197487D01*
X304732Y143610D02*
Y167429D01*
X309154Y171850D02*
Y181327D01*
X304732Y167429D02*
X309154Y171850D01*
X302461Y168209D02*
X307185Y172933D01*
X302461Y144122D02*
Y168209D01*
X307185Y172933D02*
Y180512D01*
X314337Y144509D02*
Y175806D01*
X291496Y189597D02*
X291526Y189627D01*
Y192415D02*
X291827Y192717D01*
X291526Y189627D02*
Y192415D01*
X298917Y181892D02*
Y224016D01*
X298056Y145285D02*
Y171786D01*
X309154Y181327D02*
X309154Y181327D01*
X298917Y181892D02*
X302279Y178531D01*
X294980Y176267D02*
X296618Y174629D01*
X300025Y169217D02*
X305217Y174409D01*
X302854Y184842D02*
X307185Y180512D01*
X298616Y176450D02*
Y179238D01*
X309154Y181327D02*
Y181327D01*
X297310Y171786D02*
X298056D01*
X310103Y198179D02*
X310430D01*
X304823Y185658D02*
X309154Y181327D01*
X305217Y174409D02*
Y179582D01*
X303070Y181729D02*
X305217Y179582D01*
X296618Y172478D02*
X297310Y171786D01*
X296949Y180906D02*
X298616Y179238D01*
Y176450D02*
X298917Y176149D01*
X308629Y199653D02*
X310103Y198179D01*
X310763Y197846D02*
X311122Y197487D01*
X310430Y198179D02*
X310763Y197846D01*
X296618Y172478D02*
Y174629D01*
X300886Y184027D02*
X303070Y181843D01*
Y181729D02*
Y181843D01*
X296949Y180906D02*
Y188988D01*
X275704Y122933D02*
X298056Y145285D01*
X308488Y200608D02*
X308629Y199653D01*
X300492Y135787D02*
X307185Y142480D01*
X300492Y130807D02*
Y135787D01*
X304823Y185658D02*
Y245093D01*
X303019Y246897D02*
X304823Y245093D01*
X303019Y246897D02*
Y268733D01*
X304528Y270242D01*
Y306645D01*
X303445Y307728D02*
X304528Y306645D01*
X303445Y307728D02*
Y336506D01*
X304455Y337516D01*
X304877D01*
X307743Y340382D01*
Y343471D01*
X310886Y346614D01*
X302461Y270959D02*
Y305928D01*
X299705Y271070D02*
Y296555D01*
X299021Y270386D02*
X299705Y271070D01*
X300990Y246142D02*
Y269488D01*
X302461Y270959D01*
X299021Y245327D02*
Y270386D01*
X301476Y306912D02*
X302461Y305928D01*
X301476Y306912D02*
Y338013D01*
X303759Y340296D01*
X302854Y184842D02*
Y244277D01*
X300886Y184027D02*
Y243462D01*
X300990Y246142D02*
X302854Y244277D01*
X296949Y244615D02*
X298917Y242646D01*
X294980Y252756D02*
Y304626D01*
X293406Y251181D02*
X294980Y252756D01*
X296949Y244615D02*
Y298223D01*
X298698Y299972D01*
X299021Y245327D02*
X300886Y243462D01*
X298130Y233331D02*
X298917Y234119D01*
Y242646D01*
X298130Y224803D02*
Y233331D01*
X320276Y336909D02*
Y341679D01*
X309395Y352559D02*
X320276Y341679D01*
X295352Y346828D02*
X298327Y349803D01*
X298698Y299972D02*
Y344193D01*
X295352Y322736D02*
Y346828D01*
X251082Y351279D02*
X252362Y352559D01*
X201850Y376203D02*
X226774Y351279D01*
X251082D01*
X252362Y352559D02*
X309395D01*
X284160Y249317D02*
Y249344D01*
X283858Y249016D02*
X284160Y249317D01*
X268134Y329166D02*
X274883Y322417D01*
X268134Y329166D02*
X268134D01*
X274883Y322417D02*
X275862D01*
X278839Y325394D01*
X298130Y224803D02*
X298917Y224016D01*
X286954Y254499D02*
X288976Y256522D01*
X292914Y254891D02*
Y300416D01*
X290945Y255706D02*
Y298406D01*
X291437Y253415D02*
X292914Y254891D01*
X288976Y256522D02*
Y259620D01*
X294980Y189803D02*
Y197697D01*
X292072Y217661D02*
X292323Y196458D01*
X294291Y198386D02*
X294980Y197697D01*
X296949Y188988D02*
Y222521D01*
X296949Y188988D02*
X296949Y188988D01*
X296311Y223159D02*
X296949Y222521D01*
X292224Y196457D02*
X292226Y196458D01*
X292323D01*
X286417Y200040D02*
X286614Y200236D01*
X273800Y240600D02*
X286614Y227786D01*
X294980Y176267D02*
Y189803D01*
X294980Y189803D01*
X294291Y198386D02*
Y218701D01*
X293456Y219536D02*
X294291Y218701D01*
X293456Y219536D02*
Y223230D01*
X252066Y341263D02*
X292914Y300416D01*
X292072Y217664D02*
X292072Y217661D01*
X291437Y218771D02*
X291726Y218483D01*
X291730Y218478D01*
X291437Y218771D02*
Y253415D01*
X288630Y259966D02*
X288976Y259620D01*
X286954Y245672D02*
Y254499D01*
X293406Y240363D02*
Y251181D01*
X250394Y262008D02*
X250474Y261928D01*
X237454Y247930D02*
X250474Y260949D01*
X250394Y262008D02*
X252753Y263229D01*
X250474Y260949D02*
Y261928D01*
X235775Y231230D02*
X236121Y231576D01*
X252753Y263229D02*
X253445Y263921D01*
X236765Y247730D02*
X237454Y247930D01*
X236121Y231576D02*
X236986Y232441D01*
X236676Y247730D02*
X236765D01*
X287177Y261419D02*
X288630Y259966D01*
X253445Y263921D02*
Y264229D01*
X287784Y169177D02*
X287964Y168996D01*
X282700Y167100D02*
X286300D01*
X287964Y168996D02*
X289134D01*
X286300Y167100D02*
X295300Y158100D01*
X289134Y168996D02*
X295276Y162854D01*
X324311Y110138D02*
X326398Y112224D01*
X325512Y114193D02*
X339488D01*
X320571Y109252D02*
Y109252D01*
X325512Y114193D01*
X315394Y102515D02*
Y104075D01*
X320571Y109252D01*
X314682Y101802D02*
X315394Y102515D01*
X314682Y101376D02*
Y101802D01*
X308723Y100259D02*
X324626Y116161D01*
X308723Y98290D02*
Y100259D01*
X308661Y98228D02*
X308723Y98290D01*
X297965Y88322D02*
Y88748D01*
X296220Y86578D02*
X297965Y88322D01*
X296220Y50376D02*
Y86578D01*
X324626Y116161D02*
X337421D01*
X302311Y124416D02*
X312836Y134940D01*
X301997Y127461D02*
X314189Y139653D01*
X307538Y115410D02*
X317682Y125554D01*
X318707D02*
X319009Y125855D01*
X317682Y125554D02*
X318707D01*
X305568Y119150D02*
X318406Y131988D01*
Y149213D01*
X303340Y119150D02*
X305568D01*
X311542Y130136D02*
X312630D01*
X312931Y130437D01*
X297394Y115989D02*
X311542Y130136D01*
X312836Y134940D02*
X315145D01*
X295854Y124416D02*
X302311D01*
X297394Y114926D02*
Y115989D01*
X278039Y95571D02*
X297394Y114926D01*
X264159Y95571D02*
X278039D01*
X315145Y134940D02*
X315446Y135241D01*
X304889Y115410D02*
X307538D01*
X280634Y90092D02*
X303103Y112562D01*
X299363Y115173D02*
X303340Y119150D01*
X282602Y89277D02*
X305709Y112384D01*
X303103Y112562D02*
Y113624D01*
X305709Y112384D02*
X305859D01*
X303103Y113624D02*
X304889Y115410D01*
X263189Y77937D02*
X299363Y114111D01*
Y115173D01*
X280634Y87611D02*
Y90092D01*
X273272Y126506D02*
Y128094D01*
X267881Y121115D02*
X273272Y126506D01*
Y128094D02*
X273524Y128347D01*
X99213Y103445D02*
X244725D01*
X242320Y105413D02*
X272733Y135827D01*
X244725Y103445D02*
X272382Y131102D01*
X176736Y105413D02*
X242320D01*
X238189Y107382D02*
X259646Y128839D01*
X235138Y109350D02*
X258366Y132579D01*
X178366Y109350D02*
X235138D01*
X177551Y107382D02*
X238189D01*
X261453Y96802D02*
X262190Y97539D01*
X277224D02*
X294143Y114458D01*
X261501Y92913D02*
X264159Y95571D01*
X262190Y97539D02*
X277224D01*
X273221Y99508D02*
X291387Y117674D01*
X67900Y81010D02*
Y91200D01*
X73900Y110600D02*
X77500Y107000D01*
X72165Y77835D02*
Y105626D01*
X68900Y74800D02*
X79257D01*
X59821Y83879D02*
X68900Y74800D01*
X59821Y83879D02*
Y84200D01*
X87992Y99213D02*
X88287Y99508D01*
X96844Y105813D02*
X99213Y103445D01*
X92421Y102953D02*
X96921D01*
X98397Y101476D01*
X204056Y210609D02*
X258963Y155703D01*
X365354Y358268D02*
Y364846D01*
X354216Y375984D02*
X365354Y364846D01*
Y357689D02*
Y358268D01*
X377362Y358000D02*
X381100Y354262D01*
X338484Y375984D02*
X354216D01*
X381100Y326600D02*
Y341100D01*
Y354262D01*
X373378Y348822D02*
X381100Y341100D01*
X373378Y348822D02*
Y350244D01*
X365354Y358268D02*
X373378Y350244D01*
X286600Y334658D02*
X286711Y334547D01*
X286600Y334658D02*
Y344700D01*
X283200Y348100D02*
X286600Y344700D01*
X287130Y261466D02*
X287177Y261419D01*
X286262Y244980D02*
X286954Y245672D01*
X285236Y263542D02*
Y265945D01*
Y263542D02*
X287130Y261466D01*
X286256Y244980D02*
X286262D01*
X282189Y244973D02*
X286249D01*
X286256Y244980D01*
X272693D02*
X282182D01*
X282189Y244973D01*
X198500Y317256D02*
X208856Y306900D01*
X253445Y264229D02*
Y265945D01*
Y264229D02*
X272693Y244980D01*
X243354Y234130D02*
Y241052D01*
X236676Y247730D02*
X243354Y241052D01*
X241557Y232333D02*
X243354Y234130D01*
X238971Y218110D02*
X241726Y220866D01*
X240682Y232333D02*
X241557D01*
X236986Y232441D02*
X240573D01*
X240682Y232333D01*
X238780Y218110D02*
X238971D01*
X236910Y216240D02*
X238780Y218110D01*
X226290Y306900D02*
X226476Y307087D01*
X208856Y306900D02*
X226290D01*
X220177Y264229D02*
X236676Y247730D01*
X220177Y264229D02*
Y265945D01*
X219587Y241378D02*
X219754Y232208D01*
Y231230D02*
Y232208D01*
X217699Y242185D02*
X218779D01*
X214254Y245630D02*
X217699Y242185D01*
X218779D02*
X219587Y241378D01*
X217379Y228362D02*
X219754Y231230D01*
X215256Y226138D02*
X225154Y216240D01*
X202025Y247078D02*
X203473Y245630D01*
X201599Y247078D02*
X202025D01*
X203473Y245630D02*
X214254D01*
X217039Y228022D02*
X217379Y228362D01*
X215256Y227854D02*
X217039Y228022D01*
X215256Y226138D02*
Y227854D01*
X314764Y210630D02*
X328194Y197200D01*
X334900D01*
X306800Y84269D02*
X312000Y89469D01*
X340748Y36552D02*
X349300Y28000D01*
X306800Y78000D02*
Y84269D01*
X124606Y266634D02*
X185000D01*
X238780Y228110D02*
X265490D01*
X283200Y210400D01*
X284548Y163380D02*
X284609Y163324D01*
X295275Y152657D01*
X43500Y13899D02*
X45651Y11748D01*
X46937Y51000D02*
X47106Y50832D01*
X32700Y51000D02*
X46937D01*
X50000Y50918D02*
Y60276D01*
X50538Y49954D02*
Y50380D01*
X50000Y50918D02*
X50538Y50380D01*
X61122Y49218D02*
Y79001D01*
X58265Y46361D02*
X61122Y49218D01*
X295300Y157000D02*
Y158100D01*
X340295Y340650D02*
X341850D01*
X324114Y259307D02*
Y324468D01*
X340295Y340650D01*
X309844Y245037D02*
X324114Y259307D01*
X310728Y204675D02*
X310728Y203697D01*
X311244Y200935D01*
X310728Y204675D02*
Y207566D01*
X309744Y208551D02*
Y234837D01*
X309844Y245037D01*
X309744Y208551D02*
X310728Y207566D01*
X275401Y122933D02*
X275704D01*
X278892Y120498D02*
X279194Y120799D01*
Y123640D02*
X300025Y144470D01*
X285877Y119299D02*
X286178Y119601D01*
X279194Y120799D02*
Y123640D01*
X282382Y119882D02*
Y122638D01*
X286178Y119601D02*
Y125056D01*
X288633Y119490D02*
X290575Y121432D01*
X272382Y131102D02*
X278278D01*
X278294Y131087D01*
X307776Y236507D02*
Y251969D01*
X307972Y252165D01*
X307776Y207735D02*
Y236507D01*
X252066Y341263D02*
Y343726D01*
X251765Y344027D02*
X252066Y343726D01*
X241740Y341732D02*
X247618D01*
X241642Y341634D02*
X241740Y341732D01*
X339112Y350122D02*
X346740Y342494D01*
X330070Y358051D02*
X337999Y350122D01*
X346740Y333886D02*
Y342494D01*
X337999Y350122D02*
X339112D01*
X347311Y327067D02*
Y333315D01*
X346740Y333886D02*
X347311Y333315D01*
X347205Y321063D02*
X356890Y330748D01*
Y342618D01*
X48565Y84878D02*
Y95120D01*
X46085Y82398D02*
X48565Y84878D01*
X321358Y314173D02*
X321457Y314272D01*
Y324595D01*
X332011Y335149D01*
X329921Y323510D02*
X335714Y317717D01*
X329665Y336819D02*
X331319D01*
X332011Y336127D01*
Y335149D02*
Y336127D01*
X335714Y317717D02*
X358957D01*
X323700Y342784D02*
X329665Y336819D01*
X323700Y342784D02*
Y346200D01*
X331496Y138878D02*
Y173847D01*
X173665Y111268D02*
X177551Y107382D01*
X90599Y111268D02*
X173665D01*
X84252Y104921D02*
X90599Y111268D01*
X296161Y223309D02*
Y241505D01*
Y223309D02*
X296311Y223159D01*
X296161Y241505D02*
X296162Y241505D01*
X308760Y202511D02*
Y206751D01*
X308668Y202364D02*
X308760Y202511D01*
X307776Y207735D02*
X308760Y206751D01*
X308488Y202077D02*
X308668Y202364D01*
X308488Y200608D02*
Y202077D01*
X279586Y253015D02*
X282339Y250261D01*
X283858Y249016D01*
X290575Y121432D02*
Y121858D01*
X353642Y143275D02*
Y143701D01*
X352658Y117208D02*
Y142290D01*
X353642Y143275D01*
X300025Y144470D02*
Y169217D01*
X338664Y190731D02*
X350630Y202697D01*
X317093Y173849D02*
X321093D01*
X338664Y190731D01*
X354587Y204657D02*
Y219162D01*
X363681Y228256D01*
X352626Y202697D02*
X354587Y204657D01*
X350630Y202697D02*
X352626D01*
X363681Y228256D02*
Y325787D01*
X263189Y75413D02*
Y77937D01*
X259291Y71516D02*
X263189Y75413D01*
X273130Y79724D02*
Y80107D01*
X280634Y87611D01*
X295762Y124508D02*
X295854Y124416D01*
X50135Y96690D02*
X52104D01*
X52165Y96752D01*
X48565Y95120D02*
X50135Y96690D01*
X282480Y124142D02*
X302461Y144122D01*
X282480Y122736D02*
Y124142D01*
X282382Y122638D02*
X282480Y122736D01*
X253445Y273819D02*
X265300Y261964D01*
X291387Y117674D02*
X291387D01*
X193331Y254847D02*
X220177Y281693D01*
X193331Y124385D02*
X199489Y118227D01*
Y117912D02*
Y118227D01*
X276570Y78081D02*
X276651Y78000D01*
X282626D02*
X284744Y80118D01*
Y85039D01*
X276651Y78000D02*
X282626D01*
X193331Y124385D02*
Y254847D01*
X315737Y177205D02*
X320552D01*
X348012Y204665D02*
X351811D01*
X320552Y177205D02*
X348012Y204665D01*
X287729Y139067D02*
X294322Y145660D01*
X294533D01*
X314337Y175806D02*
X315737Y177205D01*
X287518Y139067D02*
X287729D01*
X352618Y205473D02*
Y307481D01*
X351811Y204665D02*
X352618Y205473D01*
X357480Y323090D02*
Y325061D01*
X357812Y327319D02*
X358113Y327621D01*
X357480Y325061D02*
X357812Y325393D01*
Y327319D01*
X357480Y323090D02*
X361713Y318858D01*
X352618Y307481D02*
X361713Y316575D01*
Y318858D01*
X286178Y125056D02*
X304732Y143610D01*
X345866Y124606D02*
Y147343D01*
X346161Y147638D01*
X337421Y116161D02*
X345866Y124606D01*
X290118Y72342D02*
X291043D01*
X269291Y51516D02*
X290118Y72342D01*
X293006Y123325D02*
X294143Y122188D01*
X293006Y123325D02*
Y126415D01*
X294143Y114458D02*
Y122188D01*
X293006Y126415D02*
X294052Y127461D01*
X301997D01*
X58009Y40809D02*
X58071Y40748D01*
X204056Y210609D02*
Y215343D01*
X282513Y159173D02*
X284679Y155982D01*
X373563Y55929D02*
Y61575D01*
X365551Y69587D02*
X373563Y61575D01*
X335120Y182794D02*
X335335Y182579D01*
Y136836D02*
Y182579D01*
X337402Y134449D02*
Y134769D01*
X335335Y136836D02*
X337402Y134769D01*
X293406Y240363D02*
X293456Y223230D01*
X57065Y83059D02*
X61122Y79001D01*
Y90064D02*
Y109472D01*
X57065Y83059D02*
Y86007D01*
X61122Y90064D01*
X174480Y113237D02*
X178366Y109350D01*
X119232Y113878D02*
X119874Y113237D01*
X65528Y113878D02*
X119232D01*
X119874Y113237D02*
X174480D01*
X61122Y109472D02*
X65528Y113878D01*
X173637Y108512D02*
X176736Y105413D01*
X142618Y108512D02*
X173637D01*
X351771Y155472D02*
Y199941D01*
X348917Y152618D02*
X351771Y155472D01*
X348917Y123622D02*
Y152618D01*
X339488Y114193D02*
X348917Y123622D01*
X215143Y271831D02*
X218189D01*
X195300Y251988D02*
X215143Y271831D01*
X195300Y131964D02*
X202756Y124508D01*
X195300Y131964D02*
Y251988D01*
X282602Y86795D02*
Y89277D01*
X282579Y84488D02*
X282602Y84465D01*
X282579Y86772D02*
X282602Y86795D01*
Y83980D02*
Y84465D01*
X279504Y80882D02*
X282602Y83980D01*
X282579Y84488D02*
Y86772D01*
X218189Y271831D02*
X220177Y273819D01*
X333071Y73554D02*
X333956Y74440D01*
Y87231D01*
X333071Y49961D02*
Y73554D01*
X305610Y94882D02*
X333264D01*
X301969Y91240D02*
X305610Y94882D01*
X57096Y52757D02*
X57905Y51949D01*
Y51523D02*
Y51949D01*
X57096Y52757D02*
Y80243D01*
X55097Y82243D02*
Y88584D01*
X57101Y90588D02*
X57437Y90925D01*
X55097Y82243D02*
X57096Y80243D01*
X57447Y91400D02*
X57905Y114272D01*
X57437Y90925D02*
X57447Y91400D01*
X55097Y88584D02*
X57101Y90588D01*
X349300Y363000D02*
Y368800D01*
X316339Y59606D02*
Y70274D01*
X331595Y85530D01*
Y88767D01*
X308549Y50936D02*
Y59055D01*
X18189Y305806D02*
X19359Y304636D01*
Y298718D02*
Y304636D01*
X20079Y29721D02*
X44075Y5725D01*
X17300Y27800D02*
X41343Y3757D01*
X43500Y13899D02*
Y28000D01*
X368061Y87923D02*
Y316877D01*
X367962Y87751D02*
X368061Y87923D01*
X367962Y86812D02*
X368061Y86712D01*
Y316877D02*
X368602Y317717D01*
X368061Y79970D02*
Y86712D01*
X367962Y86812D02*
Y87751D01*
X351378Y63287D02*
X368061Y79970D01*
X246598Y67598D02*
X247500Y68500D01*
X193602Y67598D02*
X246598D01*
X36200Y35300D02*
X43500Y28000D01*
X29900Y35300D02*
X36200D01*
X308639Y48563D02*
Y50846D01*
X308549Y48474D02*
X308639Y48563D01*
X308549Y40507D02*
Y48474D01*
Y50936D02*
X308639Y50846D01*
X23700Y38400D02*
X34200D01*
X17300Y32000D02*
X23700Y38400D01*
X17300Y27800D02*
Y32000D01*
X11700Y96456D02*
X13209D01*
X11700Y72000D02*
X32700Y51000D01*
X57791Y363681D02*
X85458D01*
X96358Y374581D01*
Y380413D01*
X359055Y214862D02*
X359252Y215059D01*
X316339Y49764D02*
Y55709D01*
X310236Y61811D02*
X316339Y55709D01*
X307106Y61811D02*
X310236D01*
X299508Y54213D02*
X307106Y61811D01*
X299508Y48662D02*
Y54213D01*
X88092Y18484D02*
Y21787D01*
X15748Y201850D02*
X25000D01*
X39154Y187697D01*
X66669Y111122D02*
X72165Y105626D01*
X368750Y338730D02*
X376673D01*
X305904Y371479D02*
Y375413D01*
Y371479D02*
X330807Y346576D01*
Y339575D02*
Y346576D01*
X191850Y15748D02*
Y17498D01*
X208354Y34002D01*
X288529D01*
X304232Y49705D01*
X305883D01*
X359252Y139862D02*
Y215059D01*
X201850Y376203D02*
Y377953D01*
X236260Y51516D02*
X259291D01*
X296850Y28809D02*
X308549Y40507D01*
X296850Y13484D02*
Y28809D01*
D83*
X343471Y20900D02*
X354700D01*
X306386Y17609D02*
X340180D01*
X343471Y20900D01*
X341339Y84547D02*
X351673Y94882D01*
Y98976D01*
X341339Y64461D02*
Y84547D01*
X350059Y100591D02*
X351673Y98976D01*
X330217Y100591D02*
X350059D01*
X326575Y104232D02*
X330217Y100591D01*
X341339Y64461D02*
X344587Y61213D01*
Y40313D02*
X348778Y36122D01*
X344587Y40313D02*
Y61213D01*
X348778Y36122D02*
X369922D01*
X383661Y49861D01*
X354700Y20900D02*
X369922Y36122D01*
X260248Y21752D02*
X277866Y4134D01*
X253070Y21752D02*
X260248D01*
X205829Y22244D02*
X252578D01*
X253070Y21752D01*
X201850Y15748D02*
Y18266D01*
X205829Y22244D01*
X96587Y39500D02*
X107834D01*
X109449Y41114D01*
Y52500D01*
X134547Y77598D01*
X183602D01*
X80315Y14370D02*
X84842Y9843D01*
X80315Y14370D02*
Y23228D01*
X84842Y9843D02*
X92526D01*
X80315Y23228D02*
X96587Y39500D01*
X80543D02*
X96587D01*
X201134Y10768D02*
Y15032D01*
X96752Y12639D02*
Y13484D01*
X201134Y15032D02*
X201850Y15748D01*
X198949Y8583D02*
X201134Y10768D01*
X100808Y8583D02*
X198949D01*
X96752Y12639D02*
X100808Y8583D01*
X191706Y379956D02*
X202006Y390256D01*
X287987D02*
X297830Y380413D01*
X202006Y390256D02*
X287987D01*
X98223Y390109D02*
X181445D01*
X191013Y380540D01*
X190904Y380431D02*
X191013Y380540D01*
X190904Y379956D02*
X191706D01*
X305511Y29911D02*
X311220Y35620D01*
X240695Y297736D02*
X245118D01*
X249941Y302559D02*
X271496D01*
X245118Y297736D02*
X249941Y302559D01*
X253515Y289567D02*
X257452Y293504D01*
X280551D01*
X253445Y289567D02*
X253515D01*
X77264Y36220D02*
X80543Y39500D01*
X271496Y302559D02*
X280551Y293504D01*
X363563Y51600D02*
X383391D01*
X240256Y298175D02*
X240695Y297736D01*
X237697Y300734D02*
Y320397D01*
Y300734D02*
X240256Y298175D01*
Y294106D02*
Y298175D01*
X237697Y320397D02*
X239400Y322100D01*
X188804Y82800D02*
X257985D01*
X268000Y92815D01*
X220177Y289567D02*
X235717D01*
X87894Y240551D02*
X88098D01*
X133177Y285630D01*
X199670Y252461D02*
X217462D01*
X198056Y134219D02*
Y250846D01*
X217462Y252461D02*
X231813Y238110D01*
X198056Y250846D02*
X199670Y252461D01*
X133177Y285630D02*
X188961D01*
X190576Y284015D01*
Y121815D02*
Y284015D01*
X200957Y114368D02*
X206299Y119711D01*
Y125976D01*
X231813Y238110D02*
X238780D01*
X198056Y134219D02*
X206299Y125976D01*
X198022Y114368D02*
X200957D01*
X190576Y121815D02*
X198022Y114368D01*
X34841Y87795D02*
X46300Y76337D01*
X45781Y62159D02*
X46300Y62678D01*
X45781Y61000D02*
Y62159D01*
X46300Y62678D02*
Y76337D01*
X363037Y344837D02*
X364103Y343771D01*
X359209Y348664D02*
X363037Y344837D01*
X355948Y348664D02*
X359209D01*
X350625Y343342D02*
X355948Y348664D01*
X350625Y338375D02*
Y343342D01*
X364103Y343771D02*
X364725Y332300D01*
X328276Y362185D02*
X331782D01*
X325962Y359871D02*
X328276Y362185D01*
X325749Y359871D02*
X325962D01*
X325749D02*
Y360084D01*
X324225Y361608D02*
X325749Y360084D01*
X350087Y337836D02*
X350625Y338375D01*
X331782Y362185D02*
X350625Y343342D01*
X350087Y335272D02*
Y337836D01*
X374025Y307096D02*
X375413Y305707D01*
X364725Y332300D02*
X374025Y323000D01*
Y307096D02*
Y323000D01*
X301969Y384252D02*
X323228D01*
X301300Y383583D02*
X301969Y384252D01*
X323228D02*
X324225Y383255D01*
X297830Y380413D02*
X300999Y383583D01*
X301300D01*
X324225Y361608D02*
Y383255D01*
X281733Y292323D02*
X282480D01*
X280551Y293504D02*
X281733Y292323D01*
X282480D02*
X285236Y289567D01*
X380295Y95558D02*
Y96357D01*
Y95558D02*
X383661Y92192D01*
Y51870D02*
Y92192D01*
Y49861D02*
Y51870D01*
X383391Y51600D02*
X383661Y51870D01*
X305511Y18484D02*
Y29911D01*
Y18484D02*
X306386Y17609D01*
X305511Y10924D02*
Y18484D01*
X298721Y4134D02*
X305511Y10924D01*
X277866Y4134D02*
X298721D01*
X190376Y312971D02*
X213779Y289567D01*
X235717D02*
X240256Y294106D01*
X213779Y289567D02*
X220177D01*
X191850Y377953D02*
Y379009D01*
X190904Y379956D02*
X191850Y379009D01*
X190376Y376478D02*
X191850Y377953D01*
X190376Y347833D02*
X191850Y346358D01*
X190376Y344883D02*
X191850Y346358D01*
X190376Y347833D02*
Y376478D01*
Y312971D02*
Y344883D01*
X90004Y389961D02*
X98223Y390109D01*
X87698Y387655D02*
X90004Y389961D01*
X87698Y375414D02*
Y387655D01*
X17500Y183400D02*
Y190206D01*
Y183400D02*
X24000Y176900D01*
X8606Y297146D02*
X13189D01*
X6300Y196000D02*
Y294839D01*
X8606Y297146D01*
X6300Y196000D02*
X10449Y191850D01*
X15748D02*
X15856Y191850D01*
X17500Y190206D01*
X10449Y191850D02*
X15748Y191850D01*
Y191850D01*
X198187Y41516D02*
X259291D01*
X183602Y77598D02*
X188804Y82800D01*
X183602Y56100D02*
X198187Y41516D01*
X183602Y56100D02*
Y77598D01*
X90945Y159055D02*
X96752Y153248D01*
X73100Y176900D02*
X90945Y159055D01*
X96752Y153248D02*
X102067Y153248D01*
X34300Y124000D02*
X69355Y159055D01*
X24000Y176900D02*
X73100D01*
X69355Y159055D02*
X90945D01*
X34300Y92000D02*
Y124000D01*
X30095Y87795D02*
X34300Y92000D01*
X18209Y87795D02*
X30095D01*
X34841D01*
X96167Y13484D02*
X96752D01*
X92526Y9843D02*
X96167Y13484D01*
D85*
X107776Y150883D02*
Y169311D01*
X248031Y308071D02*
Y308465D01*
X242815Y302854D02*
X248031Y308071D01*
Y308465D02*
X272818D01*
X96654Y180433D02*
X107776Y169311D01*
X272818Y308465D02*
X276627Y304656D01*
X240650Y354626D02*
Y379767D01*
X276627Y304656D02*
X276870D01*
X230610Y300984D02*
Y324047D01*
Y300984D02*
X235531Y296063D01*
X268778Y282746D02*
X273814Y271109D01*
X274030Y270352D01*
X285236Y317942D02*
Y324842D01*
Y317942D02*
X285371Y317807D01*
X272055Y338024D02*
X285236Y324842D01*
X266634Y338024D02*
X272055D01*
X104432Y147539D02*
X107776Y150883D01*
X88091Y147539D02*
X104432D01*
X82382Y153248D02*
X88091Y147539D01*
X341142Y181299D02*
Y184547D01*
X348425Y191831D01*
X221850Y332807D02*
X230610Y324047D01*
X274030Y270352D02*
X285236Y258071D01*
X240700Y268900D02*
Y284696D01*
X253445Y297441D01*
D89*
X259291Y51516D02*
D03*
X269291D02*
D03*
X259291Y61516D02*
D03*
X269291Y41516D02*
D03*
Y61516D02*
D03*
X259291Y41516D02*
D03*
X269291Y71516D02*
D03*
X238780Y238110D02*
D03*
Y228110D02*
D03*
Y218110D02*
D03*
X215256Y227854D02*
D03*
Y217854D02*
D03*
Y207854D02*
D03*
D90*
X259291Y71516D02*
D03*
X238780Y208110D02*
D03*
X215256Y237854D02*
D03*
D91*
X66831Y330512D02*
D03*
X91831D02*
D03*
D92*
X96654Y180433D02*
D03*
X160728Y302343D02*
D03*
Y249232D02*
D03*
X96654Y233543D02*
D03*
D93*
X375413Y305707D02*
D03*
X18209Y87795D02*
D03*
D94*
X377953Y201850D02*
D03*
X15748Y191850D02*
D03*
D95*
X297244Y380413D02*
D03*
X96752Y13484D02*
D03*
D96*
X380295Y96357D02*
D03*
X13189Y297146D02*
D03*
D97*
X305511Y18484D02*
D03*
X87698Y375413D02*
D03*
D98*
X191850Y377953D02*
D03*
X201850Y15748D02*
D03*
D99*
X150295Y337598D02*
D03*
X48158Y158967D02*
D03*
X335335Y295177D02*
D03*
D100*
X18189Y305806D02*
D03*
X375295Y87697D02*
D03*
D101*
X374713Y381784D02*
D03*
X381980Y18890D02*
D03*
X377052Y250302D02*
D03*
X379542Y153058D02*
D03*
X240734Y379852D02*
D03*
X143392Y377136D02*
D03*
X11720Y374909D02*
D03*
X250295Y16732D02*
D03*
X153051Y14173D02*
D03*
X16550Y143202D02*
D03*
X18799Y11811D02*
D03*
X13765Y240643D02*
D03*
X374909Y11819D02*
D03*
X376954Y143399D02*
D03*
X379641Y240643D02*
D03*
X143392Y16761D02*
D03*
X240636Y14144D02*
D03*
X11728Y18882D02*
D03*
X381784Y374713D02*
D03*
X250394Y377264D02*
D03*
X153051Y379724D02*
D03*
X18791Y381980D02*
D03*
X16353Y250302D02*
D03*
X13962Y152861D02*
D03*
D102*
X348189Y229094D02*
D03*
Y219094D02*
D03*
D103*
X201850Y377953D02*
D03*
X191850Y15748D02*
D03*
D104*
X380413Y297047D02*
D03*
X13209Y96456D02*
D03*
D105*
X305904Y375413D02*
D03*
X88092Y18484D02*
D03*
D106*
X377953Y191850D02*
D03*
X15748Y201850D02*
D03*
D107*
X296850Y13484D02*
D03*
X96358Y380413D02*
D03*
D108*
X348189Y209094D02*
D03*
D109*
X81831Y350512D02*
D03*
D110*
X339445Y22169D02*
D03*
X319783Y25689D02*
D03*
X345965Y96260D02*
D03*
X51937Y90158D02*
D03*
X32431Y359990D02*
D03*
X109449Y52500D02*
D03*
X359055Y124606D02*
D03*
X67600Y24700D02*
D03*
X48622Y359843D02*
D03*
X359252Y215059D02*
D03*
Y139862D02*
D03*
X50394Y15059D02*
D03*
X150295Y359843D02*
D03*
D111*
X317323Y33661D02*
D03*
X333071D02*
D03*
X174437Y334716D02*
D03*
X171890Y238386D02*
D03*
Y254134D02*
D03*
Y269882D02*
D03*
Y301378D02*
D03*
Y317126D02*
D03*
X171653Y309252D02*
D03*
Y325000D02*
D03*
Y246260D02*
D03*
Y293504D02*
D03*
Y262008D02*
D03*
Y277756D02*
D03*
X183583Y206890D02*
D03*
Y222638D02*
D03*
X203349Y198816D02*
D03*
X202854Y230512D02*
D03*
X356988Y96987D02*
D03*
X356693Y31890D02*
D03*
X211024Y27854D02*
D03*
X218898D02*
D03*
X226772D02*
D03*
X207087Y17913D02*
D03*
X214961D02*
D03*
X222835D02*
D03*
X144094Y65158D02*
D03*
X140157Y57284D02*
D03*
X136220Y82776D02*
D03*
X151968D02*
D03*
X167717D02*
D03*
X277953Y364272D02*
D03*
X285827D02*
D03*
X293701D02*
D03*
X301575D02*
D03*
X14173Y120276D02*
D03*
X22047Y104528D02*
D03*
X270079Y191142D02*
D03*
X277953Y206890D02*
D03*
X337008Y104626D02*
D03*
X14936Y134837D02*
D03*
X10236Y143898D02*
D03*
X77165Y88779D02*
D03*
X89193Y96089D02*
D03*
X10236Y112402D02*
D03*
X246457Y364370D02*
D03*
X211703Y340952D02*
D03*
X380315Y380118D02*
D03*
X348819D02*
D03*
X340945D02*
D03*
X344882Y356496D02*
D03*
X372441Y348622D02*
D03*
X333071Y380118D02*
D03*
X305512Y356496D02*
D03*
X301575Y348622D02*
D03*
X297638Y372244D02*
D03*
X289764D02*
D03*
X285827Y380118D02*
D03*
X281890Y372244D02*
D03*
X297638Y356496D02*
D03*
X289764D02*
D03*
X281890D02*
D03*
X384252Y309252D02*
D03*
X380315Y317126D02*
D03*
X372441Y285630D02*
D03*
X356693Y301378D02*
D03*
X360630Y293504D02*
D03*
X340945Y301378D02*
D03*
X337008Y309252D02*
D03*
X348819Y301378D02*
D03*
X356693Y285630D02*
D03*
X360630Y277756D02*
D03*
X340945Y285630D02*
D03*
X348819D02*
D03*
X384252Y277756D02*
D03*
X392126Y246260D02*
D03*
X388189Y254134D02*
D03*
X380315Y222638D02*
D03*
X372441Y269882D02*
D03*
X360630Y230512D02*
D03*
X372441Y222638D02*
D03*
X360630Y262008D02*
D03*
X356693Y269882D02*
D03*
X348819Y254134D02*
D03*
Y269882D02*
D03*
X340945D02*
D03*
Y254134D02*
D03*
X360630Y246260D02*
D03*
X356693Y254134D02*
D03*
Y238386D02*
D03*
X348819D02*
D03*
X337008Y230512D02*
D03*
X329134Y309252D02*
D03*
X317323Y285630D02*
D03*
X333071D02*
D03*
X317323Y301378D02*
D03*
X313386Y293504D02*
D03*
X337008Y277756D02*
D03*
X329134D02*
D03*
X333071Y269882D02*
D03*
X313386Y277756D02*
D03*
X309449Y269882D02*
D03*
X317323D02*
D03*
X293701Y317126D02*
D03*
X289764Y309252D02*
D03*
X329134Y262008D02*
D03*
X313386D02*
D03*
X337008D02*
D03*
Y246260D02*
D03*
X333071Y254134D02*
D03*
Y238386D02*
D03*
X321260Y230512D02*
D03*
Y246260D02*
D03*
X329134Y230512D02*
D03*
X277953Y380118D02*
D03*
X274016Y356496D02*
D03*
Y372244D02*
D03*
X270079Y380118D02*
D03*
Y364370D02*
D03*
Y332874D02*
D03*
X234646Y372244D02*
D03*
X262205Y364370D02*
D03*
X230709Y380118D02*
D03*
X226772Y372244D02*
D03*
X230709Y364370D02*
D03*
X262205Y317126D02*
D03*
X222835Y380118D02*
D03*
X218898Y372244D02*
D03*
X222835Y364370D02*
D03*
X211024Y372244D02*
D03*
X199213Y364370D02*
D03*
X207087D02*
D03*
X195275Y340748D02*
D03*
X203150Y325000D02*
D03*
X199213Y332874D02*
D03*
X195275Y325000D02*
D03*
X250394Y277756D02*
D03*
X246457Y269882D02*
D03*
X270079Y254134D02*
D03*
X250394Y262008D02*
D03*
X234646D02*
D03*
X242520D02*
D03*
X250394Y246260D02*
D03*
X242520D02*
D03*
X246457Y238386D02*
D03*
X234646Y246260D02*
D03*
X238583Y222638D02*
D03*
X230709D02*
D03*
X226772Y293504D02*
D03*
Y277756D02*
D03*
X222835Y254134D02*
D03*
Y269882D02*
D03*
X199213Y285630D02*
D03*
X195275Y293504D02*
D03*
Y277756D02*
D03*
X191339Y301378D02*
D03*
X187401Y309252D02*
D03*
Y293504D02*
D03*
X199213Y269882D02*
D03*
X195275Y262008D02*
D03*
X222835Y238386D02*
D03*
X226772Y230512D02*
D03*
X222835Y222638D02*
D03*
X384252Y183268D02*
D03*
Y214764D02*
D03*
Y167520D02*
D03*
X376378Y214764D02*
D03*
Y167520D02*
D03*
X392126Y151772D02*
D03*
X380315Y159646D02*
D03*
X384252Y136024D02*
D03*
X364567Y175394D02*
D03*
X372441Y159646D02*
D03*
X364567Y143898D02*
D03*
Y159646D02*
D03*
X352756Y151772D02*
D03*
X384252Y120276D02*
D03*
X376378D02*
D03*
X384252Y104528D02*
D03*
X380315Y112402D02*
D03*
X376378Y104528D02*
D03*
X364567Y112402D02*
D03*
Y128150D02*
D03*
X360630Y104528D02*
D03*
X337008Y214764D02*
D03*
X329134D02*
D03*
X321260D02*
D03*
X333071Y206890D02*
D03*
X321260Y199016D02*
D03*
X317323Y191142D02*
D03*
X344882Y167520D02*
D03*
X321260Y88779D02*
D03*
X380315Y80905D02*
D03*
Y65158D02*
D03*
X384252Y41535D02*
D03*
X360630Y57284D02*
D03*
X352756Y73032D02*
D03*
X392126Y10039D02*
D03*
X380315Y33661D02*
D03*
X388189Y2165D02*
D03*
X376378Y25787D02*
D03*
X368504D02*
D03*
X352756D02*
D03*
Y10039D02*
D03*
X309449Y80905D02*
D03*
X329134Y57284D02*
D03*
X325197Y49409D02*
D03*
X344882Y10039D02*
D03*
Y25787D02*
D03*
X329134D02*
D03*
Y10039D02*
D03*
X321260D02*
D03*
X337008D02*
D03*
X313386D02*
D03*
X262241Y191178D02*
D03*
X281890Y136024D02*
D03*
X254331Y143898D02*
D03*
X226772Y183268D02*
D03*
Y214764D02*
D03*
X218898Y183268D02*
D03*
X234646Y167520D02*
D03*
X230709Y175394D02*
D03*
X222835D02*
D03*
X214961D02*
D03*
Y159646D02*
D03*
Y191142D02*
D03*
X211024Y199016D02*
D03*
Y183268D02*
D03*
X207087Y191142D02*
D03*
X203150Y183268D02*
D03*
X207087Y175394D02*
D03*
X246457Y159646D02*
D03*
X238583Y143898D02*
D03*
X242520Y136024D02*
D03*
X234646Y151772D02*
D03*
X230709Y143898D02*
D03*
X234646Y136024D02*
D03*
X214961Y143898D02*
D03*
X211024Y151772D02*
D03*
X222835Y143898D02*
D03*
X203150Y151772D02*
D03*
X207087Y143898D02*
D03*
X218898Y136024D02*
D03*
X211024D02*
D03*
X226772D02*
D03*
X203150D02*
D03*
X285827Y17913D02*
D03*
X289764Y10039D02*
D03*
X277953Y17913D02*
D03*
X281890Y10039D02*
D03*
X254331Y65158D02*
D03*
X270079Y17913D02*
D03*
X266142Y10039D02*
D03*
X254331Y2165D02*
D03*
X230709Y128150D02*
D03*
X214961D02*
D03*
X234646Y57284D02*
D03*
Y73032D02*
D03*
X250394Y57284D02*
D03*
X218898Y73032D02*
D03*
X211024D02*
D03*
X218898Y57284D02*
D03*
X187401Y88779D02*
D03*
Y120276D02*
D03*
X195275Y88779D02*
D03*
X203150Y73032D02*
D03*
Y57284D02*
D03*
X195275Y73032D02*
D03*
X187401Y57284D02*
D03*
X222835Y49409D02*
D03*
X214961D02*
D03*
X218898Y10039D02*
D03*
X211024D02*
D03*
Y57284D02*
D03*
X207087Y49409D02*
D03*
X199213D02*
D03*
X187401Y41535D02*
D03*
X199213Y33661D02*
D03*
X195275Y25787D02*
D03*
X191339Y33661D02*
D03*
X187401Y25787D02*
D03*
X183465Y380118D02*
D03*
X179527Y372244D02*
D03*
X183465Y364370D02*
D03*
X175591Y380118D02*
D03*
X171653Y372244D02*
D03*
X167717Y364370D02*
D03*
X175591Y348622D02*
D03*
X171653Y340748D02*
D03*
Y356496D02*
D03*
X167717Y348622D02*
D03*
Y332874D02*
D03*
X159843Y364370D02*
D03*
X155905Y356496D02*
D03*
X163779D02*
D03*
X155905Y372244D02*
D03*
X148031D02*
D03*
X144094Y364370D02*
D03*
X163779Y340748D02*
D03*
X159843Y348622D02*
D03*
Y332874D02*
D03*
X151968Y348622D02*
D03*
X144094D02*
D03*
X140157Y340748D02*
D03*
X183465Y317126D02*
D03*
X167717Y301378D02*
D03*
X163779Y325000D02*
D03*
X155905D02*
D03*
X159843Y317126D02*
D03*
X148031Y325000D02*
D03*
X144094Y317126D02*
D03*
X151968D02*
D03*
X167717D02*
D03*
X155905Y309252D02*
D03*
X163779D02*
D03*
X140157D02*
D03*
X148031D02*
D03*
X136220Y380118D02*
D03*
X128346D02*
D03*
X124409Y372244D02*
D03*
X120472Y380118D02*
D03*
X116535Y372244D02*
D03*
X136220Y348622D02*
D03*
X132283Y372244D02*
D03*
Y340748D02*
D03*
X128346Y348622D02*
D03*
X120472Y364370D02*
D03*
X124409Y340748D02*
D03*
X108661Y372244D02*
D03*
X100787D02*
D03*
X96850Y364370D02*
D03*
X112598D02*
D03*
X104724D02*
D03*
Y348622D02*
D03*
X96850D02*
D03*
X100787Y340748D02*
D03*
X136220Y332874D02*
D03*
X132283Y325000D02*
D03*
X140157D02*
D03*
X128346Y332874D02*
D03*
X120472D02*
D03*
X124409Y325000D02*
D03*
X136220Y317126D02*
D03*
X128346D02*
D03*
X132283Y309252D02*
D03*
X120472Y317126D02*
D03*
X116535Y309252D02*
D03*
X124409D02*
D03*
X112598Y332874D02*
D03*
X108661Y325000D02*
D03*
X116535D02*
D03*
X100787D02*
D03*
X96850Y317126D02*
D03*
X112598D02*
D03*
X108661Y309252D02*
D03*
X104724Y301378D02*
D03*
Y317126D02*
D03*
X100787Y309252D02*
D03*
X183465Y301378D02*
D03*
X163779Y293504D02*
D03*
Y277756D02*
D03*
X167717Y269882D02*
D03*
X183465D02*
D03*
X155905Y293504D02*
D03*
X148031Y277756D02*
D03*
X155905D02*
D03*
X148031Y293504D02*
D03*
X140157D02*
D03*
Y277756D02*
D03*
X151968Y269882D02*
D03*
X144094D02*
D03*
X159843D02*
D03*
X136220D02*
D03*
X140157Y262008D02*
D03*
X183465Y254134D02*
D03*
X163779Y262008D02*
D03*
X167717Y254134D02*
D03*
X183465Y238386D02*
D03*
X167717D02*
D03*
X163779Y230512D02*
D03*
X171653D02*
D03*
X155905Y262008D02*
D03*
X151968Y238386D02*
D03*
X159843D02*
D03*
X148031Y262008D02*
D03*
X144094Y238386D02*
D03*
X140157Y230512D02*
D03*
X155905D02*
D03*
X148031D02*
D03*
X136220Y222638D02*
D03*
X128346Y301378D02*
D03*
X124409Y293504D02*
D03*
X132283Y277756D02*
D03*
X120472Y301378D02*
D03*
X116535Y293504D02*
D03*
X124409Y262008D02*
D03*
X132283D02*
D03*
X116535D02*
D03*
X112598Y254134D02*
D03*
Y301378D02*
D03*
X100787Y293504D02*
D03*
X108661D02*
D03*
X112598Y285630D02*
D03*
X104724D02*
D03*
X100787Y262008D02*
D03*
X96850Y285630D02*
D03*
Y254134D02*
D03*
X120472D02*
D03*
X136220Y238386D02*
D03*
X100787Y246260D02*
D03*
X108661D02*
D03*
X116535D02*
D03*
X112598Y238386D02*
D03*
X104724D02*
D03*
X96850Y222638D02*
D03*
X77165Y387992D02*
D03*
X73228Y380118D02*
D03*
X81102D02*
D03*
X69291Y387992D02*
D03*
X65354Y380118D02*
D03*
X77165Y372244D02*
D03*
X69291D02*
D03*
X92913Y340748D02*
D03*
X65354Y348622D02*
D03*
X61417Y387992D02*
D03*
X57480Y380118D02*
D03*
X53543Y387992D02*
D03*
X49606Y380118D02*
D03*
X61417Y372244D02*
D03*
X53543D02*
D03*
Y340748D02*
D03*
X49606Y364370D02*
D03*
X45669Y372244D02*
D03*
X49606Y348622D02*
D03*
X85039Y340748D02*
D03*
X77165D02*
D03*
X69291D02*
D03*
X81102Y332874D02*
D03*
X77165Y325000D02*
D03*
X73228Y317126D02*
D03*
X61417Y340748D02*
D03*
X49606Y332874D02*
D03*
X45669Y325000D02*
D03*
X65354Y317126D02*
D03*
X53543Y325000D02*
D03*
X49606Y317126D02*
D03*
X37795Y387992D02*
D03*
X22047D02*
D03*
X29921D02*
D03*
X45669D02*
D03*
X41732Y380118D02*
D03*
X29921Y372244D02*
D03*
X22047D02*
D03*
X25984Y364370D02*
D03*
X14173Y387992D02*
D03*
X6299D02*
D03*
X10236Y364370D02*
D03*
X18110D02*
D03*
X2362Y380118D02*
D03*
X10236D02*
D03*
X41732Y348622D02*
D03*
X37795Y340748D02*
D03*
X45669D02*
D03*
X33858Y364370D02*
D03*
X25984Y348622D02*
D03*
X41732Y332874D02*
D03*
X37795Y325000D02*
D03*
X41732Y317126D02*
D03*
X25984Y332874D02*
D03*
X22047Y356496D02*
D03*
X18110Y348622D02*
D03*
X22047Y340748D02*
D03*
X14173Y356496D02*
D03*
X10236Y348622D02*
D03*
X14173Y340748D02*
D03*
X18110Y332874D02*
D03*
X14173Y325000D02*
D03*
X22047D02*
D03*
X10236Y332874D02*
D03*
Y317126D02*
D03*
X92913Y293504D02*
D03*
Y309252D02*
D03*
X88976Y285630D02*
D03*
X85039Y293504D02*
D03*
Y309252D02*
D03*
X81102Y285630D02*
D03*
X85039Y277756D02*
D03*
X77165D02*
D03*
Y293504D02*
D03*
X61417Y309252D02*
D03*
Y293504D02*
D03*
X69291Y277756D02*
D03*
X73228Y269882D02*
D03*
X61417Y277756D02*
D03*
X88976Y269882D02*
D03*
X85039Y262008D02*
D03*
X92913D02*
D03*
X81102Y269882D02*
D03*
X85039Y230512D02*
D03*
X77165D02*
D03*
X65354Y254134D02*
D03*
Y269882D02*
D03*
X61417Y246260D02*
D03*
Y262008D02*
D03*
X53543D02*
D03*
Y246260D02*
D03*
X69291Y230512D02*
D03*
X65354Y222638D02*
D03*
X73228D02*
D03*
X53543Y230512D02*
D03*
X61417D02*
D03*
X53543Y309252D02*
D03*
X49606Y301378D02*
D03*
X53543Y293504D02*
D03*
X45669Y309252D02*
D03*
X41732Y301378D02*
D03*
X45669Y293504D02*
D03*
X53543Y277756D02*
D03*
X49606Y285630D02*
D03*
Y269882D02*
D03*
X45669Y277756D02*
D03*
X41732Y285630D02*
D03*
Y269882D02*
D03*
X37795Y309252D02*
D03*
X25984Y301378D02*
D03*
X37795Y293504D02*
D03*
X25984Y285630D02*
D03*
X22047Y277756D02*
D03*
X18110Y285630D02*
D03*
X14173Y277756D02*
D03*
X49606Y254134D02*
D03*
X45669Y262008D02*
D03*
Y246260D02*
D03*
X41732Y254134D02*
D03*
X29921Y262008D02*
D03*
X25984Y238386D02*
D03*
X49606D02*
D03*
X45669Y230512D02*
D03*
X49606Y222638D02*
D03*
X41732Y238386D02*
D03*
X25984Y222638D02*
D03*
X41732D02*
D03*
X25984Y254134D02*
D03*
X22047Y246260D02*
D03*
Y230512D02*
D03*
X14173D02*
D03*
X18110Y222638D02*
D03*
X163779Y199016D02*
D03*
X171653D02*
D03*
X183465Y191142D02*
D03*
X167717D02*
D03*
X179527Y183268D02*
D03*
X159843Y191142D02*
D03*
X163779Y183268D02*
D03*
X155905Y199016D02*
D03*
X148031D02*
D03*
X140157Y214764D02*
D03*
X144094Y191142D02*
D03*
X155905Y183268D02*
D03*
X151968Y191142D02*
D03*
X132283Y183268D02*
D03*
X148031D02*
D03*
X183465Y175394D02*
D03*
X179527Y167520D02*
D03*
X175591Y159646D02*
D03*
X167717Y175394D02*
D03*
X159843D02*
D03*
X175591D02*
D03*
X183465Y159646D02*
D03*
X179527Y151772D02*
D03*
X183465Y143898D02*
D03*
X159843D02*
D03*
X155905Y151772D02*
D03*
X175591Y143898D02*
D03*
X151968Y175394D02*
D03*
X148031Y167520D02*
D03*
X155905D02*
D03*
X144094Y175394D02*
D03*
X132283Y167520D02*
D03*
X144094Y159646D02*
D03*
X151968D02*
D03*
X148031Y151772D02*
D03*
X151968Y143898D02*
D03*
X132283Y151772D02*
D03*
X144094Y143898D02*
D03*
X132283Y214764D02*
D03*
Y199016D02*
D03*
X124409D02*
D03*
X128346Y191142D02*
D03*
X116535Y199016D02*
D03*
X112598Y191142D02*
D03*
X120472D02*
D03*
X108661Y214764D02*
D03*
X104724Y206890D02*
D03*
X100787Y214764D02*
D03*
X96850Y206890D02*
D03*
X108661Y199016D02*
D03*
X100787D02*
D03*
X96850Y191142D02*
D03*
X124409Y183268D02*
D03*
X120472Y175394D02*
D03*
X128346D02*
D03*
X116535Y183268D02*
D03*
X108661D02*
D03*
X112598Y175394D02*
D03*
X120472Y143898D02*
D03*
X116535Y151772D02*
D03*
X128346Y143898D02*
D03*
X116535Y167520D02*
D03*
X108661D02*
D03*
X104724Y175394D02*
D03*
Y191142D02*
D03*
Y143898D02*
D03*
X96850D02*
D03*
X183465Y128150D02*
D03*
X179527Y136024D02*
D03*
Y120276D02*
D03*
X175591Y128150D02*
D03*
X171653Y136024D02*
D03*
Y120276D02*
D03*
X179527Y73032D02*
D03*
Y88779D02*
D03*
X175591Y65158D02*
D03*
X171653Y73032D02*
D03*
X167717Y65158D02*
D03*
Y128150D02*
D03*
X151968D02*
D03*
X163779Y120276D02*
D03*
X148031D02*
D03*
X144094Y128150D02*
D03*
X151968Y65158D02*
D03*
X148031Y57284D02*
D03*
X183465Y49409D02*
D03*
X179527Y41535D02*
D03*
Y57284D02*
D03*
X175591Y49409D02*
D03*
X171653Y41535D02*
D03*
X179527Y25787D02*
D03*
X175591Y33661D02*
D03*
X171653Y25787D02*
D03*
X151968Y49409D02*
D03*
X144094D02*
D03*
X148031Y41535D02*
D03*
X167717Y33661D02*
D03*
X163779Y25787D02*
D03*
X167717Y17913D02*
D03*
X148031Y25787D02*
D03*
X159843Y17913D02*
D03*
X136220Y128150D02*
D03*
X132283Y120276D02*
D03*
X140157D02*
D03*
X128346Y128150D02*
D03*
X116535Y136024D02*
D03*
X124409Y120276D02*
D03*
X104724Y128150D02*
D03*
X100787Y136024D02*
D03*
X96850Y128150D02*
D03*
Y96654D02*
D03*
X140157Y25787D02*
D03*
X136220Y49409D02*
D03*
X132283Y41535D02*
D03*
Y25787D02*
D03*
X96850Y80905D02*
D03*
Y65158D02*
D03*
X124409Y25787D02*
D03*
X112598Y17913D02*
D03*
X120472D02*
D03*
X104724Y33661D02*
D03*
Y17913D02*
D03*
X92913Y199016D02*
D03*
Y214764D02*
D03*
X77165D02*
D03*
X73228Y206890D02*
D03*
X77165Y199016D02*
D03*
Y183268D02*
D03*
X73228Y191142D02*
D03*
X77165Y151772D02*
D03*
X69291Y199016D02*
D03*
Y214764D02*
D03*
X65354Y191142D02*
D03*
Y206890D02*
D03*
X61417Y214764D02*
D03*
Y199016D02*
D03*
X69291Y183268D02*
D03*
X61417Y167520D02*
D03*
X69291D02*
D03*
X53543Y183268D02*
D03*
X61417D02*
D03*
X88976Y143898D02*
D03*
X85039Y136024D02*
D03*
X81102Y143898D02*
D03*
X92913Y136024D02*
D03*
X88976Y128150D02*
D03*
X81102D02*
D03*
X73228Y143898D02*
D03*
X69291Y136024D02*
D03*
X77165D02*
D03*
X69291Y151772D02*
D03*
X65354Y143898D02*
D03*
X61417Y136024D02*
D03*
X73228Y128150D02*
D03*
X69291Y120276D02*
D03*
X77165D02*
D03*
X65354Y128150D02*
D03*
X61417Y120276D02*
D03*
X53543Y214764D02*
D03*
X49606Y206890D02*
D03*
X45669Y199016D02*
D03*
Y214764D02*
D03*
X25984Y206890D02*
D03*
X41732D02*
D03*
X53543Y199016D02*
D03*
X49606Y191142D02*
D03*
X45669Y167520D02*
D03*
X41732Y191142D02*
D03*
X25984D02*
D03*
X45669Y183268D02*
D03*
X10236Y175394D02*
D03*
X18110D02*
D03*
X53543Y167520D02*
D03*
X29921D02*
D03*
X53543Y151772D02*
D03*
X22047D02*
D03*
Y136024D02*
D03*
X53543D02*
D03*
X49606Y128150D02*
D03*
X53543Y120276D02*
D03*
X22047D02*
D03*
X10236Y159646D02*
D03*
X18110Y128150D02*
D03*
X10236D02*
D03*
X77165Y104528D02*
D03*
X88976Y80905D02*
D03*
X81102D02*
D03*
X49606Y112402D02*
D03*
X45669Y104528D02*
D03*
X65354Y96654D02*
D03*
X92913Y57284D02*
D03*
X61417Y25787D02*
D03*
X25984Y96654D02*
D03*
X33858Y80905D02*
D03*
X29921Y73032D02*
D03*
X37795Y57284D02*
D03*
X22047D02*
D03*
X18110Y80905D02*
D03*
X14173Y57284D02*
D03*
X18110Y49409D02*
D03*
X10236Y65158D02*
D03*
Y49409D02*
D03*
X37795Y25787D02*
D03*
X29921Y10039D02*
D03*
X14173Y41535D02*
D03*
X10236Y33661D02*
D03*
X18110Y2165D02*
D03*
X14173Y25787D02*
D03*
X10236Y2165D02*
D03*
D112*
X203937Y321949D02*
D03*
X191850Y346358D02*
D03*
X346161Y83858D02*
D03*
X331595Y88767D02*
D03*
X340519Y60271D02*
D03*
X348300Y53200D02*
D03*
X348799Y60709D02*
D03*
X351378Y39665D02*
D03*
X35778Y282348D02*
D03*
X311220Y35620D02*
D03*
X48915Y9295D02*
D03*
X279294Y180253D02*
D03*
X275492Y192618D02*
D03*
X282661Y179149D02*
D03*
X275590Y173956D02*
D03*
X275197Y163976D02*
D03*
X289173Y187402D02*
D03*
X288976Y174114D02*
D03*
X288822Y179629D02*
D03*
X284679Y155982D02*
D03*
X260138Y217323D02*
D03*
X274705Y210600D02*
D03*
X278543Y189665D02*
D03*
X255315Y214272D02*
D03*
X240400Y197400D02*
D03*
X344036Y104823D02*
D03*
X324311Y107972D02*
D03*
X86910Y50098D02*
D03*
X285877Y119299D02*
D03*
X271063Y90951D02*
D03*
X268000Y92815D02*
D03*
X363563Y51600D02*
D03*
X209842Y327854D02*
D03*
X253150Y104626D02*
D03*
X311581Y155315D02*
D03*
X291827Y192717D02*
D03*
X302279Y178531D02*
D03*
X293862Y173488D02*
D03*
X298917Y176149D02*
D03*
X303759Y340296D02*
D03*
X299705Y296555D02*
D03*
X320276Y336909D02*
D03*
X284160Y249344D02*
D03*
X285371Y317807D02*
D03*
X268134Y329166D02*
D03*
X278839Y325394D02*
D03*
X294980Y304626D02*
D03*
X292224Y196457D02*
D03*
X297965Y88748D02*
D03*
X311311Y114280D02*
D03*
X312931Y130437D02*
D03*
X319009Y125855D02*
D03*
X305859Y112384D02*
D03*
X259646Y128839D02*
D03*
X258366Y132579D02*
D03*
X67900Y81010D02*
D03*
X72165Y77835D02*
D03*
X87992Y99213D02*
D03*
X120768Y96752D02*
D03*
X252600Y348900D02*
D03*
X203642Y334055D02*
D03*
X365354Y358268D02*
D03*
X377362Y358000D02*
D03*
X381100Y326600D02*
D03*
X338484Y375984D02*
D03*
X283200Y348100D02*
D03*
X198500Y368500D02*
D03*
X226476Y307087D02*
D03*
X201599Y247078D02*
D03*
X334900Y197200D02*
D03*
X312000Y89469D02*
D03*
X306800Y78000D02*
D03*
X349300Y28000D02*
D03*
X273524Y143504D02*
D03*
X260236Y143898D02*
D03*
X250689Y154823D02*
D03*
X272441Y120866D02*
D03*
X270079Y105616D02*
D03*
X185000Y266634D02*
D03*
X77500Y79300D02*
D03*
X73900Y110600D02*
D03*
X87894Y240551D02*
D03*
X283200Y210400D02*
D03*
X295275Y152657D02*
D03*
X47106Y50832D02*
D03*
X45781Y61000D02*
D03*
X49872Y60404D02*
D03*
X50538Y49954D02*
D03*
X58265Y46361D02*
D03*
X350087Y335272D02*
D03*
X325749Y359871D02*
D03*
X348425Y191831D02*
D03*
X341142Y181299D02*
D03*
X295300Y157000D02*
D03*
X326575Y104232D02*
D03*
X273524Y128347D02*
D03*
X267881Y121115D02*
D03*
X239400Y322100D02*
D03*
X77264Y36220D02*
D03*
X341850Y340650D02*
D03*
X311244Y200935D02*
D03*
X283858Y201378D02*
D03*
X275401Y122933D02*
D03*
X282382Y119882D02*
D03*
X278892Y120498D02*
D03*
X278294Y131087D02*
D03*
X272733Y135827D02*
D03*
X307972Y252165D02*
D03*
X251765Y344027D02*
D03*
X241642Y341634D02*
D03*
X201927Y317727D02*
D03*
X235531Y296063D02*
D03*
X330070Y358051D02*
D03*
X356890Y342618D02*
D03*
X46085Y82398D02*
D03*
X321358Y314173D02*
D03*
X329921Y323510D02*
D03*
X282579Y144488D02*
D03*
X120965Y116043D02*
D03*
X109449Y82972D02*
D03*
X287555Y151279D02*
D03*
X340158Y153593D02*
D03*
X58445Y35453D02*
D03*
X331496Y173847D02*
D03*
X331594Y138529D02*
D03*
X296162Y241505D02*
D03*
X300492Y130807D02*
D03*
X92421Y102953D02*
D03*
X290575Y121858D02*
D03*
X363636Y87797D02*
D03*
X353642Y143701D02*
D03*
X295276Y162854D02*
D03*
X317093Y173849D02*
D03*
X363681Y325787D02*
D03*
X318406Y149213D02*
D03*
X273130Y79724D02*
D03*
X298698Y344193D02*
D03*
X316215Y119955D02*
D03*
X309941Y140650D02*
D03*
X340256Y147047D02*
D03*
X321260Y144980D02*
D03*
X315446Y135241D02*
D03*
X295762Y124508D02*
D03*
X96844Y105813D02*
D03*
X52165Y96752D02*
D03*
X365305Y83317D02*
D03*
X265300Y261964D02*
D03*
X291387Y117674D02*
D03*
X296220Y50376D02*
D03*
X273800Y240600D02*
D03*
X199489Y117912D02*
D03*
X276570Y78081D02*
D03*
X285335Y85630D02*
D03*
X294533Y145660D02*
D03*
X314337Y144509D02*
D03*
X287518Y139067D02*
D03*
X358113Y327621D02*
D03*
X310886Y346614D02*
D03*
X346161Y147638D02*
D03*
X308661Y98228D02*
D03*
X291043Y72342D02*
D03*
X314189Y139653D02*
D03*
X58009Y40809D02*
D03*
X279364Y154993D02*
D03*
X204056Y215343D02*
D03*
X365551Y69587D02*
D03*
X352098Y85630D02*
D03*
X373563Y55929D02*
D03*
X335120Y182794D02*
D03*
X337402Y134449D02*
D03*
X142618Y108512D02*
D03*
X278916Y198471D02*
D03*
X347205Y321063D02*
D03*
X351771Y199941D02*
D03*
X314682Y101376D02*
D03*
X279504Y80882D02*
D03*
X202756Y124508D02*
D03*
X333071Y49961D02*
D03*
X301969Y91240D02*
D03*
X102264Y43209D02*
D03*
X59821Y84200D02*
D03*
X76800Y31980D02*
D03*
X349300Y368800D02*
D03*
Y363000D02*
D03*
X221850Y332807D02*
D03*
X298327Y349803D02*
D03*
X266634Y338024D02*
D03*
X308549Y59055D02*
D03*
X354626Y53445D02*
D03*
X72165Y38504D02*
D03*
X240700Y268900D02*
D03*
X358957Y317717D02*
D03*
X368602D02*
D03*
X247500Y68500D02*
D03*
X29900Y35300D02*
D03*
X368652Y338681D02*
D03*
X305883Y49705D02*
D03*
X316339Y49764D02*
D03*
X79257Y74800D02*
D03*
X67900Y91200D02*
D03*
X34200Y38400D02*
D03*
X81800Y32000D02*
D03*
X316339Y59606D02*
D03*
X347311Y327067D02*
D03*
X323700Y346200D02*
D03*
X57905Y51523D02*
D03*
Y114272D02*
D03*
X57791Y363681D02*
D03*
X39154Y187697D02*
D03*
X66669Y111122D02*
D03*
X376673Y338730D02*
D03*
X330807Y339575D02*
D03*
X348500Y70600D02*
D03*
X20079Y29721D02*
D03*
X236260Y51516D02*
D03*
D113*
X248031Y308465D02*
D03*
X295352Y322736D02*
D03*
X240650Y354626D02*
D03*
X242815Y302854D02*
D03*
X276870Y304626D02*
D03*
M02*
