M48
;Layer_Color=9474304
;FILE_FORMAT=2:4
INCH,TZ
;TYPE=PLATED
T01F00S00C0.0118
T02F00S00C0.0197
T03F00S00C0.0236
T04F00S00C0.0276
T05F00S00C0.0295
T06F00S00C0.0315
T07F00S00C0.0320
T08F00S00C0.0354
T09F00S00C0.0413
T10F00S00C0.0472
T12F00S00C0.0610
T13F00S00C0.1260
%
T01
X1024Y217
X1811
X2992Y1004
X4891Y930
X3780Y2579
X3420Y3840
X2990Y3530
X2008Y2972
X1417Y2579
X1024Y3366
X1417Y4154
X1811Y4941
X1024
X4711Y5083
X5054Y4995
X5790Y5152
X5827Y4636
X5801Y4081
X5845Y3545
X6142Y2579
X7680Y3198
X7726Y3622
X7217Y3850
X8180Y3200
X8691Y5010
X10226Y4321
X10472Y3366
Y1791
X11260
X12047
X12441Y2579
X13228
X14016
X14803
Y4154
X15197Y4941
X14409
X13622
X13228Y4154
X17165
X17953
X18740
X19134Y3366
X19921
X19528Y2579
X18740
X17953
X17165
X16378
X16772Y3366
X17559
Y4941
X18346
X19921
X20709
X21102Y2785
X20709Y1791
X21102Y1004
X16772Y1791
X15984
X21496
X22283
X21890Y1004
Y2785
X22677
X22283Y4941
X21496
X23626Y5152
X29622Y5038
X30588Y4970
X31634Y4976
X32520Y4941
X33307Y4996
X33307Y3366
X32913Y2579
X34488
X34930Y2800
X35276Y2579
X35669Y3189
X35138Y3967
X34830Y5320
X35463Y5344
X36356Y5160
X36850Y2579
X35276Y1004
X34488
X33701
X32913
X32126
X31339
X28976
X28189
X28583Y1791
X27795
X27008
X26614Y1004
X25433Y217
X31122Y3562
X31732Y3366
X38031
X38425Y4154
X37638Y2579
X39213Y1004
X38819Y217
X37356Y5593
X38031Y6516
Y8091
X38425Y10453
X37638
X38031Y11240
X38425Y12028
X37638
X38425Y13602
X39213Y15177
X38031Y15965
X37244
X37638Y16752
X38425
Y18327
X36457Y17539
Y15965
Y14390
X35364Y14370
X35276Y15177
X34616Y14764
X34026Y14705
X34016Y15359
X34488Y16752
X34114Y18130
X33512Y18279
X33150Y17385
X31709Y17385
X31732Y19114
X32126Y19902
X31124Y20094
X29222Y19646
X29183Y19272
X28917Y18740
X28882Y17963
X28898Y17411
X29386Y17349
X29892Y17615
X30228Y17853
X28266Y17915
X27929Y18025
X27559Y17396
X27520Y16398
X27936Y15499
X28468Y15598
X28755Y15128
X29528Y15266
X29530Y15700
X29528Y16285
X29453Y14566
X28258Y14449
X28189Y13602
X27829Y13109
X27352Y12835
X27540Y12293
X27244Y12087
X26788Y12112
X27889Y12050
X28238Y11988
X28588Y11930
X29139Y11767
X29058Y12186
X29576Y12451
X30049Y13081
X31293Y13044
X31545Y13524
X31419Y13965
X31434Y14451
X32126Y14498
X31841Y14921
X31158Y15532
X30994Y14065
X33159Y13853
X33740Y13445
X31901Y12585
X31621Y11995
X31131Y11428
X30586Y11238
X30866Y9823
X31468Y10138
X31200Y8947
X32126Y8878
X33159Y8877
X34616Y8386
X35210Y8563
X35276Y7303
X34850Y7060
X34880Y6071
X34052Y6027
X32913Y5728
X31634Y5961
X30855Y5906
X30680Y7800
X30945Y8091
X30197Y9124
X29796Y8875
X28533Y8563
X27950Y8088
X27657Y7808
X27313Y7972
X27106Y9095
X26800Y9281
X27008Y10562
X25315Y10463
X25965Y12884
X25837Y13258
X26024Y14390
X25433Y14390
X25069Y15482
X24646Y15965
X23465Y16752
X23071Y17539
X22283
X21496
X21890Y18327
X22677
X21496Y19114
Y15965
Y14390
X22283
X23071
X23858
X24252Y13602
X23465
X22677
X21890
X21496Y12815
X23071
X23465Y15177
X27352Y14350
X27273Y13583
X28752Y13907
X27854Y18967
X27549Y19262
X27008Y19114
X26224Y19118
X27892Y19847
X28386Y20138
X28320Y21040
X27470Y21060
X27795Y20689
X24040Y19740
X33490Y19720
X33307Y20689
X35177Y19994
X34843Y19183
X36457Y12815
Y11240
X36063Y10453
X35699Y9699
X36364Y8780
X36531Y8332
X36555Y6959
X36063Y5728
X34404Y10482
X33701Y10463
X32657Y10423
X32431Y10797
X29104Y7234
X25433Y6516
X24750Y6850
X25039Y5728
X23465
Y7303
X21890
Y5728
X21102
X20315
Y7303
X21102
X19528
Y8878
X18740
X17953
Y7303
X17165
X17559Y6516
X16772
X15197
X14409
X14016Y5728
X14803
X15197Y8278
X13622
X10945Y8297
X9685Y8091
X8898
X8110
X7750Y7930
X7926Y7480
X7217Y7783
X6790Y8101
Y9120
X6535Y9665
X6667Y11112
X7390Y11060
X7717Y10453
Y8878
X8919Y9609
X8799Y9921
X9242Y10295
X9684Y10581
X9685Y9665
X12077Y9675
X12096Y11604
X12441Y12028
X13228
X14016
X14803
X15197Y12815
X14409
X13622
X12835
Y14390
X12047
X11654Y15177
X13228
Y16752
X12835Y17539
X12047
X11260
X10472
X10866Y18327
X11654
X12441
X13228
X12835Y19114
X12047
X11260
X10472
X9685
X10079Y19902
X10866
X11654
X12441
X13228
X14803
X15591
X16378
X17165
X16772Y19114
X15984
X15197
X14409
X14803Y18327
X15591
X16378
X16772Y17539
X15984
X15197
X14409
X14803Y16752
X15591
X15197Y15965
X14409
X14803Y15177
X15591
X15984Y14390
X15197
X14409
X17559
X18346
X17953Y15177
X17559Y15965
X18346
X17953Y16752
X18346Y17539
X17559
X17953Y18327
X18346Y19114
X18358Y20689
X20335Y19882
X21102Y19902
X20709Y19114
X21102Y18327
X20315
X20709Y17539
X21102Y15177
X20315
X20709Y14390
X21102Y13602
X20315
X20276Y12451
X19949Y11791
X18740Y12028
X17953
X17165
X16378
X16772Y12815
X17559
X18346
X17953Y13602
X17165
X11654
X10079
X9291
X8504
X7717
X6929
X6142
X6535Y14390
X7323
X8110
X8898
X9685
X10472
Y12815
X9685
X8898
X8110
X7323
X6535
X6929Y12028
X7717
X6142
X5790Y11427
X5982Y8420
X9685Y6516
X9291Y5728
X17953
X18740
X16772Y8278
X14262Y10851
X11654Y16752
X10866
X6929
X6142
Y18327
X6929
X7717
X7323Y19114
X6535
X6929Y19902
X7717
X7323Y20689
X6535
X6142Y19902
X9291
X9685Y20689
X10472
X7717Y15177
X6929
X5354
Y16752
X4567
Y18327
X5354
X4961Y19114
X4173
X3915Y18770
X2598Y19114
Y20689
X4173
X4961
X4567Y19902
X5354
X2992Y16752
X1811Y17539
X1024
Y15965
Y14390
X1494Y13484
X2205Y13602
X1811Y12815
X1024
X1417Y12028
X2205
Y10453
X2598Y9665
X3386Y8091
X2992Y7303
X1811Y8091
X1024Y6516
X1417Y5728
X2205
X3780
X4578Y6100
X4987Y6040
X4609Y8240
X5217Y9675
X4567Y10453
X4961Y11240
X5354Y12028
X4961Y12815
X5354Y13602
X2205Y15177
X1024Y11240
X1811Y22264
X2598
X2205Y23051
X1417
X2598Y23839
X2205Y24626
X2598Y25413
X2992Y26201
X4567
X5354
X4961Y26988
X4173
X4567Y27776
X5354
X4961Y28563
X4173
X3578Y28235
X2598Y28563
X1811
X2205Y27776
X1417
X2598Y30138
X4173
X4961
X5354Y30925
X4567
X3780
X4173Y31713
X4961
X4567Y32500
X5354
X4961Y33287
X4173
X3780Y34075
X4567
X5354
X4961Y34862
X4173
X2598
X1811
X1024
X1417Y35650
X2205
X2598Y36437
X1811
X1024
X3386
X4961
X3780Y32500
X2205
X1417
X1811Y33287
X2598
X2205Y34075
X1417
X1024Y33287
Y31713
X3780Y29350
X4567
X5354
X4961Y25413
X4173
X4567Y24626
X5354
X4961Y23839
X4173
X4567Y23051
X5354
X4961Y22264
X4173
X4567Y21476
X5354
X6142
X6929
X7717
X7323Y22264
X6535
X6929Y23051
X7717
X8504
X8789Y24055
X10079Y24626
X10866
X11654
X11260Y25413
X12047
X12441Y26201
X13228
X14016
X14803
X15591
X16378
X17165
X17189Y25413
X16772
X17165Y24626
X17189Y23839
X16772
X15984
X15197
X14409
X13622
X14016Y23051
X14803
X15591
X16378
X17165
X18346Y23839
Y25413
X18500Y26663
X18346Y26988
X17189
X16772
X15984
X15197
X14409
X13622
X14016Y27776
X14803
X15591
X16378
X17165
Y29350
X16378
X15591
X14803
X14016
Y30925
X14803
X15591
X16378
X17165
X17189Y30138
X16772
Y31713
X17189
X17165Y32500
X16378
X15591
X14803
X14016
X13228
X12441
X11654
X10866
X10079
X9685Y31713
X10472
X11260
X12047
X12835
X13622
X14409
X15197
X15984
Y33287
X16772
X17444Y33472
X17165Y34075
X16378
X16772Y34862
X17559
X17165Y35650
X16378
X15591
X15984Y36437
X16772
X18346
X19921
X19850Y36850
X20709Y36437
X21170Y34095
X20984Y32785
X20315Y32500
X20394Y32195
X20193Y31773
X19528Y32500
X19921Y33287
X20364Y33406
X19528Y34075
X19185Y34636
X15984Y34862
X15197
X14409
X13622
X12835
X13228Y34075
X14016
X13622Y33287
X12835
X12047
X11260
X12441Y34075
X10079
X9291
X8504
X7717
X6929
X6142
X6535Y34862
X5779Y36368
X9685Y36437
X10472
X11260
X12047
X14409
X10472Y34862
X9685
X8110Y33287
X7717Y32500
X7323Y31713
X6535
X6142Y30925
Y29350
X7717
X8504
X9291
X10079
X10866
X11654
X12441
X12835Y30138
X12047
X11260
X10472
X10866Y30925
X11654
X12441
X13228
X10079
X9291
X8504
X8898Y28563
X9685
X10472
X11260
X13228Y27776
X11654Y26201
X10079
X9291
X8504
X8898Y26988
X8110
X7323
X6535
X6929Y27776
X7717
X8504
X8110Y28563
X6142Y27776
Y26201
X6535Y25413
X6142Y24626
Y23051
X9685Y22264
X10079Y21476
X10866
X9291
X10472Y23839
X11260
X9685Y25413
X13622Y22264
X14016Y21476
X13228
X18358Y22264
X20285Y23051
X20406Y21534
X20160Y24708
X19528Y26201
X19921Y26988
X19528Y27776
X19921Y28563
X19528Y29350
X18740
X19134Y30138
X18346
X18740Y30925
X18346Y31713
X22648Y30709
X22677Y29350
X23553Y29606
X22677Y27776
X22283Y26988
Y25413
Y23839
X22677Y23051
X23071Y22264
X23858
X22283
X22677Y21476
X25531Y21427
X26014Y21732
X24646Y23839
X25039Y24626
X24252
X23465
Y26201
X24252
X25039
X24646Y26988
X24070Y26890
X25039Y27776
X26530Y26196
X27008Y25413
X27380Y24060
X28416Y24934
X29616Y24150
X30797Y25217
X31339Y26201
X30945Y26988
X31732
X31339Y27776
X31732Y28563
X31339Y29350
X31732Y30138
X32136Y31417
X32913Y30925
X33701
X34094Y30138
X34882
X35669
X36063Y29350
X35669Y28563
X34882
X34094
X33307
X33701Y27776
X32913
X33307Y26988
X34094
X34882
X35669
X36063Y27776
Y26201
X35669Y25413
X34882
X34094
X33307
X32913Y26201
X33701
Y24626
X33307Y23839
X33701Y23051
X32913
X32126
Y24626
Y21476
X32913
X33701
X34882Y23839
X35669
X36063Y23051
Y24626
X35896Y31772
X36860
X36368Y32579
X35811Y32762
X34731Y32707
X34720Y32106
X35009Y33527
X34185Y34065
X33081Y33957
X32028Y33691
X32370Y34620
X31089Y34661
X30157Y34862
X29833Y34980
X29870Y34419
X30376Y34030
X30551Y35650
X29764
X28976
X28189
X27402
X27795Y36427
X28583
X29370
X30157
X32575Y35987
X33007Y35805
X34488Y35650
X34930Y36300
X36535Y35827
X36865Y33868
X35689Y34262
X32992Y32351
X29370Y31713
X28537Y31781
X28976Y30925
X29498Y30463
X29970Y29656
X27884Y32539
X26813Y32917
X27008Y33287
X26663Y33802
X25177Y34403
X25260Y34890
X24164Y34163
X23940Y32210
X26220Y31713
Y36437
X27008
X24646
X23071
X22283
X22185Y33281
X28320Y34810
X37244Y34862
X37667Y33873
X38110Y32660
X38031Y31713
X38425Y30925
Y27776
X37244Y28563
Y26988
X38819Y25413
X39213Y24626
X38031Y22264
X37244
X37638Y21476
X38425
X37736Y35800
X38031Y38012
X34882
X34094
X33848Y37598
X33307Y38012
X34930Y36880
X29764Y37224
X28976
X28189
X27402
X27795Y38012
X28583
X27008
X23071
X22283
X22677Y37224
X23465
X21890
X21102
X17953
X17165
X17559Y38012
X18346
X15591Y37224
X14803
X13228
X12441
X11654
X10866
X10079
X7717
X6929
X6142
X6535Y38012
X7323
X8110
X7717Y38799
X6929
X6142
X5748Y38012
X12047
X12835
X13622
X4961
X4173
X4567Y37224
X5354
Y38799
X4567
X3780
X2992
X2205
X1417
X630
X236Y38012
X1024
X2205Y37224
X2992
T02
X5039Y1506
X6760Y2470
X10945Y5250
X31978Y2569
X33945Y2217
X34596Y9626
X35906Y12461
X35925Y13986
X5194Y9016
X4862Y35984
X3243Y35999
X15030Y35984
X35925Y21506
T03
X24281Y30285
X24803Y30846
X27687Y30463
X26878Y28275
X29535Y32274
X24065Y35463
T04
X22018Y25807
Y26594
Y27382
Y28169
Y28957
Y29744
X25344
Y28957
Y28169
Y27382
Y26594
Y25807
X28524
Y26594
Y27382
Y28169
Y28957
Y29744
T05
X18360Y7760
X20360
X19360Y6760
T06
X8238Y15325
X10207
X12461Y26663
Y28632
T07
X8809Y1848
X9675Y1348
X19185Y1575
X20185
X29685Y1348
X30551Y1848
X37530Y8770
X38030Y9636
X37795Y19185
Y20185
X1575
Y19185
X1321Y9646
X1821Y8780
X1319Y29715
X1819Y30581
X37541Y30571
X38041Y29705
X30590Y37541
X29724Y38041
X20185Y37795
X19185
X9636Y38041
X8770Y37541
T08
X25929Y4152
Y5152
X26929
Y4152
Y6152
X25929
Y7152
X26929
X23878Y20811
X21526Y20785
Y21785
Y22785
Y23785
X23878Y23811
Y22811
Y21811
T09
X34819Y20909
Y21909
Y22909
T10
X1880Y1181
X1173Y1888
X14339Y1676
X15305Y1417
X24064Y1414
X25030Y1673
X37491Y1182
X38198Y1889
X37695Y14340
X37954Y15306
X31476Y21063
X1396Y15286
X1655Y14320
X1376Y24064
X1635Y25030
X31476Y23063
Y22063
X37964Y24064
X37705Y25030
X38178Y37471
X37471Y38178
X25039Y37726
X24073Y37985
X15305Y37972
X14339Y37714
X1879Y38198
X1172Y37491
T12
X9665Y18043
Y23354
X16073Y24923
Y30234
T13
X4816Y15897
X15030Y33760
X33533Y29518
M30
