G04*
G04 #@! TF.GenerationSoftware,Altium Limited,Altium Designer,25.5.2 (35)*
G04*
G04 Layer_Color=2752767*
%FSLAX25Y25*%
%MOIN*%
G70*
G04*
G04 #@! TF.SameCoordinates,5858FFA7-226C-4CE8-8668-B70CF27CC624*
G04*
G04*
G04 #@! TF.FilePolarity,Positive*
G04*
G01*
G75*
%ADD117C,0.00500*%
%ADD118C,0.00667*%
%ADD119C,0.00400*%
D117*
X257291Y49516D02*
Y53516D01*
X261291D01*
Y49516D01*
X257291D01*
X267291D02*
Y53516D01*
X271291D01*
Y49516D01*
X267291D01*
X257291Y59516D02*
Y63516D01*
X261291D01*
Y59516D01*
X257291D01*
X267291Y39516D02*
Y43516D01*
X271291D01*
Y39516D01*
X267291D01*
X257291Y69516D02*
Y73516D01*
X261291D01*
Y69516D01*
X257291D01*
X267291Y59516D02*
Y63516D01*
X271291D01*
Y59516D01*
X267291D01*
X257291Y39516D02*
Y43516D01*
X261291D01*
Y39516D01*
X257291D01*
X267291Y69516D02*
Y73516D01*
X271291D01*
Y69516D01*
X267291D01*
X236780Y236110D02*
Y240110D01*
X240780D01*
Y236110D01*
X236780D01*
Y226110D02*
Y230110D01*
X240780D01*
Y226110D01*
X236780D01*
Y206110D02*
Y210110D01*
X240780D01*
Y206110D01*
X236780D01*
Y216110D02*
Y220110D01*
X240780D01*
Y216110D01*
X236780D01*
X213256Y225854D02*
Y229854D01*
X217256D01*
Y225854D01*
X213256D01*
X201602Y77598D02*
X203602Y79598D01*
X205602Y77598D01*
X203602Y75598D01*
X201602Y77598D01*
X122606Y264634D02*
X123606D01*
X124606Y265634D01*
X125606Y264634D01*
X126606D01*
Y265634D01*
X125606Y266634D01*
X126606Y267634D01*
Y268634D01*
X125606D01*
X124606Y267634D01*
X123606Y268634D01*
X122606D01*
Y267634D01*
X123606Y266634D01*
X122606Y265634D01*
Y264634D01*
X65831Y329512D02*
Y328512D01*
X67831D01*
Y329512D01*
X68831D01*
Y331512D01*
X67831D01*
Y332512D01*
X65831D01*
Y331512D01*
X64831D01*
Y329512D01*
X65831D01*
X94654Y178433D02*
X95654Y180433D01*
X94654Y182433D01*
X96654Y181433D01*
X98654Y182433D01*
X97654Y180433D01*
X98654Y178433D01*
X96654Y179433D01*
X94654Y178433D01*
X80382Y151248D02*
X81382D01*
X82382Y152248D01*
X83382Y151248D01*
X84382D01*
Y152248D01*
X83382Y153248D01*
X84382Y154248D01*
Y155248D01*
X83382D01*
X82382Y154248D01*
X81382Y155248D01*
X80382D01*
Y154248D01*
X81382Y153248D01*
X80382Y152248D01*
Y151248D01*
X375413Y303707D02*
X376413Y304707D01*
X377413D01*
X376413Y305707D01*
X377413Y306707D01*
X376413D01*
X375413Y307707D01*
X374413Y306707D01*
X373413D01*
X374413Y305707D01*
X373413Y304707D01*
X374413D01*
X375413Y303707D01*
X377953Y199850D02*
X378953Y200850D01*
X379953D01*
X378953Y201850D01*
X379953Y202850D01*
X378953D01*
X377953Y203850D01*
X376953Y202850D01*
X375953D01*
X376953Y201850D01*
X375953Y200850D01*
X376953D01*
X377953Y199850D01*
X297244Y378413D02*
X298244Y379413D01*
X299244D01*
X298244Y380413D01*
X299244Y381413D01*
X298244D01*
X297244Y382413D01*
X296244Y381413D01*
X295244D01*
X296244Y380413D01*
X295244Y379413D01*
X296244D01*
X297244Y378413D01*
X380295Y94357D02*
X381295Y95357D01*
X382295D01*
X381295Y96357D01*
X382295Y97357D01*
X381295D01*
X380295Y98357D01*
X379295Y97357D01*
X378295D01*
X379295Y96357D01*
X378295Y95357D01*
X379295D01*
X380295Y94357D01*
X305511Y16484D02*
X306511Y17484D01*
X307511D01*
X306511Y18484D01*
X307511Y19484D01*
X306511D01*
X305511Y20484D01*
X304511Y19484D01*
X303511D01*
X304511Y18484D01*
X303511Y17484D01*
X304511D01*
X305511Y16484D01*
X213256Y235854D02*
Y239854D01*
X217256D01*
Y235854D01*
X213256D01*
X191850Y375953D02*
X192850Y376953D01*
X193850D01*
X192850Y377953D01*
X193850Y378953D01*
X192850D01*
X191850Y379953D01*
X190850Y378953D01*
X189850D01*
X190850Y377953D01*
X189850Y376953D01*
X190850D01*
X191850Y375953D01*
X87698Y373413D02*
X88698Y374413D01*
X89698D01*
X88698Y375413D01*
X89698Y376413D01*
X88698D01*
X87698Y377413D01*
X86698Y376413D01*
X85698D01*
X86698Y375413D01*
X85698Y374413D01*
X86698D01*
X87698Y373413D01*
X13189Y295146D02*
X14189Y296146D01*
X15189D01*
X14189Y297146D01*
X15189Y298146D01*
X14189D01*
X13189Y299146D01*
X12189Y298146D01*
X11189D01*
X12189Y297146D01*
X11189Y296146D01*
X12189D01*
X13189Y295146D01*
X15748Y189850D02*
X16748Y190850D01*
X17748D01*
X16748Y191850D01*
X17748Y192850D01*
X16748D01*
X15748Y193850D01*
X14748Y192850D01*
X13748D01*
X14748Y191850D01*
X13748Y190850D01*
X14748D01*
X15748Y189850D01*
X201850Y13748D02*
X202850Y14748D01*
X203850D01*
X202850Y15748D01*
X203850Y16748D01*
X202850D01*
X201850Y17748D01*
X200850Y16748D01*
X199850D01*
X200850Y15748D01*
X199850Y14748D01*
X200850D01*
X201850Y13748D01*
X181602Y77598D02*
X183602Y79598D01*
X185602Y77598D01*
X183602Y75598D01*
X181602Y77598D01*
X100067Y151248D02*
X101067D01*
X102067Y152248D01*
X103067Y151248D01*
X104067D01*
Y152248D01*
X103067Y153248D01*
X104067Y154248D01*
Y155248D01*
X103067D01*
X102067Y154248D01*
X101067Y155248D01*
X100067D01*
Y154248D01*
X101067Y153248D01*
X100067Y152248D01*
Y151248D01*
X18209Y85795D02*
X19209Y86795D01*
X20209D01*
X19209Y87795D01*
X20209Y88795D01*
X19209D01*
X18209Y89795D01*
X17209Y88795D01*
X16209D01*
X17209Y87795D01*
X16209Y86795D01*
X17209D01*
X18209Y85795D01*
X96752Y11484D02*
X97752Y12484D01*
X98752D01*
X97752Y13484D01*
X98752Y14484D01*
X97752D01*
X96752Y15484D01*
X95752Y14484D01*
X94752D01*
X95752Y13484D01*
X94752Y12484D01*
X95752D01*
X96752Y11484D01*
X150295Y335598D02*
X148295Y339598D01*
X152295D01*
X150295Y335598D01*
Y336398D02*
X149095Y338798D01*
X151495D01*
X150295Y336398D01*
X48158Y156967D02*
X46158Y160967D01*
X50159D01*
X48158Y156967D01*
Y157767D02*
X46959Y160167D01*
X49358D01*
X48158Y157767D01*
X335335Y293177D02*
X333335Y297177D01*
X337335D01*
X335335Y293177D01*
Y293977D02*
X334135Y296377D01*
X336535D01*
X335335Y293977D01*
X213256Y215854D02*
Y219854D01*
X217256D01*
Y215854D01*
X213256D01*
Y205854D02*
Y209854D01*
X217256D01*
Y205854D01*
X213256D01*
X18189Y303806D02*
X19189Y304806D01*
X20189D01*
X19189Y305806D01*
X20189Y306806D01*
X19189D01*
X18189Y307806D01*
X17189Y306806D01*
X16189D01*
X17189Y305806D01*
X16189Y304806D01*
X17189D01*
X18189Y303806D01*
X90831Y329512D02*
Y328512D01*
X92831D01*
Y329512D01*
X93831D01*
Y331512D01*
X92831D01*
Y332512D01*
X90831D01*
Y331512D01*
X89831D01*
Y329512D01*
X90831D01*
X191602Y67598D02*
X193602Y69598D01*
X195602Y67598D01*
X193602Y65598D01*
X191602Y67598D01*
X348189Y227094D02*
X346189Y231094D01*
X350189D01*
X348189Y227094D01*
X201850Y375953D02*
X202850Y376953D01*
X203850D01*
X202850Y377953D01*
X203850Y378953D01*
X202850D01*
X201850Y379953D01*
X200850Y378953D01*
X199850D01*
X200850Y377953D01*
X199850Y376953D01*
X200850D01*
X201850Y375953D01*
X380413Y295047D02*
X381413Y296047D01*
X382413D01*
X381413Y297047D01*
X382413Y298047D01*
X381413D01*
X380413Y299047D01*
X379413Y298047D01*
X378413D01*
X379413Y297047D01*
X378413Y296047D01*
X379413D01*
X380413Y295047D01*
X305904Y373413D02*
X306904Y374413D01*
X307904D01*
X306904Y375413D01*
X307904Y376413D01*
X306904D01*
X305904Y377413D01*
X304904Y376413D01*
X303904D01*
X304904Y375413D01*
X303904Y374413D01*
X304904D01*
X305904Y373413D01*
X377953Y189850D02*
X378953Y190850D01*
X379953D01*
X378953Y191850D01*
X379953Y192850D01*
X378953D01*
X377953Y193850D01*
X376953Y192850D01*
X375953D01*
X376953Y191850D01*
X375953Y190850D01*
X376953D01*
X377953Y189850D01*
X88092Y16484D02*
X89092Y17484D01*
X90092D01*
X89092Y18484D01*
X90092Y19484D01*
X89092D01*
X88092Y20484D01*
X87092Y19484D01*
X86092D01*
X87092Y18484D01*
X86092Y17484D01*
X87092D01*
X88092Y16484D01*
X191850Y13748D02*
X192850Y14748D01*
X193850D01*
X192850Y15748D01*
X193850Y16748D01*
X192850D01*
X191850Y17748D01*
X190850Y16748D01*
X189850D01*
X190850Y15748D01*
X189850Y14748D01*
X190850D01*
X191850Y13748D01*
X375295Y85697D02*
X376295Y86697D01*
X377295D01*
X376295Y87697D01*
X377295Y88697D01*
X376295D01*
X375295Y89697D01*
X374295Y88697D01*
X373295D01*
X374295Y87697D01*
X373295Y86697D01*
X374295D01*
X375295Y85697D01*
X296850Y11484D02*
X297850Y12484D01*
X298850D01*
X297850Y13484D01*
X298850Y14484D01*
X297850D01*
X296850Y15484D01*
X295850Y14484D01*
X294850D01*
X295850Y13484D01*
X294850Y12484D01*
X295850D01*
X296850Y11484D01*
X348189Y207094D02*
X346189Y211094D01*
X350189D01*
X348189Y207094D01*
Y217094D02*
X346189Y221094D01*
X350189D01*
X348189Y217094D01*
X80831Y349512D02*
Y348512D01*
X82831D01*
Y349512D01*
X83831D01*
Y351512D01*
X82831D01*
Y352512D01*
X80831D01*
Y351512D01*
X79831D01*
Y349512D01*
X80831D01*
X122606Y284319D02*
X123606D01*
X124606Y285319D01*
X125606Y284319D01*
X126606D01*
Y285319D01*
X125606Y286319D01*
X126606Y287319D01*
Y288319D01*
X125606D01*
X124606Y287319D01*
X123606Y288319D01*
X122606D01*
Y287319D01*
X123606Y286319D01*
X122606Y285319D01*
Y284319D01*
X158728Y300343D02*
X159728Y302343D01*
X158728Y304343D01*
X160728Y303343D01*
X162728Y304343D01*
X161728Y302343D01*
X162728Y300343D01*
X160728Y301343D01*
X158728Y300343D01*
Y247232D02*
X159728Y249232D01*
X158728Y251232D01*
X160728Y250232D01*
X162728Y251232D01*
X161728Y249232D01*
X162728Y247232D01*
X160728Y248232D01*
X158728Y247232D01*
X94654Y231543D02*
X95654Y233543D01*
X94654Y235543D01*
X96654Y234543D01*
X98654Y235543D01*
X97654Y233543D01*
X98654Y231543D01*
X96654Y232543D01*
X94654Y231543D01*
X13209Y94456D02*
X14209Y95456D01*
X15209D01*
X14209Y96456D01*
X15209Y97456D01*
X14209D01*
X13209Y98456D01*
X12209Y97456D01*
X11209D01*
X12209Y96456D01*
X11209Y95456D01*
X12209D01*
X13209Y94456D01*
X15748Y199850D02*
X16748Y200850D01*
X17748D01*
X16748Y201850D01*
X17748Y202850D01*
X16748D01*
X15748Y203850D01*
X14748Y202850D01*
X13748D01*
X14748Y201850D01*
X13748Y200850D01*
X14748D01*
X15748Y199850D01*
X96358Y378413D02*
X97358Y379413D01*
X98358D01*
X97358Y380413D01*
X98358Y381413D01*
X97358D01*
X96358Y382413D01*
X95358Y381413D01*
X94358D01*
X95358Y380413D01*
X94358Y379413D01*
X95358D01*
X96358Y378413D01*
X337445Y20169D02*
X338445Y22169D01*
X337445Y24169D01*
X339445Y23169D01*
X341445Y24169D01*
X340445Y22169D01*
X341445Y20169D01*
X339445Y21169D01*
X337445Y20169D01*
X338246Y20969D02*
X338845Y22169D01*
X338246Y23369D01*
X339445Y22769D01*
X340646Y23369D01*
X340045Y22169D01*
X340646Y20969D01*
X339445Y21569D01*
X338246Y20969D01*
X317783Y23689D02*
X318783Y25689D01*
X317783Y27689D01*
X319783Y26689D01*
X321783Y27689D01*
X320783Y25689D01*
X321783Y23689D01*
X319783Y24689D01*
X317783Y23689D01*
X318583Y24489D02*
X319183Y25689D01*
X318583Y26889D01*
X319783Y26289D01*
X320984Y26889D01*
X320384Y25689D01*
X320984Y24489D01*
X319783Y25089D01*
X318583Y24489D01*
X315323Y31661D02*
Y35661D01*
X319323D01*
Y31661D01*
X315323D01*
X316123Y32461D02*
Y34861D01*
X318523D01*
Y32461D01*
X316123D01*
X331071Y31661D02*
Y35661D01*
X335071D01*
Y31661D01*
X331071D01*
X331871Y32461D02*
Y34861D01*
X334271D01*
Y32461D01*
X331871D01*
X172438Y332716D02*
Y336716D01*
X176437D01*
Y332716D01*
X172438D01*
X173238Y333516D02*
Y335916D01*
X175637D01*
Y333516D01*
X173238D01*
X169890Y236386D02*
Y240386D01*
X173890D01*
Y236386D01*
X169890D01*
X170690Y237186D02*
Y239586D01*
X173090D01*
Y237186D01*
X170690D01*
X169890Y252134D02*
Y256134D01*
X173890D01*
Y252134D01*
X169890D01*
X170690Y252934D02*
Y255334D01*
X173090D01*
Y252934D01*
X170690D01*
X169890Y267882D02*
Y271882D01*
X173890D01*
Y267882D01*
X169890D01*
X170690Y268682D02*
Y271082D01*
X173090D01*
Y268682D01*
X170690D01*
X169890Y299378D02*
Y303378D01*
X173890D01*
Y299378D01*
X169890D01*
X170690Y300178D02*
Y302578D01*
X173090D01*
Y300178D01*
X170690D01*
X169890Y315126D02*
Y319126D01*
X173890D01*
Y315126D01*
X169890D01*
X170690Y315926D02*
Y318326D01*
X173090D01*
Y315926D01*
X170690D01*
X169653Y307252D02*
Y311252D01*
X173653D01*
Y307252D01*
X169653D01*
X170454Y308052D02*
Y310452D01*
X172854D01*
Y308052D01*
X170454D01*
X169653Y323000D02*
Y327000D01*
X173653D01*
Y323000D01*
X169653D01*
X170454Y323800D02*
Y326200D01*
X172854D01*
Y323800D01*
X170454D01*
X169653Y244260D02*
Y248260D01*
X173653D01*
Y244260D01*
X169653D01*
X170454Y245060D02*
Y247460D01*
X172854D01*
Y245060D01*
X170454D01*
X169653Y291504D02*
Y295504D01*
X173653D01*
Y291504D01*
X169653D01*
X170454Y292304D02*
Y294704D01*
X172854D01*
Y292304D01*
X170454D01*
X169653Y260008D02*
Y264008D01*
X173653D01*
Y260008D01*
X169653D01*
X170454Y260808D02*
Y263208D01*
X172854D01*
Y260808D01*
X170454D01*
X169653Y275756D02*
Y279756D01*
X173653D01*
Y275756D01*
X169653D01*
X170454Y276556D02*
Y278956D01*
X172854D01*
Y276556D01*
X170454D01*
X181583Y204890D02*
Y208890D01*
X185583D01*
Y204890D01*
X181583D01*
X182383Y205690D02*
Y208090D01*
X184783D01*
Y205690D01*
X182383D01*
X181583Y220638D02*
Y224638D01*
X185583D01*
Y220638D01*
X181583D01*
X182383Y221438D02*
Y223838D01*
X184783D01*
Y221438D01*
X182383D01*
X201349Y196816D02*
Y200816D01*
X205349D01*
Y196816D01*
X201349D01*
X202149Y197616D02*
Y200016D01*
X204549D01*
Y197616D01*
X202149D01*
X200854Y228512D02*
Y232512D01*
X204854D01*
Y228512D01*
X200854D01*
X201654Y229312D02*
Y231712D01*
X204054D01*
Y229312D01*
X201654D01*
X201937Y319949D02*
Y323949D01*
X205937D01*
Y319949D01*
X201937D01*
X202737Y320749D02*
Y323149D01*
X205137D01*
Y320749D01*
X202737D01*
X189850Y344358D02*
Y348358D01*
X193850D01*
Y344358D01*
X189850D01*
X190650Y345158D02*
Y347558D01*
X193050D01*
Y345158D01*
X190650D01*
X344161Y81858D02*
Y85858D01*
X348161D01*
Y81858D01*
X344161D01*
X344961Y82658D02*
Y85058D01*
X347361D01*
Y82658D01*
X344961D01*
X354988Y94987D02*
Y98987D01*
X358988D01*
Y94987D01*
X354988D01*
X355788Y95787D02*
Y98187D01*
X358188D01*
Y95787D01*
X355788D01*
X329595Y86767D02*
Y90767D01*
X333595D01*
Y86767D01*
X329595D01*
X330395Y87567D02*
Y89967D01*
X332795D01*
Y87567D01*
X330395D01*
X343965Y94260D02*
X344965Y96260D01*
X343965Y98260D01*
X345965Y97260D01*
X347965Y98260D01*
X346965Y96260D01*
X347965Y94260D01*
X345965Y95260D01*
X343965Y94260D01*
X344765Y95060D02*
X345365Y96260D01*
X344765Y97460D01*
X345965Y96860D01*
X347165Y97460D01*
X346565Y96260D01*
X347165Y95060D01*
X345965Y95660D01*
X344765Y95060D01*
X338519Y58271D02*
Y62270D01*
X342519D01*
Y58271D01*
X338519D01*
X339319Y59070D02*
Y61471D01*
X341719D01*
Y59070D01*
X339319D01*
X346300Y51200D02*
Y55200D01*
X350300D01*
Y51200D01*
X346300D01*
X347100Y52000D02*
Y54400D01*
X349500D01*
Y52000D01*
X347100D01*
X346799Y58709D02*
Y62709D01*
X350799D01*
Y58709D01*
X346799D01*
X347599Y59509D02*
Y61909D01*
X349999D01*
Y59509D01*
X347599D01*
X349378Y37665D02*
Y41665D01*
X353378D01*
Y37665D01*
X349378D01*
X350178Y38465D02*
Y40865D01*
X352578D01*
Y38465D01*
X350178D01*
X354693Y29890D02*
Y33890D01*
X358693D01*
Y29890D01*
X354693D01*
X355493Y30690D02*
Y33090D01*
X357893D01*
Y30690D01*
X355493D01*
X209024Y25854D02*
Y29854D01*
X213024D01*
Y25854D01*
X209024D01*
X209824Y26654D02*
Y29054D01*
X212224D01*
Y26654D01*
X209824D01*
X216898Y25854D02*
Y29854D01*
X220898D01*
Y25854D01*
X216898D01*
X217698Y26654D02*
Y29054D01*
X220098D01*
Y26654D01*
X217698D01*
X224772Y25854D02*
Y29854D01*
X228772D01*
Y25854D01*
X224772D01*
X225572Y26654D02*
Y29054D01*
X227972D01*
Y26654D01*
X225572D01*
X205087Y15913D02*
Y19913D01*
X209087D01*
Y15913D01*
X205087D01*
X205887Y16713D02*
Y19113D01*
X208287D01*
Y16713D01*
X205887D01*
X212961Y15913D02*
Y19913D01*
X216961D01*
Y15913D01*
X212961D01*
X213761Y16713D02*
Y19113D01*
X216161D01*
Y16713D01*
X213761D01*
X220835Y15913D02*
Y19913D01*
X224835D01*
Y15913D01*
X220835D01*
X221635Y16713D02*
Y19113D01*
X224035D01*
Y16713D01*
X221635D01*
X142094Y63157D02*
Y67158D01*
X146094D01*
Y63157D01*
X142094D01*
X142894Y63958D02*
Y66357D01*
X145294D01*
Y63958D01*
X142894D01*
X138157Y55283D02*
Y59284D01*
X142157D01*
Y55283D01*
X138157D01*
X138957Y56084D02*
Y58483D01*
X141357D01*
Y56084D01*
X138957D01*
X134220Y80776D02*
Y84776D01*
X138220D01*
Y80776D01*
X134220D01*
X135020Y81576D02*
Y83976D01*
X137420D01*
Y81576D01*
X135020D01*
X149968Y80776D02*
Y84776D01*
X153968D01*
Y80776D01*
X149968D01*
X150768Y81576D02*
Y83976D01*
X153168D01*
Y81576D01*
X150768D01*
X165717Y80776D02*
Y84776D01*
X169717D01*
Y80776D01*
X165717D01*
X166516Y81576D02*
Y83976D01*
X168916D01*
Y81576D01*
X166516D01*
X49937Y88157D02*
X50937Y90158D01*
X49937Y92158D01*
X51937Y91158D01*
X53937Y92158D01*
X52937Y90158D01*
X53937Y88157D01*
X51937Y89157D01*
X49937Y88157D01*
X50737Y88958D02*
X51337Y90158D01*
X50737Y91357D01*
X51937Y90758D01*
X53137Y91357D01*
X52537Y90158D01*
X53137Y88958D01*
X51937Y89557D01*
X50737Y88958D01*
X30431Y357990D02*
X31431Y359990D01*
X30431Y361990D01*
X32431Y360990D01*
X34431Y361990D01*
X33431Y359990D01*
X34431Y357990D01*
X32431Y358990D01*
X30431Y357990D01*
X31231Y358790D02*
X31831Y359990D01*
X31231Y361190D01*
X32431Y360590D01*
X33631Y361190D01*
X33031Y359990D01*
X33631Y358790D01*
X32431Y359390D01*
X31231Y358790D01*
X33777Y280348D02*
Y284348D01*
X37778D01*
Y280348D01*
X33777D01*
X34578Y281148D02*
Y283548D01*
X36977D01*
Y281148D01*
X34578D01*
X309220Y33620D02*
Y37620D01*
X313220D01*
Y33620D01*
X309220D01*
X310020Y34420D02*
Y36820D01*
X312420D01*
Y34420D01*
X310020D01*
X275953Y362272D02*
Y366272D01*
X279953D01*
Y362272D01*
X275953D01*
X276753Y363072D02*
Y365472D01*
X279153D01*
Y363072D01*
X276753D01*
X283827Y362272D02*
Y366272D01*
X287827D01*
Y362272D01*
X283827D01*
X284627Y363072D02*
Y365472D01*
X287027D01*
Y363072D01*
X284627D01*
X291701Y362272D02*
Y366272D01*
X295701D01*
Y362272D01*
X291701D01*
X292501Y363072D02*
Y365472D01*
X294901D01*
Y363072D01*
X292501D01*
X299575Y362272D02*
Y366272D01*
X303575D01*
Y362272D01*
X299575D01*
X300375Y363072D02*
Y365472D01*
X302775D01*
Y363072D01*
X300375D01*
X46915Y7295D02*
Y11295D01*
X50915D01*
Y7295D01*
X46915D01*
X47715Y8095D02*
Y10495D01*
X50115D01*
Y8095D01*
X47715D01*
X12173Y118276D02*
Y122276D01*
X16173D01*
Y118276D01*
X12173D01*
X12973Y119076D02*
Y121476D01*
X15373D01*
Y119076D01*
X12973D01*
X20047Y102528D02*
Y106528D01*
X24047D01*
Y102528D01*
X20047D01*
X20847Y103328D02*
Y105728D01*
X23247D01*
Y103328D01*
X20847D01*
X277294Y178253D02*
Y182253D01*
X281294D01*
Y178253D01*
X277294D01*
X278094Y179053D02*
Y181453D01*
X280494D01*
Y179053D01*
X278094D01*
X273492Y190618D02*
Y194618D01*
X277492D01*
Y190618D01*
X273492D01*
X274292Y191418D02*
Y193818D01*
X276692D01*
Y191418D01*
X274292D01*
X268079Y189142D02*
Y193142D01*
X272079D01*
Y189142D01*
X268079D01*
X268879Y189942D02*
Y192342D01*
X271279D01*
Y189942D01*
X268879D01*
X280661Y177149D02*
Y181149D01*
X284661D01*
Y177149D01*
X280661D01*
X281461Y177949D02*
Y180349D01*
X283861D01*
Y177949D01*
X281461D01*
X273590Y171956D02*
Y175956D01*
X277590D01*
Y171956D01*
X273590D01*
X274391Y172756D02*
Y175156D01*
X276790D01*
Y172756D01*
X274391D01*
X273197Y161976D02*
Y165976D01*
X277197D01*
Y161976D01*
X273197D01*
X273997Y162776D02*
Y165176D01*
X276397D01*
Y162776D01*
X273997D01*
X287173Y185402D02*
Y189402D01*
X291173D01*
Y185402D01*
X287173D01*
X287973Y186202D02*
Y188602D01*
X290373D01*
Y186202D01*
X287973D01*
X286976Y172114D02*
Y176114D01*
X290976D01*
Y172114D01*
X286976D01*
X287776Y172914D02*
Y175314D01*
X290176D01*
Y172914D01*
X287776D01*
X286822Y177629D02*
Y181629D01*
X290822D01*
Y177629D01*
X286822D01*
X287622Y178429D02*
Y180829D01*
X290022D01*
Y178429D01*
X287622D01*
X282679Y153982D02*
Y157982D01*
X286679D01*
Y153982D01*
X282679D01*
X283479Y154782D02*
Y157182D01*
X285879D01*
Y154782D01*
X283479D01*
X258138Y215323D02*
Y219323D01*
X262138D01*
Y215323D01*
X258138D01*
X258938Y216123D02*
Y218523D01*
X261338D01*
Y216123D01*
X258938D01*
X248031Y306465D02*
X249031Y307465D01*
X250031D01*
X249031Y308465D01*
X250031Y309465D01*
X249031D01*
X248031Y310465D01*
X247031Y309465D01*
X246031D01*
X247031Y308465D01*
X246031Y307465D01*
X247031D01*
X248031Y306465D01*
Y307265D02*
X248632Y307865D01*
X249232D01*
X248632Y308465D01*
X249232Y309065D01*
X248632D01*
X248031Y309665D01*
X247431Y309065D01*
X246831D01*
X247431Y308465D01*
X246831Y307865D01*
X247431D01*
X248031Y307265D01*
X272705Y208600D02*
Y212600D01*
X276705D01*
Y208600D01*
X272705D01*
X273505Y209400D02*
Y211800D01*
X275905D01*
Y209400D01*
X273505D01*
X275953Y204890D02*
Y208890D01*
X279953D01*
Y204890D01*
X275953D01*
X276753Y205690D02*
Y208090D01*
X279153D01*
Y205690D01*
X276753D01*
X276543Y187665D02*
Y191665D01*
X280543D01*
Y187665D01*
X276543D01*
X277343Y188465D02*
Y190865D01*
X279743D01*
Y188465D01*
X277343D01*
X253315Y212272D02*
Y216272D01*
X257315D01*
Y212272D01*
X253315D01*
X254115Y213072D02*
Y215472D01*
X256515D01*
Y213072D01*
X254115D01*
X238400Y195400D02*
Y199400D01*
X242400D01*
Y195400D01*
X238400D01*
X239200Y196200D02*
Y198600D01*
X241600D01*
Y196200D01*
X239200D01*
X342036Y102823D02*
Y106823D01*
X346036D01*
Y102823D01*
X342036D01*
X342836Y103623D02*
Y106023D01*
X345236D01*
Y103623D01*
X342836D01*
X335008Y102626D02*
Y106626D01*
X339008D01*
Y102626D01*
X335008D01*
X335808Y103426D02*
Y105826D01*
X338208D01*
Y103426D01*
X335808D01*
X322311Y105972D02*
Y109972D01*
X326311D01*
Y105972D01*
X322311D01*
X323111Y106772D02*
Y109172D01*
X325511D01*
Y106772D01*
X323111D01*
X84909Y48098D02*
Y52098D01*
X88910D01*
Y48098D01*
X84909D01*
X85710Y48898D02*
Y51298D01*
X88109D01*
Y48898D01*
X85710D01*
X283877Y117299D02*
Y121299D01*
X287877D01*
Y117299D01*
X283877D01*
X284677Y118099D02*
Y120499D01*
X287077D01*
Y118099D01*
X284677D01*
X269063Y88951D02*
Y92951D01*
X273063D01*
Y88951D01*
X269063D01*
X269863Y89751D02*
Y92151D01*
X272263D01*
Y89751D01*
X269863D01*
X266000Y90815D02*
Y94815D01*
X270000D01*
Y90815D01*
X266000D01*
X266800Y91615D02*
Y94015D01*
X269200D01*
Y91615D01*
X266800D01*
X361563Y49600D02*
Y53600D01*
X365563D01*
Y49600D01*
X361563D01*
X362363Y50400D02*
Y52800D01*
X364763D01*
Y50400D01*
X362363D01*
X207842Y325854D02*
Y329854D01*
X211842D01*
Y325854D01*
X207842D01*
X208643Y326654D02*
Y329054D01*
X211042D01*
Y326654D01*
X208643D01*
X251150Y102626D02*
Y106626D01*
X255150D01*
Y102626D01*
X251150D01*
X251950Y103426D02*
Y105826D01*
X254350D01*
Y103426D01*
X251950D01*
X12936Y132837D02*
Y136837D01*
X16936D01*
Y132837D01*
X12936D01*
X13736Y133637D02*
Y136037D01*
X16136D01*
Y133637D01*
X13736D01*
X8236Y141898D02*
Y145898D01*
X12236D01*
Y141898D01*
X8236D01*
X9036Y142698D02*
Y145098D01*
X11436D01*
Y142698D01*
X9036D01*
X309581Y153315D02*
Y157315D01*
X313581D01*
Y153315D01*
X309581D01*
X310381Y154115D02*
Y156515D01*
X312781D01*
Y154115D01*
X310381D01*
X289827Y190717D02*
Y194717D01*
X293827D01*
Y190717D01*
X289827D01*
X290627Y191516D02*
Y193916D01*
X293027D01*
Y191516D01*
X290627D01*
X300279Y176531D02*
Y180531D01*
X304279D01*
Y176531D01*
X300279D01*
X301079Y177331D02*
Y179731D01*
X303479D01*
Y177331D01*
X301079D01*
X291862Y171488D02*
Y175488D01*
X295862D01*
Y171488D01*
X291862D01*
X292662Y172288D02*
Y174688D01*
X295062D01*
Y172288D01*
X292662D01*
X296917Y174149D02*
Y178149D01*
X300917D01*
Y174149D01*
X296917D01*
X297717Y174949D02*
Y177349D01*
X300117D01*
Y174949D01*
X297717D01*
X301759Y338296D02*
Y342296D01*
X305759D01*
Y338296D01*
X301759D01*
X302559Y339096D02*
Y341496D01*
X304959D01*
Y339096D01*
X302559D01*
X297705Y294555D02*
Y298555D01*
X301705D01*
Y294555D01*
X297705D01*
X298505Y295355D02*
Y297755D01*
X300905D01*
Y295355D01*
X298505D01*
X318276Y334909D02*
Y338909D01*
X322276D01*
Y334909D01*
X318276D01*
X319076Y335709D02*
Y338109D01*
X321476D01*
Y335709D01*
X319076D01*
X295352Y320736D02*
X296352Y321736D01*
X297352D01*
X296352Y322736D01*
X297352Y323736D01*
X296352D01*
X295352Y324736D01*
X294352Y323736D01*
X293352D01*
X294352Y322736D01*
X293352Y321736D01*
X294352D01*
X295352Y320736D01*
Y321536D02*
X295952Y322136D01*
X296551D01*
X295952Y322736D01*
X296551Y323336D01*
X295952D01*
X295352Y323936D01*
X294752Y323336D01*
X294151D01*
X294752Y322736D01*
X294151Y322136D01*
X294752D01*
X295352Y321536D01*
X240650Y352626D02*
X241650Y353626D01*
X242650D01*
X241650Y354626D01*
X242650Y355626D01*
X241650D01*
X240650Y356626D01*
X239650Y355626D01*
X238650D01*
X239650Y354626D01*
X238650Y353626D01*
X239650D01*
X240650Y352626D01*
Y353426D02*
X241250Y354026D01*
X241850D01*
X241250Y354626D01*
X241850Y355226D01*
X241250D01*
X240650Y355826D01*
X240050Y355226D01*
X239450D01*
X240050Y354626D01*
X239450Y354026D01*
X240050D01*
X240650Y353426D01*
X242815Y300854D02*
X243815Y301854D01*
X244815D01*
X243815Y302854D01*
X244815Y303854D01*
X243815D01*
X242815Y304854D01*
X241815Y303854D01*
X240815D01*
X241815Y302854D01*
X240815Y301854D01*
X241815D01*
X242815Y300854D01*
Y301654D02*
X243415Y302254D01*
X244015D01*
X243415Y302854D01*
X244015Y303454D01*
X243415D01*
X242815Y304054D01*
X242215Y303454D01*
X241615D01*
X242215Y302854D01*
X241615Y302254D01*
X242215D01*
X242815Y301654D01*
X276870Y302626D02*
X277870Y303626D01*
X278870D01*
X277870Y304626D01*
X278870Y305626D01*
X277870D01*
X276870Y306626D01*
X275870Y305626D01*
X274870D01*
X275870Y304626D01*
X274870Y303626D01*
X275870D01*
X276870Y302626D01*
Y303426D02*
X277470Y304026D01*
X278070D01*
X277470Y304626D01*
X278070Y305226D01*
X277470D01*
X276870Y305826D01*
X276270Y305226D01*
X275670D01*
X276270Y304626D01*
X275670Y304026D01*
X276270D01*
X276870Y303426D01*
X268778Y280746D02*
X269778Y281746D01*
X270778D01*
X269778Y282746D01*
X270778Y283746D01*
X269778D01*
X268778Y284746D01*
X267778Y283746D01*
X266778D01*
X267778Y282746D01*
X266778Y281746D01*
X267778D01*
X268778Y280746D01*
Y281546D02*
X269378Y282146D01*
X269978D01*
X269378Y282746D01*
X269978Y283346D01*
X269378D01*
X268778Y283946D01*
X268178Y283346D01*
X267578D01*
X268178Y282746D01*
X267578Y282146D01*
X268178D01*
X268778Y281546D01*
X282160Y247344D02*
Y251344D01*
X286160D01*
Y247344D01*
X282160D01*
X282960Y248144D02*
Y250544D01*
X285360D01*
Y248144D01*
X282960D01*
X283371Y315807D02*
Y319807D01*
X287371D01*
Y315807D01*
X283371D01*
X284172Y316607D02*
Y319007D01*
X286572D01*
Y316607D01*
X284172D01*
X266134Y327166D02*
Y331166D01*
X270134D01*
Y327166D01*
X266134D01*
X266934Y327966D02*
Y330366D01*
X269334D01*
Y327966D01*
X266934D01*
X276839Y323394D02*
Y327394D01*
X280839D01*
Y323394D01*
X276839D01*
X277639Y324194D02*
Y326594D01*
X280039D01*
Y324194D01*
X277639D01*
X292980Y302626D02*
Y306626D01*
X296980D01*
Y302626D01*
X292980D01*
X293780Y303426D02*
Y305826D01*
X296180D01*
Y303426D01*
X293780D01*
X290224Y194457D02*
Y198457D01*
X294224D01*
Y194457D01*
X290224D01*
X291024Y195257D02*
Y197657D01*
X293424D01*
Y195257D01*
X291024D01*
X295965Y86748D02*
Y90748D01*
X299964D01*
Y86748D01*
X295965D01*
X296764Y87548D02*
Y89948D01*
X299165D01*
Y87548D01*
X296764D01*
X309311Y112280D02*
Y116280D01*
X313311D01*
Y112280D01*
X309311D01*
X310110Y113080D02*
Y115480D01*
X312510D01*
Y113080D01*
X310110D01*
X310931Y128437D02*
Y132437D01*
X314931D01*
Y128437D01*
X310931D01*
X311731Y129237D02*
Y131637D01*
X314131D01*
Y129237D01*
X311731D01*
X317009Y123855D02*
Y127855D01*
X321009D01*
Y123855D01*
X317009D01*
X317809Y124655D02*
Y127055D01*
X320209D01*
Y124655D01*
X317809D01*
X303859Y110384D02*
Y114384D01*
X307859D01*
Y110384D01*
X303859D01*
X304659Y111184D02*
Y113584D01*
X307059D01*
Y111184D01*
X304659D01*
X257646Y126839D02*
Y130839D01*
X261646D01*
Y126839D01*
X257646D01*
X258446Y127639D02*
Y130039D01*
X260846D01*
Y127639D01*
X258446D01*
X256366Y130579D02*
Y134579D01*
X260366D01*
Y130579D01*
X256366D01*
X257166Y131379D02*
Y133779D01*
X259566D01*
Y131379D01*
X257166D01*
X65900Y79010D02*
Y83010D01*
X69900D01*
Y79010D01*
X65900D01*
X66700Y79810D02*
Y82210D01*
X69100D01*
Y79810D01*
X66700D01*
X75165Y86779D02*
Y90780D01*
X79165D01*
Y86779D01*
X75165D01*
X75965Y87580D02*
Y89979D01*
X78365D01*
Y87580D01*
X75965D01*
X70165Y75835D02*
Y79835D01*
X74165D01*
Y75835D01*
X70165D01*
X70965Y76635D02*
Y79035D01*
X73365D01*
Y76635D01*
X70965D01*
X85992Y97213D02*
Y101213D01*
X89992D01*
Y97213D01*
X85992D01*
X86792Y98013D02*
Y100413D01*
X89192D01*
Y98013D01*
X86792D01*
X87193Y94089D02*
Y98089D01*
X91193D01*
Y94089D01*
X87193D01*
X87993Y94889D02*
Y97289D01*
X90393D01*
Y94889D01*
X87993D01*
X118768Y94752D02*
Y98752D01*
X122768D01*
Y94752D01*
X118768D01*
X119568Y95552D02*
Y97952D01*
X121968D01*
Y95552D01*
X119568D01*
X8236Y110402D02*
Y114402D01*
X12236D01*
Y110402D01*
X8236D01*
X9036Y111202D02*
Y113602D01*
X11436D01*
Y111202D01*
X9036D01*
X250600Y346900D02*
Y350900D01*
X254600D01*
Y346900D01*
X250600D01*
X251400Y347700D02*
Y350100D01*
X253800D01*
Y347700D01*
X251400D01*
X244457Y362370D02*
Y366370D01*
X248457D01*
Y362370D01*
X244457D01*
X245257Y363170D02*
Y365570D01*
X247657D01*
Y363170D01*
X245257D01*
X201642Y332055D02*
Y336055D01*
X205642D01*
Y332055D01*
X201642D01*
X202442Y332855D02*
Y335255D01*
X204842D01*
Y332855D01*
X202442D01*
X209703Y338952D02*
Y342952D01*
X213703D01*
Y338952D01*
X209703D01*
X210503Y339752D02*
Y342152D01*
X212903D01*
Y339752D01*
X210503D01*
X378315Y378118D02*
Y382118D01*
X382315D01*
Y378118D01*
X378315D01*
X379115Y378918D02*
Y381318D01*
X381515D01*
Y378918D01*
X379115D01*
X363354Y356268D02*
Y360268D01*
X367354D01*
Y356268D01*
X363354D01*
X364154Y357068D02*
Y359468D01*
X366554D01*
Y357068D01*
X364154D01*
X375362Y356000D02*
Y360000D01*
X379362D01*
Y356000D01*
X375362D01*
X376162Y356800D02*
Y359200D01*
X378562D01*
Y356800D01*
X376162D01*
X346819Y378118D02*
Y382118D01*
X350819D01*
Y378118D01*
X346819D01*
X347619Y378918D02*
Y381318D01*
X350019D01*
Y378918D01*
X347619D01*
X338945Y378118D02*
Y382118D01*
X342945D01*
Y378118D01*
X338945D01*
X339745Y378918D02*
Y381318D01*
X342145D01*
Y378918D01*
X339745D01*
X342882Y354496D02*
Y358496D01*
X346882D01*
Y354496D01*
X342882D01*
X343682Y355296D02*
Y357696D01*
X346082D01*
Y355296D01*
X343682D01*
X379100Y324600D02*
Y328600D01*
X383100D01*
Y324600D01*
X379100D01*
X379900Y325400D02*
Y327800D01*
X382300D01*
Y325400D01*
X379900D01*
X370441Y346622D02*
Y350622D01*
X374441D01*
Y346622D01*
X370441D01*
X371241Y347422D02*
Y349822D01*
X373641D01*
Y347422D01*
X371241D01*
X336484Y373984D02*
Y377984D01*
X340484D01*
Y373984D01*
X336484D01*
X337284Y374784D02*
Y377184D01*
X339684D01*
Y374784D01*
X337284D01*
X331071Y378118D02*
Y382118D01*
X335071D01*
Y378118D01*
X331071D01*
X331871Y378918D02*
Y381318D01*
X334271D01*
Y378918D01*
X331871D01*
X303512Y354496D02*
Y358496D01*
X307512D01*
Y354496D01*
X303512D01*
X304312Y355296D02*
Y357696D01*
X306712D01*
Y355296D01*
X304312D01*
X299575Y346622D02*
Y350622D01*
X303575D01*
Y346622D01*
X299575D01*
X300375Y347422D02*
Y349822D01*
X302775D01*
Y347422D01*
X300375D01*
X295638Y370244D02*
Y374244D01*
X299638D01*
Y370244D01*
X295638D01*
X296438Y371044D02*
Y373444D01*
X298838D01*
Y371044D01*
X296438D01*
X287764Y370244D02*
Y374244D01*
X291764D01*
Y370244D01*
X287764D01*
X288564Y371044D02*
Y373444D01*
X290964D01*
Y371044D01*
X288564D01*
X283827Y378118D02*
Y382118D01*
X287827D01*
Y378118D01*
X283827D01*
X284627Y378918D02*
Y381318D01*
X287027D01*
Y378918D01*
X284627D01*
X279890Y370244D02*
Y374244D01*
X283890D01*
Y370244D01*
X279890D01*
X280690Y371044D02*
Y373444D01*
X283090D01*
Y371044D01*
X280690D01*
X295638Y354496D02*
Y358496D01*
X299638D01*
Y354496D01*
X295638D01*
X296438Y355296D02*
Y357696D01*
X298838D01*
Y355296D01*
X296438D01*
X287764Y354496D02*
Y358496D01*
X291764D01*
Y354496D01*
X287764D01*
X288564Y355296D02*
Y357696D01*
X290964D01*
Y355296D01*
X288564D01*
X279890Y354496D02*
Y358496D01*
X283890D01*
Y354496D01*
X279890D01*
X280690Y355296D02*
Y357696D01*
X283090D01*
Y355296D01*
X280690D01*
X281200Y346100D02*
Y350100D01*
X285200D01*
Y346100D01*
X281200D01*
X282000Y346900D02*
Y349300D01*
X284400D01*
Y346900D01*
X282000D01*
X382252Y307252D02*
Y311252D01*
X386252D01*
Y307252D01*
X382252D01*
X383052Y308052D02*
Y310452D01*
X385452D01*
Y308052D01*
X383052D01*
X378315Y315126D02*
Y319126D01*
X382315D01*
Y315126D01*
X378315D01*
X379115Y315926D02*
Y318326D01*
X381515D01*
Y315926D01*
X379115D01*
X370441Y283630D02*
Y287630D01*
X374441D01*
Y283630D01*
X370441D01*
X371241Y284430D02*
Y286830D01*
X373641D01*
Y284430D01*
X371241D01*
X354693Y299378D02*
Y303378D01*
X358693D01*
Y299378D01*
X354693D01*
X355493Y300178D02*
Y302578D01*
X357893D01*
Y300178D01*
X355493D01*
X358630Y291504D02*
Y295504D01*
X362630D01*
Y291504D01*
X358630D01*
X359430Y292304D02*
Y294704D01*
X361830D01*
Y292304D01*
X359430D01*
X338945Y299378D02*
Y303378D01*
X342945D01*
Y299378D01*
X338945D01*
X339745Y300178D02*
Y302578D01*
X342145D01*
Y300178D01*
X339745D01*
X335008Y307252D02*
Y311252D01*
X339008D01*
Y307252D01*
X335008D01*
X335808Y308052D02*
Y310452D01*
X338208D01*
Y308052D01*
X335808D01*
X346819Y299378D02*
Y303378D01*
X350819D01*
Y299378D01*
X346819D01*
X347619Y300178D02*
Y302578D01*
X350019D01*
Y300178D01*
X347619D01*
X354693Y283630D02*
Y287630D01*
X358693D01*
Y283630D01*
X354693D01*
X355493Y284430D02*
Y286830D01*
X357893D01*
Y284430D01*
X355493D01*
X358630Y275756D02*
Y279756D01*
X362630D01*
Y275756D01*
X358630D01*
X359430Y276556D02*
Y278956D01*
X361830D01*
Y276556D01*
X359430D01*
X338945Y283630D02*
Y287630D01*
X342945D01*
Y283630D01*
X338945D01*
X339745Y284430D02*
Y286830D01*
X342145D01*
Y284430D01*
X339745D01*
X346819Y283630D02*
Y287630D01*
X350819D01*
Y283630D01*
X346819D01*
X347619Y284430D02*
Y286830D01*
X350019D01*
Y284430D01*
X347619D01*
X382252Y275756D02*
Y279756D01*
X386252D01*
Y275756D01*
X382252D01*
X383052Y276556D02*
Y278956D01*
X385452D01*
Y276556D01*
X383052D01*
X390126Y244260D02*
Y248260D01*
X394126D01*
Y244260D01*
X390126D01*
X390926Y245060D02*
Y247460D01*
X393326D01*
Y245060D01*
X390926D01*
X386189Y252134D02*
Y256134D01*
X390189D01*
Y252134D01*
X386189D01*
X386989Y252934D02*
Y255334D01*
X389389D01*
Y252934D01*
X386989D01*
X378315Y220638D02*
Y224638D01*
X382315D01*
Y220638D01*
X378315D01*
X379115Y221438D02*
Y223838D01*
X381515D01*
Y221438D01*
X379115D01*
X370441Y267882D02*
Y271882D01*
X374441D01*
Y267882D01*
X370441D01*
X371241Y268682D02*
Y271082D01*
X373641D01*
Y268682D01*
X371241D01*
X358630Y228512D02*
Y232512D01*
X362630D01*
Y228512D01*
X358630D01*
X359430Y229312D02*
Y231712D01*
X361830D01*
Y229312D01*
X359430D01*
X370441Y220638D02*
Y224638D01*
X374441D01*
Y220638D01*
X370441D01*
X371241Y221438D02*
Y223838D01*
X373641D01*
Y221438D01*
X371241D01*
X358630Y260008D02*
Y264008D01*
X362630D01*
Y260008D01*
X358630D01*
X359430Y260808D02*
Y263208D01*
X361830D01*
Y260808D01*
X359430D01*
X354693Y267882D02*
Y271882D01*
X358693D01*
Y267882D01*
X354693D01*
X355493Y268682D02*
Y271082D01*
X357893D01*
Y268682D01*
X355493D01*
X346819Y252134D02*
Y256134D01*
X350819D01*
Y252134D01*
X346819D01*
X347619Y252934D02*
Y255334D01*
X350019D01*
Y252934D01*
X347619D01*
X346819Y267882D02*
Y271882D01*
X350819D01*
Y267882D01*
X346819D01*
X347619Y268682D02*
Y271082D01*
X350019D01*
Y268682D01*
X347619D01*
X338945Y267882D02*
Y271882D01*
X342945D01*
Y267882D01*
X338945D01*
X339745Y268682D02*
Y271082D01*
X342145D01*
Y268682D01*
X339745D01*
X338945Y252134D02*
Y256134D01*
X342945D01*
Y252134D01*
X338945D01*
X339745Y252934D02*
Y255334D01*
X342145D01*
Y252934D01*
X339745D01*
X358630Y244260D02*
Y248260D01*
X362630D01*
Y244260D01*
X358630D01*
X359430Y245060D02*
Y247460D01*
X361830D01*
Y245060D01*
X359430D01*
X354693Y252134D02*
Y256134D01*
X358693D01*
Y252134D01*
X354693D01*
X355493Y252934D02*
Y255334D01*
X357893D01*
Y252934D01*
X355493D01*
X354693Y236386D02*
Y240386D01*
X358693D01*
Y236386D01*
X354693D01*
X355493Y237186D02*
Y239586D01*
X357893D01*
Y237186D01*
X355493D01*
X346819Y236386D02*
Y240386D01*
X350819D01*
Y236386D01*
X346819D01*
X347619Y237186D02*
Y239586D01*
X350019D01*
Y237186D01*
X347619D01*
X335008Y228512D02*
Y232512D01*
X339008D01*
Y228512D01*
X335008D01*
X335808Y229312D02*
Y231712D01*
X338208D01*
Y229312D01*
X335808D01*
X327134Y307252D02*
Y311252D01*
X331134D01*
Y307252D01*
X327134D01*
X327934Y308052D02*
Y310452D01*
X330334D01*
Y308052D01*
X327934D01*
X315323Y283630D02*
Y287630D01*
X319323D01*
Y283630D01*
X315323D01*
X316123Y284430D02*
Y286830D01*
X318523D01*
Y284430D01*
X316123D01*
X331071Y283630D02*
Y287630D01*
X335071D01*
Y283630D01*
X331071D01*
X331871Y284430D02*
Y286830D01*
X334271D01*
Y284430D01*
X331871D01*
X315323Y299378D02*
Y303378D01*
X319323D01*
Y299378D01*
X315323D01*
X316123Y300178D02*
Y302578D01*
X318523D01*
Y300178D01*
X316123D01*
X311386Y291504D02*
Y295504D01*
X315386D01*
Y291504D01*
X311386D01*
X312186Y292304D02*
Y294704D01*
X314586D01*
Y292304D01*
X312186D01*
X335008Y275756D02*
Y279756D01*
X339008D01*
Y275756D01*
X335008D01*
X335808Y276556D02*
Y278956D01*
X338208D01*
Y276556D01*
X335808D01*
X327134Y275756D02*
Y279756D01*
X331134D01*
Y275756D01*
X327134D01*
X327934Y276556D02*
Y278956D01*
X330334D01*
Y276556D01*
X327934D01*
X331071Y267882D02*
Y271882D01*
X335071D01*
Y267882D01*
X331071D01*
X331871Y268682D02*
Y271082D01*
X334271D01*
Y268682D01*
X331871D01*
X311386Y275756D02*
Y279756D01*
X315386D01*
Y275756D01*
X311386D01*
X312186Y276556D02*
Y278956D01*
X314586D01*
Y276556D01*
X312186D01*
X307449Y267882D02*
Y271882D01*
X311449D01*
Y267882D01*
X307449D01*
X308249Y268682D02*
Y271082D01*
X310649D01*
Y268682D01*
X308249D01*
X315323Y267882D02*
Y271882D01*
X319323D01*
Y267882D01*
X315323D01*
X316123Y268682D02*
Y271082D01*
X318523D01*
Y268682D01*
X316123D01*
X291701Y315126D02*
Y319126D01*
X295701D01*
Y315126D01*
X291701D01*
X292501Y315926D02*
Y318326D01*
X294901D01*
Y315926D01*
X292501D01*
X287764Y307252D02*
Y311252D01*
X291764D01*
Y307252D01*
X287764D01*
X288564Y308052D02*
Y310452D01*
X290964D01*
Y308052D01*
X288564D01*
X327134Y260008D02*
Y264008D01*
X331134D01*
Y260008D01*
X327134D01*
X327934Y260808D02*
Y263208D01*
X330334D01*
Y260808D01*
X327934D01*
X311386Y260008D02*
Y264008D01*
X315386D01*
Y260008D01*
X311386D01*
X312186Y260808D02*
Y263208D01*
X314586D01*
Y260808D01*
X312186D01*
X335008Y260008D02*
Y264008D01*
X339008D01*
Y260008D01*
X335008D01*
X335808Y260808D02*
Y263208D01*
X338208D01*
Y260808D01*
X335808D01*
X335008Y244260D02*
Y248260D01*
X339008D01*
Y244260D01*
X335008D01*
X335808Y245060D02*
Y247460D01*
X338208D01*
Y245060D01*
X335808D01*
X331071Y252134D02*
Y256134D01*
X335071D01*
Y252134D01*
X331071D01*
X331871Y252934D02*
Y255334D01*
X334271D01*
Y252934D01*
X331871D01*
X331071Y236386D02*
Y240386D01*
X335071D01*
Y236386D01*
X331071D01*
X331871Y237186D02*
Y239586D01*
X334271D01*
Y237186D01*
X331871D01*
X319260Y228512D02*
Y232512D01*
X323260D01*
Y228512D01*
X319260D01*
X320060Y229312D02*
Y231712D01*
X322460D01*
Y229312D01*
X320060D01*
X319260Y244260D02*
Y248260D01*
X323260D01*
Y244260D01*
X319260D01*
X320060Y245060D02*
Y247460D01*
X322460D01*
Y245060D01*
X320060D01*
X327134Y228512D02*
Y232512D01*
X331134D01*
Y228512D01*
X327134D01*
X327934Y229312D02*
Y231712D01*
X330334D01*
Y229312D01*
X327934D01*
X275953Y378118D02*
Y382118D01*
X279953D01*
Y378118D01*
X275953D01*
X276753Y378918D02*
Y381318D01*
X279153D01*
Y378918D01*
X276753D01*
X272016Y354496D02*
Y358496D01*
X276016D01*
Y354496D01*
X272016D01*
X272816Y355296D02*
Y357696D01*
X275216D01*
Y355296D01*
X272816D01*
X272016Y370244D02*
Y374244D01*
X276016D01*
Y370244D01*
X272016D01*
X272816Y371044D02*
Y373444D01*
X275216D01*
Y371044D01*
X272816D01*
X268079Y378118D02*
Y382118D01*
X272079D01*
Y378118D01*
X268079D01*
X268879Y378918D02*
Y381318D01*
X271279D01*
Y378918D01*
X268879D01*
X268079Y362370D02*
Y366370D01*
X272079D01*
Y362370D01*
X268079D01*
X268879Y363170D02*
Y365570D01*
X271279D01*
Y363170D01*
X268879D01*
X268079Y330874D02*
Y334874D01*
X272079D01*
Y330874D01*
X268079D01*
X268879Y331674D02*
Y334074D01*
X271279D01*
Y331674D01*
X268879D01*
X232646Y370244D02*
Y374244D01*
X236646D01*
Y370244D01*
X232646D01*
X233446Y371044D02*
Y373444D01*
X235846D01*
Y371044D01*
X233446D01*
X260205Y362370D02*
Y366370D01*
X264205D01*
Y362370D01*
X260205D01*
X261005Y363170D02*
Y365570D01*
X263405D01*
Y363170D01*
X261005D01*
X228709Y378118D02*
Y382118D01*
X232709D01*
Y378118D01*
X228709D01*
X229509Y378918D02*
Y381318D01*
X231909D01*
Y378918D01*
X229509D01*
X224772Y370244D02*
Y374244D01*
X228772D01*
Y370244D01*
X224772D01*
X225572Y371044D02*
Y373444D01*
X227972D01*
Y371044D01*
X225572D01*
X228709Y362370D02*
Y366370D01*
X232709D01*
Y362370D01*
X228709D01*
X229509Y363170D02*
Y365570D01*
X231909D01*
Y363170D01*
X229509D01*
X260205Y315126D02*
Y319126D01*
X264205D01*
Y315126D01*
X260205D01*
X261005Y315926D02*
Y318326D01*
X263405D01*
Y315926D01*
X261005D01*
X220835Y378118D02*
Y382118D01*
X224835D01*
Y378118D01*
X220835D01*
X221635Y378918D02*
Y381318D01*
X224035D01*
Y378918D01*
X221635D01*
X216898Y370244D02*
Y374244D01*
X220898D01*
Y370244D01*
X216898D01*
X217698Y371044D02*
Y373444D01*
X220098D01*
Y371044D01*
X217698D01*
X220835Y362370D02*
Y366370D01*
X224835D01*
Y362370D01*
X220835D01*
X221635Y363170D02*
Y365570D01*
X224035D01*
Y363170D01*
X221635D01*
X209024Y370244D02*
Y374244D01*
X213024D01*
Y370244D01*
X209024D01*
X209824Y371044D02*
Y373444D01*
X212224D01*
Y371044D01*
X209824D01*
X197213Y362370D02*
Y366370D01*
X201213D01*
Y362370D01*
X197213D01*
X198013Y363170D02*
Y365570D01*
X200413D01*
Y363170D01*
X198013D01*
X196500Y366500D02*
Y370500D01*
X200500D01*
Y366500D01*
X196500D01*
X197300Y367300D02*
Y369700D01*
X199700D01*
Y367300D01*
X197300D01*
X205087Y362370D02*
Y366370D01*
X209087D01*
Y362370D01*
X205087D01*
X205887Y363170D02*
Y365570D01*
X208287D01*
Y363170D01*
X205887D01*
X193275Y338748D02*
Y342748D01*
X197275D01*
Y338748D01*
X193275D01*
X194076Y339548D02*
Y341948D01*
X196476D01*
Y339548D01*
X194076D01*
X201150Y323000D02*
Y327000D01*
X205150D01*
Y323000D01*
X201150D01*
X201950Y323800D02*
Y326200D01*
X204350D01*
Y323800D01*
X201950D01*
X197213Y330874D02*
Y334874D01*
X201213D01*
Y330874D01*
X197213D01*
X198013Y331674D02*
Y334074D01*
X200413D01*
Y331674D01*
X198013D01*
X193275Y323000D02*
Y327000D01*
X197275D01*
Y323000D01*
X193275D01*
X194076Y323800D02*
Y326200D01*
X196476D01*
Y323800D01*
X194076D01*
X248394Y275756D02*
Y279756D01*
X252394D01*
Y275756D01*
X248394D01*
X249194Y276556D02*
Y278956D01*
X251594D01*
Y276556D01*
X249194D01*
X244457Y267882D02*
Y271882D01*
X248457D01*
Y267882D01*
X244457D01*
X245257Y268682D02*
Y271082D01*
X247657D01*
Y268682D01*
X245257D01*
X268079Y252134D02*
Y256134D01*
X272079D01*
Y252134D01*
X268079D01*
X268879Y252934D02*
Y255334D01*
X271279D01*
Y252934D01*
X268879D01*
X248394Y260008D02*
Y264008D01*
X252394D01*
Y260008D01*
X248394D01*
X249194Y260808D02*
Y263208D01*
X251594D01*
Y260808D01*
X249194D01*
X232646Y260008D02*
Y264008D01*
X236646D01*
Y260008D01*
X232646D01*
X233446Y260808D02*
Y263208D01*
X235846D01*
Y260808D01*
X233446D01*
X240520Y260008D02*
Y264008D01*
X244520D01*
Y260008D01*
X240520D01*
X241320Y260808D02*
Y263208D01*
X243720D01*
Y260808D01*
X241320D01*
X248394Y244260D02*
Y248260D01*
X252394D01*
Y244260D01*
X248394D01*
X249194Y245060D02*
Y247460D01*
X251594D01*
Y245060D01*
X249194D01*
X240520Y244260D02*
Y248260D01*
X244520D01*
Y244260D01*
X240520D01*
X241320Y245060D02*
Y247460D01*
X243720D01*
Y245060D01*
X241320D01*
X244457Y236386D02*
Y240386D01*
X248457D01*
Y236386D01*
X244457D01*
X245257Y237186D02*
Y239586D01*
X247657D01*
Y237186D01*
X245257D01*
X232646Y244260D02*
Y248260D01*
X236646D01*
Y244260D01*
X232646D01*
X233446Y245060D02*
Y247460D01*
X235846D01*
Y245060D01*
X233446D01*
X236583Y220638D02*
Y224638D01*
X240583D01*
Y220638D01*
X236583D01*
X237383Y221438D02*
Y223838D01*
X239783D01*
Y221438D01*
X237383D01*
X228709Y220638D02*
Y224638D01*
X232709D01*
Y220638D01*
X228709D01*
X229509Y221438D02*
Y223838D01*
X231909D01*
Y221438D01*
X229509D01*
X224476Y305087D02*
Y309087D01*
X228476D01*
Y305087D01*
X224476D01*
X225276Y305887D02*
Y308287D01*
X227676D01*
Y305887D01*
X225276D01*
X224772Y291504D02*
Y295504D01*
X228772D01*
Y291504D01*
X224772D01*
X225572Y292304D02*
Y294704D01*
X227972D01*
Y292304D01*
X225572D01*
X224772Y275756D02*
Y279756D01*
X228772D01*
Y275756D01*
X224772D01*
X225572Y276556D02*
Y278956D01*
X227972D01*
Y276556D01*
X225572D01*
X220835Y252134D02*
Y256134D01*
X224835D01*
Y252134D01*
X220835D01*
X221635Y252934D02*
Y255334D01*
X224035D01*
Y252934D01*
X221635D01*
X220835Y267882D02*
Y271882D01*
X224835D01*
Y267882D01*
X220835D01*
X221635Y268682D02*
Y271082D01*
X224035D01*
Y268682D01*
X221635D01*
X197213Y283630D02*
Y287630D01*
X201213D01*
Y283630D01*
X197213D01*
X198013Y284430D02*
Y286830D01*
X200413D01*
Y284430D01*
X198013D01*
X193275Y291504D02*
Y295504D01*
X197275D01*
Y291504D01*
X193275D01*
X194076Y292304D02*
Y294704D01*
X196476D01*
Y292304D01*
X194076D01*
X193275Y275756D02*
Y279756D01*
X197275D01*
Y275756D01*
X193275D01*
X194076Y276556D02*
Y278956D01*
X196476D01*
Y276556D01*
X194076D01*
X189339Y299378D02*
Y303378D01*
X193339D01*
Y299378D01*
X189339D01*
X190138Y300178D02*
Y302578D01*
X192538D01*
Y300178D01*
X190138D01*
X185401Y307252D02*
Y311252D01*
X189401D01*
Y307252D01*
X185401D01*
X186202Y308052D02*
Y310452D01*
X188602D01*
Y308052D01*
X186202D01*
X185401Y291504D02*
Y295504D01*
X189401D01*
Y291504D01*
X185401D01*
X186202Y292304D02*
Y294704D01*
X188602D01*
Y292304D01*
X186202D01*
X197213Y267882D02*
Y271882D01*
X201213D01*
Y267882D01*
X197213D01*
X198013Y268682D02*
Y271082D01*
X200413D01*
Y268682D01*
X198013D01*
X193275Y260008D02*
Y264008D01*
X197275D01*
Y260008D01*
X193275D01*
X194076Y260808D02*
Y263208D01*
X196476D01*
Y260808D01*
X194076D01*
X220835Y236386D02*
Y240386D01*
X224835D01*
Y236386D01*
X220835D01*
X221635Y237186D02*
Y239586D01*
X224035D01*
Y237186D01*
X221635D01*
X224772Y228512D02*
Y232512D01*
X228772D01*
Y228512D01*
X224772D01*
X225572Y229312D02*
Y231712D01*
X227972D01*
Y229312D01*
X225572D01*
X220835Y220638D02*
Y224638D01*
X224835D01*
Y220638D01*
X220835D01*
X221635Y221438D02*
Y223838D01*
X224035D01*
Y221438D01*
X221635D01*
X199599Y245078D02*
Y249078D01*
X203599D01*
Y245078D01*
X199599D01*
X200399Y245878D02*
Y248278D01*
X202799D01*
Y245878D01*
X200399D01*
X382252Y181268D02*
Y185268D01*
X386252D01*
Y181268D01*
X382252D01*
X383052Y182068D02*
Y184468D01*
X385452D01*
Y182068D01*
X383052D01*
X382252Y212764D02*
Y216764D01*
X386252D01*
Y212764D01*
X382252D01*
X383052Y213564D02*
Y215964D01*
X385452D01*
Y213564D01*
X383052D01*
X382252Y165520D02*
Y169520D01*
X386252D01*
Y165520D01*
X382252D01*
X383052Y166320D02*
Y168720D01*
X385452D01*
Y166320D01*
X383052D01*
X374378Y212764D02*
Y216764D01*
X378378D01*
Y212764D01*
X374378D01*
X375178Y213564D02*
Y215964D01*
X377578D01*
Y213564D01*
X375178D01*
X374378Y165520D02*
Y169520D01*
X378378D01*
Y165520D01*
X374378D01*
X375178Y166320D02*
Y168720D01*
X377578D01*
Y166320D01*
X375178D01*
X390126Y149772D02*
Y153772D01*
X394126D01*
Y149772D01*
X390126D01*
X390926Y150572D02*
Y152972D01*
X393326D01*
Y150572D01*
X390926D01*
X378315Y157646D02*
Y161646D01*
X382315D01*
Y157646D01*
X378315D01*
X379115Y158446D02*
Y160846D01*
X381515D01*
Y158446D01*
X379115D01*
X382252Y134024D02*
Y138024D01*
X386252D01*
Y134024D01*
X382252D01*
X383052Y134824D02*
Y137224D01*
X385452D01*
Y134824D01*
X383052D01*
X362567Y173394D02*
Y177394D01*
X366567D01*
Y173394D01*
X362567D01*
X363367Y174194D02*
Y176594D01*
X365767D01*
Y174194D01*
X363367D01*
X370441Y157646D02*
Y161646D01*
X374441D01*
Y157646D01*
X370441D01*
X371241Y158446D02*
Y160846D01*
X373641D01*
Y158446D01*
X371241D01*
X362567Y141898D02*
Y145898D01*
X366567D01*
Y141898D01*
X362567D01*
X363367Y142698D02*
Y145098D01*
X365767D01*
Y142698D01*
X363367D01*
X362567Y157646D02*
Y161646D01*
X366567D01*
Y157646D01*
X362567D01*
X363367Y158446D02*
Y160846D01*
X365767D01*
Y158446D01*
X363367D01*
X350756Y149772D02*
Y153772D01*
X354756D01*
Y149772D01*
X350756D01*
X351556Y150572D02*
Y152972D01*
X353956D01*
Y150572D01*
X351556D01*
X382252Y118276D02*
Y122276D01*
X386252D01*
Y118276D01*
X382252D01*
X383052Y119076D02*
Y121476D01*
X385452D01*
Y119076D01*
X383052D01*
X374378Y118276D02*
Y122276D01*
X378378D01*
Y118276D01*
X374378D01*
X375178Y119076D02*
Y121476D01*
X377578D01*
Y119076D01*
X375178D01*
X382252Y102528D02*
Y106528D01*
X386252D01*
Y102528D01*
X382252D01*
X383052Y103328D02*
Y105728D01*
X385452D01*
Y103328D01*
X383052D01*
X378315Y110402D02*
Y114402D01*
X382315D01*
Y110402D01*
X378315D01*
X379115Y111202D02*
Y113602D01*
X381515D01*
Y111202D01*
X379115D01*
X374378Y102528D02*
Y106528D01*
X378378D01*
Y102528D01*
X374378D01*
X375178Y103328D02*
Y105728D01*
X377578D01*
Y103328D01*
X375178D01*
X362567Y110402D02*
Y114402D01*
X366567D01*
Y110402D01*
X362567D01*
X363367Y111202D02*
Y113602D01*
X365767D01*
Y111202D01*
X363367D01*
X362567Y126150D02*
Y130150D01*
X366567D01*
Y126150D01*
X362567D01*
X363367Y126950D02*
Y129350D01*
X365767D01*
Y126950D01*
X363367D01*
X358630Y102528D02*
Y106528D01*
X362630D01*
Y102528D01*
X358630D01*
X359430Y103328D02*
Y105728D01*
X361830D01*
Y103328D01*
X359430D01*
X335008Y212764D02*
Y216764D01*
X339008D01*
Y212764D01*
X335008D01*
X335808Y213564D02*
Y215964D01*
X338208D01*
Y213564D01*
X335808D01*
X327134Y212764D02*
Y216764D01*
X331134D01*
Y212764D01*
X327134D01*
X327934Y213564D02*
Y215964D01*
X330334D01*
Y213564D01*
X327934D01*
X319260Y212764D02*
Y216764D01*
X323260D01*
Y212764D01*
X319260D01*
X320060Y213564D02*
Y215964D01*
X322460D01*
Y213564D01*
X320060D01*
X331071Y204890D02*
Y208890D01*
X335071D01*
Y204890D01*
X331071D01*
X331871Y205690D02*
Y208090D01*
X334271D01*
Y205690D01*
X331871D01*
X332900Y195200D02*
Y199200D01*
X336900D01*
Y195200D01*
X332900D01*
X333700Y196000D02*
Y198400D01*
X336100D01*
Y196000D01*
X333700D01*
X319260Y197016D02*
Y201016D01*
X323260D01*
Y197016D01*
X319260D01*
X320060Y197816D02*
Y200216D01*
X322460D01*
Y197816D01*
X320060D01*
X315323Y189142D02*
Y193142D01*
X319323D01*
Y189142D01*
X315323D01*
X316123Y189942D02*
Y192342D01*
X318523D01*
Y189942D01*
X316123D01*
X342882Y165520D02*
Y169520D01*
X346882D01*
Y165520D01*
X342882D01*
X343682Y166320D02*
Y168720D01*
X346082D01*
Y166320D01*
X343682D01*
X319260Y86779D02*
Y90780D01*
X323260D01*
Y86779D01*
X319260D01*
X320060Y87580D02*
Y89979D01*
X322460D01*
Y87580D01*
X320060D01*
X310000Y87469D02*
Y91469D01*
X314000D01*
Y87469D01*
X310000D01*
X310800Y88269D02*
Y90669D01*
X313200D01*
Y88269D01*
X310800D01*
X378315Y78905D02*
Y82906D01*
X382315D01*
Y78905D01*
X378315D01*
X379115Y79706D02*
Y82105D01*
X381515D01*
Y79706D01*
X379115D01*
X378315Y63157D02*
Y67158D01*
X382315D01*
Y63157D01*
X378315D01*
X379115Y63958D02*
Y66357D01*
X381515D01*
Y63958D01*
X379115D01*
X382252Y39535D02*
Y43535D01*
X386252D01*
Y39535D01*
X382252D01*
X383052Y40335D02*
Y42735D01*
X385452D01*
Y40335D01*
X383052D01*
X358630Y55283D02*
Y59284D01*
X362630D01*
Y55283D01*
X358630D01*
X359430Y56084D02*
Y58483D01*
X361830D01*
Y56084D01*
X359430D01*
X350756Y71031D02*
Y75032D01*
X354756D01*
Y71031D01*
X350756D01*
X351556Y71832D02*
Y74231D01*
X353956D01*
Y71832D01*
X351556D01*
X390126Y8039D02*
Y12039D01*
X394126D01*
Y8039D01*
X390126D01*
X390926Y8839D02*
Y11239D01*
X393326D01*
Y8839D01*
X390926D01*
X378315Y31661D02*
Y35661D01*
X382315D01*
Y31661D01*
X378315D01*
X379115Y32461D02*
Y34861D01*
X381515D01*
Y32461D01*
X379115D01*
X386189Y165D02*
Y4165D01*
X390189D01*
Y165D01*
X386189D01*
X386989Y965D02*
Y3365D01*
X389389D01*
Y965D01*
X386989D01*
X374378Y23787D02*
Y27787D01*
X378378D01*
Y23787D01*
X374378D01*
X375178Y24587D02*
Y26987D01*
X377578D01*
Y24587D01*
X375178D01*
X366504Y23787D02*
Y27787D01*
X370504D01*
Y23787D01*
X366504D01*
X367304Y24587D02*
Y26987D01*
X369704D01*
Y24587D01*
X367304D01*
X350756Y23787D02*
Y27787D01*
X354756D01*
Y23787D01*
X350756D01*
X351556Y24587D02*
Y26987D01*
X353956D01*
Y24587D01*
X351556D01*
X350756Y8039D02*
Y12039D01*
X354756D01*
Y8039D01*
X350756D01*
X351556Y8839D02*
Y11239D01*
X353956D01*
Y8839D01*
X351556D01*
X307449Y78905D02*
Y82906D01*
X311449D01*
Y78905D01*
X307449D01*
X308249Y79706D02*
Y82105D01*
X310649D01*
Y79706D01*
X308249D01*
X304800Y76000D02*
Y80000D01*
X308800D01*
Y76000D01*
X304800D01*
X305600Y76800D02*
Y79200D01*
X308000D01*
Y76800D01*
X305600D01*
X327134Y55283D02*
Y59284D01*
X331134D01*
Y55283D01*
X327134D01*
X327934Y56084D02*
Y58483D01*
X330334D01*
Y56084D01*
X327934D01*
X323197Y47409D02*
Y51410D01*
X327197D01*
Y47409D01*
X323197D01*
X323997Y48209D02*
Y50609D01*
X326397D01*
Y48209D01*
X323997D01*
X347300Y26000D02*
Y30000D01*
X351300D01*
Y26000D01*
X347300D01*
X348100Y26800D02*
Y29200D01*
X350500D01*
Y26800D01*
X348100D01*
X342882Y8039D02*
Y12039D01*
X346882D01*
Y8039D01*
X342882D01*
X343682Y8839D02*
Y11239D01*
X346082D01*
Y8839D01*
X343682D01*
X342882Y23787D02*
Y27787D01*
X346882D01*
Y23787D01*
X342882D01*
X343682Y24587D02*
Y26987D01*
X346082D01*
Y24587D01*
X343682D01*
X327134Y23787D02*
Y27787D01*
X331134D01*
Y23787D01*
X327134D01*
X327934Y24587D02*
Y26987D01*
X330334D01*
Y24587D01*
X327934D01*
X327134Y8039D02*
Y12039D01*
X331134D01*
Y8039D01*
X327134D01*
X327934Y8839D02*
Y11239D01*
X330334D01*
Y8839D01*
X327934D01*
X319260Y8039D02*
Y12039D01*
X323260D01*
Y8039D01*
X319260D01*
X320060Y8839D02*
Y11239D01*
X322460D01*
Y8839D01*
X320060D01*
X335008Y8039D02*
Y12039D01*
X339008D01*
Y8039D01*
X335008D01*
X335808Y8839D02*
Y11239D01*
X338208D01*
Y8839D01*
X335808D01*
X311386Y8039D02*
Y12039D01*
X315386D01*
Y8039D01*
X311386D01*
X312186Y8839D02*
Y11239D01*
X314586D01*
Y8839D01*
X312186D01*
X260241Y189178D02*
Y193178D01*
X264241D01*
Y189178D01*
X260241D01*
X261041Y189978D02*
Y192378D01*
X263441D01*
Y189978D01*
X261041D01*
X271524Y141504D02*
Y145504D01*
X275524D01*
Y141504D01*
X271524D01*
X272324Y142304D02*
Y144704D01*
X274724D01*
Y142304D01*
X272324D01*
X279890Y134024D02*
Y138024D01*
X283890D01*
Y134024D01*
X279890D01*
X280690Y134824D02*
Y137224D01*
X283090D01*
Y134824D01*
X280690D01*
X252331Y141898D02*
Y145898D01*
X256331D01*
Y141898D01*
X252331D01*
X253131Y142698D02*
Y145098D01*
X255531D01*
Y142698D01*
X253131D01*
X258236Y141898D02*
Y145898D01*
X262236D01*
Y141898D01*
X258236D01*
X259036Y142698D02*
Y145098D01*
X261436D01*
Y142698D01*
X259036D01*
X224772Y181268D02*
Y185268D01*
X228772D01*
Y181268D01*
X224772D01*
X225572Y182068D02*
Y184468D01*
X227972D01*
Y182068D01*
X225572D01*
X224772Y212764D02*
Y216764D01*
X228772D01*
Y212764D01*
X224772D01*
X225572Y213564D02*
Y215964D01*
X227972D01*
Y213564D01*
X225572D01*
X216898Y181268D02*
Y185268D01*
X220898D01*
Y181268D01*
X216898D01*
X217698Y182068D02*
Y184468D01*
X220098D01*
Y182068D01*
X217698D01*
X232646Y165520D02*
Y169520D01*
X236646D01*
Y165520D01*
X232646D01*
X233446Y166320D02*
Y168720D01*
X235846D01*
Y166320D01*
X233446D01*
X228709Y173394D02*
Y177394D01*
X232709D01*
Y173394D01*
X228709D01*
X229509Y174194D02*
Y176594D01*
X231909D01*
Y174194D01*
X229509D01*
X220835Y173394D02*
Y177394D01*
X224835D01*
Y173394D01*
X220835D01*
X221635Y174194D02*
Y176594D01*
X224035D01*
Y174194D01*
X221635D01*
X212961Y173394D02*
Y177394D01*
X216961D01*
Y173394D01*
X212961D01*
X213761Y174194D02*
Y176594D01*
X216161D01*
Y174194D01*
X213761D01*
X212961Y157646D02*
Y161646D01*
X216961D01*
Y157646D01*
X212961D01*
X213761Y158446D02*
Y160846D01*
X216161D01*
Y158446D01*
X213761D01*
X212961Y189142D02*
Y193142D01*
X216961D01*
Y189142D01*
X212961D01*
X213761Y189942D02*
Y192342D01*
X216161D01*
Y189942D01*
X213761D01*
X209024Y197016D02*
Y201016D01*
X213024D01*
Y197016D01*
X209024D01*
X209824Y197816D02*
Y200216D01*
X212224D01*
Y197816D01*
X209824D01*
X209024Y181268D02*
Y185268D01*
X213024D01*
Y181268D01*
X209024D01*
X209824Y182068D02*
Y184468D01*
X212224D01*
Y182068D01*
X209824D01*
X205087Y189142D02*
Y193142D01*
X209087D01*
Y189142D01*
X205087D01*
X205887Y189942D02*
Y192342D01*
X208287D01*
Y189942D01*
X205887D01*
X201150Y181268D02*
Y185268D01*
X205150D01*
Y181268D01*
X201150D01*
X201950Y182068D02*
Y184468D01*
X204350D01*
Y182068D01*
X201950D01*
X205087Y173394D02*
Y177394D01*
X209087D01*
Y173394D01*
X205087D01*
X205887Y174194D02*
Y176594D01*
X208287D01*
Y174194D01*
X205887D01*
X248689Y152823D02*
Y156823D01*
X252689D01*
Y152823D01*
X248689D01*
X249489Y153623D02*
Y156023D01*
X251889D01*
Y153623D01*
X249489D01*
X244457Y157646D02*
Y161646D01*
X248457D01*
Y157646D01*
X244457D01*
X245257Y158446D02*
Y160846D01*
X247657D01*
Y158446D01*
X245257D01*
X236583Y141898D02*
Y145898D01*
X240583D01*
Y141898D01*
X236583D01*
X237383Y142698D02*
Y145098D01*
X239783D01*
Y142698D01*
X237383D01*
X240520Y134024D02*
Y138024D01*
X244520D01*
Y134024D01*
X240520D01*
X241320Y134824D02*
Y137224D01*
X243720D01*
Y134824D01*
X241320D01*
X232646Y149772D02*
Y153772D01*
X236646D01*
Y149772D01*
X232646D01*
X233446Y150572D02*
Y152972D01*
X235846D01*
Y150572D01*
X233446D01*
X228709Y141898D02*
Y145898D01*
X232709D01*
Y141898D01*
X228709D01*
X229509Y142698D02*
Y145098D01*
X231909D01*
Y142698D01*
X229509D01*
X232646Y134024D02*
Y138024D01*
X236646D01*
Y134024D01*
X232646D01*
X233446Y134824D02*
Y137224D01*
X235846D01*
Y134824D01*
X233446D01*
X212961Y141898D02*
Y145898D01*
X216961D01*
Y141898D01*
X212961D01*
X213761Y142698D02*
Y145098D01*
X216161D01*
Y142698D01*
X213761D01*
X209024Y149772D02*
Y153772D01*
X213024D01*
Y149772D01*
X209024D01*
X209824Y150572D02*
Y152972D01*
X212224D01*
Y150572D01*
X209824D01*
X220835Y141898D02*
Y145898D01*
X224835D01*
Y141898D01*
X220835D01*
X221635Y142698D02*
Y145098D01*
X224035D01*
Y142698D01*
X221635D01*
X201150Y149772D02*
Y153772D01*
X205150D01*
Y149772D01*
X201150D01*
X201950Y150572D02*
Y152972D01*
X204350D01*
Y150572D01*
X201950D01*
X205087Y141898D02*
Y145898D01*
X209087D01*
Y141898D01*
X205087D01*
X205887Y142698D02*
Y145098D01*
X208287D01*
Y142698D01*
X205887D01*
X216898Y134024D02*
Y138024D01*
X220898D01*
Y134024D01*
X216898D01*
X217698Y134824D02*
Y137224D01*
X220098D01*
Y134824D01*
X217698D01*
X209024Y134024D02*
Y138024D01*
X213024D01*
Y134024D01*
X209024D01*
X209824Y134824D02*
Y137224D01*
X212224D01*
Y134824D01*
X209824D01*
X224772Y134024D02*
Y138024D01*
X228772D01*
Y134024D01*
X224772D01*
X225572Y134824D02*
Y137224D01*
X227972D01*
Y134824D01*
X225572D01*
X201150Y134024D02*
Y138024D01*
X205150D01*
Y134024D01*
X201150D01*
X201950Y134824D02*
Y137224D01*
X204350D01*
Y134824D01*
X201950D01*
X270441Y118866D02*
Y122866D01*
X274441D01*
Y118866D01*
X270441D01*
X271241Y119666D02*
Y122066D01*
X273641D01*
Y119666D01*
X271241D01*
X268079Y103616D02*
Y107616D01*
X272079D01*
Y103616D01*
X268079D01*
X268879Y104416D02*
Y106816D01*
X271279D01*
Y104416D01*
X268879D01*
X283827Y15913D02*
Y19913D01*
X287827D01*
Y15913D01*
X283827D01*
X284627Y16713D02*
Y19113D01*
X287027D01*
Y16713D01*
X284627D01*
X287764Y8039D02*
Y12039D01*
X291764D01*
Y8039D01*
X287764D01*
X288564Y8839D02*
Y11239D01*
X290964D01*
Y8839D01*
X288564D01*
X275953Y15913D02*
Y19913D01*
X279953D01*
Y15913D01*
X275953D01*
X276753Y16713D02*
Y19113D01*
X279153D01*
Y16713D01*
X276753D01*
X279890Y8039D02*
Y12039D01*
X283890D01*
Y8039D01*
X279890D01*
X280690Y8839D02*
Y11239D01*
X283090D01*
Y8839D01*
X280690D01*
X252331Y63157D02*
Y67158D01*
X256331D01*
Y63157D01*
X252331D01*
X253131Y63958D02*
Y66357D01*
X255531D01*
Y63958D01*
X253131D01*
X268079Y15913D02*
Y19913D01*
X272079D01*
Y15913D01*
X268079D01*
X268879Y16713D02*
Y19113D01*
X271279D01*
Y16713D01*
X268879D01*
X264142Y8039D02*
Y12039D01*
X268142D01*
Y8039D01*
X264142D01*
X264942Y8839D02*
Y11239D01*
X267342D01*
Y8839D01*
X264942D01*
X252331Y165D02*
Y4165D01*
X256331D01*
Y165D01*
X252331D01*
X253131Y965D02*
Y3365D01*
X255531D01*
Y965D01*
X253131D01*
X228709Y126150D02*
Y130150D01*
X232709D01*
Y126150D01*
X228709D01*
X229509Y126950D02*
Y129350D01*
X231909D01*
Y126950D01*
X229509D01*
X212961Y126150D02*
Y130150D01*
X216961D01*
Y126150D01*
X212961D01*
X213761Y126950D02*
Y129350D01*
X216161D01*
Y126950D01*
X213761D01*
X232646Y55283D02*
Y59284D01*
X236646D01*
Y55283D01*
X232646D01*
X233446Y56084D02*
Y58483D01*
X235846D01*
Y56084D01*
X233446D01*
X232646Y71031D02*
Y75032D01*
X236646D01*
Y71031D01*
X232646D01*
X233446Y71832D02*
Y74231D01*
X235846D01*
Y71832D01*
X233446D01*
X248394Y55283D02*
Y59284D01*
X252394D01*
Y55283D01*
X248394D01*
X249194Y56084D02*
Y58483D01*
X251594D01*
Y56084D01*
X249194D01*
X216898Y71031D02*
Y75032D01*
X220898D01*
Y71031D01*
X216898D01*
X217698Y71832D02*
Y74231D01*
X220098D01*
Y71832D01*
X217698D01*
X209024Y71031D02*
Y75032D01*
X213024D01*
Y71031D01*
X209024D01*
X209824Y71832D02*
Y74231D01*
X212224D01*
Y71832D01*
X209824D01*
X216898Y55283D02*
Y59284D01*
X220898D01*
Y55283D01*
X216898D01*
X217698Y56084D02*
Y58483D01*
X220098D01*
Y56084D01*
X217698D01*
X185401Y86779D02*
Y90780D01*
X189401D01*
Y86779D01*
X185401D01*
X186202Y87580D02*
Y89979D01*
X188602D01*
Y87580D01*
X186202D01*
X185401Y118276D02*
Y122276D01*
X189401D01*
Y118276D01*
X185401D01*
X186202Y119076D02*
Y121476D01*
X188602D01*
Y119076D01*
X186202D01*
X193275Y86779D02*
Y90780D01*
X197275D01*
Y86779D01*
X193275D01*
X194076Y87580D02*
Y89979D01*
X196476D01*
Y87580D01*
X194076D01*
X201150Y71031D02*
Y75032D01*
X205150D01*
Y71031D01*
X201150D01*
X201950Y71832D02*
Y74231D01*
X204350D01*
Y71832D01*
X201950D01*
X201150Y55283D02*
Y59284D01*
X205150D01*
Y55283D01*
X201150D01*
X201950Y56084D02*
Y58483D01*
X204350D01*
Y56084D01*
X201950D01*
X193275Y71031D02*
Y75032D01*
X197275D01*
Y71031D01*
X193275D01*
X194076Y71832D02*
Y74231D01*
X196476D01*
Y71832D01*
X194076D01*
X185401Y55283D02*
Y59284D01*
X189401D01*
Y55283D01*
X185401D01*
X186202Y56084D02*
Y58483D01*
X188602D01*
Y56084D01*
X186202D01*
X220835Y47409D02*
Y51410D01*
X224835D01*
Y47409D01*
X220835D01*
X221635Y48209D02*
Y50609D01*
X224035D01*
Y48209D01*
X221635D01*
X212961Y47409D02*
Y51410D01*
X216961D01*
Y47409D01*
X212961D01*
X213761Y48209D02*
Y50609D01*
X216161D01*
Y48209D01*
X213761D01*
X216898Y8039D02*
Y12039D01*
X220898D01*
Y8039D01*
X216898D01*
X217698Y8839D02*
Y11239D01*
X220098D01*
Y8839D01*
X217698D01*
X209024Y8039D02*
Y12039D01*
X213024D01*
Y8039D01*
X209024D01*
X209824Y8839D02*
Y11239D01*
X212224D01*
Y8839D01*
X209824D01*
X209024Y55283D02*
Y59284D01*
X213024D01*
Y55283D01*
X209024D01*
X209824Y56084D02*
Y58483D01*
X212224D01*
Y56084D01*
X209824D01*
X205087Y47409D02*
Y51410D01*
X209087D01*
Y47409D01*
X205087D01*
X205887Y48209D02*
Y50609D01*
X208287D01*
Y48209D01*
X205887D01*
X197213Y47409D02*
Y51410D01*
X201213D01*
Y47409D01*
X197213D01*
X198013Y48209D02*
Y50609D01*
X200413D01*
Y48209D01*
X198013D01*
X185401Y39535D02*
Y43535D01*
X189401D01*
Y39535D01*
X185401D01*
X186202Y40335D02*
Y42735D01*
X188602D01*
Y40335D01*
X186202D01*
X197213Y31661D02*
Y35661D01*
X201213D01*
Y31661D01*
X197213D01*
X198013Y32461D02*
Y34861D01*
X200413D01*
Y32461D01*
X198013D01*
X193275Y23787D02*
Y27787D01*
X197275D01*
Y23787D01*
X193275D01*
X194076Y24587D02*
Y26987D01*
X196476D01*
Y24587D01*
X194076D01*
X189339Y31661D02*
Y35661D01*
X193339D01*
Y31661D01*
X189339D01*
X190138Y32461D02*
Y34861D01*
X192538D01*
Y32461D01*
X190138D01*
X185401Y23787D02*
Y27787D01*
X189401D01*
Y23787D01*
X185401D01*
X186202Y24587D02*
Y26987D01*
X188602D01*
Y24587D01*
X186202D01*
X181465Y378118D02*
Y382118D01*
X185465D01*
Y378118D01*
X181465D01*
X182264Y378918D02*
Y381318D01*
X184664D01*
Y378918D01*
X182264D01*
X177527Y370244D02*
Y374244D01*
X181527D01*
Y370244D01*
X177527D01*
X178328Y371044D02*
Y373444D01*
X180728D01*
Y371044D01*
X178328D01*
X181465Y362370D02*
Y366370D01*
X185465D01*
Y362370D01*
X181465D01*
X182264Y363170D02*
Y365570D01*
X184664D01*
Y363170D01*
X182264D01*
X173591Y378118D02*
Y382118D01*
X177591D01*
Y378118D01*
X173591D01*
X174390Y378918D02*
Y381318D01*
X176790D01*
Y378918D01*
X174390D01*
X169653Y370244D02*
Y374244D01*
X173653D01*
Y370244D01*
X169653D01*
X170454Y371044D02*
Y373444D01*
X172854D01*
Y371044D01*
X170454D01*
X165717Y362370D02*
Y366370D01*
X169717D01*
Y362370D01*
X165717D01*
X166516Y363170D02*
Y365570D01*
X168916D01*
Y363170D01*
X166516D01*
X173591Y346622D02*
Y350622D01*
X177591D01*
Y346622D01*
X173591D01*
X174390Y347422D02*
Y349822D01*
X176790D01*
Y347422D01*
X174390D01*
X169653Y338748D02*
Y342748D01*
X173653D01*
Y338748D01*
X169653D01*
X170454Y339548D02*
Y341948D01*
X172854D01*
Y339548D01*
X170454D01*
X169653Y354496D02*
Y358496D01*
X173653D01*
Y354496D01*
X169653D01*
X170454Y355296D02*
Y357696D01*
X172854D01*
Y355296D01*
X170454D01*
X165717Y346622D02*
Y350622D01*
X169717D01*
Y346622D01*
X165717D01*
X166516Y347422D02*
Y349822D01*
X168916D01*
Y347422D01*
X166516D01*
X165717Y330874D02*
Y334874D01*
X169717D01*
Y330874D01*
X165717D01*
X166516Y331674D02*
Y334074D01*
X168916D01*
Y331674D01*
X166516D01*
X157843Y362370D02*
Y366370D01*
X161843D01*
Y362370D01*
X157843D01*
X158642Y363170D02*
Y365570D01*
X161042D01*
Y363170D01*
X158642D01*
X153905Y354496D02*
Y358496D01*
X157905D01*
Y354496D01*
X153905D01*
X154705Y355296D02*
Y357696D01*
X157105D01*
Y355296D01*
X154705D01*
X161779Y354496D02*
Y358496D01*
X165779D01*
Y354496D01*
X161779D01*
X162580Y355296D02*
Y357696D01*
X164980D01*
Y355296D01*
X162580D01*
X153905Y370244D02*
Y374244D01*
X157905D01*
Y370244D01*
X153905D01*
X154705Y371044D02*
Y373444D01*
X157105D01*
Y371044D01*
X154705D01*
X146031Y370244D02*
Y374244D01*
X150031D01*
Y370244D01*
X146031D01*
X146831Y371044D02*
Y373444D01*
X149231D01*
Y371044D01*
X146831D01*
X142094Y362370D02*
Y366370D01*
X146094D01*
Y362370D01*
X142094D01*
X142894Y363170D02*
Y365570D01*
X145294D01*
Y363170D01*
X142894D01*
X161779Y338748D02*
Y342748D01*
X165779D01*
Y338748D01*
X161779D01*
X162580Y339548D02*
Y341948D01*
X164980D01*
Y339548D01*
X162580D01*
X157843Y346622D02*
Y350622D01*
X161843D01*
Y346622D01*
X157843D01*
X158642Y347422D02*
Y349822D01*
X161042D01*
Y347422D01*
X158642D01*
X157843Y330874D02*
Y334874D01*
X161843D01*
Y330874D01*
X157843D01*
X158642Y331674D02*
Y334074D01*
X161042D01*
Y331674D01*
X158642D01*
X149968Y346622D02*
Y350622D01*
X153968D01*
Y346622D01*
X149968D01*
X150768Y347422D02*
Y349822D01*
X153168D01*
Y347422D01*
X150768D01*
X142094Y346622D02*
Y350622D01*
X146094D01*
Y346622D01*
X142094D01*
X142894Y347422D02*
Y349822D01*
X145294D01*
Y347422D01*
X142894D01*
X138157Y338748D02*
Y342748D01*
X142157D01*
Y338748D01*
X138157D01*
X138957Y339548D02*
Y341948D01*
X141357D01*
Y339548D01*
X138957D01*
X181465Y315126D02*
Y319126D01*
X185465D01*
Y315126D01*
X181465D01*
X182264Y315926D02*
Y318326D01*
X184664D01*
Y315926D01*
X182264D01*
X165717Y299378D02*
Y303378D01*
X169717D01*
Y299378D01*
X165717D01*
X166516Y300178D02*
Y302578D01*
X168916D01*
Y300178D01*
X166516D01*
X161779Y323000D02*
Y327000D01*
X165779D01*
Y323000D01*
X161779D01*
X162580Y323800D02*
Y326200D01*
X164980D01*
Y323800D01*
X162580D01*
X153905Y323000D02*
Y327000D01*
X157905D01*
Y323000D01*
X153905D01*
X154705Y323800D02*
Y326200D01*
X157105D01*
Y323800D01*
X154705D01*
X157843Y315126D02*
Y319126D01*
X161843D01*
Y315126D01*
X157843D01*
X158642Y315926D02*
Y318326D01*
X161042D01*
Y315926D01*
X158642D01*
X146031Y323000D02*
Y327000D01*
X150031D01*
Y323000D01*
X146031D01*
X146831Y323800D02*
Y326200D01*
X149231D01*
Y323800D01*
X146831D01*
X142094Y315126D02*
Y319126D01*
X146094D01*
Y315126D01*
X142094D01*
X142894Y315926D02*
Y318326D01*
X145294D01*
Y315926D01*
X142894D01*
X149968Y315126D02*
Y319126D01*
X153968D01*
Y315126D01*
X149968D01*
X150768Y315926D02*
Y318326D01*
X153168D01*
Y315926D01*
X150768D01*
X165717Y315126D02*
Y319126D01*
X169717D01*
Y315126D01*
X165717D01*
X166516Y315926D02*
Y318326D01*
X168916D01*
Y315926D01*
X166516D01*
X153905Y307252D02*
Y311252D01*
X157905D01*
Y307252D01*
X153905D01*
X154705Y308052D02*
Y310452D01*
X157105D01*
Y308052D01*
X154705D01*
X161779Y307252D02*
Y311252D01*
X165779D01*
Y307252D01*
X161779D01*
X162580Y308052D02*
Y310452D01*
X164980D01*
Y308052D01*
X162580D01*
X138157Y307252D02*
Y311252D01*
X142157D01*
Y307252D01*
X138157D01*
X138957Y308052D02*
Y310452D01*
X141357D01*
Y308052D01*
X138957D01*
X146031Y307252D02*
Y311252D01*
X150031D01*
Y307252D01*
X146031D01*
X146831Y308052D02*
Y310452D01*
X149231D01*
Y308052D01*
X146831D01*
X134220Y378118D02*
Y382118D01*
X138220D01*
Y378118D01*
X134220D01*
X135020Y378918D02*
Y381318D01*
X137420D01*
Y378918D01*
X135020D01*
X126346Y378118D02*
Y382118D01*
X130346D01*
Y378118D01*
X126346D01*
X127146Y378918D02*
Y381318D01*
X129546D01*
Y378918D01*
X127146D01*
X122409Y370244D02*
Y374244D01*
X126409D01*
Y370244D01*
X122409D01*
X123209Y371044D02*
Y373444D01*
X125609D01*
Y371044D01*
X123209D01*
X118472Y378118D02*
Y382118D01*
X122472D01*
Y378118D01*
X118472D01*
X119272Y378918D02*
Y381318D01*
X121672D01*
Y378918D01*
X119272D01*
X114535Y370244D02*
Y374244D01*
X118535D01*
Y370244D01*
X114535D01*
X115335Y371044D02*
Y373444D01*
X117735D01*
Y371044D01*
X115335D01*
X134220Y346622D02*
Y350622D01*
X138220D01*
Y346622D01*
X134220D01*
X135020Y347422D02*
Y349822D01*
X137420D01*
Y347422D01*
X135020D01*
X130283Y370244D02*
Y374244D01*
X134283D01*
Y370244D01*
X130283D01*
X131083Y371044D02*
Y373444D01*
X133483D01*
Y371044D01*
X131083D01*
X130283Y338748D02*
Y342748D01*
X134283D01*
Y338748D01*
X130283D01*
X131083Y339548D02*
Y341948D01*
X133483D01*
Y339548D01*
X131083D01*
X126346Y346622D02*
Y350622D01*
X130346D01*
Y346622D01*
X126346D01*
X127146Y347422D02*
Y349822D01*
X129546D01*
Y347422D01*
X127146D01*
X118472Y362370D02*
Y366370D01*
X122472D01*
Y362370D01*
X118472D01*
X119272Y363170D02*
Y365570D01*
X121672D01*
Y363170D01*
X119272D01*
X122409Y338748D02*
Y342748D01*
X126409D01*
Y338748D01*
X122409D01*
X123209Y339548D02*
Y341948D01*
X125609D01*
Y339548D01*
X123209D01*
X106661Y370244D02*
Y374244D01*
X110661D01*
Y370244D01*
X106661D01*
X107461Y371044D02*
Y373444D01*
X109861D01*
Y371044D01*
X107461D01*
X98787Y370244D02*
Y374244D01*
X102787D01*
Y370244D01*
X98787D01*
X99587Y371044D02*
Y373444D01*
X101987D01*
Y371044D01*
X99587D01*
X94850Y362370D02*
Y366370D01*
X98850D01*
Y362370D01*
X94850D01*
X95650Y363170D02*
Y365570D01*
X98050D01*
Y363170D01*
X95650D01*
X110598Y362370D02*
Y366370D01*
X114598D01*
Y362370D01*
X110598D01*
X111398Y363170D02*
Y365570D01*
X113798D01*
Y363170D01*
X111398D01*
X102724Y362370D02*
Y366370D01*
X106724D01*
Y362370D01*
X102724D01*
X103524Y363170D02*
Y365570D01*
X105924D01*
Y363170D01*
X103524D01*
X102724Y346622D02*
Y350622D01*
X106724D01*
Y346622D01*
X102724D01*
X103524Y347422D02*
Y349822D01*
X105924D01*
Y347422D01*
X103524D01*
X94850Y346622D02*
Y350622D01*
X98850D01*
Y346622D01*
X94850D01*
X95650Y347422D02*
Y349822D01*
X98050D01*
Y347422D01*
X95650D01*
X98787Y338748D02*
Y342748D01*
X102787D01*
Y338748D01*
X98787D01*
X99587Y339548D02*
Y341948D01*
X101987D01*
Y339548D01*
X99587D01*
X134220Y330874D02*
Y334874D01*
X138220D01*
Y330874D01*
X134220D01*
X135020Y331674D02*
Y334074D01*
X137420D01*
Y331674D01*
X135020D01*
X130283Y323000D02*
Y327000D01*
X134283D01*
Y323000D01*
X130283D01*
X131083Y323800D02*
Y326200D01*
X133483D01*
Y323800D01*
X131083D01*
X138157Y323000D02*
Y327000D01*
X142157D01*
Y323000D01*
X138157D01*
X138957Y323800D02*
Y326200D01*
X141357D01*
Y323800D01*
X138957D01*
X126346Y330874D02*
Y334874D01*
X130346D01*
Y330874D01*
X126346D01*
X127146Y331674D02*
Y334074D01*
X129546D01*
Y331674D01*
X127146D01*
X118472Y330874D02*
Y334874D01*
X122472D01*
Y330874D01*
X118472D01*
X119272Y331674D02*
Y334074D01*
X121672D01*
Y331674D01*
X119272D01*
X122409Y323000D02*
Y327000D01*
X126409D01*
Y323000D01*
X122409D01*
X123209Y323800D02*
Y326200D01*
X125609D01*
Y323800D01*
X123209D01*
X134220Y315126D02*
Y319126D01*
X138220D01*
Y315126D01*
X134220D01*
X135020Y315926D02*
Y318326D01*
X137420D01*
Y315926D01*
X135020D01*
X126346Y315126D02*
Y319126D01*
X130346D01*
Y315126D01*
X126346D01*
X127146Y315926D02*
Y318326D01*
X129546D01*
Y315926D01*
X127146D01*
X130283Y307252D02*
Y311252D01*
X134283D01*
Y307252D01*
X130283D01*
X131083Y308052D02*
Y310452D01*
X133483D01*
Y308052D01*
X131083D01*
X118472Y315126D02*
Y319126D01*
X122472D01*
Y315126D01*
X118472D01*
X119272Y315926D02*
Y318326D01*
X121672D01*
Y315926D01*
X119272D01*
X114535Y307252D02*
Y311252D01*
X118535D01*
Y307252D01*
X114535D01*
X115335Y308052D02*
Y310452D01*
X117735D01*
Y308052D01*
X115335D01*
X122409Y307252D02*
Y311252D01*
X126409D01*
Y307252D01*
X122409D01*
X123209Y308052D02*
Y310452D01*
X125609D01*
Y308052D01*
X123209D01*
X110598Y330874D02*
Y334874D01*
X114598D01*
Y330874D01*
X110598D01*
X111398Y331674D02*
Y334074D01*
X113798D01*
Y331674D01*
X111398D01*
X106661Y323000D02*
Y327000D01*
X110661D01*
Y323000D01*
X106661D01*
X107461Y323800D02*
Y326200D01*
X109861D01*
Y323800D01*
X107461D01*
X114535Y323000D02*
Y327000D01*
X118535D01*
Y323000D01*
X114535D01*
X115335Y323800D02*
Y326200D01*
X117735D01*
Y323800D01*
X115335D01*
X98787Y323000D02*
Y327000D01*
X102787D01*
Y323000D01*
X98787D01*
X99587Y323800D02*
Y326200D01*
X101987D01*
Y323800D01*
X99587D01*
X94850Y315126D02*
Y319126D01*
X98850D01*
Y315126D01*
X94850D01*
X95650Y315926D02*
Y318326D01*
X98050D01*
Y315926D01*
X95650D01*
X110598Y315126D02*
Y319126D01*
X114598D01*
Y315126D01*
X110598D01*
X111398Y315926D02*
Y318326D01*
X113798D01*
Y315926D01*
X111398D01*
X106661Y307252D02*
Y311252D01*
X110661D01*
Y307252D01*
X106661D01*
X107461Y308052D02*
Y310452D01*
X109861D01*
Y308052D01*
X107461D01*
X102724Y299378D02*
Y303378D01*
X106724D01*
Y299378D01*
X102724D01*
X103524Y300178D02*
Y302578D01*
X105924D01*
Y300178D01*
X103524D01*
X102724Y315126D02*
Y319126D01*
X106724D01*
Y315126D01*
X102724D01*
X103524Y315926D02*
Y318326D01*
X105924D01*
Y315926D01*
X103524D01*
X98787Y307252D02*
Y311252D01*
X102787D01*
Y307252D01*
X98787D01*
X99587Y308052D02*
Y310452D01*
X101987D01*
Y308052D01*
X99587D01*
X181465Y299378D02*
Y303378D01*
X185465D01*
Y299378D01*
X181465D01*
X182264Y300178D02*
Y302578D01*
X184664D01*
Y300178D01*
X182264D01*
X161779Y291504D02*
Y295504D01*
X165779D01*
Y291504D01*
X161779D01*
X162580Y292304D02*
Y294704D01*
X164980D01*
Y292304D01*
X162580D01*
X161779Y275756D02*
Y279756D01*
X165779D01*
Y275756D01*
X161779D01*
X162580Y276556D02*
Y278956D01*
X164980D01*
Y276556D01*
X162580D01*
X183000Y264634D02*
Y268634D01*
X187000D01*
Y264634D01*
X183000D01*
X183800Y265434D02*
Y267834D01*
X186200D01*
Y265434D01*
X183800D01*
X165717Y267882D02*
Y271882D01*
X169717D01*
Y267882D01*
X165717D01*
X166516Y268682D02*
Y271082D01*
X168916D01*
Y268682D01*
X166516D01*
X181465Y267882D02*
Y271882D01*
X185465D01*
Y267882D01*
X181465D01*
X182264Y268682D02*
Y271082D01*
X184664D01*
Y268682D01*
X182264D01*
X153905Y291504D02*
Y295504D01*
X157905D01*
Y291504D01*
X153905D01*
X154705Y292304D02*
Y294704D01*
X157105D01*
Y292304D01*
X154705D01*
X146031Y275756D02*
Y279756D01*
X150031D01*
Y275756D01*
X146031D01*
X146831Y276556D02*
Y278956D01*
X149231D01*
Y276556D01*
X146831D01*
X153905Y275756D02*
Y279756D01*
X157905D01*
Y275756D01*
X153905D01*
X154705Y276556D02*
Y278956D01*
X157105D01*
Y276556D01*
X154705D01*
X146031Y291504D02*
Y295504D01*
X150031D01*
Y291504D01*
X146031D01*
X146831Y292304D02*
Y294704D01*
X149231D01*
Y292304D01*
X146831D01*
X138157Y291504D02*
Y295504D01*
X142157D01*
Y291504D01*
X138157D01*
X138957Y292304D02*
Y294704D01*
X141357D01*
Y292304D01*
X138957D01*
X138157Y275756D02*
Y279756D01*
X142157D01*
Y275756D01*
X138157D01*
X138957Y276556D02*
Y278956D01*
X141357D01*
Y276556D01*
X138957D01*
X149968Y267882D02*
Y271882D01*
X153968D01*
Y267882D01*
X149968D01*
X150768Y268682D02*
Y271082D01*
X153168D01*
Y268682D01*
X150768D01*
X142094Y267882D02*
Y271882D01*
X146094D01*
Y267882D01*
X142094D01*
X142894Y268682D02*
Y271082D01*
X145294D01*
Y268682D01*
X142894D01*
X157843Y267882D02*
Y271882D01*
X161843D01*
Y267882D01*
X157843D01*
X158642Y268682D02*
Y271082D01*
X161042D01*
Y268682D01*
X158642D01*
X134220Y267882D02*
Y271882D01*
X138220D01*
Y267882D01*
X134220D01*
X135020Y268682D02*
Y271082D01*
X137420D01*
Y268682D01*
X135020D01*
X138157Y260008D02*
Y264008D01*
X142157D01*
Y260008D01*
X138157D01*
X138957Y260808D02*
Y263208D01*
X141357D01*
Y260808D01*
X138957D01*
X181465Y252134D02*
Y256134D01*
X185465D01*
Y252134D01*
X181465D01*
X182264Y252934D02*
Y255334D01*
X184664D01*
Y252934D01*
X182264D01*
X161779Y260008D02*
Y264008D01*
X165779D01*
Y260008D01*
X161779D01*
X162580Y260808D02*
Y263208D01*
X164980D01*
Y260808D01*
X162580D01*
X165717Y252134D02*
Y256134D01*
X169717D01*
Y252134D01*
X165717D01*
X166516Y252934D02*
Y255334D01*
X168916D01*
Y252934D01*
X166516D01*
X181465Y236386D02*
Y240386D01*
X185465D01*
Y236386D01*
X181465D01*
X182264Y237186D02*
Y239586D01*
X184664D01*
Y237186D01*
X182264D01*
X165717Y236386D02*
Y240386D01*
X169717D01*
Y236386D01*
X165717D01*
X166516Y237186D02*
Y239586D01*
X168916D01*
Y237186D01*
X166516D01*
X161779Y228512D02*
Y232512D01*
X165779D01*
Y228512D01*
X161779D01*
X162580Y229312D02*
Y231712D01*
X164980D01*
Y229312D01*
X162580D01*
X169653Y228512D02*
Y232512D01*
X173653D01*
Y228512D01*
X169653D01*
X170454Y229312D02*
Y231712D01*
X172854D01*
Y229312D01*
X170454D01*
X153905Y260008D02*
Y264008D01*
X157905D01*
Y260008D01*
X153905D01*
X154705Y260808D02*
Y263208D01*
X157105D01*
Y260808D01*
X154705D01*
X149968Y236386D02*
Y240386D01*
X153968D01*
Y236386D01*
X149968D01*
X150768Y237186D02*
Y239586D01*
X153168D01*
Y237186D01*
X150768D01*
X157843Y236386D02*
Y240386D01*
X161843D01*
Y236386D01*
X157843D01*
X158642Y237186D02*
Y239586D01*
X161042D01*
Y237186D01*
X158642D01*
X146031Y260008D02*
Y264008D01*
X150031D01*
Y260008D01*
X146031D01*
X146831Y260808D02*
Y263208D01*
X149231D01*
Y260808D01*
X146831D01*
X142094Y236386D02*
Y240386D01*
X146094D01*
Y236386D01*
X142094D01*
X142894Y237186D02*
Y239586D01*
X145294D01*
Y237186D01*
X142894D01*
X138157Y228512D02*
Y232512D01*
X142157D01*
Y228512D01*
X138157D01*
X138957Y229312D02*
Y231712D01*
X141357D01*
Y229312D01*
X138957D01*
X153905Y228512D02*
Y232512D01*
X157905D01*
Y228512D01*
X153905D01*
X154705Y229312D02*
Y231712D01*
X157105D01*
Y229312D01*
X154705D01*
X146031Y228512D02*
Y232512D01*
X150031D01*
Y228512D01*
X146031D01*
X146831Y229312D02*
Y231712D01*
X149231D01*
Y229312D01*
X146831D01*
X134220Y220638D02*
Y224638D01*
X138220D01*
Y220638D01*
X134220D01*
X135020Y221438D02*
Y223838D01*
X137420D01*
Y221438D01*
X135020D01*
X126346Y299378D02*
Y303378D01*
X130346D01*
Y299378D01*
X126346D01*
X127146Y300178D02*
Y302578D01*
X129546D01*
Y300178D01*
X127146D01*
X122409Y291504D02*
Y295504D01*
X126409D01*
Y291504D01*
X122409D01*
X123209Y292304D02*
Y294704D01*
X125609D01*
Y292304D01*
X123209D01*
X130283Y275756D02*
Y279756D01*
X134283D01*
Y275756D01*
X130283D01*
X131083Y276556D02*
Y278956D01*
X133483D01*
Y276556D01*
X131083D01*
X118472Y299378D02*
Y303378D01*
X122472D01*
Y299378D01*
X118472D01*
X119272Y300178D02*
Y302578D01*
X121672D01*
Y300178D01*
X119272D01*
X114535Y291504D02*
Y295504D01*
X118535D01*
Y291504D01*
X114535D01*
X115335Y292304D02*
Y294704D01*
X117735D01*
Y292304D01*
X115335D01*
X122409Y260008D02*
Y264008D01*
X126409D01*
Y260008D01*
X122409D01*
X123209Y260808D02*
Y263208D01*
X125609D01*
Y260808D01*
X123209D01*
X130283Y260008D02*
Y264008D01*
X134283D01*
Y260008D01*
X130283D01*
X131083Y260808D02*
Y263208D01*
X133483D01*
Y260808D01*
X131083D01*
X114535Y260008D02*
Y264008D01*
X118535D01*
Y260008D01*
X114535D01*
X115335Y260808D02*
Y263208D01*
X117735D01*
Y260808D01*
X115335D01*
X110598Y252134D02*
Y256134D01*
X114598D01*
Y252134D01*
X110598D01*
X111398Y252934D02*
Y255334D01*
X113798D01*
Y252934D01*
X111398D01*
X110598Y299378D02*
Y303378D01*
X114598D01*
Y299378D01*
X110598D01*
X111398Y300178D02*
Y302578D01*
X113798D01*
Y300178D01*
X111398D01*
X98787Y291504D02*
Y295504D01*
X102787D01*
Y291504D01*
X98787D01*
X99587Y292304D02*
Y294704D01*
X101987D01*
Y292304D01*
X99587D01*
X106661Y291504D02*
Y295504D01*
X110661D01*
Y291504D01*
X106661D01*
X107461Y292304D02*
Y294704D01*
X109861D01*
Y292304D01*
X107461D01*
X110598Y283630D02*
Y287630D01*
X114598D01*
Y283630D01*
X110598D01*
X111398Y284430D02*
Y286830D01*
X113798D01*
Y284430D01*
X111398D01*
X102724Y283630D02*
Y287630D01*
X106724D01*
Y283630D01*
X102724D01*
X103524Y284430D02*
Y286830D01*
X105924D01*
Y284430D01*
X103524D01*
X98787Y260008D02*
Y264008D01*
X102787D01*
Y260008D01*
X98787D01*
X99587Y260808D02*
Y263208D01*
X101987D01*
Y260808D01*
X99587D01*
X94850Y283630D02*
Y287630D01*
X98850D01*
Y283630D01*
X94850D01*
X95650Y284430D02*
Y286830D01*
X98050D01*
Y284430D01*
X95650D01*
X94850Y252134D02*
Y256134D01*
X98850D01*
Y252134D01*
X94850D01*
X95650Y252934D02*
Y255334D01*
X98050D01*
Y252934D01*
X95650D01*
X118472Y252134D02*
Y256134D01*
X122472D01*
Y252134D01*
X118472D01*
X119272Y252934D02*
Y255334D01*
X121672D01*
Y252934D01*
X119272D01*
X134220Y236386D02*
Y240386D01*
X138220D01*
Y236386D01*
X134220D01*
X135020Y237186D02*
Y239586D01*
X137420D01*
Y237186D01*
X135020D01*
X98787Y244260D02*
Y248260D01*
X102787D01*
Y244260D01*
X98787D01*
X99587Y245060D02*
Y247460D01*
X101987D01*
Y245060D01*
X99587D01*
X106661Y244260D02*
Y248260D01*
X110661D01*
Y244260D01*
X106661D01*
X107461Y245060D02*
Y247460D01*
X109861D01*
Y245060D01*
X107461D01*
X114535Y244260D02*
Y248260D01*
X118535D01*
Y244260D01*
X114535D01*
X115335Y245060D02*
Y247460D01*
X117735D01*
Y245060D01*
X115335D01*
X110598Y236386D02*
Y240386D01*
X114598D01*
Y236386D01*
X110598D01*
X111398Y237186D02*
Y239586D01*
X113798D01*
Y237186D01*
X111398D01*
X102724Y236386D02*
Y240386D01*
X106724D01*
Y236386D01*
X102724D01*
X103524Y237186D02*
Y239586D01*
X105924D01*
Y237186D01*
X103524D01*
X94850Y220638D02*
Y224638D01*
X98850D01*
Y220638D01*
X94850D01*
X95650Y221438D02*
Y223838D01*
X98050D01*
Y221438D01*
X95650D01*
X75165Y385992D02*
Y389992D01*
X79165D01*
Y385992D01*
X75165D01*
X75965Y386792D02*
Y389192D01*
X78365D01*
Y386792D01*
X75965D01*
X71228Y378118D02*
Y382118D01*
X75228D01*
Y378118D01*
X71228D01*
X72028Y378918D02*
Y381318D01*
X74428D01*
Y378918D01*
X72028D01*
X79102Y378118D02*
Y382118D01*
X83102D01*
Y378118D01*
X79102D01*
X79902Y378918D02*
Y381318D01*
X82302D01*
Y378918D01*
X79902D01*
X67291Y385992D02*
Y389992D01*
X71291D01*
Y385992D01*
X67291D01*
X68091Y386792D02*
Y389192D01*
X70491D01*
Y386792D01*
X68091D01*
X63354Y378118D02*
Y382118D01*
X67354D01*
Y378118D01*
X63354D01*
X64154Y378918D02*
Y381318D01*
X66554D01*
Y378918D01*
X64154D01*
X75165Y370244D02*
Y374244D01*
X79165D01*
Y370244D01*
X75165D01*
X75965Y371044D02*
Y373444D01*
X78365D01*
Y371044D01*
X75965D01*
X67291Y370244D02*
Y374244D01*
X71291D01*
Y370244D01*
X67291D01*
X68091Y371044D02*
Y373444D01*
X70491D01*
Y371044D01*
X68091D01*
X90913Y338748D02*
Y342748D01*
X94913D01*
Y338748D01*
X90913D01*
X91713Y339548D02*
Y341948D01*
X94113D01*
Y339548D01*
X91713D01*
X63354Y346622D02*
Y350622D01*
X67354D01*
Y346622D01*
X63354D01*
X64154Y347422D02*
Y349822D01*
X66554D01*
Y347422D01*
X64154D01*
X59417Y385992D02*
Y389992D01*
X63417D01*
Y385992D01*
X59417D01*
X60217Y386792D02*
Y389192D01*
X62617D01*
Y386792D01*
X60217D01*
X55480Y378118D02*
Y382118D01*
X59480D01*
Y378118D01*
X55480D01*
X56280Y378918D02*
Y381318D01*
X58680D01*
Y378918D01*
X56280D01*
X51543Y385992D02*
Y389992D01*
X55543D01*
Y385992D01*
X51543D01*
X52343Y386792D02*
Y389192D01*
X54743D01*
Y386792D01*
X52343D01*
X47606Y378118D02*
Y382118D01*
X51606D01*
Y378118D01*
X47606D01*
X48406Y378918D02*
Y381318D01*
X50806D01*
Y378918D01*
X48406D01*
X59417Y370244D02*
Y374244D01*
X63417D01*
Y370244D01*
X59417D01*
X60217Y371044D02*
Y373444D01*
X62617D01*
Y371044D01*
X60217D01*
X51543Y370244D02*
Y374244D01*
X55543D01*
Y370244D01*
X51543D01*
X52343Y371044D02*
Y373444D01*
X54743D01*
Y371044D01*
X52343D01*
X51543Y338748D02*
Y342748D01*
X55543D01*
Y338748D01*
X51543D01*
X52343Y339548D02*
Y341948D01*
X54743D01*
Y339548D01*
X52343D01*
X47606Y362370D02*
Y366370D01*
X51606D01*
Y362370D01*
X47606D01*
X48406Y363170D02*
Y365570D01*
X50806D01*
Y363170D01*
X48406D01*
X43669Y370244D02*
Y374244D01*
X47669D01*
Y370244D01*
X43669D01*
X44469Y371044D02*
Y373444D01*
X46869D01*
Y371044D01*
X44469D01*
X47606Y346622D02*
Y350622D01*
X51606D01*
Y346622D01*
X47606D01*
X48406Y347422D02*
Y349822D01*
X50806D01*
Y347422D01*
X48406D01*
X83039Y338748D02*
Y342748D01*
X87039D01*
Y338748D01*
X83039D01*
X83839Y339548D02*
Y341948D01*
X86239D01*
Y339548D01*
X83839D01*
X75165Y338748D02*
Y342748D01*
X79165D01*
Y338748D01*
X75165D01*
X75965Y339548D02*
Y341948D01*
X78365D01*
Y339548D01*
X75965D01*
X67291Y338748D02*
Y342748D01*
X71291D01*
Y338748D01*
X67291D01*
X68091Y339548D02*
Y341948D01*
X70491D01*
Y339548D01*
X68091D01*
X79102Y330874D02*
Y334874D01*
X83102D01*
Y330874D01*
X79102D01*
X79902Y331674D02*
Y334074D01*
X82302D01*
Y331674D01*
X79902D01*
X75165Y323000D02*
Y327000D01*
X79165D01*
Y323000D01*
X75165D01*
X75965Y323800D02*
Y326200D01*
X78365D01*
Y323800D01*
X75965D01*
X71228Y315126D02*
Y319126D01*
X75228D01*
Y315126D01*
X71228D01*
X72028Y315926D02*
Y318326D01*
X74428D01*
Y315926D01*
X72028D01*
X59417Y338748D02*
Y342748D01*
X63417D01*
Y338748D01*
X59417D01*
X60217Y339548D02*
Y341948D01*
X62617D01*
Y339548D01*
X60217D01*
X47606Y330874D02*
Y334874D01*
X51606D01*
Y330874D01*
X47606D01*
X48406Y331674D02*
Y334074D01*
X50806D01*
Y331674D01*
X48406D01*
X43669Y323000D02*
Y327000D01*
X47669D01*
Y323000D01*
X43669D01*
X44469Y323800D02*
Y326200D01*
X46869D01*
Y323800D01*
X44469D01*
X63354Y315126D02*
Y319126D01*
X67354D01*
Y315126D01*
X63354D01*
X64154Y315926D02*
Y318326D01*
X66554D01*
Y315926D01*
X64154D01*
X51543Y323000D02*
Y327000D01*
X55543D01*
Y323000D01*
X51543D01*
X52343Y323800D02*
Y326200D01*
X54743D01*
Y323800D01*
X52343D01*
X47606Y315126D02*
Y319126D01*
X51606D01*
Y315126D01*
X47606D01*
X48406Y315926D02*
Y318326D01*
X50806D01*
Y315926D01*
X48406D01*
X35795Y385992D02*
Y389992D01*
X39795D01*
Y385992D01*
X35795D01*
X36595Y386792D02*
Y389192D01*
X38995D01*
Y386792D01*
X36595D01*
X20047Y385992D02*
Y389992D01*
X24047D01*
Y385992D01*
X20047D01*
X20847Y386792D02*
Y389192D01*
X23247D01*
Y386792D01*
X20847D01*
X27921Y385992D02*
Y389992D01*
X31921D01*
Y385992D01*
X27921D01*
X28721Y386792D02*
Y389192D01*
X31121D01*
Y386792D01*
X28721D01*
X43669Y385992D02*
Y389992D01*
X47669D01*
Y385992D01*
X43669D01*
X44469Y386792D02*
Y389192D01*
X46869D01*
Y386792D01*
X44469D01*
X39732Y378118D02*
Y382118D01*
X43732D01*
Y378118D01*
X39732D01*
X40532Y378918D02*
Y381318D01*
X42932D01*
Y378918D01*
X40532D01*
X27921Y370244D02*
Y374244D01*
X31921D01*
Y370244D01*
X27921D01*
X28721Y371044D02*
Y373444D01*
X31121D01*
Y371044D01*
X28721D01*
X20047Y370244D02*
Y374244D01*
X24047D01*
Y370244D01*
X20047D01*
X20847Y371044D02*
Y373444D01*
X23247D01*
Y371044D01*
X20847D01*
X23984Y362370D02*
Y366370D01*
X27984D01*
Y362370D01*
X23984D01*
X24784Y363170D02*
Y365570D01*
X27184D01*
Y363170D01*
X24784D01*
X12173Y385992D02*
Y389992D01*
X16173D01*
Y385992D01*
X12173D01*
X12973Y386792D02*
Y389192D01*
X15373D01*
Y386792D01*
X12973D01*
X4299Y385992D02*
Y389992D01*
X8299D01*
Y385992D01*
X4299D01*
X5099Y386792D02*
Y389192D01*
X7499D01*
Y386792D01*
X5099D01*
X8236Y362370D02*
Y366370D01*
X12236D01*
Y362370D01*
X8236D01*
X9036Y363170D02*
Y365570D01*
X11436D01*
Y363170D01*
X9036D01*
X16110Y362370D02*
Y366370D01*
X20110D01*
Y362370D01*
X16110D01*
X16910Y363170D02*
Y365570D01*
X19310D01*
Y363170D01*
X16910D01*
X362Y378118D02*
Y382118D01*
X4362D01*
Y378118D01*
X362D01*
X1162Y378918D02*
Y381318D01*
X3562D01*
Y378918D01*
X1162D01*
X8236Y378118D02*
Y382118D01*
X12236D01*
Y378118D01*
X8236D01*
X9036Y378918D02*
Y381318D01*
X11436D01*
Y378918D01*
X9036D01*
X39732Y346622D02*
Y350622D01*
X43732D01*
Y346622D01*
X39732D01*
X40532Y347422D02*
Y349822D01*
X42932D01*
Y347422D01*
X40532D01*
X35795Y338748D02*
Y342748D01*
X39795D01*
Y338748D01*
X35795D01*
X36595Y339548D02*
Y341948D01*
X38995D01*
Y339548D01*
X36595D01*
X43669Y338748D02*
Y342748D01*
X47669D01*
Y338748D01*
X43669D01*
X44469Y339548D02*
Y341948D01*
X46869D01*
Y339548D01*
X44469D01*
X31858Y362370D02*
Y366370D01*
X35858D01*
Y362370D01*
X31858D01*
X32658Y363170D02*
Y365570D01*
X35058D01*
Y363170D01*
X32658D01*
X23984Y346622D02*
Y350622D01*
X27984D01*
Y346622D01*
X23984D01*
X24784Y347422D02*
Y349822D01*
X27184D01*
Y347422D01*
X24784D01*
X39732Y330874D02*
Y334874D01*
X43732D01*
Y330874D01*
X39732D01*
X40532Y331674D02*
Y334074D01*
X42932D01*
Y331674D01*
X40532D01*
X35795Y323000D02*
Y327000D01*
X39795D01*
Y323000D01*
X35795D01*
X36595Y323800D02*
Y326200D01*
X38995D01*
Y323800D01*
X36595D01*
X39732Y315126D02*
Y319126D01*
X43732D01*
Y315126D01*
X39732D01*
X40532Y315926D02*
Y318326D01*
X42932D01*
Y315926D01*
X40532D01*
X23984Y330874D02*
Y334874D01*
X27984D01*
Y330874D01*
X23984D01*
X24784Y331674D02*
Y334074D01*
X27184D01*
Y331674D01*
X24784D01*
X20047Y354496D02*
Y358496D01*
X24047D01*
Y354496D01*
X20047D01*
X20847Y355296D02*
Y357696D01*
X23247D01*
Y355296D01*
X20847D01*
X16110Y346622D02*
Y350622D01*
X20110D01*
Y346622D01*
X16110D01*
X16910Y347422D02*
Y349822D01*
X19310D01*
Y347422D01*
X16910D01*
X20047Y338748D02*
Y342748D01*
X24047D01*
Y338748D01*
X20047D01*
X20847Y339548D02*
Y341948D01*
X23247D01*
Y339548D01*
X20847D01*
X12173Y354496D02*
Y358496D01*
X16173D01*
Y354496D01*
X12173D01*
X12973Y355296D02*
Y357696D01*
X15373D01*
Y355296D01*
X12973D01*
X8236Y346622D02*
Y350622D01*
X12236D01*
Y346622D01*
X8236D01*
X9036Y347422D02*
Y349822D01*
X11436D01*
Y347422D01*
X9036D01*
X12173Y338748D02*
Y342748D01*
X16173D01*
Y338748D01*
X12173D01*
X12973Y339548D02*
Y341948D01*
X15373D01*
Y339548D01*
X12973D01*
X16110Y330874D02*
Y334874D01*
X20110D01*
Y330874D01*
X16110D01*
X16910Y331674D02*
Y334074D01*
X19310D01*
Y331674D01*
X16910D01*
X12173Y323000D02*
Y327000D01*
X16173D01*
Y323000D01*
X12173D01*
X12973Y323800D02*
Y326200D01*
X15373D01*
Y323800D01*
X12973D01*
X20047Y323000D02*
Y327000D01*
X24047D01*
Y323000D01*
X20047D01*
X20847Y323800D02*
Y326200D01*
X23247D01*
Y323800D01*
X20847D01*
X8236Y330874D02*
Y334874D01*
X12236D01*
Y330874D01*
X8236D01*
X9036Y331674D02*
Y334074D01*
X11436D01*
Y331674D01*
X9036D01*
X8236Y315126D02*
Y319126D01*
X12236D01*
Y315126D01*
X8236D01*
X9036Y315926D02*
Y318326D01*
X11436D01*
Y315926D01*
X9036D01*
X90913Y291504D02*
Y295504D01*
X94913D01*
Y291504D01*
X90913D01*
X91713Y292304D02*
Y294704D01*
X94113D01*
Y292304D01*
X91713D01*
X90913Y307252D02*
Y311252D01*
X94913D01*
Y307252D01*
X90913D01*
X91713Y308052D02*
Y310452D01*
X94113D01*
Y308052D01*
X91713D01*
X86976Y283630D02*
Y287630D01*
X90976D01*
Y283630D01*
X86976D01*
X87776Y284430D02*
Y286830D01*
X90176D01*
Y284430D01*
X87776D01*
X83039Y291504D02*
Y295504D01*
X87039D01*
Y291504D01*
X83039D01*
X83839Y292304D02*
Y294704D01*
X86239D01*
Y292304D01*
X83839D01*
X83039Y307252D02*
Y311252D01*
X87039D01*
Y307252D01*
X83039D01*
X83839Y308052D02*
Y310452D01*
X86239D01*
Y308052D01*
X83839D01*
X79102Y283630D02*
Y287630D01*
X83102D01*
Y283630D01*
X79102D01*
X79902Y284430D02*
Y286830D01*
X82302D01*
Y284430D01*
X79902D01*
X83039Y275756D02*
Y279756D01*
X87039D01*
Y275756D01*
X83039D01*
X83839Y276556D02*
Y278956D01*
X86239D01*
Y276556D01*
X83839D01*
X75165Y275756D02*
Y279756D01*
X79165D01*
Y275756D01*
X75165D01*
X75965Y276556D02*
Y278956D01*
X78365D01*
Y276556D01*
X75965D01*
X75165Y291504D02*
Y295504D01*
X79165D01*
Y291504D01*
X75165D01*
X75965Y292304D02*
Y294704D01*
X78365D01*
Y292304D01*
X75965D01*
X59417Y307252D02*
Y311252D01*
X63417D01*
Y307252D01*
X59417D01*
X60217Y308052D02*
Y310452D01*
X62617D01*
Y308052D01*
X60217D01*
X59417Y291504D02*
Y295504D01*
X63417D01*
Y291504D01*
X59417D01*
X60217Y292304D02*
Y294704D01*
X62617D01*
Y292304D01*
X60217D01*
X67291Y275756D02*
Y279756D01*
X71291D01*
Y275756D01*
X67291D01*
X68091Y276556D02*
Y278956D01*
X70491D01*
Y276556D01*
X68091D01*
X71228Y267882D02*
Y271882D01*
X75228D01*
Y267882D01*
X71228D01*
X72028Y268682D02*
Y271082D01*
X74428D01*
Y268682D01*
X72028D01*
X59417Y275756D02*
Y279756D01*
X63417D01*
Y275756D01*
X59417D01*
X60217Y276556D02*
Y278956D01*
X62617D01*
Y276556D01*
X60217D01*
X86976Y267882D02*
Y271882D01*
X90976D01*
Y267882D01*
X86976D01*
X87776Y268682D02*
Y271082D01*
X90176D01*
Y268682D01*
X87776D01*
X83039Y260008D02*
Y264008D01*
X87039D01*
Y260008D01*
X83039D01*
X83839Y260808D02*
Y263208D01*
X86239D01*
Y260808D01*
X83839D01*
X90913Y260008D02*
Y264008D01*
X94913D01*
Y260008D01*
X90913D01*
X91713Y260808D02*
Y263208D01*
X94113D01*
Y260808D01*
X91713D01*
X79102Y267882D02*
Y271882D01*
X83102D01*
Y267882D01*
X79102D01*
X79902Y268682D02*
Y271082D01*
X82302D01*
Y268682D01*
X79902D01*
X83039Y228512D02*
Y232512D01*
X87039D01*
Y228512D01*
X83039D01*
X83839Y229312D02*
Y231712D01*
X86239D01*
Y229312D01*
X83839D01*
X75165Y228512D02*
Y232512D01*
X79165D01*
Y228512D01*
X75165D01*
X75965Y229312D02*
Y231712D01*
X78365D01*
Y229312D01*
X75965D01*
X63354Y252134D02*
Y256134D01*
X67354D01*
Y252134D01*
X63354D01*
X64154Y252934D02*
Y255334D01*
X66554D01*
Y252934D01*
X64154D01*
X63354Y267882D02*
Y271882D01*
X67354D01*
Y267882D01*
X63354D01*
X64154Y268682D02*
Y271082D01*
X66554D01*
Y268682D01*
X64154D01*
X59417Y244260D02*
Y248260D01*
X63417D01*
Y244260D01*
X59417D01*
X60217Y245060D02*
Y247460D01*
X62617D01*
Y245060D01*
X60217D01*
X59417Y260008D02*
Y264008D01*
X63417D01*
Y260008D01*
X59417D01*
X60217Y260808D02*
Y263208D01*
X62617D01*
Y260808D01*
X60217D01*
X51543Y260008D02*
Y264008D01*
X55543D01*
Y260008D01*
X51543D01*
X52343Y260808D02*
Y263208D01*
X54743D01*
Y260808D01*
X52343D01*
X51543Y244260D02*
Y248260D01*
X55543D01*
Y244260D01*
X51543D01*
X52343Y245060D02*
Y247460D01*
X54743D01*
Y245060D01*
X52343D01*
X67291Y228512D02*
Y232512D01*
X71291D01*
Y228512D01*
X67291D01*
X68091Y229312D02*
Y231712D01*
X70491D01*
Y229312D01*
X68091D01*
X63354Y220638D02*
Y224638D01*
X67354D01*
Y220638D01*
X63354D01*
X64154Y221438D02*
Y223838D01*
X66554D01*
Y221438D01*
X64154D01*
X71228Y220638D02*
Y224638D01*
X75228D01*
Y220638D01*
X71228D01*
X72028Y221438D02*
Y223838D01*
X74428D01*
Y221438D01*
X72028D01*
X51543Y228512D02*
Y232512D01*
X55543D01*
Y228512D01*
X51543D01*
X52343Y229312D02*
Y231712D01*
X54743D01*
Y229312D01*
X52343D01*
X59417Y228512D02*
Y232512D01*
X63417D01*
Y228512D01*
X59417D01*
X60217Y229312D02*
Y231712D01*
X62617D01*
Y229312D01*
X60217D01*
X51543Y307252D02*
Y311252D01*
X55543D01*
Y307252D01*
X51543D01*
X52343Y308052D02*
Y310452D01*
X54743D01*
Y308052D01*
X52343D01*
X47606Y299378D02*
Y303378D01*
X51606D01*
Y299378D01*
X47606D01*
X48406Y300178D02*
Y302578D01*
X50806D01*
Y300178D01*
X48406D01*
X51543Y291504D02*
Y295504D01*
X55543D01*
Y291504D01*
X51543D01*
X52343Y292304D02*
Y294704D01*
X54743D01*
Y292304D01*
X52343D01*
X43669Y307252D02*
Y311252D01*
X47669D01*
Y307252D01*
X43669D01*
X44469Y308052D02*
Y310452D01*
X46869D01*
Y308052D01*
X44469D01*
X39732Y299378D02*
Y303378D01*
X43732D01*
Y299378D01*
X39732D01*
X40532Y300178D02*
Y302578D01*
X42932D01*
Y300178D01*
X40532D01*
X43669Y291504D02*
Y295504D01*
X47669D01*
Y291504D01*
X43669D01*
X44469Y292304D02*
Y294704D01*
X46869D01*
Y292304D01*
X44469D01*
X51543Y275756D02*
Y279756D01*
X55543D01*
Y275756D01*
X51543D01*
X52343Y276556D02*
Y278956D01*
X54743D01*
Y276556D01*
X52343D01*
X47606Y283630D02*
Y287630D01*
X51606D01*
Y283630D01*
X47606D01*
X48406Y284430D02*
Y286830D01*
X50806D01*
Y284430D01*
X48406D01*
X47606Y267882D02*
Y271882D01*
X51606D01*
Y267882D01*
X47606D01*
X48406Y268682D02*
Y271082D01*
X50806D01*
Y268682D01*
X48406D01*
X43669Y275756D02*
Y279756D01*
X47669D01*
Y275756D01*
X43669D01*
X44469Y276556D02*
Y278956D01*
X46869D01*
Y276556D01*
X44469D01*
X39732Y283630D02*
Y287630D01*
X43732D01*
Y283630D01*
X39732D01*
X40532Y284430D02*
Y286830D01*
X42932D01*
Y284430D01*
X40532D01*
X39732Y267882D02*
Y271882D01*
X43732D01*
Y267882D01*
X39732D01*
X40532Y268682D02*
Y271082D01*
X42932D01*
Y268682D01*
X40532D01*
X35795Y307252D02*
Y311252D01*
X39795D01*
Y307252D01*
X35795D01*
X36595Y308052D02*
Y310452D01*
X38995D01*
Y308052D01*
X36595D01*
X23984Y299378D02*
Y303378D01*
X27984D01*
Y299378D01*
X23984D01*
X24784Y300178D02*
Y302578D01*
X27184D01*
Y300178D01*
X24784D01*
X35795Y291504D02*
Y295504D01*
X39795D01*
Y291504D01*
X35795D01*
X36595Y292304D02*
Y294704D01*
X38995D01*
Y292304D01*
X36595D01*
X23984Y283630D02*
Y287630D01*
X27984D01*
Y283630D01*
X23984D01*
X24784Y284430D02*
Y286830D01*
X27184D01*
Y284430D01*
X24784D01*
X20047Y275756D02*
Y279756D01*
X24047D01*
Y275756D01*
X20047D01*
X20847Y276556D02*
Y278956D01*
X23247D01*
Y276556D01*
X20847D01*
X16110Y283630D02*
Y287630D01*
X20110D01*
Y283630D01*
X16110D01*
X16910Y284430D02*
Y286830D01*
X19310D01*
Y284430D01*
X16910D01*
X12173Y275756D02*
Y279756D01*
X16173D01*
Y275756D01*
X12173D01*
X12973Y276556D02*
Y278956D01*
X15373D01*
Y276556D01*
X12973D01*
X47606Y252134D02*
Y256134D01*
X51606D01*
Y252134D01*
X47606D01*
X48406Y252934D02*
Y255334D01*
X50806D01*
Y252934D01*
X48406D01*
X43669Y260008D02*
Y264008D01*
X47669D01*
Y260008D01*
X43669D01*
X44469Y260808D02*
Y263208D01*
X46869D01*
Y260808D01*
X44469D01*
X43669Y244260D02*
Y248260D01*
X47669D01*
Y244260D01*
X43669D01*
X44469Y245060D02*
Y247460D01*
X46869D01*
Y245060D01*
X44469D01*
X39732Y252134D02*
Y256134D01*
X43732D01*
Y252134D01*
X39732D01*
X40532Y252934D02*
Y255334D01*
X42932D01*
Y252934D01*
X40532D01*
X27921Y260008D02*
Y264008D01*
X31921D01*
Y260008D01*
X27921D01*
X28721Y260808D02*
Y263208D01*
X31121D01*
Y260808D01*
X28721D01*
X23984Y236386D02*
Y240386D01*
X27984D01*
Y236386D01*
X23984D01*
X24784Y237186D02*
Y239586D01*
X27184D01*
Y237186D01*
X24784D01*
X47606Y236386D02*
Y240386D01*
X51606D01*
Y236386D01*
X47606D01*
X48406Y237186D02*
Y239586D01*
X50806D01*
Y237186D01*
X48406D01*
X43669Y228512D02*
Y232512D01*
X47669D01*
Y228512D01*
X43669D01*
X44469Y229312D02*
Y231712D01*
X46869D01*
Y229312D01*
X44469D01*
X47606Y220638D02*
Y224638D01*
X51606D01*
Y220638D01*
X47606D01*
X48406Y221438D02*
Y223838D01*
X50806D01*
Y221438D01*
X48406D01*
X39732Y236386D02*
Y240386D01*
X43732D01*
Y236386D01*
X39732D01*
X40532Y237186D02*
Y239586D01*
X42932D01*
Y237186D01*
X40532D01*
X23984Y220638D02*
Y224638D01*
X27984D01*
Y220638D01*
X23984D01*
X24784Y221438D02*
Y223838D01*
X27184D01*
Y221438D01*
X24784D01*
X39732Y220638D02*
Y224638D01*
X43732D01*
Y220638D01*
X39732D01*
X40532Y221438D02*
Y223838D01*
X42932D01*
Y221438D01*
X40532D01*
X23984Y252134D02*
Y256134D01*
X27984D01*
Y252134D01*
X23984D01*
X24784Y252934D02*
Y255334D01*
X27184D01*
Y252934D01*
X24784D01*
X20047Y244260D02*
Y248260D01*
X24047D01*
Y244260D01*
X20047D01*
X20847Y245060D02*
Y247460D01*
X23247D01*
Y245060D01*
X20847D01*
X20047Y228512D02*
Y232512D01*
X24047D01*
Y228512D01*
X20047D01*
X20847Y229312D02*
Y231712D01*
X23247D01*
Y229312D01*
X20847D01*
X12173Y228512D02*
Y232512D01*
X16173D01*
Y228512D01*
X12173D01*
X12973Y229312D02*
Y231712D01*
X15373D01*
Y229312D01*
X12973D01*
X16110Y220638D02*
Y224638D01*
X20110D01*
Y220638D01*
X16110D01*
X16910Y221438D02*
Y223838D01*
X19310D01*
Y221438D01*
X16910D01*
X161779Y197016D02*
Y201016D01*
X165779D01*
Y197016D01*
X161779D01*
X162580Y197816D02*
Y200216D01*
X164980D01*
Y197816D01*
X162580D01*
X169653Y197016D02*
Y201016D01*
X173653D01*
Y197016D01*
X169653D01*
X170454Y197816D02*
Y200216D01*
X172854D01*
Y197816D01*
X170454D01*
X181465Y189142D02*
Y193142D01*
X185465D01*
Y189142D01*
X181465D01*
X182264Y189942D02*
Y192342D01*
X184664D01*
Y189942D01*
X182264D01*
X165717Y189142D02*
Y193142D01*
X169717D01*
Y189142D01*
X165717D01*
X166516Y189942D02*
Y192342D01*
X168916D01*
Y189942D01*
X166516D01*
X177527Y181268D02*
Y185268D01*
X181527D01*
Y181268D01*
X177527D01*
X178328Y182068D02*
Y184468D01*
X180728D01*
Y182068D01*
X178328D01*
X157843Y189142D02*
Y193142D01*
X161843D01*
Y189142D01*
X157843D01*
X158642Y189942D02*
Y192342D01*
X161042D01*
Y189942D01*
X158642D01*
X161779Y181268D02*
Y185268D01*
X165779D01*
Y181268D01*
X161779D01*
X162580Y182068D02*
Y184468D01*
X164980D01*
Y182068D01*
X162580D01*
X153905Y197016D02*
Y201016D01*
X157905D01*
Y197016D01*
X153905D01*
X154705Y197816D02*
Y200216D01*
X157105D01*
Y197816D01*
X154705D01*
X146031Y197016D02*
Y201016D01*
X150031D01*
Y197016D01*
X146031D01*
X146831Y197816D02*
Y200216D01*
X149231D01*
Y197816D01*
X146831D01*
X138157Y212764D02*
Y216764D01*
X142157D01*
Y212764D01*
X138157D01*
X138957Y213564D02*
Y215964D01*
X141357D01*
Y213564D01*
X138957D01*
X142094Y189142D02*
Y193142D01*
X146094D01*
Y189142D01*
X142094D01*
X142894Y189942D02*
Y192342D01*
X145294D01*
Y189942D01*
X142894D01*
X153905Y181268D02*
Y185268D01*
X157905D01*
Y181268D01*
X153905D01*
X154705Y182068D02*
Y184468D01*
X157105D01*
Y182068D01*
X154705D01*
X149968Y189142D02*
Y193142D01*
X153968D01*
Y189142D01*
X149968D01*
X150768Y189942D02*
Y192342D01*
X153168D01*
Y189942D01*
X150768D01*
X130283Y181268D02*
Y185268D01*
X134283D01*
Y181268D01*
X130283D01*
X131083Y182068D02*
Y184468D01*
X133483D01*
Y182068D01*
X131083D01*
X146031Y181268D02*
Y185268D01*
X150031D01*
Y181268D01*
X146031D01*
X146831Y182068D02*
Y184468D01*
X149231D01*
Y182068D01*
X146831D01*
X181465Y173394D02*
Y177394D01*
X185465D01*
Y173394D01*
X181465D01*
X182264Y174194D02*
Y176594D01*
X184664D01*
Y174194D01*
X182264D01*
X177527Y165520D02*
Y169520D01*
X181527D01*
Y165520D01*
X177527D01*
X178328Y166320D02*
Y168720D01*
X180728D01*
Y166320D01*
X178328D01*
X173591Y157646D02*
Y161646D01*
X177591D01*
Y157646D01*
X173591D01*
X174390Y158446D02*
Y160846D01*
X176790D01*
Y158446D01*
X174390D01*
X165717Y173394D02*
Y177394D01*
X169717D01*
Y173394D01*
X165717D01*
X166516Y174194D02*
Y176594D01*
X168916D01*
Y174194D01*
X166516D01*
X157843Y173394D02*
Y177394D01*
X161843D01*
Y173394D01*
X157843D01*
X158642Y174194D02*
Y176594D01*
X161042D01*
Y174194D01*
X158642D01*
X173591Y173394D02*
Y177394D01*
X177591D01*
Y173394D01*
X173591D01*
X174390Y174194D02*
Y176594D01*
X176790D01*
Y174194D01*
X174390D01*
X181465Y157646D02*
Y161646D01*
X185465D01*
Y157646D01*
X181465D01*
X182264Y158446D02*
Y160846D01*
X184664D01*
Y158446D01*
X182264D01*
X177527Y149772D02*
Y153772D01*
X181527D01*
Y149772D01*
X177527D01*
X178328Y150572D02*
Y152972D01*
X180728D01*
Y150572D01*
X178328D01*
X181465Y141898D02*
Y145898D01*
X185465D01*
Y141898D01*
X181465D01*
X182264Y142698D02*
Y145098D01*
X184664D01*
Y142698D01*
X182264D01*
X157843Y141898D02*
Y145898D01*
X161843D01*
Y141898D01*
X157843D01*
X158642Y142698D02*
Y145098D01*
X161042D01*
Y142698D01*
X158642D01*
X153905Y149772D02*
Y153772D01*
X157905D01*
Y149772D01*
X153905D01*
X154705Y150572D02*
Y152972D01*
X157105D01*
Y150572D01*
X154705D01*
X173591Y141898D02*
Y145898D01*
X177591D01*
Y141898D01*
X173591D01*
X174390Y142698D02*
Y145098D01*
X176790D01*
Y142698D01*
X174390D01*
X149968Y173394D02*
Y177394D01*
X153968D01*
Y173394D01*
X149968D01*
X150768Y174194D02*
Y176594D01*
X153168D01*
Y174194D01*
X150768D01*
X146031Y165520D02*
Y169520D01*
X150031D01*
Y165520D01*
X146031D01*
X146831Y166320D02*
Y168720D01*
X149231D01*
Y166320D01*
X146831D01*
X153905Y165520D02*
Y169520D01*
X157905D01*
Y165520D01*
X153905D01*
X154705Y166320D02*
Y168720D01*
X157105D01*
Y166320D01*
X154705D01*
X142094Y173394D02*
Y177394D01*
X146094D01*
Y173394D01*
X142094D01*
X142894Y174194D02*
Y176594D01*
X145294D01*
Y174194D01*
X142894D01*
X130283Y165520D02*
Y169520D01*
X134283D01*
Y165520D01*
X130283D01*
X131083Y166320D02*
Y168720D01*
X133483D01*
Y166320D01*
X131083D01*
X142094Y157646D02*
Y161646D01*
X146094D01*
Y157646D01*
X142094D01*
X142894Y158446D02*
Y160846D01*
X145294D01*
Y158446D01*
X142894D01*
X149968Y157646D02*
Y161646D01*
X153968D01*
Y157646D01*
X149968D01*
X150768Y158446D02*
Y160846D01*
X153168D01*
Y158446D01*
X150768D01*
X146031Y149772D02*
Y153772D01*
X150031D01*
Y149772D01*
X146031D01*
X146831Y150572D02*
Y152972D01*
X149231D01*
Y150572D01*
X146831D01*
X149968Y141898D02*
Y145898D01*
X153968D01*
Y141898D01*
X149968D01*
X150768Y142698D02*
Y145098D01*
X153168D01*
Y142698D01*
X150768D01*
X130283Y149772D02*
Y153772D01*
X134283D01*
Y149772D01*
X130283D01*
X131083Y150572D02*
Y152972D01*
X133483D01*
Y150572D01*
X131083D01*
X142094Y141898D02*
Y145898D01*
X146094D01*
Y141898D01*
X142094D01*
X142894Y142698D02*
Y145098D01*
X145294D01*
Y142698D01*
X142894D01*
X130283Y212764D02*
Y216764D01*
X134283D01*
Y212764D01*
X130283D01*
X131083Y213564D02*
Y215964D01*
X133483D01*
Y213564D01*
X131083D01*
X130283Y197016D02*
Y201016D01*
X134283D01*
Y197016D01*
X130283D01*
X131083Y197816D02*
Y200216D01*
X133483D01*
Y197816D01*
X131083D01*
X122409Y197016D02*
Y201016D01*
X126409D01*
Y197016D01*
X122409D01*
X123209Y197816D02*
Y200216D01*
X125609D01*
Y197816D01*
X123209D01*
X126346Y189142D02*
Y193142D01*
X130346D01*
Y189142D01*
X126346D01*
X127146Y189942D02*
Y192342D01*
X129546D01*
Y189942D01*
X127146D01*
X114535Y197016D02*
Y201016D01*
X118535D01*
Y197016D01*
X114535D01*
X115335Y197816D02*
Y200216D01*
X117735D01*
Y197816D01*
X115335D01*
X110598Y189142D02*
Y193142D01*
X114598D01*
Y189142D01*
X110598D01*
X111398Y189942D02*
Y192342D01*
X113798D01*
Y189942D01*
X111398D01*
X118472Y189142D02*
Y193142D01*
X122472D01*
Y189142D01*
X118472D01*
X119272Y189942D02*
Y192342D01*
X121672D01*
Y189942D01*
X119272D01*
X106661Y212764D02*
Y216764D01*
X110661D01*
Y212764D01*
X106661D01*
X107461Y213564D02*
Y215964D01*
X109861D01*
Y213564D01*
X107461D01*
X102724Y204890D02*
Y208890D01*
X106724D01*
Y204890D01*
X102724D01*
X103524Y205690D02*
Y208090D01*
X105924D01*
Y205690D01*
X103524D01*
X98787Y212764D02*
Y216764D01*
X102787D01*
Y212764D01*
X98787D01*
X99587Y213564D02*
Y215964D01*
X101987D01*
Y213564D01*
X99587D01*
X94850Y204890D02*
Y208890D01*
X98850D01*
Y204890D01*
X94850D01*
X95650Y205690D02*
Y208090D01*
X98050D01*
Y205690D01*
X95650D01*
X106661Y197016D02*
Y201016D01*
X110661D01*
Y197016D01*
X106661D01*
X107461Y197816D02*
Y200216D01*
X109861D01*
Y197816D01*
X107461D01*
X98787Y197016D02*
Y201016D01*
X102787D01*
Y197016D01*
X98787D01*
X99587Y197816D02*
Y200216D01*
X101987D01*
Y197816D01*
X99587D01*
X94850Y189142D02*
Y193142D01*
X98850D01*
Y189142D01*
X94850D01*
X95650Y189942D02*
Y192342D01*
X98050D01*
Y189942D01*
X95650D01*
X122409Y181268D02*
Y185268D01*
X126409D01*
Y181268D01*
X122409D01*
X123209Y182068D02*
Y184468D01*
X125609D01*
Y182068D01*
X123209D01*
X118472Y173394D02*
Y177394D01*
X122472D01*
Y173394D01*
X118472D01*
X119272Y174194D02*
Y176594D01*
X121672D01*
Y174194D01*
X119272D01*
X126346Y173394D02*
Y177394D01*
X130346D01*
Y173394D01*
X126346D01*
X127146Y174194D02*
Y176594D01*
X129546D01*
Y174194D01*
X127146D01*
X114535Y181268D02*
Y185268D01*
X118535D01*
Y181268D01*
X114535D01*
X115335Y182068D02*
Y184468D01*
X117735D01*
Y182068D01*
X115335D01*
X106661Y181268D02*
Y185268D01*
X110661D01*
Y181268D01*
X106661D01*
X107461Y182068D02*
Y184468D01*
X109861D01*
Y182068D01*
X107461D01*
X110598Y173394D02*
Y177394D01*
X114598D01*
Y173394D01*
X110598D01*
X111398Y174194D02*
Y176594D01*
X113798D01*
Y174194D01*
X111398D01*
X118472Y141898D02*
Y145898D01*
X122472D01*
Y141898D01*
X118472D01*
X119272Y142698D02*
Y145098D01*
X121672D01*
Y142698D01*
X119272D01*
X114535Y149772D02*
Y153772D01*
X118535D01*
Y149772D01*
X114535D01*
X115335Y150572D02*
Y152972D01*
X117735D01*
Y150572D01*
X115335D01*
X126346Y141898D02*
Y145898D01*
X130346D01*
Y141898D01*
X126346D01*
X127146Y142698D02*
Y145098D01*
X129546D01*
Y142698D01*
X127146D01*
X114535Y165520D02*
Y169520D01*
X118535D01*
Y165520D01*
X114535D01*
X115335Y166320D02*
Y168720D01*
X117735D01*
Y166320D01*
X115335D01*
X106661Y165520D02*
Y169520D01*
X110661D01*
Y165520D01*
X106661D01*
X107461Y166320D02*
Y168720D01*
X109861D01*
Y166320D01*
X107461D01*
X102724Y173394D02*
Y177394D01*
X106724D01*
Y173394D01*
X102724D01*
X103524Y174194D02*
Y176594D01*
X105924D01*
Y174194D01*
X103524D01*
X102724Y189142D02*
Y193142D01*
X106724D01*
Y189142D01*
X102724D01*
X103524Y189942D02*
Y192342D01*
X105924D01*
Y189942D01*
X103524D01*
X102724Y141898D02*
Y145898D01*
X106724D01*
Y141898D01*
X102724D01*
X103524Y142698D02*
Y145098D01*
X105924D01*
Y142698D01*
X103524D01*
X94850Y141898D02*
Y145898D01*
X98850D01*
Y141898D01*
X94850D01*
X95650Y142698D02*
Y145098D01*
X98050D01*
Y142698D01*
X95650D01*
X181465Y126150D02*
Y130150D01*
X185465D01*
Y126150D01*
X181465D01*
X182264Y126950D02*
Y129350D01*
X184664D01*
Y126950D01*
X182264D01*
X177527Y134024D02*
Y138024D01*
X181527D01*
Y134024D01*
X177527D01*
X178328Y134824D02*
Y137224D01*
X180728D01*
Y134824D01*
X178328D01*
X177527Y118276D02*
Y122276D01*
X181527D01*
Y118276D01*
X177527D01*
X178328Y119076D02*
Y121476D01*
X180728D01*
Y119076D01*
X178328D01*
X173591Y126150D02*
Y130150D01*
X177591D01*
Y126150D01*
X173591D01*
X174390Y126950D02*
Y129350D01*
X176790D01*
Y126950D01*
X174390D01*
X169653Y134024D02*
Y138024D01*
X173653D01*
Y134024D01*
X169653D01*
X170454Y134824D02*
Y137224D01*
X172854D01*
Y134824D01*
X170454D01*
X169653Y118276D02*
Y122276D01*
X173653D01*
Y118276D01*
X169653D01*
X170454Y119076D02*
Y121476D01*
X172854D01*
Y119076D01*
X170454D01*
X177527Y71031D02*
Y75032D01*
X181527D01*
Y71031D01*
X177527D01*
X178328Y71832D02*
Y74231D01*
X180728D01*
Y71832D01*
X178328D01*
X177527Y86779D02*
Y90780D01*
X181527D01*
Y86779D01*
X177527D01*
X178328Y87580D02*
Y89979D01*
X180728D01*
Y87580D01*
X178328D01*
X173591Y63157D02*
Y67158D01*
X177591D01*
Y63157D01*
X173591D01*
X174390Y63958D02*
Y66357D01*
X176790D01*
Y63958D01*
X174390D01*
X169653Y71031D02*
Y75032D01*
X173653D01*
Y71031D01*
X169653D01*
X170454Y71832D02*
Y74231D01*
X172854D01*
Y71832D01*
X170454D01*
X165717Y63157D02*
Y67158D01*
X169717D01*
Y63157D01*
X165717D01*
X166516Y63958D02*
Y66357D01*
X168916D01*
Y63958D01*
X166516D01*
X165717Y126150D02*
Y130150D01*
X169717D01*
Y126150D01*
X165717D01*
X166516Y126950D02*
Y129350D01*
X168916D01*
Y126950D01*
X166516D01*
X149968Y126150D02*
Y130150D01*
X153968D01*
Y126150D01*
X149968D01*
X150768Y126950D02*
Y129350D01*
X153168D01*
Y126950D01*
X150768D01*
X161779Y118276D02*
Y122276D01*
X165779D01*
Y118276D01*
X161779D01*
X162580Y119076D02*
Y121476D01*
X164980D01*
Y119076D01*
X162580D01*
X146031Y118276D02*
Y122276D01*
X150031D01*
Y118276D01*
X146031D01*
X146831Y119076D02*
Y121476D01*
X149231D01*
Y119076D01*
X146831D01*
X142094Y126150D02*
Y130150D01*
X146094D01*
Y126150D01*
X142094D01*
X142894Y126950D02*
Y129350D01*
X145294D01*
Y126950D01*
X142894D01*
X149968Y63157D02*
Y67158D01*
X153968D01*
Y63157D01*
X149968D01*
X150768Y63958D02*
Y66357D01*
X153168D01*
Y63958D01*
X150768D01*
X146031Y55283D02*
Y59284D01*
X150031D01*
Y55283D01*
X146031D01*
X146831Y56084D02*
Y58483D01*
X149231D01*
Y56084D01*
X146831D01*
X181465Y47409D02*
Y51410D01*
X185465D01*
Y47409D01*
X181465D01*
X182264Y48209D02*
Y50609D01*
X184664D01*
Y48209D01*
X182264D01*
X177527Y39535D02*
Y43535D01*
X181527D01*
Y39535D01*
X177527D01*
X178328Y40335D02*
Y42735D01*
X180728D01*
Y40335D01*
X178328D01*
X177527Y55283D02*
Y59284D01*
X181527D01*
Y55283D01*
X177527D01*
X178328Y56084D02*
Y58483D01*
X180728D01*
Y56084D01*
X178328D01*
X173591Y47409D02*
Y51410D01*
X177591D01*
Y47409D01*
X173591D01*
X174390Y48209D02*
Y50609D01*
X176790D01*
Y48209D01*
X174390D01*
X169653Y39535D02*
Y43535D01*
X173653D01*
Y39535D01*
X169653D01*
X170454Y40335D02*
Y42735D01*
X172854D01*
Y40335D01*
X170454D01*
X177527Y23787D02*
Y27787D01*
X181527D01*
Y23787D01*
X177527D01*
X178328Y24587D02*
Y26987D01*
X180728D01*
Y24587D01*
X178328D01*
X173591Y31661D02*
Y35661D01*
X177591D01*
Y31661D01*
X173591D01*
X174390Y32461D02*
Y34861D01*
X176790D01*
Y32461D01*
X174390D01*
X169653Y23787D02*
Y27787D01*
X173653D01*
Y23787D01*
X169653D01*
X170454Y24587D02*
Y26987D01*
X172854D01*
Y24587D01*
X170454D01*
X149968Y47409D02*
Y51410D01*
X153968D01*
Y47409D01*
X149968D01*
X150768Y48209D02*
Y50609D01*
X153168D01*
Y48209D01*
X150768D01*
X142094Y47409D02*
Y51410D01*
X146094D01*
Y47409D01*
X142094D01*
X142894Y48209D02*
Y50609D01*
X145294D01*
Y48209D01*
X142894D01*
X146031Y39535D02*
Y43535D01*
X150031D01*
Y39535D01*
X146031D01*
X146831Y40335D02*
Y42735D01*
X149231D01*
Y40335D01*
X146831D01*
X165717Y31661D02*
Y35661D01*
X169717D01*
Y31661D01*
X165717D01*
X166516Y32461D02*
Y34861D01*
X168916D01*
Y32461D01*
X166516D01*
X161779Y23787D02*
Y27787D01*
X165779D01*
Y23787D01*
X161779D01*
X162580Y24587D02*
Y26987D01*
X164980D01*
Y24587D01*
X162580D01*
X165717Y15913D02*
Y19913D01*
X169717D01*
Y15913D01*
X165717D01*
X166516Y16713D02*
Y19113D01*
X168916D01*
Y16713D01*
X166516D01*
X146031Y23787D02*
Y27787D01*
X150031D01*
Y23787D01*
X146031D01*
X146831Y24587D02*
Y26987D01*
X149231D01*
Y24587D01*
X146831D01*
X157843Y15913D02*
Y19913D01*
X161843D01*
Y15913D01*
X157843D01*
X158642Y16713D02*
Y19113D01*
X161042D01*
Y16713D01*
X158642D01*
X134220Y126150D02*
Y130150D01*
X138220D01*
Y126150D01*
X134220D01*
X135020Y126950D02*
Y129350D01*
X137420D01*
Y126950D01*
X135020D01*
X130283Y118276D02*
Y122276D01*
X134283D01*
Y118276D01*
X130283D01*
X131083Y119076D02*
Y121476D01*
X133483D01*
Y119076D01*
X131083D01*
X138157Y118276D02*
Y122276D01*
X142157D01*
Y118276D01*
X138157D01*
X138957Y119076D02*
Y121476D01*
X141357D01*
Y119076D01*
X138957D01*
X126346Y126150D02*
Y130150D01*
X130346D01*
Y126150D01*
X126346D01*
X127146Y126950D02*
Y129350D01*
X129546D01*
Y126950D01*
X127146D01*
X114535Y134024D02*
Y138024D01*
X118535D01*
Y134024D01*
X114535D01*
X115335Y134824D02*
Y137224D01*
X117735D01*
Y134824D01*
X115335D01*
X122409Y118276D02*
Y122276D01*
X126409D01*
Y118276D01*
X122409D01*
X123209Y119076D02*
Y121476D01*
X125609D01*
Y119076D01*
X123209D01*
X102724Y126150D02*
Y130150D01*
X106724D01*
Y126150D01*
X102724D01*
X103524Y126950D02*
Y129350D01*
X105924D01*
Y126950D01*
X103524D01*
X98787Y134024D02*
Y138024D01*
X102787D01*
Y134024D01*
X98787D01*
X99587Y134824D02*
Y137224D01*
X101987D01*
Y134824D01*
X99587D01*
X94850Y126150D02*
Y130150D01*
X98850D01*
Y126150D01*
X94850D01*
X95650Y126950D02*
Y129350D01*
X98050D01*
Y126950D01*
X95650D01*
X94850Y94654D02*
Y98654D01*
X98850D01*
Y94654D01*
X94850D01*
X95650Y95454D02*
Y97854D01*
X98050D01*
Y95454D01*
X95650D01*
X138157Y23787D02*
Y27787D01*
X142157D01*
Y23787D01*
X138157D01*
X138957Y24587D02*
Y26987D01*
X141357D01*
Y24587D01*
X138957D01*
X134220Y47409D02*
Y51410D01*
X138220D01*
Y47409D01*
X134220D01*
X135020Y48209D02*
Y50609D01*
X137420D01*
Y48209D01*
X135020D01*
X130283Y39535D02*
Y43535D01*
X134283D01*
Y39535D01*
X130283D01*
X131083Y40335D02*
Y42735D01*
X133483D01*
Y40335D01*
X131083D01*
X130283Y23787D02*
Y27787D01*
X134283D01*
Y23787D01*
X130283D01*
X131083Y24587D02*
Y26987D01*
X133483D01*
Y24587D01*
X131083D01*
X94850Y78905D02*
Y82906D01*
X98850D01*
Y78905D01*
X94850D01*
X95650Y79706D02*
Y82105D01*
X98050D01*
Y79706D01*
X95650D01*
X94850Y63157D02*
Y67158D01*
X98850D01*
Y63157D01*
X94850D01*
X95650Y63958D02*
Y66357D01*
X98050D01*
Y63958D01*
X95650D01*
X122409Y23787D02*
Y27787D01*
X126409D01*
Y23787D01*
X122409D01*
X123209Y24587D02*
Y26987D01*
X125609D01*
Y24587D01*
X123209D01*
X110598Y15913D02*
Y19913D01*
X114598D01*
Y15913D01*
X110598D01*
X111398Y16713D02*
Y19113D01*
X113798D01*
Y16713D01*
X111398D01*
X118472Y15913D02*
Y19913D01*
X122472D01*
Y15913D01*
X118472D01*
X119272Y16713D02*
Y19113D01*
X121672D01*
Y16713D01*
X119272D01*
X102724Y31661D02*
Y35661D01*
X106724D01*
Y31661D01*
X102724D01*
X103524Y32461D02*
Y34861D01*
X105924D01*
Y32461D01*
X103524D01*
X102724Y15913D02*
Y19913D01*
X106724D01*
Y15913D01*
X102724D01*
X103524Y16713D02*
Y19113D01*
X105924D01*
Y16713D01*
X103524D01*
X90913Y197016D02*
Y201016D01*
X94913D01*
Y197016D01*
X90913D01*
X91713Y197816D02*
Y200216D01*
X94113D01*
Y197816D01*
X91713D01*
X90913Y212764D02*
Y216764D01*
X94913D01*
Y212764D01*
X90913D01*
X91713Y213564D02*
Y215964D01*
X94113D01*
Y213564D01*
X91713D01*
X75165Y212764D02*
Y216764D01*
X79165D01*
Y212764D01*
X75165D01*
X75965Y213564D02*
Y215964D01*
X78365D01*
Y213564D01*
X75965D01*
X71228Y204890D02*
Y208890D01*
X75228D01*
Y204890D01*
X71228D01*
X72028Y205690D02*
Y208090D01*
X74428D01*
Y205690D01*
X72028D01*
X75165Y197016D02*
Y201016D01*
X79165D01*
Y197016D01*
X75165D01*
X75965Y197816D02*
Y200216D01*
X78365D01*
Y197816D01*
X75965D01*
X75165Y181268D02*
Y185268D01*
X79165D01*
Y181268D01*
X75165D01*
X75965Y182068D02*
Y184468D01*
X78365D01*
Y182068D01*
X75965D01*
X71228Y189142D02*
Y193142D01*
X75228D01*
Y189142D01*
X71228D01*
X72028Y189942D02*
Y192342D01*
X74428D01*
Y189942D01*
X72028D01*
X75165Y149772D02*
Y153772D01*
X79165D01*
Y149772D01*
X75165D01*
X75965Y150572D02*
Y152972D01*
X78365D01*
Y150572D01*
X75965D01*
X67291Y197016D02*
Y201016D01*
X71291D01*
Y197016D01*
X67291D01*
X68091Y197816D02*
Y200216D01*
X70491D01*
Y197816D01*
X68091D01*
X67291Y212764D02*
Y216764D01*
X71291D01*
Y212764D01*
X67291D01*
X68091Y213564D02*
Y215964D01*
X70491D01*
Y213564D01*
X68091D01*
X63354Y189142D02*
Y193142D01*
X67354D01*
Y189142D01*
X63354D01*
X64154Y189942D02*
Y192342D01*
X66554D01*
Y189942D01*
X64154D01*
X63354Y204890D02*
Y208890D01*
X67354D01*
Y204890D01*
X63354D01*
X64154Y205690D02*
Y208090D01*
X66554D01*
Y205690D01*
X64154D01*
X59417Y212764D02*
Y216764D01*
X63417D01*
Y212764D01*
X59417D01*
X60217Y213564D02*
Y215964D01*
X62617D01*
Y213564D01*
X60217D01*
X59417Y197016D02*
Y201016D01*
X63417D01*
Y197016D01*
X59417D01*
X60217Y197816D02*
Y200216D01*
X62617D01*
Y197816D01*
X60217D01*
X67291Y181268D02*
Y185268D01*
X71291D01*
Y181268D01*
X67291D01*
X68091Y182068D02*
Y184468D01*
X70491D01*
Y182068D01*
X68091D01*
X59417Y165520D02*
Y169520D01*
X63417D01*
Y165520D01*
X59417D01*
X60217Y166320D02*
Y168720D01*
X62617D01*
Y166320D01*
X60217D01*
X67291Y165520D02*
Y169520D01*
X71291D01*
Y165520D01*
X67291D01*
X68091Y166320D02*
Y168720D01*
X70491D01*
Y166320D01*
X68091D01*
X51543Y181268D02*
Y185268D01*
X55543D01*
Y181268D01*
X51543D01*
X52343Y182068D02*
Y184468D01*
X54743D01*
Y182068D01*
X52343D01*
X59417Y181268D02*
Y185268D01*
X63417D01*
Y181268D01*
X59417D01*
X60217Y182068D02*
Y184468D01*
X62617D01*
Y182068D01*
X60217D01*
X86976Y141898D02*
Y145898D01*
X90976D01*
Y141898D01*
X86976D01*
X87776Y142698D02*
Y145098D01*
X90176D01*
Y142698D01*
X87776D01*
X83039Y134024D02*
Y138024D01*
X87039D01*
Y134024D01*
X83039D01*
X83839Y134824D02*
Y137224D01*
X86239D01*
Y134824D01*
X83839D01*
X79102Y141898D02*
Y145898D01*
X83102D01*
Y141898D01*
X79102D01*
X79902Y142698D02*
Y145098D01*
X82302D01*
Y142698D01*
X79902D01*
X90913Y134024D02*
Y138024D01*
X94913D01*
Y134024D01*
X90913D01*
X91713Y134824D02*
Y137224D01*
X94113D01*
Y134824D01*
X91713D01*
X86976Y126150D02*
Y130150D01*
X90976D01*
Y126150D01*
X86976D01*
X87776Y126950D02*
Y129350D01*
X90176D01*
Y126950D01*
X87776D01*
X79102Y126150D02*
Y130150D01*
X83102D01*
Y126150D01*
X79102D01*
X79902Y126950D02*
Y129350D01*
X82302D01*
Y126950D01*
X79902D01*
X71228Y141898D02*
Y145898D01*
X75228D01*
Y141898D01*
X71228D01*
X72028Y142698D02*
Y145098D01*
X74428D01*
Y142698D01*
X72028D01*
X67291Y134024D02*
Y138024D01*
X71291D01*
Y134024D01*
X67291D01*
X68091Y134824D02*
Y137224D01*
X70491D01*
Y134824D01*
X68091D01*
X75165Y134024D02*
Y138024D01*
X79165D01*
Y134024D01*
X75165D01*
X75965Y134824D02*
Y137224D01*
X78365D01*
Y134824D01*
X75965D01*
X67291Y149772D02*
Y153772D01*
X71291D01*
Y149772D01*
X67291D01*
X68091Y150572D02*
Y152972D01*
X70491D01*
Y150572D01*
X68091D01*
X63354Y141898D02*
Y145898D01*
X67354D01*
Y141898D01*
X63354D01*
X64154Y142698D02*
Y145098D01*
X66554D01*
Y142698D01*
X64154D01*
X59417Y134024D02*
Y138024D01*
X63417D01*
Y134024D01*
X59417D01*
X60217Y134824D02*
Y137224D01*
X62617D01*
Y134824D01*
X60217D01*
X71228Y126150D02*
Y130150D01*
X75228D01*
Y126150D01*
X71228D01*
X72028Y126950D02*
Y129350D01*
X74428D01*
Y126950D01*
X72028D01*
X67291Y118276D02*
Y122276D01*
X71291D01*
Y118276D01*
X67291D01*
X68091Y119076D02*
Y121476D01*
X70491D01*
Y119076D01*
X68091D01*
X75165Y118276D02*
Y122276D01*
X79165D01*
Y118276D01*
X75165D01*
X75965Y119076D02*
Y121476D01*
X78365D01*
Y119076D01*
X75965D01*
X63354Y126150D02*
Y130150D01*
X67354D01*
Y126150D01*
X63354D01*
X64154Y126950D02*
Y129350D01*
X66554D01*
Y126950D01*
X64154D01*
X59417Y118276D02*
Y122276D01*
X63417D01*
Y118276D01*
X59417D01*
X60217Y119076D02*
Y121476D01*
X62617D01*
Y119076D01*
X60217D01*
X51543Y212764D02*
Y216764D01*
X55543D01*
Y212764D01*
X51543D01*
X52343Y213564D02*
Y215964D01*
X54743D01*
Y213564D01*
X52343D01*
X47606Y204890D02*
Y208890D01*
X51606D01*
Y204890D01*
X47606D01*
X48406Y205690D02*
Y208090D01*
X50806D01*
Y205690D01*
X48406D01*
X43669Y197016D02*
Y201016D01*
X47669D01*
Y197016D01*
X43669D01*
X44469Y197816D02*
Y200216D01*
X46869D01*
Y197816D01*
X44469D01*
X43669Y212764D02*
Y216764D01*
X47669D01*
Y212764D01*
X43669D01*
X44469Y213564D02*
Y215964D01*
X46869D01*
Y213564D01*
X44469D01*
X23984Y204890D02*
Y208890D01*
X27984D01*
Y204890D01*
X23984D01*
X24784Y205690D02*
Y208090D01*
X27184D01*
Y205690D01*
X24784D01*
X39732Y204890D02*
Y208890D01*
X43732D01*
Y204890D01*
X39732D01*
X40532Y205690D02*
Y208090D01*
X42932D01*
Y205690D01*
X40532D01*
X51543Y197016D02*
Y201016D01*
X55543D01*
Y197016D01*
X51543D01*
X52343Y197816D02*
Y200216D01*
X54743D01*
Y197816D01*
X52343D01*
X47606Y189142D02*
Y193142D01*
X51606D01*
Y189142D01*
X47606D01*
X48406Y189942D02*
Y192342D01*
X50806D01*
Y189942D01*
X48406D01*
X43669Y165520D02*
Y169520D01*
X47669D01*
Y165520D01*
X43669D01*
X44469Y166320D02*
Y168720D01*
X46869D01*
Y166320D01*
X44469D01*
X39732Y189142D02*
Y193142D01*
X43732D01*
Y189142D01*
X39732D01*
X40532Y189942D02*
Y192342D01*
X42932D01*
Y189942D01*
X40532D01*
X23984Y189142D02*
Y193142D01*
X27984D01*
Y189142D01*
X23984D01*
X24784Y189942D02*
Y192342D01*
X27184D01*
Y189942D01*
X24784D01*
X43669Y181268D02*
Y185268D01*
X47669D01*
Y181268D01*
X43669D01*
X44469Y182068D02*
Y184468D01*
X46869D01*
Y182068D01*
X44469D01*
X8236Y173394D02*
Y177394D01*
X12236D01*
Y173394D01*
X8236D01*
X9036Y174194D02*
Y176594D01*
X11436D01*
Y174194D01*
X9036D01*
X16110Y173394D02*
Y177394D01*
X20110D01*
Y173394D01*
X16110D01*
X16910Y174194D02*
Y176594D01*
X19310D01*
Y174194D01*
X16910D01*
X51543Y165520D02*
Y169520D01*
X55543D01*
Y165520D01*
X51543D01*
X52343Y166320D02*
Y168720D01*
X54743D01*
Y166320D01*
X52343D01*
X27921Y165520D02*
Y169520D01*
X31921D01*
Y165520D01*
X27921D01*
X28721Y166320D02*
Y168720D01*
X31121D01*
Y166320D01*
X28721D01*
X51543Y149772D02*
Y153772D01*
X55543D01*
Y149772D01*
X51543D01*
X52343Y150572D02*
Y152972D01*
X54743D01*
Y150572D01*
X52343D01*
X20047Y149772D02*
Y153772D01*
X24047D01*
Y149772D01*
X20047D01*
X20847Y150572D02*
Y152972D01*
X23247D01*
Y150572D01*
X20847D01*
X20047Y134024D02*
Y138024D01*
X24047D01*
Y134024D01*
X20047D01*
X20847Y134824D02*
Y137224D01*
X23247D01*
Y134824D01*
X20847D01*
X51543Y134024D02*
Y138024D01*
X55543D01*
Y134024D01*
X51543D01*
X52343Y134824D02*
Y137224D01*
X54743D01*
Y134824D01*
X52343D01*
X47606Y126150D02*
Y130150D01*
X51606D01*
Y126150D01*
X47606D01*
X48406Y126950D02*
Y129350D01*
X50806D01*
Y126950D01*
X48406D01*
X51543Y118276D02*
Y122276D01*
X55543D01*
Y118276D01*
X51543D01*
X52343Y119076D02*
Y121476D01*
X54743D01*
Y119076D01*
X52343D01*
X20047Y118276D02*
Y122276D01*
X24047D01*
Y118276D01*
X20047D01*
X20847Y119076D02*
Y121476D01*
X23247D01*
Y119076D01*
X20847D01*
X8236Y157646D02*
Y161646D01*
X12236D01*
Y157646D01*
X8236D01*
X9036Y158446D02*
Y160846D01*
X11436D01*
Y158446D01*
X9036D01*
X16110Y126150D02*
Y130150D01*
X20110D01*
Y126150D01*
X16110D01*
X16910Y126950D02*
Y129350D01*
X19310D01*
Y126950D01*
X16910D01*
X8236Y126150D02*
Y130150D01*
X12236D01*
Y126150D01*
X8236D01*
X9036Y126950D02*
Y129350D01*
X11436D01*
Y126950D01*
X9036D01*
X75165Y102528D02*
Y106528D01*
X79165D01*
Y102528D01*
X75165D01*
X75965Y103328D02*
Y105728D01*
X78365D01*
Y103328D01*
X75965D01*
X86976Y78905D02*
Y82906D01*
X90976D01*
Y78905D01*
X86976D01*
X87776Y79706D02*
Y82105D01*
X90176D01*
Y79706D01*
X87776D01*
X79102Y78905D02*
Y82906D01*
X83102D01*
Y78905D01*
X79102D01*
X79902Y79706D02*
Y82105D01*
X82302D01*
Y79706D01*
X79902D01*
X75500Y77300D02*
Y81300D01*
X79500D01*
Y77300D01*
X75500D01*
X76300Y78100D02*
Y80500D01*
X78700D01*
Y78100D01*
X76300D01*
X71900Y108600D02*
Y112600D01*
X75900D01*
Y108600D01*
X71900D01*
X72700Y109400D02*
Y111800D01*
X75100D01*
Y109400D01*
X72700D01*
X47606Y110402D02*
Y114402D01*
X51606D01*
Y110402D01*
X47606D01*
X48406Y111202D02*
Y113602D01*
X50806D01*
Y111202D01*
X48406D01*
X43669Y102528D02*
Y106528D01*
X47669D01*
Y102528D01*
X43669D01*
X44469Y103328D02*
Y105728D01*
X46869D01*
Y103328D01*
X44469D01*
X63354Y94654D02*
Y98654D01*
X67354D01*
Y94654D01*
X63354D01*
X64154Y95454D02*
Y97854D01*
X66554D01*
Y95454D01*
X64154D01*
X90913Y55283D02*
Y59284D01*
X94913D01*
Y55283D01*
X90913D01*
X91713Y56084D02*
Y58483D01*
X94113D01*
Y56084D01*
X91713D01*
X59417Y23787D02*
Y27787D01*
X63417D01*
Y23787D01*
X59417D01*
X60217Y24587D02*
Y26987D01*
X62617D01*
Y24587D01*
X60217D01*
X23984Y94654D02*
Y98654D01*
X27984D01*
Y94654D01*
X23984D01*
X24784Y95454D02*
Y97854D01*
X27184D01*
Y95454D01*
X24784D01*
X31858Y78905D02*
Y82906D01*
X35858D01*
Y78905D01*
X31858D01*
X32658Y79706D02*
Y82105D01*
X35058D01*
Y79706D01*
X32658D01*
X27921Y71031D02*
Y75032D01*
X31921D01*
Y71031D01*
X27921D01*
X28721Y71832D02*
Y74231D01*
X31121D01*
Y71832D01*
X28721D01*
X35795Y55283D02*
Y59284D01*
X39795D01*
Y55283D01*
X35795D01*
X36595Y56084D02*
Y58483D01*
X38995D01*
Y56084D01*
X36595D01*
X20047Y55283D02*
Y59284D01*
X24047D01*
Y55283D01*
X20047D01*
X20847Y56084D02*
Y58483D01*
X23247D01*
Y56084D01*
X20847D01*
X16110Y78905D02*
Y82906D01*
X20110D01*
Y78905D01*
X16110D01*
X16910Y79706D02*
Y82105D01*
X19310D01*
Y79706D01*
X16910D01*
X12173Y55283D02*
Y59284D01*
X16173D01*
Y55283D01*
X12173D01*
X12973Y56084D02*
Y58483D01*
X15373D01*
Y56084D01*
X12973D01*
X16110Y47409D02*
Y51410D01*
X20110D01*
Y47409D01*
X16110D01*
X16910Y48209D02*
Y50609D01*
X19310D01*
Y48209D01*
X16910D01*
X8236Y63157D02*
Y67158D01*
X12236D01*
Y63157D01*
X8236D01*
X9036Y63958D02*
Y66357D01*
X11436D01*
Y63958D01*
X9036D01*
X8236Y47409D02*
Y51410D01*
X12236D01*
Y47409D01*
X8236D01*
X9036Y48209D02*
Y50609D01*
X11436D01*
Y48209D01*
X9036D01*
X35795Y23787D02*
Y27787D01*
X39795D01*
Y23787D01*
X35795D01*
X36595Y24587D02*
Y26987D01*
X38995D01*
Y24587D01*
X36595D01*
X27921Y8039D02*
Y12039D01*
X31921D01*
Y8039D01*
X27921D01*
X28721Y8839D02*
Y11239D01*
X31121D01*
Y8839D01*
X28721D01*
X12173Y39535D02*
Y43535D01*
X16173D01*
Y39535D01*
X12173D01*
X12973Y40335D02*
Y42735D01*
X15373D01*
Y40335D01*
X12973D01*
X8236Y31661D02*
Y35661D01*
X12236D01*
Y31661D01*
X8236D01*
X9036Y32461D02*
Y34861D01*
X11436D01*
Y32461D01*
X9036D01*
X16110Y165D02*
Y4165D01*
X20110D01*
Y165D01*
X16110D01*
X16910Y965D02*
Y3365D01*
X19310D01*
Y965D01*
X16910D01*
X12173Y23787D02*
Y27787D01*
X16173D01*
Y23787D01*
X12173D01*
X12973Y24587D02*
Y26987D01*
X15373D01*
Y24587D01*
X12973D01*
X8236Y165D02*
Y4165D01*
X12236D01*
Y165D01*
X8236D01*
X9036Y965D02*
Y3365D01*
X11436D01*
Y965D01*
X9036D01*
X85894Y238551D02*
Y242551D01*
X89894D01*
Y238551D01*
X85894D01*
X86694Y239351D02*
Y241751D01*
X89094D01*
Y239351D01*
X86694D01*
X281200Y208400D02*
Y212400D01*
X285200D01*
Y208400D01*
X281200D01*
X282000Y209200D02*
Y211600D01*
X284400D01*
Y209200D01*
X282000D01*
X293275Y150657D02*
Y154657D01*
X297275D01*
Y150657D01*
X293275D01*
X294075Y151457D02*
Y153857D01*
X296476D01*
Y151457D01*
X294075D01*
X45105Y48832D02*
Y52832D01*
X49106D01*
Y48832D01*
X45105D01*
X45906Y49632D02*
Y52032D01*
X48305D01*
Y49632D01*
X45906D01*
X43781Y59000D02*
Y63000D01*
X47781D01*
Y59000D01*
X43781D01*
X44581Y59800D02*
Y62200D01*
X46981D01*
Y59800D01*
X44581D01*
X47872Y58404D02*
Y62404D01*
X51872D01*
Y58404D01*
X47872D01*
X48672Y59204D02*
Y61604D01*
X51072D01*
Y59204D01*
X48672D01*
X48538Y47954D02*
Y51954D01*
X52538D01*
Y47954D01*
X48538D01*
X49338Y48754D02*
Y51154D01*
X51738D01*
Y48754D01*
X49338D01*
X56265Y44361D02*
Y48361D01*
X60265D01*
Y44361D01*
X56265D01*
X57065Y45161D02*
Y47561D01*
X59465D01*
Y45161D01*
X57065D01*
X348087Y333272D02*
Y337272D01*
X352087D01*
Y333272D01*
X348087D01*
X348887Y334072D02*
Y336472D01*
X351287D01*
Y334072D01*
X348887D01*
X323749Y357871D02*
Y361871D01*
X327749D01*
Y357871D01*
X323749D01*
X324549Y358671D02*
Y361071D01*
X326949D01*
Y358671D01*
X324549D01*
X346425Y189831D02*
Y193831D01*
X350425D01*
Y189831D01*
X346425D01*
X347225Y190631D02*
Y193031D01*
X349625D01*
Y190631D01*
X347225D01*
X339142Y179299D02*
Y183299D01*
X343142D01*
Y179299D01*
X339142D01*
X339942Y180099D02*
Y182499D01*
X342342D01*
Y180099D01*
X339942D01*
X293300Y155000D02*
Y159000D01*
X297300D01*
Y155000D01*
X293300D01*
X294100Y155800D02*
Y158200D01*
X296500D01*
Y155800D01*
X294100D01*
X324575Y102232D02*
Y106232D01*
X328575D01*
Y102232D01*
X324575D01*
X325375Y103032D02*
Y105432D01*
X327775D01*
Y103032D01*
X325375D01*
X271524Y126347D02*
Y130347D01*
X275524D01*
Y126347D01*
X271524D01*
X272324Y127146D02*
Y129546D01*
X274724D01*
Y127146D01*
X272324D01*
X265881Y119115D02*
Y123115D01*
X269881D01*
Y119115D01*
X265881D01*
X266681Y119915D02*
Y122315D01*
X269081D01*
Y119915D01*
X266681D01*
X237400Y320100D02*
Y324100D01*
X241400D01*
Y320100D01*
X237400D01*
X238200Y320900D02*
Y323300D01*
X240600D01*
Y320900D01*
X238200D01*
X107449Y50500D02*
X108449Y52500D01*
X107449Y54500D01*
X109449Y53500D01*
X111449Y54500D01*
X110449Y52500D01*
X111449Y50500D01*
X109449Y51500D01*
X107449Y50500D01*
X108249Y51300D02*
X108849Y52500D01*
X108249Y53700D01*
X109449Y53100D01*
X110649Y53700D01*
X110049Y52500D01*
X110649Y51300D01*
X109449Y51900D01*
X108249Y51300D01*
X75264Y34220D02*
Y38221D01*
X79264D01*
Y34220D01*
X75264D01*
X76064Y35021D02*
Y37420D01*
X78464D01*
Y35021D01*
X76064D01*
X339850Y338650D02*
Y342650D01*
X343850D01*
Y338650D01*
X339850D01*
X340650Y339450D02*
Y341850D01*
X343050D01*
Y339450D01*
X340650D01*
X309244Y198935D02*
Y202935D01*
X313244D01*
Y198935D01*
X309244D01*
X310044Y199735D02*
Y202135D01*
X312444D01*
Y199735D01*
X310044D01*
X281858Y199378D02*
Y203378D01*
X285858D01*
Y199378D01*
X281858D01*
X282658Y200178D02*
Y202578D01*
X285058D01*
Y200178D01*
X282658D01*
X273401Y120933D02*
Y124933D01*
X277401D01*
Y120933D01*
X273401D01*
X274201Y121733D02*
Y124133D01*
X276601D01*
Y121733D01*
X274201D01*
X280382Y117882D02*
Y121882D01*
X284382D01*
Y117882D01*
X280382D01*
X281182Y118682D02*
Y121082D01*
X283582D01*
Y118682D01*
X281182D01*
X276892Y118498D02*
Y122498D01*
X280892D01*
Y118498D01*
X276892D01*
X277693Y119298D02*
Y121698D01*
X280093D01*
Y119298D01*
X277693D01*
X276294Y129087D02*
Y133087D01*
X280294D01*
Y129087D01*
X276294D01*
X277094Y129887D02*
Y132287D01*
X279494D01*
Y129887D01*
X277094D01*
X270733Y133827D02*
Y137827D01*
X274733D01*
Y133827D01*
X270733D01*
X271533Y134627D02*
Y137027D01*
X273933D01*
Y134627D01*
X271533D01*
X305972Y250165D02*
Y254165D01*
X309972D01*
Y250165D01*
X305972D01*
X306772Y250965D02*
Y253365D01*
X309172D01*
Y250965D01*
X306772D01*
X249765Y342027D02*
Y346027D01*
X253765D01*
Y342027D01*
X249765D01*
X250565Y342827D02*
Y345227D01*
X252965D01*
Y342827D01*
X250565D01*
X239642Y339634D02*
Y343634D01*
X243642D01*
Y339634D01*
X239642D01*
X240442Y340434D02*
Y342834D01*
X242842D01*
Y340434D01*
X240442D01*
X199927Y315727D02*
Y319727D01*
X203927D01*
Y315727D01*
X199927D01*
X200727Y316527D02*
Y318927D01*
X203127D01*
Y316527D01*
X200727D01*
X233531Y294063D02*
Y298063D01*
X237531D01*
Y294063D01*
X233531D01*
X234331Y294863D02*
Y297263D01*
X236732D01*
Y294863D01*
X234331D01*
X328070Y356051D02*
Y360051D01*
X332070D01*
Y356051D01*
X328070D01*
X328870Y356851D02*
Y359251D01*
X331270D01*
Y356851D01*
X328870D01*
X354890Y340618D02*
Y344618D01*
X358890D01*
Y340618D01*
X354890D01*
X355690Y341418D02*
Y343818D01*
X358090D01*
Y341418D01*
X355690D01*
X44085Y80398D02*
Y84398D01*
X48085D01*
Y80398D01*
X44085D01*
X44885Y81198D02*
Y83598D01*
X47285D01*
Y81198D01*
X44885D01*
X319358Y312173D02*
Y316173D01*
X323358D01*
Y312173D01*
X319358D01*
X320158Y312973D02*
Y315373D01*
X322558D01*
Y312973D01*
X320158D01*
X327921Y321510D02*
Y325510D01*
X331921D01*
Y321510D01*
X327921D01*
X328721Y322310D02*
Y324710D01*
X331121D01*
Y322310D01*
X328721D01*
X280579Y142488D02*
Y146488D01*
X284579D01*
Y142488D01*
X280579D01*
X281379Y143288D02*
Y145688D01*
X283779D01*
Y143288D01*
X281379D01*
X118965Y114043D02*
Y118043D01*
X122965D01*
Y114043D01*
X118965D01*
X119765Y114843D02*
Y117243D01*
X122165D01*
Y114843D01*
X119765D01*
X107449Y80972D02*
Y84972D01*
X111449D01*
Y80972D01*
X107449D01*
X108249Y81772D02*
Y84172D01*
X110649D01*
Y81772D01*
X108249D01*
X285555Y149279D02*
Y153279D01*
X289555D01*
Y149279D01*
X285555D01*
X286354Y150080D02*
Y152480D01*
X288755D01*
Y150080D01*
X286354D01*
X338158Y151593D02*
Y155593D01*
X342158D01*
Y151593D01*
X338158D01*
X338958Y152393D02*
Y154793D01*
X341357D01*
Y152393D01*
X338958D01*
X56445Y33453D02*
Y37453D01*
X60445D01*
Y33453D01*
X56445D01*
X57245Y34253D02*
Y36653D01*
X59645D01*
Y34253D01*
X57245D01*
X329496Y171847D02*
Y175847D01*
X333496D01*
Y171847D01*
X329496D01*
X330296Y172647D02*
Y175047D01*
X332696D01*
Y172647D01*
X330296D01*
X329594Y136529D02*
Y140529D01*
X333594D01*
Y136529D01*
X329594D01*
X330395Y137329D02*
Y139729D01*
X332794D01*
Y137329D01*
X330395D01*
X294162Y239505D02*
Y243505D01*
X298162D01*
Y239505D01*
X294162D01*
X294962Y240305D02*
Y242705D01*
X297361D01*
Y240305D01*
X294962D01*
X298492Y128807D02*
Y132807D01*
X302492D01*
Y128807D01*
X298492D01*
X299292Y129607D02*
Y132007D01*
X301692D01*
Y129607D01*
X299292D01*
X90421Y100953D02*
Y104953D01*
X94421D01*
Y100953D01*
X90421D01*
X91221Y101753D02*
Y104153D01*
X93621D01*
Y101753D01*
X91221D01*
X288575Y119858D02*
Y123858D01*
X292575D01*
Y119858D01*
X288575D01*
X289375Y120658D02*
Y123058D01*
X291775D01*
Y120658D01*
X289375D01*
X361636Y85797D02*
Y89797D01*
X365636D01*
Y85797D01*
X361636D01*
X362436Y86597D02*
Y88997D01*
X364836D01*
Y86597D01*
X362436D01*
X351642Y141701D02*
Y145701D01*
X355642D01*
Y141701D01*
X351642D01*
X352442Y142501D02*
Y144901D01*
X354842D01*
Y142501D01*
X352442D01*
X293276Y160854D02*
Y164854D01*
X297276D01*
Y160854D01*
X293276D01*
X294076Y161654D02*
Y164054D01*
X296476D01*
Y161654D01*
X294076D01*
X315093Y171849D02*
Y175849D01*
X319093D01*
Y171849D01*
X315093D01*
X315893Y172649D02*
Y175049D01*
X318293D01*
Y172649D01*
X315893D01*
X361681Y323787D02*
Y327787D01*
X365681D01*
Y323787D01*
X361681D01*
X362481Y324587D02*
Y326987D01*
X364881D01*
Y324587D01*
X362481D01*
X316406Y147213D02*
Y151213D01*
X320406D01*
Y147213D01*
X316406D01*
X317206Y148013D02*
Y150413D01*
X319605D01*
Y148013D01*
X317206D01*
X271130Y77724D02*
Y81724D01*
X275130D01*
Y77724D01*
X271130D01*
X271930Y78524D02*
Y80924D01*
X274330D01*
Y78524D01*
X271930D01*
X296698Y342193D02*
Y346193D01*
X300698D01*
Y342193D01*
X296698D01*
X297498Y342993D02*
Y345393D01*
X299898D01*
Y342993D01*
X297498D01*
X314215Y117955D02*
Y121955D01*
X318215D01*
Y117955D01*
X314215D01*
X315015Y118755D02*
Y121155D01*
X317415D01*
Y118755D01*
X315015D01*
X307941Y138650D02*
Y142650D01*
X311941D01*
Y138650D01*
X307941D01*
X308741Y139450D02*
Y141850D01*
X311141D01*
Y139450D01*
X308741D01*
X338256Y145047D02*
Y149047D01*
X342256D01*
Y145047D01*
X338256D01*
X339056Y145847D02*
Y148247D01*
X341456D01*
Y145847D01*
X339056D01*
X319260Y142980D02*
Y146980D01*
X323260D01*
Y142980D01*
X319260D01*
X320060Y143780D02*
Y146180D01*
X322460D01*
Y143780D01*
X320060D01*
X313446Y133241D02*
Y137241D01*
X317446D01*
Y133241D01*
X313446D01*
X314246Y134041D02*
Y136441D01*
X316646D01*
Y134041D01*
X314246D01*
X293762Y122508D02*
Y126508D01*
X297762D01*
Y122508D01*
X293762D01*
X294562Y123308D02*
Y125708D01*
X296962D01*
Y123308D01*
X294562D01*
X94844Y103813D02*
Y107813D01*
X98844D01*
Y103813D01*
X94844D01*
X95644Y104613D02*
Y107013D01*
X98044D01*
Y104613D01*
X95644D01*
X50165Y94752D02*
Y98752D01*
X54165D01*
Y94752D01*
X50165D01*
X50965Y95552D02*
Y97952D01*
X53365D01*
Y95552D01*
X50965D01*
X363305Y81317D02*
Y85317D01*
X367305D01*
Y81317D01*
X363305D01*
X364105Y82117D02*
Y84517D01*
X366505D01*
Y82117D01*
X364105D01*
X263300Y259964D02*
Y263964D01*
X267300D01*
Y259964D01*
X263300D01*
X264100Y260764D02*
Y263164D01*
X266500D01*
Y260764D01*
X264100D01*
X289387Y115673D02*
Y119674D01*
X293387D01*
Y115673D01*
X289387D01*
X290187Y116473D02*
Y118874D01*
X292587D01*
Y116473D01*
X290187D01*
X294220Y48376D02*
Y52376D01*
X298220D01*
Y48376D01*
X294220D01*
X295020Y49176D02*
Y51576D01*
X297420D01*
Y49176D01*
X295020D01*
X271800Y238600D02*
Y242600D01*
X275800D01*
Y238600D01*
X271800D01*
X272600Y239400D02*
Y241800D01*
X275000D01*
Y239400D01*
X272600D01*
X197490Y115912D02*
Y119912D01*
X201489D01*
Y115912D01*
X197490D01*
X198290Y116712D02*
Y119112D01*
X200690D01*
Y116712D01*
X198290D01*
X274570Y76081D02*
Y80081D01*
X278570D01*
Y76081D01*
X274570D01*
X275370Y76881D02*
Y79281D01*
X277770D01*
Y76881D01*
X275370D01*
X283335Y83630D02*
Y87630D01*
X287335D01*
Y83630D01*
X283335D01*
X284135Y84430D02*
Y86830D01*
X286535D01*
Y84430D01*
X284135D01*
X292533Y143660D02*
Y147660D01*
X296533D01*
Y143660D01*
X292533D01*
X293333Y144460D02*
Y146860D01*
X295733D01*
Y144460D01*
X293333D01*
X312337Y142509D02*
Y146509D01*
X316337D01*
Y142509D01*
X312337D01*
X313137Y143309D02*
Y145709D01*
X315537D01*
Y143309D01*
X313137D01*
X285518Y137066D02*
Y141067D01*
X289518D01*
Y137066D01*
X285518D01*
X286318Y137866D02*
Y140267D01*
X288718D01*
Y137866D01*
X286318D01*
X356113Y325621D02*
Y329621D01*
X360113D01*
Y325621D01*
X356113D01*
X356913Y326421D02*
Y328821D01*
X359313D01*
Y326421D01*
X356913D01*
X308886Y344614D02*
Y348614D01*
X312886D01*
Y344614D01*
X308886D01*
X309686Y345414D02*
Y347814D01*
X312086D01*
Y345414D01*
X309686D01*
X344161Y145638D02*
Y149638D01*
X348161D01*
Y145638D01*
X344161D01*
X344961Y146438D02*
Y148838D01*
X347361D01*
Y146438D01*
X344961D01*
X306661Y96228D02*
Y100228D01*
X310661D01*
Y96228D01*
X306661D01*
X307461Y97028D02*
Y99428D01*
X309861D01*
Y97028D01*
X307461D01*
X289043Y70342D02*
Y74343D01*
X293043D01*
Y70342D01*
X289043D01*
X289843Y71143D02*
Y73542D01*
X292243D01*
Y71143D01*
X289843D01*
X312189Y137653D02*
Y141653D01*
X316189D01*
Y137653D01*
X312189D01*
X312989Y138453D02*
Y140853D01*
X315389D01*
Y138453D01*
X312989D01*
X56009Y38809D02*
Y42809D01*
X60009D01*
Y38809D01*
X56009D01*
X56809Y39609D02*
Y42009D01*
X59209D01*
Y39609D01*
X56809D01*
X277364Y152993D02*
Y156993D01*
X281364D01*
Y152993D01*
X277364D01*
X278164Y153793D02*
Y156193D01*
X280564D01*
Y153793D01*
X278164D01*
X202056Y213343D02*
Y217343D01*
X206056D01*
Y213343D01*
X202056D01*
X202856Y214143D02*
Y216543D01*
X205256D01*
Y214143D01*
X202856D01*
X363551Y67587D02*
Y71587D01*
X367551D01*
Y67587D01*
X363551D01*
X364351Y68387D02*
Y70787D01*
X366751D01*
Y68387D01*
X364351D01*
X350098Y83630D02*
Y87630D01*
X354098D01*
Y83630D01*
X350098D01*
X350898Y84430D02*
Y86830D01*
X353298D01*
Y84430D01*
X350898D01*
X371563Y53929D02*
Y57929D01*
X375563D01*
Y53929D01*
X371563D01*
X372363Y54729D02*
Y57129D01*
X374763D01*
Y54729D01*
X372363D01*
X333120Y180794D02*
Y184794D01*
X337120D01*
Y180794D01*
X333120D01*
X333920Y181594D02*
Y183994D01*
X336320D01*
Y181594D01*
X333920D01*
X335402Y132449D02*
Y136449D01*
X339402D01*
Y132449D01*
X335402D01*
X336202Y133249D02*
Y135649D01*
X338602D01*
Y133249D01*
X336202D01*
X140618Y106512D02*
Y110512D01*
X144618D01*
Y106512D01*
X140618D01*
X141418Y107312D02*
Y109712D01*
X143818D01*
Y107312D01*
X141418D01*
X276916Y196471D02*
Y200471D01*
X280916D01*
Y196471D01*
X276916D01*
X277716Y197271D02*
Y199671D01*
X280116D01*
Y197271D01*
X277716D01*
X345205Y319063D02*
Y323063D01*
X349205D01*
Y319063D01*
X345205D01*
X346005Y319863D02*
Y322263D01*
X348405D01*
Y319863D01*
X346005D01*
X349771Y197941D02*
Y201941D01*
X353771D01*
Y197941D01*
X349771D01*
X350571Y198741D02*
Y201141D01*
X352972D01*
Y198741D01*
X350571D01*
X312682Y99376D02*
Y103376D01*
X316682D01*
Y99376D01*
X312682D01*
X313482Y100176D02*
Y102576D01*
X315882D01*
Y100176D01*
X313482D01*
X277504Y78882D02*
Y82882D01*
X281504D01*
Y78882D01*
X277504D01*
X278304Y79682D02*
Y82082D01*
X280704D01*
Y79682D01*
X278304D01*
X200756Y122508D02*
Y126508D01*
X204756D01*
Y122508D01*
X200756D01*
X201556Y123308D02*
Y125708D01*
X203956D01*
Y123308D01*
X201556D01*
X331071Y47961D02*
Y51961D01*
X335071D01*
Y47961D01*
X331071D01*
X331871Y48761D02*
Y51161D01*
X334271D01*
Y48761D01*
X331871D01*
X299969Y89240D02*
Y93240D01*
X303969D01*
Y89240D01*
X299969D01*
X300768Y90040D02*
Y92440D01*
X303169D01*
Y90040D01*
X300768D01*
X100264Y41209D02*
Y45209D01*
X104264D01*
Y41209D01*
X100264D01*
X101064Y42009D02*
Y44409D01*
X103464D01*
Y42009D01*
X101064D01*
X57821Y82200D02*
Y86200D01*
X61821D01*
Y82200D01*
X57821D01*
X58621Y83000D02*
Y85400D01*
X61021D01*
Y83000D01*
X58621D01*
X74800Y29980D02*
Y33981D01*
X78800D01*
Y29980D01*
X74800D01*
X75600Y30781D02*
Y33180D01*
X78000D01*
Y30781D01*
X75600D01*
X347300Y366800D02*
Y370800D01*
X351300D01*
Y366800D01*
X347300D01*
X348100Y367600D02*
Y370000D01*
X350500D01*
Y367600D01*
X348100D01*
X347300Y361000D02*
Y365000D01*
X351300D01*
Y361000D01*
X347300D01*
X348100Y361800D02*
Y364200D01*
X350500D01*
Y361800D01*
X348100D01*
X219850Y330807D02*
Y334807D01*
X223850D01*
Y330807D01*
X219850D01*
X220650Y331607D02*
Y334007D01*
X223050D01*
Y331607D01*
X220650D01*
X296327Y347803D02*
Y351803D01*
X300327D01*
Y347803D01*
X296327D01*
X297127Y348603D02*
Y351003D01*
X299527D01*
Y348603D01*
X297127D01*
X264634Y336024D02*
Y340024D01*
X268634D01*
Y336024D01*
X264634D01*
X265434Y336824D02*
Y339224D01*
X267834D01*
Y336824D01*
X265434D01*
X306549Y57055D02*
Y61055D01*
X310549D01*
Y57055D01*
X306549D01*
X307349Y57855D02*
Y60255D01*
X309749D01*
Y57855D01*
X307349D01*
X352626Y51445D02*
Y55445D01*
X356626D01*
Y51445D01*
X352626D01*
X353426Y52245D02*
Y54645D01*
X355826D01*
Y52245D01*
X353426D01*
X70165Y36504D02*
Y40504D01*
X74165D01*
Y36504D01*
X70165D01*
X70965Y37304D02*
Y39704D01*
X73365D01*
Y37304D01*
X70965D01*
X238700Y266900D02*
Y270900D01*
X242700D01*
Y266900D01*
X238700D01*
X239500Y267700D02*
Y270100D01*
X241900D01*
Y267700D01*
X239500D01*
X357055Y122606D02*
X358055Y124606D01*
X357055Y126606D01*
X359055Y125606D01*
X361055Y126606D01*
X360055Y124606D01*
X361055Y122606D01*
X359055Y123606D01*
X357055Y122606D01*
X357855Y123406D02*
X358455Y124606D01*
X357855Y125806D01*
X359055Y125206D01*
X360255Y125806D01*
X359655Y124606D01*
X360255Y123406D01*
X359055Y124006D01*
X357855Y123406D01*
X356957Y315717D02*
Y319717D01*
X360957D01*
Y315717D01*
X356957D01*
X357757Y316517D02*
Y318917D01*
X360157D01*
Y316517D01*
X357757D01*
X366602Y315717D02*
Y319717D01*
X370602D01*
Y315717D01*
X366602D01*
X367402Y316517D02*
Y318917D01*
X369802D01*
Y316517D01*
X367402D01*
X245500Y66500D02*
Y70500D01*
X249500D01*
Y66500D01*
X245500D01*
X246300Y67300D02*
Y69700D01*
X248700D01*
Y67300D01*
X246300D01*
X27900Y33300D02*
Y37300D01*
X31900D01*
Y33300D01*
X27900D01*
X28700Y34100D02*
Y36500D01*
X31100D01*
Y34100D01*
X28700D01*
X366652Y336681D02*
Y340681D01*
X370652D01*
Y336681D01*
X366652D01*
X367452Y337481D02*
Y339881D01*
X369852D01*
Y337481D01*
X367452D01*
X303883Y47705D02*
Y51705D01*
X307883D01*
Y47705D01*
X303883D01*
X304683Y48505D02*
Y50905D01*
X307083D01*
Y48505D01*
X304683D01*
X314339Y47764D02*
Y51764D01*
X318339D01*
Y47764D01*
X314339D01*
X315139Y48564D02*
Y50964D01*
X317539D01*
Y48564D01*
X315139D01*
X77257Y72800D02*
Y76800D01*
X81257D01*
Y72800D01*
X77257D01*
X78057Y73600D02*
Y76000D01*
X80457D01*
Y73600D01*
X78057D01*
X65900Y89200D02*
Y93200D01*
X69900D01*
Y89200D01*
X65900D01*
X66700Y90000D02*
Y92400D01*
X69100D01*
Y90000D01*
X66700D01*
X32200Y36400D02*
Y40400D01*
X36200D01*
Y36400D01*
X32200D01*
X33000Y37200D02*
Y39600D01*
X35400D01*
Y37200D01*
X33000D01*
X79800Y30000D02*
Y34000D01*
X83800D01*
Y30000D01*
X79800D01*
X80600Y30800D02*
Y33200D01*
X83000D01*
Y30800D01*
X80600D01*
X314339Y57606D02*
Y61606D01*
X318339D01*
Y57606D01*
X314339D01*
X315139Y58406D02*
Y60806D01*
X317539D01*
Y58406D01*
X315139D01*
X345311Y325067D02*
Y329067D01*
X349311D01*
Y325067D01*
X345311D01*
X346111Y325867D02*
Y328267D01*
X348511D01*
Y325867D01*
X346111D01*
X321700Y344200D02*
Y348200D01*
X325700D01*
Y344200D01*
X321700D01*
X322500Y345000D02*
Y347400D01*
X324900D01*
Y345000D01*
X322500D01*
X55905Y49523D02*
Y53523D01*
X59905D01*
Y49523D01*
X55905D01*
X56705Y50323D02*
Y52723D01*
X59105D01*
Y50323D01*
X56705D01*
X55905Y112272D02*
Y116272D01*
X59905D01*
Y112272D01*
X55905D01*
X56705Y113072D02*
Y115472D01*
X59105D01*
Y113072D01*
X56705D01*
X55791Y361681D02*
Y365681D01*
X59791D01*
Y361681D01*
X55791D01*
X56591Y362481D02*
Y364881D01*
X58991D01*
Y362481D01*
X56591D01*
X65600Y22700D02*
X66600Y24700D01*
X65600Y26700D01*
X67600Y25700D01*
X69600Y26700D01*
X68600Y24700D01*
X69600Y22700D01*
X67600Y23700D01*
X65600Y22700D01*
X66400Y23500D02*
X67000Y24700D01*
X66400Y25900D01*
X67600Y25300D01*
X68800Y25900D01*
X68200Y24700D01*
X68800Y23500D01*
X67600Y24100D01*
X66400Y23500D01*
X46622Y357843D02*
X47622Y359843D01*
X46622Y361843D01*
X48622Y360843D01*
X50622Y361843D01*
X49622Y359843D01*
X50622Y357843D01*
X48622Y358843D01*
X46622Y357843D01*
X47422Y358643D02*
X48022Y359843D01*
X47422Y361043D01*
X48622Y360443D01*
X49822Y361043D01*
X49222Y359843D01*
X49822Y358643D01*
X48622Y359243D01*
X47422Y358643D01*
X357252Y213059D02*
X358252Y215059D01*
X357252Y217059D01*
X359252Y216059D01*
X361252Y217059D01*
X360252Y215059D01*
X361252Y213059D01*
X359252Y214059D01*
X357252Y213059D01*
X358052Y213859D02*
X358652Y215059D01*
X358052Y216259D01*
X359252Y215659D01*
X360452Y216259D01*
X359852Y215059D01*
X360452Y213859D01*
X359252Y214459D01*
X358052Y213859D01*
X37154Y185697D02*
Y189697D01*
X41154D01*
Y185697D01*
X37154D01*
X37954Y186497D02*
Y188897D01*
X40354D01*
Y186497D01*
X37954D01*
X64669Y109122D02*
Y113122D01*
X68669D01*
Y109122D01*
X64669D01*
X65469Y109922D02*
Y112322D01*
X67869D01*
Y109922D01*
X65469D01*
X374673Y336730D02*
Y340730D01*
X378673D01*
Y336730D01*
X374673D01*
X375473Y337530D02*
Y339930D01*
X377873D01*
Y337530D01*
X375473D01*
X328807Y337575D02*
Y341575D01*
X332807D01*
Y337575D01*
X328807D01*
X329607Y338375D02*
Y340775D01*
X332007D01*
Y338375D01*
X329607D01*
X346500Y68600D02*
Y72600D01*
X350500D01*
Y68600D01*
X346500D01*
X347300Y69400D02*
Y71800D01*
X349700D01*
Y69400D01*
X347300D01*
X18079Y27721D02*
Y31721D01*
X22079D01*
Y27721D01*
X18079D01*
X18879Y28521D02*
Y30921D01*
X21279D01*
Y28521D01*
X18879D01*
X357252Y137862D02*
X358252Y139862D01*
X357252Y141862D01*
X359252Y140862D01*
X361252Y141862D01*
X360252Y139862D01*
X361252Y137862D01*
X359252Y138862D01*
X357252Y137862D01*
X358052Y138662D02*
X358652Y139862D01*
X358052Y141062D01*
X359252Y140462D01*
X360452Y141062D01*
X359852Y139862D01*
X360452Y138662D01*
X359252Y139262D01*
X358052Y138662D01*
X48394Y13059D02*
X49394Y15059D01*
X48394Y17059D01*
X50394Y16059D01*
X52394Y17059D01*
X51394Y15059D01*
X52394Y13059D01*
X50394Y14059D01*
X48394Y13059D01*
X49194Y13859D02*
X49794Y15059D01*
X49194Y16259D01*
X50394Y15659D01*
X51594Y16259D01*
X50994Y15059D01*
X51594Y13859D01*
X50394Y14459D01*
X49194Y13859D01*
X234260Y49516D02*
Y53516D01*
X238260D01*
Y49516D01*
X234260D01*
X235060Y50316D02*
Y52716D01*
X237460D01*
Y50316D01*
X235060D01*
X148295Y357843D02*
X149295Y359843D01*
X148295Y361843D01*
X150295Y360843D01*
X152295Y361843D01*
X151295Y359843D01*
X152295Y357843D01*
X150295Y358843D01*
X148295Y357843D01*
X149095Y358643D02*
X149695Y359843D01*
X149095Y361043D01*
X150295Y360443D01*
X151495Y361043D01*
X150895Y359843D01*
X151495Y358643D01*
X150295Y359243D01*
X149095Y358643D01*
D118*
X287236Y265945D02*
G03*
X287236Y265945I-2000J0D01*
G01*
X255445D02*
G03*
X255445Y265945I-2000J0D01*
G01*
X222177D02*
G03*
X222177Y265945I-2000J0D01*
G01*
X316764Y210630D02*
G03*
X316764Y210630I-2000J0D01*
G01*
X287236Y289567D02*
G03*
X287236Y289567I-2000J0D01*
G01*
X255445D02*
G03*
X255445Y289567I-2000J0D01*
G01*
X222177D02*
G03*
X222177Y289567I-2000J0D01*
G01*
Y297441D02*
G03*
X222177Y297441I-2000J0D01*
G01*
Y258071D02*
G03*
X222177Y258071I-2000J0D01*
G01*
Y281693D02*
G03*
X222177Y281693I-2000J0D01*
G01*
Y273819D02*
G03*
X222177Y273819I-2000J0D01*
G01*
X287236D02*
G03*
X287236Y273819I-2000J0D01*
G01*
X255445Y281693D02*
G03*
X255445Y281693I-2000J0D01*
G01*
Y273819D02*
G03*
X255445Y273819I-2000J0D01*
G01*
X287236Y281693D02*
G03*
X287236Y281693I-2000J0D01*
G01*
Y297441D02*
G03*
X287236Y297441I-2000J0D01*
G01*
Y258071D02*
G03*
X287236Y258071I-2000J0D01*
G01*
X255445D02*
G03*
X255445Y258071I-2000J0D01*
G01*
Y297441D02*
G03*
X255445Y297441I-2000J0D01*
G01*
X376713Y381784D02*
G03*
X376713Y381784I-2000J0D01*
G01*
X383980Y18890D02*
G03*
X383980Y18890I-2000J0D01*
G01*
X379052Y250302D02*
G03*
X379052Y250302I-2000J0D01*
G01*
X381542Y153058D02*
G03*
X381542Y153058I-2000J0D01*
G01*
X242734Y379852D02*
G03*
X242734Y379852I-2000J0D01*
G01*
X145392Y377136D02*
G03*
X145392Y377136I-2000J0D01*
G01*
X13720Y374909D02*
G03*
X13720Y374909I-2000J0D01*
G01*
X252295Y16732D02*
G03*
X252295Y16732I-2000J0D01*
G01*
X155051Y14173D02*
G03*
X155051Y14173I-2000J0D01*
G01*
X18550Y143202D02*
G03*
X18550Y143202I-2000J0D01*
G01*
X20799Y11811D02*
G03*
X20799Y11811I-2000J0D01*
G01*
X15765Y240643D02*
G03*
X15765Y240643I-2000J0D01*
G01*
X316764Y230630D02*
G03*
X316764Y230630I-2000J0D01*
G01*
Y220630D02*
G03*
X316764Y220630I-2000J0D01*
G01*
X376909Y11819D02*
G03*
X376909Y11819I-2000J0D01*
G01*
X378954Y143399D02*
G03*
X378954Y143399I-2000J0D01*
G01*
X381641Y240643D02*
G03*
X381641Y240643I-2000J0D01*
G01*
X145392Y16761D02*
G03*
X145392Y16761I-2000J0D01*
G01*
X242636Y14144D02*
G03*
X242636Y14144I-2000J0D01*
G01*
X13728Y18882D02*
G03*
X13728Y18882I-2000J0D01*
G01*
X383784Y374713D02*
G03*
X383784Y374713I-2000J0D01*
G01*
X252394Y377264D02*
G03*
X252394Y377264I-2000J0D01*
G01*
X155051Y379724D02*
G03*
X155051Y379724I-2000J0D01*
G01*
X20791Y381980D02*
G03*
X20791Y381980I-2000J0D01*
G01*
X18353Y250302D02*
G03*
X18353Y250302I-2000J0D01*
G01*
X15962Y152861D02*
G03*
X15962Y152861I-2000J0D01*
G01*
D119*
X286436Y265945D02*
G03*
X286436Y265945I-1200J0D01*
G01*
X254645D02*
G03*
X254645Y265945I-1200J0D01*
G01*
X221377D02*
G03*
X221377Y265945I-1200J0D01*
G01*
X286436Y289567D02*
G03*
X286436Y289567I-1200J0D01*
G01*
X254645D02*
G03*
X254645Y289567I-1200J0D01*
G01*
X221377D02*
G03*
X221377Y289567I-1200J0D01*
G01*
Y297441D02*
G03*
X221377Y297441I-1200J0D01*
G01*
Y258071D02*
G03*
X221377Y258071I-1200J0D01*
G01*
Y281693D02*
G03*
X221377Y281693I-1200J0D01*
G01*
Y273819D02*
G03*
X221377Y273819I-1200J0D01*
G01*
X286436D02*
G03*
X286436Y273819I-1200J0D01*
G01*
X254645Y281693D02*
G03*
X254645Y281693I-1200J0D01*
G01*
Y273819D02*
G03*
X254645Y273819I-1200J0D01*
G01*
X286436Y281693D02*
G03*
X286436Y281693I-1200J0D01*
G01*
Y297441D02*
G03*
X286436Y297441I-1200J0D01*
G01*
Y258071D02*
G03*
X286436Y258071I-1200J0D01*
G01*
X254645D02*
G03*
X254645Y258071I-1200J0D01*
G01*
Y297441D02*
G03*
X254645Y297441I-1200J0D01*
G01*
M02*
