G04*
G04 #@! TF.GenerationSoftware,Altium Limited,Altium Designer,25.5.2 (35)*
G04*
G04 Layer_Color=255*
%FSLAX25Y25*%
%MOIN*%
G70*
G04*
G04 #@! TF.SameCoordinates,5858FFA7-226C-4CE8-8668-B70CF27CC624*
G04*
G04*
G04 #@! TF.FilePolarity,Positive*
G04*
G01*
G75*
%ADD53C,0.04724*%
%ADD54C,0.07284*%
%ADD55C,0.04921*%
%ADD56R,0.05118X0.05118*%
%ADD59R,0.05118X0.05118*%
%ADD66R,0.04921X0.04921*%
%ADD67C,0.05118*%
%ADD68R,0.04724X0.04724*%
%ADD72R,0.07284X0.07284*%
%ADD89C,0.05906*%
%ADD90R,0.05906X0.05906*%
%ADD91R,0.10000X0.16000*%
%ADD92C,0.08071*%
G04:AMPARAMS|DCode=93|XSize=65mil|YSize=100mil|CornerRadius=0mil|HoleSize=0mil|Usage=FLASHONLY|Rotation=120.000|XOffset=0mil|YOffset=0mil|HoleType=Round|Shape=Round|*
%AMOVALD93*
21,1,0.03500,0.06500,0.00000,0.00000,210.0*
1,1,0.06500,0.01516,0.00875*
1,1,0.06500,-0.01516,-0.00875*
%
%ADD93OVALD93*%

%ADD94O,0.10000X0.06500*%
G04:AMPARAMS|DCode=95|XSize=65mil|YSize=100mil|CornerRadius=0mil|HoleSize=0mil|Usage=FLASHONLY|Rotation=150.000|XOffset=0mil|YOffset=0mil|HoleType=Round|Shape=Round|*
%AMOVALD95*
21,1,0.03500,0.06500,0.00000,0.00000,240.0*
1,1,0.06500,0.00875,0.01516*
1,1,0.06500,-0.00875,-0.01516*
%
%ADD95OVALD95*%

G04:AMPARAMS|DCode=96|XSize=65mil|YSize=100mil|CornerRadius=0mil|HoleSize=0mil|Usage=FLASHONLY|Rotation=60.000|XOffset=0mil|YOffset=0mil|HoleType=Round|Shape=Round|*
%AMOVALD96*
21,1,0.03500,0.06500,0.00000,0.00000,150.0*
1,1,0.06500,0.01516,-0.00875*
1,1,0.06500,-0.01516,0.00875*
%
%ADD96OVALD96*%

G04:AMPARAMS|DCode=97|XSize=65mil|YSize=100mil|CornerRadius=0mil|HoleSize=0mil|Usage=FLASHONLY|Rotation=30.000|XOffset=0mil|YOffset=0mil|HoleType=Round|Shape=Round|*
%AMOVALD97*
21,1,0.03500,0.06500,0.00000,0.00000,120.0*
1,1,0.06500,0.00875,-0.01516*
1,1,0.06500,-0.00875,0.01516*
%
%ADD97OVALD97*%

%ADD98O,0.06500X0.10000*%
%ADD99C,0.06000*%
G04:AMPARAMS|DCode=100|XSize=65mil|YSize=100mil|CornerRadius=0mil|HoleSize=0mil|Usage=FLASHONLY|Rotation=240.000|XOffset=0mil|YOffset=0mil|HoleType=Round|Shape=Rectangle|*
%AMROTATEDRECTD100*
4,1,4,-0.02705,0.05315,0.05955,0.00315,0.02705,-0.05315,-0.05955,-0.00315,-0.02705,0.05315,0.0*
%
%ADD100ROTATEDRECTD100*%

%ADD101C,0.06693*%
%ADD102C,0.06102*%
%ADD103R,0.06500X0.10000*%
G04:AMPARAMS|DCode=104|XSize=65mil|YSize=100mil|CornerRadius=0mil|HoleSize=0mil|Usage=FLASHONLY|Rotation=120.000|XOffset=0mil|YOffset=0mil|HoleType=Round|Shape=Rectangle|*
%AMROTATEDRECTD104*
4,1,4,0.05955,-0.00315,-0.02705,-0.05315,-0.05955,0.00315,0.02705,0.05315,0.05955,-0.00315,0.0*
%
%ADD104ROTATEDRECTD104*%

G04:AMPARAMS|DCode=105|XSize=65mil|YSize=100mil|CornerRadius=0mil|HoleSize=0mil|Usage=FLASHONLY|Rotation=150.000|XOffset=0mil|YOffset=0mil|HoleType=Round|Shape=Rectangle|*
%AMROTATEDRECTD105*
4,1,4,0.05315,0.02705,0.00315,-0.05955,-0.05315,-0.02705,-0.00315,0.05955,0.05315,0.02705,0.0*
%
%ADD105ROTATEDRECTD105*%

%ADD106R,0.10000X0.06500*%
G04:AMPARAMS|DCode=107|XSize=65mil|YSize=100mil|CornerRadius=0mil|HoleSize=0mil|Usage=FLASHONLY|Rotation=30.000|XOffset=0mil|YOffset=0mil|HoleType=Round|Shape=Rectangle|*
%AMROTATEDRECTD107*
4,1,4,-0.00315,-0.05955,-0.05315,0.02705,0.00315,0.05955,0.05315,-0.02705,-0.00315,-0.05955,0.0*
%
%ADD107ROTATEDRECTD107*%

%ADD108R,0.06102X0.06102*%
%ADD109R,0.16000X0.10000*%
D53*
X285236Y265945D02*
D03*
X253445D02*
D03*
X220177D02*
D03*
X285236Y289567D02*
D03*
X253445D02*
D03*
X220177D02*
D03*
Y258071D02*
D03*
Y281693D02*
D03*
Y273819D02*
D03*
X285236D02*
D03*
X253445Y281693D02*
D03*
Y273819D02*
D03*
X285236Y281693D02*
D03*
Y258071D02*
D03*
X253445D02*
D03*
D54*
X314764Y210630D02*
D03*
Y220630D02*
D03*
D55*
X203602Y77598D02*
D03*
X193602Y67598D02*
D03*
D56*
X124606Y266634D02*
D03*
D59*
X82382Y153248D02*
D03*
D66*
X183602Y77598D02*
D03*
D67*
X102067Y153248D02*
D03*
X124606Y286319D02*
D03*
D68*
X220177Y297441D02*
D03*
X285236D02*
D03*
X253445D02*
D03*
D72*
X314764Y230630D02*
D03*
D89*
X259291Y51516D02*
D03*
X269291D02*
D03*
X259291Y61516D02*
D03*
X269291Y41516D02*
D03*
Y61516D02*
D03*
X259291Y41516D02*
D03*
X269291Y71516D02*
D03*
X238780Y238110D02*
D03*
Y228110D02*
D03*
Y218110D02*
D03*
X215256Y227854D02*
D03*
Y217854D02*
D03*
Y207854D02*
D03*
D90*
X259291Y71516D02*
D03*
X238780Y208110D02*
D03*
X215256Y237854D02*
D03*
D91*
X66831Y330512D02*
D03*
X91831D02*
D03*
D92*
X96654Y180433D02*
D03*
X160728Y302343D02*
D03*
Y249232D02*
D03*
X96654Y233543D02*
D03*
D93*
X375413Y305707D02*
D03*
X18209Y87795D02*
D03*
D94*
X377953Y201850D02*
D03*
X15748Y191850D02*
D03*
D95*
X297244Y380413D02*
D03*
X96752Y13484D02*
D03*
D96*
X380295Y96357D02*
D03*
X13189Y297146D02*
D03*
D97*
X305511Y18484D02*
D03*
X87698Y375413D02*
D03*
D98*
X191850Y377953D02*
D03*
X201850Y15748D02*
D03*
D99*
X150295Y337598D02*
D03*
X48158Y158967D02*
D03*
X335335Y295177D02*
D03*
D100*
X18189Y305806D02*
D03*
X375295Y87697D02*
D03*
D101*
X374713Y381784D02*
D03*
X381980Y18890D02*
D03*
X377052Y250302D02*
D03*
X379542Y153058D02*
D03*
X240734Y379852D02*
D03*
X143392Y377136D02*
D03*
X11720Y374909D02*
D03*
X250295Y16732D02*
D03*
X153051Y14173D02*
D03*
X16550Y143202D02*
D03*
X18799Y11811D02*
D03*
X13765Y240643D02*
D03*
X374909Y11819D02*
D03*
X376954Y143399D02*
D03*
X379641Y240643D02*
D03*
X143392Y16761D02*
D03*
X240636Y14144D02*
D03*
X11728Y18882D02*
D03*
X381784Y374713D02*
D03*
X250394Y377264D02*
D03*
X153051Y379724D02*
D03*
X18791Y381980D02*
D03*
X16353Y250302D02*
D03*
X13962Y152861D02*
D03*
D102*
X348189Y229094D02*
D03*
Y219094D02*
D03*
D103*
X201850Y377953D02*
D03*
X191850Y15748D02*
D03*
D104*
X380413Y297047D02*
D03*
X13209Y96456D02*
D03*
D105*
X305904Y375413D02*
D03*
X88092Y18484D02*
D03*
D106*
X377953Y191850D02*
D03*
X15748Y201850D02*
D03*
D107*
X296850Y13484D02*
D03*
X96358Y380413D02*
D03*
D108*
X348189Y209094D02*
D03*
D109*
X81831Y350512D02*
D03*
M02*
