G04*
G04 #@! TF.GenerationSoftware,Altium Limited,Altium Designer,25.5.2 (35)*
G04*
G04 Layer_Color=32768*
%FSLAX25Y25*%
%MOIN*%
G70*
G04*
G04 #@! TF.SameCoordinates,5858FFA7-226C-4CE8-8668-B70CF27CC624*
G04*
G04*
G04 #@! TF.FilePolarity,Positive*
G04*
G01*
G75*
%ADD15C,0.00787*%
%ADD114C,0.00394*%
%ADD116C,0.00197*%
D15*
X113287Y153248D02*
G03*
X71161Y153248I-21063J0D01*
G01*
D02*
G03*
X113287Y153248I21063J0D01*
G01*
X124606Y255413D02*
G03*
X124606Y297539I0J21063D01*
G01*
D02*
G03*
X124606Y255413I0J-21063D01*
G01*
X213976Y110827D02*
Y171063D01*
X233858D01*
Y110827D02*
Y171063D01*
X213976Y110827D02*
X233858D01*
X263189Y171063D02*
X329724D01*
Y104528D02*
Y171063D01*
X263189Y104528D02*
X329724D01*
X263189D02*
Y171063D01*
X208760Y250000D02*
Y305512D01*
X227264D01*
Y250000D02*
Y305512D01*
X208760Y250000D02*
X227264D01*
X273819D02*
Y305512D01*
X292323D01*
Y250000D02*
Y305512D01*
X273819Y250000D02*
X292323D01*
X242028D02*
Y305512D01*
X260532D01*
Y250000D02*
Y305512D01*
X242028Y250000D02*
X260532D01*
X308189Y242480D02*
X326890D01*
Y198780D02*
Y242480D01*
X308189Y198780D02*
X326890D01*
X308189D02*
Y242480D01*
X66027Y236992D02*
X77674D01*
X66027D02*
Y242733D01*
X77674D01*
Y236992D02*
Y242733D01*
X98327Y257185D02*
Y291437D01*
X66043Y257185D02*
X98327D01*
X66043D02*
Y291437D01*
X98327D01*
X118602Y133268D02*
Y183268D01*
Y133268D02*
X170177D01*
Y183268D01*
X118602D02*
X170177D01*
X285815Y212096D02*
Y225482D01*
Y212096D02*
X300406D01*
Y225482D01*
X285815D02*
X300406D01*
X265748Y212096D02*
X279134D01*
Y226687D01*
X265748D02*
X279134D01*
X265748Y212096D02*
Y226687D01*
X173957Y58012D02*
Y97303D01*
Y58012D02*
X213248D01*
Y97303D01*
X173957D02*
X213248D01*
D114*
X183071Y337402D02*
X187008D01*
X185039Y335433D02*
Y339370D01*
X232185Y333268D02*
Y337205D01*
X230217Y335236D02*
X234154D01*
X274902D02*
X278839D01*
X276870Y333268D02*
Y337205D01*
X358563Y52756D02*
Y56693D01*
X356594Y54724D02*
X360531D01*
X323917Y342520D02*
X327854D01*
X325886Y340551D02*
Y344488D01*
X309252Y54232D02*
X313189D01*
X311220Y52264D02*
Y56201D01*
X77165Y52953D02*
Y56890D01*
X75197Y54921D02*
X79134D01*
X377053Y13962D02*
X379837Y16746D01*
X377053D02*
X379837Y13962D01*
X377739Y146327D02*
X378758Y150130D01*
X376347Y148738D02*
X380149Y147719D01*
X377837Y247374D02*
X378856Y243571D01*
X376445Y244963D02*
X380248Y245982D01*
X146320Y15977D02*
X150123Y14958D01*
X147712Y13566D02*
X148731Y17369D01*
X243564Y14929D02*
X247367Y15948D01*
X244956Y17340D02*
X245975Y13537D01*
X13872Y16738D02*
X16656Y13955D01*
X13872D02*
X16656Y16738D01*
X145276Y214370D02*
Y218307D01*
X143307Y216339D02*
X147244D01*
X161122Y185630D02*
Y189370D01*
X159252Y187500D02*
X162992D01*
X124803Y247146D02*
Y250886D01*
X122933Y249016D02*
X126673D01*
X376856Y376856D02*
X379640Y379640D01*
X376856Y379640D02*
X379640Y376856D01*
X245055Y376656D02*
X246074Y380459D01*
X243663Y379067D02*
X247465Y378048D01*
X147712Y380332D02*
X148731Y376529D01*
X146320Y377921D02*
X150123Y378940D01*
X13864Y379837D02*
X16648Y377053D01*
X13864D02*
X16648Y379837D01*
X13158Y245982D02*
X16960Y244963D01*
X14550Y243571D02*
X15569Y247374D01*
X13354Y147522D02*
X17157Y148541D01*
X14746Y149933D02*
X15765Y146130D01*
X151378Y57185D02*
Y61122D01*
X149409Y59154D02*
X153346D01*
X118307Y56791D02*
Y60728D01*
X116339Y58760D02*
X120276D01*
X341142Y219094D02*
X345079D01*
X343110Y217126D02*
Y221063D01*
X32972Y55610D02*
X36909D01*
X34941Y53642D02*
Y57579D01*
X366339Y342815D02*
X370276D01*
X368307Y340846D02*
Y344783D01*
X235039Y57382D02*
Y61319D01*
X233071Y59350D02*
X237008D01*
D116*
X390256Y15354D02*
G03*
X390256Y15354I-11811J0D01*
G01*
X390059Y148228D02*
G03*
X390059Y148228I-11811J0D01*
G01*
X390158Y245472D02*
G03*
X390158Y245472I-11811J0D01*
G01*
X160033Y15467D02*
G03*
X160033Y15467I-11811J0D01*
G01*
X257277Y15438D02*
G03*
X257277Y15438I-11811J0D01*
G01*
X27075Y15347D02*
G03*
X27075Y15347I-11811J0D01*
G01*
X390059Y378248D02*
G03*
X390059Y378248I-11811J0D01*
G01*
X257375Y378558D02*
G03*
X257375Y378558I-11811J0D01*
G01*
X160033Y378430D02*
G03*
X160033Y378430I-11811J0D01*
G01*
X27067Y378445D02*
G03*
X27067Y378445I-11811J0D01*
G01*
X26870Y245472D02*
G03*
X26870Y245472I-11811J0D01*
G01*
X27067Y148031D02*
G03*
X27067Y148031I-11811J0D01*
G01*
X177756Y323819D02*
Y350984D01*
X192323Y323819D02*
Y350984D01*
X177756Y323819D02*
X192323D01*
X177756Y350984D02*
X192323D01*
X212500Y317520D02*
X251870D01*
X212500Y352953D02*
X251870D01*
Y317520D02*
Y352953D01*
X212500Y317520D02*
Y352953D01*
X257185Y317520D02*
Y352953D01*
X296555Y317520D02*
Y352953D01*
X257185D02*
X296555D01*
X257185Y317520D02*
X296555D01*
X376181Y41535D02*
Y67913D01*
X340945D02*
X376181D01*
X340945Y41535D02*
Y67913D01*
Y41535D02*
X376181D01*
X345079Y326181D02*
Y358858D01*
X306693Y326181D02*
Y358858D01*
X345079D01*
X306693Y326181D02*
X345079D01*
X292028Y37894D02*
Y70571D01*
X330413Y37894D02*
Y70571D01*
X292028Y37894D02*
X330413D01*
X292028Y70571D02*
X330413D01*
X57972Y71260D02*
X96358D01*
X57972Y38583D02*
X96358D01*
Y71260D01*
X57972Y38583D02*
Y71260D01*
X111614Y194390D02*
X178937D01*
X111614Y238287D02*
X178937D01*
Y194390D02*
Y238287D01*
X111614Y194390D02*
Y238287D01*
X156791Y189862D02*
X165453D01*
X156791Y185138D02*
X165453D01*
X156791D02*
Y189862D01*
X165453Y185138D02*
Y189862D01*
X120472Y251378D02*
X129134D01*
X120472Y246654D02*
X129134D01*
X120472D02*
Y251378D01*
X129134Y246654D02*
Y251378D01*
X139370Y81594D02*
X163386D01*
X139370Y36713D02*
X163386D01*
X139370D02*
Y81594D01*
X163386Y36713D02*
Y81594D01*
X106299Y36319D02*
X130315D01*
X106299Y81201D02*
X130315D01*
Y36319D02*
Y81201D01*
X106299Y36319D02*
Y81201D01*
X356102Y199941D02*
Y238248D01*
X330118D02*
X356102D01*
X330118Y199941D02*
Y238248D01*
Y199941D02*
X356102D01*
X17323Y42421D02*
X52559D01*
X17323D02*
Y68799D01*
X52559D01*
Y42421D02*
Y68799D01*
X350689Y356004D02*
X385925D01*
Y329626D02*
Y356004D01*
X350689Y329626D02*
X385925D01*
X350689D02*
Y356004D01*
X223032Y36909D02*
X247047D01*
X223032Y81791D02*
X247047D01*
Y36909D02*
Y81791D01*
X223032Y36909D02*
Y81791D01*
M02*
