G04*
G04 #@! TF.GenerationSoftware,Altium Limited,Altium Designer,25.5.2 (35)*
G04*
G04 Layer_Color=128*
%FSLAX25Y25*%
%MOIN*%
G70*
G04*
G04 #@! TF.SameCoordinates,5858FFA7-226C-4CE8-8668-B70CF27CC624*
G04*
G04*
G04 #@! TF.FilePolarity,Positive*
G04*
G01*
G75*
%ADD117C,0.00500*%
D117*
X257520Y51516D02*
X261063D01*
X259291Y49744D02*
Y53288D01*
X267520Y51516D02*
X271063D01*
X269291Y49744D02*
Y53288D01*
X257520Y61516D02*
X261063D01*
X259291Y59744D02*
Y63288D01*
X267520Y41516D02*
X271063D01*
X269291Y39744D02*
Y43288D01*
X257520Y71516D02*
X261063D01*
X259291Y69744D02*
Y73287D01*
X267520Y61516D02*
X271063D01*
X269291Y59744D02*
Y63288D01*
X257520Y41516D02*
X261063D01*
X259291Y39744D02*
Y43288D01*
X267520Y71516D02*
X271063D01*
X269291Y69744D02*
Y73287D01*
X237008Y238110D02*
X240551D01*
X238780Y236338D02*
Y239882D01*
X237008Y228110D02*
X240551D01*
X238780Y226339D02*
Y229882D01*
X237008Y208110D02*
X240551D01*
X238780Y206339D02*
Y209882D01*
X237008Y218110D02*
X240551D01*
X238780Y216338D02*
Y219882D01*
X283858Y265945D02*
X286614D01*
X285236Y264567D02*
Y267323D01*
X252067Y265945D02*
X254823D01*
X253445Y264567D02*
Y267323D01*
X218799Y265945D02*
X221555D01*
X220177Y264567D02*
Y267323D01*
X213484Y227854D02*
X217028D01*
X215256Y226083D02*
Y229626D01*
X312402Y210630D02*
X317126D01*
X314764Y208268D02*
Y212992D01*
X202126Y77598D02*
X205079D01*
X203602Y76122D02*
Y79075D01*
X123032Y266634D02*
X126181D01*
X124606Y265059D02*
Y268209D01*
X64331Y330512D02*
X69331D01*
X66831Y328012D02*
Y333012D01*
X93602Y180433D02*
X99705D01*
X96654Y177382D02*
Y183484D01*
X80807Y153248D02*
X83957D01*
X82382Y151673D02*
Y154823D01*
X373813Y305707D02*
X377013D01*
X375413Y304107D02*
Y307307D01*
X376353Y201850D02*
X379553D01*
X377953Y200250D02*
Y203450D01*
X295644Y380413D02*
X298844D01*
X297244Y378813D02*
Y382013D01*
X283858Y289567D02*
X286614D01*
X285236Y288189D02*
Y290945D01*
X378695Y96357D02*
X381895D01*
X380295Y94757D02*
Y97957D01*
X303911Y18484D02*
X307111D01*
X305511Y16884D02*
Y20084D01*
X252067Y289567D02*
X254823D01*
X253445Y288189D02*
Y290945D01*
X218799Y289567D02*
X221555D01*
X220177Y288189D02*
Y290945D01*
X213484Y237854D02*
X217028D01*
X215256Y236083D02*
Y239626D01*
X190250Y377953D02*
X193450D01*
X191850Y376353D02*
Y379553D01*
X86098Y375413D02*
X89298D01*
X87698Y373813D02*
Y377013D01*
X11589Y297146D02*
X14789D01*
X13189Y295546D02*
Y298746D01*
X14148Y191850D02*
X17348D01*
X15748Y190250D02*
Y193450D01*
X200250Y15748D02*
X203450D01*
X201850Y14148D02*
Y17348D01*
X182126Y77598D02*
X185079D01*
X183602Y76122D02*
Y79075D01*
X100492Y153248D02*
X103642D01*
X102067Y151673D02*
Y154823D01*
X16609Y87795D02*
X19809D01*
X18209Y86195D02*
Y89395D01*
X95152Y13484D02*
X98352D01*
X96752Y11884D02*
Y15084D01*
X218799Y297441D02*
X221555D01*
X220177Y296063D02*
Y298819D01*
X218799Y258071D02*
X221555D01*
X220177Y256693D02*
Y259449D01*
X218799Y281693D02*
X221555D01*
X220177Y280315D02*
Y283071D01*
X218799Y273819D02*
X221555D01*
X220177Y272441D02*
Y275197D01*
X143996Y337598D02*
X156595D01*
X150295Y331299D02*
Y343898D01*
X41859Y158967D02*
X54458D01*
X48158Y152668D02*
Y165266D01*
X329035Y295177D02*
X341634D01*
X335335Y288878D02*
Y301476D01*
X213484Y217854D02*
X217028D01*
X215256Y216083D02*
Y219626D01*
X283858Y273819D02*
X286614D01*
X285236Y272441D02*
Y275197D01*
X252067Y281693D02*
X254823D01*
X253445Y280315D02*
Y283071D01*
X252067Y273819D02*
X254823D01*
X253445Y272441D02*
Y275197D01*
X213484Y207854D02*
X217028D01*
X215256Y206083D02*
Y209626D01*
X283858Y281693D02*
X286614D01*
X285236Y280315D02*
Y283071D01*
X283858Y297441D02*
X286614D01*
X285236Y296063D02*
Y298819D01*
X283858Y258071D02*
X286614D01*
X285236Y256693D02*
Y259449D01*
X16589Y305806D02*
X19789D01*
X18189Y304206D02*
Y307406D01*
X252067Y258071D02*
X254823D01*
X253445Y256693D02*
Y259449D01*
X252067Y297441D02*
X254823D01*
X253445Y296063D02*
Y298819D01*
X372350Y381784D02*
X377075D01*
X374713Y379421D02*
Y384146D01*
X379618Y18890D02*
X384343D01*
X381980Y16528D02*
Y21252D01*
X374690Y250302D02*
X379415D01*
X377052Y247940D02*
Y252664D01*
X377180Y153058D02*
X381904D01*
X379542Y150696D02*
Y155420D01*
X238372Y379852D02*
X243097D01*
X240734Y377490D02*
Y382214D01*
X141030Y377136D02*
X145754D01*
X143392Y374774D02*
Y379498D01*
X9358Y374909D02*
X14083D01*
X11720Y372547D02*
Y377272D01*
X89331Y330512D02*
X94331D01*
X91831Y328012D02*
Y333012D01*
X247933Y16732D02*
X252657D01*
X250295Y14370D02*
Y19094D01*
X150689Y14173D02*
X155413D01*
X153051Y11811D02*
Y16535D01*
X14188Y143202D02*
X18912D01*
X16550Y140840D02*
Y145564D01*
X16437Y11811D02*
X21161D01*
X18799Y9449D02*
Y14173D01*
X11403Y240643D02*
X16127D01*
X13765Y238281D02*
Y243005D01*
X192126Y67598D02*
X195079D01*
X193602Y66122D02*
Y69075D01*
X312402Y230630D02*
X317126D01*
X314764Y228268D02*
Y232992D01*
X312402Y220630D02*
X317126D01*
X314764Y218268D02*
Y222992D01*
X346122Y229094D02*
X350256D01*
X348189Y227028D02*
Y231161D01*
X200250Y377953D02*
X203450D01*
X201850Y376353D02*
Y379553D01*
X378813Y297047D02*
X382013D01*
X380413Y295447D02*
Y298647D01*
X304304Y375413D02*
X307504D01*
X305904Y373813D02*
Y377013D01*
X376353Y191850D02*
X379553D01*
X377953Y190250D02*
Y193450D01*
X86492Y18484D02*
X89692D01*
X88092Y16884D02*
Y20084D01*
X190250Y15748D02*
X193450D01*
X191850Y14148D02*
Y17348D01*
X373695Y87697D02*
X376895D01*
X375295Y86097D02*
Y89297D01*
X295250Y13484D02*
X298450D01*
X296850Y11884D02*
Y15084D01*
X346122Y209094D02*
X350256D01*
X348189Y207028D02*
Y211161D01*
X346122Y219094D02*
X350256D01*
X348189Y217027D02*
Y221161D01*
X372547Y11819D02*
X377272D01*
X374909Y9457D02*
Y14181D01*
X374592Y143399D02*
X379316D01*
X376954Y141037D02*
Y145761D01*
X377278Y240643D02*
X382003D01*
X379641Y238281D02*
Y243005D01*
X141030Y16761D02*
X145754D01*
X143392Y14399D02*
Y19124D01*
X238274Y14144D02*
X242998D01*
X240636Y11782D02*
Y16506D01*
X9366Y18882D02*
X14090D01*
X11728Y16520D02*
Y21244D01*
X79331Y350512D02*
X84331D01*
X81831Y348012D02*
Y353012D01*
X123032Y286319D02*
X126181D01*
X124606Y284744D02*
Y287894D01*
X157677Y302343D02*
X163780D01*
X160728Y299291D02*
Y305394D01*
X157677Y249232D02*
X163780D01*
X160728Y246181D02*
Y252283D01*
X93602Y233543D02*
X99705D01*
X96654Y230492D02*
Y236595D01*
X379421Y374713D02*
X384146D01*
X381784Y372350D02*
Y377075D01*
X248032Y377264D02*
X252756D01*
X250394Y374902D02*
Y379626D01*
X150689Y379724D02*
X155413D01*
X153051Y377362D02*
Y382087D01*
X16429Y381980D02*
X21154D01*
X18791Y379618D02*
Y384343D01*
X13991Y250302D02*
X18715D01*
X16353Y247940D02*
Y252664D01*
X11600Y152861D02*
X16324D01*
X13962Y150499D02*
Y155223D01*
X11609Y96456D02*
X14809D01*
X13209Y94856D02*
Y98056D01*
X14148Y201850D02*
X17348D01*
X15748Y200250D02*
Y203450D01*
X94758Y380413D02*
X97958D01*
X96358Y378813D02*
Y382013D01*
X338461Y22169D02*
X340430D01*
X339445Y21184D02*
Y23153D01*
X318799Y25689D02*
X320768D01*
X319783Y24705D02*
Y26673D01*
X316732Y33661D02*
X317913D01*
X317323Y33071D02*
Y34252D01*
X332480Y33661D02*
X333662D01*
X333071Y33071D02*
Y34252D01*
X173847Y334716D02*
X175028D01*
X174437Y334125D02*
Y335306D01*
X171299Y238386D02*
X172480D01*
X171890Y237795D02*
Y238977D01*
X171299Y254134D02*
X172480D01*
X171890Y253543D02*
Y254725D01*
X171299Y269882D02*
X172480D01*
X171890Y269291D02*
Y270473D01*
X171299Y301378D02*
X172480D01*
X171890Y300787D02*
Y301969D01*
X171299Y317126D02*
X172480D01*
X171890Y316536D02*
Y317717D01*
X171063Y309252D02*
X172244D01*
X171653Y308662D02*
Y309843D01*
X171063Y325000D02*
X172244D01*
X171653Y324410D02*
Y325591D01*
X171063Y246260D02*
X172244D01*
X171653Y245669D02*
Y246850D01*
X171063Y293504D02*
X172244D01*
X171653Y292914D02*
Y294095D01*
X171063Y262008D02*
X172244D01*
X171653Y261417D02*
Y262598D01*
X171063Y277756D02*
X172244D01*
X171653Y277166D02*
Y278347D01*
X182992Y206890D02*
X184173D01*
X183583Y206299D02*
Y207480D01*
X182992Y222638D02*
X184173D01*
X183583Y222047D02*
Y223228D01*
X202758Y198816D02*
X203940D01*
X203349Y198226D02*
Y199407D01*
X202264Y230512D02*
X203445D01*
X202854Y229921D02*
Y231102D01*
X203346Y321949D02*
X204528D01*
X203937Y321358D02*
Y322539D01*
X191260Y346358D02*
X192441D01*
X191850Y345768D02*
Y346949D01*
X345571Y83858D02*
X346752D01*
X346161Y83268D02*
Y84449D01*
X356398Y96987D02*
X357579D01*
X356988Y96396D02*
Y97577D01*
X331004Y88767D02*
X332185D01*
X331595Y88177D02*
Y89358D01*
X344980Y96260D02*
X346949D01*
X345965Y95276D02*
Y97244D01*
X339928Y60271D02*
X341109D01*
X340519Y59680D02*
Y60861D01*
X347709Y53200D02*
X348890D01*
X348300Y52609D02*
Y53790D01*
X348209Y60709D02*
X349390D01*
X348799Y60118D02*
Y61299D01*
X350787Y39665D02*
X351969D01*
X351378Y39075D02*
Y40256D01*
X356102Y31890D02*
X357283D01*
X356693Y31299D02*
Y32480D01*
X210433Y27854D02*
X211614D01*
X211024Y27264D02*
Y28445D01*
X218307Y27854D02*
X219488D01*
X218898Y27264D02*
Y28445D01*
X226181Y27854D02*
X227362D01*
X226772Y27264D02*
Y28445D01*
X206496Y17913D02*
X207677D01*
X207087Y17323D02*
Y18504D01*
X214370Y17913D02*
X215551D01*
X214961Y17323D02*
Y18504D01*
X222244Y17913D02*
X223425D01*
X222835Y17323D02*
Y18504D01*
X143504Y65158D02*
X144685D01*
X144094Y64567D02*
Y65748D01*
X139567Y57284D02*
X140748D01*
X140157Y56693D02*
Y57874D01*
X135630Y82776D02*
X136811D01*
X136220Y82185D02*
Y83366D01*
X151378Y82776D02*
X152559D01*
X151968Y82185D02*
Y83366D01*
X167126Y82776D02*
X168307D01*
X167717Y82185D02*
Y83366D01*
X50953Y90158D02*
X52921D01*
X51937Y89173D02*
Y91142D01*
X31447Y359990D02*
X33415D01*
X32431Y359006D02*
Y360974D01*
X35187Y282348D02*
X36368D01*
X35778Y281758D02*
Y282939D01*
X310630Y35620D02*
X311811D01*
X311220Y35030D02*
Y36211D01*
X277362Y364272D02*
X278543D01*
X277953Y363681D02*
Y364862D01*
X285236Y364272D02*
X286417D01*
X285827Y363681D02*
Y364862D01*
X293110Y364272D02*
X294291D01*
X293701Y363681D02*
Y364862D01*
X300984Y364272D02*
X302165D01*
X301575Y363681D02*
Y364862D01*
X48324Y9295D02*
X49505D01*
X48915Y8705D02*
Y9886D01*
X13582Y120276D02*
X14764D01*
X14173Y119685D02*
Y120866D01*
X21457Y104528D02*
X22638D01*
X22047Y103937D02*
Y105118D01*
X278703Y180253D02*
X279885D01*
X279294Y179663D02*
Y180844D01*
X274902Y192618D02*
X276083D01*
X275492Y192028D02*
Y193209D01*
X269488Y191142D02*
X270669D01*
X270079Y190551D02*
Y191732D01*
X282070Y179149D02*
X283252D01*
X282661Y178559D02*
Y179740D01*
X275000Y173956D02*
X276181D01*
X275590Y173366D02*
Y174547D01*
X274606Y163976D02*
X275787D01*
X275197Y163386D02*
Y164567D01*
X288583Y187402D02*
X289764D01*
X289173Y186811D02*
Y187992D01*
X288386Y174114D02*
X289567D01*
X288976Y173524D02*
Y174705D01*
X288232Y179629D02*
X289413D01*
X288822Y179039D02*
Y180220D01*
X284088Y155982D02*
X285270D01*
X284679Y155392D02*
Y156573D01*
X259547Y217323D02*
X260728D01*
X260138Y216732D02*
Y217913D01*
X246850Y308465D02*
X249213D01*
X248031Y307283D02*
Y309646D01*
X274114Y210600D02*
X275295D01*
X274705Y210010D02*
Y211191D01*
X277362Y206890D02*
X278543D01*
X277953Y206299D02*
Y207480D01*
Y189665D02*
X279134D01*
X278543Y189075D02*
Y190256D01*
X254724Y214272D02*
X255906D01*
X255315Y213681D02*
Y214862D01*
X239809Y197400D02*
X240990D01*
X240400Y196809D02*
Y197991D01*
X343445Y104823D02*
X344626D01*
X344036Y104232D02*
Y105413D01*
X336417Y104626D02*
X337598D01*
X337008Y104035D02*
Y105217D01*
X323721Y107972D02*
X324902D01*
X324311Y107382D02*
Y108563D01*
X86319Y50098D02*
X87500D01*
X86910Y49508D02*
Y50689D01*
X285286Y119299D02*
X286468D01*
X285877Y118709D02*
Y119890D01*
X270472Y90951D02*
X271654D01*
X271063Y90360D02*
Y91541D01*
X267409Y92815D02*
X268590D01*
X268000Y92224D02*
Y93405D01*
X362972Y51600D02*
X364154D01*
X363563Y51009D02*
Y52191D01*
X209252Y327854D02*
X210433D01*
X209842Y327264D02*
Y328445D01*
X252559Y104626D02*
X253740D01*
X253150Y104035D02*
Y105217D01*
X14345Y134837D02*
X15527D01*
X14936Y134246D02*
Y135427D01*
X9646Y143898D02*
X10827D01*
X10236Y143307D02*
Y144488D01*
X310991Y155315D02*
X312172D01*
X311581Y154724D02*
Y155905D01*
X291237Y192717D02*
X292418D01*
X291827Y192126D02*
Y193307D01*
X301688Y178531D02*
X302869D01*
X302279Y177940D02*
Y179122D01*
X293271Y173488D02*
X294453D01*
X293862Y172898D02*
Y174079D01*
X298327Y176149D02*
X299508D01*
X298917Y175558D02*
Y176739D01*
X303169Y340296D02*
X304350D01*
X303759Y339705D02*
Y340886D01*
X299114Y296555D02*
X300295D01*
X299705Y295965D02*
Y297146D01*
X319685Y336909D02*
X320866D01*
X320276Y336319D02*
Y337500D01*
X294170Y322736D02*
X296533D01*
X295352Y321555D02*
Y323917D01*
X239469Y354626D02*
X241831D01*
X240650Y353445D02*
Y355807D01*
X241634Y302854D02*
X243996D01*
X242815Y301673D02*
Y304035D01*
X275689Y304626D02*
X278051D01*
X276870Y303445D02*
Y305807D01*
X267597Y282746D02*
X269959D01*
X268778Y281565D02*
Y283927D01*
X283569Y249344D02*
X284750D01*
X284160Y248753D02*
Y249935D01*
X284781Y317807D02*
X285962D01*
X285371Y317216D02*
Y318397D01*
X267544Y329166D02*
X268725D01*
X268134Y328575D02*
Y329756D01*
X278248Y325394D02*
X279429D01*
X278839Y324803D02*
Y325984D01*
X294390Y304626D02*
X295571D01*
X294980Y304035D02*
Y305217D01*
X291634Y196457D02*
X292815D01*
X292224Y195866D02*
Y197047D01*
X297374Y88748D02*
X298555D01*
X297965Y88157D02*
Y89339D01*
X310720Y114280D02*
X311901D01*
X311311Y113689D02*
Y114871D01*
X312340Y130437D02*
X313522D01*
X312931Y129847D02*
Y131028D01*
X318418Y125855D02*
X319599D01*
X319009Y125264D02*
Y126445D01*
X305268Y112384D02*
X306450D01*
X305859Y111793D02*
Y112974D01*
X259055Y128839D02*
X260236D01*
X259646Y128248D02*
Y129429D01*
X257776Y132579D02*
X258957D01*
X258366Y131988D02*
Y133169D01*
X67309Y81010D02*
X68490D01*
X67900Y80420D02*
Y81601D01*
X76575Y88779D02*
X77756D01*
X77165Y88189D02*
Y89370D01*
X71575Y77835D02*
X72756D01*
X72165Y77244D02*
Y78425D01*
X87402Y99213D02*
X88583D01*
X87992Y98622D02*
Y99803D01*
X88603Y96089D02*
X89784D01*
X89193Y95499D02*
Y96680D01*
X120177Y96752D02*
X121358D01*
X120768Y96161D02*
Y97342D01*
X9646Y112402D02*
X10827D01*
X10236Y111811D02*
Y112992D01*
X252010Y348900D02*
X253190D01*
X252600Y348309D02*
Y349490D01*
X245866Y364370D02*
X247047D01*
X246457Y363780D02*
Y364961D01*
X203051Y334055D02*
X204232D01*
X203642Y333465D02*
Y334646D01*
X211112Y340952D02*
X212294D01*
X211703Y340362D02*
Y341543D01*
X379725Y380118D02*
X380906D01*
X380315Y379528D02*
Y380709D01*
X364764Y358268D02*
X365945D01*
X365354Y357677D02*
Y358858D01*
X376772Y358000D02*
X377953D01*
X377362Y357410D02*
Y358591D01*
X348228Y380118D02*
X349410D01*
X348819Y379528D02*
Y380709D01*
X340354Y380118D02*
X341535D01*
X340945Y379528D02*
Y380709D01*
X344291Y356496D02*
X345473D01*
X344882Y355906D02*
Y357087D01*
X380509Y326600D02*
X381691D01*
X381100Y326009D02*
Y327190D01*
X371850Y348622D02*
X373032D01*
X372441Y348032D02*
Y349213D01*
X337894Y375984D02*
X339075D01*
X338484Y375394D02*
Y376575D01*
X332480Y380118D02*
X333662D01*
X333071Y379528D02*
Y380709D01*
X304921Y356496D02*
X306102D01*
X305512Y355906D02*
Y357087D01*
X300984Y348622D02*
X302165D01*
X301575Y348032D02*
Y349213D01*
X297047Y372244D02*
X298228D01*
X297638Y371654D02*
Y372835D01*
X289173Y372244D02*
X290354D01*
X289764Y371654D02*
Y372835D01*
X285236Y380118D02*
X286417D01*
X285827Y379528D02*
Y380709D01*
X281299Y372244D02*
X282480D01*
X281890Y371654D02*
Y372835D01*
X297047Y356496D02*
X298228D01*
X297638Y355906D02*
Y357087D01*
X289173Y356496D02*
X290354D01*
X289764Y355906D02*
Y357087D01*
X281299Y356496D02*
X282480D01*
X281890Y355906D02*
Y357087D01*
X282610Y348100D02*
X283790D01*
X283200Y347510D02*
Y348691D01*
X383662Y309252D02*
X384843D01*
X384252Y308662D02*
Y309843D01*
X379725Y317126D02*
X380906D01*
X380315Y316536D02*
Y317717D01*
X371850Y285630D02*
X373032D01*
X372441Y285039D02*
Y286221D01*
X356102Y301378D02*
X357283D01*
X356693Y300787D02*
Y301969D01*
X360039Y293504D02*
X361221D01*
X360630Y292914D02*
Y294095D01*
X340354Y301378D02*
X341535D01*
X340945Y300787D02*
Y301969D01*
X336417Y309252D02*
X337598D01*
X337008Y308662D02*
Y309843D01*
X348228Y301378D02*
X349410D01*
X348819Y300787D02*
Y301969D01*
X356102Y285630D02*
X357283D01*
X356693Y285039D02*
Y286221D01*
X360039Y277756D02*
X361221D01*
X360630Y277166D02*
Y278347D01*
X340354Y285630D02*
X341535D01*
X340945Y285039D02*
Y286221D01*
X348228Y285630D02*
X349410D01*
X348819Y285039D02*
Y286221D01*
X383662Y277756D02*
X384843D01*
X384252Y277166D02*
Y278347D01*
X391535Y246260D02*
X392717D01*
X392126Y245669D02*
Y246850D01*
X387598Y254134D02*
X388780D01*
X388189Y253543D02*
Y254725D01*
X379725Y222638D02*
X380906D01*
X380315Y222047D02*
Y223228D01*
X371850Y269882D02*
X373032D01*
X372441Y269291D02*
Y270473D01*
X360039Y230512D02*
X361221D01*
X360630Y229921D02*
Y231102D01*
X371850Y222638D02*
X373032D01*
X372441Y222047D02*
Y223228D01*
X360039Y262008D02*
X361221D01*
X360630Y261417D02*
Y262598D01*
X356102Y269882D02*
X357283D01*
X356693Y269291D02*
Y270473D01*
X348228Y254134D02*
X349410D01*
X348819Y253543D02*
Y254725D01*
X348228Y269882D02*
X349410D01*
X348819Y269291D02*
Y270473D01*
X340354Y269882D02*
X341535D01*
X340945Y269291D02*
Y270473D01*
X340354Y254134D02*
X341535D01*
X340945Y253543D02*
Y254725D01*
X360039Y246260D02*
X361221D01*
X360630Y245669D02*
Y246850D01*
X356102Y254134D02*
X357283D01*
X356693Y253543D02*
Y254725D01*
X356102Y238386D02*
X357283D01*
X356693Y237795D02*
Y238977D01*
X348228Y238386D02*
X349410D01*
X348819Y237795D02*
Y238977D01*
X336417Y230512D02*
X337598D01*
X337008Y229921D02*
Y231102D01*
X328543Y309252D02*
X329724D01*
X329134Y308662D02*
Y309843D01*
X316732Y285630D02*
X317913D01*
X317323Y285039D02*
Y286221D01*
X332480Y285630D02*
X333662D01*
X333071Y285039D02*
Y286221D01*
X316732Y301378D02*
X317913D01*
X317323Y300787D02*
Y301969D01*
X312795Y293504D02*
X313976D01*
X313386Y292914D02*
Y294095D01*
X336417Y277756D02*
X337598D01*
X337008Y277166D02*
Y278347D01*
X328543Y277756D02*
X329724D01*
X329134Y277166D02*
Y278347D01*
X332480Y269882D02*
X333662D01*
X333071Y269291D02*
Y270473D01*
X312795Y277756D02*
X313976D01*
X313386Y277166D02*
Y278347D01*
X308858Y269882D02*
X310039D01*
X309449Y269291D02*
Y270473D01*
X316732Y269882D02*
X317913D01*
X317323Y269291D02*
Y270473D01*
X293110Y317126D02*
X294291D01*
X293701Y316536D02*
Y317717D01*
X289173Y309252D02*
X290354D01*
X289764Y308662D02*
Y309843D01*
X328543Y262008D02*
X329724D01*
X329134Y261417D02*
Y262598D01*
X312795Y262008D02*
X313976D01*
X313386Y261417D02*
Y262598D01*
X336417Y262008D02*
X337598D01*
X337008Y261417D02*
Y262598D01*
X336417Y246260D02*
X337598D01*
X337008Y245669D02*
Y246850D01*
X332480Y254134D02*
X333662D01*
X333071Y253543D02*
Y254725D01*
X332480Y238386D02*
X333662D01*
X333071Y237795D02*
Y238977D01*
X320669Y230512D02*
X321850D01*
X321260Y229921D02*
Y231102D01*
X320669Y246260D02*
X321850D01*
X321260Y245669D02*
Y246850D01*
X328543Y230512D02*
X329724D01*
X329134Y229921D02*
Y231102D01*
X277362Y380118D02*
X278543D01*
X277953Y379528D02*
Y380709D01*
X273425Y356496D02*
X274606D01*
X274016Y355906D02*
Y357087D01*
X273425Y372244D02*
X274606D01*
X274016Y371654D02*
Y372835D01*
X269488Y380118D02*
X270669D01*
X270079Y379528D02*
Y380709D01*
X269488Y364370D02*
X270669D01*
X270079Y363780D02*
Y364961D01*
X269488Y332874D02*
X270669D01*
X270079Y332284D02*
Y333465D01*
X234055Y372244D02*
X235236D01*
X234646Y371654D02*
Y372835D01*
X261614Y364370D02*
X262795D01*
X262205Y363780D02*
Y364961D01*
X230118Y380118D02*
X231299D01*
X230709Y379528D02*
Y380709D01*
X226181Y372244D02*
X227362D01*
X226772Y371654D02*
Y372835D01*
X230118Y364370D02*
X231299D01*
X230709Y363780D02*
Y364961D01*
X261614Y317126D02*
X262795D01*
X262205Y316536D02*
Y317717D01*
X222244Y380118D02*
X223425D01*
X222835Y379528D02*
Y380709D01*
X218307Y372244D02*
X219488D01*
X218898Y371654D02*
Y372835D01*
X222244Y364370D02*
X223425D01*
X222835Y363780D02*
Y364961D01*
X210433Y372244D02*
X211614D01*
X211024Y371654D02*
Y372835D01*
X198622Y364370D02*
X199803D01*
X199213Y363780D02*
Y364961D01*
X197909Y368500D02*
X199091D01*
X198500Y367910D02*
Y369091D01*
X206496Y364370D02*
X207677D01*
X207087Y363780D02*
Y364961D01*
X194685Y340748D02*
X195866D01*
X195275Y340158D02*
Y341339D01*
X202559Y325000D02*
X203740D01*
X203150Y324410D02*
Y325591D01*
X198622Y332874D02*
X199803D01*
X199213Y332284D02*
Y333465D01*
X194685Y325000D02*
X195866D01*
X195275Y324410D02*
Y325591D01*
X249803Y277756D02*
X250984D01*
X250394Y277166D02*
Y278347D01*
X245866Y269882D02*
X247047D01*
X246457Y269291D02*
Y270473D01*
X269488Y254134D02*
X270669D01*
X270079Y253543D02*
Y254725D01*
X249803Y262008D02*
X250984D01*
X250394Y261417D02*
Y262598D01*
X234055Y262008D02*
X235236D01*
X234646Y261417D02*
Y262598D01*
X241929Y262008D02*
X243110D01*
X242520Y261417D02*
Y262598D01*
X249803Y246260D02*
X250984D01*
X250394Y245669D02*
Y246850D01*
X241929Y246260D02*
X243110D01*
X242520Y245669D02*
Y246850D01*
X245866Y238386D02*
X247047D01*
X246457Y237795D02*
Y238977D01*
X234055Y246260D02*
X235236D01*
X234646Y245669D02*
Y246850D01*
X237992Y222638D02*
X239173D01*
X238583Y222047D02*
Y223228D01*
X230118Y222638D02*
X231299D01*
X230709Y222047D02*
Y223228D01*
X225886Y307087D02*
X227067D01*
X226476Y306496D02*
Y307677D01*
X226181Y293504D02*
X227362D01*
X226772Y292914D02*
Y294095D01*
X226181Y277756D02*
X227362D01*
X226772Y277166D02*
Y278347D01*
X222244Y254134D02*
X223425D01*
X222835Y253543D02*
Y254725D01*
X222244Y269882D02*
X223425D01*
X222835Y269291D02*
Y270473D01*
X198622Y285630D02*
X199803D01*
X199213Y285039D02*
Y286221D01*
X194685Y293504D02*
X195866D01*
X195275Y292914D02*
Y294095D01*
X194685Y277756D02*
X195866D01*
X195275Y277166D02*
Y278347D01*
X190748Y301378D02*
X191929D01*
X191339Y300787D02*
Y301969D01*
X186811Y309252D02*
X187992D01*
X187401Y308662D02*
Y309843D01*
X186811Y293504D02*
X187992D01*
X187401Y292914D02*
Y294095D01*
X198622Y269882D02*
X199803D01*
X199213Y269291D02*
Y270473D01*
X194685Y262008D02*
X195866D01*
X195275Y261417D02*
Y262598D01*
X222244Y238386D02*
X223425D01*
X222835Y237795D02*
Y238977D01*
X226181Y230512D02*
X227362D01*
X226772Y229921D02*
Y231102D01*
X222244Y222638D02*
X223425D01*
X222835Y222047D02*
Y223228D01*
X201009Y247078D02*
X202190D01*
X201599Y246487D02*
Y247668D01*
X383662Y183268D02*
X384843D01*
X384252Y182677D02*
Y183858D01*
X383662Y214764D02*
X384843D01*
X384252Y214173D02*
Y215354D01*
X383662Y167520D02*
X384843D01*
X384252Y166929D02*
Y168110D01*
X375787Y214764D02*
X376969D01*
X376378Y214173D02*
Y215354D01*
X375787Y167520D02*
X376969D01*
X376378Y166929D02*
Y168110D01*
X391535Y151772D02*
X392717D01*
X392126Y151181D02*
Y152362D01*
X379725Y159646D02*
X380906D01*
X380315Y159055D02*
Y160236D01*
X383662Y136024D02*
X384843D01*
X384252Y135433D02*
Y136614D01*
X363976Y175394D02*
X365158D01*
X364567Y174803D02*
Y175984D01*
X371850Y159646D02*
X373032D01*
X372441Y159055D02*
Y160236D01*
X363976Y143898D02*
X365158D01*
X364567Y143307D02*
Y144488D01*
X363976Y159646D02*
X365158D01*
X364567Y159055D02*
Y160236D01*
X352165Y151772D02*
X353346D01*
X352756Y151181D02*
Y152362D01*
X383662Y120276D02*
X384843D01*
X384252Y119685D02*
Y120866D01*
X375787Y120276D02*
X376969D01*
X376378Y119685D02*
Y120866D01*
X383662Y104528D02*
X384843D01*
X384252Y103937D02*
Y105118D01*
X379725Y112402D02*
X380906D01*
X380315Y111811D02*
Y112992D01*
X375787Y104528D02*
X376969D01*
X376378Y103937D02*
Y105118D01*
X363976Y112402D02*
X365158D01*
X364567Y111811D02*
Y112992D01*
X363976Y128150D02*
X365158D01*
X364567Y127559D02*
Y128740D01*
X360039Y104528D02*
X361221D01*
X360630Y103937D02*
Y105118D01*
X336417Y214764D02*
X337598D01*
X337008Y214173D02*
Y215354D01*
X328543Y214764D02*
X329724D01*
X329134Y214173D02*
Y215354D01*
X320669Y214764D02*
X321850D01*
X321260Y214173D02*
Y215354D01*
X332480Y206890D02*
X333662D01*
X333071Y206299D02*
Y207480D01*
X334310Y197200D02*
X335490D01*
X334900Y196609D02*
Y197791D01*
X320669Y199016D02*
X321850D01*
X321260Y198425D02*
Y199606D01*
X316732Y191142D02*
X317913D01*
X317323Y190551D02*
Y191732D01*
X344291Y167520D02*
X345473D01*
X344882Y166929D02*
Y168110D01*
X320669Y88779D02*
X321850D01*
X321260Y88189D02*
Y89370D01*
X311409Y89469D02*
X312591D01*
X312000Y88878D02*
Y90059D01*
X379725Y80905D02*
X380906D01*
X380315Y80315D02*
Y81496D01*
X379725Y65158D02*
X380906D01*
X380315Y64567D02*
Y65748D01*
X383662Y41535D02*
X384843D01*
X384252Y40945D02*
Y42126D01*
X360039Y57284D02*
X361221D01*
X360630Y56693D02*
Y57874D01*
X352165Y73032D02*
X353346D01*
X352756Y72441D02*
Y73622D01*
X391535Y10039D02*
X392717D01*
X392126Y9449D02*
Y10630D01*
X379725Y33661D02*
X380906D01*
X380315Y33071D02*
Y34252D01*
X387598Y2165D02*
X388780D01*
X388189Y1575D02*
Y2756D01*
X375787Y25787D02*
X376969D01*
X376378Y25197D02*
Y26378D01*
X367913Y25787D02*
X369094D01*
X368504Y25197D02*
Y26378D01*
X352165Y25787D02*
X353346D01*
X352756Y25197D02*
Y26378D01*
X352165Y10039D02*
X353346D01*
X352756Y9449D02*
Y10630D01*
X308858Y80905D02*
X310039D01*
X309449Y80315D02*
Y81496D01*
X306209Y78000D02*
X307390D01*
X306800Y77409D02*
Y78591D01*
X328543Y57284D02*
X329724D01*
X329134Y56693D02*
Y57874D01*
X324606Y49409D02*
X325787D01*
X325197Y48819D02*
Y50000D01*
X348710Y28000D02*
X349890D01*
X349300Y27409D02*
Y28591D01*
X344291Y10039D02*
X345473D01*
X344882Y9449D02*
Y10630D01*
X344291Y25787D02*
X345473D01*
X344882Y25197D02*
Y26378D01*
X328543Y25787D02*
X329724D01*
X329134Y25197D02*
Y26378D01*
X328543Y10039D02*
X329724D01*
X329134Y9449D02*
Y10630D01*
X320669Y10039D02*
X321850D01*
X321260Y9449D02*
Y10630D01*
X336417Y10039D02*
X337598D01*
X337008Y9449D02*
Y10630D01*
X312795Y10039D02*
X313976D01*
X313386Y9449D02*
Y10630D01*
X261650Y191178D02*
X262831D01*
X262241Y190587D02*
Y191769D01*
X272933Y143504D02*
X274114D01*
X273524Y142913D02*
Y144095D01*
X281299Y136024D02*
X282480D01*
X281890Y135433D02*
Y136614D01*
X253740Y143898D02*
X254921D01*
X254331Y143307D02*
Y144488D01*
X259646Y143898D02*
X260827D01*
X260236Y143307D02*
Y144488D01*
X226181Y183268D02*
X227362D01*
X226772Y182677D02*
Y183858D01*
X226181Y214764D02*
X227362D01*
X226772Y214173D02*
Y215354D01*
X218307Y183268D02*
X219488D01*
X218898Y182677D02*
Y183858D01*
X234055Y167520D02*
X235236D01*
X234646Y166929D02*
Y168110D01*
X230118Y175394D02*
X231299D01*
X230709Y174803D02*
Y175984D01*
X222244Y175394D02*
X223425D01*
X222835Y174803D02*
Y175984D01*
X214370Y175394D02*
X215551D01*
X214961Y174803D02*
Y175984D01*
X214370Y159646D02*
X215551D01*
X214961Y159055D02*
Y160236D01*
X214370Y191142D02*
X215551D01*
X214961Y190551D02*
Y191732D01*
X210433Y199016D02*
X211614D01*
X211024Y198425D02*
Y199606D01*
X210433Y183268D02*
X211614D01*
X211024Y182677D02*
Y183858D01*
X206496Y191142D02*
X207677D01*
X207087Y190551D02*
Y191732D01*
X202559Y183268D02*
X203740D01*
X203150Y182677D02*
Y183858D01*
X206496Y175394D02*
X207677D01*
X207087Y174803D02*
Y175984D01*
X250098Y154823D02*
X251279D01*
X250689Y154232D02*
Y155413D01*
X245866Y159646D02*
X247047D01*
X246457Y159055D02*
Y160236D01*
X237992Y143898D02*
X239173D01*
X238583Y143307D02*
Y144488D01*
X241929Y136024D02*
X243110D01*
X242520Y135433D02*
Y136614D01*
X234055Y151772D02*
X235236D01*
X234646Y151181D02*
Y152362D01*
X230118Y143898D02*
X231299D01*
X230709Y143307D02*
Y144488D01*
X234055Y136024D02*
X235236D01*
X234646Y135433D02*
Y136614D01*
X214370Y143898D02*
X215551D01*
X214961Y143307D02*
Y144488D01*
X210433Y151772D02*
X211614D01*
X211024Y151181D02*
Y152362D01*
X222244Y143898D02*
X223425D01*
X222835Y143307D02*
Y144488D01*
X202559Y151772D02*
X203740D01*
X203150Y151181D02*
Y152362D01*
X206496Y143898D02*
X207677D01*
X207087Y143307D02*
Y144488D01*
X218307Y136024D02*
X219488D01*
X218898Y135433D02*
Y136614D01*
X210433Y136024D02*
X211614D01*
X211024Y135433D02*
Y136614D01*
X226181Y136024D02*
X227362D01*
X226772Y135433D02*
Y136614D01*
X202559Y136024D02*
X203740D01*
X203150Y135433D02*
Y136614D01*
X271850Y120866D02*
X273031D01*
X272441Y120276D02*
Y121457D01*
X269488Y105616D02*
X270669D01*
X270079Y105026D02*
Y106207D01*
X285236Y17913D02*
X286417D01*
X285827Y17323D02*
Y18504D01*
X289173Y10039D02*
X290354D01*
X289764Y9449D02*
Y10630D01*
X277362Y17913D02*
X278543D01*
X277953Y17323D02*
Y18504D01*
X281299Y10039D02*
X282480D01*
X281890Y9449D02*
Y10630D01*
X253740Y65158D02*
X254921D01*
X254331Y64567D02*
Y65748D01*
X269488Y17913D02*
X270669D01*
X270079Y17323D02*
Y18504D01*
X265551Y10039D02*
X266732D01*
X266142Y9449D02*
Y10630D01*
X253740Y2165D02*
X254921D01*
X254331Y1575D02*
Y2756D01*
X230118Y128150D02*
X231299D01*
X230709Y127559D02*
Y128740D01*
X214370Y128150D02*
X215551D01*
X214961Y127559D02*
Y128740D01*
X234055Y57284D02*
X235236D01*
X234646Y56693D02*
Y57874D01*
X234055Y73032D02*
X235236D01*
X234646Y72441D02*
Y73622D01*
X249803Y57284D02*
X250984D01*
X250394Y56693D02*
Y57874D01*
X218307Y73032D02*
X219488D01*
X218898Y72441D02*
Y73622D01*
X210433Y73032D02*
X211614D01*
X211024Y72441D02*
Y73622D01*
X218307Y57284D02*
X219488D01*
X218898Y56693D02*
Y57874D01*
X186811Y88779D02*
X187992D01*
X187401Y88189D02*
Y89370D01*
X186811Y120276D02*
X187992D01*
X187401Y119685D02*
Y120866D01*
X194685Y88779D02*
X195866D01*
X195275Y88189D02*
Y89370D01*
X202559Y73032D02*
X203740D01*
X203150Y72441D02*
Y73622D01*
X202559Y57284D02*
X203740D01*
X203150Y56693D02*
Y57874D01*
X194685Y73032D02*
X195866D01*
X195275Y72441D02*
Y73622D01*
X186811Y57284D02*
X187992D01*
X187401Y56693D02*
Y57874D01*
X222244Y49409D02*
X223425D01*
X222835Y48819D02*
Y50000D01*
X214370Y49409D02*
X215551D01*
X214961Y48819D02*
Y50000D01*
X218307Y10039D02*
X219488D01*
X218898Y9449D02*
Y10630D01*
X210433Y10039D02*
X211614D01*
X211024Y9449D02*
Y10630D01*
X210433Y57284D02*
X211614D01*
X211024Y56693D02*
Y57874D01*
X206496Y49409D02*
X207677D01*
X207087Y48819D02*
Y50000D01*
X198622Y49409D02*
X199803D01*
X199213Y48819D02*
Y50000D01*
X186811Y41535D02*
X187992D01*
X187401Y40945D02*
Y42126D01*
X198622Y33661D02*
X199803D01*
X199213Y33071D02*
Y34252D01*
X194685Y25787D02*
X195866D01*
X195275Y25197D02*
Y26378D01*
X190748Y33661D02*
X191929D01*
X191339Y33071D02*
Y34252D01*
X186811Y25787D02*
X187992D01*
X187401Y25197D02*
Y26378D01*
X182874Y380118D02*
X184055D01*
X183465Y379528D02*
Y380709D01*
X178937Y372244D02*
X180118D01*
X179527Y371654D02*
Y372835D01*
X182874Y364370D02*
X184055D01*
X183465Y363780D02*
Y364961D01*
X175000Y380118D02*
X176181D01*
X175591Y379528D02*
Y380709D01*
X171063Y372244D02*
X172244D01*
X171653Y371654D02*
Y372835D01*
X167126Y364370D02*
X168307D01*
X167717Y363780D02*
Y364961D01*
X175000Y348622D02*
X176181D01*
X175591Y348032D02*
Y349213D01*
X171063Y340748D02*
X172244D01*
X171653Y340158D02*
Y341339D01*
X171063Y356496D02*
X172244D01*
X171653Y355906D02*
Y357087D01*
X167126Y348622D02*
X168307D01*
X167717Y348032D02*
Y349213D01*
X167126Y332874D02*
X168307D01*
X167717Y332284D02*
Y333465D01*
X159252Y364370D02*
X160433D01*
X159843Y363780D02*
Y364961D01*
X155315Y356496D02*
X156496D01*
X155905Y355906D02*
Y357087D01*
X163189Y356496D02*
X164370D01*
X163779Y355906D02*
Y357087D01*
X155315Y372244D02*
X156496D01*
X155905Y371654D02*
Y372835D01*
X147441Y372244D02*
X148622D01*
X148031Y371654D02*
Y372835D01*
X143504Y364370D02*
X144685D01*
X144094Y363780D02*
Y364961D01*
X163189Y340748D02*
X164370D01*
X163779Y340158D02*
Y341339D01*
X159252Y348622D02*
X160433D01*
X159843Y348032D02*
Y349213D01*
X159252Y332874D02*
X160433D01*
X159843Y332284D02*
Y333465D01*
X151378Y348622D02*
X152559D01*
X151968Y348032D02*
Y349213D01*
X143504Y348622D02*
X144685D01*
X144094Y348032D02*
Y349213D01*
X139567Y340748D02*
X140748D01*
X140157Y340158D02*
Y341339D01*
X182874Y317126D02*
X184055D01*
X183465Y316536D02*
Y317717D01*
X167126Y301378D02*
X168307D01*
X167717Y300787D02*
Y301969D01*
X163189Y325000D02*
X164370D01*
X163779Y324410D02*
Y325591D01*
X155315Y325000D02*
X156496D01*
X155905Y324410D02*
Y325591D01*
X159252Y317126D02*
X160433D01*
X159843Y316536D02*
Y317717D01*
X147441Y325000D02*
X148622D01*
X148031Y324410D02*
Y325591D01*
X143504Y317126D02*
X144685D01*
X144094Y316536D02*
Y317717D01*
X151378Y317126D02*
X152559D01*
X151968Y316536D02*
Y317717D01*
X167126Y317126D02*
X168307D01*
X167717Y316536D02*
Y317717D01*
X155315Y309252D02*
X156496D01*
X155905Y308662D02*
Y309843D01*
X163189Y309252D02*
X164370D01*
X163779Y308662D02*
Y309843D01*
X139567Y309252D02*
X140748D01*
X140157Y308662D02*
Y309843D01*
X147441Y309252D02*
X148622D01*
X148031Y308662D02*
Y309843D01*
X135630Y380118D02*
X136811D01*
X136220Y379528D02*
Y380709D01*
X127756Y380118D02*
X128937D01*
X128346Y379528D02*
Y380709D01*
X123819Y372244D02*
X125000D01*
X124409Y371654D02*
Y372835D01*
X119882Y380118D02*
X121063D01*
X120472Y379528D02*
Y380709D01*
X115945Y372244D02*
X117126D01*
X116535Y371654D02*
Y372835D01*
X135630Y348622D02*
X136811D01*
X136220Y348032D02*
Y349213D01*
X131693Y372244D02*
X132874D01*
X132283Y371654D02*
Y372835D01*
X131693Y340748D02*
X132874D01*
X132283Y340158D02*
Y341339D01*
X127756Y348622D02*
X128937D01*
X128346Y348032D02*
Y349213D01*
X119882Y364370D02*
X121063D01*
X120472Y363780D02*
Y364961D01*
X123819Y340748D02*
X125000D01*
X124409Y340158D02*
Y341339D01*
X108071Y372244D02*
X109252D01*
X108661Y371654D02*
Y372835D01*
X100197Y372244D02*
X101378D01*
X100787Y371654D02*
Y372835D01*
X96260Y364370D02*
X97441D01*
X96850Y363780D02*
Y364961D01*
X112008Y364370D02*
X113189D01*
X112598Y363780D02*
Y364961D01*
X104134Y364370D02*
X105315D01*
X104724Y363780D02*
Y364961D01*
X104134Y348622D02*
X105315D01*
X104724Y348032D02*
Y349213D01*
X96260Y348622D02*
X97441D01*
X96850Y348032D02*
Y349213D01*
X100197Y340748D02*
X101378D01*
X100787Y340158D02*
Y341339D01*
X135630Y332874D02*
X136811D01*
X136220Y332284D02*
Y333465D01*
X131693Y325000D02*
X132874D01*
X132283Y324410D02*
Y325591D01*
X139567Y325000D02*
X140748D01*
X140157Y324410D02*
Y325591D01*
X127756Y332874D02*
X128937D01*
X128346Y332284D02*
Y333465D01*
X119882Y332874D02*
X121063D01*
X120472Y332284D02*
Y333465D01*
X123819Y325000D02*
X125000D01*
X124409Y324410D02*
Y325591D01*
X135630Y317126D02*
X136811D01*
X136220Y316536D02*
Y317717D01*
X127756Y317126D02*
X128937D01*
X128346Y316536D02*
Y317717D01*
X131693Y309252D02*
X132874D01*
X132283Y308662D02*
Y309843D01*
X119882Y317126D02*
X121063D01*
X120472Y316536D02*
Y317717D01*
X115945Y309252D02*
X117126D01*
X116535Y308662D02*
Y309843D01*
X123819Y309252D02*
X125000D01*
X124409Y308662D02*
Y309843D01*
X112008Y332874D02*
X113189D01*
X112598Y332284D02*
Y333465D01*
X108071Y325000D02*
X109252D01*
X108661Y324410D02*
Y325591D01*
X115945Y325000D02*
X117126D01*
X116535Y324410D02*
Y325591D01*
X100197Y325000D02*
X101378D01*
X100787Y324410D02*
Y325591D01*
X96260Y317126D02*
X97441D01*
X96850Y316536D02*
Y317717D01*
X112008Y317126D02*
X113189D01*
X112598Y316536D02*
Y317717D01*
X108071Y309252D02*
X109252D01*
X108661Y308662D02*
Y309843D01*
X104134Y301378D02*
X105315D01*
X104724Y300787D02*
Y301969D01*
X104134Y317126D02*
X105315D01*
X104724Y316536D02*
Y317717D01*
X100197Y309252D02*
X101378D01*
X100787Y308662D02*
Y309843D01*
X182874Y301378D02*
X184055D01*
X183465Y300787D02*
Y301969D01*
X163189Y293504D02*
X164370D01*
X163779Y292914D02*
Y294095D01*
X163189Y277756D02*
X164370D01*
X163779Y277166D02*
Y278347D01*
X184409Y266634D02*
X185591D01*
X185000Y266043D02*
Y267224D01*
X167126Y269882D02*
X168307D01*
X167717Y269291D02*
Y270473D01*
X182874Y269882D02*
X184055D01*
X183465Y269291D02*
Y270473D01*
X155315Y293504D02*
X156496D01*
X155905Y292914D02*
Y294095D01*
X147441Y277756D02*
X148622D01*
X148031Y277166D02*
Y278347D01*
X155315Y277756D02*
X156496D01*
X155905Y277166D02*
Y278347D01*
X147441Y293504D02*
X148622D01*
X148031Y292914D02*
Y294095D01*
X139567Y293504D02*
X140748D01*
X140157Y292914D02*
Y294095D01*
X139567Y277756D02*
X140748D01*
X140157Y277166D02*
Y278347D01*
X151378Y269882D02*
X152559D01*
X151968Y269291D02*
Y270473D01*
X143504Y269882D02*
X144685D01*
X144094Y269291D02*
Y270473D01*
X159252Y269882D02*
X160433D01*
X159843Y269291D02*
Y270473D01*
X135630Y269882D02*
X136811D01*
X136220Y269291D02*
Y270473D01*
X139567Y262008D02*
X140748D01*
X140157Y261417D02*
Y262598D01*
X182874Y254134D02*
X184055D01*
X183465Y253543D02*
Y254725D01*
X163189Y262008D02*
X164370D01*
X163779Y261417D02*
Y262598D01*
X167126Y254134D02*
X168307D01*
X167717Y253543D02*
Y254725D01*
X182874Y238386D02*
X184055D01*
X183465Y237795D02*
Y238977D01*
X167126Y238386D02*
X168307D01*
X167717Y237795D02*
Y238977D01*
X163189Y230512D02*
X164370D01*
X163779Y229921D02*
Y231102D01*
X171063Y230512D02*
X172244D01*
X171653Y229921D02*
Y231102D01*
X155315Y262008D02*
X156496D01*
X155905Y261417D02*
Y262598D01*
X151378Y238386D02*
X152559D01*
X151968Y237795D02*
Y238977D01*
X159252Y238386D02*
X160433D01*
X159843Y237795D02*
Y238977D01*
X147441Y262008D02*
X148622D01*
X148031Y261417D02*
Y262598D01*
X143504Y238386D02*
X144685D01*
X144094Y237795D02*
Y238977D01*
X139567Y230512D02*
X140748D01*
X140157Y229921D02*
Y231102D01*
X155315Y230512D02*
X156496D01*
X155905Y229921D02*
Y231102D01*
X147441Y230512D02*
X148622D01*
X148031Y229921D02*
Y231102D01*
X135630Y222638D02*
X136811D01*
X136220Y222047D02*
Y223228D01*
X127756Y301378D02*
X128937D01*
X128346Y300787D02*
Y301969D01*
X123819Y293504D02*
X125000D01*
X124409Y292914D02*
Y294095D01*
X131693Y277756D02*
X132874D01*
X132283Y277166D02*
Y278347D01*
X119882Y301378D02*
X121063D01*
X120472Y300787D02*
Y301969D01*
X115945Y293504D02*
X117126D01*
X116535Y292914D02*
Y294095D01*
X123819Y262008D02*
X125000D01*
X124409Y261417D02*
Y262598D01*
X131693Y262008D02*
X132874D01*
X132283Y261417D02*
Y262598D01*
X115945Y262008D02*
X117126D01*
X116535Y261417D02*
Y262598D01*
X112008Y254134D02*
X113189D01*
X112598Y253543D02*
Y254725D01*
X112008Y301378D02*
X113189D01*
X112598Y300787D02*
Y301969D01*
X100197Y293504D02*
X101378D01*
X100787Y292914D02*
Y294095D01*
X108071Y293504D02*
X109252D01*
X108661Y292914D02*
Y294095D01*
X112008Y285630D02*
X113189D01*
X112598Y285039D02*
Y286221D01*
X104134Y285630D02*
X105315D01*
X104724Y285039D02*
Y286221D01*
X100197Y262008D02*
X101378D01*
X100787Y261417D02*
Y262598D01*
X96260Y285630D02*
X97441D01*
X96850Y285039D02*
Y286221D01*
X96260Y254134D02*
X97441D01*
X96850Y253543D02*
Y254725D01*
X119882Y254134D02*
X121063D01*
X120472Y253543D02*
Y254725D01*
X135630Y238386D02*
X136811D01*
X136220Y237795D02*
Y238977D01*
X100197Y246260D02*
X101378D01*
X100787Y245669D02*
Y246850D01*
X108071Y246260D02*
X109252D01*
X108661Y245669D02*
Y246850D01*
X115945Y246260D02*
X117126D01*
X116535Y245669D02*
Y246850D01*
X112008Y238386D02*
X113189D01*
X112598Y237795D02*
Y238977D01*
X104134Y238386D02*
X105315D01*
X104724Y237795D02*
Y238977D01*
X96260Y222638D02*
X97441D01*
X96850Y222047D02*
Y223228D01*
X76575Y387992D02*
X77756D01*
X77165Y387402D02*
Y388583D01*
X72638Y380118D02*
X73819D01*
X73228Y379528D02*
Y380709D01*
X80512Y380118D02*
X81693D01*
X81102Y379528D02*
Y380709D01*
X68701Y387992D02*
X69882D01*
X69291Y387402D02*
Y388583D01*
X64764Y380118D02*
X65945D01*
X65354Y379528D02*
Y380709D01*
X76575Y372244D02*
X77756D01*
X77165Y371654D02*
Y372835D01*
X68701Y372244D02*
X69882D01*
X69291Y371654D02*
Y372835D01*
X92323Y340748D02*
X93504D01*
X92913Y340158D02*
Y341339D01*
X64764Y348622D02*
X65945D01*
X65354Y348032D02*
Y349213D01*
X60827Y387992D02*
X62008D01*
X61417Y387402D02*
Y388583D01*
X56890Y380118D02*
X58071D01*
X57480Y379528D02*
Y380709D01*
X52953Y387992D02*
X54134D01*
X53543Y387402D02*
Y388583D01*
X49016Y380118D02*
X50197D01*
X49606Y379528D02*
Y380709D01*
X60827Y372244D02*
X62008D01*
X61417Y371654D02*
Y372835D01*
X52953Y372244D02*
X54134D01*
X53543Y371654D02*
Y372835D01*
X52953Y340748D02*
X54134D01*
X53543Y340158D02*
Y341339D01*
X49016Y364370D02*
X50197D01*
X49606Y363780D02*
Y364961D01*
X45079Y372244D02*
X46260D01*
X45669Y371654D02*
Y372835D01*
X49016Y348622D02*
X50197D01*
X49606Y348032D02*
Y349213D01*
X84449Y340748D02*
X85630D01*
X85039Y340158D02*
Y341339D01*
X76575Y340748D02*
X77756D01*
X77165Y340158D02*
Y341339D01*
X68701Y340748D02*
X69882D01*
X69291Y340158D02*
Y341339D01*
X80512Y332874D02*
X81693D01*
X81102Y332284D02*
Y333465D01*
X76575Y325000D02*
X77756D01*
X77165Y324410D02*
Y325591D01*
X72638Y317126D02*
X73819D01*
X73228Y316536D02*
Y317717D01*
X60827Y340748D02*
X62008D01*
X61417Y340158D02*
Y341339D01*
X49016Y332874D02*
X50197D01*
X49606Y332284D02*
Y333465D01*
X45079Y325000D02*
X46260D01*
X45669Y324410D02*
Y325591D01*
X64764Y317126D02*
X65945D01*
X65354Y316536D02*
Y317717D01*
X52953Y325000D02*
X54134D01*
X53543Y324410D02*
Y325591D01*
X49016Y317126D02*
X50197D01*
X49606Y316536D02*
Y317717D01*
X37205Y387992D02*
X38386D01*
X37795Y387402D02*
Y388583D01*
X21457Y387992D02*
X22638D01*
X22047Y387402D02*
Y388583D01*
X29331Y387992D02*
X30512D01*
X29921Y387402D02*
Y388583D01*
X45079Y387992D02*
X46260D01*
X45669Y387402D02*
Y388583D01*
X41142Y380118D02*
X42323D01*
X41732Y379528D02*
Y380709D01*
X29331Y372244D02*
X30512D01*
X29921Y371654D02*
Y372835D01*
X21457Y372244D02*
X22638D01*
X22047Y371654D02*
Y372835D01*
X25394Y364370D02*
X26575D01*
X25984Y363780D02*
Y364961D01*
X13582Y387992D02*
X14764D01*
X14173Y387402D02*
Y388583D01*
X5708Y387992D02*
X6890D01*
X6299Y387402D02*
Y388583D01*
X9646Y364370D02*
X10827D01*
X10236Y363780D02*
Y364961D01*
X17520Y364370D02*
X18701D01*
X18110Y363780D02*
Y364961D01*
X1771Y380118D02*
X2953D01*
X2362Y379528D02*
Y380709D01*
X9646Y380118D02*
X10827D01*
X10236Y379528D02*
Y380709D01*
X41142Y348622D02*
X42323D01*
X41732Y348032D02*
Y349213D01*
X37205Y340748D02*
X38386D01*
X37795Y340158D02*
Y341339D01*
X45079Y340748D02*
X46260D01*
X45669Y340158D02*
Y341339D01*
X33268Y364370D02*
X34449D01*
X33858Y363780D02*
Y364961D01*
X25394Y348622D02*
X26575D01*
X25984Y348032D02*
Y349213D01*
X41142Y332874D02*
X42323D01*
X41732Y332284D02*
Y333465D01*
X37205Y325000D02*
X38386D01*
X37795Y324410D02*
Y325591D01*
X41142Y317126D02*
X42323D01*
X41732Y316536D02*
Y317717D01*
X25394Y332874D02*
X26575D01*
X25984Y332284D02*
Y333465D01*
X21457Y356496D02*
X22638D01*
X22047Y355906D02*
Y357087D01*
X17520Y348622D02*
X18701D01*
X18110Y348032D02*
Y349213D01*
X21457Y340748D02*
X22638D01*
X22047Y340158D02*
Y341339D01*
X13582Y356496D02*
X14764D01*
X14173Y355906D02*
Y357087D01*
X9646Y348622D02*
X10827D01*
X10236Y348032D02*
Y349213D01*
X13582Y340748D02*
X14764D01*
X14173Y340158D02*
Y341339D01*
X17520Y332874D02*
X18701D01*
X18110Y332284D02*
Y333465D01*
X13582Y325000D02*
X14764D01*
X14173Y324410D02*
Y325591D01*
X21457Y325000D02*
X22638D01*
X22047Y324410D02*
Y325591D01*
X9646Y332874D02*
X10827D01*
X10236Y332284D02*
Y333465D01*
X9646Y317126D02*
X10827D01*
X10236Y316536D02*
Y317717D01*
X92323Y293504D02*
X93504D01*
X92913Y292914D02*
Y294095D01*
X92323Y309252D02*
X93504D01*
X92913Y308662D02*
Y309843D01*
X88386Y285630D02*
X89567D01*
X88976Y285039D02*
Y286221D01*
X84449Y293504D02*
X85630D01*
X85039Y292914D02*
Y294095D01*
X84449Y309252D02*
X85630D01*
X85039Y308662D02*
Y309843D01*
X80512Y285630D02*
X81693D01*
X81102Y285039D02*
Y286221D01*
X84449Y277756D02*
X85630D01*
X85039Y277166D02*
Y278347D01*
X76575Y277756D02*
X77756D01*
X77165Y277166D02*
Y278347D01*
X76575Y293504D02*
X77756D01*
X77165Y292914D02*
Y294095D01*
X60827Y309252D02*
X62008D01*
X61417Y308662D02*
Y309843D01*
X60827Y293504D02*
X62008D01*
X61417Y292914D02*
Y294095D01*
X68701Y277756D02*
X69882D01*
X69291Y277166D02*
Y278347D01*
X72638Y269882D02*
X73819D01*
X73228Y269291D02*
Y270473D01*
X60827Y277756D02*
X62008D01*
X61417Y277166D02*
Y278347D01*
X88386Y269882D02*
X89567D01*
X88976Y269291D02*
Y270473D01*
X84449Y262008D02*
X85630D01*
X85039Y261417D02*
Y262598D01*
X92323Y262008D02*
X93504D01*
X92913Y261417D02*
Y262598D01*
X80512Y269882D02*
X81693D01*
X81102Y269291D02*
Y270473D01*
X84449Y230512D02*
X85630D01*
X85039Y229921D02*
Y231102D01*
X76575Y230512D02*
X77756D01*
X77165Y229921D02*
Y231102D01*
X64764Y254134D02*
X65945D01*
X65354Y253543D02*
Y254725D01*
X64764Y269882D02*
X65945D01*
X65354Y269291D02*
Y270473D01*
X60827Y246260D02*
X62008D01*
X61417Y245669D02*
Y246850D01*
X60827Y262008D02*
X62008D01*
X61417Y261417D02*
Y262598D01*
X52953Y262008D02*
X54134D01*
X53543Y261417D02*
Y262598D01*
X52953Y246260D02*
X54134D01*
X53543Y245669D02*
Y246850D01*
X68701Y230512D02*
X69882D01*
X69291Y229921D02*
Y231102D01*
X64764Y222638D02*
X65945D01*
X65354Y222047D02*
Y223228D01*
X72638Y222638D02*
X73819D01*
X73228Y222047D02*
Y223228D01*
X52953Y230512D02*
X54134D01*
X53543Y229921D02*
Y231102D01*
X60827Y230512D02*
X62008D01*
X61417Y229921D02*
Y231102D01*
X52953Y309252D02*
X54134D01*
X53543Y308662D02*
Y309843D01*
X49016Y301378D02*
X50197D01*
X49606Y300787D02*
Y301969D01*
X52953Y293504D02*
X54134D01*
X53543Y292914D02*
Y294095D01*
X45079Y309252D02*
X46260D01*
X45669Y308662D02*
Y309843D01*
X41142Y301378D02*
X42323D01*
X41732Y300787D02*
Y301969D01*
X45079Y293504D02*
X46260D01*
X45669Y292914D02*
Y294095D01*
X52953Y277756D02*
X54134D01*
X53543Y277166D02*
Y278347D01*
X49016Y285630D02*
X50197D01*
X49606Y285039D02*
Y286221D01*
X49016Y269882D02*
X50197D01*
X49606Y269291D02*
Y270473D01*
X45079Y277756D02*
X46260D01*
X45669Y277166D02*
Y278347D01*
X41142Y285630D02*
X42323D01*
X41732Y285039D02*
Y286221D01*
X41142Y269882D02*
X42323D01*
X41732Y269291D02*
Y270473D01*
X37205Y309252D02*
X38386D01*
X37795Y308662D02*
Y309843D01*
X25394Y301378D02*
X26575D01*
X25984Y300787D02*
Y301969D01*
X37205Y293504D02*
X38386D01*
X37795Y292914D02*
Y294095D01*
X25394Y285630D02*
X26575D01*
X25984Y285039D02*
Y286221D01*
X21457Y277756D02*
X22638D01*
X22047Y277166D02*
Y278347D01*
X17520Y285630D02*
X18701D01*
X18110Y285039D02*
Y286221D01*
X13582Y277756D02*
X14764D01*
X14173Y277166D02*
Y278347D01*
X49016Y254134D02*
X50197D01*
X49606Y253543D02*
Y254725D01*
X45079Y262008D02*
X46260D01*
X45669Y261417D02*
Y262598D01*
X45079Y246260D02*
X46260D01*
X45669Y245669D02*
Y246850D01*
X41142Y254134D02*
X42323D01*
X41732Y253543D02*
Y254725D01*
X29331Y262008D02*
X30512D01*
X29921Y261417D02*
Y262598D01*
X25394Y238386D02*
X26575D01*
X25984Y237795D02*
Y238977D01*
X49016Y238386D02*
X50197D01*
X49606Y237795D02*
Y238977D01*
X45079Y230512D02*
X46260D01*
X45669Y229921D02*
Y231102D01*
X49016Y222638D02*
X50197D01*
X49606Y222047D02*
Y223228D01*
X41142Y238386D02*
X42323D01*
X41732Y237795D02*
Y238977D01*
X25394Y222638D02*
X26575D01*
X25984Y222047D02*
Y223228D01*
X41142Y222638D02*
X42323D01*
X41732Y222047D02*
Y223228D01*
X25394Y254134D02*
X26575D01*
X25984Y253543D02*
Y254725D01*
X21457Y246260D02*
X22638D01*
X22047Y245669D02*
Y246850D01*
X21457Y230512D02*
X22638D01*
X22047Y229921D02*
Y231102D01*
X13582Y230512D02*
X14764D01*
X14173Y229921D02*
Y231102D01*
X17520Y222638D02*
X18701D01*
X18110Y222047D02*
Y223228D01*
X163189Y199016D02*
X164370D01*
X163779Y198425D02*
Y199606D01*
X171063Y199016D02*
X172244D01*
X171653Y198425D02*
Y199606D01*
X182874Y191142D02*
X184055D01*
X183465Y190551D02*
Y191732D01*
X167126Y191142D02*
X168307D01*
X167717Y190551D02*
Y191732D01*
X178937Y183268D02*
X180118D01*
X179527Y182677D02*
Y183858D01*
X159252Y191142D02*
X160433D01*
X159843Y190551D02*
Y191732D01*
X163189Y183268D02*
X164370D01*
X163779Y182677D02*
Y183858D01*
X155315Y199016D02*
X156496D01*
X155905Y198425D02*
Y199606D01*
X147441Y199016D02*
X148622D01*
X148031Y198425D02*
Y199606D01*
X139567Y214764D02*
X140748D01*
X140157Y214173D02*
Y215354D01*
X143504Y191142D02*
X144685D01*
X144094Y190551D02*
Y191732D01*
X155315Y183268D02*
X156496D01*
X155905Y182677D02*
Y183858D01*
X151378Y191142D02*
X152559D01*
X151968Y190551D02*
Y191732D01*
X131693Y183268D02*
X132874D01*
X132283Y182677D02*
Y183858D01*
X147441Y183268D02*
X148622D01*
X148031Y182677D02*
Y183858D01*
X182874Y175394D02*
X184055D01*
X183465Y174803D02*
Y175984D01*
X178937Y167520D02*
X180118D01*
X179527Y166929D02*
Y168110D01*
X175000Y159646D02*
X176181D01*
X175591Y159055D02*
Y160236D01*
X167126Y175394D02*
X168307D01*
X167717Y174803D02*
Y175984D01*
X159252Y175394D02*
X160433D01*
X159843Y174803D02*
Y175984D01*
X175000Y175394D02*
X176181D01*
X175591Y174803D02*
Y175984D01*
X182874Y159646D02*
X184055D01*
X183465Y159055D02*
Y160236D01*
X178937Y151772D02*
X180118D01*
X179527Y151181D02*
Y152362D01*
X182874Y143898D02*
X184055D01*
X183465Y143307D02*
Y144488D01*
X159252Y143898D02*
X160433D01*
X159843Y143307D02*
Y144488D01*
X155315Y151772D02*
X156496D01*
X155905Y151181D02*
Y152362D01*
X175000Y143898D02*
X176181D01*
X175591Y143307D02*
Y144488D01*
X151378Y175394D02*
X152559D01*
X151968Y174803D02*
Y175984D01*
X147441Y167520D02*
X148622D01*
X148031Y166929D02*
Y168110D01*
X155315Y167520D02*
X156496D01*
X155905Y166929D02*
Y168110D01*
X143504Y175394D02*
X144685D01*
X144094Y174803D02*
Y175984D01*
X131693Y167520D02*
X132874D01*
X132283Y166929D02*
Y168110D01*
X143504Y159646D02*
X144685D01*
X144094Y159055D02*
Y160236D01*
X151378Y159646D02*
X152559D01*
X151968Y159055D02*
Y160236D01*
X147441Y151772D02*
X148622D01*
X148031Y151181D02*
Y152362D01*
X151378Y143898D02*
X152559D01*
X151968Y143307D02*
Y144488D01*
X131693Y151772D02*
X132874D01*
X132283Y151181D02*
Y152362D01*
X143504Y143898D02*
X144685D01*
X144094Y143307D02*
Y144488D01*
X131693Y214764D02*
X132874D01*
X132283Y214173D02*
Y215354D01*
X131693Y199016D02*
X132874D01*
X132283Y198425D02*
Y199606D01*
X123819Y199016D02*
X125000D01*
X124409Y198425D02*
Y199606D01*
X127756Y191142D02*
X128937D01*
X128346Y190551D02*
Y191732D01*
X115945Y199016D02*
X117126D01*
X116535Y198425D02*
Y199606D01*
X112008Y191142D02*
X113189D01*
X112598Y190551D02*
Y191732D01*
X119882Y191142D02*
X121063D01*
X120472Y190551D02*
Y191732D01*
X108071Y214764D02*
X109252D01*
X108661Y214173D02*
Y215354D01*
X104134Y206890D02*
X105315D01*
X104724Y206299D02*
Y207480D01*
X100197Y214764D02*
X101378D01*
X100787Y214173D02*
Y215354D01*
X96260Y206890D02*
X97441D01*
X96850Y206299D02*
Y207480D01*
X108071Y199016D02*
X109252D01*
X108661Y198425D02*
Y199606D01*
X100197Y199016D02*
X101378D01*
X100787Y198425D02*
Y199606D01*
X96260Y191142D02*
X97441D01*
X96850Y190551D02*
Y191732D01*
X123819Y183268D02*
X125000D01*
X124409Y182677D02*
Y183858D01*
X119882Y175394D02*
X121063D01*
X120472Y174803D02*
Y175984D01*
X127756Y175394D02*
X128937D01*
X128346Y174803D02*
Y175984D01*
X115945Y183268D02*
X117126D01*
X116535Y182677D02*
Y183858D01*
X108071Y183268D02*
X109252D01*
X108661Y182677D02*
Y183858D01*
X112008Y175394D02*
X113189D01*
X112598Y174803D02*
Y175984D01*
X119882Y143898D02*
X121063D01*
X120472Y143307D02*
Y144488D01*
X115945Y151772D02*
X117126D01*
X116535Y151181D02*
Y152362D01*
X127756Y143898D02*
X128937D01*
X128346Y143307D02*
Y144488D01*
X115945Y167520D02*
X117126D01*
X116535Y166929D02*
Y168110D01*
X108071Y167520D02*
X109252D01*
X108661Y166929D02*
Y168110D01*
X104134Y175394D02*
X105315D01*
X104724Y174803D02*
Y175984D01*
X104134Y191142D02*
X105315D01*
X104724Y190551D02*
Y191732D01*
X104134Y143898D02*
X105315D01*
X104724Y143307D02*
Y144488D01*
X96260Y143898D02*
X97441D01*
X96850Y143307D02*
Y144488D01*
X182874Y128150D02*
X184055D01*
X183465Y127559D02*
Y128740D01*
X178937Y136024D02*
X180118D01*
X179527Y135433D02*
Y136614D01*
X178937Y120276D02*
X180118D01*
X179527Y119685D02*
Y120866D01*
X175000Y128150D02*
X176181D01*
X175591Y127559D02*
Y128740D01*
X171063Y136024D02*
X172244D01*
X171653Y135433D02*
Y136614D01*
X171063Y120276D02*
X172244D01*
X171653Y119685D02*
Y120866D01*
X178937Y73032D02*
X180118D01*
X179527Y72441D02*
Y73622D01*
X178937Y88779D02*
X180118D01*
X179527Y88189D02*
Y89370D01*
X175000Y65158D02*
X176181D01*
X175591Y64567D02*
Y65748D01*
X171063Y73032D02*
X172244D01*
X171653Y72441D02*
Y73622D01*
X167126Y65158D02*
X168307D01*
X167717Y64567D02*
Y65748D01*
X167126Y128150D02*
X168307D01*
X167717Y127559D02*
Y128740D01*
X151378Y128150D02*
X152559D01*
X151968Y127559D02*
Y128740D01*
X163189Y120276D02*
X164370D01*
X163779Y119685D02*
Y120866D01*
X147441Y120276D02*
X148622D01*
X148031Y119685D02*
Y120866D01*
X143504Y128150D02*
X144685D01*
X144094Y127559D02*
Y128740D01*
X151378Y65158D02*
X152559D01*
X151968Y64567D02*
Y65748D01*
X147441Y57284D02*
X148622D01*
X148031Y56693D02*
Y57874D01*
X182874Y49409D02*
X184055D01*
X183465Y48819D02*
Y50000D01*
X178937Y41535D02*
X180118D01*
X179527Y40945D02*
Y42126D01*
X178937Y57284D02*
X180118D01*
X179527Y56693D02*
Y57874D01*
X175000Y49409D02*
X176181D01*
X175591Y48819D02*
Y50000D01*
X171063Y41535D02*
X172244D01*
X171653Y40945D02*
Y42126D01*
X178937Y25787D02*
X180118D01*
X179527Y25197D02*
Y26378D01*
X175000Y33661D02*
X176181D01*
X175591Y33071D02*
Y34252D01*
X171063Y25787D02*
X172244D01*
X171653Y25197D02*
Y26378D01*
X151378Y49409D02*
X152559D01*
X151968Y48819D02*
Y50000D01*
X143504Y49409D02*
X144685D01*
X144094Y48819D02*
Y50000D01*
X147441Y41535D02*
X148622D01*
X148031Y40945D02*
Y42126D01*
X167126Y33661D02*
X168307D01*
X167717Y33071D02*
Y34252D01*
X163189Y25787D02*
X164370D01*
X163779Y25197D02*
Y26378D01*
X167126Y17913D02*
X168307D01*
X167717Y17323D02*
Y18504D01*
X147441Y25787D02*
X148622D01*
X148031Y25197D02*
Y26378D01*
X159252Y17913D02*
X160433D01*
X159843Y17323D02*
Y18504D01*
X135630Y128150D02*
X136811D01*
X136220Y127559D02*
Y128740D01*
X131693Y120276D02*
X132874D01*
X132283Y119685D02*
Y120866D01*
X139567Y120276D02*
X140748D01*
X140157Y119685D02*
Y120866D01*
X127756Y128150D02*
X128937D01*
X128346Y127559D02*
Y128740D01*
X115945Y136024D02*
X117126D01*
X116535Y135433D02*
Y136614D01*
X123819Y120276D02*
X125000D01*
X124409Y119685D02*
Y120866D01*
X104134Y128150D02*
X105315D01*
X104724Y127559D02*
Y128740D01*
X100197Y136024D02*
X101378D01*
X100787Y135433D02*
Y136614D01*
X96260Y128150D02*
X97441D01*
X96850Y127559D02*
Y128740D01*
X96260Y96654D02*
X97441D01*
X96850Y96063D02*
Y97244D01*
X139567Y25787D02*
X140748D01*
X140157Y25197D02*
Y26378D01*
X135630Y49409D02*
X136811D01*
X136220Y48819D02*
Y50000D01*
X131693Y41535D02*
X132874D01*
X132283Y40945D02*
Y42126D01*
X131693Y25787D02*
X132874D01*
X132283Y25197D02*
Y26378D01*
X96260Y80905D02*
X97441D01*
X96850Y80315D02*
Y81496D01*
X96260Y65158D02*
X97441D01*
X96850Y64567D02*
Y65748D01*
X123819Y25787D02*
X125000D01*
X124409Y25197D02*
Y26378D01*
X112008Y17913D02*
X113189D01*
X112598Y17323D02*
Y18504D01*
X119882Y17913D02*
X121063D01*
X120472Y17323D02*
Y18504D01*
X104134Y33661D02*
X105315D01*
X104724Y33071D02*
Y34252D01*
X104134Y17913D02*
X105315D01*
X104724Y17323D02*
Y18504D01*
X92323Y199016D02*
X93504D01*
X92913Y198425D02*
Y199606D01*
X92323Y214764D02*
X93504D01*
X92913Y214173D02*
Y215354D01*
X76575Y214764D02*
X77756D01*
X77165Y214173D02*
Y215354D01*
X72638Y206890D02*
X73819D01*
X73228Y206299D02*
Y207480D01*
X76575Y199016D02*
X77756D01*
X77165Y198425D02*
Y199606D01*
X76575Y183268D02*
X77756D01*
X77165Y182677D02*
Y183858D01*
X72638Y191142D02*
X73819D01*
X73228Y190551D02*
Y191732D01*
X76575Y151772D02*
X77756D01*
X77165Y151181D02*
Y152362D01*
X68701Y199016D02*
X69882D01*
X69291Y198425D02*
Y199606D01*
X68701Y214764D02*
X69882D01*
X69291Y214173D02*
Y215354D01*
X64764Y191142D02*
X65945D01*
X65354Y190551D02*
Y191732D01*
X64764Y206890D02*
X65945D01*
X65354Y206299D02*
Y207480D01*
X60827Y214764D02*
X62008D01*
X61417Y214173D02*
Y215354D01*
X60827Y199016D02*
X62008D01*
X61417Y198425D02*
Y199606D01*
X68701Y183268D02*
X69882D01*
X69291Y182677D02*
Y183858D01*
X60827Y167520D02*
X62008D01*
X61417Y166929D02*
Y168110D01*
X68701Y167520D02*
X69882D01*
X69291Y166929D02*
Y168110D01*
X52953Y183268D02*
X54134D01*
X53543Y182677D02*
Y183858D01*
X60827Y183268D02*
X62008D01*
X61417Y182677D02*
Y183858D01*
X88386Y143898D02*
X89567D01*
X88976Y143307D02*
Y144488D01*
X84449Y136024D02*
X85630D01*
X85039Y135433D02*
Y136614D01*
X80512Y143898D02*
X81693D01*
X81102Y143307D02*
Y144488D01*
X92323Y136024D02*
X93504D01*
X92913Y135433D02*
Y136614D01*
X88386Y128150D02*
X89567D01*
X88976Y127559D02*
Y128740D01*
X80512Y128150D02*
X81693D01*
X81102Y127559D02*
Y128740D01*
X72638Y143898D02*
X73819D01*
X73228Y143307D02*
Y144488D01*
X68701Y136024D02*
X69882D01*
X69291Y135433D02*
Y136614D01*
X76575Y136024D02*
X77756D01*
X77165Y135433D02*
Y136614D01*
X68701Y151772D02*
X69882D01*
X69291Y151181D02*
Y152362D01*
X64764Y143898D02*
X65945D01*
X65354Y143307D02*
Y144488D01*
X60827Y136024D02*
X62008D01*
X61417Y135433D02*
Y136614D01*
X72638Y128150D02*
X73819D01*
X73228Y127559D02*
Y128740D01*
X68701Y120276D02*
X69882D01*
X69291Y119685D02*
Y120866D01*
X76575Y120276D02*
X77756D01*
X77165Y119685D02*
Y120866D01*
X64764Y128150D02*
X65945D01*
X65354Y127559D02*
Y128740D01*
X60827Y120276D02*
X62008D01*
X61417Y119685D02*
Y120866D01*
X52953Y214764D02*
X54134D01*
X53543Y214173D02*
Y215354D01*
X49016Y206890D02*
X50197D01*
X49606Y206299D02*
Y207480D01*
X45079Y199016D02*
X46260D01*
X45669Y198425D02*
Y199606D01*
X45079Y214764D02*
X46260D01*
X45669Y214173D02*
Y215354D01*
X25394Y206890D02*
X26575D01*
X25984Y206299D02*
Y207480D01*
X41142Y206890D02*
X42323D01*
X41732Y206299D02*
Y207480D01*
X52953Y199016D02*
X54134D01*
X53543Y198425D02*
Y199606D01*
X49016Y191142D02*
X50197D01*
X49606Y190551D02*
Y191732D01*
X45079Y167520D02*
X46260D01*
X45669Y166929D02*
Y168110D01*
X41142Y191142D02*
X42323D01*
X41732Y190551D02*
Y191732D01*
X25394Y191142D02*
X26575D01*
X25984Y190551D02*
Y191732D01*
X45079Y183268D02*
X46260D01*
X45669Y182677D02*
Y183858D01*
X9646Y175394D02*
X10827D01*
X10236Y174803D02*
Y175984D01*
X17520Y175394D02*
X18701D01*
X18110Y174803D02*
Y175984D01*
X52953Y167520D02*
X54134D01*
X53543Y166929D02*
Y168110D01*
X29331Y167520D02*
X30512D01*
X29921Y166929D02*
Y168110D01*
X52953Y151772D02*
X54134D01*
X53543Y151181D02*
Y152362D01*
X21457Y151772D02*
X22638D01*
X22047Y151181D02*
Y152362D01*
X21457Y136024D02*
X22638D01*
X22047Y135433D02*
Y136614D01*
X52953Y136024D02*
X54134D01*
X53543Y135433D02*
Y136614D01*
X49016Y128150D02*
X50197D01*
X49606Y127559D02*
Y128740D01*
X52953Y120276D02*
X54134D01*
X53543Y119685D02*
Y120866D01*
X21457Y120276D02*
X22638D01*
X22047Y119685D02*
Y120866D01*
X9646Y159646D02*
X10827D01*
X10236Y159055D02*
Y160236D01*
X17520Y128150D02*
X18701D01*
X18110Y127559D02*
Y128740D01*
X9646Y128150D02*
X10827D01*
X10236Y127559D02*
Y128740D01*
X76575Y104528D02*
X77756D01*
X77165Y103937D02*
Y105118D01*
X88386Y80905D02*
X89567D01*
X88976Y80315D02*
Y81496D01*
X80512Y80905D02*
X81693D01*
X81102Y80315D02*
Y81496D01*
X76910Y79300D02*
X78091D01*
X77500Y78710D02*
Y79891D01*
X73309Y110600D02*
X74490D01*
X73900Y110009D02*
Y111191D01*
X49016Y112402D02*
X50197D01*
X49606Y111811D02*
Y112992D01*
X45079Y104528D02*
X46260D01*
X45669Y103937D02*
Y105118D01*
X64764Y96654D02*
X65945D01*
X65354Y96063D02*
Y97244D01*
X92323Y57284D02*
X93504D01*
X92913Y56693D02*
Y57874D01*
X60827Y25787D02*
X62008D01*
X61417Y25197D02*
Y26378D01*
X25394Y96654D02*
X26575D01*
X25984Y96063D02*
Y97244D01*
X33268Y80905D02*
X34449D01*
X33858Y80315D02*
Y81496D01*
X29331Y73032D02*
X30512D01*
X29921Y72441D02*
Y73622D01*
X37205Y57284D02*
X38386D01*
X37795Y56693D02*
Y57874D01*
X21457Y57284D02*
X22638D01*
X22047Y56693D02*
Y57874D01*
X17520Y80905D02*
X18701D01*
X18110Y80315D02*
Y81496D01*
X13582Y57284D02*
X14764D01*
X14173Y56693D02*
Y57874D01*
X17520Y49409D02*
X18701D01*
X18110Y48819D02*
Y50000D01*
X9646Y65158D02*
X10827D01*
X10236Y64567D02*
Y65748D01*
X9646Y49409D02*
X10827D01*
X10236Y48819D02*
Y50000D01*
X37205Y25787D02*
X38386D01*
X37795Y25197D02*
Y26378D01*
X29331Y10039D02*
X30512D01*
X29921Y9449D02*
Y10630D01*
X13582Y41535D02*
X14764D01*
X14173Y40945D02*
Y42126D01*
X9646Y33661D02*
X10827D01*
X10236Y33071D02*
Y34252D01*
X17520Y2165D02*
X18701D01*
X18110Y1575D02*
Y2756D01*
X13582Y25787D02*
X14764D01*
X14173Y25197D02*
Y26378D01*
X9646Y2165D02*
X10827D01*
X10236Y1575D02*
Y2756D01*
X87303Y240551D02*
X88484D01*
X87894Y239961D02*
Y241142D01*
X282610Y210400D02*
X283790D01*
X283200Y209809D02*
Y210991D01*
X294685Y152657D02*
X295866D01*
X295275Y152067D02*
Y153248D01*
X46515Y50832D02*
X47696D01*
X47106Y50241D02*
Y51422D01*
X45191Y61000D02*
X46372D01*
X45781Y60409D02*
Y61590D01*
X49281Y60404D02*
X50463D01*
X49872Y59813D02*
Y60994D01*
X49948Y49954D02*
X51129D01*
X50538Y49363D02*
Y50544D01*
X57675Y46361D02*
X58856D01*
X58265Y45770D02*
Y46951D01*
X349496Y335272D02*
X350677D01*
X350087Y334681D02*
Y335862D01*
X325158Y359871D02*
X326339D01*
X325749Y359281D02*
Y360462D01*
X347834Y191831D02*
X349016D01*
X348425Y191240D02*
Y192421D01*
X340551Y181299D02*
X341732D01*
X341142Y180709D02*
Y181890D01*
X294709Y157000D02*
X295890D01*
X295300Y156409D02*
Y157591D01*
X325984Y104232D02*
X327165D01*
X326575Y103642D02*
Y104823D01*
X272933Y128347D02*
X274114D01*
X273524Y127756D02*
Y128937D01*
X267290Y121115D02*
X268471D01*
X267881Y120525D02*
Y121706D01*
X238809Y322100D02*
X239990D01*
X239400Y321510D02*
Y322691D01*
X108465Y52500D02*
X110433D01*
X109449Y51516D02*
Y53484D01*
X76673Y36220D02*
X77854D01*
X77264Y35630D02*
Y36811D01*
X341260Y340650D02*
X342441D01*
X341850Y340059D02*
Y341240D01*
X310653Y200935D02*
X311835D01*
X311244Y200345D02*
Y201526D01*
X283268Y201378D02*
X284449D01*
X283858Y200787D02*
Y201969D01*
X274810Y122933D02*
X275991D01*
X275401Y122343D02*
Y123524D01*
X281791Y119882D02*
X282972D01*
X282382Y119291D02*
Y120472D01*
X278302Y120498D02*
X279483D01*
X278892Y119907D02*
Y121088D01*
X277703Y131087D02*
X278884D01*
X278294Y130496D02*
Y131677D01*
X272143Y135827D02*
X273324D01*
X272733Y135236D02*
Y136417D01*
X307382Y252165D02*
X308563D01*
X307972Y251575D02*
Y252756D01*
X251175Y344027D02*
X252356D01*
X251765Y343437D02*
Y344618D01*
X241051Y341634D02*
X242232D01*
X241642Y341043D02*
Y342224D01*
X201336Y317727D02*
X202517D01*
X201927Y317136D02*
Y318317D01*
X234941Y296063D02*
X236122D01*
X235531Y295472D02*
Y296654D01*
X329479Y358051D02*
X330660D01*
X330070Y357461D02*
Y358642D01*
X356299Y342618D02*
X357480D01*
X356890Y342028D02*
Y343209D01*
X45494Y82398D02*
X46676D01*
X46085Y81807D02*
Y82989D01*
X320768Y314173D02*
X321949D01*
X321358Y313583D02*
Y314764D01*
X329331Y323510D02*
X330512D01*
X329921Y322919D02*
Y324100D01*
X281988Y144488D02*
X283169D01*
X282579Y143898D02*
Y145079D01*
X120374Y116043D02*
X121555D01*
X120965Y115453D02*
Y116634D01*
X108858Y82972D02*
X110039D01*
X109449Y82382D02*
Y83563D01*
X286964Y151279D02*
X288145D01*
X287555Y150689D02*
Y151870D01*
X339567Y153593D02*
X340748D01*
X340158Y153002D02*
Y154183D01*
X57854Y35453D02*
X59036D01*
X58445Y34862D02*
Y36043D01*
X330906Y173847D02*
X332086D01*
X331496Y173256D02*
Y174437D01*
X331004Y138529D02*
X332185D01*
X331594Y137939D02*
Y139120D01*
X295571Y241505D02*
X296752D01*
X296162Y240914D02*
Y242095D01*
X299902Y130807D02*
X301083D01*
X300492Y130217D02*
Y131398D01*
X91831Y102953D02*
X93012D01*
X92421Y102362D02*
Y103543D01*
X289985Y121858D02*
X291166D01*
X290575Y121268D02*
Y122449D01*
X363046Y87797D02*
X364227D01*
X363636Y87206D02*
Y88387D01*
X353051Y143701D02*
X354232D01*
X353642Y143110D02*
Y144291D01*
X294685Y162854D02*
X295866D01*
X295276Y162263D02*
Y163445D01*
X316503Y173849D02*
X317684D01*
X317093Y173259D02*
Y174440D01*
X363091Y325787D02*
X364272D01*
X363681Y325197D02*
Y326378D01*
X317815Y149213D02*
X318996D01*
X318406Y148622D02*
Y149803D01*
X272539Y79724D02*
X273721D01*
X273130Y79134D02*
Y80315D01*
X298108Y344193D02*
X299289D01*
X298698Y343602D02*
Y344784D01*
X315624Y119955D02*
X316805D01*
X316215Y119364D02*
Y120545D01*
X309350Y140650D02*
X310531D01*
X309941Y140059D02*
Y141240D01*
X339665Y147047D02*
X340846D01*
X340256Y146457D02*
Y147638D01*
X320669Y144980D02*
X321850D01*
X321260Y144390D02*
Y145571D01*
X314856Y135241D02*
X316037D01*
X315446Y134651D02*
Y135832D01*
X295171Y124508D02*
X296353D01*
X295762Y123917D02*
Y125098D01*
X96254Y105813D02*
X97435D01*
X96844Y105223D02*
Y106404D01*
X51575Y96752D02*
X52756D01*
X52165Y96161D02*
Y97342D01*
X364715Y83317D02*
X365896D01*
X365305Y82726D02*
Y83908D01*
X264709Y261964D02*
X265891D01*
X265300Y261373D02*
Y262554D01*
X290796Y117674D02*
X291977D01*
X291387Y117083D02*
Y118264D01*
X295630Y50376D02*
X296811D01*
X296220Y49785D02*
Y50966D01*
X273210Y240600D02*
X274391D01*
X273800Y240009D02*
Y241191D01*
X198899Y117912D02*
X200080D01*
X199489Y117321D02*
Y118502D01*
X275980Y78081D02*
X277161D01*
X276570Y77490D02*
Y78671D01*
X284744Y85630D02*
X285925D01*
X285335Y85039D02*
Y86221D01*
X293943Y145660D02*
X295124D01*
X294533Y145070D02*
Y146251D01*
X313747Y144509D02*
X314928D01*
X314337Y143918D02*
Y145099D01*
X286927Y139067D02*
X288108D01*
X287518Y138476D02*
Y139657D01*
X357523Y327621D02*
X358704D01*
X358113Y327030D02*
Y328211D01*
X310295Y346614D02*
X311476D01*
X310886Y346024D02*
Y347205D01*
X345571Y147638D02*
X346752D01*
X346161Y147047D02*
Y148228D01*
X308071Y98228D02*
X309252D01*
X308661Y97638D02*
Y98819D01*
X290453Y72342D02*
X291634D01*
X291043Y71752D02*
Y72933D01*
X313598Y139653D02*
X314779D01*
X314189Y139062D02*
Y140243D01*
X57419Y40809D02*
X58600D01*
X58009Y40219D02*
Y41400D01*
X278773Y154993D02*
X279955D01*
X279364Y154402D02*
Y155583D01*
X203466Y215343D02*
X204647D01*
X204056Y214753D02*
Y215934D01*
X364961Y69587D02*
X366142D01*
X365551Y68996D02*
Y70177D01*
X351508Y85630D02*
X352689D01*
X352098Y85039D02*
Y86221D01*
X372972Y55929D02*
X374153D01*
X373563Y55339D02*
Y56520D01*
X334529Y182794D02*
X335710D01*
X335120Y182203D02*
Y183384D01*
X336811Y134449D02*
X337992D01*
X337402Y133858D02*
Y135039D01*
X142028Y108512D02*
X143209D01*
X142618Y107922D02*
Y109103D01*
X278326Y198471D02*
X279507D01*
X278916Y197880D02*
Y199061D01*
X346614Y321063D02*
X347795D01*
X347205Y320472D02*
Y321654D01*
X351181Y199941D02*
X352362D01*
X351771Y199350D02*
Y200531D01*
X314091Y101376D02*
X315272D01*
X314682Y100786D02*
Y101967D01*
X278913Y80882D02*
X280095D01*
X279504Y80291D02*
Y81472D01*
X202166Y124508D02*
X203347D01*
X202756Y123917D02*
Y125098D01*
X332480Y49961D02*
X333661D01*
X333071Y49370D02*
Y50551D01*
X301378Y91240D02*
X302559D01*
X301969Y90650D02*
Y91831D01*
X101673Y43209D02*
X102854D01*
X102264Y42618D02*
Y43799D01*
X59230Y84200D02*
X60411D01*
X59821Y83609D02*
Y84790D01*
X76209Y31980D02*
X77390D01*
X76800Y31390D02*
Y32571D01*
X348710Y368800D02*
X349890D01*
X349300Y368210D02*
Y369391D01*
X348710Y363000D02*
X349890D01*
X349300Y362409D02*
Y363591D01*
X221260Y332807D02*
X222441D01*
X221850Y332217D02*
Y333398D01*
X297736Y349803D02*
X298917D01*
X298327Y349213D02*
Y350394D01*
X266043Y338024D02*
X267224D01*
X266634Y337433D02*
Y338614D01*
X307959Y59055D02*
X309140D01*
X308549Y58465D02*
Y59646D01*
X354035Y53445D02*
X355217D01*
X354626Y52854D02*
Y54035D01*
X71575Y38504D02*
X72756D01*
X72165Y37913D02*
Y39094D01*
X240109Y268900D02*
X241290D01*
X240700Y268309D02*
Y269491D01*
X358071Y124606D02*
X360039D01*
X359055Y123622D02*
Y125591D01*
X358366Y317717D02*
X359547D01*
X358957Y317126D02*
Y318307D01*
X368012Y317717D02*
X369193D01*
X368602Y317126D02*
Y318307D01*
X246909Y68500D02*
X248091D01*
X247500Y67909D02*
Y69090D01*
X29309Y35300D02*
X30491D01*
X29900Y34709D02*
Y35891D01*
X368061Y338681D02*
X369242D01*
X368652Y338091D02*
Y339272D01*
X305293Y49705D02*
X306473D01*
X305883Y49114D02*
Y50295D01*
X315748Y49764D02*
X316929D01*
X316339Y49173D02*
Y50354D01*
X78666Y74800D02*
X79847D01*
X79257Y74209D02*
Y75390D01*
X67309Y91200D02*
X68490D01*
X67900Y90610D02*
Y91790D01*
X33609Y38400D02*
X34791D01*
X34200Y37809D02*
Y38991D01*
X81209Y32000D02*
X82390D01*
X81800Y31409D02*
Y32591D01*
X315748Y59606D02*
X316929D01*
X316339Y59016D02*
Y60197D01*
X346720Y327067D02*
X347902D01*
X347311Y326477D02*
Y327658D01*
X323110Y346200D02*
X324290D01*
X323700Y345609D02*
Y346791D01*
X57314Y51523D02*
X58495D01*
X57905Y50932D02*
Y52113D01*
X57314Y114272D02*
X58495D01*
X57905Y113681D02*
Y114862D01*
X57200Y363681D02*
X58382D01*
X57791Y363091D02*
Y364272D01*
X66616Y24700D02*
X68584D01*
X67600Y23716D02*
Y25684D01*
X47638Y359843D02*
X49606D01*
X48622Y358858D02*
Y360827D01*
X358268Y215059D02*
X360236D01*
X359252Y214075D02*
Y216043D01*
X38563Y187697D02*
X39744D01*
X39154Y187106D02*
Y188287D01*
X66079Y111122D02*
X67260D01*
X66669Y110531D02*
Y111713D01*
X376083Y338730D02*
X377264D01*
X376673Y338140D02*
Y339321D01*
X330216Y339575D02*
X331398D01*
X330807Y338984D02*
Y340165D01*
X347909Y70600D02*
X349091D01*
X348500Y70009D02*
Y71191D01*
X19488Y29721D02*
X20669D01*
X20079Y29131D02*
Y30312D01*
X358268Y139862D02*
X360236D01*
X359252Y138878D02*
Y140847D01*
X49410Y15059D02*
X51378D01*
X50394Y14075D02*
Y16043D01*
X235669Y51516D02*
X236851D01*
X236260Y50925D02*
Y52106D01*
X149311Y359843D02*
X151280D01*
X150295Y358858D02*
Y360827D01*
M02*
