G04*
G04 #@! TF.GenerationSoftware,Altium Limited,Altium Designer,25.5.2 (35)*
G04*
G04 Layer_Color=65535*
%FSLAX25Y25*%
%MOIN*%
G70*
G04*
G04 #@! TF.SameCoordinates,5858FFA7-226C-4CE8-8668-B70CF27CC624*
G04*
G04*
G04 #@! TF.FilePolarity,Positive*
G04*
G01*
G75*
%ADD10C,0.00984*%
%ADD11C,0.02362*%
%ADD12C,0.00591*%
%ADD13C,0.01000*%
%ADD14C,0.00700*%
%ADD15C,0.00787*%
%ADD16R,0.01181X0.04724*%
%ADD17R,0.04724X0.01181*%
%ADD18O,0.06299X0.01772*%
%ADD19C,0.01575*%
%ADD20C,0.00799*%
%ADD21C,0.00800*%
G36*
X59121Y301717D02*
Y301371D01*
X56602Y300396D01*
Y300760D01*
X58433Y301415D01*
X58437D01*
X58444Y301419D01*
X58455Y301422D01*
X58469Y301430D01*
X58491Y301433D01*
X58513Y301440D01*
X58568Y301459D01*
X58629Y301481D01*
X58698Y301502D01*
X58844Y301546D01*
X58841D01*
X58833Y301550D01*
X58822Y301553D01*
X58808Y301557D01*
X58768Y301568D01*
X58713Y301586D01*
X58651Y301604D01*
X58582Y301626D01*
X58509Y301652D01*
X58433Y301681D01*
X56602Y302365D01*
Y302703D01*
X59121Y301717D01*
D02*
G37*
G36*
Y298528D02*
X59117D01*
X59103D01*
X59081D01*
X59052Y298532D01*
X59019Y298536D01*
X58982Y298543D01*
X58946Y298550D01*
X58906Y298565D01*
X58902D01*
X58899Y298569D01*
X58877Y298576D01*
X58844Y298590D01*
X58801Y298612D01*
X58750Y298641D01*
X58691Y298678D01*
X58633Y298718D01*
X58571Y298769D01*
X58568D01*
X58564Y298776D01*
X58542Y298794D01*
X58509Y298827D01*
X58462Y298874D01*
X58407Y298929D01*
X58342Y298998D01*
X58269Y299082D01*
X58193Y299173D01*
X58189Y299176D01*
X58178Y299191D01*
X58160Y299213D01*
X58138Y299238D01*
X58109Y299271D01*
X58076Y299311D01*
X58040Y299351D01*
X58000Y299398D01*
X57912Y299489D01*
X57825Y299580D01*
X57781Y299624D01*
X57738Y299664D01*
X57697Y299700D01*
X57657Y299730D01*
X57654D01*
X57650Y299737D01*
X57639Y299744D01*
X57625Y299751D01*
X57585Y299777D01*
X57537Y299806D01*
X57479Y299832D01*
X57417Y299857D01*
X57348Y299872D01*
X57283Y299879D01*
X57279D01*
X57275D01*
X57253Y299875D01*
X57217Y299872D01*
X57177Y299861D01*
X57126Y299846D01*
X57075Y299821D01*
X57024Y299788D01*
X56973Y299744D01*
X56966Y299737D01*
X56951Y299719D01*
X56933Y299693D01*
X56908Y299653D01*
X56886Y299602D01*
X56864Y299544D01*
X56849Y299475D01*
X56846Y299398D01*
Y299377D01*
X56849Y299362D01*
X56853Y299318D01*
X56864Y299267D01*
X56879Y299213D01*
X56904Y299151D01*
X56937Y299093D01*
X56980Y299038D01*
X56988Y299031D01*
X57006Y299016D01*
X57035Y298994D01*
X57079Y298973D01*
X57130Y298947D01*
X57195Y298925D01*
X57268Y298911D01*
X57352Y298903D01*
X57319Y298587D01*
X57315D01*
X57304Y298590D01*
X57286D01*
X57261Y298594D01*
X57232Y298601D01*
X57199Y298608D01*
X57159Y298619D01*
X57119Y298630D01*
X57031Y298659D01*
X56944Y298703D01*
X56900Y298729D01*
X56857Y298761D01*
X56817Y298794D01*
X56780Y298831D01*
X56777Y298834D01*
X56773Y298842D01*
X56762Y298852D01*
X56751Y298871D01*
X56737Y298892D01*
X56722Y298918D01*
X56704Y298947D01*
X56686Y298983D01*
X56667Y299024D01*
X56649Y299067D01*
X56635Y299114D01*
X56620Y299165D01*
X56609Y299220D01*
X56598Y299278D01*
X56595Y299340D01*
X56591Y299406D01*
Y299442D01*
X56595Y299467D01*
X56598Y299497D01*
X56602Y299533D01*
X56609Y299573D01*
X56616Y299613D01*
X56642Y299708D01*
X56678Y299802D01*
X56700Y299850D01*
X56726Y299897D01*
X56758Y299941D01*
X56795Y299981D01*
X56798Y299984D01*
X56802Y299992D01*
X56817Y299999D01*
X56831Y300013D01*
X56849Y300032D01*
X56875Y300050D01*
X56900Y300068D01*
X56933Y300090D01*
X57002Y300126D01*
X57090Y300163D01*
X57133Y300177D01*
X57184Y300185D01*
X57235Y300192D01*
X57290Y300196D01*
X57297D01*
X57315D01*
X57344Y300192D01*
X57385Y300188D01*
X57428Y300181D01*
X57479Y300166D01*
X57534Y300152D01*
X57588Y300130D01*
X57596Y300126D01*
X57614Y300119D01*
X57643Y300105D01*
X57683Y300083D01*
X57727Y300054D01*
X57781Y300017D01*
X57836Y299974D01*
X57898Y299923D01*
X57905Y299915D01*
X57927Y299897D01*
X57945Y299879D01*
X57963Y299861D01*
X57985Y299839D01*
X58014Y299810D01*
X58043Y299781D01*
X58076Y299744D01*
X58113Y299708D01*
X58153Y299664D01*
X58193Y299617D01*
X58240Y299566D01*
X58287Y299508D01*
X58338Y299449D01*
X58342Y299446D01*
X58349Y299438D01*
X58360Y299424D01*
X58375Y299406D01*
X58396Y299384D01*
X58418Y299358D01*
X58466Y299300D01*
X58520Y299238D01*
X58575Y299180D01*
X58622Y299129D01*
X58640Y299107D01*
X58658Y299089D01*
X58662Y299085D01*
X58673Y299074D01*
X58688Y299060D01*
X58710Y299042D01*
X58735Y299024D01*
X58760Y299002D01*
X58822Y298958D01*
Y300199D01*
X59121D01*
Y298528D01*
D02*
G37*
G36*
Y297469D02*
X57152D01*
X57155Y297465D01*
X57170Y297447D01*
X57192Y297426D01*
X57217Y297389D01*
X57250Y297349D01*
X57286Y297298D01*
X57326Y297240D01*
X57366Y297174D01*
Y297171D01*
X57370Y297167D01*
X57385Y297145D01*
X57403Y297109D01*
X57424Y297065D01*
X57450Y297014D01*
X57476Y296960D01*
X57501Y296905D01*
X57523Y296850D01*
X57224D01*
Y296854D01*
X57217Y296861D01*
X57213Y296876D01*
X57203Y296894D01*
X57192Y296916D01*
X57177Y296941D01*
X57141Y297003D01*
X57101Y297076D01*
X57050Y297149D01*
X56991Y297225D01*
X56929Y297302D01*
X56926Y297305D01*
X56922Y297309D01*
X56911Y297320D01*
X56900Y297335D01*
X56864Y297367D01*
X56820Y297411D01*
X56769Y297455D01*
X56711Y297502D01*
X56653Y297542D01*
X56591Y297578D01*
Y297779D01*
X59121D01*
Y297469D01*
D02*
G37*
G36*
X58520Y244908D02*
X58571Y244901D01*
X58629Y244886D01*
X58691Y244868D01*
X58757Y244839D01*
X58826Y244799D01*
X58830D01*
X58833Y244795D01*
X58855Y244777D01*
X58888Y244752D01*
X58924Y244715D01*
X58968Y244668D01*
X59015Y244610D01*
X59059Y244544D01*
X59099Y244468D01*
Y244464D01*
X59103Y244457D01*
X59106Y244446D01*
X59114Y244431D01*
X59121Y244409D01*
X59132Y244384D01*
X59146Y244326D01*
X59164Y244257D01*
X59183Y244173D01*
X59194Y244082D01*
X59197Y243984D01*
Y243925D01*
X59194Y243896D01*
Y243864D01*
X59190Y243827D01*
X59186Y243783D01*
X59172Y243692D01*
X59157Y243598D01*
X59132Y243503D01*
X59099Y243412D01*
Y243408D01*
X59095Y243401D01*
X59088Y243390D01*
X59081Y243376D01*
X59059Y243332D01*
X59026Y243281D01*
X58982Y243223D01*
X58931Y243161D01*
X58870Y243103D01*
X58801Y243048D01*
X58797D01*
X58789Y243041D01*
X58779Y243037D01*
X58764Y243026D01*
X58746Y243019D01*
X58724Y243008D01*
X58669Y242983D01*
X58600Y242957D01*
X58524Y242935D01*
X58437Y242921D01*
X58346Y242913D01*
X58316Y243227D01*
X58320D01*
X58324D01*
X58334Y243230D01*
X58349D01*
X58382Y243237D01*
X58429Y243248D01*
X58477Y243263D01*
X58531Y243277D01*
X58582Y243303D01*
X58629Y243328D01*
X58633Y243332D01*
X58648Y243343D01*
X58673Y243361D01*
X58698Y243390D01*
X58731Y243427D01*
X58764Y243467D01*
X58797Y243521D01*
X58826Y243580D01*
Y243583D01*
X58830Y243587D01*
X58833Y243598D01*
X58837Y243609D01*
X58848Y243645D01*
X58862Y243692D01*
X58877Y243751D01*
X58888Y243816D01*
X58895Y243889D01*
X58899Y243969D01*
Y244002D01*
X58895Y244038D01*
X58891Y244082D01*
X58884Y244133D01*
X58877Y244191D01*
X58862Y244249D01*
X58844Y244304D01*
X58841Y244311D01*
X58833Y244329D01*
X58819Y244355D01*
X58804Y244388D01*
X58779Y244420D01*
X58753Y244457D01*
X58724Y244493D01*
X58688Y244522D01*
X58684Y244526D01*
X58669Y244533D01*
X58651Y244544D01*
X58622Y244559D01*
X58593Y244573D01*
X58557Y244584D01*
X58517Y244591D01*
X58473Y244595D01*
X58469D01*
X58451D01*
X58429Y244591D01*
X58400Y244588D01*
X58371Y244577D01*
X58334Y244566D01*
X58298Y244548D01*
X58265Y244522D01*
X58262Y244519D01*
X58251Y244508D01*
X58236Y244493D01*
X58214Y244468D01*
X58193Y244439D01*
X58167Y244398D01*
X58142Y244351D01*
X58120Y244297D01*
X58116Y244293D01*
X58113Y244275D01*
X58102Y244246D01*
X58098Y244227D01*
X58091Y244202D01*
X58080Y244177D01*
X58073Y244144D01*
X58061Y244107D01*
X58051Y244064D01*
X58040Y244020D01*
X58025Y243969D01*
X58011Y243911D01*
X57996Y243849D01*
Y243845D01*
X57992Y243834D01*
X57989Y243816D01*
X57981Y243794D01*
X57974Y243765D01*
X57967Y243732D01*
X57945Y243660D01*
X57920Y243580D01*
X57894Y243496D01*
X57869Y243423D01*
X57854Y243390D01*
X57840Y243361D01*
Y243357D01*
X57836Y243354D01*
X57821Y243332D01*
X57803Y243299D01*
X57774Y243263D01*
X57741Y243219D01*
X57701Y243176D01*
X57654Y243132D01*
X57603Y243095D01*
X57596Y243092D01*
X57577Y243081D01*
X57548Y243066D01*
X57512Y243052D01*
X57465Y243037D01*
X57410Y243023D01*
X57352Y243012D01*
X57290Y243008D01*
X57286D01*
X57283D01*
X57272D01*
X57257D01*
X57221Y243015D01*
X57173Y243023D01*
X57119Y243034D01*
X57057Y243052D01*
X56995Y243077D01*
X56933Y243114D01*
X56929D01*
X56926Y243117D01*
X56904Y243135D01*
X56875Y243161D01*
X56839Y243194D01*
X56798Y243237D01*
X56755Y243292D01*
X56715Y243357D01*
X56678Y243430D01*
Y243434D01*
X56675Y243441D01*
X56671Y243452D01*
X56664Y243467D01*
X56656Y243485D01*
X56649Y243510D01*
X56635Y243565D01*
X56620Y243634D01*
X56605Y243714D01*
X56595Y243798D01*
X56591Y243893D01*
Y243940D01*
X56595Y243965D01*
Y243991D01*
X56602Y244060D01*
X56613Y244137D01*
X56631Y244216D01*
X56653Y244304D01*
X56682Y244384D01*
Y244388D01*
X56686Y244395D01*
X56693Y244406D01*
X56700Y244420D01*
X56718Y244457D01*
X56751Y244504D01*
X56788Y244559D01*
X56835Y244613D01*
X56889Y244664D01*
X56951Y244712D01*
X56955D01*
X56959Y244715D01*
X56969Y244723D01*
X56980Y244730D01*
X57017Y244748D01*
X57064Y244770D01*
X57122Y244795D01*
X57192Y244813D01*
X57264Y244832D01*
X57344Y244839D01*
X57370Y244519D01*
X57366D01*
X57359D01*
X57348Y244515D01*
X57330Y244511D01*
X57290Y244500D01*
X57235Y244486D01*
X57177Y244464D01*
X57119Y244431D01*
X57064Y244391D01*
X57013Y244340D01*
X57010Y244333D01*
X56995Y244315D01*
X56973Y244278D01*
X56951Y244231D01*
X56929Y244169D01*
X56908Y244096D01*
X56893Y244005D01*
X56889Y243903D01*
Y243852D01*
X56893Y243831D01*
X56897Y243802D01*
X56904Y243736D01*
X56919Y243663D01*
X56937Y243590D01*
X56966Y243521D01*
X56984Y243492D01*
X57002Y243463D01*
X57006Y243456D01*
X57020Y243441D01*
X57046Y243419D01*
X57075Y243397D01*
X57115Y243372D01*
X57159Y243350D01*
X57210Y243336D01*
X57268Y243328D01*
X57275D01*
X57290D01*
X57315Y243332D01*
X57344Y243339D01*
X57381Y243350D01*
X57417Y243368D01*
X57454Y243390D01*
X57490Y243423D01*
X57494Y243427D01*
X57505Y243445D01*
X57516Y243459D01*
X57523Y243474D01*
X57534Y243496D01*
X57548Y243521D01*
X57559Y243554D01*
X57574Y243590D01*
X57588Y243631D01*
X57607Y243678D01*
X57621Y243729D01*
X57639Y243787D01*
X57654Y243852D01*
X57672Y243925D01*
Y243929D01*
X57676Y243944D01*
X57679Y243965D01*
X57687Y243991D01*
X57694Y244024D01*
X57705Y244064D01*
X57716Y244104D01*
X57727Y244147D01*
X57752Y244242D01*
X57778Y244333D01*
X57792Y244377D01*
X57807Y244417D01*
X57818Y244453D01*
X57832Y244482D01*
Y244486D01*
X57836Y244493D01*
X57843Y244504D01*
X57850Y244519D01*
X57872Y244559D01*
X57901Y244606D01*
X57941Y244661D01*
X57985Y244715D01*
X58036Y244766D01*
X58091Y244810D01*
X58098Y244813D01*
X58116Y244828D01*
X58149Y244843D01*
X58193Y244864D01*
X58244Y244883D01*
X58305Y244901D01*
X58375Y244912D01*
X58447Y244915D01*
X58451D01*
X58455D01*
X58466D01*
X58480D01*
X58520Y244908D01*
D02*
G37*
G36*
X58185Y242466D02*
X58222D01*
X58265Y242462D01*
X58309Y242458D01*
X58407Y242447D01*
X58509Y242433D01*
X58608Y242411D01*
X58655Y242396D01*
X58698Y242382D01*
X58702D01*
X58710Y242378D01*
X58720Y242371D01*
X58735Y242364D01*
X58775Y242342D01*
X58826Y242309D01*
X58884Y242266D01*
X58942Y242214D01*
X59004Y242149D01*
X59059Y242069D01*
Y242065D01*
X59066Y242058D01*
X59070Y242047D01*
X59081Y242029D01*
X59092Y242007D01*
X59103Y241978D01*
X59114Y241949D01*
X59128Y241912D01*
X59143Y241872D01*
X59153Y241829D01*
X59164Y241781D01*
X59175Y241727D01*
X59183Y241672D01*
X59190Y241614D01*
X59197Y241483D01*
Y241450D01*
X59194Y241425D01*
Y241395D01*
X59190Y241359D01*
X59186Y241319D01*
X59183Y241279D01*
X59168Y241188D01*
X59146Y241090D01*
X59117Y240995D01*
X59077Y240904D01*
Y240900D01*
X59070Y240893D01*
X59062Y240882D01*
X59055Y240868D01*
X59026Y240828D01*
X58986Y240780D01*
X58935Y240726D01*
X58877Y240675D01*
X58804Y240624D01*
X58724Y240584D01*
X58720D01*
X58713Y240580D01*
X58698Y240577D01*
X58680Y240569D01*
X58658Y240562D01*
X58629Y240555D01*
X58597Y240544D01*
X58557Y240536D01*
X58513Y240529D01*
X58466Y240518D01*
X58415Y240511D01*
X58360Y240504D01*
X58298Y240496D01*
X58233Y240493D01*
X58163Y240489D01*
X58091D01*
X56635D01*
Y240824D01*
X58091D01*
X58094D01*
X58105D01*
X58123D01*
X58145D01*
X58171Y240828D01*
X58204D01*
X58273Y240831D01*
X58353Y240839D01*
X58433Y240849D01*
X58509Y240864D01*
X58542Y240871D01*
X58575Y240882D01*
X58582Y240886D01*
X58600Y240893D01*
X58626Y240911D01*
X58662Y240933D01*
X58698Y240959D01*
X58739Y240995D01*
X58779Y241039D01*
X58811Y241090D01*
X58815Y241097D01*
X58826Y241115D01*
X58837Y241148D01*
X58851Y241192D01*
X58870Y241243D01*
X58881Y241308D01*
X58891Y241377D01*
X58895Y241454D01*
Y241490D01*
X58891Y241512D01*
Y241545D01*
X58888Y241578D01*
X58873Y241658D01*
X58855Y241745D01*
X58826Y241829D01*
X58786Y241909D01*
X58760Y241945D01*
X58731Y241978D01*
X58728Y241982D01*
X58724Y241985D01*
X58713Y241992D01*
X58698Y242003D01*
X58677Y242014D01*
X58655Y242029D01*
X58622Y242043D01*
X58589Y242058D01*
X58549Y242073D01*
X58502Y242084D01*
X58447Y242098D01*
X58389Y242109D01*
X58324Y242120D01*
X58254Y242127D01*
X58174Y242134D01*
X58091D01*
X56635D01*
Y242469D01*
X58091D01*
X58094D01*
X58109D01*
X58127D01*
X58153D01*
X58185Y242466D01*
D02*
G37*
G36*
X58487Y240023D02*
X58531Y240016D01*
X58582Y240009D01*
X58637Y239994D01*
X58695Y239976D01*
X58753Y239950D01*
X58760Y239947D01*
X58779Y239936D01*
X58804Y239921D01*
X58841Y239899D01*
X58877Y239870D01*
X58917Y239841D01*
X58957Y239805D01*
X58990Y239765D01*
X58993Y239761D01*
X59004Y239747D01*
X59019Y239721D01*
X59033Y239688D01*
X59055Y239648D01*
X59077Y239601D01*
X59095Y239550D01*
X59114Y239488D01*
Y239481D01*
X59121Y239459D01*
X59124Y239423D01*
X59132Y239375D01*
X59139Y239317D01*
X59146Y239248D01*
X59150Y239172D01*
X59153Y239084D01*
Y238123D01*
X56635D01*
Y239113D01*
X56638Y239139D01*
Y239168D01*
X56646Y239233D01*
X56653Y239306D01*
X56667Y239383D01*
X56686Y239459D01*
X56711Y239528D01*
Y239532D01*
X56715Y239535D01*
X56726Y239557D01*
X56744Y239590D01*
X56769Y239627D01*
X56802Y239670D01*
X56842Y239718D01*
X56893Y239761D01*
X56948Y239801D01*
X56955Y239805D01*
X56977Y239816D01*
X57006Y239834D01*
X57050Y239852D01*
X57101Y239870D01*
X57155Y239889D01*
X57217Y239899D01*
X57279Y239903D01*
X57286D01*
X57304D01*
X57337Y239899D01*
X57377Y239892D01*
X57424Y239881D01*
X57476Y239863D01*
X57526Y239841D01*
X57581Y239812D01*
X57588Y239809D01*
X57603Y239798D01*
X57632Y239776D01*
X57661Y239747D01*
X57697Y239710D01*
X57738Y239667D01*
X57774Y239612D01*
X57810Y239550D01*
Y239554D01*
X57814Y239561D01*
X57818Y239572D01*
X57825Y239586D01*
X57840Y239630D01*
X57865Y239681D01*
X57898Y239736D01*
X57938Y239798D01*
X57985Y239852D01*
X58043Y239903D01*
X58051Y239907D01*
X58073Y239921D01*
X58105Y239943D01*
X58149Y239965D01*
X58207Y239987D01*
X58269Y240009D01*
X58342Y240023D01*
X58422Y240027D01*
X58425D01*
X58429D01*
X58451D01*
X58487Y240023D01*
D02*
G37*
G36*
X59153Y236849D02*
Y236503D01*
X56635Y235528D01*
Y235892D01*
X58466Y236547D01*
X58469D01*
X58477Y236551D01*
X58487Y236554D01*
X58502Y236562D01*
X58524Y236565D01*
X58546Y236573D01*
X58600Y236591D01*
X58662Y236613D01*
X58731Y236634D01*
X58877Y236678D01*
X58873D01*
X58866Y236682D01*
X58855Y236685D01*
X58841Y236689D01*
X58801Y236700D01*
X58746Y236718D01*
X58684Y236736D01*
X58615Y236758D01*
X58542Y236784D01*
X58466Y236813D01*
X56635Y237497D01*
Y237836D01*
X59153Y236849D01*
D02*
G37*
G36*
X121158Y32142D02*
X120328D01*
Y29921D01*
X119993D01*
Y32142D01*
X119163D01*
Y32440D01*
X121158D01*
Y32142D01*
D02*
G37*
G36*
X112531Y32436D02*
X112560D01*
X112626Y32429D01*
X112699Y32422D01*
X112775Y32407D01*
X112852Y32389D01*
X112921Y32364D01*
X112924D01*
X112928Y32360D01*
X112950Y32349D01*
X112983Y32331D01*
X113019Y32305D01*
X113063Y32273D01*
X113110Y32233D01*
X113154Y32182D01*
X113194Y32127D01*
X113197Y32120D01*
X113208Y32098D01*
X113226Y32069D01*
X113245Y32025D01*
X113263Y31974D01*
X113281Y31920D01*
X113292Y31858D01*
X113296Y31796D01*
Y31789D01*
Y31770D01*
X113292Y31738D01*
X113285Y31698D01*
X113274Y31650D01*
X113256Y31599D01*
X113234Y31548D01*
X113205Y31494D01*
X113201Y31486D01*
X113190Y31472D01*
X113168Y31443D01*
X113139Y31414D01*
X113103Y31377D01*
X113059Y31337D01*
X113005Y31301D01*
X112943Y31264D01*
X112946D01*
X112953Y31261D01*
X112964Y31257D01*
X112979Y31250D01*
X113023Y31235D01*
X113074Y31210D01*
X113128Y31177D01*
X113190Y31137D01*
X113245Y31090D01*
X113296Y31032D01*
X113299Y31024D01*
X113314Y31002D01*
X113336Y30970D01*
X113358Y30926D01*
X113379Y30868D01*
X113401Y30806D01*
X113416Y30733D01*
X113419Y30653D01*
Y30649D01*
Y30646D01*
Y30624D01*
X113416Y30587D01*
X113409Y30544D01*
X113401Y30493D01*
X113387Y30438D01*
X113368Y30380D01*
X113343Y30322D01*
X113339Y30314D01*
X113329Y30296D01*
X113314Y30271D01*
X113292Y30234D01*
X113263Y30198D01*
X113234Y30158D01*
X113197Y30118D01*
X113157Y30085D01*
X113154Y30081D01*
X113139Y30070D01*
X113114Y30056D01*
X113081Y30041D01*
X113041Y30020D01*
X112994Y29998D01*
X112943Y29980D01*
X112881Y29961D01*
X112873D01*
X112852Y29954D01*
X112815Y29950D01*
X112768Y29943D01*
X112710Y29936D01*
X112641Y29928D01*
X112564Y29925D01*
X112477Y29921D01*
X111516D01*
Y32440D01*
X112506D01*
X112531Y32436D01*
D02*
G37*
G36*
X117777Y32480D02*
X117809D01*
X117842Y32476D01*
X117886Y32469D01*
X117929Y32462D01*
X118024Y32444D01*
X118133Y32415D01*
X118239Y32371D01*
X118293Y32346D01*
X118348Y32316D01*
X118352Y32313D01*
X118359Y32309D01*
X118374Y32298D01*
X118395Y32287D01*
X118417Y32269D01*
X118446Y32247D01*
X118508Y32196D01*
X118574Y32131D01*
X118647Y32051D01*
X118716Y31956D01*
X118774Y31850D01*
Y31847D01*
X118781Y31836D01*
X118789Y31821D01*
X118796Y31800D01*
X118810Y31770D01*
X118821Y31738D01*
X118836Y31698D01*
X118850Y31654D01*
X118861Y31607D01*
X118876Y31556D01*
X118890Y31497D01*
X118901Y31439D01*
X118916Y31312D01*
X118923Y31173D01*
Y31170D01*
Y31155D01*
Y31137D01*
X118920Y31108D01*
Y31075D01*
X118916Y31035D01*
X118909Y30991D01*
X118905Y30944D01*
X118887Y30839D01*
X118858Y30722D01*
X118818Y30606D01*
X118796Y30547D01*
X118767Y30489D01*
Y30485D01*
X118759Y30474D01*
X118752Y30460D01*
X118737Y30438D01*
X118723Y30413D01*
X118705Y30387D01*
X118654Y30318D01*
X118592Y30245D01*
X118519Y30169D01*
X118432Y30096D01*
X118330Y30031D01*
X118326D01*
X118319Y30023D01*
X118301Y30016D01*
X118279Y30005D01*
X118253Y29994D01*
X118224Y29983D01*
X118188Y29969D01*
X118148Y29954D01*
X118104Y29939D01*
X118057Y29925D01*
X117951Y29903D01*
X117838Y29885D01*
X117718Y29878D01*
X117682D01*
X117660Y29881D01*
X117627D01*
X117591Y29888D01*
X117551Y29892D01*
X117503Y29899D01*
X117405Y29921D01*
X117300Y29950D01*
X117191Y29994D01*
X117136Y30020D01*
X117081Y30049D01*
X117078Y30052D01*
X117070Y30056D01*
X117056Y30067D01*
X117034Y30081D01*
X117012Y30096D01*
X116987Y30118D01*
X116925Y30172D01*
X116856Y30238D01*
X116783Y30318D01*
X116717Y30409D01*
X116655Y30515D01*
Y30518D01*
X116648Y30529D01*
X116641Y30544D01*
X116634Y30566D01*
X116623Y30595D01*
X116612Y30627D01*
X116597Y30664D01*
X116586Y30704D01*
X116572Y30751D01*
X116557Y30799D01*
X116535Y30908D01*
X116521Y31021D01*
X116514Y31144D01*
Y31148D01*
Y31152D01*
Y31173D01*
X116517Y31206D01*
Y31250D01*
X116524Y31301D01*
X116532Y31363D01*
X116543Y31432D01*
X116557Y31505D01*
X116572Y31581D01*
X116594Y31661D01*
X116623Y31741D01*
X116655Y31825D01*
X116692Y31905D01*
X116739Y31985D01*
X116790Y32058D01*
X116848Y32127D01*
X116852Y32131D01*
X116863Y32142D01*
X116885Y32160D01*
X116910Y32182D01*
X116943Y32211D01*
X116983Y32240D01*
X117030Y32273D01*
X117085Y32305D01*
X117143Y32338D01*
X117209Y32371D01*
X117281Y32400D01*
X117358Y32429D01*
X117442Y32451D01*
X117529Y32469D01*
X117620Y32480D01*
X117718Y32484D01*
X117751D01*
X117777Y32480D01*
D02*
G37*
G36*
X115039D02*
X115072D01*
X115105Y32476D01*
X115148Y32469D01*
X115192Y32462D01*
X115287Y32444D01*
X115396Y32415D01*
X115501Y32371D01*
X115556Y32346D01*
X115611Y32316D01*
X115614Y32313D01*
X115622Y32309D01*
X115636Y32298D01*
X115658Y32287D01*
X115680Y32269D01*
X115709Y32247D01*
X115771Y32196D01*
X115836Y32131D01*
X115909Y32051D01*
X115978Y31956D01*
X116037Y31850D01*
Y31847D01*
X116044Y31836D01*
X116051Y31821D01*
X116059Y31800D01*
X116073Y31770D01*
X116084Y31738D01*
X116098Y31698D01*
X116113Y31654D01*
X116124Y31607D01*
X116139Y31556D01*
X116153Y31497D01*
X116164Y31439D01*
X116179Y31312D01*
X116186Y31173D01*
Y31170D01*
Y31155D01*
Y31137D01*
X116182Y31108D01*
Y31075D01*
X116179Y31035D01*
X116171Y30991D01*
X116168Y30944D01*
X116149Y30839D01*
X116120Y30722D01*
X116080Y30606D01*
X116059Y30547D01*
X116029Y30489D01*
Y30485D01*
X116022Y30474D01*
X116015Y30460D01*
X116000Y30438D01*
X115986Y30413D01*
X115968Y30387D01*
X115917Y30318D01*
X115855Y30245D01*
X115782Y30169D01*
X115694Y30096D01*
X115593Y30031D01*
X115589D01*
X115582Y30023D01*
X115563Y30016D01*
X115542Y30005D01*
X115516Y29994D01*
X115487Y29983D01*
X115451Y29969D01*
X115410Y29954D01*
X115367Y29939D01*
X115320Y29925D01*
X115214Y29903D01*
X115101Y29885D01*
X114981Y29878D01*
X114945D01*
X114923Y29881D01*
X114890D01*
X114854Y29888D01*
X114814Y29892D01*
X114766Y29899D01*
X114668Y29921D01*
X114562Y29950D01*
X114453Y29994D01*
X114399Y30020D01*
X114344Y30049D01*
X114340Y30052D01*
X114333Y30056D01*
X114319Y30067D01*
X114297Y30081D01*
X114275Y30096D01*
X114249Y30118D01*
X114188Y30172D01*
X114118Y30238D01*
X114046Y30318D01*
X113980Y30409D01*
X113918Y30515D01*
Y30518D01*
X113911Y30529D01*
X113904Y30544D01*
X113896Y30566D01*
X113885Y30595D01*
X113874Y30627D01*
X113860Y30664D01*
X113849Y30704D01*
X113834Y30751D01*
X113820Y30799D01*
X113798Y30908D01*
X113784Y31021D01*
X113776Y31144D01*
Y31148D01*
Y31152D01*
Y31173D01*
X113780Y31206D01*
Y31250D01*
X113787Y31301D01*
X113794Y31363D01*
X113805Y31432D01*
X113820Y31505D01*
X113834Y31581D01*
X113856Y31661D01*
X113885Y31741D01*
X113918Y31825D01*
X113954Y31905D01*
X114002Y31985D01*
X114053Y32058D01*
X114111Y32127D01*
X114115Y32131D01*
X114126Y32142D01*
X114147Y32160D01*
X114173Y32182D01*
X114206Y32211D01*
X114246Y32240D01*
X114293Y32273D01*
X114348Y32305D01*
X114406Y32338D01*
X114471Y32371D01*
X114544Y32400D01*
X114621Y32429D01*
X114704Y32451D01*
X114792Y32469D01*
X114883Y32480D01*
X114981Y32484D01*
X115014D01*
X115039Y32480D01*
D02*
G37*
G36*
X147753D02*
X147779D01*
X147848Y32473D01*
X147924Y32462D01*
X148004Y32444D01*
X148092Y32422D01*
X148172Y32393D01*
X148175D01*
X148183Y32389D01*
X148194Y32382D01*
X148208Y32375D01*
X148245Y32356D01*
X148292Y32324D01*
X148346Y32287D01*
X148401Y32240D01*
X148452Y32185D01*
X148499Y32124D01*
Y32120D01*
X148503Y32116D01*
X148510Y32105D01*
X148518Y32094D01*
X148536Y32058D01*
X148558Y32011D01*
X148583Y31952D01*
X148601Y31883D01*
X148619Y31810D01*
X148627Y31730D01*
X148306Y31705D01*
Y31708D01*
Y31716D01*
X148303Y31727D01*
X148299Y31745D01*
X148288Y31785D01*
X148274Y31839D01*
X148252Y31898D01*
X148219Y31956D01*
X148179Y32011D01*
X148128Y32062D01*
X148121Y32065D01*
X148103Y32080D01*
X148066Y32102D01*
X148019Y32124D01*
X147957Y32145D01*
X147884Y32167D01*
X147793Y32182D01*
X147691Y32185D01*
X147640D01*
X147618Y32182D01*
X147589Y32178D01*
X147524Y32171D01*
X147451Y32156D01*
X147378Y32138D01*
X147309Y32109D01*
X147280Y32091D01*
X147251Y32072D01*
X147243Y32069D01*
X147229Y32054D01*
X147207Y32029D01*
X147185Y32000D01*
X147160Y31960D01*
X147138Y31916D01*
X147123Y31865D01*
X147116Y31807D01*
Y31800D01*
Y31785D01*
X147120Y31760D01*
X147127Y31730D01*
X147138Y31694D01*
X147156Y31657D01*
X147178Y31621D01*
X147211Y31585D01*
X147214Y31581D01*
X147233Y31570D01*
X147247Y31559D01*
X147262Y31552D01*
X147284Y31541D01*
X147309Y31526D01*
X147342Y31516D01*
X147378Y31501D01*
X147418Y31486D01*
X147466Y31468D01*
X147517Y31454D01*
X147575Y31435D01*
X147640Y31421D01*
X147713Y31403D01*
X147717D01*
X147731Y31399D01*
X147753Y31396D01*
X147779Y31388D01*
X147811Y31381D01*
X147851Y31370D01*
X147891Y31359D01*
X147935Y31348D01*
X148030Y31323D01*
X148121Y31297D01*
X148164Y31283D01*
X148205Y31268D01*
X148241Y31257D01*
X148270Y31243D01*
X148274D01*
X148281Y31239D01*
X148292Y31232D01*
X148306Y31224D01*
X148346Y31203D01*
X148394Y31173D01*
X148448Y31133D01*
X148503Y31090D01*
X148554Y31039D01*
X148598Y30984D01*
X148601Y30977D01*
X148616Y30959D01*
X148630Y30926D01*
X148652Y30882D01*
X148670Y30831D01*
X148689Y30769D01*
X148699Y30700D01*
X148703Y30627D01*
Y30624D01*
Y30620D01*
Y30609D01*
Y30595D01*
X148696Y30555D01*
X148689Y30504D01*
X148674Y30445D01*
X148656Y30384D01*
X148627Y30318D01*
X148587Y30249D01*
Y30245D01*
X148583Y30242D01*
X148565Y30220D01*
X148539Y30187D01*
X148503Y30151D01*
X148456Y30107D01*
X148397Y30060D01*
X148332Y30016D01*
X148255Y29976D01*
X148252D01*
X148245Y29972D01*
X148234Y29969D01*
X148219Y29961D01*
X148197Y29954D01*
X148172Y29943D01*
X148114Y29928D01*
X148044Y29910D01*
X147961Y29892D01*
X147870Y29881D01*
X147771Y29878D01*
X147713D01*
X147684Y29881D01*
X147651D01*
X147615Y29885D01*
X147571Y29888D01*
X147480Y29903D01*
X147386Y29918D01*
X147291Y29943D01*
X147200Y29976D01*
X147196D01*
X147189Y29980D01*
X147178Y29987D01*
X147163Y29994D01*
X147120Y30016D01*
X147069Y30049D01*
X147011Y30092D01*
X146949Y30143D01*
X146890Y30205D01*
X146836Y30274D01*
Y30278D01*
X146829Y30285D01*
X146825Y30296D01*
X146814Y30311D01*
X146807Y30329D01*
X146796Y30351D01*
X146770Y30405D01*
X146745Y30474D01*
X146723Y30551D01*
X146708Y30638D01*
X146701Y30729D01*
X147014Y30759D01*
Y30755D01*
Y30751D01*
X147018Y30740D01*
Y30726D01*
X147025Y30693D01*
X147036Y30646D01*
X147051Y30598D01*
X147065Y30544D01*
X147091Y30493D01*
X147116Y30445D01*
X147120Y30442D01*
X147131Y30427D01*
X147149Y30402D01*
X147178Y30376D01*
X147214Y30343D01*
X147254Y30311D01*
X147309Y30278D01*
X147367Y30249D01*
X147371D01*
X147375Y30245D01*
X147386Y30242D01*
X147396Y30238D01*
X147433Y30227D01*
X147480Y30213D01*
X147538Y30198D01*
X147604Y30187D01*
X147677Y30180D01*
X147757Y30176D01*
X147790D01*
X147826Y30180D01*
X147870Y30183D01*
X147921Y30191D01*
X147979Y30198D01*
X148037Y30213D01*
X148092Y30231D01*
X148099Y30234D01*
X148117Y30242D01*
X148143Y30256D01*
X148175Y30271D01*
X148208Y30296D01*
X148245Y30322D01*
X148281Y30351D01*
X148310Y30387D01*
X148314Y30391D01*
X148321Y30405D01*
X148332Y30424D01*
X148346Y30453D01*
X148361Y30482D01*
X148372Y30518D01*
X148379Y30558D01*
X148383Y30602D01*
Y30606D01*
Y30624D01*
X148379Y30646D01*
X148376Y30675D01*
X148365Y30704D01*
X148354Y30740D01*
X148336Y30777D01*
X148310Y30809D01*
X148306Y30813D01*
X148295Y30824D01*
X148281Y30839D01*
X148255Y30860D01*
X148226Y30882D01*
X148186Y30908D01*
X148139Y30933D01*
X148084Y30955D01*
X148081Y30959D01*
X148063Y30962D01*
X148033Y30973D01*
X148015Y30977D01*
X147990Y30984D01*
X147964Y30995D01*
X147932Y31002D01*
X147895Y31013D01*
X147851Y31024D01*
X147808Y31035D01*
X147757Y31050D01*
X147698Y31064D01*
X147637Y31079D01*
X147633D01*
X147622Y31082D01*
X147604Y31086D01*
X147582Y31093D01*
X147553Y31101D01*
X147520Y31108D01*
X147447Y31130D01*
X147367Y31155D01*
X147284Y31181D01*
X147211Y31206D01*
X147178Y31221D01*
X147149Y31235D01*
X147145D01*
X147142Y31239D01*
X147120Y31253D01*
X147087Y31272D01*
X147051Y31301D01*
X147007Y31334D01*
X146963Y31374D01*
X146920Y31421D01*
X146883Y31472D01*
X146879Y31479D01*
X146869Y31497D01*
X146854Y31526D01*
X146839Y31563D01*
X146825Y31610D01*
X146810Y31665D01*
X146800Y31723D01*
X146796Y31785D01*
Y31789D01*
Y31792D01*
Y31803D01*
Y31818D01*
X146803Y31854D01*
X146810Y31901D01*
X146821Y31956D01*
X146839Y32018D01*
X146865Y32080D01*
X146901Y32142D01*
Y32145D01*
X146905Y32149D01*
X146923Y32171D01*
X146949Y32200D01*
X146981Y32236D01*
X147025Y32276D01*
X147080Y32320D01*
X147145Y32360D01*
X147218Y32397D01*
X147222D01*
X147229Y32400D01*
X147240Y32404D01*
X147254Y32411D01*
X147273Y32418D01*
X147298Y32426D01*
X147353Y32440D01*
X147422Y32455D01*
X147502Y32469D01*
X147586Y32480D01*
X147680Y32484D01*
X147728D01*
X147753Y32480D01*
D02*
G37*
G36*
X159703D02*
X159736Y32476D01*
X159776Y32473D01*
X159816Y32469D01*
X159863Y32458D01*
X159962Y32436D01*
X160071Y32404D01*
X160126Y32382D01*
X160176Y32356D01*
X160227Y32324D01*
X160278Y32291D01*
X160282Y32287D01*
X160289Y32284D01*
X160304Y32273D01*
X160322Y32254D01*
X160340Y32236D01*
X160366Y32211D01*
X160391Y32182D01*
X160420Y32153D01*
X160450Y32116D01*
X160479Y32072D01*
X160511Y32029D01*
X160540Y31982D01*
X160566Y31927D01*
X160595Y31872D01*
X160617Y31814D01*
X160639Y31749D01*
X160311Y31672D01*
Y31676D01*
X160308Y31683D01*
X160300Y31698D01*
X160293Y31716D01*
X160286Y31738D01*
X160275Y31767D01*
X160246Y31825D01*
X160209Y31890D01*
X160166Y31956D01*
X160111Y32018D01*
X160053Y32072D01*
X160045Y32080D01*
X160024Y32094D01*
X159987Y32113D01*
X159940Y32138D01*
X159878Y32160D01*
X159809Y32182D01*
X159725Y32196D01*
X159634Y32200D01*
X159605D01*
X159587Y32196D01*
X159561D01*
X159532Y32193D01*
X159463Y32182D01*
X159387Y32167D01*
X159307Y32142D01*
X159223Y32105D01*
X159146Y32058D01*
X159143D01*
X159139Y32051D01*
X159114Y32032D01*
X159081Y32003D01*
X159041Y31960D01*
X158993Y31905D01*
X158950Y31843D01*
X158910Y31767D01*
X158873Y31683D01*
Y31679D01*
X158870Y31672D01*
X158866Y31661D01*
X158862Y31643D01*
X158855Y31621D01*
X158848Y31596D01*
X158837Y31534D01*
X158822Y31461D01*
X158808Y31381D01*
X158800Y31293D01*
X158797Y31199D01*
Y31195D01*
Y31184D01*
Y31166D01*
Y31144D01*
X158800Y31119D01*
Y31086D01*
X158804Y31050D01*
X158808Y31010D01*
X158819Y30922D01*
X158837Y30828D01*
X158859Y30733D01*
X158888Y30638D01*
Y30635D01*
X158891Y30627D01*
X158899Y30617D01*
X158906Y30598D01*
X158928Y30555D01*
X158961Y30504D01*
X159001Y30445D01*
X159052Y30384D01*
X159110Y30329D01*
X159179Y30278D01*
X159183D01*
X159190Y30274D01*
X159201Y30267D01*
X159215Y30260D01*
X159234Y30253D01*
X159256Y30242D01*
X159307Y30220D01*
X159372Y30198D01*
X159445Y30180D01*
X159525Y30165D01*
X159609Y30161D01*
X159634D01*
X159656Y30165D01*
X159681D01*
X159707Y30169D01*
X159772Y30183D01*
X159849Y30202D01*
X159925Y30231D01*
X160005Y30271D01*
X160045Y30292D01*
X160082Y30322D01*
X160085Y30325D01*
X160089Y30329D01*
X160100Y30340D01*
X160115Y30351D01*
X160129Y30369D01*
X160147Y30391D01*
X160169Y30413D01*
X160187Y30442D01*
X160209Y30474D01*
X160235Y30511D01*
X160257Y30547D01*
X160278Y30591D01*
X160297Y30638D01*
X160315Y30689D01*
X160333Y30744D01*
X160347Y30802D01*
X160682Y30718D01*
Y30715D01*
X160679Y30700D01*
X160671Y30678D01*
X160661Y30649D01*
X160650Y30617D01*
X160635Y30577D01*
X160617Y30533D01*
X160595Y30485D01*
X160544Y30384D01*
X160479Y30282D01*
X160439Y30231D01*
X160398Y30180D01*
X160355Y30136D01*
X160304Y30092D01*
X160300Y30089D01*
X160293Y30081D01*
X160275Y30074D01*
X160257Y30060D01*
X160227Y30041D01*
X160198Y30023D01*
X160158Y30005D01*
X160118Y29987D01*
X160071Y29965D01*
X160020Y29947D01*
X159965Y29928D01*
X159907Y29910D01*
X159845Y29896D01*
X159780Y29888D01*
X159711Y29881D01*
X159638Y29878D01*
X159598D01*
X159569Y29881D01*
X159536D01*
X159496Y29885D01*
X159452Y29892D01*
X159401Y29899D01*
X159296Y29918D01*
X159186Y29947D01*
X159077Y29987D01*
X159026Y30012D01*
X158975Y30041D01*
X158972Y30045D01*
X158964Y30049D01*
X158950Y30060D01*
X158935Y30074D01*
X158913Y30089D01*
X158888Y30110D01*
X158859Y30136D01*
X158830Y30165D01*
X158800Y30198D01*
X158768Y30231D01*
X158702Y30314D01*
X158640Y30413D01*
X158586Y30522D01*
Y30525D01*
X158579Y30536D01*
X158575Y30555D01*
X158564Y30577D01*
X158557Y30606D01*
X158546Y30642D01*
X158531Y30682D01*
X158520Y30726D01*
X158509Y30773D01*
X158495Y30828D01*
X158477Y30940D01*
X158462Y31068D01*
X158455Y31199D01*
Y31203D01*
Y31217D01*
Y31239D01*
X158458Y31264D01*
Y31301D01*
X158462Y31337D01*
X158466Y31385D01*
X158473Y31432D01*
X158491Y31537D01*
X158517Y31654D01*
X158553Y31770D01*
X158604Y31883D01*
X158608Y31887D01*
X158611Y31898D01*
X158618Y31912D01*
X158633Y31931D01*
X158648Y31956D01*
X158666Y31985D01*
X158713Y32051D01*
X158775Y32124D01*
X158848Y32196D01*
X158932Y32269D01*
X159030Y32331D01*
X159034Y32335D01*
X159044Y32338D01*
X159059Y32346D01*
X159077Y32356D01*
X159106Y32367D01*
X159135Y32378D01*
X159172Y32393D01*
X159212Y32407D01*
X159256Y32422D01*
X159303Y32436D01*
X159405Y32458D01*
X159521Y32476D01*
X159641Y32484D01*
X159678D01*
X159703Y32480D01*
D02*
G37*
G36*
X158011Y29921D02*
X157690D01*
Y32029D01*
X156955Y29921D01*
X156657D01*
X155929Y32065D01*
Y29921D01*
X155608D01*
Y32440D01*
X156107D01*
X156704Y30653D01*
Y30649D01*
X156708Y30642D01*
X156711Y30631D01*
X156719Y30613D01*
X156733Y30569D01*
X156751Y30515D01*
X156769Y30453D01*
X156791Y30391D01*
X156809Y30333D01*
X156824Y30282D01*
X156828Y30289D01*
X156831Y30307D01*
X156842Y30340D01*
X156857Y30384D01*
X156875Y30442D01*
X156901Y30511D01*
X156926Y30591D01*
X156959Y30686D01*
X157563Y32440D01*
X158011D01*
Y29921D01*
D02*
G37*
G36*
X163077Y30984D02*
Y30981D01*
Y30966D01*
Y30948D01*
Y30922D01*
X163074Y30889D01*
Y30853D01*
X163070Y30809D01*
X163067Y30766D01*
X163056Y30667D01*
X163041Y30566D01*
X163019Y30467D01*
X163005Y30420D01*
X162990Y30376D01*
Y30373D01*
X162987Y30365D01*
X162979Y30354D01*
X162972Y30340D01*
X162950Y30300D01*
X162917Y30249D01*
X162874Y30191D01*
X162823Y30132D01*
X162757Y30070D01*
X162677Y30016D01*
X162673D01*
X162666Y30009D01*
X162655Y30005D01*
X162637Y29994D01*
X162615Y29983D01*
X162586Y29972D01*
X162557Y29961D01*
X162521Y29947D01*
X162481Y29932D01*
X162437Y29921D01*
X162390Y29910D01*
X162335Y29899D01*
X162280Y29892D01*
X162222Y29885D01*
X162091Y29878D01*
X162058D01*
X162033Y29881D01*
X162004D01*
X161967Y29885D01*
X161927Y29888D01*
X161887Y29892D01*
X161796Y29907D01*
X161698Y29928D01*
X161603Y29958D01*
X161512Y29998D01*
X161509D01*
X161501Y30005D01*
X161490Y30012D01*
X161476Y30020D01*
X161436Y30049D01*
X161389Y30089D01*
X161334Y30140D01*
X161283Y30198D01*
X161232Y30271D01*
X161192Y30351D01*
Y30354D01*
X161188Y30362D01*
X161185Y30376D01*
X161177Y30395D01*
X161170Y30416D01*
X161163Y30445D01*
X161152Y30478D01*
X161145Y30518D01*
X161137Y30562D01*
X161126Y30609D01*
X161119Y30660D01*
X161112Y30715D01*
X161105Y30777D01*
X161101Y30842D01*
X161097Y30911D01*
Y30984D01*
Y32440D01*
X161432D01*
Y30984D01*
Y30981D01*
Y30970D01*
Y30951D01*
Y30929D01*
X161436Y30904D01*
Y30871D01*
X161440Y30802D01*
X161447Y30722D01*
X161458Y30642D01*
X161472Y30566D01*
X161480Y30533D01*
X161490Y30500D01*
X161494Y30493D01*
X161501Y30474D01*
X161520Y30449D01*
X161541Y30413D01*
X161567Y30376D01*
X161603Y30336D01*
X161647Y30296D01*
X161698Y30263D01*
X161705Y30260D01*
X161723Y30249D01*
X161756Y30238D01*
X161800Y30223D01*
X161851Y30205D01*
X161916Y30194D01*
X161986Y30183D01*
X162062Y30180D01*
X162098D01*
X162120Y30183D01*
X162153D01*
X162186Y30187D01*
X162266Y30202D01*
X162353Y30220D01*
X162437Y30249D01*
X162517Y30289D01*
X162553Y30314D01*
X162586Y30343D01*
X162590Y30347D01*
X162593Y30351D01*
X162601Y30362D01*
X162612Y30376D01*
X162622Y30398D01*
X162637Y30420D01*
X162652Y30453D01*
X162666Y30485D01*
X162681Y30525D01*
X162692Y30573D01*
X162706Y30627D01*
X162717Y30686D01*
X162728Y30751D01*
X162735Y30820D01*
X162743Y30900D01*
Y30984D01*
Y32440D01*
X163077D01*
Y30984D01*
D02*
G37*
G36*
X153315Y32142D02*
X152485D01*
Y29921D01*
X152150D01*
Y32142D01*
X151320D01*
Y32440D01*
X153315D01*
Y32142D01*
D02*
G37*
G36*
X150989D02*
X149500D01*
Y31374D01*
X150894D01*
Y31075D01*
X149500D01*
Y30220D01*
X151047D01*
Y29921D01*
X149165D01*
Y32440D01*
X150989D01*
Y32142D01*
D02*
G37*
G36*
X146293D02*
X144805D01*
Y31374D01*
X146199D01*
Y31075D01*
X144805D01*
Y30220D01*
X146352D01*
Y29921D01*
X144470D01*
Y32440D01*
X146293D01*
Y32142D01*
D02*
G37*
G36*
X143127Y32436D02*
X143159D01*
X143236Y32433D01*
X143316Y32422D01*
X143403Y32411D01*
X143483Y32393D01*
X143524Y32382D01*
X143556Y32371D01*
X143560D01*
X143563Y32367D01*
X143585Y32356D01*
X143618Y32342D01*
X143658Y32316D01*
X143702Y32284D01*
X143749Y32240D01*
X143793Y32189D01*
X143836Y32131D01*
Y32127D01*
X143840Y32124D01*
X143855Y32102D01*
X143869Y32065D01*
X143891Y32018D01*
X143909Y31963D01*
X143928Y31898D01*
X143938Y31829D01*
X143942Y31752D01*
Y31749D01*
Y31741D01*
Y31727D01*
X143938Y31708D01*
Y31683D01*
X143935Y31657D01*
X143920Y31596D01*
X143898Y31523D01*
X143869Y31446D01*
X143826Y31370D01*
X143797Y31334D01*
X143767Y31297D01*
X143764Y31293D01*
X143760Y31290D01*
X143749Y31279D01*
X143735Y31268D01*
X143716Y31253D01*
X143694Y31239D01*
X143665Y31221D01*
X143636Y31199D01*
X143600Y31181D01*
X143560Y31163D01*
X143516Y31141D01*
X143469Y31122D01*
X143414Y31108D01*
X143360Y31090D01*
X143298Y31079D01*
X143232Y31068D01*
X143239Y31064D01*
X143254Y31057D01*
X143276Y31042D01*
X143305Y31028D01*
X143371Y30988D01*
X143403Y30962D01*
X143432Y30940D01*
X143440Y30933D01*
X143458Y30915D01*
X143487Y30886D01*
X143524Y30849D01*
X143563Y30799D01*
X143611Y30744D01*
X143658Y30678D01*
X143709Y30606D01*
X144142Y29921D01*
X143727D01*
X143396Y30445D01*
Y30449D01*
X143389Y30456D01*
X143382Y30467D01*
X143371Y30482D01*
X143345Y30522D01*
X143312Y30573D01*
X143272Y30627D01*
X143232Y30686D01*
X143192Y30740D01*
X143156Y30791D01*
X143152Y30795D01*
X143141Y30809D01*
X143123Y30831D01*
X143098Y30857D01*
X143043Y30911D01*
X143014Y30937D01*
X142985Y30959D01*
X142981Y30962D01*
X142974Y30966D01*
X142959Y30973D01*
X142937Y30984D01*
X142916Y30995D01*
X142890Y31006D01*
X142832Y31024D01*
X142828D01*
X142821Y31028D01*
X142806D01*
X142788Y31032D01*
X142763Y31035D01*
X142734D01*
X142693Y31039D01*
X142264D01*
Y29921D01*
X141929D01*
Y32440D01*
X143098D01*
X143127Y32436D01*
D02*
G37*
G36*
X155383Y29222D02*
X153333D01*
Y29444D01*
X155383D01*
Y29222D01*
D02*
G37*
G36*
X253808Y230293D02*
X253840Y230289D01*
X253880Y230286D01*
X253920Y230282D01*
X253968Y230271D01*
X254066Y230249D01*
X254175Y230216D01*
X254230Y230195D01*
X254281Y230169D01*
X254332Y230136D01*
X254383Y230104D01*
X254386Y230100D01*
X254394Y230096D01*
X254408Y230085D01*
X254426Y230067D01*
X254445Y230049D01*
X254470Y230024D01*
X254496Y229994D01*
X254525Y229965D01*
X254554Y229929D01*
X254583Y229885D01*
X254616Y229841D01*
X254645Y229794D01*
X254670Y229740D01*
X254699Y229685D01*
X254721Y229627D01*
X254743Y229561D01*
X254415Y229485D01*
Y229488D01*
X254412Y229496D01*
X254404Y229510D01*
X254397Y229528D01*
X254390Y229550D01*
X254379Y229579D01*
X254350Y229638D01*
X254313Y229703D01*
X254270Y229769D01*
X254215Y229831D01*
X254157Y229885D01*
X254150Y229892D01*
X254128Y229907D01*
X254092Y229925D01*
X254044Y229951D01*
X253982Y229973D01*
X253913Y229994D01*
X253829Y230009D01*
X253738Y230013D01*
X253709D01*
X253691Y230009D01*
X253666D01*
X253637Y230005D01*
X253567Y229994D01*
X253491Y229980D01*
X253411Y229954D01*
X253327Y229918D01*
X253251Y229871D01*
X253247D01*
X253243Y229863D01*
X253218Y229845D01*
X253185Y229816D01*
X253145Y229772D01*
X253098Y229718D01*
X253054Y229656D01*
X253014Y229579D01*
X252978Y229496D01*
Y229492D01*
X252974Y229485D01*
X252970Y229474D01*
X252967Y229456D01*
X252959Y229434D01*
X252952Y229408D01*
X252941Y229346D01*
X252927Y229274D01*
X252912Y229194D01*
X252905Y229106D01*
X252901Y229012D01*
Y229008D01*
Y228997D01*
Y228979D01*
Y228957D01*
X252905Y228931D01*
Y228899D01*
X252908Y228862D01*
X252912Y228822D01*
X252923Y228735D01*
X252941Y228640D01*
X252963Y228546D01*
X252992Y228451D01*
Y228447D01*
X252996Y228440D01*
X253003Y228429D01*
X253010Y228411D01*
X253032Y228367D01*
X253065Y228316D01*
X253105Y228258D01*
X253156Y228196D01*
X253214Y228142D01*
X253283Y228091D01*
X253287D01*
X253294Y228087D01*
X253305Y228080D01*
X253320Y228073D01*
X253338Y228065D01*
X253360Y228054D01*
X253411Y228032D01*
X253476Y228011D01*
X253549Y227992D01*
X253629Y227978D01*
X253713Y227974D01*
X253738D01*
X253760Y227978D01*
X253786D01*
X253811Y227981D01*
X253877Y227996D01*
X253953Y228014D01*
X254030Y228043D01*
X254110Y228083D01*
X254150Y228105D01*
X254186Y228134D01*
X254190Y228138D01*
X254193Y228142D01*
X254204Y228153D01*
X254219Y228164D01*
X254233Y228182D01*
X254252Y228204D01*
X254274Y228225D01*
X254292Y228255D01*
X254313Y228287D01*
X254339Y228324D01*
X254361Y228360D01*
X254383Y228404D01*
X254401Y228451D01*
X254419Y228502D01*
X254437Y228557D01*
X254452Y228615D01*
X254787Y228531D01*
Y228527D01*
X254783Y228513D01*
X254776Y228491D01*
X254765Y228462D01*
X254754Y228429D01*
X254739Y228389D01*
X254721Y228345D01*
X254699Y228298D01*
X254648Y228196D01*
X254583Y228094D01*
X254543Y228043D01*
X254503Y227992D01*
X254459Y227949D01*
X254408Y227905D01*
X254404Y227901D01*
X254397Y227894D01*
X254379Y227887D01*
X254361Y227872D01*
X254332Y227854D01*
X254303Y227836D01*
X254263Y227818D01*
X254222Y227800D01*
X254175Y227778D01*
X254124Y227759D01*
X254070Y227741D01*
X254011Y227723D01*
X253949Y227709D01*
X253884Y227701D01*
X253815Y227694D01*
X253742Y227690D01*
X253702D01*
X253673Y227694D01*
X253640D01*
X253600Y227698D01*
X253556Y227705D01*
X253505Y227712D01*
X253400Y227730D01*
X253291Y227759D01*
X253182Y227800D01*
X253131Y227825D01*
X253080Y227854D01*
X253076Y227858D01*
X253069Y227861D01*
X253054Y227872D01*
X253040Y227887D01*
X253018Y227901D01*
X252992Y227923D01*
X252963Y227949D01*
X252934Y227978D01*
X252905Y228011D01*
X252872Y228043D01*
X252807Y228127D01*
X252745Y228225D01*
X252690Y228335D01*
Y228338D01*
X252683Y228349D01*
X252679Y228367D01*
X252668Y228389D01*
X252661Y228418D01*
X252650Y228455D01*
X252636Y228495D01*
X252625Y228538D01*
X252614Y228586D01*
X252599Y228640D01*
X252581Y228753D01*
X252566Y228881D01*
X252559Y229012D01*
Y229015D01*
Y229030D01*
Y229052D01*
X252563Y229077D01*
Y229114D01*
X252566Y229150D01*
X252570Y229197D01*
X252577Y229245D01*
X252595Y229350D01*
X252621Y229467D01*
X252657Y229583D01*
X252708Y229696D01*
X252712Y229700D01*
X252716Y229711D01*
X252723Y229725D01*
X252737Y229743D01*
X252752Y229769D01*
X252770Y229798D01*
X252818Y229863D01*
X252879Y229936D01*
X252952Y230009D01*
X253036Y230082D01*
X253134Y230144D01*
X253138Y230147D01*
X253149Y230151D01*
X253163Y230158D01*
X253182Y230169D01*
X253211Y230180D01*
X253240Y230191D01*
X253276Y230205D01*
X253316Y230220D01*
X253360Y230235D01*
X253407Y230249D01*
X253509Y230271D01*
X253626Y230289D01*
X253746Y230296D01*
X253782D01*
X253808Y230293D01*
D02*
G37*
G36*
X258121Y229230D02*
X259224Y227734D01*
X258783D01*
X257888Y229004D01*
X257477Y228608D01*
Y227734D01*
X257142D01*
Y230253D01*
X257477D01*
Y229001D01*
X258722Y230253D01*
X259177D01*
X258121Y229230D01*
D02*
G37*
G36*
X255518Y228032D02*
X256760D01*
Y227734D01*
X255184D01*
Y230253D01*
X255518D01*
Y228032D01*
D02*
G37*
G36*
X253888Y219794D02*
X253917D01*
X253986Y219787D01*
X254062Y219776D01*
X254142Y219758D01*
X254230Y219736D01*
X254313Y219707D01*
X254317D01*
X254324Y219703D01*
X254335Y219700D01*
X254350Y219692D01*
X254390Y219670D01*
X254441Y219645D01*
X254496Y219609D01*
X254554Y219565D01*
X254608Y219518D01*
X254659Y219459D01*
X254667Y219452D01*
X254681Y219430D01*
X254703Y219397D01*
X254732Y219350D01*
X254761Y219292D01*
X254794Y219219D01*
X254827Y219139D01*
X254852Y219048D01*
X254550Y218968D01*
Y218972D01*
X254546Y218975D01*
X254543Y218986D01*
X254539Y219001D01*
X254528Y219033D01*
X254514Y219077D01*
X254492Y219128D01*
X254466Y219175D01*
X254441Y219226D01*
X254408Y219270D01*
X254404Y219274D01*
X254394Y219288D01*
X254372Y219306D01*
X254346Y219332D01*
X254313Y219361D01*
X254270Y219390D01*
X254222Y219419D01*
X254168Y219445D01*
X254161Y219448D01*
X254142Y219456D01*
X254110Y219467D01*
X254066Y219481D01*
X254015Y219492D01*
X253957Y219503D01*
X253891Y219510D01*
X253822Y219514D01*
X253782D01*
X253764Y219510D01*
X253742D01*
X253687Y219507D01*
X253626Y219496D01*
X253556Y219485D01*
X253491Y219467D01*
X253425Y219441D01*
X253418Y219438D01*
X253396Y219430D01*
X253367Y219412D01*
X253331Y219394D01*
X253287Y219365D01*
X253240Y219336D01*
X253196Y219299D01*
X253156Y219259D01*
X253152Y219255D01*
X253138Y219241D01*
X253120Y219215D01*
X253098Y219186D01*
X253072Y219150D01*
X253047Y219106D01*
X253021Y219059D01*
X252996Y219008D01*
Y219004D01*
X252992Y218997D01*
X252989Y218986D01*
X252981Y218968D01*
X252974Y218946D01*
X252967Y218921D01*
X252956Y218892D01*
X252948Y218859D01*
X252930Y218782D01*
X252916Y218695D01*
X252905Y218604D01*
X252901Y218502D01*
Y218498D01*
Y218487D01*
Y218469D01*
X252905Y218447D01*
Y218418D01*
X252908Y218382D01*
X252912Y218345D01*
X252916Y218305D01*
X252930Y218214D01*
X252948Y218120D01*
X252978Y218025D01*
X253014Y217934D01*
Y217931D01*
X253021Y217923D01*
X253025Y217912D01*
X253036Y217898D01*
X253061Y217858D01*
X253101Y217807D01*
X253149Y217752D01*
X253207Y217698D01*
X253276Y217647D01*
X253353Y217599D01*
X253356D01*
X253363Y217596D01*
X253374Y217588D01*
X253393Y217581D01*
X253411Y217574D01*
X253436Y217566D01*
X253495Y217545D01*
X253567Y217527D01*
X253647Y217508D01*
X253735Y217494D01*
X253826Y217490D01*
X253862D01*
X253884Y217494D01*
X253906D01*
X253960Y217501D01*
X254026Y217508D01*
X254095Y217523D01*
X254172Y217545D01*
X254248Y217570D01*
X254252D01*
X254259Y217574D01*
X254266Y217577D01*
X254281Y217585D01*
X254321Y217603D01*
X254364Y217625D01*
X254415Y217650D01*
X254470Y217679D01*
X254521Y217712D01*
X254565Y217748D01*
Y218222D01*
X253822D01*
Y218520D01*
X254892D01*
Y217585D01*
X254889Y217581D01*
X254881Y217577D01*
X254867Y217566D01*
X254849Y217552D01*
X254827Y217537D01*
X254801Y217519D01*
X254768Y217497D01*
X254736Y217476D01*
X254659Y217428D01*
X254572Y217377D01*
X254481Y217330D01*
X254383Y217290D01*
X254379D01*
X254372Y217286D01*
X254357Y217283D01*
X254339Y217275D01*
X254313Y217268D01*
X254284Y217257D01*
X254252Y217250D01*
X254219Y217243D01*
X254139Y217224D01*
X254048Y217206D01*
X253949Y217195D01*
X253848Y217192D01*
X253811D01*
X253786Y217195D01*
X253753D01*
X253713Y217199D01*
X253669Y217206D01*
X253622Y217210D01*
X253516Y217232D01*
X253403Y217257D01*
X253287Y217297D01*
X253229Y217319D01*
X253171Y217348D01*
X253167Y217352D01*
X253156Y217355D01*
X253141Y217366D01*
X253120Y217377D01*
X253094Y217395D01*
X253069Y217414D01*
X252999Y217465D01*
X252927Y217530D01*
X252850Y217610D01*
X252777Y217701D01*
X252712Y217807D01*
Y217810D01*
X252705Y217821D01*
X252697Y217836D01*
X252687Y217861D01*
X252676Y217887D01*
X252665Y217923D01*
X252650Y217960D01*
X252636Y218003D01*
X252621Y218051D01*
X252606Y218105D01*
X252595Y218160D01*
X252585Y218218D01*
X252566Y218345D01*
X252559Y218480D01*
Y218484D01*
Y218498D01*
Y218517D01*
X252563Y218542D01*
Y218575D01*
X252566Y218615D01*
X252574Y218655D01*
X252577Y218702D01*
X252588Y218753D01*
X252595Y218808D01*
X252625Y218924D01*
X252661Y219044D01*
X252712Y219164D01*
X252716Y219168D01*
X252719Y219179D01*
X252727Y219194D01*
X252741Y219215D01*
X252756Y219245D01*
X252774Y219274D01*
X252825Y219343D01*
X252887Y219423D01*
X252963Y219499D01*
X253050Y219576D01*
X253101Y219609D01*
X253152Y219641D01*
X253156Y219645D01*
X253167Y219649D01*
X253182Y219656D01*
X253203Y219667D01*
X253233Y219678D01*
X253265Y219692D01*
X253302Y219707D01*
X253345Y219721D01*
X253393Y219736D01*
X253444Y219747D01*
X253498Y219761D01*
X253556Y219772D01*
X253684Y219791D01*
X253749Y219798D01*
X253866D01*
X253888Y219794D01*
D02*
G37*
G36*
X257364Y217235D02*
X257018D01*
X255700Y219212D01*
Y217235D01*
X255380D01*
Y219754D01*
X255722D01*
X257044Y217774D01*
Y219754D01*
X257364D01*
Y217235D01*
D02*
G37*
G36*
X258958Y219750D02*
X259031Y219747D01*
X259104Y219740D01*
X259177Y219729D01*
X259239Y219718D01*
X259242D01*
X259249Y219714D01*
X259260D01*
X259275Y219707D01*
X259315Y219696D01*
X259366Y219678D01*
X259424Y219652D01*
X259486Y219619D01*
X259548Y219583D01*
X259606Y219536D01*
X259610Y219532D01*
X259613Y219529D01*
X259624Y219518D01*
X259639Y219507D01*
X259675Y219470D01*
X259719Y219419D01*
X259766Y219357D01*
X259817Y219285D01*
X259864Y219201D01*
X259905Y219106D01*
Y219103D01*
X259908Y219095D01*
X259915Y219081D01*
X259919Y219059D01*
X259930Y219033D01*
X259937Y219004D01*
X259945Y218972D01*
X259956Y218932D01*
X259966Y218892D01*
X259974Y218844D01*
X259992Y218742D01*
X260003Y218629D01*
X260006Y218506D01*
Y218502D01*
Y218495D01*
Y218477D01*
Y218458D01*
X260003Y218433D01*
Y218404D01*
X259999Y218335D01*
X259988Y218254D01*
X259977Y218171D01*
X259959Y218083D01*
X259937Y217996D01*
Y217992D01*
X259934Y217985D01*
X259930Y217974D01*
X259926Y217960D01*
X259912Y217920D01*
X259890Y217869D01*
X259868Y217810D01*
X259839Y217752D01*
X259803Y217690D01*
X259766Y217632D01*
X259763Y217625D01*
X259748Y217607D01*
X259726Y217581D01*
X259697Y217548D01*
X259664Y217512D01*
X259624Y217476D01*
X259584Y217436D01*
X259537Y217403D01*
X259530Y217399D01*
X259515Y217388D01*
X259490Y217374D01*
X259453Y217355D01*
X259409Y217334D01*
X259359Y217315D01*
X259300Y217294D01*
X259235Y217275D01*
X259227D01*
X259217Y217272D01*
X259206Y217268D01*
X259169Y217264D01*
X259118Y217257D01*
X259060Y217250D01*
X258991Y217243D01*
X258914Y217239D01*
X258831Y217235D01*
X257924D01*
Y219754D01*
X258893D01*
X258958Y219750D01*
D02*
G37*
G36*
X260997Y240792D02*
X261022D01*
X261091Y240784D01*
X261168Y240773D01*
X261248Y240755D01*
X261335Y240733D01*
X261415Y240704D01*
X261419D01*
X261426Y240701D01*
X261437Y240693D01*
X261452Y240686D01*
X261488Y240668D01*
X261535Y240635D01*
X261590Y240599D01*
X261645Y240551D01*
X261695Y240497D01*
X261743Y240435D01*
Y240431D01*
X261746Y240428D01*
X261754Y240417D01*
X261761Y240406D01*
X261779Y240369D01*
X261801Y240322D01*
X261826Y240264D01*
X261845Y240195D01*
X261863Y240122D01*
X261870Y240042D01*
X261550Y240016D01*
Y240020D01*
Y240027D01*
X261546Y240038D01*
X261543Y240056D01*
X261532Y240096D01*
X261517Y240151D01*
X261495Y240209D01*
X261462Y240267D01*
X261422Y240322D01*
X261371Y240373D01*
X261364Y240377D01*
X261346Y240391D01*
X261310Y240413D01*
X261262Y240435D01*
X261200Y240457D01*
X261128Y240478D01*
X261037Y240493D01*
X260935Y240497D01*
X260884D01*
X260862Y240493D01*
X260833Y240489D01*
X260767Y240482D01*
X260695Y240468D01*
X260622Y240449D01*
X260553Y240420D01*
X260523Y240402D01*
X260494Y240384D01*
X260487Y240380D01*
X260472Y240366D01*
X260451Y240340D01*
X260429Y240311D01*
X260403Y240271D01*
X260381Y240227D01*
X260367Y240176D01*
X260360Y240118D01*
Y240111D01*
Y240096D01*
X260363Y240071D01*
X260370Y240042D01*
X260381Y240005D01*
X260400Y239969D01*
X260421Y239932D01*
X260454Y239896D01*
X260458Y239893D01*
X260476Y239882D01*
X260491Y239871D01*
X260505Y239863D01*
X260527Y239852D01*
X260553Y239838D01*
X260585Y239827D01*
X260622Y239812D01*
X260662Y239798D01*
X260709Y239780D01*
X260760Y239765D01*
X260818Y239747D01*
X260884Y239732D01*
X260957Y239714D01*
X260960D01*
X260975Y239710D01*
X260997Y239707D01*
X261022Y239700D01*
X261055Y239692D01*
X261095Y239681D01*
X261135Y239670D01*
X261179Y239660D01*
X261273Y239634D01*
X261364Y239609D01*
X261408Y239594D01*
X261448Y239579D01*
X261484Y239568D01*
X261513Y239554D01*
X261517D01*
X261524Y239550D01*
X261535Y239543D01*
X261550Y239536D01*
X261590Y239514D01*
X261637Y239485D01*
X261692Y239445D01*
X261746Y239401D01*
X261797Y239350D01*
X261841Y239296D01*
X261845Y239288D01*
X261859Y239270D01*
X261874Y239237D01*
X261896Y239194D01*
X261914Y239143D01*
X261932Y239081D01*
X261943Y239012D01*
X261947Y238939D01*
Y238935D01*
Y238931D01*
Y238921D01*
Y238906D01*
X261939Y238866D01*
X261932Y238815D01*
X261917Y238757D01*
X261899Y238695D01*
X261870Y238629D01*
X261830Y238560D01*
Y238557D01*
X261826Y238553D01*
X261808Y238531D01*
X261783Y238498D01*
X261746Y238462D01*
X261699Y238418D01*
X261641Y238371D01*
X261575Y238327D01*
X261499Y238287D01*
X261495D01*
X261488Y238284D01*
X261477Y238280D01*
X261462Y238273D01*
X261441Y238265D01*
X261415Y238254D01*
X261357Y238240D01*
X261288Y238222D01*
X261204Y238204D01*
X261113Y238193D01*
X261015Y238189D01*
X260957D01*
X260927Y238193D01*
X260895D01*
X260858Y238196D01*
X260815Y238200D01*
X260724Y238214D01*
X260629Y238229D01*
X260534Y238254D01*
X260443Y238287D01*
X260440D01*
X260432Y238291D01*
X260421Y238298D01*
X260407Y238305D01*
X260363Y238327D01*
X260312Y238360D01*
X260254Y238404D01*
X260192Y238455D01*
X260134Y238517D01*
X260079Y238586D01*
Y238589D01*
X260072Y238597D01*
X260068Y238608D01*
X260057Y238622D01*
X260050Y238640D01*
X260039Y238662D01*
X260014Y238717D01*
X259988Y238786D01*
X259966Y238862D01*
X259952Y238950D01*
X259945Y239041D01*
X260258Y239070D01*
Y239066D01*
Y239063D01*
X260261Y239052D01*
Y239037D01*
X260269Y239004D01*
X260279Y238957D01*
X260294Y238910D01*
X260309Y238855D01*
X260334Y238804D01*
X260360Y238757D01*
X260363Y238753D01*
X260374Y238739D01*
X260392Y238713D01*
X260421Y238688D01*
X260458Y238655D01*
X260498Y238622D01*
X260553Y238589D01*
X260611Y238560D01*
X260614D01*
X260618Y238557D01*
X260629Y238553D01*
X260640Y238549D01*
X260676Y238538D01*
X260724Y238524D01*
X260782Y238509D01*
X260847Y238498D01*
X260920Y238491D01*
X261000Y238487D01*
X261033D01*
X261069Y238491D01*
X261113Y238495D01*
X261164Y238502D01*
X261222Y238509D01*
X261280Y238524D01*
X261335Y238542D01*
X261342Y238546D01*
X261361Y238553D01*
X261386Y238567D01*
X261419Y238582D01*
X261452Y238608D01*
X261488Y238633D01*
X261524Y238662D01*
X261554Y238699D01*
X261557Y238702D01*
X261564Y238717D01*
X261575Y238735D01*
X261590Y238764D01*
X261604Y238793D01*
X261615Y238830D01*
X261623Y238870D01*
X261626Y238913D01*
Y238917D01*
Y238935D01*
X261623Y238957D01*
X261619Y238986D01*
X261608Y239015D01*
X261597Y239052D01*
X261579Y239088D01*
X261554Y239121D01*
X261550Y239124D01*
X261539Y239135D01*
X261524Y239150D01*
X261499Y239172D01*
X261470Y239194D01*
X261430Y239219D01*
X261382Y239245D01*
X261328Y239266D01*
X261324Y239270D01*
X261306Y239274D01*
X261277Y239285D01*
X261259Y239288D01*
X261233Y239296D01*
X261208Y239306D01*
X261175Y239314D01*
X261139Y239325D01*
X261095Y239336D01*
X261051Y239347D01*
X261000Y239361D01*
X260942Y239376D01*
X260880Y239390D01*
X260876D01*
X260865Y239394D01*
X260847Y239397D01*
X260825Y239405D01*
X260796Y239412D01*
X260764Y239419D01*
X260691Y239441D01*
X260611Y239467D01*
X260527Y239492D01*
X260454Y239518D01*
X260421Y239532D01*
X260392Y239547D01*
X260389D01*
X260385Y239550D01*
X260363Y239565D01*
X260331Y239583D01*
X260294Y239612D01*
X260250Y239645D01*
X260207Y239685D01*
X260163Y239732D01*
X260127Y239783D01*
X260123Y239791D01*
X260112Y239809D01*
X260098Y239838D01*
X260083Y239874D01*
X260068Y239922D01*
X260054Y239976D01*
X260043Y240034D01*
X260039Y240096D01*
Y240100D01*
Y240104D01*
Y240114D01*
Y240129D01*
X260047Y240165D01*
X260054Y240213D01*
X260065Y240267D01*
X260083Y240329D01*
X260108Y240391D01*
X260145Y240453D01*
Y240457D01*
X260149Y240460D01*
X260167Y240482D01*
X260192Y240511D01*
X260225Y240548D01*
X260269Y240588D01*
X260323Y240631D01*
X260389Y240671D01*
X260461Y240708D01*
X260465D01*
X260472Y240711D01*
X260483Y240715D01*
X260498Y240722D01*
X260516Y240730D01*
X260542Y240737D01*
X260596Y240752D01*
X260665Y240766D01*
X260745Y240781D01*
X260829Y240792D01*
X260924Y240795D01*
X260971D01*
X260997Y240792D01*
D02*
G37*
G36*
X253880Y238233D02*
X253535D01*
X252559Y240752D01*
X252923D01*
X253578Y238921D01*
Y238917D01*
X253582Y238910D01*
X253586Y238899D01*
X253593Y238884D01*
X253596Y238862D01*
X253604Y238841D01*
X253622Y238786D01*
X253644Y238724D01*
X253666Y238655D01*
X253709Y238509D01*
Y238513D01*
X253713Y238520D01*
X253717Y238531D01*
X253720Y238546D01*
X253731Y238586D01*
X253749Y238640D01*
X253767Y238702D01*
X253789Y238771D01*
X253815Y238844D01*
X253844Y238921D01*
X254528Y240752D01*
X254867D01*
X253880Y238233D01*
D02*
G37*
G36*
X259501Y239296D02*
Y239292D01*
Y239277D01*
Y239259D01*
Y239234D01*
X259497Y239201D01*
Y239164D01*
X259493Y239121D01*
X259490Y239077D01*
X259479Y238979D01*
X259464Y238877D01*
X259442Y238779D01*
X259428Y238731D01*
X259413Y238688D01*
Y238684D01*
X259409Y238677D01*
X259402Y238666D01*
X259395Y238651D01*
X259373Y238611D01*
X259340Y238560D01*
X259297Y238502D01*
X259246Y238444D01*
X259180Y238382D01*
X259100Y238327D01*
X259097D01*
X259089Y238320D01*
X259078Y238316D01*
X259060Y238305D01*
X259038Y238295D01*
X259009Y238284D01*
X258980Y238273D01*
X258944Y238258D01*
X258904Y238244D01*
X258860Y238233D01*
X258813Y238222D01*
X258758Y238211D01*
X258703Y238204D01*
X258645Y238196D01*
X258514Y238189D01*
X258481D01*
X258456Y238193D01*
X258427D01*
X258390Y238196D01*
X258350Y238200D01*
X258310Y238204D01*
X258219Y238218D01*
X258121Y238240D01*
X258026Y238269D01*
X257935Y238309D01*
X257932D01*
X257924Y238316D01*
X257913Y238324D01*
X257899Y238331D01*
X257859Y238360D01*
X257812Y238400D01*
X257757Y238451D01*
X257706Y238509D01*
X257655Y238582D01*
X257615Y238662D01*
Y238666D01*
X257611Y238673D01*
X257608Y238688D01*
X257600Y238706D01*
X257593Y238728D01*
X257586Y238757D01*
X257575Y238790D01*
X257568Y238830D01*
X257560Y238873D01*
X257550Y238921D01*
X257542Y238972D01*
X257535Y239026D01*
X257528Y239088D01*
X257524Y239154D01*
X257520Y239223D01*
Y239296D01*
Y240752D01*
X257855D01*
Y239296D01*
Y239292D01*
Y239281D01*
Y239263D01*
Y239241D01*
X257859Y239215D01*
Y239183D01*
X257862Y239113D01*
X257870Y239033D01*
X257881Y238953D01*
X257895Y238877D01*
X257903Y238844D01*
X257913Y238811D01*
X257917Y238804D01*
X257924Y238786D01*
X257943Y238760D01*
X257964Y238724D01*
X257990Y238688D01*
X258026Y238648D01*
X258070Y238608D01*
X258121Y238575D01*
X258128Y238571D01*
X258147Y238560D01*
X258179Y238549D01*
X258223Y238535D01*
X258274Y238517D01*
X258339Y238506D01*
X258408Y238495D01*
X258485Y238491D01*
X258521D01*
X258543Y238495D01*
X258576D01*
X258609Y238498D01*
X258689Y238513D01*
X258776Y238531D01*
X258860Y238560D01*
X258940Y238600D01*
X258976Y238626D01*
X259009Y238655D01*
X259013Y238658D01*
X259016Y238662D01*
X259024Y238673D01*
X259035Y238688D01*
X259046Y238709D01*
X259060Y238731D01*
X259075Y238764D01*
X259089Y238797D01*
X259104Y238837D01*
X259115Y238884D01*
X259129Y238939D01*
X259140Y238997D01*
X259151Y239063D01*
X259158Y239132D01*
X259166Y239212D01*
Y239296D01*
Y240752D01*
X259501D01*
Y239296D01*
D02*
G37*
G36*
X256170Y240748D02*
X256199D01*
X256265Y240741D01*
X256337Y240733D01*
X256414Y240719D01*
X256490Y240701D01*
X256559Y240675D01*
X256563D01*
X256567Y240671D01*
X256589Y240661D01*
X256621Y240642D01*
X256658Y240617D01*
X256701Y240584D01*
X256749Y240544D01*
X256792Y240493D01*
X256832Y240439D01*
X256836Y240431D01*
X256847Y240409D01*
X256865Y240380D01*
X256883Y240337D01*
X256902Y240286D01*
X256920Y240231D01*
X256931Y240169D01*
X256934Y240107D01*
Y240100D01*
Y240082D01*
X256931Y240049D01*
X256923Y240009D01*
X256912Y239962D01*
X256894Y239911D01*
X256872Y239860D01*
X256843Y239805D01*
X256840Y239798D01*
X256829Y239783D01*
X256807Y239754D01*
X256778Y239725D01*
X256741Y239689D01*
X256698Y239649D01*
X256643Y239612D01*
X256581Y239576D01*
X256585D01*
X256592Y239572D01*
X256603Y239568D01*
X256618Y239561D01*
X256661Y239547D01*
X256712Y239521D01*
X256767Y239488D01*
X256829Y239448D01*
X256883Y239401D01*
X256934Y239343D01*
X256938Y239336D01*
X256953Y239314D01*
X256974Y239281D01*
X256996Y239237D01*
X257018Y239179D01*
X257040Y239117D01*
X257054Y239044D01*
X257058Y238964D01*
Y238961D01*
Y238957D01*
Y238935D01*
X257054Y238899D01*
X257047Y238855D01*
X257040Y238804D01*
X257025Y238750D01*
X257007Y238691D01*
X256982Y238633D01*
X256978Y238626D01*
X256967Y238608D01*
X256953Y238582D01*
X256931Y238546D01*
X256902Y238509D01*
X256872Y238469D01*
X256836Y238429D01*
X256796Y238396D01*
X256792Y238393D01*
X256778Y238382D01*
X256752Y238367D01*
X256720Y238353D01*
X256680Y238331D01*
X256632Y238309D01*
X256581Y238291D01*
X256519Y238273D01*
X256512D01*
X256490Y238265D01*
X256454Y238262D01*
X256406Y238254D01*
X256348Y238247D01*
X256279Y238240D01*
X256203Y238236D01*
X256115Y238233D01*
X255154D01*
Y240752D01*
X256144D01*
X256170Y240748D01*
D02*
G37*
G36*
X253611Y209296D02*
X253637D01*
X253706Y209288D01*
X253782Y209277D01*
X253862Y209259D01*
X253949Y209237D01*
X254030Y209208D01*
X254033D01*
X254041Y209205D01*
X254051Y209197D01*
X254066Y209190D01*
X254102Y209172D01*
X254150Y209139D01*
X254204Y209103D01*
X254259Y209055D01*
X254310Y209001D01*
X254357Y208939D01*
Y208935D01*
X254361Y208931D01*
X254368Y208921D01*
X254375Y208910D01*
X254394Y208873D01*
X254415Y208826D01*
X254441Y208768D01*
X254459Y208699D01*
X254477Y208626D01*
X254485Y208546D01*
X254164Y208520D01*
Y208524D01*
Y208531D01*
X254161Y208542D01*
X254157Y208560D01*
X254146Y208600D01*
X254132Y208655D01*
X254110Y208713D01*
X254077Y208771D01*
X254037Y208826D01*
X253986Y208877D01*
X253979Y208881D01*
X253960Y208895D01*
X253924Y208917D01*
X253877Y208939D01*
X253815Y208961D01*
X253742Y208982D01*
X253651Y208997D01*
X253549Y209001D01*
X253498D01*
X253476Y208997D01*
X253447Y208993D01*
X253382Y208986D01*
X253309Y208972D01*
X253236Y208953D01*
X253167Y208924D01*
X253138Y208906D01*
X253109Y208888D01*
X253101Y208884D01*
X253087Y208870D01*
X253065Y208844D01*
X253043Y208815D01*
X253018Y208775D01*
X252996Y208731D01*
X252981Y208680D01*
X252974Y208622D01*
Y208615D01*
Y208600D01*
X252978Y208575D01*
X252985Y208546D01*
X252996Y208509D01*
X253014Y208473D01*
X253036Y208436D01*
X253069Y208400D01*
X253072Y208396D01*
X253091Y208385D01*
X253105Y208375D01*
X253120Y208367D01*
X253141Y208356D01*
X253167Y208342D01*
X253200Y208331D01*
X253236Y208316D01*
X253276Y208302D01*
X253324Y208284D01*
X253374Y208269D01*
X253433Y208251D01*
X253498Y208236D01*
X253571Y208218D01*
X253575D01*
X253589Y208214D01*
X253611Y208211D01*
X253637Y208204D01*
X253669Y208196D01*
X253709Y208185D01*
X253749Y208174D01*
X253793Y208163D01*
X253888Y208138D01*
X253979Y208113D01*
X254022Y208098D01*
X254062Y208083D01*
X254099Y208072D01*
X254128Y208058D01*
X254132D01*
X254139Y208054D01*
X254150Y208047D01*
X254164Y208040D01*
X254204Y208018D01*
X254252Y207989D01*
X254306Y207949D01*
X254361Y207905D01*
X254412Y207854D01*
X254455Y207800D01*
X254459Y207792D01*
X254474Y207774D01*
X254488Y207741D01*
X254510Y207698D01*
X254528Y207647D01*
X254546Y207585D01*
X254557Y207516D01*
X254561Y207443D01*
Y207439D01*
Y207435D01*
Y207425D01*
Y207410D01*
X254554Y207370D01*
X254546Y207319D01*
X254532Y207261D01*
X254514Y207199D01*
X254485Y207133D01*
X254445Y207064D01*
Y207061D01*
X254441Y207057D01*
X254423Y207035D01*
X254397Y207002D01*
X254361Y206966D01*
X254313Y206922D01*
X254255Y206875D01*
X254190Y206831D01*
X254113Y206791D01*
X254110D01*
X254102Y206788D01*
X254092Y206784D01*
X254077Y206777D01*
X254055Y206769D01*
X254030Y206758D01*
X253971Y206744D01*
X253902Y206726D01*
X253818Y206708D01*
X253728Y206697D01*
X253629Y206693D01*
X253571D01*
X253542Y206697D01*
X253509D01*
X253473Y206700D01*
X253429Y206704D01*
X253338Y206718D01*
X253243Y206733D01*
X253149Y206758D01*
X253058Y206791D01*
X253054D01*
X253047Y206795D01*
X253036Y206802D01*
X253021Y206809D01*
X252978Y206831D01*
X252927Y206864D01*
X252868Y206908D01*
X252807Y206959D01*
X252748Y207020D01*
X252694Y207090D01*
Y207093D01*
X252687Y207101D01*
X252683Y207112D01*
X252672Y207126D01*
X252665Y207144D01*
X252654Y207166D01*
X252628Y207221D01*
X252603Y207290D01*
X252581Y207366D01*
X252566Y207454D01*
X252559Y207545D01*
X252872Y207574D01*
Y207570D01*
Y207566D01*
X252876Y207556D01*
Y207541D01*
X252883Y207508D01*
X252894Y207461D01*
X252908Y207414D01*
X252923Y207359D01*
X252948Y207308D01*
X252974Y207261D01*
X252978Y207257D01*
X252989Y207243D01*
X253007Y207217D01*
X253036Y207192D01*
X253072Y207159D01*
X253112Y207126D01*
X253167Y207093D01*
X253225Y207064D01*
X253229D01*
X253233Y207061D01*
X253243Y207057D01*
X253254Y207053D01*
X253291Y207042D01*
X253338Y207028D01*
X253396Y207013D01*
X253462Y207002D01*
X253535Y206995D01*
X253615Y206991D01*
X253647D01*
X253684Y206995D01*
X253728Y206999D01*
X253779Y207006D01*
X253837Y207013D01*
X253895Y207028D01*
X253949Y207046D01*
X253957Y207050D01*
X253975Y207057D01*
X254000Y207071D01*
X254033Y207086D01*
X254066Y207112D01*
X254102Y207137D01*
X254139Y207166D01*
X254168Y207203D01*
X254172Y207206D01*
X254179Y207221D01*
X254190Y207239D01*
X254204Y207268D01*
X254219Y207297D01*
X254230Y207334D01*
X254237Y207374D01*
X254241Y207417D01*
Y207421D01*
Y207439D01*
X254237Y207461D01*
X254233Y207490D01*
X254222Y207519D01*
X254212Y207556D01*
X254193Y207592D01*
X254168Y207625D01*
X254164Y207628D01*
X254153Y207639D01*
X254139Y207654D01*
X254113Y207676D01*
X254084Y207698D01*
X254044Y207723D01*
X253997Y207749D01*
X253942Y207770D01*
X253939Y207774D01*
X253920Y207778D01*
X253891Y207789D01*
X253873Y207792D01*
X253848Y207800D01*
X253822Y207810D01*
X253789Y207818D01*
X253753Y207829D01*
X253709Y207839D01*
X253666Y207850D01*
X253615Y207865D01*
X253556Y207880D01*
X253495Y207894D01*
X253491D01*
X253480Y207898D01*
X253462Y207901D01*
X253440Y207909D01*
X253411Y207916D01*
X253378Y207923D01*
X253305Y207945D01*
X253225Y207971D01*
X253141Y207996D01*
X253069Y208021D01*
X253036Y208036D01*
X253007Y208051D01*
X253003D01*
X252999Y208054D01*
X252978Y208069D01*
X252945Y208087D01*
X252908Y208116D01*
X252865Y208149D01*
X252821Y208189D01*
X252777Y208236D01*
X252741Y208287D01*
X252737Y208295D01*
X252727Y208313D01*
X252712Y208342D01*
X252697Y208378D01*
X252683Y208426D01*
X252668Y208480D01*
X252657Y208538D01*
X252654Y208600D01*
Y208604D01*
Y208608D01*
Y208618D01*
Y208633D01*
X252661Y208669D01*
X252668Y208717D01*
X252679Y208771D01*
X252697Y208833D01*
X252723Y208895D01*
X252759Y208957D01*
Y208961D01*
X252763Y208964D01*
X252781Y208986D01*
X252807Y209015D01*
X252839Y209052D01*
X252883Y209092D01*
X252938Y209135D01*
X253003Y209175D01*
X253076Y209212D01*
X253080D01*
X253087Y209215D01*
X253098Y209219D01*
X253112Y209226D01*
X253131Y209234D01*
X253156Y209241D01*
X253211Y209256D01*
X253280Y209270D01*
X253360Y209285D01*
X253444Y209296D01*
X253538Y209299D01*
X253586D01*
X253611Y209296D01*
D02*
G37*
G36*
X257338Y206737D02*
X257011D01*
X256483Y208655D01*
Y208659D01*
X256479Y208666D01*
X256476Y208677D01*
X256472Y208695D01*
X256461Y208735D01*
X256450Y208782D01*
X256436Y208833D01*
X256421Y208881D01*
X256410Y208921D01*
X256406Y208939D01*
X256403Y208950D01*
Y208946D01*
X256399Y208942D01*
X256396Y208921D01*
X256388Y208888D01*
X256377Y208848D01*
X256366Y208804D01*
X256352Y208753D01*
X256341Y208702D01*
X256327Y208655D01*
X255795Y206737D01*
X255446D01*
X254787Y209256D01*
X255133D01*
X255507Y207603D01*
Y207599D01*
X255511Y207592D01*
X255515Y207577D01*
X255518Y207559D01*
X255522Y207534D01*
X255529Y207508D01*
X255537Y207475D01*
X255544Y207439D01*
X255562Y207363D01*
X255580Y207275D01*
X255598Y207181D01*
X255617Y207086D01*
Y207090D01*
X255620Y207104D01*
X255628Y207122D01*
X255631Y207152D01*
X255639Y207181D01*
X255649Y207217D01*
X255668Y207297D01*
X255689Y207377D01*
X255697Y207417D01*
X255708Y207454D01*
X255715Y207486D01*
X255722Y207516D01*
X255730Y207537D01*
X255733Y207552D01*
X256210Y209256D01*
X256614D01*
X256971Y207978D01*
Y207974D01*
X256978Y207956D01*
X256985Y207930D01*
X256993Y207898D01*
X257003Y207854D01*
X257018Y207807D01*
X257033Y207752D01*
X257047Y207690D01*
X257065Y207621D01*
X257080Y207552D01*
X257113Y207403D01*
X257145Y207246D01*
X257171Y207086D01*
Y207090D01*
X257175Y207097D01*
Y207112D01*
X257182Y207130D01*
X257186Y207152D01*
X257193Y207177D01*
X257196Y207210D01*
X257207Y207246D01*
X257225Y207326D01*
X257247Y207421D01*
X257269Y207523D01*
X257298Y207636D01*
X257691Y209256D01*
X258030D01*
X257338Y206737D01*
D02*
G37*
G36*
X261273D02*
X260938D01*
Y209256D01*
X261273D01*
Y206737D01*
D02*
G37*
G36*
X259377Y209252D02*
X259450Y209248D01*
X259522Y209241D01*
X259595Y209230D01*
X259657Y209219D01*
X259661D01*
X259668Y209215D01*
X259679D01*
X259693Y209208D01*
X259734Y209197D01*
X259785Y209179D01*
X259843Y209154D01*
X259905Y209121D01*
X259966Y209084D01*
X260025Y209037D01*
X260028Y209033D01*
X260032Y209030D01*
X260043Y209019D01*
X260057Y209008D01*
X260094Y208972D01*
X260138Y208921D01*
X260185Y208859D01*
X260236Y208786D01*
X260283Y208702D01*
X260323Y208608D01*
Y208604D01*
X260327Y208597D01*
X260334Y208582D01*
X260338Y208560D01*
X260349Y208535D01*
X260356Y208506D01*
X260363Y208473D01*
X260374Y208433D01*
X260385Y208393D01*
X260392Y208346D01*
X260410Y208244D01*
X260421Y208131D01*
X260425Y208007D01*
Y208003D01*
Y207996D01*
Y207978D01*
Y207960D01*
X260421Y207934D01*
Y207905D01*
X260418Y207836D01*
X260407Y207756D01*
X260396Y207672D01*
X260378Y207585D01*
X260356Y207497D01*
Y207494D01*
X260352Y207486D01*
X260349Y207475D01*
X260345Y207461D01*
X260331Y207421D01*
X260309Y207370D01*
X260287Y207312D01*
X260258Y207254D01*
X260221Y207192D01*
X260185Y207133D01*
X260181Y207126D01*
X260167Y207108D01*
X260145Y207082D01*
X260116Y207050D01*
X260083Y207013D01*
X260043Y206977D01*
X260003Y206937D01*
X259956Y206904D01*
X259948Y206900D01*
X259934Y206890D01*
X259908Y206875D01*
X259872Y206857D01*
X259828Y206835D01*
X259777Y206817D01*
X259719Y206795D01*
X259653Y206777D01*
X259646D01*
X259635Y206773D01*
X259624Y206769D01*
X259588Y206766D01*
X259537Y206758D01*
X259479Y206751D01*
X259409Y206744D01*
X259333Y206740D01*
X259249Y206737D01*
X258343D01*
Y209256D01*
X259311D01*
X259377Y209252D01*
D02*
G37*
G36*
X263024Y209296D02*
X263057D01*
X263090Y209292D01*
X263133Y209285D01*
X263177Y209277D01*
X263272Y209259D01*
X263381Y209230D01*
X263486Y209186D01*
X263541Y209161D01*
X263596Y209132D01*
X263599Y209128D01*
X263606Y209124D01*
X263621Y209114D01*
X263643Y209103D01*
X263665Y209084D01*
X263694Y209063D01*
X263756Y209012D01*
X263821Y208946D01*
X263894Y208866D01*
X263963Y208771D01*
X264021Y208666D01*
Y208662D01*
X264029Y208651D01*
X264036Y208637D01*
X264043Y208615D01*
X264058Y208586D01*
X264069Y208553D01*
X264083Y208513D01*
X264098Y208469D01*
X264109Y208422D01*
X264123Y208371D01*
X264138Y208313D01*
X264149Y208255D01*
X264163Y208127D01*
X264171Y207989D01*
Y207985D01*
Y207971D01*
Y207952D01*
X264167Y207923D01*
Y207891D01*
X264163Y207850D01*
X264156Y207807D01*
X264152Y207759D01*
X264134Y207654D01*
X264105Y207537D01*
X264065Y207421D01*
X264043Y207363D01*
X264014Y207304D01*
Y207301D01*
X264007Y207290D01*
X264000Y207275D01*
X263985Y207254D01*
X263970Y207228D01*
X263952Y207203D01*
X263901Y207133D01*
X263839Y207061D01*
X263767Y206984D01*
X263679Y206911D01*
X263577Y206846D01*
X263574D01*
X263566Y206838D01*
X263548Y206831D01*
X263526Y206820D01*
X263501Y206809D01*
X263472Y206799D01*
X263435Y206784D01*
X263395Y206769D01*
X263352Y206755D01*
X263304Y206740D01*
X263199Y206718D01*
X263086Y206700D01*
X262966Y206693D01*
X262929D01*
X262908Y206697D01*
X262875D01*
X262838Y206704D01*
X262798Y206708D01*
X262751Y206715D01*
X262653Y206737D01*
X262547Y206766D01*
X262438Y206809D01*
X262383Y206835D01*
X262329Y206864D01*
X262325Y206868D01*
X262318Y206871D01*
X262303Y206882D01*
X262281Y206897D01*
X262260Y206911D01*
X262234Y206933D01*
X262172Y206988D01*
X262103Y207053D01*
X262030Y207133D01*
X261965Y207224D01*
X261903Y207330D01*
Y207334D01*
X261896Y207345D01*
X261888Y207359D01*
X261881Y207381D01*
X261870Y207410D01*
X261859Y207443D01*
X261845Y207479D01*
X261834Y207519D01*
X261819Y207566D01*
X261805Y207614D01*
X261783Y207723D01*
X261768Y207836D01*
X261761Y207960D01*
Y207963D01*
Y207967D01*
Y207989D01*
X261765Y208021D01*
Y208065D01*
X261772Y208116D01*
X261779Y208178D01*
X261790Y208247D01*
X261805Y208320D01*
X261819Y208396D01*
X261841Y208476D01*
X261870Y208557D01*
X261903Y208640D01*
X261939Y208720D01*
X261987Y208801D01*
X262038Y208873D01*
X262096Y208942D01*
X262100Y208946D01*
X262110Y208957D01*
X262132Y208975D01*
X262158Y208997D01*
X262191Y209026D01*
X262230Y209055D01*
X262278Y209088D01*
X262333Y209121D01*
X262391Y209154D01*
X262456Y209186D01*
X262529Y209215D01*
X262606Y209245D01*
X262689Y209266D01*
X262776Y209285D01*
X262867Y209296D01*
X262966Y209299D01*
X262999D01*
X263024Y209296D01*
D02*
G37*
G36*
X279572Y52020D02*
X279590D01*
X279638Y52015D01*
X279692Y52007D01*
X279748Y51995D01*
X279809Y51979D01*
X279865Y51959D01*
X279868D01*
X279873Y51956D01*
X279881Y51951D01*
X279891Y51946D01*
X279916Y51933D01*
X279949Y51910D01*
X279988Y51885D01*
X280026Y51852D01*
X280062Y51814D01*
X280095Y51770D01*
Y51768D01*
X280097Y51765D01*
X280102Y51757D01*
X280108Y51750D01*
X280120Y51724D01*
X280136Y51691D01*
X280153Y51650D01*
X280166Y51602D01*
X280179Y51551D01*
X280184Y51495D01*
X279960Y51477D01*
Y51480D01*
Y51485D01*
X279957Y51492D01*
X279955Y51505D01*
X279947Y51533D01*
X279937Y51571D01*
X279922Y51612D01*
X279899Y51653D01*
X279871Y51691D01*
X279835Y51727D01*
X279830Y51729D01*
X279817Y51740D01*
X279791Y51755D01*
X279758Y51770D01*
X279715Y51785D01*
X279664Y51801D01*
X279600Y51811D01*
X279529Y51814D01*
X279493D01*
X279478Y51811D01*
X279457Y51808D01*
X279412Y51803D01*
X279361Y51793D01*
X279310Y51780D01*
X279261Y51760D01*
X279241Y51747D01*
X279220Y51735D01*
X279215Y51732D01*
X279205Y51722D01*
X279190Y51704D01*
X279174Y51683D01*
X279156Y51655D01*
X279141Y51625D01*
X279131Y51589D01*
X279126Y51548D01*
Y51543D01*
Y51533D01*
X279128Y51515D01*
X279134Y51495D01*
X279141Y51469D01*
X279154Y51444D01*
X279169Y51418D01*
X279192Y51393D01*
X279195Y51390D01*
X279207Y51383D01*
X279218Y51375D01*
X279228Y51370D01*
X279243Y51362D01*
X279261Y51352D01*
X279284Y51344D01*
X279310Y51334D01*
X279338Y51324D01*
X279371Y51311D01*
X279406Y51301D01*
X279447Y51288D01*
X279493Y51278D01*
X279544Y51265D01*
X279547D01*
X279557Y51263D01*
X279572Y51260D01*
X279590Y51255D01*
X279613Y51250D01*
X279641Y51242D01*
X279669Y51235D01*
X279700Y51227D01*
X279766Y51209D01*
X279830Y51191D01*
X279860Y51181D01*
X279888Y51171D01*
X279914Y51163D01*
X279934Y51153D01*
X279937D01*
X279942Y51151D01*
X279949Y51145D01*
X279960Y51140D01*
X279988Y51125D01*
X280021Y51105D01*
X280059Y51077D01*
X280097Y51046D01*
X280133Y51010D01*
X280164Y50972D01*
X280166Y50967D01*
X280176Y50954D01*
X280187Y50931D01*
X280202Y50901D01*
X280215Y50865D01*
X280227Y50822D01*
X280235Y50773D01*
X280238Y50722D01*
Y50720D01*
Y50717D01*
Y50709D01*
Y50699D01*
X280233Y50671D01*
X280227Y50635D01*
X280217Y50595D01*
X280205Y50551D01*
X280184Y50505D01*
X280156Y50457D01*
Y50454D01*
X280153Y50452D01*
X280141Y50437D01*
X280123Y50414D01*
X280097Y50388D01*
X280064Y50358D01*
X280024Y50324D01*
X279978Y50294D01*
X279924Y50266D01*
X279922D01*
X279916Y50263D01*
X279909Y50261D01*
X279899Y50256D01*
X279883Y50250D01*
X279865Y50243D01*
X279825Y50232D01*
X279776Y50220D01*
X279717Y50207D01*
X279654Y50199D01*
X279585Y50197D01*
X279544D01*
X279524Y50199D01*
X279501D01*
X279475Y50202D01*
X279445Y50204D01*
X279381Y50215D01*
X279315Y50225D01*
X279248Y50243D01*
X279185Y50266D01*
X279182D01*
X279177Y50268D01*
X279169Y50273D01*
X279159Y50278D01*
X279128Y50294D01*
X279093Y50317D01*
X279052Y50347D01*
X279009Y50383D01*
X278968Y50426D01*
X278929Y50475D01*
Y50477D01*
X278924Y50482D01*
X278922Y50490D01*
X278914Y50500D01*
X278909Y50513D01*
X278902Y50528D01*
X278884Y50567D01*
X278866Y50615D01*
X278851Y50669D01*
X278840Y50730D01*
X278835Y50793D01*
X279054Y50814D01*
Y50811D01*
Y50809D01*
X279057Y50801D01*
Y50791D01*
X279062Y50768D01*
X279070Y50735D01*
X279080Y50702D01*
X279090Y50664D01*
X279108Y50628D01*
X279126Y50595D01*
X279128Y50592D01*
X279136Y50582D01*
X279149Y50564D01*
X279169Y50546D01*
X279195Y50523D01*
X279223Y50500D01*
X279261Y50477D01*
X279302Y50457D01*
X279304D01*
X279307Y50454D01*
X279315Y50452D01*
X279322Y50449D01*
X279348Y50442D01*
X279381Y50431D01*
X279422Y50421D01*
X279468Y50414D01*
X279519Y50409D01*
X279575Y50406D01*
X279598D01*
X279623Y50409D01*
X279654Y50411D01*
X279689Y50416D01*
X279730Y50421D01*
X279771Y50431D01*
X279809Y50444D01*
X279814Y50447D01*
X279827Y50452D01*
X279845Y50462D01*
X279868Y50472D01*
X279891Y50490D01*
X279916Y50508D01*
X279942Y50528D01*
X279962Y50554D01*
X279965Y50556D01*
X279970Y50567D01*
X279978Y50579D01*
X279988Y50600D01*
X279998Y50620D01*
X280006Y50646D01*
X280011Y50674D01*
X280013Y50704D01*
Y50707D01*
Y50720D01*
X280011Y50735D01*
X280008Y50755D01*
X280000Y50776D01*
X279993Y50801D01*
X279980Y50827D01*
X279962Y50850D01*
X279960Y50852D01*
X279952Y50860D01*
X279942Y50870D01*
X279924Y50885D01*
X279904Y50901D01*
X279876Y50919D01*
X279842Y50936D01*
X279804Y50952D01*
X279802Y50954D01*
X279789Y50957D01*
X279768Y50964D01*
X279756Y50967D01*
X279738Y50972D01*
X279720Y50980D01*
X279697Y50985D01*
X279672Y50992D01*
X279641Y51000D01*
X279610Y51008D01*
X279575Y51018D01*
X279534Y51028D01*
X279490Y51038D01*
X279488D01*
X279480Y51041D01*
X279468Y51043D01*
X279452Y51048D01*
X279432Y51054D01*
X279409Y51059D01*
X279358Y51074D01*
X279302Y51092D01*
X279243Y51110D01*
X279192Y51128D01*
X279169Y51138D01*
X279149Y51148D01*
X279146D01*
X279144Y51151D01*
X279128Y51161D01*
X279105Y51174D01*
X279080Y51194D01*
X279049Y51217D01*
X279019Y51245D01*
X278988Y51278D01*
X278963Y51314D01*
X278960Y51319D01*
X278953Y51332D01*
X278942Y51352D01*
X278932Y51377D01*
X278922Y51411D01*
X278912Y51449D01*
X278904Y51490D01*
X278902Y51533D01*
Y51536D01*
Y51538D01*
Y51546D01*
Y51556D01*
X278907Y51582D01*
X278912Y51615D01*
X278919Y51653D01*
X278932Y51696D01*
X278950Y51740D01*
X278975Y51783D01*
Y51785D01*
X278978Y51788D01*
X278991Y51803D01*
X279009Y51824D01*
X279031Y51849D01*
X279062Y51877D01*
X279100Y51908D01*
X279146Y51936D01*
X279197Y51961D01*
X279200D01*
X279205Y51964D01*
X279213Y51967D01*
X279223Y51972D01*
X279236Y51977D01*
X279253Y51982D01*
X279292Y51992D01*
X279340Y52002D01*
X279396Y52012D01*
X279455Y52020D01*
X279521Y52023D01*
X279554D01*
X279572Y52020D01*
D02*
G37*
G36*
X283469Y51783D02*
X282887D01*
Y50227D01*
X282652D01*
Y51783D01*
X282071D01*
Y51992D01*
X283469D01*
Y51783D01*
D02*
G37*
G36*
X281839D02*
X280796D01*
Y51245D01*
X281773D01*
Y51036D01*
X280796D01*
Y50437D01*
X281880D01*
Y50227D01*
X280561D01*
Y51992D01*
X281839D01*
Y51783D01*
D02*
G37*
G36*
X278550D02*
X277507D01*
Y51245D01*
X278483D01*
Y51036D01*
X277507D01*
Y50437D01*
X278590D01*
Y50227D01*
X277272D01*
Y51992D01*
X278550D01*
Y51783D01*
D02*
G37*
G36*
X276331Y51990D02*
X276354D01*
X276408Y51987D01*
X276464Y51979D01*
X276525Y51972D01*
X276581Y51959D01*
X276609Y51951D01*
X276632Y51944D01*
X276635D01*
X276637Y51941D01*
X276652Y51933D01*
X276675Y51923D01*
X276703Y51905D01*
X276734Y51882D01*
X276767Y51852D01*
X276798Y51816D01*
X276828Y51775D01*
Y51773D01*
X276831Y51770D01*
X276841Y51755D01*
X276851Y51729D01*
X276867Y51696D01*
X276879Y51658D01*
X276892Y51612D01*
X276900Y51564D01*
X276902Y51510D01*
Y51508D01*
Y51502D01*
Y51492D01*
X276900Y51480D01*
Y51462D01*
X276897Y51444D01*
X276887Y51400D01*
X276872Y51349D01*
X276851Y51296D01*
X276821Y51242D01*
X276800Y51217D01*
X276780Y51191D01*
X276777Y51189D01*
X276775Y51186D01*
X276767Y51179D01*
X276757Y51171D01*
X276744Y51161D01*
X276729Y51151D01*
X276709Y51138D01*
X276688Y51122D01*
X276663Y51110D01*
X276635Y51097D01*
X276604Y51082D01*
X276571Y51069D01*
X276533Y51059D01*
X276494Y51046D01*
X276451Y51038D01*
X276405Y51031D01*
X276410Y51028D01*
X276420Y51023D01*
X276436Y51013D01*
X276456Y51003D01*
X276502Y50975D01*
X276525Y50957D01*
X276545Y50941D01*
X276550Y50936D01*
X276563Y50924D01*
X276584Y50903D01*
X276609Y50878D01*
X276637Y50842D01*
X276670Y50804D01*
X276703Y50758D01*
X276739Y50707D01*
X277043Y50227D01*
X276752D01*
X276520Y50595D01*
Y50597D01*
X276515Y50602D01*
X276510Y50610D01*
X276502Y50620D01*
X276484Y50648D01*
X276461Y50684D01*
X276433Y50722D01*
X276405Y50763D01*
X276377Y50801D01*
X276351Y50837D01*
X276349Y50839D01*
X276341Y50850D01*
X276328Y50865D01*
X276311Y50883D01*
X276272Y50921D01*
X276252Y50939D01*
X276232Y50954D01*
X276229Y50957D01*
X276224Y50959D01*
X276214Y50964D01*
X276199Y50972D01*
X276183Y50980D01*
X276165Y50987D01*
X276125Y51000D01*
X276122D01*
X276117Y51003D01*
X276107D01*
X276094Y51005D01*
X276076Y51008D01*
X276056D01*
X276028Y51010D01*
X275727D01*
Y50227D01*
X275492D01*
Y51992D01*
X276311D01*
X276331Y51990D01*
D02*
G37*
G36*
X279113Y41958D02*
X279146Y41953D01*
X279187Y41945D01*
X279233Y41932D01*
X279279Y41917D01*
X279325Y41897D01*
X279327D01*
X279330Y41894D01*
X279345Y41886D01*
X279368Y41871D01*
X279394Y41853D01*
X279424Y41828D01*
X279455Y41800D01*
X279485Y41767D01*
X279511Y41728D01*
X279514Y41723D01*
X279521Y41710D01*
X279531Y41688D01*
X279544Y41659D01*
X279557Y41626D01*
X279567Y41588D01*
X279575Y41545D01*
X279577Y41501D01*
Y41496D01*
Y41481D01*
X279575Y41460D01*
X279570Y41432D01*
X279562Y41399D01*
X279549Y41364D01*
X279534Y41328D01*
X279514Y41292D01*
X279511Y41287D01*
X279503Y41277D01*
X279488Y41259D01*
X279468Y41239D01*
X279442Y41216D01*
X279412Y41190D01*
X279376Y41167D01*
X279332Y41144D01*
X279335D01*
X279340Y41142D01*
X279348Y41139D01*
X279358Y41137D01*
X279386Y41126D01*
X279422Y41111D01*
X279463Y41091D01*
X279503Y41065D01*
X279541Y41032D01*
X279577Y40994D01*
X279580Y40989D01*
X279590Y40973D01*
X279605Y40948D01*
X279621Y40915D01*
X279636Y40874D01*
X279651Y40826D01*
X279661Y40769D01*
X279664Y40708D01*
Y40706D01*
Y40698D01*
Y40685D01*
X279661Y40670D01*
X279659Y40650D01*
X279654Y40627D01*
X279649Y40601D01*
X279644Y40573D01*
X279623Y40512D01*
X279608Y40479D01*
X279592Y40448D01*
X279572Y40415D01*
X279549Y40382D01*
X279524Y40349D01*
X279493Y40318D01*
X279490Y40316D01*
X279485Y40310D01*
X279475Y40303D01*
X279463Y40293D01*
X279447Y40280D01*
X279427Y40267D01*
X279404Y40252D01*
X279376Y40239D01*
X279348Y40224D01*
X279315Y40209D01*
X279281Y40196D01*
X279243Y40183D01*
X279202Y40173D01*
X279159Y40165D01*
X279116Y40160D01*
X279067Y40157D01*
X279044D01*
X279029Y40160D01*
X279009Y40163D01*
X278986Y40165D01*
X278960Y40170D01*
X278932Y40175D01*
X278871Y40191D01*
X278807Y40216D01*
X278774Y40231D01*
X278743Y40249D01*
X278713Y40272D01*
X278682Y40295D01*
X278680Y40298D01*
X278675Y40303D01*
X278667Y40310D01*
X278659Y40321D01*
X278646Y40333D01*
X278634Y40351D01*
X278618Y40369D01*
X278603Y40392D01*
X278588Y40418D01*
X278573Y40443D01*
X278544Y40504D01*
X278521Y40576D01*
X278514Y40614D01*
X278509Y40655D01*
X278726Y40683D01*
Y40680D01*
X278728Y40675D01*
X278731Y40665D01*
X278733Y40652D01*
X278736Y40637D01*
X278741Y40619D01*
X278754Y40581D01*
X278771Y40535D01*
X278794Y40492D01*
X278820Y40451D01*
X278851Y40415D01*
X278856Y40413D01*
X278866Y40402D01*
X278886Y40389D01*
X278912Y40377D01*
X278942Y40361D01*
X278980Y40349D01*
X279024Y40339D01*
X279070Y40336D01*
X279085D01*
X279095Y40339D01*
X279123Y40341D01*
X279159Y40349D01*
X279200Y40361D01*
X279243Y40379D01*
X279287Y40405D01*
X279327Y40440D01*
X279332Y40446D01*
X279345Y40461D01*
X279361Y40484D01*
X279381Y40514D01*
X279401Y40553D01*
X279417Y40596D01*
X279429Y40647D01*
X279434Y40703D01*
Y40706D01*
Y40711D01*
Y40718D01*
X279432Y40729D01*
X279429Y40757D01*
X279422Y40790D01*
X279412Y40831D01*
X279394Y40872D01*
X279368Y40912D01*
X279335Y40951D01*
X279330Y40956D01*
X279317Y40966D01*
X279297Y40981D01*
X279269Y40999D01*
X279233Y41017D01*
X279190Y41032D01*
X279141Y41042D01*
X279088Y41047D01*
X279065D01*
X279047Y41045D01*
X279024Y41042D01*
X278998Y41037D01*
X278968Y41032D01*
X278935Y41025D01*
X278960Y41216D01*
X278973D01*
X278983Y41213D01*
X279016D01*
X279044Y41218D01*
X279077Y41223D01*
X279116Y41231D01*
X279159Y41244D01*
X279200Y41262D01*
X279243Y41285D01*
X279246D01*
X279248Y41287D01*
X279261Y41297D01*
X279279Y41315D01*
X279299Y41338D01*
X279320Y41371D01*
X279338Y41410D01*
X279350Y41453D01*
X279355Y41478D01*
Y41506D01*
Y41509D01*
Y41511D01*
Y41527D01*
X279350Y41547D01*
X279345Y41575D01*
X279335Y41606D01*
X279322Y41639D01*
X279302Y41672D01*
X279274Y41703D01*
X279271Y41705D01*
X279258Y41715D01*
X279241Y41728D01*
X279218Y41744D01*
X279187Y41756D01*
X279151Y41769D01*
X279111Y41779D01*
X279065Y41782D01*
X279044D01*
X279021Y41777D01*
X278991Y41772D01*
X278958Y41761D01*
X278924Y41749D01*
X278889Y41728D01*
X278856Y41703D01*
X278853Y41700D01*
X278843Y41688D01*
X278828Y41670D01*
X278810Y41644D01*
X278792Y41611D01*
X278774Y41570D01*
X278759Y41522D01*
X278748Y41466D01*
X278532Y41504D01*
Y41506D01*
X278534Y41514D01*
X278537Y41524D01*
X278539Y41540D01*
X278544Y41557D01*
X278552Y41578D01*
X278567Y41626D01*
X278593Y41682D01*
X278624Y41739D01*
X278662Y41792D01*
X278710Y41840D01*
X278713Y41843D01*
X278718Y41846D01*
X278726Y41851D01*
X278736Y41858D01*
X278748Y41868D01*
X278766Y41879D01*
X278784Y41889D01*
X278807Y41902D01*
X278858Y41922D01*
X278917Y41943D01*
X278986Y41955D01*
X279021Y41960D01*
X279085D01*
X279113Y41958D01*
D02*
G37*
G36*
X276097D02*
X276130Y41953D01*
X276170Y41945D01*
X276216Y41932D01*
X276262Y41917D01*
X276308Y41897D01*
X276311D01*
X276313Y41894D01*
X276328Y41886D01*
X276351Y41871D01*
X276377Y41853D01*
X276408Y41828D01*
X276438Y41800D01*
X276469Y41767D01*
X276494Y41728D01*
X276497Y41723D01*
X276504Y41710D01*
X276515Y41688D01*
X276527Y41659D01*
X276540Y41626D01*
X276550Y41588D01*
X276558Y41545D01*
X276561Y41501D01*
Y41496D01*
Y41481D01*
X276558Y41460D01*
X276553Y41432D01*
X276545Y41399D01*
X276533Y41364D01*
X276517Y41328D01*
X276497Y41292D01*
X276494Y41287D01*
X276487Y41277D01*
X276471Y41259D01*
X276451Y41239D01*
X276425Y41216D01*
X276395Y41190D01*
X276359Y41167D01*
X276316Y41144D01*
X276318D01*
X276323Y41142D01*
X276331Y41139D01*
X276341Y41137D01*
X276369Y41126D01*
X276405Y41111D01*
X276446Y41091D01*
X276487Y41065D01*
X276525Y41032D01*
X276561Y40994D01*
X276563Y40989D01*
X276573Y40973D01*
X276589Y40948D01*
X276604Y40915D01*
X276619Y40874D01*
X276635Y40826D01*
X276645Y40769D01*
X276647Y40708D01*
Y40706D01*
Y40698D01*
Y40685D01*
X276645Y40670D01*
X276642Y40650D01*
X276637Y40627D01*
X276632Y40601D01*
X276627Y40573D01*
X276606Y40512D01*
X276591Y40479D01*
X276576Y40448D01*
X276555Y40415D01*
X276533Y40382D01*
X276507Y40349D01*
X276476Y40318D01*
X276474Y40316D01*
X276469Y40310D01*
X276459Y40303D01*
X276446Y40293D01*
X276431Y40280D01*
X276410Y40267D01*
X276387Y40252D01*
X276359Y40239D01*
X276331Y40224D01*
X276298Y40209D01*
X276265Y40196D01*
X276226Y40183D01*
X276186Y40173D01*
X276142Y40165D01*
X276099Y40160D01*
X276051Y40157D01*
X276028D01*
X276012Y40160D01*
X275992Y40163D01*
X275969Y40165D01*
X275943Y40170D01*
X275915Y40175D01*
X275854Y40191D01*
X275791Y40216D01*
X275757Y40231D01*
X275727Y40249D01*
X275696Y40272D01*
X275665Y40295D01*
X275663Y40298D01*
X275658Y40303D01*
X275650Y40310D01*
X275643Y40321D01*
X275630Y40333D01*
X275617Y40351D01*
X275602Y40369D01*
X275587Y40392D01*
X275571Y40418D01*
X275556Y40443D01*
X275528Y40504D01*
X275505Y40576D01*
X275497Y40614D01*
X275492Y40655D01*
X275709Y40683D01*
Y40680D01*
X275711Y40675D01*
X275714Y40665D01*
X275716Y40652D01*
X275719Y40637D01*
X275724Y40619D01*
X275737Y40581D01*
X275755Y40535D01*
X275778Y40492D01*
X275803Y40451D01*
X275834Y40415D01*
X275839Y40413D01*
X275849Y40402D01*
X275869Y40389D01*
X275895Y40377D01*
X275926Y40361D01*
X275964Y40349D01*
X276007Y40339D01*
X276053Y40336D01*
X276068D01*
X276079Y40339D01*
X276107Y40341D01*
X276142Y40349D01*
X276183Y40361D01*
X276226Y40379D01*
X276270Y40405D01*
X276311Y40440D01*
X276316Y40446D01*
X276328Y40461D01*
X276344Y40484D01*
X276364Y40514D01*
X276385Y40553D01*
X276400Y40596D01*
X276413Y40647D01*
X276418Y40703D01*
Y40706D01*
Y40711D01*
Y40718D01*
X276415Y40729D01*
X276413Y40757D01*
X276405Y40790D01*
X276395Y40831D01*
X276377Y40872D01*
X276351Y40912D01*
X276318Y40951D01*
X276313Y40956D01*
X276301Y40966D01*
X276280Y40981D01*
X276252Y40999D01*
X276216Y41017D01*
X276173Y41032D01*
X276125Y41042D01*
X276071Y41047D01*
X276048D01*
X276030Y41045D01*
X276007Y41042D01*
X275982Y41037D01*
X275951Y41032D01*
X275918Y41025D01*
X275943Y41216D01*
X275956D01*
X275966Y41213D01*
X276000D01*
X276028Y41218D01*
X276061Y41223D01*
X276099Y41231D01*
X276142Y41244D01*
X276183Y41262D01*
X276226Y41285D01*
X276229D01*
X276232Y41287D01*
X276244Y41297D01*
X276262Y41315D01*
X276283Y41338D01*
X276303Y41371D01*
X276321Y41410D01*
X276334Y41453D01*
X276339Y41478D01*
Y41506D01*
Y41509D01*
Y41511D01*
Y41527D01*
X276334Y41547D01*
X276328Y41575D01*
X276318Y41606D01*
X276306Y41639D01*
X276285Y41672D01*
X276257Y41703D01*
X276255Y41705D01*
X276242Y41715D01*
X276224Y41728D01*
X276201Y41744D01*
X276170Y41756D01*
X276135Y41769D01*
X276094Y41779D01*
X276048Y41782D01*
X276028D01*
X276005Y41777D01*
X275974Y41772D01*
X275941Y41761D01*
X275908Y41749D01*
X275872Y41728D01*
X275839Y41703D01*
X275836Y41700D01*
X275826Y41688D01*
X275811Y41670D01*
X275793Y41644D01*
X275775Y41611D01*
X275757Y41570D01*
X275742Y41522D01*
X275732Y41466D01*
X275515Y41504D01*
Y41506D01*
X275518Y41514D01*
X275520Y41524D01*
X275523Y41540D01*
X275528Y41557D01*
X275535Y41578D01*
X275551Y41626D01*
X275576Y41682D01*
X275607Y41739D01*
X275645Y41792D01*
X275694Y41840D01*
X275696Y41843D01*
X275701Y41846D01*
X275709Y41851D01*
X275719Y41858D01*
X275732Y41868D01*
X275750Y41879D01*
X275767Y41889D01*
X275791Y41902D01*
X275841Y41922D01*
X275900Y41943D01*
X275969Y41955D01*
X276005Y41960D01*
X276068D01*
X276097Y41958D01*
D02*
G37*
G36*
X277693Y40188D02*
X277450D01*
X276767Y41953D01*
X277022D01*
X277481Y40670D01*
Y40668D01*
X277484Y40662D01*
X277486Y40655D01*
X277491Y40644D01*
X277494Y40629D01*
X277499Y40614D01*
X277512Y40576D01*
X277527Y40532D01*
X277542Y40484D01*
X277573Y40382D01*
Y40384D01*
X277575Y40389D01*
X277578Y40397D01*
X277581Y40407D01*
X277588Y40435D01*
X277601Y40474D01*
X277614Y40517D01*
X277629Y40565D01*
X277647Y40617D01*
X277667Y40670D01*
X278147Y41953D01*
X278384D01*
X277693Y40188D01*
D02*
G37*
G36*
X278521Y60630D02*
X278279D01*
X277356Y62015D01*
Y60630D01*
X277132D01*
Y62394D01*
X277372D01*
X278297Y61007D01*
Y62394D01*
X278521D01*
Y60630D01*
D02*
G37*
G36*
X276770Y62185D02*
X275727D01*
Y61647D01*
X276703D01*
Y61438D01*
X275727D01*
Y60839D01*
X276811D01*
Y60630D01*
X275492D01*
Y62394D01*
X276770D01*
Y62185D01*
D02*
G37*
G36*
X277907Y71592D02*
X278567Y70669D01*
X278279D01*
X277833Y71297D01*
X277831Y71299D01*
X277825Y71307D01*
X277820Y71317D01*
X277810Y71330D01*
X277787Y71365D01*
X277762Y71404D01*
X277759Y71401D01*
X277751Y71391D01*
X277741Y71376D01*
X277729Y71355D01*
X277700Y71314D01*
X277688Y71297D01*
X277677Y71281D01*
X277231Y70669D01*
X276951D01*
X277632Y71582D01*
X277030Y72434D01*
X277308D01*
X277629Y71980D01*
Y71977D01*
X277634Y71975D01*
X277639Y71967D01*
X277647Y71957D01*
X277662Y71931D01*
X277685Y71901D01*
X277708Y71865D01*
X277731Y71829D01*
X277751Y71796D01*
X277769Y71766D01*
X277772Y71771D01*
X277780Y71781D01*
X277792Y71802D01*
X277810Y71827D01*
X277831Y71855D01*
X277856Y71891D01*
X277882Y71926D01*
X277912Y71965D01*
X278264Y72434D01*
X278519D01*
X277907Y71592D01*
D02*
G37*
G36*
X276889Y72225D02*
X276308D01*
Y70669D01*
X276074D01*
Y72225D01*
X275492D01*
Y72434D01*
X276889D01*
Y72225D01*
D02*
G37*
G36*
X200855Y209153D02*
X200881D01*
X200950Y209146D01*
X201026Y209135D01*
X201106Y209117D01*
X201194Y209095D01*
X201274Y209066D01*
X201277D01*
X201285Y209062D01*
X201296Y209055D01*
X201310Y209048D01*
X201346Y209030D01*
X201394Y208997D01*
X201448Y208961D01*
X201503Y208913D01*
X201554Y208859D01*
X201601Y208797D01*
Y208793D01*
X201605Y208789D01*
X201612Y208779D01*
X201620Y208768D01*
X201638Y208731D01*
X201659Y208684D01*
X201685Y208626D01*
X201703Y208556D01*
X201721Y208484D01*
X201729Y208404D01*
X201408Y208378D01*
Y208382D01*
Y208389D01*
X201405Y208400D01*
X201401Y208418D01*
X201390Y208458D01*
X201376Y208513D01*
X201354Y208571D01*
X201321Y208629D01*
X201281Y208684D01*
X201230Y208735D01*
X201223Y208738D01*
X201204Y208753D01*
X201168Y208775D01*
X201121Y208797D01*
X201059Y208819D01*
X200986Y208840D01*
X200895Y208855D01*
X200793Y208859D01*
X200742D01*
X200720Y208855D01*
X200691Y208851D01*
X200626Y208844D01*
X200553Y208829D01*
X200480Y208811D01*
X200411Y208782D01*
X200382Y208764D01*
X200353Y208746D01*
X200345Y208742D01*
X200331Y208728D01*
X200309Y208702D01*
X200287Y208673D01*
X200262Y208633D01*
X200240Y208589D01*
X200225Y208538D01*
X200218Y208480D01*
Y208473D01*
Y208458D01*
X200222Y208433D01*
X200229Y208404D01*
X200240Y208367D01*
X200258Y208331D01*
X200280Y208294D01*
X200313Y208258D01*
X200316Y208254D01*
X200335Y208243D01*
X200349Y208232D01*
X200364Y208225D01*
X200385Y208214D01*
X200411Y208200D01*
X200444Y208189D01*
X200480Y208174D01*
X200520Y208160D01*
X200568Y208141D01*
X200619Y208127D01*
X200677Y208109D01*
X200742Y208094D01*
X200815Y208076D01*
X200819D01*
X200833Y208072D01*
X200855Y208069D01*
X200881Y208061D01*
X200913Y208054D01*
X200953Y208043D01*
X200993Y208032D01*
X201037Y208021D01*
X201132Y207996D01*
X201223Y207970D01*
X201266Y207956D01*
X201307Y207941D01*
X201343Y207930D01*
X201372Y207916D01*
X201376D01*
X201383Y207912D01*
X201394Y207905D01*
X201408Y207898D01*
X201448Y207876D01*
X201496Y207847D01*
X201550Y207807D01*
X201605Y207763D01*
X201656Y207712D01*
X201700Y207657D01*
X201703Y207650D01*
X201718Y207632D01*
X201732Y207599D01*
X201754Y207556D01*
X201772Y207505D01*
X201791Y207443D01*
X201801Y207373D01*
X201805Y207301D01*
Y207297D01*
Y207293D01*
Y207282D01*
Y207268D01*
X201798Y207228D01*
X201791Y207177D01*
X201776Y207119D01*
X201758Y207057D01*
X201729Y206991D01*
X201689Y206922D01*
Y206918D01*
X201685Y206915D01*
X201667Y206893D01*
X201641Y206860D01*
X201605Y206824D01*
X201558Y206780D01*
X201499Y206733D01*
X201434Y206689D01*
X201357Y206649D01*
X201354D01*
X201346Y206645D01*
X201336Y206642D01*
X201321Y206634D01*
X201299Y206627D01*
X201274Y206616D01*
X201216Y206602D01*
X201146Y206584D01*
X201063Y206565D01*
X200972Y206554D01*
X200873Y206551D01*
X200815D01*
X200786Y206554D01*
X200753D01*
X200717Y206558D01*
X200673Y206562D01*
X200582Y206576D01*
X200487Y206591D01*
X200393Y206616D01*
X200302Y206649D01*
X200298D01*
X200291Y206653D01*
X200280Y206660D01*
X200265Y206667D01*
X200222Y206689D01*
X200171Y206722D01*
X200113Y206766D01*
X200051Y206817D01*
X199992Y206878D01*
X199938Y206948D01*
Y206951D01*
X199931Y206959D01*
X199927Y206969D01*
X199916Y206984D01*
X199909Y207002D01*
X199898Y207024D01*
X199872Y207079D01*
X199847Y207148D01*
X199825Y207224D01*
X199810Y207312D01*
X199803Y207403D01*
X200116Y207432D01*
Y207428D01*
Y207424D01*
X200120Y207414D01*
Y207399D01*
X200127Y207366D01*
X200138Y207319D01*
X200153Y207272D01*
X200167Y207217D01*
X200193Y207166D01*
X200218Y207119D01*
X200222Y207115D01*
X200233Y207101D01*
X200251Y207075D01*
X200280Y207049D01*
X200316Y207017D01*
X200356Y206984D01*
X200411Y206951D01*
X200469Y206922D01*
X200473D01*
X200477Y206918D01*
X200487Y206915D01*
X200498Y206911D01*
X200535Y206900D01*
X200582Y206886D01*
X200640Y206871D01*
X200706Y206860D01*
X200779Y206853D01*
X200859Y206849D01*
X200891D01*
X200928Y206853D01*
X200972Y206857D01*
X201023Y206864D01*
X201081Y206871D01*
X201139Y206886D01*
X201194Y206904D01*
X201201Y206908D01*
X201219Y206915D01*
X201245Y206929D01*
X201277Y206944D01*
X201310Y206969D01*
X201346Y206995D01*
X201383Y207024D01*
X201412Y207060D01*
X201416Y207064D01*
X201423Y207079D01*
X201434Y207097D01*
X201448Y207126D01*
X201463Y207155D01*
X201474Y207191D01*
X201481Y207231D01*
X201485Y207275D01*
Y207279D01*
Y207297D01*
X201481Y207319D01*
X201478Y207348D01*
X201467Y207377D01*
X201456Y207414D01*
X201437Y207450D01*
X201412Y207483D01*
X201408Y207486D01*
X201397Y207497D01*
X201383Y207512D01*
X201357Y207534D01*
X201328Y207556D01*
X201288Y207581D01*
X201241Y207606D01*
X201186Y207628D01*
X201183Y207632D01*
X201165Y207635D01*
X201135Y207646D01*
X201117Y207650D01*
X201092Y207657D01*
X201066Y207668D01*
X201033Y207676D01*
X200997Y207686D01*
X200953Y207697D01*
X200910Y207708D01*
X200859Y207723D01*
X200800Y207737D01*
X200739Y207752D01*
X200735D01*
X200724Y207756D01*
X200706Y207759D01*
X200684Y207767D01*
X200655Y207774D01*
X200622Y207781D01*
X200549Y207803D01*
X200469Y207828D01*
X200385Y207854D01*
X200313Y207879D01*
X200280Y207894D01*
X200251Y207909D01*
X200247D01*
X200244Y207912D01*
X200222Y207927D01*
X200189Y207945D01*
X200153Y207974D01*
X200109Y208007D01*
X200065Y208047D01*
X200022Y208094D01*
X199985Y208145D01*
X199981Y208152D01*
X199971Y208171D01*
X199956Y208200D01*
X199942Y208236D01*
X199927Y208283D01*
X199912Y208338D01*
X199901Y208396D01*
X199898Y208458D01*
Y208462D01*
Y208466D01*
Y208476D01*
Y208491D01*
X199905Y208527D01*
X199912Y208575D01*
X199923Y208629D01*
X199942Y208691D01*
X199967Y208753D01*
X200003Y208815D01*
Y208819D01*
X200007Y208822D01*
X200025Y208844D01*
X200051Y208873D01*
X200083Y208910D01*
X200127Y208950D01*
X200182Y208993D01*
X200247Y209033D01*
X200320Y209070D01*
X200324D01*
X200331Y209073D01*
X200342Y209077D01*
X200356Y209084D01*
X200375Y209091D01*
X200400Y209099D01*
X200455Y209113D01*
X200524Y209128D01*
X200604Y209142D01*
X200688Y209153D01*
X200782Y209157D01*
X200830D01*
X200855Y209153D01*
D02*
G37*
G36*
X206883Y206594D02*
X206504D01*
X206209Y207359D01*
X205154D01*
X204881Y206594D01*
X204528D01*
X205489Y209113D01*
X205853D01*
X206883Y206594D01*
D02*
G37*
G36*
X203298Y209110D02*
X203370Y209106D01*
X203443Y209099D01*
X203516Y209088D01*
X203578Y209077D01*
X203582D01*
X203589Y209073D01*
X203600D01*
X203614Y209066D01*
X203654Y209055D01*
X203705Y209037D01*
X203764Y209012D01*
X203825Y208979D01*
X203887Y208942D01*
X203945Y208895D01*
X203949Y208891D01*
X203953Y208888D01*
X203964Y208877D01*
X203978Y208866D01*
X204015Y208829D01*
X204058Y208779D01*
X204106Y208717D01*
X204157Y208644D01*
X204204Y208560D01*
X204244Y208466D01*
Y208462D01*
X204248Y208454D01*
X204255Y208440D01*
X204258Y208418D01*
X204269Y208393D01*
X204277Y208364D01*
X204284Y208331D01*
X204295Y208291D01*
X204306Y208251D01*
X204313Y208203D01*
X204331Y208102D01*
X204342Y207989D01*
X204346Y207865D01*
Y207861D01*
Y207854D01*
Y207836D01*
Y207818D01*
X204342Y207792D01*
Y207763D01*
X204339Y207694D01*
X204328Y207614D01*
X204317Y207530D01*
X204299Y207443D01*
X204277Y207355D01*
Y207352D01*
X204273Y207344D01*
X204269Y207333D01*
X204266Y207319D01*
X204251Y207279D01*
X204229Y207228D01*
X204207Y207170D01*
X204178Y207111D01*
X204142Y207049D01*
X204106Y206991D01*
X204102Y206984D01*
X204087Y206966D01*
X204066Y206940D01*
X204036Y206908D01*
X204004Y206871D01*
X203964Y206835D01*
X203924Y206795D01*
X203876Y206762D01*
X203869Y206758D01*
X203854Y206747D01*
X203829Y206733D01*
X203793Y206715D01*
X203749Y206693D01*
X203698Y206675D01*
X203640Y206653D01*
X203574Y206634D01*
X203567D01*
X203556Y206631D01*
X203545Y206627D01*
X203509Y206624D01*
X203458Y206616D01*
X203399Y206609D01*
X203330Y206602D01*
X203254Y206598D01*
X203170Y206594D01*
X202264D01*
Y209113D01*
X203232D01*
X203298Y209110D01*
D02*
G37*
G36*
X200855Y218898D02*
X200881D01*
X200950Y218890D01*
X201026Y218879D01*
X201106Y218861D01*
X201194Y218839D01*
X201274Y218810D01*
X201277D01*
X201285Y218807D01*
X201296Y218799D01*
X201310Y218792D01*
X201346Y218774D01*
X201394Y218741D01*
X201448Y218705D01*
X201503Y218657D01*
X201554Y218603D01*
X201601Y218541D01*
Y218537D01*
X201605Y218533D01*
X201612Y218523D01*
X201620Y218512D01*
X201638Y218475D01*
X201659Y218428D01*
X201685Y218370D01*
X201703Y218301D01*
X201721Y218228D01*
X201729Y218148D01*
X201408Y218122D01*
Y218126D01*
Y218133D01*
X201405Y218144D01*
X201401Y218162D01*
X201390Y218202D01*
X201376Y218257D01*
X201354Y218315D01*
X201321Y218373D01*
X201281Y218428D01*
X201230Y218479D01*
X201223Y218482D01*
X201204Y218497D01*
X201168Y218519D01*
X201121Y218541D01*
X201059Y218563D01*
X200986Y218584D01*
X200895Y218599D01*
X200793Y218603D01*
X200742D01*
X200720Y218599D01*
X200691Y218595D01*
X200626Y218588D01*
X200553Y218573D01*
X200480Y218555D01*
X200411Y218526D01*
X200382Y218508D01*
X200353Y218490D01*
X200345Y218486D01*
X200331Y218472D01*
X200309Y218446D01*
X200287Y218417D01*
X200262Y218377D01*
X200240Y218333D01*
X200225Y218282D01*
X200218Y218224D01*
Y218217D01*
Y218202D01*
X200222Y218177D01*
X200229Y218148D01*
X200240Y218111D01*
X200258Y218075D01*
X200280Y218039D01*
X200313Y218002D01*
X200316Y217998D01*
X200335Y217987D01*
X200349Y217977D01*
X200364Y217969D01*
X200385Y217958D01*
X200411Y217944D01*
X200444Y217933D01*
X200480Y217918D01*
X200520Y217904D01*
X200568Y217886D01*
X200619Y217871D01*
X200677Y217853D01*
X200742Y217838D01*
X200815Y217820D01*
X200819D01*
X200833Y217816D01*
X200855Y217813D01*
X200881Y217806D01*
X200913Y217798D01*
X200953Y217787D01*
X200993Y217776D01*
X201037Y217765D01*
X201132Y217740D01*
X201223Y217715D01*
X201266Y217700D01*
X201307Y217685D01*
X201343Y217674D01*
X201372Y217660D01*
X201376D01*
X201383Y217656D01*
X201394Y217649D01*
X201408Y217642D01*
X201448Y217620D01*
X201496Y217591D01*
X201550Y217551D01*
X201605Y217507D01*
X201656Y217456D01*
X201700Y217402D01*
X201703Y217394D01*
X201718Y217376D01*
X201732Y217343D01*
X201754Y217300D01*
X201772Y217249D01*
X201791Y217187D01*
X201801Y217118D01*
X201805Y217045D01*
Y217041D01*
Y217038D01*
Y217026D01*
Y217012D01*
X201798Y216972D01*
X201791Y216921D01*
X201776Y216863D01*
X201758Y216801D01*
X201729Y216735D01*
X201689Y216666D01*
Y216663D01*
X201685Y216659D01*
X201667Y216637D01*
X201641Y216604D01*
X201605Y216568D01*
X201558Y216524D01*
X201499Y216477D01*
X201434Y216433D01*
X201357Y216393D01*
X201354D01*
X201346Y216389D01*
X201336Y216386D01*
X201321Y216379D01*
X201299Y216371D01*
X201274Y216360D01*
X201216Y216346D01*
X201146Y216328D01*
X201063Y216309D01*
X200972Y216299D01*
X200873Y216295D01*
X200815D01*
X200786Y216299D01*
X200753D01*
X200717Y216302D01*
X200673Y216306D01*
X200582Y216320D01*
X200487Y216335D01*
X200393Y216360D01*
X200302Y216393D01*
X200298D01*
X200291Y216397D01*
X200280Y216404D01*
X200265Y216411D01*
X200222Y216433D01*
X200171Y216466D01*
X200113Y216510D01*
X200051Y216561D01*
X199992Y216622D01*
X199938Y216692D01*
Y216695D01*
X199931Y216703D01*
X199927Y216714D01*
X199916Y216728D01*
X199909Y216746D01*
X199898Y216768D01*
X199872Y216823D01*
X199847Y216892D01*
X199825Y216968D01*
X199810Y217056D01*
X199803Y217147D01*
X200116Y217176D01*
Y217172D01*
Y217168D01*
X200120Y217158D01*
Y217143D01*
X200127Y217110D01*
X200138Y217063D01*
X200153Y217016D01*
X200167Y216961D01*
X200193Y216910D01*
X200218Y216863D01*
X200222Y216859D01*
X200233Y216845D01*
X200251Y216819D01*
X200280Y216794D01*
X200316Y216761D01*
X200356Y216728D01*
X200411Y216695D01*
X200469Y216666D01*
X200473D01*
X200477Y216663D01*
X200487Y216659D01*
X200498Y216655D01*
X200535Y216644D01*
X200582Y216630D01*
X200640Y216615D01*
X200706Y216604D01*
X200779Y216597D01*
X200859Y216593D01*
X200891D01*
X200928Y216597D01*
X200972Y216601D01*
X201023Y216608D01*
X201081Y216615D01*
X201139Y216630D01*
X201194Y216648D01*
X201201Y216652D01*
X201219Y216659D01*
X201245Y216673D01*
X201277Y216688D01*
X201310Y216714D01*
X201346Y216739D01*
X201383Y216768D01*
X201412Y216805D01*
X201416Y216808D01*
X201423Y216823D01*
X201434Y216841D01*
X201448Y216870D01*
X201463Y216899D01*
X201474Y216935D01*
X201481Y216976D01*
X201485Y217019D01*
Y217023D01*
Y217041D01*
X201481Y217063D01*
X201478Y217092D01*
X201467Y217121D01*
X201456Y217158D01*
X201437Y217194D01*
X201412Y217227D01*
X201408Y217230D01*
X201397Y217241D01*
X201383Y217256D01*
X201357Y217278D01*
X201328Y217300D01*
X201288Y217325D01*
X201241Y217351D01*
X201186Y217372D01*
X201183Y217376D01*
X201165Y217380D01*
X201135Y217390D01*
X201117Y217394D01*
X201092Y217402D01*
X201066Y217412D01*
X201033Y217420D01*
X200997Y217431D01*
X200953Y217442D01*
X200910Y217452D01*
X200859Y217467D01*
X200800Y217481D01*
X200739Y217496D01*
X200735D01*
X200724Y217500D01*
X200706Y217503D01*
X200684Y217511D01*
X200655Y217518D01*
X200622Y217525D01*
X200549Y217547D01*
X200469Y217572D01*
X200385Y217598D01*
X200313Y217623D01*
X200280Y217638D01*
X200251Y217653D01*
X200247D01*
X200244Y217656D01*
X200222Y217671D01*
X200189Y217689D01*
X200153Y217718D01*
X200109Y217751D01*
X200065Y217791D01*
X200022Y217838D01*
X199985Y217889D01*
X199981Y217897D01*
X199971Y217915D01*
X199956Y217944D01*
X199942Y217980D01*
X199927Y218027D01*
X199912Y218082D01*
X199901Y218140D01*
X199898Y218202D01*
Y218206D01*
Y218210D01*
Y218220D01*
Y218235D01*
X199905Y218271D01*
X199912Y218319D01*
X199923Y218373D01*
X199942Y218435D01*
X199967Y218497D01*
X200003Y218559D01*
Y218563D01*
X200007Y218566D01*
X200025Y218588D01*
X200051Y218617D01*
X200083Y218654D01*
X200127Y218694D01*
X200182Y218737D01*
X200247Y218777D01*
X200320Y218814D01*
X200324D01*
X200331Y218817D01*
X200342Y218821D01*
X200356Y218828D01*
X200375Y218836D01*
X200400Y218843D01*
X200455Y218858D01*
X200524Y218872D01*
X200604Y218887D01*
X200688Y218898D01*
X200782Y218901D01*
X200830D01*
X200855Y218898D01*
D02*
G37*
G36*
X203414D02*
X203447Y218894D01*
X203487Y218890D01*
X203527Y218887D01*
X203574Y218876D01*
X203673Y218854D01*
X203782Y218821D01*
X203836Y218799D01*
X203887Y218774D01*
X203938Y218741D01*
X203989Y218708D01*
X203993Y218705D01*
X204000Y218701D01*
X204015Y218690D01*
X204033Y218672D01*
X204051Y218654D01*
X204077Y218628D01*
X204102Y218599D01*
X204131Y218570D01*
X204160Y218533D01*
X204189Y218490D01*
X204222Y218446D01*
X204251Y218399D01*
X204277Y218344D01*
X204306Y218290D01*
X204328Y218231D01*
X204349Y218166D01*
X204022Y218089D01*
Y218093D01*
X204018Y218100D01*
X204011Y218115D01*
X204004Y218133D01*
X203996Y218155D01*
X203986Y218184D01*
X203956Y218242D01*
X203920Y218308D01*
X203876Y218373D01*
X203822Y218435D01*
X203764Y218490D01*
X203756Y218497D01*
X203734Y218512D01*
X203698Y218530D01*
X203651Y218555D01*
X203589Y218577D01*
X203520Y218599D01*
X203436Y218614D01*
X203345Y218617D01*
X203316D01*
X203298Y218614D01*
X203272D01*
X203243Y218610D01*
X203174Y218599D01*
X203097Y218584D01*
X203017Y218559D01*
X202934Y218523D01*
X202857Y218475D01*
X202853D01*
X202850Y218468D01*
X202824Y218450D01*
X202792Y218421D01*
X202751Y218377D01*
X202704Y218322D01*
X202660Y218261D01*
X202621Y218184D01*
X202584Y218100D01*
Y218097D01*
X202580Y218089D01*
X202577Y218078D01*
X202573Y218060D01*
X202566Y218039D01*
X202559Y218013D01*
X202548Y217951D01*
X202533Y217878D01*
X202519Y217798D01*
X202511Y217711D01*
X202508Y217616D01*
Y217613D01*
Y217602D01*
Y217583D01*
Y217562D01*
X202511Y217536D01*
Y217503D01*
X202515Y217467D01*
X202519Y217427D01*
X202530Y217340D01*
X202548Y217245D01*
X202570Y217150D01*
X202599Y217056D01*
Y217052D01*
X202602Y217045D01*
X202610Y217034D01*
X202617Y217016D01*
X202639Y216972D01*
X202672Y216921D01*
X202712Y216863D01*
X202763Y216801D01*
X202821Y216746D01*
X202890Y216695D01*
X202893D01*
X202901Y216692D01*
X202912Y216684D01*
X202926Y216677D01*
X202944Y216670D01*
X202966Y216659D01*
X203017Y216637D01*
X203083Y216615D01*
X203156Y216597D01*
X203236Y216582D01*
X203319Y216579D01*
X203345D01*
X203367Y216582D01*
X203392D01*
X203418Y216586D01*
X203483Y216601D01*
X203560Y216619D01*
X203636Y216648D01*
X203716Y216688D01*
X203756Y216710D01*
X203793Y216739D01*
X203796Y216743D01*
X203800Y216746D01*
X203811Y216757D01*
X203825Y216768D01*
X203840Y216786D01*
X203858Y216808D01*
X203880Y216830D01*
X203898Y216859D01*
X203920Y216892D01*
X203945Y216928D01*
X203967Y216965D01*
X203989Y217008D01*
X204007Y217056D01*
X204026Y217107D01*
X204044Y217161D01*
X204058Y217219D01*
X204393Y217136D01*
Y217132D01*
X204390Y217118D01*
X204382Y217096D01*
X204371Y217067D01*
X204360Y217034D01*
X204346Y216994D01*
X204328Y216950D01*
X204306Y216903D01*
X204255Y216801D01*
X204189Y216699D01*
X204149Y216648D01*
X204109Y216597D01*
X204066Y216553D01*
X204015Y216510D01*
X204011Y216506D01*
X204004Y216499D01*
X203986Y216492D01*
X203967Y216477D01*
X203938Y216459D01*
X203909Y216441D01*
X203869Y216422D01*
X203829Y216404D01*
X203782Y216382D01*
X203731Y216364D01*
X203676Y216346D01*
X203618Y216328D01*
X203556Y216313D01*
X203490Y216306D01*
X203421Y216299D01*
X203348Y216295D01*
X203309D01*
X203279Y216299D01*
X203247D01*
X203206Y216302D01*
X203163Y216309D01*
X203112Y216317D01*
X203006Y216335D01*
X202897Y216364D01*
X202788Y216404D01*
X202737Y216430D01*
X202686Y216459D01*
X202682Y216462D01*
X202675Y216466D01*
X202660Y216477D01*
X202646Y216492D01*
X202624Y216506D01*
X202599Y216528D01*
X202570Y216553D01*
X202540Y216582D01*
X202511Y216615D01*
X202479Y216648D01*
X202413Y216732D01*
X202351Y216830D01*
X202297Y216939D01*
Y216943D01*
X202289Y216954D01*
X202286Y216972D01*
X202275Y216994D01*
X202267Y217023D01*
X202256Y217059D01*
X202242Y217099D01*
X202231Y217143D01*
X202220Y217190D01*
X202205Y217245D01*
X202187Y217358D01*
X202173Y217485D01*
X202166Y217616D01*
Y217620D01*
Y217634D01*
Y217656D01*
X202169Y217682D01*
Y217718D01*
X202173Y217755D01*
X202176Y217802D01*
X202184Y217849D01*
X202202Y217955D01*
X202227Y218071D01*
X202264Y218188D01*
X202315Y218301D01*
X202318Y218304D01*
X202322Y218315D01*
X202329Y218330D01*
X202344Y218348D01*
X202358Y218373D01*
X202377Y218403D01*
X202424Y218468D01*
X202486Y218541D01*
X202559Y218614D01*
X202642Y218686D01*
X202741Y218748D01*
X202744Y218752D01*
X202755Y218756D01*
X202770Y218763D01*
X202788Y218774D01*
X202817Y218785D01*
X202846Y218796D01*
X202883Y218810D01*
X202923Y218825D01*
X202966Y218839D01*
X203014Y218854D01*
X203116Y218876D01*
X203232Y218894D01*
X203352Y218901D01*
X203389D01*
X203414Y218898D01*
D02*
G37*
G36*
X205769Y217835D02*
X206872Y216339D01*
X206432D01*
X205536Y217609D01*
X205125Y217212D01*
Y216339D01*
X204790D01*
Y218858D01*
X205125D01*
Y217605D01*
X206370Y218858D01*
X206825D01*
X205769Y217835D01*
D02*
G37*
G36*
X201132Y228776D02*
X201161D01*
X201230Y228769D01*
X201307Y228758D01*
X201387Y228740D01*
X201474Y228718D01*
X201558Y228689D01*
X201561D01*
X201569Y228685D01*
X201579Y228682D01*
X201594Y228675D01*
X201634Y228653D01*
X201685Y228627D01*
X201740Y228591D01*
X201798Y228547D01*
X201852Y228500D01*
X201903Y228442D01*
X201911Y228434D01*
X201925Y228412D01*
X201947Y228380D01*
X201976Y228332D01*
X202005Y228274D01*
X202038Y228201D01*
X202071Y228121D01*
X202096Y228030D01*
X201794Y227950D01*
Y227954D01*
X201791Y227957D01*
X201787Y227968D01*
X201783Y227983D01*
X201772Y228016D01*
X201758Y228059D01*
X201736Y228110D01*
X201711Y228158D01*
X201685Y228209D01*
X201652Y228252D01*
X201649Y228256D01*
X201638Y228270D01*
X201616Y228289D01*
X201590Y228314D01*
X201558Y228343D01*
X201514Y228372D01*
X201467Y228401D01*
X201412Y228427D01*
X201405Y228431D01*
X201387Y228438D01*
X201354Y228449D01*
X201310Y228463D01*
X201259Y228474D01*
X201201Y228485D01*
X201135Y228492D01*
X201066Y228496D01*
X201026D01*
X201008Y228492D01*
X200986D01*
X200932Y228489D01*
X200870Y228478D01*
X200800Y228467D01*
X200735Y228449D01*
X200670Y228423D01*
X200662Y228420D01*
X200640Y228412D01*
X200611Y228394D01*
X200575Y228376D01*
X200531Y228347D01*
X200484Y228318D01*
X200440Y228281D01*
X200400Y228241D01*
X200396Y228238D01*
X200382Y228223D01*
X200364Y228198D01*
X200342Y228169D01*
X200316Y228132D01*
X200291Y228088D01*
X200265Y228041D01*
X200240Y227990D01*
Y227987D01*
X200236Y227979D01*
X200233Y227968D01*
X200225Y227950D01*
X200218Y227928D01*
X200211Y227903D01*
X200200Y227874D01*
X200193Y227841D01*
X200174Y227765D01*
X200160Y227677D01*
X200149Y227586D01*
X200145Y227484D01*
Y227481D01*
Y227470D01*
Y227451D01*
X200149Y227430D01*
Y227400D01*
X200153Y227364D01*
X200156Y227328D01*
X200160Y227288D01*
X200174Y227197D01*
X200193Y227102D01*
X200222Y227007D01*
X200258Y226916D01*
Y226913D01*
X200265Y226905D01*
X200269Y226894D01*
X200280Y226880D01*
X200306Y226840D01*
X200345Y226789D01*
X200393Y226734D01*
X200451Y226680D01*
X200520Y226629D01*
X200597Y226582D01*
X200600D01*
X200608Y226578D01*
X200619Y226571D01*
X200637Y226563D01*
X200655Y226556D01*
X200680Y226549D01*
X200739Y226527D01*
X200811Y226509D01*
X200891Y226490D01*
X200979Y226476D01*
X201070Y226472D01*
X201106D01*
X201128Y226476D01*
X201150D01*
X201204Y226483D01*
X201270Y226490D01*
X201339Y226505D01*
X201416Y226527D01*
X201492Y226552D01*
X201496D01*
X201503Y226556D01*
X201510Y226560D01*
X201525Y226567D01*
X201565Y226585D01*
X201609Y226607D01*
X201659Y226632D01*
X201714Y226662D01*
X201765Y226694D01*
X201809Y226731D01*
Y227204D01*
X201066D01*
Y227502D01*
X202136D01*
Y226567D01*
X202133Y226563D01*
X202126Y226560D01*
X202111Y226549D01*
X202093Y226534D01*
X202071Y226520D01*
X202045Y226501D01*
X202013Y226480D01*
X201980Y226458D01*
X201903Y226410D01*
X201816Y226359D01*
X201725Y226312D01*
X201627Y226272D01*
X201623D01*
X201616Y226268D01*
X201601Y226265D01*
X201583Y226257D01*
X201558Y226250D01*
X201529Y226239D01*
X201496Y226232D01*
X201463Y226225D01*
X201383Y226207D01*
X201292Y226188D01*
X201194Y226177D01*
X201092Y226174D01*
X201055D01*
X201030Y226177D01*
X200997D01*
X200957Y226181D01*
X200913Y226188D01*
X200866Y226192D01*
X200761Y226214D01*
X200648Y226239D01*
X200531Y226279D01*
X200473Y226301D01*
X200415Y226330D01*
X200411Y226334D01*
X200400Y226338D01*
X200385Y226348D01*
X200364Y226359D01*
X200338Y226378D01*
X200313Y226396D01*
X200244Y226447D01*
X200171Y226512D01*
X200094Y226592D01*
X200022Y226683D01*
X199956Y226789D01*
Y226793D01*
X199949Y226803D01*
X199942Y226818D01*
X199931Y226844D01*
X199920Y226869D01*
X199909Y226905D01*
X199894Y226942D01*
X199880Y226986D01*
X199865Y227033D01*
X199850Y227087D01*
X199840Y227142D01*
X199829Y227200D01*
X199810Y227328D01*
X199803Y227462D01*
Y227466D01*
Y227481D01*
Y227499D01*
X199807Y227524D01*
Y227557D01*
X199810Y227597D01*
X199818Y227637D01*
X199821Y227684D01*
X199832Y227735D01*
X199840Y227790D01*
X199869Y227906D01*
X199905Y228027D01*
X199956Y228147D01*
X199960Y228150D01*
X199963Y228161D01*
X199971Y228176D01*
X199985Y228198D01*
X200000Y228227D01*
X200018Y228256D01*
X200069Y228325D01*
X200131Y228405D01*
X200207Y228482D01*
X200295Y228558D01*
X200345Y228591D01*
X200396Y228624D01*
X200400Y228627D01*
X200411Y228631D01*
X200426Y228638D01*
X200447Y228649D01*
X200477Y228660D01*
X200509Y228675D01*
X200546Y228689D01*
X200589Y228704D01*
X200637Y228718D01*
X200688Y228729D01*
X200742Y228744D01*
X200800Y228755D01*
X200928Y228773D01*
X200993Y228780D01*
X201110D01*
X201132Y228776D01*
D02*
G37*
G36*
X204608Y226218D02*
X204262D01*
X202944Y228194D01*
Y226218D01*
X202624D01*
Y228736D01*
X202966D01*
X204288Y226756D01*
Y228736D01*
X204608D01*
Y226218D01*
D02*
G37*
G36*
X206202Y228733D02*
X206275Y228729D01*
X206348Y228722D01*
X206421Y228711D01*
X206483Y228700D01*
X206486D01*
X206493Y228696D01*
X206504D01*
X206519Y228689D01*
X206559Y228678D01*
X206610Y228660D01*
X206668Y228634D01*
X206730Y228602D01*
X206792Y228565D01*
X206850Y228518D01*
X206854Y228514D01*
X206857Y228511D01*
X206868Y228500D01*
X206883Y228489D01*
X206919Y228452D01*
X206963Y228401D01*
X207010Y228340D01*
X207061Y228267D01*
X207109Y228183D01*
X207149Y228088D01*
Y228085D01*
X207152Y228078D01*
X207160Y228063D01*
X207163Y228041D01*
X207174Y228016D01*
X207181Y227987D01*
X207189Y227954D01*
X207200Y227914D01*
X207211Y227874D01*
X207218Y227826D01*
X207236Y227724D01*
X207247Y227612D01*
X207251Y227488D01*
Y227484D01*
Y227477D01*
Y227459D01*
Y227441D01*
X207247Y227415D01*
Y227386D01*
X207243Y227317D01*
X207232Y227237D01*
X207222Y227153D01*
X207203Y227066D01*
X207181Y226978D01*
Y226975D01*
X207178Y226967D01*
X207174Y226956D01*
X207171Y226942D01*
X207156Y226902D01*
X207134Y226851D01*
X207112Y226793D01*
X207083Y226734D01*
X207047Y226673D01*
X207010Y226614D01*
X207007Y226607D01*
X206992Y226589D01*
X206970Y226563D01*
X206941Y226531D01*
X206908Y226494D01*
X206868Y226458D01*
X206828Y226418D01*
X206781Y226385D01*
X206774Y226381D01*
X206759Y226370D01*
X206734Y226356D01*
X206697Y226338D01*
X206654Y226316D01*
X206603Y226298D01*
X206544Y226276D01*
X206479Y226257D01*
X206472D01*
X206461Y226254D01*
X206450Y226250D01*
X206413Y226247D01*
X206362Y226239D01*
X206304Y226232D01*
X206235Y226225D01*
X206159Y226221D01*
X206075Y226218D01*
X205169D01*
Y228736D01*
X206137D01*
X206202Y228733D01*
D02*
G37*
G36*
X204972Y239086D02*
X205019Y239078D01*
X205078Y239067D01*
X205143Y239049D01*
X205209Y239027D01*
X205274Y238998D01*
X205278D01*
X205281Y238995D01*
X205303Y238984D01*
X205336Y238962D01*
X205372Y238936D01*
X205416Y238900D01*
X205460Y238860D01*
X205503Y238813D01*
X205540Y238758D01*
X205543Y238751D01*
X205554Y238733D01*
X205569Y238700D01*
X205587Y238660D01*
X205605Y238612D01*
X205620Y238558D01*
X205631Y238496D01*
X205634Y238434D01*
Y238427D01*
Y238405D01*
X205631Y238376D01*
X205624Y238336D01*
X205613Y238288D01*
X205594Y238237D01*
X205573Y238187D01*
X205543Y238136D01*
X205540Y238128D01*
X205529Y238114D01*
X205507Y238088D01*
X205478Y238059D01*
X205441Y238026D01*
X205398Y237990D01*
X205347Y237957D01*
X205285Y237924D01*
X205289D01*
X205296Y237921D01*
X205307Y237917D01*
X205321Y237913D01*
X205361Y237899D01*
X205412Y237877D01*
X205471Y237848D01*
X205529Y237812D01*
X205584Y237764D01*
X205634Y237710D01*
X205638Y237702D01*
X205653Y237681D01*
X205675Y237644D01*
X205696Y237597D01*
X205718Y237539D01*
X205740Y237469D01*
X205755Y237389D01*
X205758Y237302D01*
Y237298D01*
Y237287D01*
Y237269D01*
X205755Y237247D01*
X205751Y237218D01*
X205744Y237186D01*
X205736Y237149D01*
X205729Y237109D01*
X205700Y237022D01*
X205678Y236974D01*
X205656Y236931D01*
X205627Y236883D01*
X205594Y236836D01*
X205558Y236789D01*
X205514Y236745D01*
X205511Y236741D01*
X205503Y236734D01*
X205489Y236723D01*
X205471Y236709D01*
X205449Y236690D01*
X205420Y236672D01*
X205387Y236650D01*
X205347Y236632D01*
X205307Y236610D01*
X205259Y236589D01*
X205212Y236570D01*
X205158Y236552D01*
X205099Y236538D01*
X205037Y236527D01*
X204976Y236519D01*
X204906Y236516D01*
X204874D01*
X204852Y236519D01*
X204823Y236523D01*
X204790Y236527D01*
X204753Y236534D01*
X204714Y236541D01*
X204626Y236563D01*
X204535Y236599D01*
X204488Y236621D01*
X204444Y236647D01*
X204400Y236680D01*
X204357Y236712D01*
X204353Y236716D01*
X204346Y236723D01*
X204335Y236734D01*
X204324Y236749D01*
X204306Y236767D01*
X204288Y236792D01*
X204266Y236818D01*
X204244Y236851D01*
X204222Y236887D01*
X204200Y236923D01*
X204160Y237011D01*
X204128Y237113D01*
X204117Y237167D01*
X204109Y237226D01*
X204419Y237266D01*
Y237262D01*
X204422Y237255D01*
X204426Y237240D01*
X204430Y237222D01*
X204433Y237200D01*
X204440Y237175D01*
X204459Y237120D01*
X204484Y237054D01*
X204517Y236993D01*
X204553Y236934D01*
X204597Y236883D01*
X204604Y236880D01*
X204619Y236865D01*
X204648Y236847D01*
X204684Y236829D01*
X204728Y236807D01*
X204783Y236789D01*
X204844Y236774D01*
X204910Y236771D01*
X204932D01*
X204946Y236774D01*
X204987Y236778D01*
X205037Y236789D01*
X205096Y236807D01*
X205158Y236832D01*
X205220Y236869D01*
X205278Y236920D01*
X205285Y236927D01*
X205303Y236949D01*
X205325Y236982D01*
X205354Y237025D01*
X205383Y237080D01*
X205405Y237142D01*
X205423Y237215D01*
X205431Y237295D01*
Y237298D01*
Y237306D01*
Y237316D01*
X205427Y237331D01*
X205423Y237371D01*
X205412Y237418D01*
X205398Y237477D01*
X205372Y237535D01*
X205336Y237593D01*
X205289Y237648D01*
X205281Y237655D01*
X205263Y237670D01*
X205234Y237691D01*
X205194Y237717D01*
X205143Y237742D01*
X205081Y237764D01*
X205012Y237779D01*
X204936Y237786D01*
X204903D01*
X204877Y237782D01*
X204844Y237779D01*
X204808Y237772D01*
X204765Y237764D01*
X204717Y237753D01*
X204753Y238026D01*
X204772D01*
X204786Y238023D01*
X204834D01*
X204874Y238030D01*
X204921Y238037D01*
X204976Y238048D01*
X205037Y238066D01*
X205096Y238092D01*
X205158Y238125D01*
X205161D01*
X205165Y238128D01*
X205183Y238143D01*
X205209Y238168D01*
X205238Y238201D01*
X205267Y238248D01*
X205292Y238303D01*
X205311Y238365D01*
X205318Y238401D01*
Y238441D01*
Y238445D01*
Y238449D01*
Y238470D01*
X205311Y238499D01*
X205303Y238540D01*
X205289Y238583D01*
X205270Y238631D01*
X205241Y238678D01*
X205201Y238722D01*
X205198Y238725D01*
X205179Y238740D01*
X205154Y238758D01*
X205121Y238780D01*
X205078Y238798D01*
X205027Y238816D01*
X204968Y238831D01*
X204903Y238834D01*
X204874D01*
X204841Y238827D01*
X204797Y238820D01*
X204750Y238805D01*
X204703Y238787D01*
X204652Y238758D01*
X204604Y238722D01*
X204601Y238718D01*
X204586Y238700D01*
X204564Y238674D01*
X204539Y238638D01*
X204513Y238591D01*
X204488Y238532D01*
X204466Y238463D01*
X204451Y238383D01*
X204142Y238438D01*
Y238441D01*
X204146Y238452D01*
X204149Y238467D01*
X204153Y238489D01*
X204160Y238514D01*
X204171Y238543D01*
X204193Y238612D01*
X204229Y238692D01*
X204273Y238773D01*
X204328Y238849D01*
X204397Y238918D01*
X204400Y238922D01*
X204408Y238925D01*
X204419Y238933D01*
X204433Y238944D01*
X204451Y238958D01*
X204477Y238973D01*
X204502Y238987D01*
X204535Y239005D01*
X204608Y239035D01*
X204692Y239064D01*
X204790Y239082D01*
X204841Y239089D01*
X204932D01*
X204972Y239086D01*
D02*
G37*
G36*
X200666D02*
X200713Y239078D01*
X200771Y239067D01*
X200837Y239049D01*
X200902Y239027D01*
X200968Y238998D01*
X200972D01*
X200975Y238995D01*
X200997Y238984D01*
X201030Y238962D01*
X201066Y238936D01*
X201110Y238900D01*
X201154Y238860D01*
X201197Y238813D01*
X201234Y238758D01*
X201237Y238751D01*
X201248Y238733D01*
X201263Y238700D01*
X201281Y238660D01*
X201299Y238612D01*
X201314Y238558D01*
X201325Y238496D01*
X201328Y238434D01*
Y238427D01*
Y238405D01*
X201325Y238376D01*
X201317Y238336D01*
X201307Y238288D01*
X201288Y238237D01*
X201266Y238187D01*
X201237Y238136D01*
X201234Y238128D01*
X201223Y238114D01*
X201201Y238088D01*
X201172Y238059D01*
X201135Y238026D01*
X201092Y237990D01*
X201041Y237957D01*
X200979Y237924D01*
X200982D01*
X200990Y237921D01*
X201001Y237917D01*
X201015Y237913D01*
X201055Y237899D01*
X201106Y237877D01*
X201165Y237848D01*
X201223Y237812D01*
X201277Y237764D01*
X201328Y237710D01*
X201332Y237702D01*
X201346Y237681D01*
X201368Y237644D01*
X201390Y237597D01*
X201412Y237539D01*
X201434Y237469D01*
X201448Y237389D01*
X201452Y237302D01*
Y237298D01*
Y237287D01*
Y237269D01*
X201448Y237247D01*
X201445Y237218D01*
X201437Y237186D01*
X201430Y237149D01*
X201423Y237109D01*
X201394Y237022D01*
X201372Y236974D01*
X201350Y236931D01*
X201321Y236883D01*
X201288Y236836D01*
X201252Y236789D01*
X201208Y236745D01*
X201204Y236741D01*
X201197Y236734D01*
X201183Y236723D01*
X201165Y236709D01*
X201143Y236690D01*
X201114Y236672D01*
X201081Y236650D01*
X201041Y236632D01*
X201001Y236610D01*
X200953Y236589D01*
X200906Y236570D01*
X200851Y236552D01*
X200793Y236538D01*
X200731Y236527D01*
X200670Y236519D01*
X200600Y236516D01*
X200568D01*
X200546Y236519D01*
X200517Y236523D01*
X200484Y236527D01*
X200447Y236534D01*
X200407Y236541D01*
X200320Y236563D01*
X200229Y236599D01*
X200182Y236621D01*
X200138Y236647D01*
X200094Y236680D01*
X200051Y236712D01*
X200047Y236716D01*
X200040Y236723D01*
X200029Y236734D01*
X200018Y236749D01*
X200000Y236767D01*
X199981Y236792D01*
X199960Y236818D01*
X199938Y236851D01*
X199916Y236887D01*
X199894Y236923D01*
X199854Y237011D01*
X199821Y237113D01*
X199810Y237167D01*
X199803Y237226D01*
X200113Y237266D01*
Y237262D01*
X200116Y237255D01*
X200120Y237240D01*
X200124Y237222D01*
X200127Y237200D01*
X200134Y237175D01*
X200153Y237120D01*
X200178Y237054D01*
X200211Y236993D01*
X200247Y236934D01*
X200291Y236883D01*
X200298Y236880D01*
X200313Y236865D01*
X200342Y236847D01*
X200378Y236829D01*
X200422Y236807D01*
X200477Y236789D01*
X200538Y236774D01*
X200604Y236771D01*
X200626D01*
X200640Y236774D01*
X200680Y236778D01*
X200731Y236789D01*
X200790Y236807D01*
X200851Y236832D01*
X200913Y236869D01*
X200972Y236920D01*
X200979Y236927D01*
X200997Y236949D01*
X201019Y236982D01*
X201048Y237025D01*
X201077Y237080D01*
X201099Y237142D01*
X201117Y237215D01*
X201125Y237295D01*
Y237298D01*
Y237306D01*
Y237316D01*
X201121Y237331D01*
X201117Y237371D01*
X201106Y237418D01*
X201092Y237477D01*
X201066Y237535D01*
X201030Y237593D01*
X200982Y237648D01*
X200975Y237655D01*
X200957Y237670D01*
X200928Y237691D01*
X200888Y237717D01*
X200837Y237742D01*
X200775Y237764D01*
X200706Y237779D01*
X200629Y237786D01*
X200597D01*
X200571Y237782D01*
X200538Y237779D01*
X200502Y237772D01*
X200458Y237764D01*
X200411Y237753D01*
X200447Y238026D01*
X200466D01*
X200480Y238023D01*
X200528D01*
X200568Y238030D01*
X200615Y238037D01*
X200670Y238048D01*
X200731Y238066D01*
X200790Y238092D01*
X200851Y238125D01*
X200855D01*
X200859Y238128D01*
X200877Y238143D01*
X200902Y238168D01*
X200932Y238201D01*
X200961Y238248D01*
X200986Y238303D01*
X201004Y238365D01*
X201012Y238401D01*
Y238441D01*
Y238445D01*
Y238449D01*
Y238470D01*
X201004Y238499D01*
X200997Y238540D01*
X200982Y238583D01*
X200964Y238631D01*
X200935Y238678D01*
X200895Y238722D01*
X200891Y238725D01*
X200873Y238740D01*
X200848Y238758D01*
X200815Y238780D01*
X200771Y238798D01*
X200720Y238816D01*
X200662Y238831D01*
X200597Y238834D01*
X200568D01*
X200535Y238827D01*
X200491Y238820D01*
X200444Y238805D01*
X200396Y238787D01*
X200345Y238758D01*
X200298Y238722D01*
X200295Y238718D01*
X200280Y238700D01*
X200258Y238674D01*
X200233Y238638D01*
X200207Y238591D01*
X200182Y238532D01*
X200160Y238463D01*
X200145Y238383D01*
X199836Y238438D01*
Y238441D01*
X199840Y238452D01*
X199843Y238467D01*
X199847Y238489D01*
X199854Y238514D01*
X199865Y238543D01*
X199887Y238612D01*
X199923Y238692D01*
X199967Y238773D01*
X200022Y238849D01*
X200091Y238918D01*
X200094Y238922D01*
X200102Y238925D01*
X200113Y238933D01*
X200127Y238944D01*
X200145Y238958D01*
X200171Y238973D01*
X200196Y238987D01*
X200229Y239005D01*
X200302Y239035D01*
X200385Y239064D01*
X200484Y239082D01*
X200535Y239089D01*
X200626D01*
X200666Y239086D01*
D02*
G37*
G36*
X202944Y236559D02*
X202599D01*
X201623Y239078D01*
X201987D01*
X202642Y237247D01*
Y237244D01*
X202646Y237236D01*
X202650Y237226D01*
X202657Y237211D01*
X202660Y237189D01*
X202668Y237167D01*
X202686Y237113D01*
X202708Y237051D01*
X202730Y236982D01*
X202773Y236836D01*
Y236840D01*
X202777Y236847D01*
X202781Y236858D01*
X202784Y236872D01*
X202795Y236912D01*
X202813Y236967D01*
X202832Y237029D01*
X202853Y237098D01*
X202879Y237171D01*
X202908Y237247D01*
X203592Y239078D01*
X203931D01*
X202944Y236559D01*
D02*
G37*
G36*
X287395Y40785D02*
X288055Y39862D01*
X287767D01*
X287321Y40490D01*
X287319Y40492D01*
X287314Y40500D01*
X287308Y40510D01*
X287298Y40523D01*
X287275Y40558D01*
X287250Y40597D01*
X287247Y40594D01*
X287240Y40584D01*
X287229Y40569D01*
X287217Y40548D01*
X287189Y40507D01*
X287176Y40490D01*
X287166Y40474D01*
X286719Y39862D01*
X286439D01*
X287120Y40775D01*
X286518Y41627D01*
X286796D01*
X287117Y41173D01*
Y41170D01*
X287122Y41168D01*
X287127Y41160D01*
X287135Y41150D01*
X287150Y41124D01*
X287173Y41094D01*
X287196Y41058D01*
X287219Y41022D01*
X287240Y40989D01*
X287257Y40959D01*
X287260Y40964D01*
X287268Y40974D01*
X287280Y40994D01*
X287298Y41020D01*
X287319Y41048D01*
X287344Y41084D01*
X287370Y41119D01*
X287400Y41158D01*
X287752Y41627D01*
X288007D01*
X287395Y40785D01*
D02*
G37*
G36*
X285682Y41624D02*
X285704D01*
X285758Y41622D01*
X285814Y41614D01*
X285875Y41606D01*
X285931Y41594D01*
X285959Y41586D01*
X285982Y41578D01*
X285985D01*
X285987Y41576D01*
X286003Y41568D01*
X286026Y41558D01*
X286054Y41540D01*
X286084Y41517D01*
X286118Y41486D01*
X286148Y41451D01*
X286179Y41410D01*
Y41407D01*
X286181Y41405D01*
X286192Y41390D01*
X286202Y41364D01*
X286217Y41331D01*
X286230Y41293D01*
X286243Y41247D01*
X286250Y41198D01*
X286253Y41145D01*
Y41142D01*
Y41137D01*
Y41127D01*
X286250Y41114D01*
Y41096D01*
X286248Y41079D01*
X286237Y41035D01*
X286222Y40984D01*
X286202Y40931D01*
X286171Y40877D01*
X286151Y40852D01*
X286130Y40826D01*
X286128Y40824D01*
X286125Y40821D01*
X286118Y40813D01*
X286107Y40806D01*
X286095Y40795D01*
X286079Y40785D01*
X286059Y40773D01*
X286038Y40757D01*
X286013Y40745D01*
X285985Y40732D01*
X285954Y40716D01*
X285921Y40704D01*
X285883Y40694D01*
X285845Y40681D01*
X285801Y40673D01*
X285755Y40665D01*
X285760Y40663D01*
X285771Y40658D01*
X285786Y40648D01*
X285806Y40637D01*
X285852Y40609D01*
X285875Y40591D01*
X285896Y40576D01*
X285901Y40571D01*
X285913Y40558D01*
X285934Y40538D01*
X285959Y40512D01*
X285987Y40477D01*
X286021Y40439D01*
X286054Y40393D01*
X286089Y40342D01*
X286393Y39862D01*
X286102D01*
X285870Y40229D01*
Y40232D01*
X285865Y40237D01*
X285860Y40245D01*
X285852Y40255D01*
X285835Y40283D01*
X285811Y40319D01*
X285784Y40357D01*
X285755Y40398D01*
X285727Y40436D01*
X285702Y40472D01*
X285699Y40474D01*
X285692Y40484D01*
X285679Y40500D01*
X285661Y40518D01*
X285623Y40556D01*
X285602Y40574D01*
X285582Y40589D01*
X285579Y40591D01*
X285574Y40594D01*
X285564Y40599D01*
X285549Y40607D01*
X285534Y40614D01*
X285516Y40622D01*
X285475Y40635D01*
X285472D01*
X285467Y40637D01*
X285457D01*
X285444Y40640D01*
X285426Y40642D01*
X285406D01*
X285378Y40645D01*
X285077D01*
Y39862D01*
X284842D01*
Y41627D01*
X285661D01*
X285682Y41624D01*
D02*
G37*
G36*
X285077Y50162D02*
X284842D01*
Y51926D01*
X285077D01*
Y50162D01*
D02*
G37*
G36*
X287946Y51932D02*
X287979Y51926D01*
X288017Y51919D01*
X288058Y51909D01*
X288101Y51896D01*
X288142Y51875D01*
X288145D01*
X288147Y51873D01*
X288160Y51865D01*
X288180Y51853D01*
X288206Y51835D01*
X288234Y51809D01*
X288265Y51781D01*
X288293Y51748D01*
X288321Y51710D01*
X288323Y51705D01*
X288334Y51692D01*
X288344Y51669D01*
X288362Y51636D01*
X288377Y51597D01*
X288397Y51554D01*
X288415Y51503D01*
X288430Y51447D01*
Y51445D01*
X288433Y51439D01*
X288436Y51432D01*
X288438Y51419D01*
X288441Y51404D01*
X288443Y51386D01*
X288448Y51363D01*
X288451Y51337D01*
X288456Y51309D01*
X288458Y51279D01*
X288461Y51243D01*
X288466Y51207D01*
X288469Y51166D01*
Y51126D01*
X288471Y51080D01*
Y51031D01*
Y51029D01*
Y51019D01*
Y51001D01*
Y50980D01*
X288469Y50952D01*
Y50922D01*
X288466Y50889D01*
X288463Y50853D01*
X288456Y50771D01*
X288443Y50687D01*
X288428Y50605D01*
X288418Y50567D01*
X288405Y50529D01*
Y50526D01*
X288402Y50521D01*
X288397Y50511D01*
X288392Y50498D01*
X288387Y50481D01*
X288377Y50463D01*
X288356Y50419D01*
X288331Y50374D01*
X288298Y50323D01*
X288260Y50277D01*
X288214Y50233D01*
X288211D01*
X288209Y50228D01*
X288201Y50223D01*
X288191Y50218D01*
X288178Y50210D01*
X288165Y50200D01*
X288127Y50182D01*
X288081Y50164D01*
X288028Y50147D01*
X287964Y50136D01*
X287895Y50131D01*
X287869D01*
X287852Y50134D01*
X287831Y50136D01*
X287806Y50141D01*
X287778Y50147D01*
X287747Y50154D01*
X287716Y50164D01*
X287683Y50175D01*
X287650Y50190D01*
X287617Y50208D01*
X287584Y50228D01*
X287551Y50254D01*
X287520Y50282D01*
X287492Y50312D01*
X287489Y50315D01*
X287484Y50323D01*
X287477Y50335D01*
X287464Y50356D01*
X287451Y50379D01*
X287438Y50409D01*
X287421Y50445D01*
X287405Y50486D01*
X287390Y50532D01*
X287375Y50585D01*
X287359Y50644D01*
X287347Y50710D01*
X287334Y50782D01*
X287326Y50858D01*
X287321Y50942D01*
X287319Y51031D01*
Y51034D01*
Y51044D01*
Y51062D01*
Y51082D01*
X287321Y51110D01*
Y51141D01*
X287324Y51174D01*
X287326Y51212D01*
X287334Y51292D01*
X287347Y51376D01*
X287362Y51460D01*
X287372Y51498D01*
X287382Y51536D01*
Y51539D01*
X287385Y51544D01*
X287390Y51554D01*
X287395Y51567D01*
X287400Y51585D01*
X287410Y51603D01*
X287431Y51646D01*
X287456Y51692D01*
X287489Y51740D01*
X287528Y51789D01*
X287574Y51829D01*
X287576D01*
X287579Y51835D01*
X287586Y51840D01*
X287597Y51845D01*
X287609Y51855D01*
X287625Y51863D01*
X287663Y51883D01*
X287709Y51901D01*
X287762Y51919D01*
X287826Y51929D01*
X287895Y51934D01*
X287918D01*
X287946Y51932D01*
D02*
G37*
G36*
X286304Y51955D02*
X286327D01*
X286350Y51952D01*
X286380Y51947D01*
X286411Y51942D01*
X286477Y51929D01*
X286554Y51909D01*
X286628Y51878D01*
X286666Y51860D01*
X286704Y51840D01*
X286707Y51837D01*
X286712Y51835D01*
X286722Y51827D01*
X286737Y51819D01*
X286753Y51807D01*
X286773Y51791D01*
X286816Y51756D01*
X286862Y51710D01*
X286913Y51654D01*
X286962Y51587D01*
X287002Y51513D01*
Y51511D01*
X287007Y51503D01*
X287013Y51493D01*
X287018Y51478D01*
X287028Y51457D01*
X287035Y51434D01*
X287046Y51406D01*
X287056Y51376D01*
X287064Y51342D01*
X287074Y51307D01*
X287084Y51266D01*
X287092Y51225D01*
X287102Y51136D01*
X287107Y51039D01*
Y51037D01*
Y51026D01*
Y51013D01*
X287104Y50993D01*
Y50970D01*
X287102Y50942D01*
X287097Y50911D01*
X287094Y50878D01*
X287081Y50804D01*
X287061Y50723D01*
X287033Y50641D01*
X287018Y50600D01*
X286997Y50560D01*
Y50557D01*
X286992Y50549D01*
X286987Y50539D01*
X286977Y50524D01*
X286967Y50506D01*
X286954Y50488D01*
X286918Y50440D01*
X286875Y50389D01*
X286824Y50335D01*
X286763Y50284D01*
X286691Y50238D01*
X286689D01*
X286684Y50233D01*
X286671Y50228D01*
X286656Y50221D01*
X286638Y50213D01*
X286617Y50205D01*
X286592Y50195D01*
X286564Y50185D01*
X286533Y50175D01*
X286500Y50164D01*
X286426Y50149D01*
X286347Y50136D01*
X286263Y50131D01*
X286237D01*
X286222Y50134D01*
X286199D01*
X286174Y50139D01*
X286146Y50141D01*
X286112Y50147D01*
X286044Y50162D01*
X285970Y50182D01*
X285893Y50213D01*
X285855Y50231D01*
X285817Y50251D01*
X285814Y50254D01*
X285809Y50256D01*
X285799Y50264D01*
X285784Y50274D01*
X285768Y50284D01*
X285750Y50300D01*
X285707Y50338D01*
X285659Y50384D01*
X285608Y50440D01*
X285562Y50503D01*
X285518Y50577D01*
Y50580D01*
X285513Y50588D01*
X285508Y50598D01*
X285503Y50613D01*
X285495Y50634D01*
X285488Y50656D01*
X285477Y50682D01*
X285470Y50710D01*
X285460Y50743D01*
X285449Y50776D01*
X285434Y50853D01*
X285424Y50932D01*
X285419Y51019D01*
Y51021D01*
Y51024D01*
Y51039D01*
X285421Y51062D01*
Y51093D01*
X285426Y51128D01*
X285432Y51172D01*
X285439Y51220D01*
X285449Y51271D01*
X285460Y51325D01*
X285475Y51381D01*
X285495Y51437D01*
X285518Y51495D01*
X285544Y51552D01*
X285577Y51608D01*
X285613Y51659D01*
X285653Y51707D01*
X285656Y51710D01*
X285664Y51717D01*
X285679Y51730D01*
X285697Y51745D01*
X285720Y51766D01*
X285748Y51786D01*
X285781Y51809D01*
X285819Y51832D01*
X285860Y51855D01*
X285906Y51878D01*
X285957Y51898D01*
X286010Y51919D01*
X286069Y51934D01*
X286130Y51947D01*
X286194Y51955D01*
X286263Y51957D01*
X286286D01*
X286304Y51955D01*
D02*
G37*
G36*
X287946Y62200D02*
X287966Y62198D01*
X287992Y62195D01*
X288020Y62190D01*
X288048Y62185D01*
X288114Y62167D01*
X288180Y62142D01*
X288214Y62127D01*
X288247Y62109D01*
X288277Y62086D01*
X288305Y62060D01*
X288308Y62058D01*
X288313Y62055D01*
X288318Y62045D01*
X288328Y62035D01*
X288341Y62022D01*
X288354Y62004D01*
X288367Y61986D01*
X288382Y61963D01*
X288407Y61915D01*
X288433Y61854D01*
X288443Y61823D01*
X288448Y61787D01*
X288453Y61752D01*
X288456Y61713D01*
Y61708D01*
Y61696D01*
X288453Y61675D01*
X288451Y61647D01*
X288446Y61617D01*
X288436Y61581D01*
X288425Y61543D01*
X288410Y61504D01*
X288407Y61499D01*
X288402Y61487D01*
X288392Y61466D01*
X288377Y61438D01*
X288356Y61408D01*
X288331Y61369D01*
X288300Y61331D01*
X288265Y61288D01*
X288260Y61282D01*
X288247Y61267D01*
X288234Y61255D01*
X288221Y61242D01*
X288206Y61226D01*
X288186Y61206D01*
X288165Y61186D01*
X288140Y61163D01*
X288114Y61137D01*
X288084Y61109D01*
X288050Y61081D01*
X288015Y61048D01*
X287974Y61015D01*
X287933Y60979D01*
X287931Y60976D01*
X287926Y60971D01*
X287915Y60964D01*
X287902Y60954D01*
X287887Y60938D01*
X287869Y60923D01*
X287829Y60890D01*
X287785Y60852D01*
X287744Y60813D01*
X287709Y60780D01*
X287693Y60767D01*
X287681Y60755D01*
X287678Y60752D01*
X287670Y60745D01*
X287660Y60734D01*
X287648Y60719D01*
X287635Y60701D01*
X287619Y60683D01*
X287589Y60640D01*
X288458D01*
Y60431D01*
X287288D01*
Y60433D01*
Y60444D01*
Y60459D01*
X287291Y60479D01*
X287293Y60502D01*
X287298Y60528D01*
X287303Y60553D01*
X287314Y60581D01*
Y60584D01*
X287316Y60586D01*
X287321Y60602D01*
X287331Y60625D01*
X287347Y60655D01*
X287367Y60691D01*
X287392Y60732D01*
X287421Y60773D01*
X287456Y60816D01*
Y60818D01*
X287461Y60821D01*
X287474Y60836D01*
X287497Y60859D01*
X287530Y60892D01*
X287568Y60931D01*
X287617Y60976D01*
X287676Y61027D01*
X287739Y61081D01*
X287742Y61084D01*
X287752Y61091D01*
X287767Y61104D01*
X287785Y61119D01*
X287808Y61140D01*
X287836Y61163D01*
X287864Y61188D01*
X287897Y61216D01*
X287961Y61277D01*
X288025Y61339D01*
X288055Y61369D01*
X288084Y61400D01*
X288109Y61428D01*
X288129Y61456D01*
Y61458D01*
X288135Y61461D01*
X288140Y61469D01*
X288145Y61479D01*
X288163Y61507D01*
X288183Y61540D01*
X288201Y61581D01*
X288219Y61624D01*
X288229Y61673D01*
X288234Y61719D01*
Y61721D01*
Y61724D01*
X288231Y61739D01*
X288229Y61765D01*
X288221Y61792D01*
X288211Y61828D01*
X288193Y61864D01*
X288170Y61900D01*
X288140Y61935D01*
X288135Y61940D01*
X288122Y61951D01*
X288104Y61963D01*
X288076Y61981D01*
X288040Y61997D01*
X287999Y62012D01*
X287951Y62022D01*
X287897Y62025D01*
X287882D01*
X287872Y62022D01*
X287841Y62019D01*
X287806Y62012D01*
X287767Y62002D01*
X287724Y61984D01*
X287683Y61961D01*
X287645Y61930D01*
X287640Y61925D01*
X287630Y61912D01*
X287614Y61892D01*
X287599Y61861D01*
X287581Y61826D01*
X287566Y61780D01*
X287556Y61729D01*
X287551Y61670D01*
X287329Y61693D01*
Y61696D01*
X287331Y61703D01*
Y61716D01*
X287334Y61734D01*
X287339Y61754D01*
X287344Y61777D01*
X287352Y61805D01*
X287359Y61833D01*
X287380Y61895D01*
X287410Y61956D01*
X287428Y61986D01*
X287451Y62017D01*
X287474Y62045D01*
X287500Y62071D01*
X287502Y62073D01*
X287507Y62076D01*
X287515Y62083D01*
X287528Y62091D01*
X287543Y62101D01*
X287561Y62111D01*
X287581Y62124D01*
X287607Y62137D01*
X287635Y62150D01*
X287665Y62162D01*
X287699Y62173D01*
X287734Y62183D01*
X287772Y62190D01*
X287813Y62198D01*
X287857Y62200D01*
X287902Y62203D01*
X287928D01*
X287946Y62200D01*
D02*
G37*
G36*
X285077Y60431D02*
X284842D01*
Y62195D01*
X285077D01*
Y60431D01*
D02*
G37*
G36*
X286304Y62224D02*
X286327D01*
X286350Y62221D01*
X286380Y62216D01*
X286411Y62211D01*
X286477Y62198D01*
X286554Y62178D01*
X286628Y62147D01*
X286666Y62129D01*
X286704Y62109D01*
X286707Y62106D01*
X286712Y62104D01*
X286722Y62096D01*
X286737Y62088D01*
X286753Y62076D01*
X286773Y62060D01*
X286816Y62025D01*
X286862Y61979D01*
X286913Y61923D01*
X286962Y61856D01*
X287002Y61782D01*
Y61780D01*
X287007Y61772D01*
X287013Y61762D01*
X287018Y61747D01*
X287028Y61726D01*
X287035Y61703D01*
X287046Y61675D01*
X287056Y61645D01*
X287064Y61611D01*
X287074Y61576D01*
X287084Y61535D01*
X287092Y61494D01*
X287102Y61405D01*
X287107Y61308D01*
Y61305D01*
Y61295D01*
Y61282D01*
X287104Y61262D01*
Y61239D01*
X287102Y61211D01*
X287097Y61181D01*
X287094Y61147D01*
X287081Y61073D01*
X287061Y60992D01*
X287033Y60910D01*
X287018Y60869D01*
X286997Y60829D01*
Y60826D01*
X286992Y60818D01*
X286987Y60808D01*
X286977Y60793D01*
X286967Y60775D01*
X286954Y60757D01*
X286918Y60709D01*
X286875Y60658D01*
X286824Y60604D01*
X286763Y60553D01*
X286691Y60507D01*
X286689D01*
X286684Y60502D01*
X286671Y60497D01*
X286656Y60489D01*
X286638Y60482D01*
X286617Y60474D01*
X286592Y60464D01*
X286564Y60454D01*
X286533Y60444D01*
X286500Y60433D01*
X286426Y60418D01*
X286347Y60405D01*
X286263Y60400D01*
X286237D01*
X286222Y60403D01*
X286199D01*
X286174Y60408D01*
X286146Y60410D01*
X286112Y60416D01*
X286044Y60431D01*
X285970Y60451D01*
X285893Y60482D01*
X285855Y60500D01*
X285817Y60520D01*
X285814Y60523D01*
X285809Y60525D01*
X285799Y60533D01*
X285784Y60543D01*
X285768Y60553D01*
X285750Y60568D01*
X285707Y60607D01*
X285659Y60653D01*
X285608Y60709D01*
X285562Y60773D01*
X285518Y60847D01*
Y60849D01*
X285513Y60857D01*
X285508Y60867D01*
X285503Y60882D01*
X285495Y60903D01*
X285488Y60926D01*
X285477Y60951D01*
X285470Y60979D01*
X285460Y61012D01*
X285449Y61045D01*
X285434Y61122D01*
X285424Y61201D01*
X285419Y61288D01*
Y61290D01*
Y61293D01*
Y61308D01*
X285421Y61331D01*
Y61362D01*
X285426Y61397D01*
X285432Y61441D01*
X285439Y61489D01*
X285449Y61540D01*
X285460Y61594D01*
X285475Y61650D01*
X285495Y61706D01*
X285518Y61765D01*
X285544Y61821D01*
X285577Y61877D01*
X285613Y61928D01*
X285653Y61976D01*
X285656Y61979D01*
X285664Y61986D01*
X285679Y61999D01*
X285697Y62014D01*
X285720Y62035D01*
X285748Y62055D01*
X285781Y62078D01*
X285819Y62101D01*
X285860Y62124D01*
X285906Y62147D01*
X285957Y62167D01*
X286010Y62188D01*
X286069Y62203D01*
X286130Y62216D01*
X286194Y62224D01*
X286263Y62226D01*
X286286D01*
X286304Y62224D01*
D02*
G37*
G36*
X285773Y72492D02*
X285794D01*
X285842Y72487D01*
X285896Y72480D01*
X285952Y72467D01*
X286013Y72452D01*
X286072Y72431D01*
X286074D01*
X286079Y72429D01*
X286087Y72426D01*
X286097Y72421D01*
X286125Y72406D01*
X286161Y72388D01*
X286199Y72363D01*
X286240Y72332D01*
X286278Y72299D01*
X286314Y72258D01*
X286319Y72253D01*
X286329Y72237D01*
X286345Y72215D01*
X286365Y72181D01*
X286385Y72141D01*
X286408Y72090D01*
X286431Y72034D01*
X286449Y71970D01*
X286237Y71914D01*
Y71916D01*
X286235Y71919D01*
X286232Y71926D01*
X286230Y71937D01*
X286222Y71960D01*
X286212Y71990D01*
X286197Y72026D01*
X286179Y72059D01*
X286161Y72095D01*
X286138Y72125D01*
X286135Y72128D01*
X286128Y72138D01*
X286112Y72151D01*
X286095Y72169D01*
X286072Y72189D01*
X286041Y72210D01*
X286008Y72230D01*
X285970Y72248D01*
X285964Y72250D01*
X285952Y72255D01*
X285929Y72263D01*
X285898Y72273D01*
X285862Y72281D01*
X285822Y72289D01*
X285776Y72294D01*
X285727Y72296D01*
X285699D01*
X285687Y72294D01*
X285671D01*
X285633Y72291D01*
X285590Y72283D01*
X285541Y72276D01*
X285495Y72263D01*
X285449Y72245D01*
X285444Y72243D01*
X285429Y72237D01*
X285409Y72225D01*
X285383Y72212D01*
X285352Y72192D01*
X285319Y72171D01*
X285289Y72146D01*
X285261Y72118D01*
X285258Y72115D01*
X285248Y72105D01*
X285235Y72087D01*
X285220Y72067D01*
X285202Y72041D01*
X285184Y72011D01*
X285166Y71977D01*
X285149Y71942D01*
Y71939D01*
X285146Y71934D01*
X285143Y71926D01*
X285138Y71914D01*
X285133Y71898D01*
X285128Y71881D01*
X285121Y71860D01*
X285115Y71837D01*
X285103Y71784D01*
X285092Y71722D01*
X285085Y71659D01*
X285082Y71587D01*
Y71585D01*
Y71577D01*
Y71564D01*
X285085Y71549D01*
Y71529D01*
X285087Y71503D01*
X285090Y71478D01*
X285092Y71450D01*
X285103Y71386D01*
X285115Y71320D01*
X285136Y71253D01*
X285161Y71189D01*
Y71187D01*
X285166Y71182D01*
X285169Y71174D01*
X285177Y71164D01*
X285194Y71136D01*
X285223Y71100D01*
X285256Y71062D01*
X285296Y71024D01*
X285345Y70988D01*
X285398Y70955D01*
X285401D01*
X285406Y70952D01*
X285414Y70947D01*
X285426Y70942D01*
X285439Y70937D01*
X285457Y70932D01*
X285498Y70917D01*
X285549Y70904D01*
X285605Y70891D01*
X285666Y70881D01*
X285730Y70878D01*
X285755D01*
X285771Y70881D01*
X285786D01*
X285824Y70886D01*
X285870Y70891D01*
X285919Y70901D01*
X285972Y70917D01*
X286026Y70934D01*
X286028D01*
X286033Y70937D01*
X286038Y70940D01*
X286049Y70945D01*
X286077Y70957D01*
X286107Y70973D01*
X286143Y70991D01*
X286181Y71011D01*
X286217Y71034D01*
X286248Y71059D01*
Y71391D01*
X285727D01*
Y71600D01*
X286477D01*
Y70945D01*
X286474Y70942D01*
X286469Y70940D01*
X286459Y70932D01*
X286446Y70922D01*
X286431Y70912D01*
X286413Y70899D01*
X286390Y70884D01*
X286367Y70868D01*
X286314Y70835D01*
X286253Y70799D01*
X286189Y70766D01*
X286120Y70738D01*
X286118D01*
X286112Y70736D01*
X286102Y70733D01*
X286089Y70728D01*
X286072Y70723D01*
X286051Y70715D01*
X286028Y70710D01*
X286005Y70705D01*
X285949Y70692D01*
X285886Y70679D01*
X285817Y70672D01*
X285745Y70669D01*
X285720D01*
X285702Y70672D01*
X285679D01*
X285651Y70674D01*
X285620Y70679D01*
X285587Y70682D01*
X285513Y70697D01*
X285434Y70715D01*
X285352Y70743D01*
X285312Y70758D01*
X285271Y70779D01*
X285268Y70781D01*
X285261Y70784D01*
X285250Y70792D01*
X285235Y70799D01*
X285217Y70812D01*
X285199Y70825D01*
X285151Y70860D01*
X285100Y70906D01*
X285047Y70963D01*
X284996Y71026D01*
X284950Y71100D01*
Y71103D01*
X284945Y71110D01*
X284939Y71121D01*
X284932Y71139D01*
X284924Y71156D01*
X284916Y71182D01*
X284906Y71207D01*
X284896Y71238D01*
X284886Y71271D01*
X284876Y71309D01*
X284868Y71348D01*
X284860Y71388D01*
X284848Y71478D01*
X284842Y71572D01*
Y71574D01*
Y71585D01*
Y71597D01*
X284845Y71615D01*
Y71638D01*
X284848Y71666D01*
X284853Y71694D01*
X284855Y71728D01*
X284863Y71763D01*
X284868Y71802D01*
X284888Y71883D01*
X284914Y71967D01*
X284950Y72051D01*
X284952Y72054D01*
X284955Y72062D01*
X284960Y72072D01*
X284970Y72087D01*
X284980Y72107D01*
X284993Y72128D01*
X285029Y72176D01*
X285072Y72232D01*
X285126Y72286D01*
X285187Y72339D01*
X285223Y72363D01*
X285258Y72385D01*
X285261Y72388D01*
X285268Y72391D01*
X285279Y72396D01*
X285294Y72403D01*
X285314Y72411D01*
X285337Y72421D01*
X285363Y72431D01*
X285393Y72442D01*
X285426Y72452D01*
X285462Y72459D01*
X285500Y72470D01*
X285541Y72477D01*
X285630Y72490D01*
X285676Y72495D01*
X285758D01*
X285773Y72492D01*
D02*
G37*
G36*
X288209Y70700D02*
X287966D01*
X287043Y72084D01*
Y70700D01*
X286819D01*
Y72465D01*
X287058D01*
X287984Y71077D01*
Y72465D01*
X288209D01*
Y70700D01*
D02*
G37*
G36*
X289325Y72462D02*
X289376Y72459D01*
X289427Y72454D01*
X289478Y72447D01*
X289522Y72439D01*
X289524D01*
X289529Y72436D01*
X289537D01*
X289547Y72431D01*
X289575Y72424D01*
X289611Y72411D01*
X289652Y72393D01*
X289695Y72370D01*
X289738Y72345D01*
X289779Y72312D01*
X289782Y72309D01*
X289784Y72306D01*
X289792Y72299D01*
X289802Y72291D01*
X289828Y72266D01*
X289858Y72230D01*
X289892Y72186D01*
X289927Y72136D01*
X289960Y72077D01*
X289988Y72011D01*
Y72008D01*
X289991Y72003D01*
X289996Y71993D01*
X289999Y71977D01*
X290006Y71960D01*
X290011Y71939D01*
X290017Y71916D01*
X290024Y71888D01*
X290032Y71860D01*
X290037Y71827D01*
X290050Y71756D01*
X290057Y71676D01*
X290060Y71590D01*
Y71587D01*
Y71582D01*
Y71569D01*
Y71557D01*
X290057Y71539D01*
Y71518D01*
X290055Y71470D01*
X290047Y71414D01*
X290039Y71355D01*
X290027Y71294D01*
X290011Y71233D01*
Y71230D01*
X290009Y71225D01*
X290006Y71218D01*
X290004Y71207D01*
X289994Y71179D01*
X289978Y71144D01*
X289963Y71103D01*
X289943Y71062D01*
X289917Y71019D01*
X289892Y70978D01*
X289889Y70973D01*
X289879Y70960D01*
X289863Y70942D01*
X289843Y70919D01*
X289820Y70894D01*
X289792Y70868D01*
X289764Y70840D01*
X289731Y70817D01*
X289726Y70815D01*
X289716Y70807D01*
X289698Y70797D01*
X289672Y70784D01*
X289642Y70769D01*
X289606Y70756D01*
X289565Y70741D01*
X289519Y70728D01*
X289514D01*
X289507Y70725D01*
X289499Y70723D01*
X289473Y70720D01*
X289438Y70715D01*
X289397Y70710D01*
X289348Y70705D01*
X289295Y70702D01*
X289236Y70700D01*
X288601D01*
Y72465D01*
X289280D01*
X289325Y72462D01*
D02*
G37*
%LPC*%
G36*
X58422Y239685D02*
X58415D01*
X58400D01*
X58371Y239681D01*
X58338Y239674D01*
X58302Y239667D01*
X58262Y239652D01*
X58222Y239634D01*
X58182Y239608D01*
X58178Y239605D01*
X58163Y239594D01*
X58145Y239579D01*
X58123Y239557D01*
X58098Y239528D01*
X58073Y239492D01*
X58051Y239452D01*
X58032Y239404D01*
X58029Y239397D01*
X58025Y239383D01*
X58018Y239350D01*
X58011Y239310D01*
X58003Y239259D01*
X57996Y239197D01*
X57989Y239121D01*
Y238458D01*
X58855D01*
Y239175D01*
X58851Y239252D01*
X58848Y239284D01*
X58844Y239314D01*
Y239317D01*
X58841Y239332D01*
X58837Y239353D01*
X58830Y239379D01*
X58808Y239441D01*
X58779Y239503D01*
X58775Y239506D01*
X58768Y239517D01*
X58757Y239532D01*
X58742Y239550D01*
X58720Y239568D01*
X58698Y239594D01*
X58669Y239612D01*
X58637Y239634D01*
X58633Y239637D01*
X58622Y239641D01*
X58600Y239648D01*
X58575Y239659D01*
X58546Y239670D01*
X58509Y239677D01*
X58466Y239681D01*
X58422Y239685D01*
D02*
G37*
G36*
X57319Y239576D02*
X57312D01*
X57297D01*
X57275Y239572D01*
X57246Y239568D01*
X57210Y239561D01*
X57173Y239550D01*
X57137Y239535D01*
X57101Y239514D01*
X57097Y239510D01*
X57086Y239503D01*
X57068Y239488D01*
X57050Y239470D01*
X57028Y239444D01*
X57006Y239415D01*
X56984Y239379D01*
X56969Y239339D01*
Y239335D01*
X56962Y239317D01*
X56959Y239292D01*
X56951Y239252D01*
X56944Y239197D01*
X56940Y239135D01*
X56933Y239055D01*
Y238458D01*
X57690D01*
Y239077D01*
X57687Y239124D01*
X57683Y239175D01*
X57679Y239226D01*
X57672Y239277D01*
X57665Y239317D01*
X57661Y239324D01*
X57657Y239339D01*
X57647Y239361D01*
X57632Y239390D01*
X57617Y239419D01*
X57596Y239452D01*
X57566Y239485D01*
X57537Y239510D01*
X57534Y239514D01*
X57523Y239521D01*
X57501Y239532D01*
X57476Y239543D01*
X57446Y239554D01*
X57410Y239565D01*
X57366Y239572D01*
X57319Y239576D01*
D02*
G37*
G36*
X112448Y32142D02*
X111851D01*
Y31385D01*
X112469D01*
X112517Y31388D01*
X112568Y31392D01*
X112619Y31396D01*
X112670Y31403D01*
X112710Y31410D01*
X112717Y31414D01*
X112732Y31417D01*
X112753Y31428D01*
X112783Y31443D01*
X112812Y31457D01*
X112844Y31479D01*
X112877Y31508D01*
X112903Y31537D01*
X112906Y31541D01*
X112914Y31552D01*
X112924Y31574D01*
X112935Y31599D01*
X112946Y31628D01*
X112957Y31665D01*
X112964Y31708D01*
X112968Y31756D01*
Y31763D01*
Y31778D01*
X112964Y31800D01*
X112961Y31829D01*
X112953Y31865D01*
X112943Y31901D01*
X112928Y31938D01*
X112906Y31974D01*
X112903Y31978D01*
X112895Y31989D01*
X112881Y32007D01*
X112863Y32025D01*
X112837Y32047D01*
X112808Y32069D01*
X112772Y32091D01*
X112732Y32105D01*
X112728D01*
X112710Y32113D01*
X112684Y32116D01*
X112644Y32124D01*
X112590Y32131D01*
X112528Y32134D01*
X112448Y32142D01*
D02*
G37*
G36*
X112513Y31086D02*
X111851D01*
Y30220D01*
X112568D01*
X112644Y30223D01*
X112677Y30227D01*
X112706Y30231D01*
X112710D01*
X112724Y30234D01*
X112746Y30238D01*
X112772Y30245D01*
X112833Y30267D01*
X112895Y30296D01*
X112899Y30300D01*
X112910Y30307D01*
X112924Y30318D01*
X112943Y30333D01*
X112961Y30354D01*
X112986Y30376D01*
X113005Y30405D01*
X113026Y30438D01*
X113030Y30442D01*
X113034Y30453D01*
X113041Y30474D01*
X113052Y30500D01*
X113063Y30529D01*
X113070Y30566D01*
X113074Y30609D01*
X113077Y30653D01*
Y30660D01*
Y30675D01*
X113074Y30704D01*
X113066Y30737D01*
X113059Y30773D01*
X113045Y30813D01*
X113026Y30853D01*
X113001Y30893D01*
X112997Y30897D01*
X112986Y30911D01*
X112972Y30929D01*
X112950Y30951D01*
X112921Y30977D01*
X112884Y31002D01*
X112844Y31024D01*
X112797Y31042D01*
X112790Y31046D01*
X112775Y31050D01*
X112742Y31057D01*
X112702Y31064D01*
X112651Y31071D01*
X112590Y31079D01*
X112513Y31086D01*
D02*
G37*
G36*
X117718Y32196D02*
X117685D01*
X117660Y32193D01*
X117627Y32189D01*
X117595Y32182D01*
X117554Y32174D01*
X117511Y32167D01*
X117416Y32138D01*
X117365Y32116D01*
X117314Y32094D01*
X117260Y32065D01*
X117209Y32032D01*
X117158Y31996D01*
X117110Y31952D01*
X117107Y31949D01*
X117099Y31942D01*
X117089Y31927D01*
X117070Y31905D01*
X117052Y31880D01*
X117030Y31847D01*
X117008Y31807D01*
X116983Y31760D01*
X116961Y31708D01*
X116936Y31647D01*
X116914Y31581D01*
X116896Y31508D01*
X116877Y31428D01*
X116867Y31337D01*
X116859Y31243D01*
X116856Y31141D01*
Y31137D01*
Y31122D01*
Y31097D01*
X116859Y31064D01*
X116863Y31028D01*
X116870Y30984D01*
X116877Y30933D01*
X116885Y30882D01*
X116914Y30766D01*
X116936Y30707D01*
X116957Y30646D01*
X116987Y30587D01*
X117019Y30529D01*
X117056Y30474D01*
X117099Y30424D01*
X117103Y30420D01*
X117110Y30413D01*
X117125Y30398D01*
X117143Y30384D01*
X117169Y30362D01*
X117198Y30340D01*
X117230Y30318D01*
X117267Y30292D01*
X117311Y30267D01*
X117358Y30245D01*
X117409Y30223D01*
X117464Y30202D01*
X117522Y30187D01*
X117580Y30172D01*
X117646Y30165D01*
X117715Y30161D01*
X117733D01*
X117751Y30165D01*
X117777D01*
X117809Y30169D01*
X117846Y30176D01*
X117889Y30183D01*
X117933Y30194D01*
X117984Y30209D01*
X118031Y30227D01*
X118086Y30245D01*
X118137Y30271D01*
X118188Y30303D01*
X118239Y30336D01*
X118290Y30376D01*
X118337Y30424D01*
X118341Y30427D01*
X118348Y30435D01*
X118359Y30453D01*
X118377Y30474D01*
X118395Y30500D01*
X118414Y30533D01*
X118435Y30573D01*
X118461Y30617D01*
X118483Y30667D01*
X118505Y30726D01*
X118523Y30788D01*
X118545Y30853D01*
X118559Y30926D01*
X118570Y31006D01*
X118577Y31090D01*
X118581Y31177D01*
Y31181D01*
Y31192D01*
Y31206D01*
Y31228D01*
X118577Y31253D01*
Y31286D01*
X118574Y31319D01*
X118566Y31359D01*
X118555Y31443D01*
X118537Y31530D01*
X118512Y31625D01*
X118475Y31712D01*
Y31716D01*
X118472Y31723D01*
X118465Y31734D01*
X118457Y31749D01*
X118432Y31792D01*
X118399Y31843D01*
X118355Y31901D01*
X118301Y31960D01*
X118239Y32018D01*
X118170Y32069D01*
X118166D01*
X118162Y32076D01*
X118151Y32080D01*
X118133Y32091D01*
X118115Y32098D01*
X118093Y32109D01*
X118039Y32134D01*
X117973Y32156D01*
X117897Y32178D01*
X117809Y32193D01*
X117718Y32196D01*
D02*
G37*
G36*
X114981D02*
X114948D01*
X114923Y32193D01*
X114890Y32189D01*
X114857Y32182D01*
X114817Y32174D01*
X114774Y32167D01*
X114679Y32138D01*
X114628Y32116D01*
X114577Y32094D01*
X114522Y32065D01*
X114471Y32032D01*
X114420Y31996D01*
X114373Y31952D01*
X114369Y31949D01*
X114362Y31942D01*
X114351Y31927D01*
X114333Y31905D01*
X114315Y31880D01*
X114293Y31847D01*
X114271Y31807D01*
X114246Y31760D01*
X114224Y31708D01*
X114198Y31647D01*
X114177Y31581D01*
X114158Y31508D01*
X114140Y31428D01*
X114129Y31337D01*
X114122Y31243D01*
X114118Y31141D01*
Y31137D01*
Y31122D01*
Y31097D01*
X114122Y31064D01*
X114126Y31028D01*
X114133Y30984D01*
X114140Y30933D01*
X114147Y30882D01*
X114177Y30766D01*
X114198Y30707D01*
X114220Y30646D01*
X114249Y30587D01*
X114282Y30529D01*
X114319Y30474D01*
X114362Y30424D01*
X114366Y30420D01*
X114373Y30413D01*
X114388Y30398D01*
X114406Y30384D01*
X114431Y30362D01*
X114461Y30340D01*
X114493Y30318D01*
X114530Y30292D01*
X114573Y30267D01*
X114621Y30245D01*
X114672Y30223D01*
X114726Y30202D01*
X114785Y30187D01*
X114843Y30172D01*
X114908Y30165D01*
X114977Y30161D01*
X114996D01*
X115014Y30165D01*
X115039D01*
X115072Y30169D01*
X115108Y30176D01*
X115152Y30183D01*
X115196Y30194D01*
X115247Y30209D01*
X115294Y30227D01*
X115349Y30245D01*
X115400Y30271D01*
X115451Y30303D01*
X115501Y30336D01*
X115552Y30376D01*
X115600Y30424D01*
X115603Y30427D01*
X115611Y30435D01*
X115622Y30453D01*
X115640Y30474D01*
X115658Y30500D01*
X115676Y30533D01*
X115698Y30573D01*
X115724Y30617D01*
X115745Y30667D01*
X115767Y30726D01*
X115786Y30788D01*
X115807Y30853D01*
X115822Y30926D01*
X115833Y31006D01*
X115840Y31090D01*
X115844Y31177D01*
Y31181D01*
Y31192D01*
Y31206D01*
Y31228D01*
X115840Y31253D01*
Y31286D01*
X115836Y31319D01*
X115829Y31359D01*
X115818Y31443D01*
X115800Y31530D01*
X115775Y31625D01*
X115738Y31712D01*
Y31716D01*
X115735Y31723D01*
X115727Y31734D01*
X115720Y31749D01*
X115694Y31792D01*
X115662Y31843D01*
X115618Y31901D01*
X115563Y31960D01*
X115501Y32018D01*
X115432Y32069D01*
X115429D01*
X115425Y32076D01*
X115414Y32080D01*
X115396Y32091D01*
X115378Y32098D01*
X115356Y32109D01*
X115301Y32134D01*
X115236Y32156D01*
X115159Y32178D01*
X115072Y32193D01*
X114981Y32196D01*
D02*
G37*
G36*
X143058Y32160D02*
X142264D01*
Y31326D01*
X143014D01*
X143058Y31330D01*
X143108Y31334D01*
X143167Y31337D01*
X143225Y31345D01*
X143283Y31355D01*
X143334Y31370D01*
X143342Y31374D01*
X143356Y31381D01*
X143378Y31392D01*
X143407Y31406D01*
X143440Y31428D01*
X143473Y31454D01*
X143505Y31486D01*
X143531Y31523D01*
X143534Y31526D01*
X143542Y31541D01*
X143553Y31563D01*
X143567Y31592D01*
X143578Y31625D01*
X143589Y31661D01*
X143596Y31705D01*
X143600Y31749D01*
Y31752D01*
Y31756D01*
X143596Y31778D01*
X143593Y31810D01*
X143585Y31854D01*
X143567Y31898D01*
X143545Y31949D01*
X143512Y31996D01*
X143469Y32043D01*
X143462Y32047D01*
X143443Y32062D01*
X143414Y32080D01*
X143367Y32102D01*
X143312Y32124D01*
X143239Y32142D01*
X143156Y32156D01*
X143058Y32160D01*
D02*
G37*
G36*
X258842Y219456D02*
X258259D01*
Y217534D01*
X258856D01*
X258882Y217537D01*
X258936Y217541D01*
X258998Y217545D01*
X259064Y217552D01*
X259129Y217563D01*
X259184Y217577D01*
X259191Y217581D01*
X259209Y217585D01*
X259235Y217596D01*
X259268Y217610D01*
X259304Y217632D01*
X259340Y217654D01*
X259377Y217679D01*
X259413Y217708D01*
X259417Y217716D01*
X259431Y217730D01*
X259453Y217756D01*
X259479Y217792D01*
X259508Y217840D01*
X259541Y217894D01*
X259570Y217956D01*
X259595Y218025D01*
Y218029D01*
X259599Y218036D01*
X259602Y218047D01*
X259606Y218062D01*
X259610Y218080D01*
X259617Y218105D01*
X259624Y218131D01*
X259632Y218160D01*
X259643Y218233D01*
X259653Y218316D01*
X259661Y218411D01*
X259664Y218513D01*
Y218517D01*
Y218531D01*
Y218549D01*
X259661Y218578D01*
Y218611D01*
X259657Y218648D01*
X259653Y218691D01*
X259650Y218735D01*
X259632Y218833D01*
X259610Y218935D01*
X259577Y219030D01*
X259555Y219077D01*
X259533Y219117D01*
Y219121D01*
X259526Y219128D01*
X259519Y219139D01*
X259511Y219154D01*
X259482Y219190D01*
X259446Y219234D01*
X259399Y219281D01*
X259344Y219328D01*
X259282Y219368D01*
X259217Y219401D01*
X259209Y219405D01*
X259191Y219408D01*
X259158Y219419D01*
X259111Y219430D01*
X259053Y219438D01*
X258980Y219448D01*
X258936Y219452D01*
X258889D01*
X258842Y219456D01*
D02*
G37*
G36*
X256086Y240453D02*
X255489D01*
Y239696D01*
X256108D01*
X256155Y239700D01*
X256206Y239703D01*
X256257Y239707D01*
X256308Y239714D01*
X256348Y239721D01*
X256356Y239725D01*
X256370Y239729D01*
X256392Y239740D01*
X256421Y239754D01*
X256450Y239769D01*
X256483Y239791D01*
X256516Y239820D01*
X256541Y239849D01*
X256545Y239852D01*
X256552Y239863D01*
X256563Y239885D01*
X256574Y239911D01*
X256585Y239940D01*
X256596Y239976D01*
X256603Y240020D01*
X256607Y240067D01*
Y240074D01*
Y240089D01*
X256603Y240111D01*
X256599Y240140D01*
X256592Y240176D01*
X256581Y240213D01*
X256567Y240249D01*
X256545Y240286D01*
X256541Y240289D01*
X256534Y240300D01*
X256519Y240318D01*
X256501Y240337D01*
X256476Y240358D01*
X256447Y240380D01*
X256410Y240402D01*
X256370Y240417D01*
X256366D01*
X256348Y240424D01*
X256323Y240428D01*
X256283Y240435D01*
X256228Y240442D01*
X256166Y240446D01*
X256086Y240453D01*
D02*
G37*
G36*
X256152Y239397D02*
X255489D01*
Y238531D01*
X256206D01*
X256283Y238535D01*
X256315Y238538D01*
X256345Y238542D01*
X256348D01*
X256363Y238546D01*
X256385Y238549D01*
X256410Y238557D01*
X256472Y238578D01*
X256534Y238608D01*
X256538Y238611D01*
X256549Y238618D01*
X256563Y238629D01*
X256581Y238644D01*
X256599Y238666D01*
X256625Y238688D01*
X256643Y238717D01*
X256665Y238750D01*
X256669Y238753D01*
X256672Y238764D01*
X256680Y238786D01*
X256691Y238811D01*
X256701Y238841D01*
X256709Y238877D01*
X256712Y238921D01*
X256716Y238964D01*
Y238972D01*
Y238986D01*
X256712Y239015D01*
X256705Y239048D01*
X256698Y239084D01*
X256683Y239124D01*
X256665Y239164D01*
X256640Y239205D01*
X256636Y239208D01*
X256625Y239223D01*
X256610Y239241D01*
X256589Y239263D01*
X256559Y239288D01*
X256523Y239314D01*
X256483Y239336D01*
X256436Y239354D01*
X256428Y239357D01*
X256414Y239361D01*
X256381Y239368D01*
X256341Y239376D01*
X256290Y239383D01*
X256228Y239390D01*
X256152Y239397D01*
D02*
G37*
G36*
X259260Y208957D02*
X258678D01*
Y207035D01*
X259275D01*
X259300Y207039D01*
X259355Y207042D01*
X259417Y207046D01*
X259482Y207053D01*
X259548Y207064D01*
X259602Y207079D01*
X259610Y207082D01*
X259628Y207086D01*
X259653Y207097D01*
X259686Y207112D01*
X259723Y207133D01*
X259759Y207155D01*
X259795Y207181D01*
X259832Y207210D01*
X259835Y207217D01*
X259850Y207232D01*
X259872Y207257D01*
X259897Y207294D01*
X259926Y207341D01*
X259959Y207395D01*
X259988Y207457D01*
X260014Y207526D01*
Y207530D01*
X260017Y207537D01*
X260021Y207548D01*
X260025Y207563D01*
X260028Y207581D01*
X260036Y207607D01*
X260043Y207632D01*
X260050Y207661D01*
X260061Y207734D01*
X260072Y207818D01*
X260079Y207912D01*
X260083Y208014D01*
Y208018D01*
Y208032D01*
Y208051D01*
X260079Y208080D01*
Y208113D01*
X260076Y208149D01*
X260072Y208193D01*
X260068Y208236D01*
X260050Y208335D01*
X260028Y208436D01*
X259996Y208531D01*
X259974Y208578D01*
X259952Y208618D01*
Y208622D01*
X259945Y208629D01*
X259937Y208640D01*
X259930Y208655D01*
X259901Y208691D01*
X259864Y208735D01*
X259817Y208782D01*
X259763Y208830D01*
X259701Y208870D01*
X259635Y208902D01*
X259628Y208906D01*
X259610Y208910D01*
X259577Y208921D01*
X259530Y208931D01*
X259471Y208939D01*
X259399Y208950D01*
X259355Y208953D01*
X259308D01*
X259260Y208957D01*
D02*
G37*
G36*
X262966Y209012D02*
X262933D01*
X262908Y209008D01*
X262875Y209004D01*
X262842Y208997D01*
X262802Y208990D01*
X262758Y208982D01*
X262664Y208953D01*
X262613Y208931D01*
X262562Y208910D01*
X262507Y208881D01*
X262456Y208848D01*
X262405Y208811D01*
X262358Y208768D01*
X262354Y208764D01*
X262347Y208757D01*
X262336Y208742D01*
X262318Y208720D01*
X262300Y208695D01*
X262278Y208662D01*
X262256Y208622D01*
X262230Y208575D01*
X262209Y208524D01*
X262183Y208462D01*
X262161Y208396D01*
X262143Y208324D01*
X262125Y208244D01*
X262114Y208153D01*
X262107Y208058D01*
X262103Y207956D01*
Y207952D01*
Y207938D01*
Y207912D01*
X262107Y207880D01*
X262110Y207843D01*
X262118Y207800D01*
X262125Y207749D01*
X262132Y207698D01*
X262161Y207581D01*
X262183Y207523D01*
X262205Y207461D01*
X262234Y207403D01*
X262267Y207345D01*
X262303Y207290D01*
X262347Y207239D01*
X262351Y207235D01*
X262358Y207228D01*
X262372Y207213D01*
X262391Y207199D01*
X262416Y207177D01*
X262445Y207155D01*
X262478Y207133D01*
X262514Y207108D01*
X262558Y207082D01*
X262606Y207061D01*
X262656Y207039D01*
X262711Y207017D01*
X262769Y207002D01*
X262827Y206988D01*
X262893Y206980D01*
X262962Y206977D01*
X262980D01*
X262999Y206980D01*
X263024D01*
X263057Y206984D01*
X263093Y206991D01*
X263137Y206999D01*
X263181Y207010D01*
X263231Y207024D01*
X263279Y207042D01*
X263333Y207061D01*
X263384Y207086D01*
X263435Y207119D01*
X263486Y207152D01*
X263537Y207192D01*
X263585Y207239D01*
X263588Y207243D01*
X263596Y207250D01*
X263606Y207268D01*
X263625Y207290D01*
X263643Y207315D01*
X263661Y207348D01*
X263683Y207388D01*
X263708Y207432D01*
X263730Y207483D01*
X263752Y207541D01*
X263770Y207603D01*
X263792Y207668D01*
X263807Y207741D01*
X263818Y207821D01*
X263825Y207905D01*
X263828Y207992D01*
Y207996D01*
Y208007D01*
Y208021D01*
Y208043D01*
X263825Y208069D01*
Y208102D01*
X263821Y208134D01*
X263814Y208174D01*
X263803Y208258D01*
X263785Y208346D01*
X263759Y208440D01*
X263723Y208527D01*
Y208531D01*
X263719Y208538D01*
X263712Y208549D01*
X263705Y208564D01*
X263679Y208608D01*
X263647Y208659D01*
X263603Y208717D01*
X263548Y208775D01*
X263486Y208833D01*
X263417Y208884D01*
X263414D01*
X263410Y208892D01*
X263399Y208895D01*
X263381Y208906D01*
X263363Y208913D01*
X263341Y208924D01*
X263286Y208950D01*
X263221Y208972D01*
X263144Y208993D01*
X263057Y209008D01*
X262966Y209012D01*
D02*
G37*
G36*
X276283Y51796D02*
X275727D01*
Y51212D01*
X276252D01*
X276283Y51214D01*
X276318Y51217D01*
X276359Y51219D01*
X276400Y51224D01*
X276441Y51232D01*
X276476Y51242D01*
X276482Y51245D01*
X276492Y51250D01*
X276507Y51258D01*
X276527Y51268D01*
X276550Y51283D01*
X276573Y51301D01*
X276596Y51324D01*
X276614Y51349D01*
X276617Y51352D01*
X276622Y51362D01*
X276629Y51377D01*
X276640Y51398D01*
X276647Y51421D01*
X276655Y51446D01*
X276660Y51477D01*
X276663Y51508D01*
Y51510D01*
Y51513D01*
X276660Y51528D01*
X276658Y51551D01*
X276652Y51582D01*
X276640Y51612D01*
X276624Y51648D01*
X276601Y51681D01*
X276571Y51714D01*
X276566Y51717D01*
X276553Y51727D01*
X276533Y51740D01*
X276499Y51755D01*
X276461Y51770D01*
X276410Y51783D01*
X276351Y51793D01*
X276283Y51796D01*
D02*
G37*
G36*
X205663Y208851D02*
Y208848D01*
X205660Y208840D01*
Y208826D01*
X205653Y208811D01*
X205649Y208786D01*
X205642Y208760D01*
X205627Y208698D01*
X205609Y208626D01*
X205584Y208545D01*
X205558Y208458D01*
X205525Y208367D01*
X205252Y207632D01*
X206104D01*
X205842Y208324D01*
Y208327D01*
X205838Y208338D01*
X205831Y208356D01*
X205824Y208378D01*
X205813Y208404D01*
X205802Y208436D01*
X205791Y208473D01*
X205776Y208509D01*
X205747Y208593D01*
X205718Y208680D01*
X205689Y208768D01*
X205663Y208851D01*
D02*
G37*
G36*
X203181Y208815D02*
X202599D01*
Y206893D01*
X203196D01*
X203221Y206897D01*
X203276Y206900D01*
X203338Y206904D01*
X203403Y206911D01*
X203469Y206922D01*
X203523Y206937D01*
X203531Y206940D01*
X203549Y206944D01*
X203574Y206955D01*
X203607Y206969D01*
X203643Y206991D01*
X203680Y207013D01*
X203716Y207039D01*
X203752Y207068D01*
X203756Y207075D01*
X203771Y207089D01*
X203793Y207115D01*
X203818Y207151D01*
X203847Y207199D01*
X203880Y207253D01*
X203909Y207315D01*
X203935Y207384D01*
Y207388D01*
X203938Y207395D01*
X203942Y207406D01*
X203945Y207421D01*
X203949Y207439D01*
X203956Y207464D01*
X203964Y207490D01*
X203971Y207519D01*
X203982Y207592D01*
X203993Y207676D01*
X204000Y207770D01*
X204004Y207872D01*
Y207876D01*
Y207890D01*
Y207909D01*
X204000Y207938D01*
Y207970D01*
X203996Y208007D01*
X203993Y208050D01*
X203989Y208094D01*
X203971Y208192D01*
X203949Y208294D01*
X203916Y208389D01*
X203894Y208436D01*
X203873Y208476D01*
Y208480D01*
X203865Y208487D01*
X203858Y208498D01*
X203851Y208513D01*
X203822Y208549D01*
X203785Y208593D01*
X203738Y208640D01*
X203683Y208687D01*
X203622Y208728D01*
X203556Y208760D01*
X203549Y208764D01*
X203531Y208768D01*
X203498Y208779D01*
X203450Y208789D01*
X203392Y208797D01*
X203319Y208808D01*
X203276Y208811D01*
X203228D01*
X203181Y208815D01*
D02*
G37*
G36*
X206086Y228438D02*
X205503D01*
Y226516D01*
X206100D01*
X206126Y226520D01*
X206180Y226523D01*
X206242Y226527D01*
X206308Y226534D01*
X206373Y226545D01*
X206428Y226560D01*
X206435Y226563D01*
X206453Y226567D01*
X206479Y226578D01*
X206512Y226592D01*
X206548Y226614D01*
X206585Y226636D01*
X206621Y226662D01*
X206657Y226691D01*
X206661Y226698D01*
X206676Y226712D01*
X206697Y226738D01*
X206723Y226774D01*
X206752Y226822D01*
X206785Y226876D01*
X206814Y226938D01*
X206839Y227007D01*
Y227011D01*
X206843Y227018D01*
X206846Y227029D01*
X206850Y227044D01*
X206854Y227062D01*
X206861Y227087D01*
X206868Y227113D01*
X206876Y227142D01*
X206887Y227215D01*
X206897Y227299D01*
X206905Y227393D01*
X206908Y227495D01*
Y227499D01*
Y227513D01*
Y227532D01*
X206905Y227561D01*
Y227593D01*
X206901Y227630D01*
X206897Y227674D01*
X206894Y227717D01*
X206876Y227815D01*
X206854Y227917D01*
X206821Y228012D01*
X206799Y228059D01*
X206777Y228099D01*
Y228103D01*
X206770Y228110D01*
X206763Y228121D01*
X206755Y228136D01*
X206726Y228172D01*
X206690Y228216D01*
X206643Y228263D01*
X206588Y228310D01*
X206526Y228350D01*
X206461Y228383D01*
X206453Y228387D01*
X206435Y228391D01*
X206402Y228401D01*
X206355Y228412D01*
X206297Y228420D01*
X206224Y228431D01*
X206180Y228434D01*
X206133D01*
X206086Y228438D01*
D02*
G37*
G36*
X285633Y41431D02*
X285077D01*
Y40846D01*
X285602D01*
X285633Y40849D01*
X285669Y40852D01*
X285710Y40854D01*
X285750Y40859D01*
X285791Y40867D01*
X285827Y40877D01*
X285832Y40880D01*
X285842Y40885D01*
X285857Y40892D01*
X285878Y40903D01*
X285901Y40918D01*
X285924Y40936D01*
X285947Y40959D01*
X285964Y40984D01*
X285967Y40987D01*
X285972Y40997D01*
X285980Y41012D01*
X285990Y41033D01*
X285998Y41056D01*
X286005Y41081D01*
X286010Y41112D01*
X286013Y41142D01*
Y41145D01*
Y41147D01*
X286010Y41163D01*
X286008Y41186D01*
X286003Y41216D01*
X285990Y41247D01*
X285975Y41282D01*
X285952Y41316D01*
X285921Y41349D01*
X285916Y41351D01*
X285903Y41362D01*
X285883Y41374D01*
X285850Y41390D01*
X285811Y41405D01*
X285760Y41418D01*
X285702Y41428D01*
X285633Y41431D01*
D02*
G37*
G36*
X287892Y51756D02*
X287877D01*
X287867Y51753D01*
X287839Y51748D01*
X287806Y51740D01*
X287767Y51725D01*
X287727Y51702D01*
X287706Y51687D01*
X287686Y51671D01*
X287668Y51651D01*
X287650Y51628D01*
Y51626D01*
X287645Y51620D01*
X287640Y51610D01*
X287632Y51597D01*
X287625Y51577D01*
X287614Y51554D01*
X287607Y51526D01*
X287597Y51493D01*
X287586Y51455D01*
X287576Y51411D01*
X287566Y51363D01*
X287558Y51309D01*
X287551Y51248D01*
X287545Y51182D01*
X287543Y51110D01*
X287540Y51031D01*
Y51026D01*
Y51013D01*
Y50991D01*
X287543Y50960D01*
Y50927D01*
X287545Y50886D01*
X287548Y50843D01*
X287553Y50797D01*
X287566Y50697D01*
X287574Y50649D01*
X287584Y50603D01*
X287594Y50560D01*
X287609Y50519D01*
X287625Y50483D01*
X287642Y50453D01*
Y50450D01*
X287648Y50447D01*
X287660Y50430D01*
X287683Y50407D01*
X287711Y50381D01*
X287750Y50356D01*
X287793Y50333D01*
X287841Y50315D01*
X287867Y50312D01*
X287895Y50310D01*
X287910D01*
X287920Y50312D01*
X287946Y50317D01*
X287982Y50328D01*
X288020Y50345D01*
X288063Y50371D01*
X288084Y50386D01*
X288104Y50407D01*
X288124Y50427D01*
X288145Y50453D01*
Y50455D01*
X288150Y50460D01*
X288155Y50468D01*
X288160Y50481D01*
X288170Y50498D01*
X288178Y50521D01*
X288188Y50547D01*
X288198Y50577D01*
X288206Y50616D01*
X288216Y50656D01*
X288226Y50705D01*
X288234Y50756D01*
X288239Y50817D01*
X288244Y50881D01*
X288249Y50952D01*
Y51031D01*
Y51034D01*
Y51037D01*
Y51049D01*
Y51072D01*
X288247Y51103D01*
Y51136D01*
X288244Y51177D01*
X288242Y51220D01*
X288237Y51269D01*
X288224Y51365D01*
X288216Y51414D01*
X288206Y51460D01*
X288196Y51503D01*
X288180Y51544D01*
X288165Y51580D01*
X288147Y51610D01*
Y51613D01*
X288142Y51615D01*
X288137Y51623D01*
X288129Y51633D01*
X288106Y51656D01*
X288078Y51684D01*
X288040Y51710D01*
X287997Y51733D01*
X287974Y51743D01*
X287948Y51750D01*
X287920Y51753D01*
X287892Y51756D01*
D02*
G37*
G36*
X286263D02*
X286240D01*
X286222Y51753D01*
X286199Y51750D01*
X286176Y51745D01*
X286148Y51740D01*
X286118Y51735D01*
X286051Y51715D01*
X286016Y51700D01*
X285980Y51684D01*
X285942Y51664D01*
X285906Y51641D01*
X285870Y51615D01*
X285837Y51585D01*
X285835Y51582D01*
X285829Y51577D01*
X285822Y51567D01*
X285809Y51552D01*
X285796Y51534D01*
X285781Y51511D01*
X285766Y51483D01*
X285748Y51450D01*
X285733Y51414D01*
X285715Y51371D01*
X285699Y51325D01*
X285687Y51274D01*
X285674Y51218D01*
X285666Y51154D01*
X285661Y51087D01*
X285659Y51016D01*
Y51013D01*
Y51003D01*
Y50985D01*
X285661Y50963D01*
X285664Y50937D01*
X285669Y50906D01*
X285674Y50871D01*
X285679Y50835D01*
X285699Y50753D01*
X285715Y50713D01*
X285730Y50669D01*
X285750Y50629D01*
X285773Y50588D01*
X285799Y50549D01*
X285829Y50514D01*
X285832Y50511D01*
X285837Y50506D01*
X285847Y50496D01*
X285860Y50486D01*
X285878Y50470D01*
X285898Y50455D01*
X285921Y50440D01*
X285947Y50422D01*
X285977Y50404D01*
X286010Y50389D01*
X286046Y50374D01*
X286084Y50358D01*
X286125Y50348D01*
X286166Y50338D01*
X286212Y50333D01*
X286260Y50330D01*
X286273D01*
X286286Y50333D01*
X286304D01*
X286327Y50335D01*
X286352Y50340D01*
X286383Y50345D01*
X286413Y50353D01*
X286449Y50363D01*
X286482Y50376D01*
X286520Y50389D01*
X286556Y50407D01*
X286592Y50430D01*
X286628Y50453D01*
X286663Y50481D01*
X286696Y50514D01*
X286699Y50516D01*
X286704Y50521D01*
X286712Y50534D01*
X286724Y50549D01*
X286737Y50567D01*
X286750Y50590D01*
X286765Y50618D01*
X286783Y50649D01*
X286798Y50685D01*
X286814Y50725D01*
X286826Y50769D01*
X286842Y50815D01*
X286852Y50866D01*
X286860Y50922D01*
X286865Y50980D01*
X286867Y51042D01*
Y51044D01*
Y51052D01*
Y51062D01*
Y51077D01*
X286865Y51095D01*
Y51118D01*
X286862Y51141D01*
X286857Y51169D01*
X286849Y51228D01*
X286837Y51289D01*
X286819Y51355D01*
X286793Y51416D01*
Y51419D01*
X286791Y51424D01*
X286786Y51432D01*
X286781Y51442D01*
X286763Y51473D01*
X286740Y51508D01*
X286709Y51549D01*
X286671Y51590D01*
X286628Y51631D01*
X286579Y51666D01*
X286577D01*
X286574Y51671D01*
X286566Y51674D01*
X286554Y51682D01*
X286541Y51687D01*
X286526Y51694D01*
X286487Y51712D01*
X286441Y51727D01*
X286388Y51743D01*
X286327Y51753D01*
X286263Y51756D01*
D02*
G37*
G36*
Y62025D02*
X286240D01*
X286222Y62022D01*
X286199Y62019D01*
X286176Y62014D01*
X286148Y62009D01*
X286118Y62004D01*
X286051Y61984D01*
X286016Y61968D01*
X285980Y61953D01*
X285942Y61933D01*
X285906Y61910D01*
X285870Y61884D01*
X285837Y61854D01*
X285835Y61851D01*
X285829Y61846D01*
X285822Y61836D01*
X285809Y61821D01*
X285796Y61803D01*
X285781Y61780D01*
X285766Y61752D01*
X285748Y61719D01*
X285733Y61683D01*
X285715Y61639D01*
X285699Y61594D01*
X285687Y61543D01*
X285674Y61487D01*
X285666Y61423D01*
X285661Y61357D01*
X285659Y61285D01*
Y61282D01*
Y61272D01*
Y61255D01*
X285661Y61231D01*
X285664Y61206D01*
X285669Y61175D01*
X285674Y61140D01*
X285679Y61104D01*
X285699Y61022D01*
X285715Y60982D01*
X285730Y60938D01*
X285750Y60897D01*
X285773Y60857D01*
X285799Y60818D01*
X285829Y60783D01*
X285832Y60780D01*
X285837Y60775D01*
X285847Y60765D01*
X285860Y60755D01*
X285878Y60739D01*
X285898Y60724D01*
X285921Y60709D01*
X285947Y60691D01*
X285977Y60673D01*
X286010Y60658D01*
X286046Y60642D01*
X286084Y60627D01*
X286125Y60617D01*
X286166Y60607D01*
X286212Y60602D01*
X286260Y60599D01*
X286273D01*
X286286Y60602D01*
X286304D01*
X286327Y60604D01*
X286352Y60609D01*
X286383Y60614D01*
X286413Y60622D01*
X286449Y60632D01*
X286482Y60645D01*
X286520Y60658D01*
X286556Y60676D01*
X286592Y60699D01*
X286628Y60721D01*
X286663Y60750D01*
X286696Y60783D01*
X286699Y60785D01*
X286704Y60790D01*
X286712Y60803D01*
X286724Y60818D01*
X286737Y60836D01*
X286750Y60859D01*
X286765Y60887D01*
X286783Y60918D01*
X286798Y60954D01*
X286814Y60994D01*
X286826Y61038D01*
X286842Y61084D01*
X286852Y61135D01*
X286860Y61191D01*
X286865Y61249D01*
X286867Y61311D01*
Y61313D01*
Y61321D01*
Y61331D01*
Y61346D01*
X286865Y61364D01*
Y61387D01*
X286862Y61410D01*
X286857Y61438D01*
X286849Y61497D01*
X286837Y61558D01*
X286819Y61624D01*
X286793Y61685D01*
Y61688D01*
X286791Y61693D01*
X286786Y61701D01*
X286781Y61711D01*
X286763Y61742D01*
X286740Y61777D01*
X286709Y61818D01*
X286671Y61859D01*
X286628Y61900D01*
X286579Y61935D01*
X286577D01*
X286574Y61940D01*
X286566Y61943D01*
X286554Y61951D01*
X286541Y61956D01*
X286526Y61963D01*
X286487Y61981D01*
X286441Y61997D01*
X286388Y62012D01*
X286327Y62022D01*
X286263Y62025D01*
D02*
G37*
G36*
X289244Y72255D02*
X288836D01*
Y70909D01*
X289254D01*
X289272Y70912D01*
X289310Y70914D01*
X289353Y70917D01*
X289399Y70922D01*
X289445Y70929D01*
X289483Y70940D01*
X289489Y70942D01*
X289501Y70945D01*
X289519Y70952D01*
X289542Y70963D01*
X289568Y70978D01*
X289593Y70993D01*
X289619Y71011D01*
X289644Y71031D01*
X289647Y71036D01*
X289657Y71047D01*
X289672Y71065D01*
X289690Y71090D01*
X289710Y71123D01*
X289733Y71161D01*
X289754Y71205D01*
X289772Y71253D01*
Y71256D01*
X289774Y71261D01*
X289777Y71268D01*
X289779Y71279D01*
X289782Y71292D01*
X289787Y71309D01*
X289792Y71327D01*
X289797Y71348D01*
X289805Y71399D01*
X289812Y71457D01*
X289818Y71523D01*
X289820Y71595D01*
Y71597D01*
Y71608D01*
Y71620D01*
X289818Y71641D01*
Y71664D01*
X289815Y71689D01*
X289812Y71720D01*
X289810Y71750D01*
X289797Y71819D01*
X289782Y71891D01*
X289759Y71957D01*
X289744Y71990D01*
X289728Y72018D01*
Y72021D01*
X289723Y72026D01*
X289718Y72034D01*
X289713Y72044D01*
X289693Y72069D01*
X289667Y72100D01*
X289634Y72133D01*
X289596Y72166D01*
X289552Y72194D01*
X289507Y72217D01*
X289501Y72220D01*
X289489Y72222D01*
X289466Y72230D01*
X289433Y72237D01*
X289392Y72243D01*
X289341Y72250D01*
X289310Y72253D01*
X289277D01*
X289244Y72255D01*
D02*
G37*
%LPD*%
D10*
X261713Y161417D02*
G03*
X261713Y161417I-492J0D01*
G01*
X218110Y352362D02*
G03*
X218110Y352362I-492J0D01*
G01*
X220669Y307480D02*
G03*
X220669Y307480I-492J0D01*
G01*
X262795Y352362D02*
G03*
X262795Y352362I-492J0D01*
G01*
X285728Y307480D02*
G03*
X285728Y307480I-492J0D01*
G01*
X253937D02*
G03*
X253937Y307480I-492J0D01*
G01*
X377362Y65197D02*
G03*
X377362Y65197I-492J0D01*
G01*
X315256Y244153D02*
G03*
X315256Y244153I-492J0D01*
G01*
X307933Y331398D02*
G03*
X307933Y331398I-492J0D01*
G01*
X330157Y65354D02*
G03*
X330157Y65354I-492J0D01*
G01*
X64764Y284154D02*
G03*
X64764Y284154I-492J0D01*
G01*
X96102Y66043D02*
G03*
X96102Y66043I-492J0D01*
G01*
X121161Y233858D02*
G03*
X121161Y233858I-492J0D01*
G01*
X138091Y41240D02*
G03*
X138091Y41240I-492J0D01*
G01*
X132579Y76673D02*
G03*
X132579Y76673I-492J0D01*
G01*
X348681Y197776D02*
G03*
X348681Y197776I-492J0D01*
G01*
X53740Y66083D02*
G03*
X53740Y66083I-492J0D01*
G01*
X350492Y332343D02*
G03*
X350492Y332343I-492J0D01*
G01*
X249311Y77264D02*
G03*
X249311Y77264I-492J0D01*
G01*
D11*
X227461Y347047D02*
G03*
X227461Y347047I-1181J0D01*
G01*
X272146D02*
G03*
X272146Y347047I-1181J0D01*
G01*
X313681Y340158D02*
G03*
X313681Y340158I-1181J0D01*
G01*
X325787Y56595D02*
G03*
X325787Y56595I-1181J0D01*
G01*
X91732Y57284D02*
G03*
X91732Y57284I-1181J0D01*
G01*
D12*
X112894Y153248D02*
G03*
X112894Y153248I-20669J0D01*
G01*
X145276Y276476D02*
G03*
X145276Y276476I-20669J0D01*
G01*
D13*
X64787Y299902D02*
G03*
X64787Y299902I-500J0D01*
G01*
X316398Y186221D02*
G03*
X316398Y186221I-500J0D01*
G01*
X64787Y249803D02*
G03*
X64787Y249803I-500J0D01*
G01*
X389764Y196850D02*
G03*
X389764Y196850I-192913J0D01*
G01*
X116759Y117815D02*
G03*
X116759Y117815I-500J0D01*
G01*
D14*
X15771Y289476D02*
G03*
X5299Y295473I-82J12000D01*
G01*
X207201Y21819D02*
G03*
X207245Y9751I-10351J-6071D01*
G01*
X371882Y207201D02*
G03*
X383949Y207245I6071J-10351D01*
G01*
X186500Y371882D02*
G03*
X186456Y383949I10351J6071D01*
G01*
X307109Y26417D02*
G03*
X313180Y15988I-5928J-10433D01*
G01*
X26142Y86197D02*
G03*
X15712Y80125I-10433J5928D01*
G01*
X377713Y104027D02*
G03*
X388186Y98030I82J-12000D01*
G01*
X21819Y186500D02*
G03*
X9751Y186456I-6071J10351D01*
G01*
X289575Y377831D02*
G03*
X295571Y388304I12000J82D01*
G01*
X367480Y307306D02*
G03*
X377909Y313377I10433J-5928D01*
G01*
X86100Y367480D02*
G03*
X80028Y377909I5928J10433D01*
G01*
X104422Y16067D02*
G03*
X98425Y5594I-12000J-82D01*
G01*
X23865Y301836D02*
X25365Y304434D01*
X23489Y303785D02*
X25914Y302385D01*
X5379Y295419D02*
X15685Y289469D01*
X189450Y22648D02*
X192450D01*
X190950Y21348D02*
Y24148D01*
X207250Y9848D02*
Y21748D01*
X371053Y189450D02*
Y192450D01*
X369553Y190950D02*
X372353D01*
X371953Y207250D02*
X383853D01*
X201250Y371053D02*
X204250D01*
X202750Y369553D02*
Y372353D01*
X186450Y371953D02*
Y383853D01*
X307187Y26380D02*
X313137Y16075D01*
X291871Y20309D02*
X293271Y17884D01*
X291322Y18260D02*
X293920Y19760D01*
X15799Y80169D02*
X26105Y86119D01*
X17608Y100035D02*
X20033Y101435D01*
X17984Y101984D02*
X19484Y99386D01*
X377799Y104034D02*
X388105Y98084D01*
X367571Y91117D02*
X369996Y89717D01*
X368120Y89068D02*
X369620Y91666D01*
X9848Y186450D02*
X21748D01*
X21348Y202750D02*
X24148D01*
X22648Y201250D02*
Y204250D01*
X289568Y377917D02*
X295518Y388223D01*
X302484Y367689D02*
X303884Y370114D01*
X301935Y369738D02*
X304533Y368238D01*
X367517Y307384D02*
X377823Y313334D01*
X373589Y292068D02*
X376014Y293468D01*
X374138Y294117D02*
X375638Y291519D01*
X80071Y377823D02*
X86021Y367517D01*
X99938Y376014D02*
X101338Y373589D01*
X99289Y374138D02*
X101887Y375638D01*
X98479Y5675D02*
X104429Y15980D01*
X90112Y23784D02*
X91512Y26209D01*
X89463Y25660D02*
X92061Y24160D01*
D15*
X389862Y15354D02*
G03*
X389862Y15354I-11417J0D01*
G01*
X389665Y148228D02*
G03*
X389665Y148228I-11417J0D01*
G01*
X389764Y245472D02*
G03*
X389764Y245472I-11417J0D01*
G01*
X159639Y15467D02*
G03*
X159639Y15467I-11417J0D01*
G01*
X256883Y15438D02*
G03*
X256883Y15438I-11417J0D01*
G01*
X26681Y15347D02*
G03*
X26681Y15347I-11417J0D01*
G01*
X389665Y378248D02*
G03*
X389665Y378248I-11417J0D01*
G01*
X256981Y378558D02*
G03*
X256981Y378558I-11417J0D01*
G01*
X159639Y378430D02*
G03*
X159639Y378430I-11417J0D01*
G01*
X26673Y378445D02*
G03*
X26673Y378445I-11417J0D01*
G01*
X26476Y245472D02*
G03*
X26476Y245472I-11417J0D01*
G01*
X26673Y148031D02*
G03*
X26673Y148031I-11417J0D01*
G01*
X178150Y325000D02*
X179232D01*
X178150Y349803D02*
X179232D01*
X190846Y325000D02*
X191929D01*
X190846Y349803D02*
X191929D01*
X178150Y325000D02*
Y349803D01*
X191929Y325000D02*
Y349803D01*
X254291Y36516D02*
Y76516D01*
X274291Y36516D02*
Y76516D01*
X254291D02*
X274291D01*
X254291Y36516D02*
X274291D01*
X214370Y118209D02*
Y163681D01*
X229528D02*
X233465D01*
X214370D02*
X218307D01*
X233465Y118209D02*
Y163681D01*
X229528Y118209D02*
X233465D01*
X214370D02*
X218307D01*
X227980Y242610D02*
X249780D01*
Y203610D02*
Y242610D01*
X227980Y203610D02*
Y242610D01*
Y203610D02*
X249780D01*
X268504Y165748D02*
X270768D01*
X322146D02*
X324409D01*
Y109843D02*
Y112106D01*
Y163484D02*
Y165748D01*
X268504Y109843D02*
X270768D01*
X322146D02*
X324409D01*
X268504D02*
Y112106D01*
Y163484D02*
Y165748D01*
X222343Y319488D02*
X242028D01*
X222343Y350984D02*
X242028D01*
Y319488D02*
Y350984D01*
X222343Y319488D02*
Y350984D01*
X209154Y250394D02*
Y305118D01*
X226870D01*
Y250394D02*
Y305118D01*
X209154Y250394D02*
X226870D01*
X75591Y141437D02*
Y165059D01*
X65787Y296602D02*
X81187D01*
Y303102D01*
X65787Y296602D02*
Y303202D01*
X81187D01*
X267028Y319488D02*
Y350984D01*
X286713Y319488D02*
Y350984D01*
X267028D02*
X286713D01*
X267028Y319488D02*
X286713D01*
X274213Y250394D02*
Y305118D01*
X291929D01*
Y250394D02*
Y305118D01*
X274213Y250394D02*
X291929D01*
X242421D02*
Y305118D01*
X260138D01*
Y250394D02*
Y305118D01*
X242421Y250394D02*
X260138D01*
X341339Y48150D02*
Y61299D01*
Y48150D02*
X375787D01*
X341339Y61299D02*
X375787D01*
Y48150D02*
Y61299D01*
X326496Y200157D02*
Y241102D01*
X308583Y238346D02*
X326496Y241102D01*
X308583Y202913D02*
X326496Y200157D01*
X308583Y202913D02*
Y238346D01*
X343110Y336220D02*
Y348819D01*
X308661Y336220D02*
Y348819D01*
X343110D01*
X308661Y336220D02*
X343110D01*
X293996Y47933D02*
Y60532D01*
X328445Y47933D02*
Y60532D01*
X293996Y47933D02*
X328445D01*
X293996Y60532D02*
X328445D01*
X317398Y189520D02*
X332798D01*
X317398Y182920D02*
Y189520D01*
X332798Y182920D02*
Y189420D01*
X317398Y182920D02*
X332798D01*
X67011Y243323D02*
X76689D01*
X67011Y236401D02*
X76689D01*
X65787Y253103D02*
X81187D01*
X65787Y246503D02*
Y253103D01*
X81187Y246503D02*
Y253003D01*
X65787Y246503D02*
X81187D01*
X89075Y277756D02*
Y291043D01*
Y257579D02*
Y270866D01*
X75295Y257579D02*
X89075D01*
X75295Y287598D02*
Y291043D01*
Y267913D02*
Y280709D01*
Y257579D02*
Y261024D01*
Y291043D02*
X89075D01*
X59941Y61220D02*
X94390D01*
X59941Y48622D02*
X94390D01*
Y61220D01*
X59941Y48622D02*
Y61220D01*
X387909Y24818D02*
X389301Y26210D01*
X387909D02*
X389301Y24818D01*
X381712Y161156D02*
X382222Y163058D01*
X381016Y162362D02*
X382917Y161852D01*
X374373Y260302D02*
X374882Y258400D01*
X373677Y259096D02*
X375578Y259606D01*
X161149Y12003D02*
X163051Y11494D01*
X161845Y10798D02*
X162355Y12699D01*
X258393Y18902D02*
X260295Y19412D01*
X259089Y20108D02*
X259599Y18206D01*
X24728Y5883D02*
X26119Y4491D01*
X24728D02*
X26119Y5883D01*
X112795Y259941D02*
X136417D01*
X160728Y254843D02*
Y259252D01*
Y292323D02*
Y296732D01*
X150787Y259252D02*
X170669D01*
X150787D02*
Y292323D01*
X170669D01*
Y259252D02*
Y292323D01*
X96654Y223524D02*
Y227933D01*
Y186043D02*
Y190453D01*
X86713Y223524D02*
X106594D01*
Y190453D02*
Y223524D01*
X86713Y190453D02*
X106594D01*
X86713D02*
Y223524D01*
X132874Y195276D02*
X144094D01*
X132874D02*
Y237402D01*
X144094D01*
X119783Y170177D02*
Y182874D01*
Y133661D02*
Y146358D01*
Y133661D02*
X168996D01*
Y170177D02*
Y182874D01*
Y133661D02*
Y146358D01*
X119783Y182874D02*
X168996D01*
X367392Y387712D02*
X368784Y389104D01*
X367392D02*
X368784Y387712D01*
X231431Y381326D02*
X231940Y383227D01*
X230735Y382531D02*
X232636Y382022D01*
X134088Y375662D02*
X134598Y373761D01*
X133392Y374457D02*
X135294Y374966D01*
X4400Y368981D02*
X5792Y367589D01*
X4400D02*
X5792Y368981D01*
X10390Y231849D02*
X12291Y231339D01*
X11086Y230643D02*
X11595Y232545D01*
X18024Y133898D02*
X19925Y134408D01*
X18720Y135104D02*
X19229Y133202D01*
X139567Y47343D02*
Y70965D01*
X163189Y47343D02*
Y70965D01*
X139567D02*
X163189D01*
X139567Y47343D02*
X163189D01*
X130118Y46949D02*
Y70571D01*
X106496Y46949D02*
Y70571D01*
Y46949D02*
X130118D01*
X106496Y70571D02*
X130118D01*
X355709Y200335D02*
Y237854D01*
X330512D02*
X355709D01*
X330512Y200335D02*
Y237854D01*
Y200335D02*
X355709D01*
X295669Y221643D02*
Y224498D01*
X293110D02*
X295669D01*
Y213080D02*
Y215935D01*
X293110Y213080D02*
X295669D01*
X266732Y221951D02*
X269587D01*
X266732Y219392D02*
Y221951D01*
X275295D02*
X278150D01*
Y219392D02*
Y221951D01*
X52165Y49035D02*
Y62185D01*
X17717D02*
X52165D01*
X17717Y49035D02*
X52165D01*
X17717D02*
Y62185D01*
X351083Y336240D02*
Y349390D01*
Y336240D02*
X385532D01*
X351083Y349390D02*
X385532D01*
Y336240D02*
Y349390D01*
X99359Y121115D02*
X114759D01*
X99359Y114615D02*
Y121115D01*
X114759Y114515D02*
Y121115D01*
X99359Y114515D02*
X114759D01*
X210256Y242854D02*
X220256D01*
Y202854D02*
Y242854D01*
X210256Y202854D02*
Y242854D01*
Y202854D02*
X220256D01*
X246850Y47539D02*
Y71161D01*
X223228Y47539D02*
Y71161D01*
Y47539D02*
X246850D01*
X223228Y71161D02*
X246850D01*
X174350Y58406D02*
Y96909D01*
Y58406D02*
X212854D01*
Y96909D01*
X174350D02*
X212854D01*
D16*
X276772Y168307D02*
D03*
X302362Y107283D02*
D03*
X312205D02*
D03*
X314173Y168307D02*
D03*
X312205D02*
D03*
D17*
X265945Y161417D02*
D03*
Y159449D02*
D03*
Y157480D02*
D03*
X326969Y114173D02*
D03*
Y116142D02*
D03*
Y120079D02*
D03*
Y122047D02*
D03*
Y124016D02*
D03*
D18*
X291437Y321161D02*
D03*
Y323720D02*
D03*
D19*
X178150Y352657D02*
X191929D01*
D20*
X191240Y298031D02*
X196752Y308858D01*
X196949D02*
X202854Y297736D01*
X196850Y111417D02*
Y308268D01*
D21*
X267291Y78184D02*
Y81516D01*
X270624Y78184D01*
X271457D01*
X272290Y79017D01*
Y80683D01*
X271457Y81516D01*
X257291Y79516D02*
Y77850D01*
Y78683D01*
X262290D01*
X261457Y79516D01*
X262290Y35516D02*
Y32184D01*
X261457D01*
X258124Y35516D01*
X257291D01*
X271457D02*
X272290Y34683D01*
Y33017D01*
X271457Y32184D01*
X270624D01*
X269791Y33017D01*
X268957Y32184D01*
X268124D01*
X267291Y33017D01*
Y34683D01*
X268124Y35516D01*
X268957D01*
X269791Y34683D01*
X270624Y35516D01*
X271457D01*
X269791Y34683D02*
Y33017D01*
M02*
